<?xml version="1.0" encoding="utf-8" standalone="no"?>
<!DOCTYPE svg PUBLIC "-//W3C//DTD SVG 1.1//EN"
  "http://www.w3.org/Graphics/SVG/1.1/DTD/svg11.dtd">
<svg xmlns:xlink="http://www.w3.org/1999/xlink" width="856.501562pt" height="497.641875pt" viewBox="0 0 856.501562 497.641875" xmlns="http://www.w3.org/2000/svg" version="1.1">
 <metadata>
  <rdf:RDF xmlns:dc="http://purl.org/dc/elements/1.1/" xmlns:cc="http://creativecommons.org/ns#" xmlns:rdf="http://www.w3.org/1999/02/22-rdf-syntax-ns#">
   <cc:Work>
    <dc:type rdf:resource="http://purl.org/dc/dcmitype/StillImage"/>
    <dc:date>2025-07-07T17:59:07.191334</dc:date>
    <dc:format>image/svg+xml</dc:format>
    <dc:creator>
     <cc:Agent>
      <dc:title>Matplotlib v3.10.3, https://matplotlib.org/</dc:title>
     </cc:Agent>
    </dc:creator>
   </cc:Work>
  </rdf:RDF>
 </metadata>
 <defs>
  <style type="text/css">*{stroke-linejoin: round; stroke-linecap: butt}</style>
 </defs>
 <g id="figure_1">
  <g id="patch_1">
   <path d="M 0 497.641875 
L 856.501562 497.641875 
L 856.501562 0 
L 0 0 
z
" style="fill: #ffffff"/>
  </g>
  <g id="axes_1">
   <g id="patch_2">
    <path d="M 39.801563 459.42625 
L 849.301563 459.42625 
L 849.301563 82.790625 
L 39.801563 82.790625 
z
" style="fill: #ffffff"/>
   </g>
   <g id="matplotlib.axis_1">
    <g id="xtick_1">
     <g id="line2d_1">
      <path d="M 76.597017 459.42625 
L 76.597017 82.790625 
" clip-path="url(#p08838dd7ec)" style="fill: none; stroke-dasharray: 2.96,1.28; stroke-dashoffset: 0; stroke: #cccccc; stroke-opacity: 0.6; stroke-width: 0.8"/>
     </g>
     <g id="text_1">
      <!-- 0 -->
      <g style="fill: #262626" transform="translate(73.816548 473.584062) scale(0.1 -0.1)">
       <defs>
        <path id="ArialMT-30" d="M 266 2259 
Q 266 3072 433 3567 
Q 600 4063 929 4331 
Q 1259 4600 1759 4600 
Q 2128 4600 2406 4451 
Q 2684 4303 2865 4023 
Q 3047 3744 3150 3342 
Q 3253 2941 3253 2259 
Q 3253 1453 3087 958 
Q 2922 463 2592 192 
Q 2263 -78 1759 -78 
Q 1097 -78 719 397 
Q 266 969 266 2259 
z
M 844 2259 
Q 844 1131 1108 757 
Q 1372 384 1759 384 
Q 2147 384 2411 759 
Q 2675 1134 2675 2259 
Q 2675 3391 2411 3762 
Q 2147 4134 1753 4134 
Q 1366 4134 1134 3806 
Q 844 3388 844 2259 
z
" transform="scale(0.015625)"/>
       </defs>
       <use xlink:href="#ArialMT-30"/>
      </g>
     </g>
    </g>
    <g id="xtick_2">
     <g id="line2d_2">
      <path d="M 198.537214 459.42625 
L 198.537214 82.790625 
" clip-path="url(#p08838dd7ec)" style="fill: none; stroke-dasharray: 2.96,1.28; stroke-dashoffset: 0; stroke: #cccccc; stroke-opacity: 0.6; stroke-width: 0.8"/>
     </g>
     <g id="text_2">
      <!-- 200 -->
      <g style="fill: #262626" transform="translate(190.195808 473.584062) scale(0.1 -0.1)">
       <defs>
        <path id="ArialMT-32" d="M 3222 541 
L 3222 0 
L 194 0 
Q 188 203 259 391 
Q 375 700 629 1000 
Q 884 1300 1366 1694 
Q 2113 2306 2375 2664 
Q 2638 3022 2638 3341 
Q 2638 3675 2398 3904 
Q 2159 4134 1775 4134 
Q 1369 4134 1125 3890 
Q 881 3647 878 3216 
L 300 3275 
Q 359 3922 746 4261 
Q 1134 4600 1788 4600 
Q 2447 4600 2831 4234 
Q 3216 3869 3216 3328 
Q 3216 3053 3103 2787 
Q 2991 2522 2730 2228 
Q 2469 1934 1863 1422 
Q 1356 997 1212 845 
Q 1069 694 975 541 
L 3222 541 
z
" transform="scale(0.015625)"/>
       </defs>
       <use xlink:href="#ArialMT-32"/>
       <use xlink:href="#ArialMT-30" transform="translate(55.615234 0)"/>
       <use xlink:href="#ArialMT-30" transform="translate(111.230469 0)"/>
      </g>
     </g>
    </g>
    <g id="xtick_3">
     <g id="line2d_3">
      <path d="M 320.477412 459.42625 
L 320.477412 82.790625 
" clip-path="url(#p08838dd7ec)" style="fill: none; stroke-dasharray: 2.96,1.28; stroke-dashoffset: 0; stroke: #cccccc; stroke-opacity: 0.6; stroke-width: 0.8"/>
     </g>
     <g id="text_3">
      <!-- 400 -->
      <g style="fill: #262626" transform="translate(312.136005 473.584062) scale(0.1 -0.1)">
       <defs>
        <path id="ArialMT-34" d="M 2069 0 
L 2069 1097 
L 81 1097 
L 81 1613 
L 2172 4581 
L 2631 4581 
L 2631 1613 
L 3250 1613 
L 3250 1097 
L 2631 1097 
L 2631 0 
L 2069 0 
z
M 2069 1613 
L 2069 3678 
L 634 1613 
L 2069 1613 
z
" transform="scale(0.015625)"/>
       </defs>
       <use xlink:href="#ArialMT-34"/>
       <use xlink:href="#ArialMT-30" transform="translate(55.615234 0)"/>
       <use xlink:href="#ArialMT-30" transform="translate(111.230469 0)"/>
      </g>
     </g>
    </g>
    <g id="xtick_4">
     <g id="line2d_4">
      <path d="M 442.417609 459.42625 
L 442.417609 82.790625 
" clip-path="url(#p08838dd7ec)" style="fill: none; stroke-dasharray: 2.96,1.28; stroke-dashoffset: 0; stroke: #cccccc; stroke-opacity: 0.6; stroke-width: 0.8"/>
     </g>
     <g id="text_4">
      <!-- 600 -->
      <g style="fill: #262626" transform="translate(434.076203 473.584062) scale(0.1 -0.1)">
       <defs>
        <path id="ArialMT-36" d="M 3184 3459 
L 2625 3416 
Q 2550 3747 2413 3897 
Q 2184 4138 1850 4138 
Q 1581 4138 1378 3988 
Q 1113 3794 959 3422 
Q 806 3050 800 2363 
Q 1003 2672 1297 2822 
Q 1591 2972 1913 2972 
Q 2475 2972 2870 2558 
Q 3266 2144 3266 1488 
Q 3266 1056 3080 686 
Q 2894 316 2569 119 
Q 2244 -78 1831 -78 
Q 1128 -78 684 439 
Q 241 956 241 2144 
Q 241 3472 731 4075 
Q 1159 4600 1884 4600 
Q 2425 4600 2770 4297 
Q 3116 3994 3184 3459 
z
M 888 1484 
Q 888 1194 1011 928 
Q 1134 663 1356 523 
Q 1578 384 1822 384 
Q 2178 384 2434 671 
Q 2691 959 2691 1453 
Q 2691 1928 2437 2201 
Q 2184 2475 1800 2475 
Q 1419 2475 1153 2201 
Q 888 1928 888 1484 
z
" transform="scale(0.015625)"/>
       </defs>
       <use xlink:href="#ArialMT-36"/>
       <use xlink:href="#ArialMT-30" transform="translate(55.615234 0)"/>
       <use xlink:href="#ArialMT-30" transform="translate(111.230469 0)"/>
      </g>
     </g>
    </g>
    <g id="xtick_5">
     <g id="line2d_5">
      <path d="M 564.357806 459.42625 
L 564.357806 82.790625 
" clip-path="url(#p08838dd7ec)" style="fill: none; stroke-dasharray: 2.96,1.28; stroke-dashoffset: 0; stroke: #cccccc; stroke-opacity: 0.6; stroke-width: 0.8"/>
     </g>
     <g id="text_5">
      <!-- 800 -->
      <g style="fill: #262626" transform="translate(556.0164 473.584062) scale(0.1 -0.1)">
       <defs>
        <path id="ArialMT-38" d="M 1131 2484 
Q 781 2613 612 2850 
Q 444 3088 444 3419 
Q 444 3919 803 4259 
Q 1163 4600 1759 4600 
Q 2359 4600 2725 4251 
Q 3091 3903 3091 3403 
Q 3091 3084 2923 2848 
Q 2756 2613 2416 2484 
Q 2838 2347 3058 2040 
Q 3278 1734 3278 1309 
Q 3278 722 2862 322 
Q 2447 -78 1769 -78 
Q 1091 -78 675 323 
Q 259 725 259 1325 
Q 259 1772 486 2073 
Q 713 2375 1131 2484 
z
M 1019 3438 
Q 1019 3113 1228 2906 
Q 1438 2700 1772 2700 
Q 2097 2700 2305 2904 
Q 2513 3109 2513 3406 
Q 2513 3716 2298 3927 
Q 2084 4138 1766 4138 
Q 1444 4138 1231 3931 
Q 1019 3725 1019 3438 
z
M 838 1322 
Q 838 1081 952 856 
Q 1066 631 1291 507 
Q 1516 384 1775 384 
Q 2178 384 2440 643 
Q 2703 903 2703 1303 
Q 2703 1709 2433 1975 
Q 2163 2241 1756 2241 
Q 1359 2241 1098 1978 
Q 838 1716 838 1322 
z
" transform="scale(0.015625)"/>
       </defs>
       <use xlink:href="#ArialMT-38"/>
       <use xlink:href="#ArialMT-30" transform="translate(55.615234 0)"/>
       <use xlink:href="#ArialMT-30" transform="translate(111.230469 0)"/>
      </g>
     </g>
    </g>
    <g id="xtick_6">
     <g id="line2d_6">
      <path d="M 686.298004 459.42625 
L 686.298004 82.790625 
" clip-path="url(#p08838dd7ec)" style="fill: none; stroke-dasharray: 2.96,1.28; stroke-dashoffset: 0; stroke: #cccccc; stroke-opacity: 0.6; stroke-width: 0.8"/>
     </g>
     <g id="text_6">
      <!-- 1000 -->
      <g style="fill: #262626" transform="translate(675.176129 473.584062) scale(0.1 -0.1)">
       <defs>
        <path id="ArialMT-31" d="M 2384 0 
L 1822 0 
L 1822 3584 
Q 1619 3391 1289 3197 
Q 959 3003 697 2906 
L 697 3450 
Q 1169 3672 1522 3987 
Q 1875 4303 2022 4600 
L 2384 4600 
L 2384 0 
z
" transform="scale(0.015625)"/>
       </defs>
       <use xlink:href="#ArialMT-31"/>
       <use xlink:href="#ArialMT-30" transform="translate(55.615234 0)"/>
       <use xlink:href="#ArialMT-30" transform="translate(111.230469 0)"/>
       <use xlink:href="#ArialMT-30" transform="translate(166.845703 0)"/>
      </g>
     </g>
    </g>
    <g id="xtick_7">
     <g id="line2d_7">
      <path d="M 808.238201 459.42625 
L 808.238201 82.790625 
" clip-path="url(#p08838dd7ec)" style="fill: none; stroke-dasharray: 2.96,1.28; stroke-dashoffset: 0; stroke: #cccccc; stroke-opacity: 0.6; stroke-width: 0.8"/>
     </g>
     <g id="text_7">
      <!-- 1200 -->
      <g style="fill: #262626" transform="translate(797.116326 473.584062) scale(0.1 -0.1)">
       <use xlink:href="#ArialMT-31"/>
       <use xlink:href="#ArialMT-32" transform="translate(55.615234 0)"/>
       <use xlink:href="#ArialMT-30" transform="translate(111.230469 0)"/>
       <use xlink:href="#ArialMT-30" transform="translate(166.845703 0)"/>
      </g>
     </g>
    </g>
    <g id="text_8">
     <!-- 训练轮数 (Episodes) -->
     <g style="fill: #262626" transform="translate(398.614062 487.955937) scale(0.1 -0.1)">
      <defs>
       <path id="MicrosoftYaHei-8bad" d="M 2581 5178 
L 3056 5178 
L 3056 2722 
Q 3056 1272 2831 466 
Q 2613 -297 1981 -872 
Q 1769 -678 1550 -534 
Q 2156 -66 2375 647 
Q 2581 1353 2581 2678 
L 2581 5178 
z
M 5506 5184 
L 5981 5184 
L 5981 -772 
L 5506 -772 
L 5506 5184 
z
M 4038 4953 
L 4513 4953 
L 4513 -403 
L 4038 -403 
L 4038 4953 
z
M 2025 1372 
Q 2025 1059 2069 784 
Q 1438 247 913 -284 
L 625 116 
Q 838 316 838 691 
L 838 2803 
L 81 2803 
L 81 3253 
L 1313 3253 
L 1313 709 
Q 1650 1009 2025 1372 
z
M 875 5191 
Q 1438 4628 1850 4166 
L 1413 3797 
Q 1031 4303 500 4872 
L 875 5191 
z
" transform="scale(0.015625)"/>
       <path id="MicrosoftYaHei-7ec3" d="M 2363 3403 
L 3059 3403 
Q 3203 3781 3344 4197 
L 2213 4197 
L 2213 4622 
L 3488 4622 
Q 3603 4975 3719 5353 
L 4219 5253 
Q 4109 4931 4000 4622 
L 6000 4622 
L 6000 4197 
L 3847 4197 
Q 3700 3791 3553 3403 
L 4763 3403 
L 4763 2016 
L 6025 2016 
L 6025 1591 
L 4763 1591 
L 4763 3 
Q 4763 -734 4056 -734 
Q 3788 -734 3369 -728 
Q 3331 -516 3263 -241 
Q 3638 -284 3931 -284 
Q 4300 -284 4300 109 
L 4300 1591 
L 2475 1591 
L 2475 1997 
Q 2688 2450 2897 2978 
L 2363 2978 
L 2363 3403 
z
M 888 1566 
Q 1531 1659 2219 1778 
Q 2181 1547 2163 1297 
Q 1600 1216 319 1003 
L 219 1472 
Q 669 1969 1175 2794 
Q 666 2763 219 2722 
L 100 3147 
Q 700 3966 1294 5366 
L 1750 5178 
Q 1088 3878 644 3184 
Q 1078 3194 1419 3203 
Q 1669 3638 1931 4147 
L 2388 3916 
Q 1656 2659 888 1566 
z
M 3013 2016 
L 4300 2016 
L 4300 2978 
L 3394 2978 
Q 3203 2484 3013 2016 
z
M 94 122 
Q 1031 291 2219 559 
Q 2200 316 2206 78 
Q 1231 -103 219 -353 
L 94 122 
z
M 3194 1272 
L 3638 1066 
Q 3194 203 2700 -547 
Q 2500 -397 2275 -278 
Q 2813 459 3194 1272 
z
M 5094 1041 
L 5500 1278 
Q 5963 578 6381 -122 
L 5950 -391 
Q 5544 366 5094 1041 
z
" transform="scale(0.015625)"/>
       <path id="MicrosoftYaHei-8f6e" d="M 688 2228 
L 1438 2228 
L 1438 3597 
L 1888 3597 
L 1888 2228 
L 2688 2228 
L 2688 1803 
L 1888 1803 
L 1888 959 
Q 2344 1016 2763 1078 
Q 2756 922 2744 616 
Q 2313 566 1888 516 
L 1888 -866 
L 1438 -866 
L 1438 466 
Q 781 384 138 303 
L 88 772 
Q 794 834 1438 909 
L 1438 1803 
L 225 1803 
L 225 2197 
Q 550 3116 800 3916 
L 156 3916 
L 156 4341 
L 925 4341 
Q 1081 4859 1194 5322 
L 1675 5216 
Q 1538 4766 1400 4341 
L 2781 4341 
L 2781 3916 
L 1263 3916 
Q 975 3028 688 2228 
z
M 3163 2891 
L 3638 2891 
L 3638 1509 
Q 4456 1984 5150 2653 
L 5544 2359 
Q 4588 1484 3638 997 
L 3638 191 
Q 3638 -197 4075 -197 
L 4925 -197 
Q 5363 -197 5425 178 
Q 5494 584 5525 1097 
Q 5575 1078 5994 916 
Q 5956 441 5881 28 
Q 5775 -653 5013 -653 
L 3925 -653 
Q 3163 -653 3163 72 
L 3163 2891 
z
M 4656 5259 
L 4544 5072 
Q 5244 3722 6313 3178 
Q 6113 2953 5975 2766 
Q 4975 3359 4250 4622 
Q 3531 3422 2625 2697 
Q 2475 2891 2288 3059 
Q 3406 3897 4044 5259 
L 4656 5259 
z
" transform="scale(0.015625)"/>
       <path id="MicrosoftYaHei-6570" d="M 4175 5303 
L 4675 5228 
Q 4544 4622 4369 4097 
L 6281 4097 
L 6281 3672 
L 5888 3672 
Q 5731 1834 5088 753 
Q 5594 66 6375 -372 
Q 6175 -647 6038 -866 
Q 5275 -372 4769 309 
Q 4194 -403 3400 -928 
Q 3263 -747 3044 -534 
Q 3919 41 4463 772 
Q 3956 1647 3794 2791 
Q 3663 2559 3519 2359 
Q 3394 2541 3206 2759 
Q 3931 3803 4175 5303 
z
M 150 1697 
L 1100 1697 
Q 1238 1934 1369 2184 
L 1819 2041 
Q 1719 1866 1619 1697 
L 3150 1697 
L 3150 1291 
Q 2913 678 2431 216 
Q 2775 53 3131 -109 
L 2856 -541 
Q 2469 -322 2050 -103 
Q 1344 -609 269 -903 
Q 169 -703 56 -466 
Q 969 -259 1600 128 
Q 1063 403 475 691 
Q 675 978 863 1284 
L 150 1284 
L 150 1697 
z
M 219 3847 
L 1656 3847 
L 1656 5247 
L 2119 5247 
L 2119 3847 
L 3319 3847 
L 3319 3434 
L 2119 3434 
L 2119 3053 
L 2306 3266 
Q 2888 2841 3281 2516 
L 2981 2166 
Q 2638 2491 2119 2897 
L 2119 2184 
L 1656 2184 
L 1656 3059 
Q 1088 2466 331 2016 
Q 213 2197 63 2397 
Q 850 2822 1506 3434 
L 219 3434 
L 219 3847 
z
M 5388 3672 
L 4219 3672 
Q 4188 3591 4150 3516 
Q 4263 2191 4775 1247 
Q 5275 2159 5388 3672 
z
M 1088 834 
Q 1531 634 2000 416 
Q 2431 784 2675 1284 
L 1375 1284 
Q 1231 1053 1088 834 
z
M 3038 5091 
L 3425 4834 
Q 3081 4384 2738 4003 
Q 2594 4128 2400 4266 
Q 2725 4647 3038 5091 
z
M 381 4816 
L 738 5059 
Q 1019 4716 1319 4322 
L 931 4047 
Q 656 4453 381 4816 
z
" transform="scale(0.015625)"/>
       <path id="MicrosoftYaHei-20" transform="scale(0.015625)"/>
       <path id="MicrosoftYaHei-28" d="M 1531 -1100 
Q 478 100 478 1847 
Q 478 3594 1531 4841 
L 2072 4841 
Q 1016 3544 1016 1853 
Q 1016 166 2066 -1100 
L 1531 -1100 
z
" transform="scale(0.015625)"/>
       <path id="MicrosoftYaHei-45" d="M 3228 0 
L 625 0 
L 625 4841 
L 3119 4841 
L 3119 4284 
L 1250 4284 
L 1250 2734 
L 2981 2734 
L 2981 2181 
L 1250 2181 
L 1250 553 
L 3228 553 
L 3228 0 
z
" transform="scale(0.015625)"/>
       <path id="MicrosoftYaHei-70" d="M 1159 488 
L 1159 -1591 
L 547 -1591 
L 547 3456 
L 1159 3456 
L 1159 2859 
L 1172 2859 
Q 1578 3538 2359 3538 
Q 3022 3538 3398 3073 
Q 3775 2609 3775 1828 
Q 3775 966 3348 442 
Q 2922 -81 2200 -81 
Q 1534 -81 1172 488 
L 1159 488 
z
M 1156 1425 
Q 1156 1003 1428 714 
Q 1700 425 2109 425 
Q 2597 425 2872 800 
Q 3147 1175 3147 1838 
Q 3147 2397 2890 2714 
Q 2634 3031 2191 3031 
Q 1738 3031 1447 2709 
Q 1156 2388 1156 1884 
L 1156 1425 
z
" transform="scale(0.015625)"/>
       <path id="MicrosoftYaHei-69" d="M 472 4675 
Q 472 4838 583 4948 
Q 694 5059 856 5059 
Q 1022 5059 1136 4950 
Q 1250 4841 1250 4675 
Q 1250 4513 1136 4405 
Q 1022 4297 856 4297 
Q 691 4297 581 4405 
Q 472 4513 472 4675 
z
M 544 0 
L 544 3456 
L 1156 3456 
L 1156 0 
L 544 0 
z
" transform="scale(0.015625)"/>
       <path id="MicrosoftYaHei-73" d="M 353 747 
Q 816 413 1350 413 
Q 2066 413 2066 881 
Q 2066 1081 1909 1211 
Q 1753 1341 1275 1519 
Q 700 1750 528 1976 
Q 356 2203 356 2525 
Q 356 2984 745 3261 
Q 1134 3538 1703 3538 
Q 2144 3538 2522 3384 
L 2522 2794 
Q 2134 3044 1644 3044 
Q 1350 3044 1165 2916 
Q 981 2788 981 2578 
Q 981 2372 1114 2256 
Q 1247 2141 1703 1959 
Q 2281 1744 2484 1512 
Q 2688 1281 2688 941 
Q 2688 466 2298 192 
Q 1909 -81 1291 -81 
Q 753 -81 353 122 
L 353 747 
z
" transform="scale(0.015625)"/>
       <path id="MicrosoftYaHei-6f" d="M 316 1691 
Q 316 2547 794 3042 
Q 1272 3538 2091 3538 
Q 2869 3538 3311 3061 
Q 3753 2584 3753 1744 
Q 3753 925 3281 422 
Q 2809 -81 2016 -81 
Q 1241 -81 778 406 
Q 316 894 316 1691 
z
M 941 1709 
Q 941 1113 1242 769 
Q 1544 425 2053 425 
Q 2578 425 2853 761 
Q 3128 1097 3128 1725 
Q 3128 2356 2853 2693 
Q 2578 3031 2053 3031 
Q 1538 3031 1239 2678 
Q 941 2325 941 1709 
z
" transform="scale(0.015625)"/>
       <path id="MicrosoftYaHei-64" d="M 3547 0 
L 2934 0 
L 2934 575 
L 2922 575 
Q 2544 -81 1747 -81 
Q 1091 -81 703 386 
Q 316 853 316 1647 
Q 316 2503 753 3020 
Q 1191 3538 1897 3538 
Q 2603 3538 2922 2988 
L 2934 2988 
L 2934 5116 
L 3547 5116 
L 3547 0 
z
M 2938 2056 
Q 2938 2472 2664 2751 
Q 2391 3031 1991 3031 
Q 1503 3031 1222 2667 
Q 941 2303 941 1675 
Q 941 1097 1211 761 
Q 1481 425 1931 425 
Q 2375 425 2656 754 
Q 2938 1084 2938 1575 
L 2938 2056 
z
" transform="scale(0.015625)"/>
       <path id="MicrosoftYaHei-65" d="M 3363 1572 
L 944 1572 
Q 959 1019 1246 717 
Q 1534 416 2050 416 
Q 2631 416 3116 788 
L 3116 241 
Q 2659 -81 1906 -81 
Q 1156 -81 736 394 
Q 316 869 316 1713 
Q 316 2506 777 3022 
Q 1238 3538 1922 3538 
Q 2600 3538 2981 3102 
Q 3363 2666 3363 1881 
L 3363 1572 
z
M 2750 2063 
Q 2747 2531 2528 2787 
Q 2309 3044 1913 3044 
Q 1547 3044 1280 2772 
Q 1013 2500 944 2063 
L 2750 2063 
z
" transform="scale(0.015625)"/>
       <path id="MicrosoftYaHei-29" d="M 78 -1100 
Q 1131 163 1131 1853 
Q 1131 3547 72 4841 
L 616 4841 
Q 1672 3603 1672 1847 
Q 1672 91 616 -1100 
L 78 -1100 
z
" transform="scale(0.015625)"/>
      </defs>
      <use xlink:href="#MicrosoftYaHei-8bad"/>
      <use xlink:href="#MicrosoftYaHei-7ec3" transform="translate(100 0)"/>
      <use xlink:href="#MicrosoftYaHei-8f6e" transform="translate(200 0)"/>
      <use xlink:href="#MicrosoftYaHei-6570" transform="translate(300 0)"/>
      <use xlink:href="#MicrosoftYaHei-20" transform="translate(400 0)"/>
      <use xlink:href="#MicrosoftYaHei-28" transform="translate(429.589844 0)"/>
      <use xlink:href="#MicrosoftYaHei-45" transform="translate(462.988281 0)"/>
      <use xlink:href="#MicrosoftYaHei-70" transform="translate(517.96875 0)"/>
      <use xlink:href="#MicrosoftYaHei-69" transform="translate(581.835938 0)"/>
      <use xlink:href="#MicrosoftYaHei-73" transform="translate(608.447266 0)"/>
      <use xlink:href="#MicrosoftYaHei-6f" transform="translate(654.736328 0)"/>
      <use xlink:href="#MicrosoftYaHei-64" transform="translate(718.310547 0)"/>
      <use xlink:href="#MicrosoftYaHei-65" transform="translate(782.275391 0)"/>
      <use xlink:href="#MicrosoftYaHei-73" transform="translate(839.013672 0)"/>
      <use xlink:href="#MicrosoftYaHei-29" transform="translate(885.302734 0)"/>
     </g>
    </g>
   </g>
   <g id="matplotlib.axis_2">
    <g id="ytick_1">
     <g id="line2d_8">
      <path d="M 39.801563 417.929952 
L 849.301563 417.929952 
" clip-path="url(#p08838dd7ec)" style="fill: none; stroke-dasharray: 2.96,1.28; stroke-dashoffset: 0; stroke: #cccccc; stroke-opacity: 0.6; stroke-width: 0.8"/>
     </g>
     <g id="text_9">
      <!-- 24 -->
      <g style="fill: #1f77b4" transform="translate(21.679688 421.508858) scale(0.1 -0.1)">
       <use xlink:href="#ArialMT-32"/>
       <use xlink:href="#ArialMT-34" transform="translate(55.615234 0)"/>
      </g>
     </g>
    </g>
    <g id="ytick_2">
     <g id="line2d_9">
      <path d="M 39.801563 357.926268 
L 849.301563 357.926268 
" clip-path="url(#p08838dd7ec)" style="fill: none; stroke-dasharray: 2.96,1.28; stroke-dashoffset: 0; stroke: #cccccc; stroke-opacity: 0.6; stroke-width: 0.8"/>
     </g>
     <g id="text_10">
      <!-- 26 -->
      <g style="fill: #1f77b4" transform="translate(21.679688 361.505174) scale(0.1 -0.1)">
       <use xlink:href="#ArialMT-32"/>
       <use xlink:href="#ArialMT-36" transform="translate(55.615234 0)"/>
      </g>
     </g>
    </g>
    <g id="ytick_3">
     <g id="line2d_10">
      <path d="M 39.801563 297.922584 
L 849.301563 297.922584 
" clip-path="url(#p08838dd7ec)" style="fill: none; stroke-dasharray: 2.96,1.28; stroke-dashoffset: 0; stroke: #cccccc; stroke-opacity: 0.6; stroke-width: 0.8"/>
     </g>
     <g id="text_11">
      <!-- 28 -->
      <g style="fill: #1f77b4" transform="translate(21.679688 301.50149) scale(0.1 -0.1)">
       <use xlink:href="#ArialMT-32"/>
       <use xlink:href="#ArialMT-38" transform="translate(55.615234 0)"/>
      </g>
     </g>
    </g>
    <g id="ytick_4">
     <g id="line2d_11">
      <path d="M 39.801563 237.9189 
L 849.301563 237.9189 
" clip-path="url(#p08838dd7ec)" style="fill: none; stroke-dasharray: 2.96,1.28; stroke-dashoffset: 0; stroke: #cccccc; stroke-opacity: 0.6; stroke-width: 0.8"/>
     </g>
     <g id="text_12">
      <!-- 30 -->
      <g style="fill: #1f77b4" transform="translate(21.679688 241.497806) scale(0.1 -0.1)">
       <defs>
        <path id="ArialMT-33" d="M 269 1209 
L 831 1284 
Q 928 806 1161 595 
Q 1394 384 1728 384 
Q 2125 384 2398 659 
Q 2672 934 2672 1341 
Q 2672 1728 2419 1979 
Q 2166 2231 1775 2231 
Q 1616 2231 1378 2169 
L 1441 2663 
Q 1497 2656 1531 2656 
Q 1891 2656 2178 2843 
Q 2466 3031 2466 3422 
Q 2466 3731 2256 3934 
Q 2047 4138 1716 4138 
Q 1388 4138 1169 3931 
Q 950 3725 888 3313 
L 325 3413 
Q 428 3978 793 4289 
Q 1159 4600 1703 4600 
Q 2078 4600 2393 4439 
Q 2709 4278 2876 4000 
Q 3044 3722 3044 3409 
Q 3044 3113 2884 2869 
Q 2725 2625 2413 2481 
Q 2819 2388 3044 2092 
Q 3269 1797 3269 1353 
Q 3269 753 2831 336 
Q 2394 -81 1725 -81 
Q 1122 -81 723 278 
Q 325 638 269 1209 
z
" transform="scale(0.015625)"/>
       </defs>
       <use xlink:href="#ArialMT-33"/>
       <use xlink:href="#ArialMT-30" transform="translate(55.615234 0)"/>
      </g>
     </g>
    </g>
    <g id="ytick_5">
     <g id="line2d_12">
      <path d="M 39.801563 177.915216 
L 849.301563 177.915216 
" clip-path="url(#p08838dd7ec)" style="fill: none; stroke-dasharray: 2.96,1.28; stroke-dashoffset: 0; stroke: #cccccc; stroke-opacity: 0.6; stroke-width: 0.8"/>
     </g>
     <g id="text_13">
      <!-- 32 -->
      <g style="fill: #1f77b4" transform="translate(21.679688 181.494122) scale(0.1 -0.1)">
       <use xlink:href="#ArialMT-33"/>
       <use xlink:href="#ArialMT-32" transform="translate(55.615234 0)"/>
      </g>
     </g>
    </g>
    <g id="ytick_6">
     <g id="line2d_13">
      <path d="M 39.801563 117.911531 
L 849.301563 117.911531 
" clip-path="url(#p08838dd7ec)" style="fill: none; stroke-dasharray: 2.96,1.28; stroke-dashoffset: 0; stroke: #cccccc; stroke-opacity: 0.6; stroke-width: 0.8"/>
     </g>
     <g id="text_14">
      <!-- 34 -->
      <g style="fill: #1f77b4" transform="translate(21.679688 121.490438) scale(0.1 -0.1)">
       <use xlink:href="#ArialMT-33"/>
       <use xlink:href="#ArialMT-34" transform="translate(55.615234 0)"/>
      </g>
     </g>
    </g>
    <g id="text_15">
     <!-- 总奖励 (平滑后) -->
     <g style="fill: #1f77b4" transform="translate(15.19375 305.92875) rotate(-90) scale(0.1 -0.1)">
      <defs>
       <path id="MicrosoftYaHei-603b" d="M 900 4253 
L 3631 4253 
Q 4022 4822 4331 5353 
L 4813 5103 
Q 4500 4675 4175 4253 
L 5500 4253 
L 5500 1703 
L 5000 1703 
L 5000 1978 
L 1400 1978 
L 1400 1703 
L 900 1703 
L 900 4253 
z
M 5000 3803 
L 1400 3803 
L 1400 2428 
L 5000 2428 
L 5000 3803 
z
M 1694 1378 
L 2181 1378 
L 2181 284 
Q 2181 -203 2619 -203 
L 3875 -203 
Q 4244 -203 4338 172 
Q 4394 366 4450 872 
Q 4631 791 4931 684 
Q 4850 209 4750 -97 
Q 4556 -641 3900 -641 
L 2519 -641 
Q 1694 -641 1694 197 
L 1694 1378 
z
M 719 1422 
L 1188 1272 
Q 931 491 538 -334 
Q 338 -247 81 -134 
Q 444 597 719 1422 
z
M 4881 1203 
L 5238 1478 
Q 5813 841 6319 197 
L 5900 -134 
Q 5456 491 4881 1203 
z
M 2663 1591 
L 3044 1841 
Q 3488 1372 3863 841 
L 3444 547 
Q 3069 1109 2663 1591 
z
M 1594 5109 
L 1975 5353 
Q 2350 4959 2650 4541 
L 2225 4266 
Q 1956 4653 1594 5109 
z
" transform="scale(0.015625)"/>
       <path id="MicrosoftYaHei-5956" d="M 6306 -284 
Q 6119 -528 5944 -803 
Q 4031 -491 3197 859 
Q 2550 -472 406 -878 
Q 281 -666 100 -403 
Q 2175 -84 2709 972 
L 225 972 
L 225 1403 
L 2900 1403 
Q 2969 1600 3019 1822 
L 3531 1822 
Q 3484 1603 3422 1403 
L 6200 1403 
L 6200 972 
L 3647 972 
Q 4472 -169 6306 -284 
z
M 2388 3553 
Q 3181 4228 3588 5334 
L 4056 5241 
Q 3941 4938 3803 4666 
L 5988 4666 
L 5988 4278 
Q 5181 2359 2788 1853 
Q 2706 2072 2531 2316 
Q 3434 2463 4094 2831 
Q 3688 3222 3288 3516 
L 3588 3822 
Q 4056 3481 4491 3084 
Q 5116 3550 5463 4266 
L 3588 4266 
Q 3228 3666 2763 3234 
Q 2588 3428 2388 3553 
z
M 1744 5291 
L 2231 5291 
L 2231 1728 
L 1744 1728 
L 1744 2925 
Q 1231 2694 256 2253 
L 94 2747 
Q 991 3088 1744 3425 
L 1744 5291 
z
M 281 4584 
L 588 4891 
Q 1088 4503 1513 4072 
L 1169 3741 
Q 700 4253 281 4584 
z
" transform="scale(0.015625)"/>
       <path id="MicrosoftYaHei-52b1" d="M 3756 3997 
L 4303 3997 
Q 4316 4669 4319 5297 
L 4775 5297 
Q 4763 4559 4750 3997 
L 6031 3997 
Q 5963 1203 5925 278 
Q 5888 -678 5169 -678 
Q 4969 -678 4444 -666 
Q 4406 -378 4350 -134 
Q 4856 -178 5081 -178 
Q 5425 -178 5456 272 
Q 5513 1266 5563 3528 
L 4741 3528 
Q 4731 3028 4725 2716 
Q 4688 334 3600 -859 
Q 3469 -666 3281 -447 
Q 4238 634 4275 2634 
Q 4288 3091 4297 3528 
L 3756 3528 
L 3756 3997 
z
M 1225 3728 
L 3563 3728 
L 3563 3291 
L 2194 3291 
Q 2184 2784 2172 2372 
L 3375 2372 
Q 3319 766 3275 91 
Q 3206 -628 2581 -628 
Q 2406 -628 2050 -622 
Q 2013 -416 1956 -159 
Q 2306 -197 2475 -197 
Q 2819 -203 2850 216 
Q 2894 797 2931 1959 
L 2153 1959 
Q 2125 1378 2081 1034 
Q 1969 -3 1300 -828 
Q 1175 -659 981 -453 
Q 1531 209 1644 1097 
Q 1728 1641 1756 3291 
L 1225 3291 
L 1225 3728 
z
M 1044 4472 
L 1044 2166 
Q 1044 147 475 -809 
Q 306 -647 94 -478 
Q 588 341 588 2184 
L 588 4909 
L 3663 4909 
L 3663 4472 
L 1044 4472 
z
" transform="scale(0.015625)"/>
       <path id="MicrosoftYaHei-5e73" d="M 169 1934 
L 2938 1934 
L 2938 4547 
L 450 4547 
L 450 5028 
L 5975 5028 
L 5975 4547 
L 3463 4547 
L 3463 1934 
L 6250 1934 
L 6250 1453 
L 3463 1453 
L 3463 -847 
L 2938 -847 
L 2938 1453 
L 169 1453 
L 169 1934 
z
M 3950 2559 
Q 4638 3284 5188 4159 
L 5656 3859 
Q 4950 2891 4338 2234 
L 3950 2559 
z
M 769 3859 
L 1163 4134 
Q 1863 3316 2369 2553 
L 1925 2222 
Q 1444 3003 769 3859 
z
" transform="scale(0.015625)"/>
       <path id="MicrosoftYaHei-6ed1" d="M 2738 -791 
L 2263 -791 
L 2263 2378 
L 5494 2378 
L 5494 -22 
Q 5494 -728 4813 -734 
Q 4456 -741 4025 -734 
Q 3994 -534 3931 -272 
Q 4294 -316 4619 -316 
Q 5019 -316 5019 9 
L 5019 303 
L 2738 303 
L 2738 -791 
z
M 1713 3253 
L 2306 3253 
L 2306 5078 
L 5475 5078 
L 5475 3253 
L 6063 3253 
L 6063 2297 
L 5594 2297 
L 5594 2853 
L 2181 2853 
L 2181 2284 
L 1713 2284 
L 1713 3253 
z
M 5025 4678 
L 2756 4678 
L 2756 4178 
L 4238 4178 
L 4238 3253 
L 5025 3253 
L 5025 4678 
z
M 850 1816 
Q 1106 1716 1363 1628 
Q 1100 541 788 -784 
L 238 -622 
Q 588 541 850 1816 
z
M 2738 691 
L 5019 691 
L 5019 1141 
L 2738 1141 
L 2738 691 
z
M 5019 1978 
L 2738 1978 
L 2738 1528 
L 5019 1528 
L 5019 1978 
z
M 719 5241 
Q 1256 4822 1738 4378 
L 1381 4003 
Q 931 4453 394 4909 
L 719 5241 
z
M 388 3697 
Q 988 3247 1400 2891 
L 1056 2497 
Q 581 2941 81 3328 
L 388 3697 
z
M 3794 3791 
L 2756 3791 
L 2756 3253 
L 3794 3253 
L 3794 3791 
z
" transform="scale(0.015625)"/>
       <path id="MicrosoftYaHei-540e" d="M 1888 1984 
L 5688 1984 
L 5688 -828 
L 5188 -828 
L 5188 -403 
L 2388 -403 
L 2388 -828 
L 1888 -828 
L 1888 1984 
z
M 1313 2991 
Q 1313 1272 1138 672 
Q 963 -16 394 -847 
Q 250 -634 50 -409 
Q 494 222 650 859 
Q 806 1472 806 2659 
L 806 4766 
Q 3544 4853 5631 5141 
L 5931 4622 
Q 3344 4359 1313 4284 
L 1313 3459 
L 6263 3459 
L 6263 2991 
L 1313 2991 
z
M 5188 1528 
L 2388 1528 
L 2388 41 
L 5188 41 
L 5188 1528 
z
" transform="scale(0.015625)"/>
      </defs>
      <use xlink:href="#MicrosoftYaHei-603b"/>
      <use xlink:href="#MicrosoftYaHei-5956" transform="translate(100 0)"/>
      <use xlink:href="#MicrosoftYaHei-52b1" transform="translate(200 0)"/>
      <use xlink:href="#MicrosoftYaHei-20" transform="translate(300 0)"/>
      <use xlink:href="#MicrosoftYaHei-28" transform="translate(329.589844 0)"/>
      <use xlink:href="#MicrosoftYaHei-5e73" transform="translate(362.988281 0)"/>
      <use xlink:href="#MicrosoftYaHei-6ed1" transform="translate(462.988281 0)"/>
      <use xlink:href="#MicrosoftYaHei-540e" transform="translate(562.988281 0)"/>
      <use xlink:href="#MicrosoftYaHei-29" transform="translate(662.988281 0)"/>
     </g>
    </g>
   </g>
   <g id="line2d_14">
    <path d="M 76.597017 363.926636 
L 77.206718 314.423597 
L 77.816419 341.925286 
L 78.42612 396.928663 
L 79.035821 423.330284 
L 79.645522 429.930689 
L 80.255223 434.645264 
L 80.864924 442.306449 
L 81.474625 429.930689 
L 82.084326 413.429676 
L 82.694027 414.929768 
L 83.303728 410.679507 
L 83.913429 422.314837 
L 84.52313 411.072388 
L 85.132831 396.928663 
L 85.742532 398.991289 
L 86.352233 391.104776 
L 86.961934 398.762109 
L 88.181336 418.37998 
L 89.400738 424.980385 
L 90.010439 426.630486 
L 91.229841 405.179169 
L 91.839542 391.978359 
L 93.058944 370.527042 
L 93.668645 373.827244 
L 94.278346 385.377954 
L 94.888047 375.477346 
L 95.497748 370.527042 
L 96.107449 370.527042 
L 96.71715 383.727852 
L 97.326851 405.179169 
L 97.936552 400.228865 
L 98.546253 410.129473 
L 99.155954 405.179169 
L 99.765655 410.129473 
L 100.375356 398.578764 
L 100.985057 398.578764 
L 101.594757 388.678156 
L 102.204458 391.978359 
L 102.814159 387.028055 
L 103.42386 385.377954 
L 104.033561 387.028055 
L 104.643262 403.529068 
L 105.252963 406.829271 
L 105.862664 400.228865 
L 106.472365 385.377954 
L 107.082066 385.377954 
L 107.691767 387.028055 
L 108.301468 370.527042 
L 108.911169 367.226839 
L 109.52087 360.626434 
L 110.130571 352.375927 
L 111.349973 342.475319 
L 111.959674 319.373901 
L 112.569375 319.373901 
L 113.179076 314.423597 
L 113.788777 317.7238 
L 114.398478 302.872888 
L 115.008179 297.922584 
L 115.61788 302.872888 
L 116.227581 302.872888 
L 116.837282 284.721773 
L 117.446983 288.021976 
L 118.666385 311.123394 
L 119.276086 316.073698 
L 119.885787 319.373901 
L 120.495488 325.974306 
L 121.105189 327.624408 
L 121.71489 321.024002 
L 122.324591 330.92461 
L 122.934292 337.525015 
L 123.543993 335.874914 
L 124.153694 337.525015 
L 124.763395 325.974306 
L 125.373096 324.324205 
L 126.592498 337.525015 
L 127.202199 342.475319 
L 127.8119 332.574711 
L 128.421601 334.224813 
L 129.031302 339.175117 
L 130.250704 316.073698 
L 131.470106 302.872888 
L 132.079807 307.823192 
L 132.689508 296.272483 
L 133.299209 276.471267 
L 134.518611 255.01995 
L 135.128312 255.01995 
L 135.738013 251.719747 
L 136.957415 251.719747 
L 137.567116 250.069646 
L 138.176817 238.518937 
L 139.396219 248.419544 
L 140.00592 263.270456 
L 140.615621 264.920558 
L 141.225322 256.670051 
L 141.835023 264.920558 
L 142.444724 261.620355 
L 143.054425 268.22076 
L 143.664126 278.121368 
L 144.273827 271.520963 
L 144.883528 271.520963 
L 145.493229 276.471267 
L 146.10293 296.272483 
L 146.712631 311.123394 
L 147.322331 294.622381 
L 147.932032 301.222786 
L 148.541733 304.522989 
L 149.151434 309.473293 
L 149.761135 311.123394 
L 150.370836 311.123394 
L 150.980537 304.522989 
L 151.590238 288.021976 
L 152.199939 276.471267 
L 152.80964 279.771469 
L 153.419341 281.421571 
L 154.029042 276.471267 
L 154.638743 281.421571 
L 155.248444 271.520963 
L 155.858145 268.22076 
L 156.467846 263.270456 
L 157.077547 273.171064 
L 157.687248 276.471267 
L 158.296949 261.620355 
L 158.90665 253.369848 
L 159.516351 255.01995 
L 160.126052 258.320152 
L 160.735753 256.670051 
L 161.345454 258.320152 
L 161.955155 258.320152 
L 162.564856 276.471267 
L 163.174557 276.471267 
L 163.784258 283.071672 
L 164.393959 288.021976 
L 165.00366 286.371875 
L 165.613361 289.672077 
L 166.223062 288.021976 
L 166.832763 288.021976 
L 167.442464 291.322179 
L 168.052165 283.071672 
L 168.661866 281.421571 
L 169.271567 269.870862 
L 169.881268 274.821165 
L 170.490969 281.421571 
L 171.10067 274.821165 
L 171.710371 276.471267 
L 172.320072 269.870862 
L 172.929773 258.320152 
L 173.539474 258.320152 
L 174.149175 255.01995 
L 174.758876 238.518937 
L 175.368577 240.169038 
L 175.978278 235.218734 
L 176.587979 225.318126 
L 177.807381 222.017923 
L 179.026783 222.017923 
L 179.636484 217.067619 
L 180.246185 210.467214 
L 180.855886 212.117316 
L 181.465587 222.017923 
L 182.075288 210.467214 
L 182.684989 210.467214 
L 183.29469 207.167012 
L 184.514092 193.966201 
L 185.123793 197.266404 
L 185.733494 197.266404 
L 186.343195 193.966201 
L 186.952896 200.566606 
L 187.562597 198.916505 
L 188.172298 202.216708 
L 188.781999 210.467214 
L 189.3917 210.467214 
L 190.611102 213.767417 
L 191.220803 212.117316 
L 191.830504 208.817113 
L 192.440205 217.067619 
L 193.049905 217.067619 
L 193.659606 220.367822 
L 194.269307 226.968227 
L 194.879008 223.668025 
L 195.488709 233.568633 
L 196.09841 235.218734 
L 196.708111 245.119342 
L 197.317812 259.970254 
L 197.927513 261.620355 
L 198.537214 258.320152 
L 199.146915 259.970254 
L 199.756616 268.22076 
L 200.366317 268.22076 
L 200.976018 269.870862 
L 201.585719 268.22076 
L 202.19542 274.821165 
L 202.805121 273.171064 
L 203.414822 266.570659 
L 204.024523 276.471267 
L 204.634224 276.471267 
L 205.243925 273.171064 
L 205.853626 274.821165 
L 206.463327 273.171064 
L 207.073028 269.870862 
L 207.682729 273.171064 
L 208.29243 281.421571 
L 208.902131 281.421571 
L 209.511832 274.821165 
L 210.121533 274.821165 
L 210.731234 276.471267 
L 211.340935 281.421571 
L 211.950636 271.520963 
L 212.560337 283.071672 
L 213.170038 271.520963 
L 213.779739 263.270456 
L 214.38944 258.320152 
L 214.999141 268.22076 
L 215.608842 286.371875 
L 216.218543 289.672077 
L 216.828244 301.222786 
L 217.437945 302.872888 
L 218.047646 294.622381 
L 218.657347 294.622381 
L 219.267048 283.071672 
L 219.876749 283.071672 
L 220.48645 274.821165 
L 221.705852 264.920558 
L 222.315553 250.069646 
L 222.925254 256.670051 
L 224.144656 243.46924 
L 224.754357 241.819139 
L 225.973759 269.870862 
L 226.58346 269.870862 
L 227.193161 264.920558 
L 227.802862 250.069646 
L 228.412563 241.819139 
L 229.022264 228.618329 
L 229.631965 231.918531 
L 230.241666 236.868835 
L 230.851367 238.518937 
L 231.461068 250.069646 
L 232.070769 246.769443 
L 233.290171 256.670051 
L 233.899872 251.719747 
L 234.509573 261.620355 
L 235.119274 261.620355 
L 235.728975 266.570659 
L 236.338676 268.22076 
L 236.948377 264.920558 
L 238.167779 251.719747 
L 238.777479 250.069646 
L 239.38718 250.069646 
L 239.996881 256.670051 
L 240.606582 250.069646 
L 241.216283 261.620355 
L 241.825984 263.270456 
L 242.435685 263.270456 
L 243.045386 266.570659 
L 243.655087 278.121368 
L 244.874489 281.421571 
L 245.48419 274.821165 
L 246.703592 274.821165 
L 247.313293 269.870862 
L 247.922994 251.719747 
L 248.532695 256.670051 
L 249.142396 255.01995 
L 249.752097 255.01995 
L 250.361798 250.069646 
L 250.971499 246.769443 
L 252.190901 220.367822 
L 252.800602 228.618329 
L 253.410303 218.717721 
L 254.020004 217.067619 
L 254.629705 220.367822 
L 255.239406 208.817113 
L 255.849107 187.365796 
L 256.458808 174.164985 
L 257.068509 175.815087 
L 257.67821 174.164985 
L 258.287911 180.765391 
L 258.897612 175.815087 
L 259.507313 180.765391 
L 260.117014 184.065593 
L 260.726715 190.665998 
L 261.336416 198.916505 
L 261.946117 200.566606 
L 262.555818 210.467214 
L 263.165519 213.767417 
L 263.77522 215.417518 
L 264.384921 223.668025 
L 264.994622 218.717721 
L 265.604323 222.017923 
L 266.214024 220.367822 
L 266.823725 205.51691 
L 267.433426 212.117316 
L 268.043127 223.668025 
L 268.652828 241.819139 
L 269.262529 235.218734 
L 269.87223 230.26843 
L 270.481931 226.968227 
L 271.091632 230.26843 
L 271.701333 236.868835 
L 272.311034 248.419544 
L 273.530436 218.717721 
L 274.140137 213.767417 
L 274.749838 195.616302 
L 275.359539 203.866809 
L 275.96924 210.467214 
L 277.188642 217.067619 
L 277.798343 205.51691 
L 278.408044 203.866809 
L 279.017745 207.167012 
L 279.627446 193.966201 
L 280.237147 195.616302 
L 280.846848 182.415492 
L 282.06625 185.715694 
L 282.675951 179.115289 
L 283.285652 190.665998 
L 283.895353 179.115289 
L 284.505053 170.864783 
L 285.114754 172.514884 
L 285.724455 175.815087 
L 286.334156 180.765391 
L 286.943857 195.616302 
L 287.553558 180.765391 
L 288.163259 184.065593 
L 288.77296 192.3161 
L 289.382661 190.665998 
L 289.992362 195.616302 
L 290.602063 189.015897 
L 291.211764 193.966201 
L 291.821465 205.51691 
L 292.431166 200.566606 
L 293.040867 202.216708 
L 293.650568 202.216708 
L 294.260269 200.566606 
L 294.86997 207.167012 
L 295.479671 190.665998 
L 296.089372 187.365796 
L 296.699073 190.665998 
L 297.308774 192.3161 
L 297.918475 197.266404 
L 298.528176 195.616302 
L 299.137877 189.015897 
L 299.747578 195.616302 
L 300.357279 195.616302 
L 300.96698 187.365796 
L 301.576681 184.065593 
L 302.186382 179.115289 
L 302.796083 187.365796 
L 303.405784 192.3161 
L 304.015485 190.665998 
L 304.625186 180.765391 
L 305.844588 184.065593 
L 306.454289 182.415492 
L 307.06399 182.415492 
L 307.673691 197.266404 
L 308.283392 207.167012 
L 308.893093 203.866809 
L 309.502794 212.117316 
L 310.112495 208.817113 
L 310.722196 203.866809 
L 311.331897 215.417518 
L 311.941598 213.767417 
L 312.551299 197.266404 
L 313.161 190.665998 
L 313.770701 192.3161 
L 314.380402 195.616302 
L 314.990103 197.266404 
L 315.599804 189.015897 
L 316.209505 190.665998 
L 316.819206 203.866809 
L 317.428907 200.566606 
L 318.038608 200.566606 
L 318.648309 223.668025 
L 319.25801 235.218734 
L 319.867711 236.868835 
L 320.477412 231.918531 
L 321.087113 235.218734 
L 321.696814 222.017923 
L 322.306515 225.318126 
L 322.916216 243.46924 
L 323.525917 228.618329 
L 324.135618 231.918531 
L 324.745319 246.769443 
L 325.35502 250.069646 
L 325.964721 255.01995 
L 326.574422 264.920558 
L 327.184123 269.870862 
L 327.793824 273.171064 
L 328.403525 269.870862 
L 329.013226 263.270456 
L 329.622927 268.22076 
L 330.232627 263.270456 
L 330.842328 241.819139 
L 331.452029 231.918531 
L 332.06173 215.417518 
L 332.671431 213.767417 
L 333.281132 203.866809 
L 333.890833 217.067619 
L 334.500534 217.067619 
L 335.110235 218.717721 
L 336.329637 225.318126 
L 336.939338 220.367822 
L 337.549039 222.017923 
L 338.15874 226.968227 
L 338.768441 218.717721 
L 339.378142 207.167012 
L 339.987843 202.216708 
L 340.597544 205.51691 
L 341.207245 215.417518 
L 341.816946 215.417518 
L 342.426647 222.017923 
L 343.036348 223.668025 
L 343.646049 213.767417 
L 344.25575 223.668025 
L 344.865451 220.367822 
L 345.475152 222.017923 
L 346.084853 208.817113 
L 346.694554 202.216708 
L 347.304255 190.665998 
L 347.913956 182.415492 
L 348.523657 169.214681 
L 349.743059 162.614276 
L 350.35276 156.013871 
L 350.962461 160.964175 
L 351.572162 167.56458 
L 352.181863 167.56458 
L 352.791564 170.864783 
L 353.401265 162.614276 
L 354.620667 169.214681 
L 355.230368 165.914479 
L 355.840069 175.815087 
L 356.44977 174.164985 
L 357.059471 184.065593 
L 357.669172 179.115289 
L 358.278873 185.715694 
L 358.888574 190.665998 
L 359.498275 185.715694 
L 360.107976 189.015897 
L 360.717677 184.065593 
L 361.327378 198.916505 
L 361.937079 197.266404 
L 362.54678 197.266404 
L 363.156481 189.015897 
L 364.375883 167.56458 
L 364.985584 167.56458 
L 365.595285 160.964175 
L 366.204986 146.113263 
L 367.424388 142.81306 
L 368.034089 147.763364 
L 368.64379 149.413466 
L 369.253491 144.463162 
L 369.863192 165.914479 
L 370.472893 162.614276 
L 371.082594 169.214681 
L 371.692295 162.614276 
L 372.301996 160.964175 
L 372.911697 160.964175 
L 373.521398 152.713668 
L 374.131099 146.113263 
L 374.7408 141.162959 
L 375.960201 157.663972 
L 376.569902 167.56458 
L 377.179603 170.864783 
L 377.789304 177.465188 
L 378.399005 175.815087 
L 379.008706 175.815087 
L 380.228108 157.663972 
L 380.837809 160.964175 
L 381.44751 154.36377 
L 382.057211 142.81306 
L 382.666912 137.862756 
L 383.276613 126.312047 
L 383.886314 132.912452 
L 384.496015 151.063567 
L 385.105716 159.314073 
L 385.715417 157.663972 
L 386.325118 162.614276 
L 386.934819 174.164985 
L 387.54452 170.864783 
L 388.154221 165.914479 
L 388.763922 167.56458 
L 389.373623 156.013871 
L 389.983324 160.964175 
L 390.593025 169.214681 
L 391.202726 172.514884 
L 391.812427 202.216708 
L 392.422128 207.167012 
L 393.031829 195.616302 
L 393.64153 205.51691 
L 394.251231 202.216708 
L 394.860932 208.817113 
L 395.470633 217.067619 
L 396.080334 215.417518 
L 396.690035 210.467214 
L 397.299736 213.767417 
L 397.909437 208.817113 
L 398.519138 207.167012 
L 399.128839 193.966201 
L 399.73854 192.3161 
L 400.348241 197.266404 
L 400.957942 193.966201 
L 401.567643 203.866809 
L 402.177344 197.266404 
L 402.787045 200.566606 
L 403.396746 195.616302 
L 404.616148 162.614276 
L 405.225849 165.914479 
L 405.83555 152.713668 
L 406.445251 152.713668 
L 407.664653 129.61225 
L 408.274354 131.262351 
L 408.884055 137.862756 
L 411.322859 137.862756 
L 411.93256 132.912452 
L 412.542261 131.262351 
L 413.151962 137.862756 
L 413.761663 131.262351 
L 414.371364 134.562554 
L 414.981065 139.512858 
L 415.590766 126.312047 
L 417.419869 146.113263 
L 418.02957 154.36377 
L 418.639271 157.663972 
L 419.248972 180.765391 
L 419.858673 185.715694 
L 420.468374 182.415492 
L 421.078075 175.815087 
L 421.687775 185.715694 
L 422.297476 187.365796 
L 422.907177 195.616302 
L 423.516878 197.266404 
L 424.126579 203.866809 
L 424.73628 205.51691 
L 425.345981 208.817113 
L 425.955682 202.216708 
L 426.565383 205.51691 
L 427.175084 192.3161 
L 427.784785 189.015897 
L 428.394486 187.365796 
L 429.004187 189.015897 
L 429.613888 185.715694 
L 430.223589 185.715694 
L 430.83329 184.065593 
L 431.442991 170.864783 
L 432.052692 170.864783 
L 432.662393 180.765391 
L 433.272094 184.065593 
L 433.881795 162.614276 
L 435.101197 146.113263 
L 435.710898 157.663972 
L 436.320599 154.36377 
L 436.9303 154.36377 
L 437.540001 139.512858 
L 438.149702 157.663972 
L 438.759403 157.663972 
L 439.369104 170.864783 
L 439.978805 179.115289 
L 440.588506 180.765391 
L 441.198207 187.365796 
L 441.807908 184.065593 
L 442.417609 192.3161 
L 443.02731 195.616302 
L 443.637011 195.616302 
L 444.246712 187.365796 
L 445.466114 184.065593 
L 446.075815 185.715694 
L 446.685516 198.916505 
L 447.295217 202.216708 
L 447.904918 202.216708 
L 448.514619 205.51691 
L 449.12432 203.866809 
L 449.734021 218.717721 
L 450.343722 208.817113 
L 450.953423 210.467214 
L 451.563124 192.3161 
L 452.172825 210.467214 
L 452.782526 210.467214 
L 453.392227 208.817113 
L 454.001928 203.866809 
L 454.611629 192.3161 
L 455.22133 197.266404 
L 455.831031 197.266404 
L 456.440732 208.817113 
L 457.050433 212.117316 
L 457.660134 200.566606 
L 458.269835 222.017923 
L 458.879536 222.017923 
L 459.489237 231.918531 
L 460.098938 215.417518 
L 460.708639 213.767417 
L 461.31834 210.467214 
L 462.537742 192.3161 
L 463.147443 184.065593 
L 463.757144 202.216708 
L 464.366845 184.065593 
L 464.976546 182.415492 
L 465.586247 189.015897 
L 466.195948 192.3161 
L 466.805649 208.817113 
L 467.41535 197.266404 
L 468.02505 200.566606 
L 468.634751 193.966201 
L 469.244452 184.065593 
L 469.854153 187.365796 
L 470.463854 175.815087 
L 471.073555 170.864783 
L 471.683256 159.314073 
L 472.902658 162.614276 
L 473.512359 156.013871 
L 474.731761 177.465188 
L 475.341462 177.465188 
L 475.951163 169.214681 
L 476.560864 170.864783 
L 477.170565 167.56458 
L 477.780266 169.214681 
L 478.389967 175.815087 
L 478.999668 162.614276 
L 480.21907 172.514884 
L 480.828771 182.415492 
L 481.438472 177.465188 
L 482.048173 175.815087 
L 482.657874 172.514884 
L 483.267575 164.264377 
L 483.877276 172.514884 
L 484.486977 172.514884 
L 485.096678 170.864783 
L 485.706379 179.115289 
L 486.31608 174.164985 
L 486.925781 172.514884 
L 487.535482 165.914479 
L 488.145183 165.914479 
L 489.364585 175.815087 
L 489.974286 164.264377 
L 490.583987 164.264377 
L 491.193688 159.314073 
L 491.803389 157.663972 
L 492.41309 142.81306 
L 493.022791 132.912452 
L 493.632492 142.81306 
L 494.242193 147.763364 
L 494.851894 147.763364 
L 495.461595 142.81306 
L 496.071296 123.011845 
L 496.680997 126.312047 
L 497.290698 132.912452 
L 497.900399 147.763364 
L 498.5101 149.413466 
L 499.119801 146.113263 
L 499.729502 147.763364 
L 500.339203 146.113263 
L 500.948904 132.912452 
L 501.558605 127.962148 
L 502.168306 121.361743 
L 502.778007 124.661946 
L 503.387708 131.262351 
L 503.997409 134.562554 
L 504.60711 139.512858 
L 505.216811 141.162959 
L 505.826512 136.212655 
L 507.045914 129.61225 
L 507.655615 146.113263 
L 508.265316 152.713668 
L 508.875017 156.013871 
L 510.094419 142.81306 
L 510.70412 147.763364 
L 511.313821 141.162959 
L 511.923522 152.713668 
L 512.533223 172.514884 
L 513.142924 179.115289 
L 513.752624 197.266404 
L 514.362325 210.467214 
L 514.972026 203.866809 
L 515.581727 207.167012 
L 516.801129 225.318126 
L 517.41083 220.367822 
L 518.020531 226.968227 
L 518.630232 218.717721 
L 519.849634 222.017923 
L 520.459335 245.119342 
L 521.069036 243.46924 
L 521.678737 248.419544 
L 522.288438 241.819139 
L 522.898139 228.618329 
L 523.50784 236.868835 
L 524.117541 230.26843 
L 524.727242 212.117316 
L 525.336943 208.817113 
L 525.946644 208.817113 
L 526.556345 203.866809 
L 527.166046 197.266404 
L 527.775747 192.3161 
L 528.385448 169.214681 
L 528.995149 169.214681 
L 529.60485 172.514884 
L 530.214551 170.864783 
L 530.824252 180.765391 
L 532.043654 193.966201 
L 532.653355 187.365796 
L 533.263056 187.365796 
L 533.872757 185.715694 
L 534.482458 180.765391 
L 535.70186 180.765391 
L 536.311561 184.065593 
L 536.921262 175.815087 
L 537.530963 175.815087 
L 538.140664 159.314073 
L 538.750365 162.614276 
L 539.360066 170.864783 
L 539.969767 164.264377 
L 540.579468 179.115289 
L 541.189169 167.56458 
L 541.79887 170.864783 
L 542.408571 165.914479 
L 543.018272 157.663972 
L 543.627973 154.36377 
L 544.237674 152.713668 
L 544.847375 144.463162 
L 545.457076 142.81306 
L 546.676478 149.413466 
L 547.286179 139.512858 
L 547.89588 137.862756 
L 548.505581 141.162959 
L 549.115282 164.264377 
L 549.724983 170.864783 
L 550.334684 162.614276 
L 550.944385 162.614276 
L 551.554086 149.413466 
L 552.163787 149.413466 
L 552.773488 151.063567 
L 553.383189 154.36377 
L 553.99289 149.413466 
L 554.602591 151.063567 
L 555.212292 157.663972 
L 555.821993 154.36377 
L 556.431694 149.413466 
L 557.041395 142.81306 
L 557.651096 151.063567 
L 558.260797 151.063567 
L 558.870498 157.663972 
L 559.480198 180.765391 
L 560.089899 177.465188 
L 560.6996 167.56458 
L 561.309301 151.063567 
L 561.919002 144.463162 
L 562.528703 164.264377 
L 563.138404 151.063567 
L 563.748105 160.964175 
L 564.357806 165.914479 
L 564.967507 156.013871 
L 565.577208 160.964175 
L 566.79661 174.164985 
L 567.406311 174.164985 
L 568.016012 172.514884 
L 568.625713 160.964175 
L 569.235414 165.914479 
L 569.845115 164.264377 
L 571.674218 134.562554 
L 572.283919 146.113263 
L 572.89362 164.264377 
L 574.113022 177.465188 
L 574.722723 162.614276 
L 575.332424 160.964175 
L 575.942125 160.964175 
L 576.551826 162.614276 
L 577.771228 172.514884 
L 578.380929 180.765391 
L 578.99063 170.864783 
L 579.600331 167.56458 
L 580.210032 169.214681 
L 580.819733 172.514884 
L 581.429434 172.514884 
L 582.039135 165.914479 
L 582.648836 187.365796 
L 583.258537 189.015897 
L 583.868238 189.015897 
L 584.477939 175.815087 
L 585.08764 154.36377 
L 585.697341 149.413466 
L 586.307042 139.512858 
L 586.916743 144.463162 
L 587.526444 146.113263 
L 588.136145 151.063567 
L 589.355547 147.763364 
L 589.965248 139.512858 
L 590.574949 126.312047 
L 591.18465 121.361743 
L 591.794351 131.262351 
L 592.404052 134.562554 
L 593.013753 136.212655 
L 593.623454 139.512858 
L 594.233155 136.212655 
L 594.842856 124.661946 
L 595.452557 129.61225 
L 596.062258 123.011845 
L 596.671959 126.312047 
L 597.28166 131.262351 
L 597.891361 129.61225 
L 598.501062 139.512858 
L 599.110763 136.212655 
L 599.720464 137.862756 
L 600.330165 134.562554 
L 600.939866 132.912452 
L 601.549567 141.162959 
L 602.768969 165.914479 
L 603.37867 167.56458 
L 603.988371 162.614276 
L 604.598072 165.914479 
L 605.207772 167.56458 
L 605.817473 165.914479 
L 606.427174 162.614276 
L 607.036875 154.36377 
L 607.646576 152.713668 
L 608.256277 160.964175 
L 608.865978 159.314073 
L 609.475679 162.614276 
L 610.08538 162.614276 
L 610.695081 164.264377 
L 611.304782 162.614276 
L 612.524184 165.914479 
L 613.133885 169.214681 
L 613.743586 167.56458 
L 614.353287 152.713668 
L 614.962988 141.162959 
L 615.572689 147.763364 
L 616.18239 144.463162 
L 616.792091 131.262351 
L 617.401792 123.011845 
L 618.621194 119.711642 
L 619.230895 126.312047 
L 619.840596 123.011845 
L 620.450297 116.411439 
L 621.059998 123.011845 
L 621.669699 121.361743 
L 622.2794 131.262351 
L 622.889101 131.262351 
L 623.498802 129.61225 
L 624.108503 139.512858 
L 624.718204 142.81306 
L 625.327905 136.212655 
L 625.937606 132.912452 
L 626.547307 136.212655 
L 627.157008 134.562554 
L 627.766709 129.61225 
L 628.37641 127.962148 
L 628.986111 136.212655 
L 629.595812 146.113263 
L 630.205513 142.81306 
L 630.815214 156.013871 
L 631.424915 149.413466 
L 632.034616 160.964175 
L 632.644317 167.56458 
L 633.863719 164.264377 
L 634.47342 157.663972 
L 635.083121 146.113263 
L 635.692822 154.36377 
L 636.302523 149.413466 
L 636.912224 139.512858 
L 637.521925 137.862756 
L 638.131626 139.512858 
L 638.741327 146.113263 
L 639.351028 144.463162 
L 639.960729 149.413466 
L 640.57043 147.763364 
L 641.180131 144.463162 
L 641.789832 136.212655 
L 642.399533 132.912452 
L 643.009234 124.661946 
L 643.618935 129.61225 
L 644.228636 127.962148 
L 644.838337 134.562554 
L 645.448038 132.912452 
L 646.057739 129.61225 
L 646.66744 131.262351 
L 647.277141 142.81306 
L 647.886842 149.413466 
L 648.496543 146.113263 
L 649.106244 151.063567 
L 649.715945 157.663972 
L 650.325646 154.36377 
L 651.545047 164.264377 
L 652.154748 172.514884 
L 652.764449 185.715694 
L 653.37415 202.216708 
L 653.983851 205.51691 
L 654.593552 218.717721 
L 655.203253 217.067619 
L 655.812954 217.067619 
L 656.422655 212.117316 
L 657.032356 198.916505 
L 658.251758 202.216708 
L 658.861459 200.566606 
L 659.47116 195.616302 
L 660.080861 172.514884 
L 661.909964 177.465188 
L 662.519665 175.815087 
L 663.129366 172.514884 
L 663.739067 174.164985 
L 665.56817 146.113263 
L 666.177871 152.713668 
L 666.787572 154.36377 
L 668.006974 164.264377 
L 668.616675 164.264377 
L 670.445778 169.214681 
L 671.055479 156.013871 
L 671.66518 160.964175 
L 672.274881 175.815087 
L 672.884582 169.214681 
L 673.494283 165.914479 
L 674.103984 167.56458 
L 674.713685 177.465188 
L 675.323386 164.264377 
L 675.933087 165.914479 
L 676.542788 162.614276 
L 677.76219 162.614276 
L 678.371891 151.063567 
L 678.981592 144.463162 
L 679.591293 136.212655 
L 680.200994 121.361743 
L 680.810695 118.061541 
L 681.420396 123.011845 
L 682.030097 124.661946 
L 683.249499 141.162959 
L 683.8592 132.912452 
L 684.468901 137.862756 
L 685.078602 147.763364 
L 685.688303 146.113263 
L 686.298004 139.512858 
L 686.907705 127.962148 
L 687.517406 131.262351 
L 688.127107 126.312047 
L 688.736808 127.962148 
L 689.346509 126.312047 
L 689.95621 119.711642 
L 690.565911 129.61225 
L 691.175612 124.661946 
L 691.785313 131.262351 
L 692.395014 146.113263 
L 694.224117 131.262351 
L 694.833818 123.011845 
L 696.05322 132.912452 
L 696.66292 131.262351 
L 697.272621 126.312047 
L 697.882322 137.862756 
L 698.492023 137.862756 
L 699.101724 142.81306 
L 699.711425 142.81306 
L 700.321126 139.512858 
L 700.930827 141.162959 
L 701.540528 149.413466 
L 702.150229 146.113263 
L 702.75993 151.063567 
L 703.369631 149.413466 
L 703.979332 149.413466 
L 704.589033 141.162959 
L 705.198734 144.463162 
L 706.418136 147.763364 
L 707.027837 156.013871 
L 707.637538 147.763364 
L 708.247239 149.413466 
L 708.85694 149.413466 
L 709.466641 152.713668 
L 710.076342 144.463162 
L 710.686043 159.314073 
L 711.295744 156.013871 
L 712.515146 169.214681 
L 713.124847 165.914479 
L 713.734548 152.713668 
L 714.344249 160.964175 
L 714.95395 167.56458 
L 716.173352 174.164985 
L 716.783053 180.765391 
L 717.392754 190.665998 
L 718.612156 190.665998 
L 719.831558 207.167012 
L 720.441259 217.067619 
L 721.05096 212.117316 
L 721.660661 215.417518 
L 722.270362 226.968227 
L 722.880063 222.017923 
L 723.489764 222.017923 
L 724.709166 218.717721 
L 725.318867 222.017923 
L 725.928568 235.218734 
L 726.538269 231.918531 
L 727.14797 220.367822 
L 727.757671 230.26843 
L 728.367372 225.318126 
L 728.977073 215.417518 
L 729.586774 213.767417 
L 730.196475 217.067619 
L 730.806176 218.717721 
L 731.415877 212.117316 
L 732.025578 208.817113 
L 732.635279 200.566606 
L 733.24498 203.866809 
L 733.854681 200.566606 
L 734.464382 187.365796 
L 735.074083 187.365796 
L 735.683784 193.966201 
L 736.293485 195.616302 
L 736.903186 195.616302 
L 737.512887 197.266404 
L 738.122588 193.966201 
L 738.732289 195.616302 
L 739.34199 193.966201 
L 739.951691 193.966201 
L 741.171093 203.866809 
L 741.780794 205.51691 
L 742.390494 193.966201 
L 743.000195 192.3161 
L 743.609896 174.164985 
L 744.219597 180.765391 
L 744.829298 174.164985 
L 745.438999 169.214681 
L 746.0487 170.864783 
L 746.658401 165.914479 
L 747.877803 132.912452 
L 748.487504 129.61225 
L 749.097205 129.61225 
L 749.706906 123.011845 
L 750.316607 113.111237 
L 750.926308 106.510831 
L 751.536009 109.811034 
L 752.14571 99.910426 
L 752.755411 99.910426 
L 753.365112 108.160933 
L 753.974813 101.560527 
L 754.584514 113.111237 
L 755.194215 108.160933 
L 755.803916 119.711642 
L 756.413617 111.461135 
L 757.023318 121.361743 
L 757.633019 123.011845 
L 758.24272 116.411439 
L 758.852421 118.061541 
L 759.462122 123.011845 
L 760.071823 139.512858 
L 760.681524 136.212655 
L 761.291225 139.512858 
L 762.510627 149.413466 
L 763.120328 164.264377 
L 763.730029 159.314073 
L 764.33973 162.614276 
L 764.949431 157.663972 
L 765.559132 142.81306 
L 766.168833 146.113263 
L 766.778534 146.113263 
L 767.388235 134.562554 
L 767.997936 126.312047 
L 768.607637 131.262351 
L 769.217338 131.262351 
L 769.827039 139.512858 
L 770.43674 141.162959 
L 772.875544 127.962148 
L 773.485245 131.262351 
L 774.094946 129.61225 
L 775.314348 123.011845 
L 775.924049 123.011845 
L 776.53375 119.711642 
L 777.143451 131.262351 
L 777.753152 134.562554 
L 778.362853 134.562554 
L 778.972554 137.862756 
L 779.582255 152.713668 
L 780.191956 162.614276 
L 780.801657 164.264377 
L 782.021059 144.463162 
L 782.63076 142.81306 
L 783.850162 174.164985 
L 784.459863 177.465188 
L 785.069564 190.665998 
L 785.679265 184.065593 
L 786.288966 182.415492 
L 786.898667 182.415492 
L 787.508368 175.815087 
L 788.118068 177.465188 
L 788.727769 184.065593 
L 789.33747 164.264377 
L 790.556872 151.063567 
L 791.166573 142.81306 
L 791.776274 151.063567 
L 792.385975 149.413466 
L 792.995676 146.113263 
L 793.605377 152.713668 
L 794.215078 160.964175 
L 794.824779 160.964175 
L 795.43448 156.013871 
L 796.044181 147.763364 
L 796.653882 141.162959 
L 797.263583 139.512858 
L 797.873284 132.912452 
L 798.482985 134.562554 
L 799.092686 144.463162 
L 799.702387 139.512858 
L 800.312088 139.512858 
L 800.921789 129.61225 
L 801.53149 149.413466 
L 802.141191 157.663972 
L 802.750892 156.013871 
L 803.360593 164.264377 
L 803.970294 157.663972 
L 804.579995 156.013871 
L 805.189696 165.914479 
L 805.799397 154.36377 
L 806.409098 152.713668 
L 807.018799 157.663972 
L 807.6285 144.463162 
L 808.238201 147.763364 
L 809.457603 141.162959 
L 810.067304 151.063567 
L 810.677005 152.713668 
L 811.286706 144.463162 
L 811.896407 152.713668 
L 812.506108 147.763364 
L 812.506108 147.763364 
" clip-path="url(#p08838dd7ec)" style="fill: none; stroke: #1f77b4; stroke-width: 1.5; stroke-linecap: round"/>
   </g>
   <g id="patch_3">
    <path d="M 39.801563 459.42625 
L 39.801563 82.790625 
" style="fill: none; stroke: #cccccc; stroke-width: 0.8; stroke-linejoin: miter; stroke-linecap: square"/>
   </g>
   <g id="patch_4">
    <path d="M 849.301563 459.42625 
L 849.301563 82.790625 
" style="fill: none; stroke: #cccccc; stroke-width: 0.8; stroke-linejoin: miter; stroke-linecap: square"/>
   </g>
   <g id="patch_5">
    <path d="M 39.801562 459.42625 
L 849.301563 459.42625 
" style="fill: none; stroke: #cccccc; stroke-width: 0.8; stroke-linejoin: miter; stroke-linecap: square"/>
   </g>
   <g id="patch_6">
    <path d="M 39.801562 82.790625 
L 849.301563 82.790625 
" style="fill: none; stroke: #cccccc; stroke-width: 0.8; stroke-linejoin: miter; stroke-linecap: square"/>
   </g>
   <g id="legend_1">
    <g id="patch_7">
     <path d="M 770.301563 454.42625 
L 842.301563 454.42625 
Q 844.301563 454.42625 844.301563 452.42625 
L 844.301563 437.946562 
Q 844.301563 435.946562 842.301563 435.946562 
L 770.301563 435.946562 
Q 768.301563 435.946562 768.301563 437.946562 
L 768.301563 452.42625 
Q 768.301563 454.42625 770.301563 454.42625 
z
" style="fill: #ffffff; opacity: 0.8; stroke: #cccccc; stroke-linejoin: miter"/>
    </g>
    <g id="line2d_15">
     <path d="M 772.301563 444.440312 
L 782.301563 444.440312 
L 792.301563 444.440312 
" style="fill: none; stroke: #1f77b4; stroke-width: 1.5; stroke-linecap: round"/>
    </g>
    <g id="text_16">
     <!-- 平滑奖励 -->
     <g style="fill: #262626" transform="translate(800.301563 447.940312) scale(0.1 -0.1)">
      <use xlink:href="#MicrosoftYaHei-5e73"/>
      <use xlink:href="#MicrosoftYaHei-6ed1" transform="translate(100 0)"/>
      <use xlink:href="#MicrosoftYaHei-5956" transform="translate(200 0)"/>
      <use xlink:href="#MicrosoftYaHei-52b1" transform="translate(300 0)"/>
     </g>
    </g>
   </g>
  </g>
  <g id="text_17">
   <!-- default_params - PPO - 初始训练 (正态-小幅均值改变(μ11,σ2)) -->
   <g style="fill: #262626" transform="translate(190.505313 20.615) scale(0.16 -0.16)">
    <defs>
     <path id="MicrosoftYaHei-Bold-64" d="M 3794 0 
L 2788 0 
L 2788 488 
L 2772 488 
Q 2406 -84 1691 -84 
Q 1031 -84 642 381 
Q 253 847 253 1650 
Q 253 2500 689 3020 
Q 1125 3541 1828 3541 
Q 2503 3541 2772 3053 
L 2788 3053 
L 2788 5116 
L 3794 5116 
L 3794 0 
z
M 2803 1956 
Q 2803 2306 2592 2536 
Q 2381 2766 2066 2766 
Q 1697 2766 1486 2473 
Q 1275 2181 1275 1681 
Q 1275 1206 1478 948 
Q 1681 691 2038 691 
Q 2372 691 2587 962 
Q 2803 1234 2803 1669 
L 2803 1956 
z
" transform="scale(0.015625)"/>
     <path id="MicrosoftYaHei-Bold-65" d="M 3528 1444 
L 1253 1444 
Q 1306 641 2222 641 
Q 2794 641 3231 922 
L 3231 181 
Q 2759 -84 1994 -84 
Q 1169 -84 711 381 
Q 253 847 253 1678 
Q 253 2506 740 3023 
Q 1228 3541 1966 3541 
Q 2700 3541 3114 3095 
Q 3528 2650 3528 1872 
L 3528 1444 
z
M 2588 2075 
Q 2588 2850 1959 2850 
Q 1700 2850 1500 2637 
Q 1300 2425 1250 2075 
L 2588 2075 
z
" transform="scale(0.015625)"/>
     <path id="MicrosoftYaHei-Bold-66" d="M 2653 4338 
Q 2447 4419 2263 4419 
Q 1744 4419 1744 3844 
L 1744 3456 
L 2531 3456 
L 2531 2703 
L 1744 2703 
L 1744 0 
L 734 0 
L 734 2703 
L 156 2703 
L 156 3456 
L 734 3456 
L 734 3900 
Q 734 4491 1118 4844 
Q 1503 5197 2128 5197 
Q 2447 5197 2653 5131 
L 2653 4338 
z
" transform="scale(0.015625)"/>
     <path id="MicrosoftYaHei-Bold-61" d="M 544 3247 
Q 778 3378 1170 3459 
Q 1563 3541 1841 3541 
Q 3291 3541 3291 2088 
L 3291 0 
L 2331 0 
L 2331 503 
L 2319 503 
Q 1966 -84 1284 -84 
Q 794 -84 498 195 
Q 203 475 203 956 
Q 203 1950 1388 2113 
L 2338 2241 
Q 2338 2844 1709 2844 
Q 1091 2844 544 2469 
L 544 3247 
z
M 1684 1566 
Q 1138 1494 1138 1072 
Q 1138 878 1270 759 
Q 1403 641 1628 641 
Q 1938 641 2138 859 
Q 2338 1078 2338 1403 
L 2338 1650 
L 1684 1566 
z
" transform="scale(0.015625)"/>
     <path id="MicrosoftYaHei-Bold-75" d="M 3691 0 
L 2688 0 
L 2688 528 
L 2672 528 
Q 2284 -84 1613 -84 
Q 406 -84 406 1372 
L 406 3456 
L 1416 3456 
L 1416 1466 
Q 1416 691 2022 691 
Q 2325 691 2506 903 
Q 2688 1116 2688 1478 
L 2688 3456 
L 3691 3456 
L 3691 0 
z
" transform="scale(0.015625)"/>
     <path id="MicrosoftYaHei-Bold-6c" d="M 444 0 
L 444 5116 
L 1450 5116 
L 1450 0 
L 444 0 
z
" transform="scale(0.015625)"/>
     <path id="MicrosoftYaHei-Bold-74" d="M 2494 41 
Q 2266 -84 1803 -84 
Q 703 -84 703 1072 
L 703 2703 
L 134 2703 
L 134 3456 
L 703 3456 
L 703 4216 
L 1706 4503 
L 1706 3456 
L 2494 3456 
L 2494 2703 
L 1706 2703 
L 1706 1247 
Q 1706 694 2144 694 
Q 2313 694 2494 794 
L 2494 41 
z
" transform="scale(0.015625)"/>
     <path id="MicrosoftYaHei-Bold-5f" d="M 2869 -1675 
L 0 -1675 
L 0 -1272 
L 2869 -1272 
L 2869 -1675 
z
" transform="scale(0.015625)"/>
     <path id="MicrosoftYaHei-Bold-70" d="M 1469 416 
L 1469 -1591 
L 459 -1591 
L 459 3456 
L 1469 3456 
L 1469 2928 
L 1481 2928 
Q 1878 3541 2603 3541 
Q 3263 3541 3634 3080 
Q 4006 2619 4006 1825 
Q 4006 959 3575 437 
Q 3144 -84 2444 -84 
Q 1809 -84 1481 416 
L 1469 416 
z
M 1453 1528 
Q 1453 1159 1653 925 
Q 1853 691 2172 691 
Q 2550 691 2761 984 
Q 2972 1278 2972 1816 
Q 2972 2766 2231 2766 
Q 1888 2766 1670 2503 
Q 1453 2241 1453 1828 
L 1453 1528 
z
" transform="scale(0.015625)"/>
     <path id="MicrosoftYaHei-Bold-72" d="M 2663 2541 
Q 2478 2647 2216 2647 
Q 1872 2647 1670 2384 
Q 1469 2122 1469 1663 
L 1469 0 
L 459 0 
L 459 3456 
L 1469 3456 
L 1469 2806 
L 1481 2806 
Q 1731 3516 2391 3516 
Q 2569 3516 2663 3475 
L 2663 2541 
z
" transform="scale(0.015625)"/>
     <path id="MicrosoftYaHei-Bold-6d" d="M 5881 0 
L 4875 0 
L 4875 1972 
Q 4875 2766 4297 2766 
Q 4028 2766 3850 2525 
Q 3672 2284 3672 1938 
L 3672 0 
L 2666 0 
L 2666 1997 
Q 2666 2766 2094 2766 
Q 1809 2766 1639 2536 
Q 1469 2306 1469 1928 
L 1469 0 
L 459 0 
L 459 3456 
L 1469 3456 
L 1469 2916 
L 1481 2916 
Q 1663 3213 1963 3377 
Q 2263 3541 2594 3541 
Q 3322 3541 3591 2888 
Q 3991 3541 4753 3541 
Q 5881 3541 5881 2147 
L 5881 0 
z
" transform="scale(0.015625)"/>
     <path id="MicrosoftYaHei-Bold-73" d="M 369 928 
Q 888 613 1384 613 
Q 2009 613 2009 947 
Q 2009 1184 1494 1344 
Q 850 1544 609 1789 
Q 369 2034 369 2453 
Q 369 2963 781 3252 
Q 1194 3541 1863 3541 
Q 2338 3541 2778 3400 
L 2778 2606 
Q 2375 2844 1891 2844 
Q 1650 2844 1503 2758 
Q 1356 2672 1356 2531 
Q 1356 2294 1794 2147 
Q 2263 1991 2498 1862 
Q 2734 1734 2857 1525 
Q 2981 1316 2981 1041 
Q 2981 506 2553 211 
Q 2125 -84 1409 -84 
Q 847 -84 369 94 
L 369 928 
z
" transform="scale(0.015625)"/>
     <path id="MicrosoftYaHei-Bold-20" transform="scale(0.015625)"/>
     <path id="MicrosoftYaHei-Bold-2d" d="M 2328 1497 
L 481 1497 
L 481 2209 
L 2328 2209 
L 2328 1497 
z
" transform="scale(0.015625)"/>
     <path id="MicrosoftYaHei-Bold-50" d="M 1591 1688 
L 1591 0 
L 559 0 
L 559 4841 
L 2225 4841 
Q 4031 4841 4031 3309 
Q 4031 2566 3486 2117 
Q 2941 1669 2122 1688 
L 1591 1688 
z
M 1591 4041 
L 1591 2478 
L 2038 2478 
Q 2947 2478 2947 3269 
Q 2947 4041 2047 4041 
L 1591 4041 
z
" transform="scale(0.015625)"/>
     <path id="MicrosoftYaHei-Bold-4f" d="M 256 2356 
Q 256 3494 920 4208 
Q 1584 4922 2675 4922 
Q 3713 4922 4345 4231 
Q 4978 3541 4978 2456 
Q 4978 1325 4320 620 
Q 3663 -84 2597 -84 
Q 1556 -84 906 598 
Q 256 1281 256 2356 
z
M 1341 2413 
Q 1341 1706 1681 1257 
Q 2022 809 2616 809 
Q 3222 809 3559 1239 
Q 3897 1669 3897 2394 
Q 3897 3150 3569 3589 
Q 3241 4028 2644 4028 
Q 2038 4028 1689 3578 
Q 1341 3128 1341 2413 
z
" transform="scale(0.015625)"/>
     <path id="MicrosoftYaHei-Bold-521d" d="M 1288 5359 
Q 1619 4997 2031 4453 
L 1516 4109 
L 2294 4109 
L 2294 3378 
Q 2019 2847 1700 2369 
L 1700 2256 
Q 1809 2175 1909 2097 
Q 2209 2516 2419 2878 
L 2994 2516 
Q 2716 2138 2381 1734 
Q 2619 1544 2813 1378 
L 2363 834 
Q 2016 1166 1700 1441 
L 1700 -866 
L 913 -866 
L 913 1338 
Q 641 1025 344 741 
Q 231 1228 94 1678 
Q 831 2278 1363 3303 
L 156 3303 
L 156 4109 
L 1231 4109 
Q 981 4472 613 4928 
L 1288 5359 
z
M 3919 -697 
Q 3838 -266 3700 253 
Q 4153 209 4563 209 
Q 5006 209 5040 675 
Q 5075 1141 5113 4159 
L 4097 4159 
Q 4050 2622 3984 1959 
Q 3919 1297 3595 525 
Q 3272 -247 2644 -859 
Q 2369 -578 1925 -216 
Q 2450 234 2734 806 
Q 3019 1378 3105 1972 
Q 3191 2566 3219 4159 
L 2488 4159 
L 2488 4947 
L 6013 4947 
L 5938 1331 
L 5906 491 
Q 5906 -44 5686 -328 
Q 5466 -613 5067 -647 
Q 4669 -681 3919 -697 
z
" transform="scale(0.015625)"/>
     <path id="MicrosoftYaHei-Bold-59cb" d="M 2863 -853 
L 2863 356 
L 2256 -291 
Q 2000 -25 1744 225 
Q 1309 -381 638 -847 
Q 350 -466 69 -153 
Q 706 259 1119 816 
Q 669 1228 225 1597 
Q 441 2363 616 3359 
L 119 3359 
L 119 4134 
L 741 4134 
Q 825 4706 900 5347 
L 1731 5259 
L 1550 4134 
L 2669 4134 
Q 2663 3728 2638 3363 
Q 3213 3972 3875 5359 
L 4800 5097 
Q 4225 4159 3594 3378 
Q 4328 3422 5075 3484 
Q 4847 3944 4619 4359 
L 5294 4634 
Q 5831 3747 6369 2659 
L 5613 2341 
L 5391 2828 
Q 3522 2697 2863 2578 
L 2625 3169 
Q 2519 1791 2156 953 
L 2863 394 
L 2863 2116 
L 5981 2116 
L 5981 -828 
L 5144 -828 
L 5144 -472 
L 3700 -472 
L 3700 -853 
L 2863 -853 
z
M 1088 1797 
L 1503 1469 
Q 1809 2241 1863 3359 
L 1413 3359 
Q 1259 2541 1088 1797 
z
M 5144 1328 
L 3700 1328 
L 3700 316 
L 5144 316 
L 5144 1328 
z
" transform="scale(0.015625)"/>
     <path id="MicrosoftYaHei-Bold-8bad" d="M 956 5259 
Q 1475 4753 1925 4234 
L 1263 3684 
Q 769 4328 356 4747 
L 956 5259 
z
M 2450 5184 
L 3281 5184 
L 3281 2066 
Q 3281 209 2275 -884 
Q 1844 -528 1519 -328 
Q 2450 659 2450 2134 
L 2450 5184 
z
M 5238 5184 
L 6069 5184 
L 6069 -784 
L 5238 -784 
L 5238 5184 
z
M 3856 4953 
L 4663 4953 
L 4663 -416 
L 3856 -416 
L 3856 4953 
z
M 2019 1772 
Q 2050 1466 2175 916 
Q 1556 353 925 -341 
L 488 266 
Q 650 447 650 772 
L 650 2422 
L 125 2422 
L 125 3266 
L 1475 3266 
L 1475 1297 
Q 1769 1541 2019 1772 
z
" transform="scale(0.015625)"/>
     <path id="MicrosoftYaHei-Bold-7ec3" d="M 2400 3516 
L 2984 3516 
L 3159 4028 
L 2263 4028 
L 2263 4753 
L 3394 4753 
L 3575 5347 
L 4413 5291 
L 4238 4753 
L 6000 4753 
L 6000 4028 
L 3994 4028 
L 3809 3516 
L 4969 3516 
L 4969 2191 
L 6025 2191 
L 6025 1484 
L 4969 1484 
L 4969 297 
Q 4969 -131 4831 -397 
Q 4694 -663 4444 -758 
Q 4194 -853 3394 -853 
Q 3294 -309 3225 -34 
Q 3525 -72 3756 -72 
Q 4125 -72 4125 491 
L 4125 1484 
L 2513 1484 
L 2513 2291 
Q 2613 2525 2716 2791 
L 2400 2791 
L 2400 3516 
z
M 3306 2191 
L 4125 2191 
L 4125 2791 
L 3541 2791 
L 3306 2191 
z
M 1013 3372 
L 1419 3388 
L 1744 3966 
L 2413 3659 
L 1356 1797 
Q 1894 1872 2294 1941 
Q 2263 1684 2231 1159 
Q 931 984 475 866 
L 244 1566 
Q 531 1816 1009 2653 
L 306 2584 
L 75 3297 
Q 575 3966 1219 5341 
L 2000 5028 
Q 1450 4053 1013 3372 
z
M 75 372 
Q 1100 478 2288 672 
Q 2275 350 2272 116 
Q 2722 741 3000 1309 
L 3706 1003 
Q 3294 197 2738 -597 
Q 2469 -409 2078 -191 
L 238 -503 
L 75 372 
z
M 5000 978 
L 5619 1278 
Q 5994 584 6369 -197 
L 5713 -534 
Q 5356 316 5000 978 
z
" transform="scale(0.015625)"/>
     <path id="MicrosoftYaHei-Bold-28" d="M 1606 -1100 
Q 525 97 525 1853 
Q 525 3550 1606 4841 
L 2431 4841 
Q 1406 3497 1406 1853 
Q 1406 216 2438 -1100 
L 1606 -1100 
z
" transform="scale(0.015625)"/>
     <path id="MicrosoftYaHei-Bold-6b63" d="M 138 303 
L 1050 303 
L 1050 3397 
L 1975 3397 
L 1975 303 
L 3056 303 
L 3056 4078 
L 388 4078 
L 388 4934 
L 6056 4934 
L 6056 4078 
L 4000 4078 
L 4000 2709 
L 5838 2709 
L 5838 1859 
L 4000 1859 
L 4000 303 
L 6263 303 
L 6263 -553 
L 138 -553 
L 138 303 
z
" transform="scale(0.015625)"/>
     <path id="MicrosoftYaHei-Bold-6001" d="M 300 4628 
L 2656 4628 
Q 2719 4953 2700 5334 
L 3625 5334 
Q 3613 4947 3584 4628 
L 6100 4628 
L 6100 3878 
L 3981 3878 
Q 4788 3000 6313 2703 
Q 6063 2228 5869 1784 
Q 4159 2303 3206 3700 
Q 2500 2331 588 1703 
Q 356 2197 88 2616 
Q 1869 3028 2369 3878 
L 300 3878 
L 300 4628 
z
M 2919 3022 
Q 3356 2753 3950 2347 
L 3388 1784 
Q 2863 2222 2406 2528 
L 2919 3022 
z
M 2975 1941 
Q 3619 1559 4163 1166 
L 3644 566 
Q 3119 997 2506 1372 
L 2975 1941 
z
M 5494 1709 
Q 5969 997 6331 278 
L 5588 -128 
Q 5244 603 4775 1353 
L 5494 1709 
z
M 4350 872 
Q 4813 647 5213 497 
Q 5022 -278 4744 -509 
Q 4466 -741 3913 -741 
L 2500 -741 
Q 1563 -741 1563 184 
L 1563 1491 
L 2388 1491 
L 2388 391 
Q 2388 9 2775 9 
L 3713 9 
Q 4019 9 4147 143 
Q 4275 278 4350 872 
z
M 663 1466 
L 1438 1203 
Q 1119 253 863 -353 
L 81 -53 
Q 413 659 663 1466 
z
" transform="scale(0.015625)"/>
     <path id="MicrosoftYaHei-Bold-5c0f" d="M 2788 5272 
L 3763 5272 
L 3763 541 
Q 3763 -75 3570 -367 
Q 3378 -659 3076 -712 
Q 2775 -766 1700 -766 
Q 1606 -234 1469 222 
Q 1969 166 2344 166 
Q 2788 166 2788 684 
L 2788 5272 
z
M 5206 3922 
Q 5800 2553 6356 1041 
L 5369 659 
Q 4856 2278 4325 3628 
L 5206 3922 
z
M 1069 3916 
L 2006 3691 
Q 1550 2016 1038 622 
L 113 972 
Q 663 2397 1069 3916 
z
" transform="scale(0.015625)"/>
     <path id="MicrosoftYaHei-Bold-5e45" d="M 850 447 
L 319 447 
L 319 4278 
L 1088 4278 
L 1088 5328 
L 1763 5328 
L 1763 4278 
L 2525 4278 
L 2525 1153 
Q 2525 959 2456 723 
Q 2388 488 1844 503 
Q 1822 784 1763 1116 
L 1763 -847 
L 1088 -847 
L 1088 3528 
L 850 3528 
L 850 447 
z
M 2000 1403 
L 2000 3528 
L 1763 3528 
L 1763 1188 
Q 2000 1141 2000 1403 
z
M 2606 5016 
L 6169 5016 
L 6169 4366 
L 2606 4366 
L 2606 5016 
z
M 2919 4072 
L 5856 4072 
L 5856 2484 
L 2919 2484 
L 2919 4072 
z
M 5056 3447 
L 3719 3447 
L 3719 3109 
L 5056 3109 
L 5056 3447 
z
M 2688 2191 
L 6088 2191 
L 6088 -809 
L 5338 -809 
L 5338 -484 
L 3438 -484 
L 3438 -809 
L 2688 -809 
L 2688 2191 
z
M 3438 1141 
L 4038 1141 
L 4038 1591 
L 3438 1591 
L 3438 1141 
z
M 5338 1591 
L 4738 1591 
L 4738 1141 
L 5338 1141 
L 5338 1591 
z
M 3438 116 
L 4038 116 
L 4038 566 
L 3438 566 
L 3438 116 
z
M 4738 116 
L 5338 116 
L 5338 566 
L 4738 566 
L 4738 116 
z
" transform="scale(0.015625)"/>
     <path id="MicrosoftYaHei-Bold-5747" d="M 250 -397 
L 88 547 
Q 425 628 794 725 
L 794 2847 
L 213 2847 
L 213 3703 
L 794 3703 
L 794 5322 
L 1638 5322 
L 1638 3703 
L 2156 3703 
L 2156 3269 
Q 2794 4313 3075 5366 
L 3925 5266 
Q 3809 4866 3669 4491 
L 6069 4491 
L 6016 1816 
L 5966 303 
Q 5944 -194 5730 -450 
Q 5516 -706 5167 -745 
Q 4819 -784 3775 -797 
Q 3700 -397 3556 153 
Q 4178 103 4625 103 
Q 4819 103 4955 208 
Q 5091 313 5105 575 
Q 5119 838 5141 1619 
L 5181 3703 
L 3341 3703 
Q 3059 3088 2706 2541 
Q 2463 2763 2156 3003 
L 2156 2847 
L 1638 2847 
L 1638 959 
L 2288 1153 
Q 2275 878 2269 253 
Q 963 -134 250 -397 
z
M 3556 3353 
Q 4106 2922 4588 2466 
L 4006 1891 
Q 3500 2403 3019 2822 
L 3556 3353 
z
M 2719 209 
L 2500 1128 
Q 3650 1534 4938 2059 
Q 4956 1566 5000 1153 
Q 3894 728 2719 209 
z
" transform="scale(0.015625)"/>
     <path id="MicrosoftYaHei-Bold-503c" d="M 1638 3 
L 2100 3 
L 2100 3728 
L 3556 3728 
L 3556 4097 
L 1950 4097 
L 1950 4797 
L 3556 4797 
L 3556 5266 
L 4381 5266 
L 4381 4797 
L 6175 4797 
L 6175 4097 
L 4381 4097 
L 4381 3728 
L 5888 3728 
L 5888 3 
L 6325 3 
L 6325 -697 
L 1638 -697 
L 1638 3 
z
M 1125 5347 
L 1950 5128 
Q 1713 4378 1419 3666 
L 1419 -853 
L 625 -853 
L 625 2022 
Q 456 1716 275 1422 
Q 200 1916 69 2591 
Q 675 3803 1125 5347 
z
M 2888 1853 
L 5100 1853 
L 5100 2178 
L 2888 2178 
L 2888 1853 
z
M 2888 928 
L 5100 928 
L 5100 1253 
L 2888 1253 
L 2888 928 
z
M 5100 3103 
L 2888 3103 
L 2888 2778 
L 5100 2778 
L 5100 3103 
z
M 2888 3 
L 5100 3 
L 5100 328 
L 2888 328 
L 2888 3 
z
" transform="scale(0.015625)"/>
     <path id="MicrosoftYaHei-Bold-6539" d="M 3475 5347 
L 4294 5184 
Q 4206 4753 4106 4366 
L 6250 4366 
L 6250 3534 
L 5822 3534 
Q 5650 1950 4966 941 
Q 5528 356 6325 -34 
L 5775 -841 
Q 4969 -359 4400 259 
Q 3772 -378 2931 -847 
Q 2769 -559 2419 -41 
Q 3259 375 3853 969 
Q 3472 1563 3266 2259 
Q 3166 2103 3063 1966 
Q 2834 2322 2650 2559 
L 2650 2078 
L 1225 2078 
L 1225 491 
Q 1781 791 2550 1172 
Q 2569 897 2656 322 
Q 1069 -472 700 -822 
L 238 -209 
Q 406 -3 400 316 
L 400 2878 
L 1825 2878 
L 1825 4091 
L 250 4091 
L 250 4891 
L 2650 4891 
L 2650 2897 
Q 3234 3900 3475 5347 
z
M 4403 1666 
Q 4819 2391 5000 3534 
L 3856 3534 
Q 3813 3409 3766 3291 
Q 3959 2375 4403 1666 
z
" transform="scale(0.015625)"/>
     <path id="MicrosoftYaHei-Bold-53d8" d="M 231 4616 
L 2734 4616 
L 2525 5128 
L 3425 5353 
L 3741 4616 
L 6175 4616 
L 6175 3878 
L 4350 3878 
L 4350 2434 
L 3550 2434 
L 3550 3878 
L 2850 3878 
L 2850 2434 
L 2050 2434 
L 2050 3878 
L 231 3878 
L 231 4616 
z
M 1488 3778 
L 2019 3228 
Q 1338 2684 550 2184 
Q 325 2541 88 2828 
Q 844 3272 1488 3778 
z
M 4881 3728 
Q 5538 3328 6306 2778 
L 5769 2159 
Q 5119 2666 4406 3178 
L 4881 3728 
z
M 5300 2272 
L 5300 1566 
Q 4847 913 4144 422 
Q 5063 147 6288 84 
Q 6194 -84 5825 -822 
Q 4297 -663 3200 -116 
Q 2088 -634 544 -884 
Q 363 -497 94 -66 
Q 1359 84 2338 425 
Q 1741 894 1331 1534 
L 900 1534 
L 900 2272 
L 5300 2272 
z
M 3213 794 
Q 3834 1113 4300 1534 
L 2238 1534 
Q 2631 1100 3213 794 
z
" transform="scale(0.015625)"/>
     <path id="MicrosoftYaHei-Bold-3bc" d="M 2747 550 
Q 2528 -78 1938 -78 
Q 1647 -78 1484 97 
L 1469 97 
L 1469 -1366 
L 459 -1366 
L 459 3456 
L 1469 3456 
L 1469 1456 
Q 1469 728 2069 728 
Q 2713 728 2713 1613 
L 2713 3456 
L 3731 3456 
L 3728 1328 
Q 3728 1047 3795 906 
Q 3863 766 4041 766 
Q 4125 766 4222 797 
L 4222 28 
Q 3944 -50 3631 -50 
Q 2897 -50 2759 550 
L 2747 550 
z
" transform="scale(0.015625)"/>
     <path id="MicrosoftYaHei-Bold-31" d="M 2716 4947 
L 2716 0 
L 1700 0 
L 1700 3809 
Q 1513 3647 1188 3517 
Q 863 3388 591 3356 
L 591 4222 
Q 1447 4472 2072 4947 
L 2716 4947 
z
" transform="scale(0.015625)"/>
     <path id="MicrosoftYaHei-Bold-2c" d="M 1419 841 
L 916 -859 
L 134 -859 
L 484 841 
L 1419 841 
z
" transform="scale(0.015625)"/>
     <path id="MicrosoftYaHei-Bold-3c3" d="M 4147 2725 
L 3375 2725 
Q 3753 2244 3753 1616 
Q 3753 838 3286 377 
Q 2819 -84 2031 -84 
Q 1219 -84 736 405 
Q 253 894 253 1719 
Q 253 2572 720 3014 
Q 1188 3456 2097 3456 
L 4147 3456 
L 4147 2725 
z
M 2188 2725 
Q 1284 2725 1284 1678 
Q 1284 1244 1478 969 
Q 1672 694 2025 694 
Q 2356 694 2540 966 
Q 2725 1238 2725 1722 
Q 2725 2288 2447 2725 
L 2188 2725 
z
" transform="scale(0.015625)"/>
     <path id="MicrosoftYaHei-Bold-32" d="M 1500 841 
L 3553 841 
L 3553 0 
L 334 0 
L 334 359 
Q 334 738 473 1050 
Q 613 1363 856 1633 
Q 1100 1903 1613 2266 
Q 2081 2616 2268 2886 
Q 2456 3156 2456 3459 
Q 2456 4113 1744 4113 
Q 1119 4113 550 3613 
L 550 4513 
Q 1184 4922 1975 4922 
Q 2700 4922 3122 4551 
Q 3544 4181 3544 3531 
Q 3544 3169 3422 2876 
Q 3300 2584 3069 2328 
Q 2838 2072 2328 1713 
Q 1838 1363 1669 1172 
Q 1500 981 1500 841 
z
" transform="scale(0.015625)"/>
     <path id="MicrosoftYaHei-Bold-29" d="M 59 -1100 
Q 1097 216 1097 1853 
Q 1097 3484 59 4841 
L 888 4841 
Q 1978 3544 1978 1853 
Q 1978 113 881 -1100 
L 59 -1100 
z
" transform="scale(0.015625)"/>
    </defs>
    <use xlink:href="#MicrosoftYaHei-Bold-64"/>
    <use xlink:href="#MicrosoftYaHei-Bold-65" transform="translate(66.455078 0)"/>
    <use xlink:href="#MicrosoftYaHei-Bold-66" transform="translate(124.658203 0)"/>
    <use xlink:href="#MicrosoftYaHei-Bold-61" transform="translate(165.185547 0)"/>
    <use xlink:href="#MicrosoftYaHei-Bold-75" transform="translate(222.949219 0)"/>
    <use xlink:href="#MicrosoftYaHei-Bold-6c" transform="translate(287.744141 0)"/>
    <use xlink:href="#MicrosoftYaHei-Bold-74" transform="translate(317.333984 0)"/>
    <use xlink:href="#MicrosoftYaHei-Bold-5f" transform="translate(358.740234 0)"/>
    <use xlink:href="#MicrosoftYaHei-Bold-70" transform="translate(403.564453 0)"/>
    <use xlink:href="#MicrosoftYaHei-Bold-61" transform="translate(469.041016 0)"/>
    <use xlink:href="#MicrosoftYaHei-Bold-72" transform="translate(526.804688 0)"/>
    <use xlink:href="#MicrosoftYaHei-Bold-61" transform="translate(569.1875 0)"/>
    <use xlink:href="#MicrosoftYaHei-Bold-6d" transform="translate(626.951172 0)"/>
    <use xlink:href="#MicrosoftYaHei-Bold-73" transform="translate(725.144531 0)"/>
    <use xlink:href="#MicrosoftYaHei-Bold-20" transform="translate(774.509766 0)"/>
    <use xlink:href="#MicrosoftYaHei-Bold-2d" transform="translate(804.294922 0)"/>
    <use xlink:href="#MicrosoftYaHei-Bold-20" transform="translate(847.947266 0)"/>
    <use xlink:href="#MicrosoftYaHei-Bold-50" transform="translate(877.732422 0)"/>
    <use xlink:href="#MicrosoftYaHei-Bold-50" transform="translate(943.455078 0)"/>
    <use xlink:href="#MicrosoftYaHei-Bold-4f" transform="translate(1009.177734 0)"/>
    <use xlink:href="#MicrosoftYaHei-Bold-20" transform="translate(1091.013672 0)"/>
    <use xlink:href="#MicrosoftYaHei-Bold-2d" transform="translate(1120.798828 0)"/>
    <use xlink:href="#MicrosoftYaHei-Bold-20" transform="translate(1164.451172 0)"/>
    <use xlink:href="#MicrosoftYaHei-Bold-521d" transform="translate(1194.236328 0)"/>
    <use xlink:href="#MicrosoftYaHei-Bold-59cb" transform="translate(1294.236328 0)"/>
    <use xlink:href="#MicrosoftYaHei-Bold-8bad" transform="translate(1394.236328 0)"/>
    <use xlink:href="#MicrosoftYaHei-Bold-7ec3" transform="translate(1494.236328 0)"/>
    <use xlink:href="#MicrosoftYaHei-Bold-20" transform="translate(1594.236328 0)"/>
    <use xlink:href="#MicrosoftYaHei-Bold-28" transform="translate(1624.021484 0)"/>
    <use xlink:href="#MicrosoftYaHei-Bold-6b63" transform="translate(1662.986328 0)"/>
    <use xlink:href="#MicrosoftYaHei-Bold-6001" transform="translate(1762.986328 0)"/>
    <use xlink:href="#MicrosoftYaHei-Bold-2d" transform="translate(1862.986328 0)"/>
    <use xlink:href="#MicrosoftYaHei-Bold-5c0f" transform="translate(1906.638672 0)"/>
    <use xlink:href="#MicrosoftYaHei-Bold-5e45" transform="translate(2006.638672 0)"/>
    <use xlink:href="#MicrosoftYaHei-Bold-5747" transform="translate(2106.638672 0)"/>
    <use xlink:href="#MicrosoftYaHei-Bold-503c" transform="translate(2206.638672 0)"/>
    <use xlink:href="#MicrosoftYaHei-Bold-6539" transform="translate(2306.638672 0)"/>
    <use xlink:href="#MicrosoftYaHei-Bold-53d8" transform="translate(2406.638672 0)"/>
    <use xlink:href="#MicrosoftYaHei-Bold-28" transform="translate(2506.638672 0)"/>
    <use xlink:href="#MicrosoftYaHei-Bold-3bc" transform="translate(2545.603516 0)"/>
    <use xlink:href="#MicrosoftYaHei-Bold-31" transform="translate(2612.693359 0)"/>
    <use xlink:href="#MicrosoftYaHei-Bold-31" transform="translate(2674.363281 0)"/>
    <use xlink:href="#MicrosoftYaHei-Bold-2c" transform="translate(2736.033203 0)"/>
    <use xlink:href="#MicrosoftYaHei-Bold-3c3" transform="translate(2764.597656 0)"/>
    <use xlink:href="#MicrosoftYaHei-Bold-32" transform="translate(2830.320312 0)"/>
    <use xlink:href="#MicrosoftYaHei-Bold-29" transform="translate(2891.990234 0)"/>
    <use xlink:href="#MicrosoftYaHei-Bold-29" transform="translate(2930.955078 0)"/>
   </g>
   <!-- (环境: 正态-小幅均值改变(μ11,σ2 | 复杂度: 0.44) -->
   <g style="fill: #262626" transform="translate(249.629063 40.9005) scale(0.16 -0.16)">
    <defs>
     <path id="MicrosoftYaHei-Bold-73af" d="M 5163 2916 
Q 5825 1797 6300 878 
L 5544 472 
Q 5081 1400 4550 2413 
L 4550 -834 
L 3706 -834 
L 3706 2013 
Q 3272 1200 2700 484 
Q 2525 641 2378 766 
Q 2347 503 2331 9 
L 175 -328 
L 81 522 
L 863 613 
L 863 2003 
L 213 2003 
L 213 2834 
L 863 2834 
L 863 4066 
L 175 4066 
L 175 4897 
L 2375 4897 
L 2375 4066 
L 1694 4066 
L 1694 2834 
L 2356 2834 
L 2356 2003 
L 1694 2003 
L 1694 728 
L 2306 825 
Q 2134 972 2000 1072 
Q 3194 2478 3675 4084 
L 2606 4084 
L 2606 4916 
L 6075 4916 
L 6075 4084 
L 4556 4084 
Q 4400 3559 4200 3066 
L 4550 3066 
L 4550 2591 
L 5163 2916 
z
" transform="scale(0.015625)"/>
     <path id="MicrosoftYaHei-Bold-5883" d="M 6044 4241 
L 5000 4241 
L 5563 4103 
Q 5450 3944 5322 3778 
L 6231 3778 
L 6231 3153 
L 2113 3153 
L 2113 3778 
L 2863 3778 
L 2638 4109 
L 3228 4241 
L 2256 4241 
L 2256 4866 
L 3591 4866 
Q 3506 5028 3400 5209 
L 4438 5353 
Q 4509 5125 4575 4866 
L 6044 4866 
L 6044 4241 
z
M 3853 3778 
L 4350 3778 
Q 4506 4009 4625 4241 
L 3503 4241 
Q 3681 4041 3853 3778 
z
M 263 -328 
L 100 603 
L 706 775 
L 706 2997 
L 175 2997 
L 175 3853 
L 706 3853 
L 706 5328 
L 1544 5328 
L 1544 3853 
L 1981 3853 
L 1981 2997 
L 1544 2997 
L 1544 1025 
L 2094 1197 
Q 2081 981 2081 759 
Q 2081 538 2094 309 
Q 1213 16 263 -328 
z
M 2244 2878 
L 5894 2878 
L 5894 603 
L 5038 603 
L 5038 141 
Q 5038 -91 5269 -91 
Q 5441 -91 5512 7 
Q 5584 106 5619 584 
Q 5956 428 6319 322 
Q 6284 66 6212 -223 
Q 6141 -513 5908 -652 
Q 5675 -791 5281 -791 
L 5006 -791 
Q 4238 -791 4238 -97 
L 4238 603 
L 3841 603 
Q 3647 -478 2331 -909 
Q 2125 -622 1763 -178 
Q 2781 88 2994 603 
L 2244 603 
L 2244 2878 
z
M 5094 2291 
L 3044 2291 
L 3044 2009 
L 5094 2009 
L 5094 2291 
z
M 5094 1191 
L 5094 1472 
L 3044 1472 
L 3044 1191 
L 5094 1191 
z
" transform="scale(0.015625)"/>
     <path id="MicrosoftYaHei-Bold-3a" d="M 313 2969 
Q 313 3200 491 3350 
Q 669 3500 916 3500 
Q 1166 3500 1337 3350 
Q 1509 3200 1509 2969 
Q 1509 2728 1337 2579 
Q 1166 2431 903 2431 
Q 653 2431 483 2584 
Q 313 2738 313 2969 
z
M 313 453 
Q 313 688 491 838 
Q 669 988 916 988 
Q 1166 988 1337 834 
Q 1509 681 1509 453 
Q 1509 213 1337 64 
Q 1166 -84 903 -84 
Q 659 -84 486 69 
Q 313 222 313 453 
z
" transform="scale(0.015625)"/>
     <path id="MicrosoftYaHei-Bold-7c" d="M 1500 -1622 
L 691 -1622 
L 691 5288 
L 1500 5288 
L 1500 -1622 
z
" transform="scale(0.015625)"/>
     <path id="MicrosoftYaHei-Bold-590d" d="M 5738 1528 
L 5738 1003 
Q 5091 600 4322 259 
Q 5197 78 6306 -16 
Q 6000 -428 5819 -791 
Q 4391 -569 3278 -153 
Q 2125 -559 744 -853 
Q 550 -541 275 -178 
Q 1394 3 2341 256 
Q 1872 500 1478 788 
Q 1069 416 581 116 
Q 363 391 75 691 
Q 925 1194 1459 1816 
L 844 1816 
L 844 3406 
Q 600 3128 325 2872 
Q 238 3266 94 3759 
Q 831 4484 1188 5334 
L 2063 5334 
Q 1978 5144 1888 4959 
L 6181 4959 
L 6181 4334 
L 1538 4334 
Q 1434 4172 1325 4016 
L 5738 4016 
L 5738 1816 
L 2372 1816 
Q 2272 1666 2163 1528 
L 5738 1528 
z
M 4906 3478 
L 1675 3478 
L 1675 3141 
L 4906 3141 
L 4906 3478 
z
M 4906 2353 
L 4906 2691 
L 1675 2691 
L 1675 2353 
L 4906 2353 
z
M 3269 541 
Q 3897 753 4438 1009 
L 2231 1009 
Q 2669 744 3269 541 
z
" transform="scale(0.015625)"/>
     <path id="MicrosoftYaHei-Bold-6742" d="M 5500 4203 
Q 5919 4078 6338 3978 
Q 6269 3328 6188 2984 
Q 6063 2453 5400 2453 
L 4600 2453 
Q 3900 2453 3900 3153 
L 3900 3997 
L 2781 3997 
Q 2588 2603 613 2141 
Q 419 2466 106 2884 
Q 1644 3172 1869 3997 
L 456 3997 
L 456 4753 
L 1981 4753 
Q 2006 5053 2006 5328 
L 2894 5328 
Q 2894 5084 2869 4753 
L 4800 4753 
L 4800 3459 
Q 4800 3203 5056 3203 
L 5206 3203 
Q 5394 3203 5431 3466 
Q 5469 3816 5500 4203 
z
M 188 2072 
L 2800 2072 
L 2800 2666 
L 3706 2666 
L 3706 2072 
L 6175 2072 
L 6175 1309 
L 3706 1309 
L 3706 159 
Q 3706 -684 2900 -766 
Q 2613 -797 2000 -803 
Q 1906 -334 1794 72 
Q 2200 41 2456 41 
Q 2800 41 2800 403 
L 2800 1309 
L 188 1309 
L 188 2072 
z
M 4000 597 
L 4519 1172 
Q 5425 628 6263 34 
L 5725 -634 
Q 4956 -34 4000 597 
z
M 1675 1166 
L 2263 559 
Q 1406 -84 538 -634 
Q 288 -247 63 66 
Q 963 566 1675 1166 
z
" transform="scale(0.015625)"/>
     <path id="MicrosoftYaHei-Bold-5ea6" d="M 5656 1697 
L 5656 1022 
Q 5156 447 4656 97 
Q 5344 -34 6306 -66 
Q 6119 -428 5938 -822 
Q 4556 -653 3719 -353 
Q 2825 -653 1494 -872 
Q 1338 -522 1088 -178 
Q 2100 -128 2888 78 
Q 2369 453 1938 1022 
L 1538 1022 
L 1538 1697 
L 5656 1697 
z
M 1325 2478 
Q 1338 134 700 -884 
Q 356 -553 19 -297 
Q 550 697 525 2591 
L 525 4772 
L 3013 4772 
Q 2944 4953 2831 5209 
L 3869 5359 
Q 3981 5072 4094 4772 
L 6256 4772 
L 6256 4072 
L 1325 4072 
L 1325 2478 
z
M 1463 3684 
L 2144 3684 
L 2144 3947 
L 2944 3947 
L 2944 3684 
L 4494 3684 
L 4494 3947 
L 5294 3947 
L 5294 3684 
L 6144 3684 
L 6144 3009 
L 5294 3009 
L 5294 1991 
L 2144 1991 
L 2144 3009 
L 1463 3009 
L 1463 3684 
z
M 3756 378 
Q 4325 641 4725 1022 
L 2825 1022 
Q 3225 622 3756 378 
z
M 4494 2628 
L 4494 3009 
L 2944 3009 
L 2944 2628 
L 4494 2628 
z
" transform="scale(0.015625)"/>
     <path id="MicrosoftYaHei-Bold-30" d="M 244 2341 
Q 244 3597 706 4259 
Q 1169 4922 2044 4922 
Q 3713 4922 3713 2453 
Q 3713 1238 3259 577 
Q 2806 -84 1950 -84 
Q 244 -84 244 2341 
z
M 1266 2366 
Q 1266 691 1981 691 
Q 2684 691 2684 2416 
Q 2684 4147 2000 4147 
Q 1266 4147 1266 2366 
z
" transform="scale(0.015625)"/>
     <path id="MicrosoftYaHei-Bold-2e" d="M 313 453 
Q 313 688 491 838 
Q 669 988 916 988 
Q 1166 988 1337 834 
Q 1509 681 1509 453 
Q 1509 213 1337 64 
Q 1166 -84 903 -84 
Q 659 -84 486 69 
Q 313 222 313 453 
z
" transform="scale(0.015625)"/>
     <path id="MicrosoftYaHei-Bold-34" d="M 3184 4841 
L 3184 1766 
L 3869 1766 
L 3869 1031 
L 3184 1031 
L 3184 0 
L 2266 0 
L 2266 1031 
L 103 1031 
L 103 1772 
Q 775 2522 1362 3359 
Q 1950 4197 2250 4841 
L 3184 4841 
z
M 997 1766 
L 2266 1766 
L 2266 3541 
Q 2116 3259 1836 2859 
Q 1556 2459 997 1766 
z
" transform="scale(0.015625)"/>
    </defs>
    <use xlink:href="#MicrosoftYaHei-Bold-28"/>
    <use xlink:href="#MicrosoftYaHei-Bold-73af" transform="translate(38.964844 0)"/>
    <use xlink:href="#MicrosoftYaHei-Bold-5883" transform="translate(138.964844 0)"/>
    <use xlink:href="#MicrosoftYaHei-Bold-3a" transform="translate(238.964844 0)"/>
    <use xlink:href="#MicrosoftYaHei-Bold-20" transform="translate(267.529297 0)"/>
    <use xlink:href="#MicrosoftYaHei-Bold-6b63" transform="translate(297.314453 0)"/>
    <use xlink:href="#MicrosoftYaHei-Bold-6001" transform="translate(397.314453 0)"/>
    <use xlink:href="#MicrosoftYaHei-Bold-2d" transform="translate(497.314453 0)"/>
    <use xlink:href="#MicrosoftYaHei-Bold-5c0f" transform="translate(540.966797 0)"/>
    <use xlink:href="#MicrosoftYaHei-Bold-5e45" transform="translate(640.966797 0)"/>
    <use xlink:href="#MicrosoftYaHei-Bold-5747" transform="translate(740.966797 0)"/>
    <use xlink:href="#MicrosoftYaHei-Bold-503c" transform="translate(840.966797 0)"/>
    <use xlink:href="#MicrosoftYaHei-Bold-6539" transform="translate(940.966797 0)"/>
    <use xlink:href="#MicrosoftYaHei-Bold-53d8" transform="translate(1040.966797 0)"/>
    <use xlink:href="#MicrosoftYaHei-Bold-28" transform="translate(1140.966797 0)"/>
    <use xlink:href="#MicrosoftYaHei-Bold-3bc" transform="translate(1179.931641 0)"/>
    <use xlink:href="#MicrosoftYaHei-Bold-31" transform="translate(1247.021484 0)"/>
    <use xlink:href="#MicrosoftYaHei-Bold-31" transform="translate(1308.691406 0)"/>
    <use xlink:href="#MicrosoftYaHei-Bold-2c" transform="translate(1370.361328 0)"/>
    <use xlink:href="#MicrosoftYaHei-Bold-3c3" transform="translate(1398.925781 0)"/>
    <use xlink:href="#MicrosoftYaHei-Bold-32" transform="translate(1464.648438 0)"/>
    <use xlink:href="#MicrosoftYaHei-Bold-20" transform="translate(1526.318359 0)"/>
    <use xlink:href="#MicrosoftYaHei-Bold-7c" transform="translate(1556.103516 0)"/>
    <use xlink:href="#MicrosoftYaHei-Bold-20" transform="translate(1590.234375 0)"/>
    <use xlink:href="#MicrosoftYaHei-Bold-590d" transform="translate(1620.019531 0)"/>
    <use xlink:href="#MicrosoftYaHei-Bold-6742" transform="translate(1720.019531 0)"/>
    <use xlink:href="#MicrosoftYaHei-Bold-5ea6" transform="translate(1820.019531 0)"/>
    <use xlink:href="#MicrosoftYaHei-Bold-3a" transform="translate(1920.019531 0)"/>
    <use xlink:href="#MicrosoftYaHei-Bold-20" transform="translate(1948.583984 0)"/>
    <use xlink:href="#MicrosoftYaHei-Bold-30" transform="translate(1978.369141 0)"/>
    <use xlink:href="#MicrosoftYaHei-Bold-2e" transform="translate(2040.039062 0)"/>
    <use xlink:href="#MicrosoftYaHei-Bold-34" transform="translate(2068.603516 0)"/>
    <use xlink:href="#MicrosoftYaHei-Bold-34" transform="translate(2130.273438 0)"/>
    <use xlink:href="#MicrosoftYaHei-Bold-29" transform="translate(2191.943359 0)"/>
   </g>
  </g>
 </g>
 <defs>
  <clipPath id="p08838dd7ec">
   <rect x="39.801563" y="82.790625" width="809.5" height="376.635625"/>
  </clipPath>
 </defs>
</svg>
