<?xml version="1.0" encoding="utf-8" standalone="no"?>
<!DOCTYPE svg PUBLIC "-//W3C//DTD SVG 1.1//EN"
  "http://www.w3.org/Graphics/SVG/1.1/DTD/svg11.dtd">
<svg xmlns:xlink="http://www.w3.org/1999/xlink" width="856.515625pt" height="709.025pt" viewBox="0 0 856.515625 709.025" xmlns="http://www.w3.org/2000/svg" version="1.1">
 <metadata>
  <rdf:RDF xmlns:dc="http://purl.org/dc/elements/1.1/" xmlns:cc="http://creativecommons.org/ns#" xmlns:rdf="http://www.w3.org/1999/02/22-rdf-syntax-ns#">
   <cc:Work>
    <dc:type rdf:resource="http://purl.org/dc/dcmitype/StillImage"/>
    <dc:date>2025-07-07T17:59:14.533774</dc:date>
    <dc:format>image/svg+xml</dc:format>
    <dc:creator>
     <cc:Agent>
      <dc:title>Matplotlib v3.10.3, https://matplotlib.org/</dc:title>
     </cc:Agent>
    </dc:creator>
   </cc:Work>
  </rdf:RDF>
 </metadata>
 <defs>
  <style type="text/css">*{stroke-linejoin: round; stroke-linecap: butt}</style>
 </defs>
 <g id="figure_1">
  <g id="patch_1">
   <path d="M 0 709.025 
L 856.515625 709.025 
L 856.515625 0 
L 0 0 
z
" style="fill: #ffffff"/>
  </g>
  <g id="axes_1">
   <g id="patch_2">
    <path d="M 48.140625 374.700312 
L 849.315625 374.700312 
L 849.315625 92.600625 
L 48.140625 92.600625 
z
" style="fill: #ffffff"/>
   </g>
   <g id="matplotlib.axis_1">
    <g id="xtick_1">
     <g id="line2d_1">
      <path d="M 65.882263 374.700312 
L 65.882263 92.600625 
" clip-path="url(#pb3ab531558)" style="fill: none; stroke-dasharray: 2.96,1.28; stroke-dashoffset: 0; stroke: #cccccc; stroke-opacity: 0.6; stroke-width: 0.8"/>
     </g>
    </g>
    <g id="xtick_2">
     <g id="line2d_2">
      <path d="M 190.384982 374.700312 
L 190.384982 92.600625 
" clip-path="url(#pb3ab531558)" style="fill: none; stroke-dasharray: 2.96,1.28; stroke-dashoffset: 0; stroke: #cccccc; stroke-opacity: 0.6; stroke-width: 0.8"/>
     </g>
    </g>
    <g id="xtick_3">
     <g id="line2d_3">
      <path d="M 314.887702 374.700312 
L 314.887702 92.600625 
" clip-path="url(#pb3ab531558)" style="fill: none; stroke-dasharray: 2.96,1.28; stroke-dashoffset: 0; stroke: #cccccc; stroke-opacity: 0.6; stroke-width: 0.8"/>
     </g>
    </g>
    <g id="xtick_4">
     <g id="line2d_4">
      <path d="M 439.390421 374.700312 
L 439.390421 92.600625 
" clip-path="url(#pb3ab531558)" style="fill: none; stroke-dasharray: 2.96,1.28; stroke-dashoffset: 0; stroke: #cccccc; stroke-opacity: 0.6; stroke-width: 0.8"/>
     </g>
    </g>
    <g id="xtick_5">
     <g id="line2d_5">
      <path d="M 563.893141 374.700312 
L 563.893141 92.600625 
" clip-path="url(#pb3ab531558)" style="fill: none; stroke-dasharray: 2.96,1.28; stroke-dashoffset: 0; stroke: #cccccc; stroke-opacity: 0.6; stroke-width: 0.8"/>
     </g>
    </g>
    <g id="xtick_6">
     <g id="line2d_6">
      <path d="M 688.39586 374.700312 
L 688.39586 92.600625 
" clip-path="url(#pb3ab531558)" style="fill: none; stroke-dasharray: 2.96,1.28; stroke-dashoffset: 0; stroke: #cccccc; stroke-opacity: 0.6; stroke-width: 0.8"/>
     </g>
    </g>
    <g id="xtick_7">
     <g id="line2d_7">
      <path d="M 812.89858 374.700312 
L 812.89858 92.600625 
" clip-path="url(#pb3ab531558)" style="fill: none; stroke-dasharray: 2.96,1.28; stroke-dashoffset: 0; stroke: #cccccc; stroke-opacity: 0.6; stroke-width: 0.8"/>
     </g>
    </g>
   </g>
   <g id="matplotlib.axis_2">
    <g id="ytick_1">
     <g id="line2d_8">
      <path d="M 48.140625 355.893667 
L 849.315625 355.893667 
" clip-path="url(#pb3ab531558)" style="fill: none; stroke-dasharray: 2.96,1.28; stroke-dashoffset: 0; stroke: #cccccc; stroke-opacity: 0.6; stroke-width: 0.8"/>
     </g>
     <g id="text_1">
      <!-- -0.2 -->
      <g style="fill: #262626" transform="translate(23.910937 359.472573) scale(0.1 -0.1)">
       <defs>
        <path id="ArialMT-2d" d="M 203 1375 
L 203 1941 
L 1931 1941 
L 1931 1375 
L 203 1375 
z
" transform="scale(0.015625)"/>
        <path id="ArialMT-30" d="M 266 2259 
Q 266 3072 433 3567 
Q 600 4063 929 4331 
Q 1259 4600 1759 4600 
Q 2128 4600 2406 4451 
Q 2684 4303 2865 4023 
Q 3047 3744 3150 3342 
Q 3253 2941 3253 2259 
Q 3253 1453 3087 958 
Q 2922 463 2592 192 
Q 2263 -78 1759 -78 
Q 1097 -78 719 397 
Q 266 969 266 2259 
z
M 844 2259 
Q 844 1131 1108 757 
Q 1372 384 1759 384 
Q 2147 384 2411 759 
Q 2675 1134 2675 2259 
Q 2675 3391 2411 3762 
Q 2147 4134 1753 4134 
Q 1366 4134 1134 3806 
Q 844 3388 844 2259 
z
" transform="scale(0.015625)"/>
        <path id="ArialMT-2e" d="M 581 0 
L 581 641 
L 1222 641 
L 1222 0 
L 581 0 
z
" transform="scale(0.015625)"/>
        <path id="ArialMT-32" d="M 3222 541 
L 3222 0 
L 194 0 
Q 188 203 259 391 
Q 375 700 629 1000 
Q 884 1300 1366 1694 
Q 2113 2306 2375 2664 
Q 2638 3022 2638 3341 
Q 2638 3675 2398 3904 
Q 2159 4134 1775 4134 
Q 1369 4134 1125 3890 
Q 881 3647 878 3216 
L 300 3275 
Q 359 3922 746 4261 
Q 1134 4600 1788 4600 
Q 2447 4600 2831 4234 
Q 3216 3869 3216 3328 
Q 3216 3053 3103 2787 
Q 2991 2522 2730 2228 
Q 2469 1934 1863 1422 
Q 1356 997 1212 845 
Q 1069 694 975 541 
L 3222 541 
z
" transform="scale(0.015625)"/>
       </defs>
       <use xlink:href="#ArialMT-2d"/>
       <use xlink:href="#ArialMT-30" transform="translate(33.300781 0)"/>
       <use xlink:href="#ArialMT-2e" transform="translate(88.916016 0)"/>
       <use xlink:href="#ArialMT-32" transform="translate(116.699219 0)"/>
      </g>
     </g>
    </g>
    <g id="ytick_2">
     <g id="line2d_9">
      <path d="M 48.140625 318.280375 
L 849.315625 318.280375 
" clip-path="url(#pb3ab531558)" style="fill: none; stroke-dasharray: 2.96,1.28; stroke-dashoffset: 0; stroke: #cccccc; stroke-opacity: 0.6; stroke-width: 0.8"/>
     </g>
     <g id="text_2">
      <!-- -0.1 -->
      <g style="fill: #262626" transform="translate(23.910937 321.859281) scale(0.1 -0.1)">
       <defs>
        <path id="ArialMT-31" d="M 2384 0 
L 1822 0 
L 1822 3584 
Q 1619 3391 1289 3197 
Q 959 3003 697 2906 
L 697 3450 
Q 1169 3672 1522 3987 
Q 1875 4303 2022 4600 
L 2384 4600 
L 2384 0 
z
" transform="scale(0.015625)"/>
       </defs>
       <use xlink:href="#ArialMT-2d"/>
       <use xlink:href="#ArialMT-30" transform="translate(33.300781 0)"/>
       <use xlink:href="#ArialMT-2e" transform="translate(88.916016 0)"/>
       <use xlink:href="#ArialMT-31" transform="translate(116.699219 0)"/>
      </g>
     </g>
    </g>
    <g id="ytick_3">
     <g id="line2d_10">
      <path d="M 48.140625 280.667083 
L 849.315625 280.667083 
" clip-path="url(#pb3ab531558)" style="fill: none; stroke-dasharray: 2.96,1.28; stroke-dashoffset: 0; stroke: #cccccc; stroke-opacity: 0.6; stroke-width: 0.8"/>
     </g>
     <g id="text_3">
      <!-- 0.0 -->
      <g style="fill: #262626" transform="translate(27.240625 284.24599) scale(0.1 -0.1)">
       <use xlink:href="#ArialMT-30"/>
       <use xlink:href="#ArialMT-2e" transform="translate(55.615234 0)"/>
       <use xlink:href="#ArialMT-30" transform="translate(83.398438 0)"/>
      </g>
     </g>
    </g>
    <g id="ytick_4">
     <g id="line2d_11">
      <path d="M 48.140625 243.053792 
L 849.315625 243.053792 
" clip-path="url(#pb3ab531558)" style="fill: none; stroke-dasharray: 2.96,1.28; stroke-dashoffset: 0; stroke: #cccccc; stroke-opacity: 0.6; stroke-width: 0.8"/>
     </g>
     <g id="text_4">
      <!-- 0.1 -->
      <g style="fill: #262626" transform="translate(27.240625 246.632698) scale(0.1 -0.1)">
       <use xlink:href="#ArialMT-30"/>
       <use xlink:href="#ArialMT-2e" transform="translate(55.615234 0)"/>
       <use xlink:href="#ArialMT-31" transform="translate(83.398438 0)"/>
      </g>
     </g>
    </g>
    <g id="ytick_5">
     <g id="line2d_12">
      <path d="M 48.140625 205.4405 
L 849.315625 205.4405 
" clip-path="url(#pb3ab531558)" style="fill: none; stroke-dasharray: 2.96,1.28; stroke-dashoffset: 0; stroke: #cccccc; stroke-opacity: 0.6; stroke-width: 0.8"/>
     </g>
     <g id="text_5">
      <!-- 0.2 -->
      <g style="fill: #262626" transform="translate(27.240625 209.019406) scale(0.1 -0.1)">
       <use xlink:href="#ArialMT-30"/>
       <use xlink:href="#ArialMT-2e" transform="translate(55.615234 0)"/>
       <use xlink:href="#ArialMT-32" transform="translate(83.398438 0)"/>
      </g>
     </g>
    </g>
    <g id="ytick_6">
     <g id="line2d_13">
      <path d="M 48.140625 167.827208 
L 849.315625 167.827208 
" clip-path="url(#pb3ab531558)" style="fill: none; stroke-dasharray: 2.96,1.28; stroke-dashoffset: 0; stroke: #cccccc; stroke-opacity: 0.6; stroke-width: 0.8"/>
     </g>
     <g id="text_6">
      <!-- 0.3 -->
      <g style="fill: #262626" transform="translate(27.240625 171.406115) scale(0.1 -0.1)">
       <defs>
        <path id="ArialMT-33" d="M 269 1209 
L 831 1284 
Q 928 806 1161 595 
Q 1394 384 1728 384 
Q 2125 384 2398 659 
Q 2672 934 2672 1341 
Q 2672 1728 2419 1979 
Q 2166 2231 1775 2231 
Q 1616 2231 1378 2169 
L 1441 2663 
Q 1497 2656 1531 2656 
Q 1891 2656 2178 2843 
Q 2466 3031 2466 3422 
Q 2466 3731 2256 3934 
Q 2047 4138 1716 4138 
Q 1388 4138 1169 3931 
Q 950 3725 888 3313 
L 325 3413 
Q 428 3978 793 4289 
Q 1159 4600 1703 4600 
Q 2078 4600 2393 4439 
Q 2709 4278 2876 4000 
Q 3044 3722 3044 3409 
Q 3044 3113 2884 2869 
Q 2725 2625 2413 2481 
Q 2819 2388 3044 2092 
Q 3269 1797 3269 1353 
Q 3269 753 2831 336 
Q 2394 -81 1725 -81 
Q 1122 -81 723 278 
Q 325 638 269 1209 
z
" transform="scale(0.015625)"/>
       </defs>
       <use xlink:href="#ArialMT-30"/>
       <use xlink:href="#ArialMT-2e" transform="translate(55.615234 0)"/>
       <use xlink:href="#ArialMT-33" transform="translate(83.398438 0)"/>
      </g>
     </g>
    </g>
    <g id="ytick_7">
     <g id="line2d_14">
      <path d="M 48.140625 130.213917 
L 849.315625 130.213917 
" clip-path="url(#pb3ab531558)" style="fill: none; stroke-dasharray: 2.96,1.28; stroke-dashoffset: 0; stroke: #cccccc; stroke-opacity: 0.6; stroke-width: 0.8"/>
     </g>
     <g id="text_7">
      <!-- 0.4 -->
      <g style="fill: #262626" transform="translate(27.240625 133.792823) scale(0.1 -0.1)">
       <defs>
        <path id="ArialMT-34" d="M 2069 0 
L 2069 1097 
L 81 1097 
L 81 1613 
L 2172 4581 
L 2631 4581 
L 2631 1613 
L 3250 1613 
L 3250 1097 
L 2631 1097 
L 2631 0 
L 2069 0 
z
M 2069 1613 
L 2069 3678 
L 634 1613 
L 2069 1613 
z
" transform="scale(0.015625)"/>
       </defs>
       <use xlink:href="#ArialMT-30"/>
       <use xlink:href="#ArialMT-2e" transform="translate(55.615234 0)"/>
       <use xlink:href="#ArialMT-34" transform="translate(83.398438 0)"/>
      </g>
     </g>
    </g>
    <g id="ytick_8">
     <g id="line2d_15">
      <path d="M 48.140625 92.600625 
L 849.315625 92.600625 
" clip-path="url(#pb3ab531558)" style="fill: none; stroke-dasharray: 2.96,1.28; stroke-dashoffset: 0; stroke: #cccccc; stroke-opacity: 0.6; stroke-width: 0.8"/>
     </g>
     <g id="text_8">
      <!-- 0.5 -->
      <g style="fill: #262626" transform="translate(27.240625 96.179531) scale(0.1 -0.1)">
       <defs>
        <path id="ArialMT-35" d="M 266 1200 
L 856 1250 
Q 922 819 1161 601 
Q 1400 384 1738 384 
Q 2144 384 2425 690 
Q 2706 997 2706 1503 
Q 2706 1984 2436 2262 
Q 2166 2541 1728 2541 
Q 1456 2541 1237 2417 
Q 1019 2294 894 2097 
L 366 2166 
L 809 4519 
L 3088 4519 
L 3088 3981 
L 1259 3981 
L 1013 2750 
Q 1425 3038 1878 3038 
Q 2478 3038 2890 2622 
Q 3303 2206 3303 1553 
Q 3303 931 2941 478 
Q 2500 -78 1738 -78 
Q 1113 -78 717 272 
Q 322 622 266 1200 
z
" transform="scale(0.015625)"/>
       </defs>
       <use xlink:href="#ArialMT-30"/>
       <use xlink:href="#ArialMT-2e" transform="translate(55.615234 0)"/>
       <use xlink:href="#ArialMT-35" transform="translate(83.398438 0)"/>
      </g>
     </g>
    </g>
    <g id="text_9">
     <!-- 线性回归斜率 -->
     <g style="fill: #262626" transform="translate(17.425 263.650469) rotate(-90) scale(0.1 -0.1)">
      <defs>
       <path id="MicrosoftYaHei-7ebf" d="M 1969 -347 
Q 3144 75 4003 631 
Q 3781 1197 3653 1972 
L 2319 1784 
L 2244 2234 
L 3591 2422 
Q 3538 2859 3513 3356 
L 2381 3228 
L 2306 3678 
L 3488 3809 
Q 3453 4459 3425 5303 
L 3938 5303 
Q 3953 4497 3978 3866 
L 6069 4103 
L 6125 3659 
L 3997 3413 
Q 4019 2919 4069 2488 
L 6225 2791 
L 6281 2347 
L 4128 2041 
Q 4234 1394 4416 916 
Q 5078 1416 5519 2009 
L 5925 1703 
Q 5363 1025 4619 475 
Q 4859 44 5194 -184 
Q 5606 -428 5725 66 
Q 5806 466 5856 953 
Q 6144 828 6338 772 
Q 6231 97 6125 -247 
Q 5944 -778 5506 -778 
Q 5050 -778 4663 -403 
Q 4409 -163 4209 194 
Q 3350 -363 2281 -772 
Q 2169 -597 1969 -347 
z
M 900 1541 
Q 1456 1622 2213 1753 
Q 2175 1522 2156 1272 
Q 1113 1109 325 978 
L 225 1447 
Q 659 1913 1178 2775 
Q 672 2747 225 2703 
L 106 3128 
Q 688 3922 1300 5353 
L 1775 5166 
Q 1131 3897 669 3166 
Q 1041 3178 1422 3194 
Q 1638 3578 1869 4028 
L 2331 3797 
Q 1569 2478 900 1541 
z
M 106 97 
Q 1206 334 2331 616 
Q 2313 366 2313 141 
Q 1269 -103 244 -378 
L 106 97 
z
M 4463 4972 
L 4731 5284 
Q 5175 5003 5681 4609 
L 5381 4247 
Q 4863 4691 4463 4972 
z
" transform="scale(0.015625)"/>
       <path id="MicrosoftYaHei-6027" d="M 1963 -153 
L 3988 -153 
L 3988 1522 
L 2375 1522 
L 2375 1959 
L 3988 1959 
L 3988 3472 
L 2975 3472 
Q 2744 2878 2438 2291 
Q 2169 2509 2019 2578 
Q 2644 3709 2894 4891 
L 3388 4759 
Q 3281 4328 3138 3909 
L 3988 3909 
L 3988 5284 
L 4481 5284 
L 4481 3909 
L 6125 3909 
L 6125 3472 
L 4481 3472 
L 4481 1959 
L 6000 1959 
L 6000 1522 
L 4481 1522 
L 4481 -153 
L 6319 -153 
L 6319 -591 
L 1963 -591 
L 1963 -153 
z
M 988 5291 
L 1469 5291 
L 1469 4091 
L 1738 4241 
Q 2063 3734 2294 3291 
L 1906 3041 
Q 1688 3503 1469 3859 
L 1469 -872 
L 988 -872 
L 988 5291 
z
M 406 3878 
L 819 3784 
Q 706 3028 506 2178 
Q 338 2241 75 2297 
Q 263 2978 406 3878 
z
" transform="scale(0.015625)"/>
       <path id="MicrosoftYaHei-56de" d="M 475 4947 
L 5938 4947 
L 5938 -778 
L 5413 -778 
L 5413 -378 
L 1000 -378 
L 1000 -778 
L 475 -778 
L 475 4947 
z
M 5413 4484 
L 1000 4484 
L 1000 72 
L 5413 72 
L 5413 4484 
z
M 1875 3528 
L 4531 3528 
L 4531 797 
L 4044 797 
L 4044 1147 
L 2363 1147 
L 2363 797 
L 1875 797 
L 1875 3528 
z
M 4044 3091 
L 2363 3091 
L 2363 1584 
L 4044 1584 
L 4044 3091 
z
" transform="scale(0.015625)"/>
       <path id="MicrosoftYaHei-5f52" d="M 2450 272 
L 5419 272 
L 5419 2222 
L 2800 2222 
L 2800 2659 
L 5419 2659 
L 5419 4347 
L 2650 4347 
L 2650 4797 
L 5906 4797 
L 5906 -591 
L 5419 -591 
L 5419 -166 
L 2450 -166 
L 2450 272 
z
M 1800 5284 
L 2294 5284 
L 2294 2741 
Q 2300 103 1219 -866 
Q 1069 -672 844 -447 
Q 1800 453 1800 2541 
L 1800 5284 
z
M 513 4672 
L 1000 4672 
L 1000 641 
L 513 641 
L 513 4672 
z
" transform="scale(0.015625)"/>
       <path id="MicrosoftYaHei-659c" d="M 188 2197 
L 1550 2197 
L 1550 2959 
L 725 2959 
L 725 3259 
Q 531 3066 338 2897 
Q 263 3072 63 3372 
Q 906 3991 1594 5222 
L 2138 5222 
L 2081 5122 
Q 2713 4491 3319 3847 
L 3013 3459 
Q 2450 4109 1831 4722 
Q 1369 3953 844 3391 
L 2838 3391 
L 2838 2959 
L 2006 2959 
L 2006 2197 
L 3100 2197 
L 3100 1766 
L 2006 1766 
L 2006 -84 
Q 2006 -759 1394 -759 
Q 1194 -759 731 -741 
Q 694 -447 650 -222 
Q 975 -278 1244 -278 
Q 1550 -278 1550 28 
L 1550 1766 
L 188 1766 
L 188 2197 
z
M 2994 1366 
L 5031 1616 
L 5031 5284 
L 5506 5284 
L 5506 1672 
L 6281 1772 
L 6319 1322 
L 5506 1216 
L 5506 -828 
L 5031 -828 
L 5031 1159 
L 3081 916 
L 2994 1366 
z
M 63 9 
Q 513 634 781 1441 
L 1231 1297 
Q 881 347 456 -234 
Q 306 -116 63 9 
z
M 3375 4441 
L 3681 4728 
Q 4200 4272 4688 3766 
L 4344 3416 
Q 3881 3947 3375 4441 
z
M 2256 1197 
L 2631 1416 
Q 3013 847 3344 266 
L 2931 -3 
Q 2650 541 2256 1197 
z
M 3213 2947 
L 3506 3234 
Q 4044 2778 4519 2272 
L 4181 1941 
Q 3713 2459 3213 2947 
z
" transform="scale(0.015625)"/>
       <path id="MicrosoftYaHei-7387" d="M 2525 2009 
Q 2622 2016 3928 2081 
Q 3772 2300 3625 2491 
L 3963 2703 
Q 4413 2203 4794 1653 
L 4394 1403 
Q 4284 1569 4178 1725 
Q 2991 1659 2213 1597 
Q 2075 1584 1881 1541 
L 1725 1966 
Q 1913 2028 2006 2084 
Q 2534 2441 3050 2913 
Q 2597 2894 2275 2866 
Q 2144 2847 1988 2809 
L 1800 3191 
Q 1956 3247 2088 3366 
Q 2509 3722 2875 4228 
L 231 4228 
L 231 4666 
L 3031 4666 
Q 2878 4944 2744 5153 
L 3194 5372 
Q 3438 5000 3616 4666 
L 6175 4666 
L 6175 4228 
L 3053 4228 
L 3350 4072 
Q 2844 3553 2494 3247 
Q 2850 3256 3425 3269 
Q 3675 3519 3925 3797 
L 4356 3547 
Q 3363 2603 2525 2009 
z
M 144 991 
L 2994 991 
L 2994 1541 
L 3488 1541 
L 3488 991 
L 6275 991 
L 6275 553 
L 3488 553 
L 3488 -853 
L 2994 -853 
L 2994 553 
L 144 553 
L 144 991 
z
M 1719 2672 
L 1944 2303 
Q 1200 1866 425 1409 
L 163 1828 
Q 813 2134 1719 2672 
z
M 4856 2678 
Q 5750 2172 6250 1816 
L 5975 1409 
Q 5331 1909 4600 2341 
L 4856 2678 
z
M 5994 3591 
Q 5519 3178 4963 2809 
L 4644 3141 
Q 5244 3534 5638 3928 
L 5994 3591 
z
M 363 3634 
L 681 3941 
Q 1200 3528 1588 3159 
L 1238 2816 
Q 875 3197 363 3634 
z
" transform="scale(0.015625)"/>
      </defs>
      <use xlink:href="#MicrosoftYaHei-7ebf"/>
      <use xlink:href="#MicrosoftYaHei-6027" transform="translate(100 0)"/>
      <use xlink:href="#MicrosoftYaHei-56de" transform="translate(200 0)"/>
      <use xlink:href="#MicrosoftYaHei-5f52" transform="translate(300 0)"/>
      <use xlink:href="#MicrosoftYaHei-659c" transform="translate(400 0)"/>
      <use xlink:href="#MicrosoftYaHei-7387" transform="translate(500 0)"/>
     </g>
    </g>
   </g>
   <g id="line2d_16">
    <path d="M 84.55767 314.724057 
L 90.782806 231.054357 
L 97.007942 249.555578 
L 103.233078 363.324279 
L 109.458214 293.369414 
L 115.68335 241.179403 
L 121.908486 261.153358 
L 128.133622 287.938707 
L 134.358758 312.88314 
L 140.583894 251.028312 
L 146.80903 223.506595 
L 153.034166 325.769562 
L 159.259302 272.751138 
L 165.484438 272.567046 
L 171.709574 272.93523 
L 177.93471 244.032825 
L 184.159846 270.357945 
L 190.384982 308.649029 
L 196.610118 339.392352 
L 202.835254 250.107853 
L 209.06039 240.074852 
L 215.285526 286.189836 
L 221.510662 216.971338 
L 227.735798 299.904671 
L 233.960934 320.430901 
L 240.18607 256.366972 
L 246.411206 246.61011 
L 252.636342 268.977257 
L 258.861478 324.757057 
L 265.086614 307.452433 
L 271.31175 277.905707 
L 277.536886 264.282918 
L 283.762022 265.57156 
L 289.987158 332.304819 
L 296.212294 286.926203 
L 302.43743 188.529162 
L 308.662566 308.1888 
L 314.887702 341.049177 
L 321.112838 287.018249 
L 327.337973 310.305855 
L 333.563109 259.496532 
L 339.788245 236.761201 
L 346.013381 283.520505 
L 352.238517 243.296458 
L 358.463653 233.171412 
L 364.688789 337.275296 
L 370.913925 343.534416 
L 377.139061 240.903265 
L 383.364197 255.814697 
L 389.589333 286.373928 
L 395.814469 320.154764 
L 402.039605 319.418397 
L 408.264741 261.521541 
L 414.489877 267.13634 
L 420.715013 270.265899 
L 426.940149 241.455541 
L 433.165285 301.561497 
L 439.390421 279.654579 
L 445.615557 247.254431 
L 451.840693 287.018249 
L 458.065829 297.971708 
L 464.290965 251.672633 
L 470.516101 313.435415 
L 476.741237 297.419433 
L 482.966373 223.138411 
L 489.191509 334.97415 
L 495.416645 282.231863 
L 501.641781 257.839706 
L 507.866917 315.276332 
L 514.092053 265.019285 
L 520.317189 270.818175 
L 526.542325 282.047771 
L 532.767461 253.421504 
L 538.992597 296.498974 
L 545.217733 278.826166 
L 551.442869 283.42846 
L 557.668005 324.665012 
L 563.893141 250.660128 
L 570.118277 289.871671 
L 576.343412 296.038744 
L 582.568548 238.970302 
L 588.793684 283.42846 
L 595.01882 296.314882 
L 601.243956 275.880698 
L 607.469092 292.356909 
L 613.694228 292.817139 
L 619.919364 262.534046 
L 626.1445 270.818175 
L 632.369636 256.735156 
L 638.594772 270.357945 
L 644.819908 303.770598 
L 651.045044 291.712588 
L 657.27018 314.539965 
L 663.495316 275.972744 
L 669.720452 269.80567 
L 675.945588 326.874113 
L 682.170724 264.651101 
L 688.39586 283.704597 
L 694.620996 315.736562 
L 700.846132 288.306891 
L 707.071268 279.83867 
L 713.296404 240.258944 
L 719.52154 286.558019 
L 725.746676 304.599011 
L 731.971812 232.527091 
L 738.196948 271.462496 
L 744.422084 268.148844 
L 750.64722 301.653543 
L 756.872356 315.55247 
L 763.097492 244.953284 
L 769.322628 291.620542 
L 775.547764 305.05924 
L 781.7729 285.637561 
L 787.998036 284.993239 
L 794.223172 283.888689 
L 800.448308 282.600047 
L 806.673444 289.319396 
L 812.89858 310.85813 
" clip-path="url(#pb3ab531558)" style="fill: none; stroke: #2ca02c; stroke-width: 1.5; stroke-linecap: round"/>
   </g>
   <g id="line2d_17">
    <path d="M 48.140625 280.667083 
L 849.315625 280.667083 
" clip-path="url(#pb3ab531558)" style="fill: none; stroke-dasharray: 3.7,1.6; stroke-dashoffset: 0; stroke: #808080"/>
   </g>
   <g id="patch_3">
    <path d="M 48.140625 374.700312 
L 48.140625 92.600625 
" style="fill: none; stroke: #cccccc; stroke-width: 0.8; stroke-linejoin: miter; stroke-linecap: square"/>
   </g>
   <g id="patch_4">
    <path d="M 849.315625 374.700312 
L 849.315625 92.600625 
" style="fill: none; stroke: #cccccc; stroke-width: 0.8; stroke-linejoin: miter; stroke-linecap: square"/>
   </g>
   <g id="patch_5">
    <path d="M 48.140625 374.700312 
L 849.315625 374.700312 
" style="fill: none; stroke: #cccccc; stroke-width: 0.8; stroke-linejoin: miter; stroke-linecap: square"/>
   </g>
   <g id="patch_6">
    <path d="M 48.140625 92.600625 
L 849.315625 92.600625 
" style="fill: none; stroke: #cccccc; stroke-width: 0.8; stroke-linejoin: miter; stroke-linecap: square"/>
   </g>
   <g id="legend_1">
    <g id="patch_7">
     <path d="M 720.675 116.080312 
L 842.315625 116.080312 
Q 844.315625 116.080312 844.315625 114.080312 
L 844.315625 99.600625 
Q 844.315625 97.600625 842.315625 97.600625 
L 720.675 97.600625 
Q 718.675 97.600625 718.675 99.600625 
L 718.675 114.080312 
Q 718.675 116.080312 720.675 116.080312 
z
" style="fill: #ffffff; opacity: 0.8; stroke: #cccccc; stroke-linejoin: miter"/>
    </g>
    <g id="line2d_18">
     <path d="M 722.675 106.094375 
L 732.675 106.094375 
L 742.675 106.094375 
" style="fill: none; stroke: #2ca02c; stroke-width: 1.5; stroke-linecap: round"/>
    </g>
    <g id="text_10">
     <!-- 奖励变化趋势 (斜率) -->
     <g style="fill: #262626" transform="translate(750.675 109.594375) scale(0.1 -0.1)">
      <defs>
       <path id="MicrosoftYaHei-5956" d="M 6306 -284 
Q 6119 -528 5944 -803 
Q 4031 -491 3197 859 
Q 2550 -472 406 -878 
Q 281 -666 100 -403 
Q 2175 -84 2709 972 
L 225 972 
L 225 1403 
L 2900 1403 
Q 2969 1600 3019 1822 
L 3531 1822 
Q 3484 1603 3422 1403 
L 6200 1403 
L 6200 972 
L 3647 972 
Q 4472 -169 6306 -284 
z
M 2388 3553 
Q 3181 4228 3588 5334 
L 4056 5241 
Q 3941 4938 3803 4666 
L 5988 4666 
L 5988 4278 
Q 5181 2359 2788 1853 
Q 2706 2072 2531 2316 
Q 3434 2463 4094 2831 
Q 3688 3222 3288 3516 
L 3588 3822 
Q 4056 3481 4491 3084 
Q 5116 3550 5463 4266 
L 3588 4266 
Q 3228 3666 2763 3234 
Q 2588 3428 2388 3553 
z
M 1744 5291 
L 2231 5291 
L 2231 1728 
L 1744 1728 
L 1744 2925 
Q 1231 2694 256 2253 
L 94 2747 
Q 991 3088 1744 3425 
L 1744 5291 
z
M 281 4584 
L 588 4891 
Q 1088 4503 1513 4072 
L 1169 3741 
Q 700 4253 281 4584 
z
" transform="scale(0.015625)"/>
       <path id="MicrosoftYaHei-52b1" d="M 3756 3997 
L 4303 3997 
Q 4316 4669 4319 5297 
L 4775 5297 
Q 4763 4559 4750 3997 
L 6031 3997 
Q 5963 1203 5925 278 
Q 5888 -678 5169 -678 
Q 4969 -678 4444 -666 
Q 4406 -378 4350 -134 
Q 4856 -178 5081 -178 
Q 5425 -178 5456 272 
Q 5513 1266 5563 3528 
L 4741 3528 
Q 4731 3028 4725 2716 
Q 4688 334 3600 -859 
Q 3469 -666 3281 -447 
Q 4238 634 4275 2634 
Q 4288 3091 4297 3528 
L 3756 3528 
L 3756 3997 
z
M 1225 3728 
L 3563 3728 
L 3563 3291 
L 2194 3291 
Q 2184 2784 2172 2372 
L 3375 2372 
Q 3319 766 3275 91 
Q 3206 -628 2581 -628 
Q 2406 -628 2050 -622 
Q 2013 -416 1956 -159 
Q 2306 -197 2475 -197 
Q 2819 -203 2850 216 
Q 2894 797 2931 1959 
L 2153 1959 
Q 2125 1378 2081 1034 
Q 1969 -3 1300 -828 
Q 1175 -659 981 -453 
Q 1531 209 1644 1097 
Q 1728 1641 1756 3291 
L 1225 3291 
L 1225 3728 
z
M 1044 4472 
L 1044 2166 
Q 1044 147 475 -809 
Q 306 -647 94 -478 
Q 588 341 588 2184 
L 588 4909 
L 3663 4909 
L 3663 4472 
L 1044 4472 
z
" transform="scale(0.015625)"/>
       <path id="MicrosoftYaHei-53d8" d="M 838 1634 
L 838 2066 
L 5088 2066 
L 5088 1634 
Q 4494 853 3659 309 
Q 4675 -178 6313 -297 
Q 6088 -609 5950 -822 
Q 4275 -594 3178 34 
Q 2122 -509 425 -866 
Q 269 -622 106 -403 
Q 1741 -122 2728 328 
Q 2047 838 1553 1634 
L 838 1634 
z
M 231 4534 
L 3081 4534 
Q 2888 4884 2725 5141 
L 3175 5359 
Q 3481 4884 3600 4659 
L 3359 4534 
L 6200 4534 
L 6200 4091 
L 4181 4091 
L 4181 2353 
L 3700 2353 
L 3700 4091 
L 2694 4091 
L 2694 2341 
L 2213 2341 
L 2213 4091 
L 231 4091 
L 231 4534 
z
M 4475 1634 
L 2116 1634 
Q 2575 953 3197 572 
Q 3947 1016 4475 1634 
z
M 4556 3434 
L 4900 3728 
Q 5700 3009 6213 2459 
L 5825 2116 
Q 5219 2797 4556 3434 
z
M 1381 3741 
L 1756 3422 
Q 1119 2691 500 2097 
Q 344 2272 138 2447 
Q 794 3009 1381 3741 
z
" transform="scale(0.015625)"/>
       <path id="MicrosoftYaHei-5316" d="M 1844 1453 
Q 2663 1834 3375 2331 
L 3375 5197 
L 3913 5197 
L 3913 2734 
Q 4869 3506 5613 4516 
L 6069 4184 
Q 5159 2975 3913 2069 
L 3913 303 
Q 3913 -122 4363 -122 
L 5156 -122 
Q 5581 -122 5650 284 
Q 5738 709 5763 1266 
Q 6025 1166 6313 1084 
Q 6263 559 6181 122 
Q 6063 -597 5281 -597 
L 4225 -597 
Q 3375 -597 3375 241 
L 3375 1703 
Q 2791 1328 2144 1016 
Q 2013 1222 1844 1453 
z
M 88 2222 
Q 1175 3666 1688 5291 
L 2231 5134 
Q 1934 4359 1588 3675 
L 1588 -797 
L 1063 -797 
L 1063 2734 
Q 716 2172 325 1678 
Q 219 1947 88 2222 
z
" transform="scale(0.015625)"/>
       <path id="MicrosoftYaHei-8d8b" d="M 81 -372 
Q 575 491 619 2241 
L 1081 2216 
Q 1063 1606 991 1084 
Q 1203 625 1556 334 
L 1556 2622 
L 144 2622 
L 144 3072 
L 1319 3072 
L 1319 3972 
L 300 3972 
L 300 4422 
L 1319 4422 
L 1319 5309 
L 1788 5309 
L 1788 4422 
L 2706 4422 
L 2706 3972 
L 1788 3972 
L 1788 3072 
L 2863 3072 
L 2863 2622 
L 2019 2622 
L 2019 1647 
L 2881 1647 
L 2881 1197 
L 2019 1197 
L 2019 50 
Q 2494 -156 3131 -166 
Q 4519 -184 6313 -141 
Q 6219 -353 6138 -634 
Q 4338 -647 2938 -616 
Q 1428 -578 884 475 
Q 713 -313 394 -853 
Q 263 -591 81 -372 
z
M 2931 928 
L 5350 928 
L 5350 1791 
L 3144 1791 
L 3144 2216 
L 5350 2216 
L 5350 3059 
L 3088 3059 
L 3088 3481 
Q 3006 3375 2925 3278 
Q 2800 3434 2606 3622 
Q 3231 4347 3663 5353 
L 4119 5197 
Q 4013 4981 3906 4778 
L 5525 4778 
L 5525 4347 
L 5025 3484 
L 5819 3484 
L 5819 278 
L 5350 278 
L 5350 503 
L 2931 503 
L 2931 928 
z
M 3088 3484 
L 4500 3484 
L 4994 4353 
L 3669 4353 
Q 3388 3875 3088 3484 
z
" transform="scale(0.015625)"/>
       <path id="MicrosoftYaHei-52bf" d="M 531 1472 
L 2522 1472 
Q 2544 1653 2544 1859 
L 3031 1859 
Q 3025 1656 3006 1472 
L 5550 1472 
Q 5506 709 5450 128 
Q 5375 -666 4475 -672 
Q 4019 -678 3269 -659 
Q 3231 -397 3163 -116 
Q 3906 -178 4463 -178 
Q 4925 -178 4969 222 
Q 5006 516 5038 1047 
L 2934 1047 
Q 2784 388 2400 28 
Q 1806 -541 469 -853 
Q 344 -647 169 -391 
Q 1519 -116 2031 372 
Q 2313 622 2438 1047 
L 531 1047 
L 531 1472 
z
M 2663 3347 
L 2881 3697 
Q 3144 3566 3388 3441 
Q 3472 3706 3500 4097 
L 2819 4097 
L 2819 4522 
L 3513 4522 
L 3513 5347 
L 3963 5347 
L 3963 4522 
L 5288 4522 
Q 5288 3303 5350 2853 
Q 5419 2347 5625 2347 
Q 5744 2347 5800 2641 
Q 5850 2928 5869 3322 
Q 6088 3228 6306 3153 
Q 6275 2772 6225 2509 
Q 6100 1816 5613 1816 
Q 5056 1816 4919 2584 
Q 4838 3066 4838 4097 
L 3950 4097 
Q 3922 3575 3806 3216 
Q 4247 2969 4606 2741 
L 4338 2322 
Q 4000 2559 3613 2797 
Q 3291 2284 2344 1772 
Q 2206 1978 2019 2172 
Q 2891 2600 3194 3047 
Q 2938 3197 2663 3347 
z
M 250 3184 
Q 616 3244 1313 3378 
L 1313 4041 
L 313 4041 
L 313 4466 
L 1313 4466 
L 1313 5353 
L 1763 5353 
L 1763 4466 
L 2513 4466 
L 2513 4041 
L 1763 4041 
L 1763 3469 
Q 2109 3538 2525 3622 
Q 2538 3284 2544 3178 
Q 2147 3100 1763 3022 
L 1763 2384 
Q 1763 1766 1163 1759 
Q 894 1753 500 1766 
Q 475 2016 425 2222 
Q 831 2191 1075 2191 
Q 1313 2191 1313 2441 
L 1313 2925 
Q 828 2819 363 2709 
L 250 3184 
z
" transform="scale(0.015625)"/>
       <path id="MicrosoftYaHei-20" transform="scale(0.015625)"/>
       <path id="MicrosoftYaHei-28" d="M 1531 -1100 
Q 478 100 478 1847 
Q 478 3594 1531 4841 
L 2072 4841 
Q 1016 3544 1016 1853 
Q 1016 166 2066 -1100 
L 1531 -1100 
z
" transform="scale(0.015625)"/>
       <path id="MicrosoftYaHei-29" d="M 78 -1100 
Q 1131 163 1131 1853 
Q 1131 3547 72 4841 
L 616 4841 
Q 1672 3603 1672 1847 
Q 1672 91 616 -1100 
L 78 -1100 
z
" transform="scale(0.015625)"/>
      </defs>
      <use xlink:href="#MicrosoftYaHei-5956"/>
      <use xlink:href="#MicrosoftYaHei-52b1" transform="translate(100 0)"/>
      <use xlink:href="#MicrosoftYaHei-53d8" transform="translate(200 0)"/>
      <use xlink:href="#MicrosoftYaHei-5316" transform="translate(300 0)"/>
      <use xlink:href="#MicrosoftYaHei-8d8b" transform="translate(400 0)"/>
      <use xlink:href="#MicrosoftYaHei-52bf" transform="translate(500 0)"/>
      <use xlink:href="#MicrosoftYaHei-20" transform="translate(600 0)"/>
      <use xlink:href="#MicrosoftYaHei-28" transform="translate(629.589844 0)"/>
      <use xlink:href="#MicrosoftYaHei-659c" transform="translate(662.988281 0)"/>
      <use xlink:href="#MicrosoftYaHei-7387" transform="translate(762.988281 0)"/>
      <use xlink:href="#MicrosoftYaHei-29" transform="translate(862.988281 0)"/>
     </g>
    </g>
   </g>
  </g>
  <g id="axes_2">
   <g id="patch_8">
    <path d="M 48.140625 671.2 
L 849.315625 671.2 
L 849.315625 389.100312 
L 48.140625 389.100312 
z
" style="fill: #ffffff"/>
   </g>
   <g id="matplotlib.axis_3">
    <g id="xtick_8">
     <g id="line2d_19">
      <path d="M 65.882263 671.2 
L 65.882263 389.100312 
" clip-path="url(#p2271384144)" style="fill: none; stroke-dasharray: 2.96,1.28; stroke-dashoffset: 0; stroke: #cccccc; stroke-opacity: 0.6; stroke-width: 0.8"/>
     </g>
     <g id="text_11">
      <!-- 0 -->
      <g style="fill: #262626" transform="translate(63.101794 685.357812) scale(0.1 -0.1)">
       <use xlink:href="#ArialMT-30"/>
      </g>
     </g>
    </g>
    <g id="xtick_9">
     <g id="line2d_20">
      <path d="M 190.384982 671.2 
L 190.384982 389.100312 
" clip-path="url(#p2271384144)" style="fill: none; stroke-dasharray: 2.96,1.28; stroke-dashoffset: 0; stroke: #cccccc; stroke-opacity: 0.6; stroke-width: 0.8"/>
     </g>
     <g id="text_12">
      <!-- 200 -->
      <g style="fill: #262626" transform="translate(182.043576 685.357812) scale(0.1 -0.1)">
       <use xlink:href="#ArialMT-32"/>
       <use xlink:href="#ArialMT-30" transform="translate(55.615234 0)"/>
       <use xlink:href="#ArialMT-30" transform="translate(111.230469 0)"/>
      </g>
     </g>
    </g>
    <g id="xtick_10">
     <g id="line2d_21">
      <path d="M 314.887702 671.2 
L 314.887702 389.100312 
" clip-path="url(#p2271384144)" style="fill: none; stroke-dasharray: 2.96,1.28; stroke-dashoffset: 0; stroke: #cccccc; stroke-opacity: 0.6; stroke-width: 0.8"/>
     </g>
     <g id="text_13">
      <!-- 400 -->
      <g style="fill: #262626" transform="translate(306.546295 685.357812) scale(0.1 -0.1)">
       <use xlink:href="#ArialMT-34"/>
       <use xlink:href="#ArialMT-30" transform="translate(55.615234 0)"/>
       <use xlink:href="#ArialMT-30" transform="translate(111.230469 0)"/>
      </g>
     </g>
    </g>
    <g id="xtick_11">
     <g id="line2d_22">
      <path d="M 439.390421 671.2 
L 439.390421 389.100312 
" clip-path="url(#p2271384144)" style="fill: none; stroke-dasharray: 2.96,1.28; stroke-dashoffset: 0; stroke: #cccccc; stroke-opacity: 0.6; stroke-width: 0.8"/>
     </g>
     <g id="text_14">
      <!-- 600 -->
      <g style="fill: #262626" transform="translate(431.049015 685.357812) scale(0.1 -0.1)">
       <defs>
        <path id="ArialMT-36" d="M 3184 3459 
L 2625 3416 
Q 2550 3747 2413 3897 
Q 2184 4138 1850 4138 
Q 1581 4138 1378 3988 
Q 1113 3794 959 3422 
Q 806 3050 800 2363 
Q 1003 2672 1297 2822 
Q 1591 2972 1913 2972 
Q 2475 2972 2870 2558 
Q 3266 2144 3266 1488 
Q 3266 1056 3080 686 
Q 2894 316 2569 119 
Q 2244 -78 1831 -78 
Q 1128 -78 684 439 
Q 241 956 241 2144 
Q 241 3472 731 4075 
Q 1159 4600 1884 4600 
Q 2425 4600 2770 4297 
Q 3116 3994 3184 3459 
z
M 888 1484 
Q 888 1194 1011 928 
Q 1134 663 1356 523 
Q 1578 384 1822 384 
Q 2178 384 2434 671 
Q 2691 959 2691 1453 
Q 2691 1928 2437 2201 
Q 2184 2475 1800 2475 
Q 1419 2475 1153 2201 
Q 888 1928 888 1484 
z
" transform="scale(0.015625)"/>
       </defs>
       <use xlink:href="#ArialMT-36"/>
       <use xlink:href="#ArialMT-30" transform="translate(55.615234 0)"/>
       <use xlink:href="#ArialMT-30" transform="translate(111.230469 0)"/>
      </g>
     </g>
    </g>
    <g id="xtick_12">
     <g id="line2d_23">
      <path d="M 563.893141 671.2 
L 563.893141 389.100312 
" clip-path="url(#p2271384144)" style="fill: none; stroke-dasharray: 2.96,1.28; stroke-dashoffset: 0; stroke: #cccccc; stroke-opacity: 0.6; stroke-width: 0.8"/>
     </g>
     <g id="text_15">
      <!-- 800 -->
      <g style="fill: #262626" transform="translate(555.551734 685.357812) scale(0.1 -0.1)">
       <defs>
        <path id="ArialMT-38" d="M 1131 2484 
Q 781 2613 612 2850 
Q 444 3088 444 3419 
Q 444 3919 803 4259 
Q 1163 4600 1759 4600 
Q 2359 4600 2725 4251 
Q 3091 3903 3091 3403 
Q 3091 3084 2923 2848 
Q 2756 2613 2416 2484 
Q 2838 2347 3058 2040 
Q 3278 1734 3278 1309 
Q 3278 722 2862 322 
Q 2447 -78 1769 -78 
Q 1091 -78 675 323 
Q 259 725 259 1325 
Q 259 1772 486 2073 
Q 713 2375 1131 2484 
z
M 1019 3438 
Q 1019 3113 1228 2906 
Q 1438 2700 1772 2700 
Q 2097 2700 2305 2904 
Q 2513 3109 2513 3406 
Q 2513 3716 2298 3927 
Q 2084 4138 1766 4138 
Q 1444 4138 1231 3931 
Q 1019 3725 1019 3438 
z
M 838 1322 
Q 838 1081 952 856 
Q 1066 631 1291 507 
Q 1516 384 1775 384 
Q 2178 384 2440 643 
Q 2703 903 2703 1303 
Q 2703 1709 2433 1975 
Q 2163 2241 1756 2241 
Q 1359 2241 1098 1978 
Q 838 1716 838 1322 
z
" transform="scale(0.015625)"/>
       </defs>
       <use xlink:href="#ArialMT-38"/>
       <use xlink:href="#ArialMT-30" transform="translate(55.615234 0)"/>
       <use xlink:href="#ArialMT-30" transform="translate(111.230469 0)"/>
      </g>
     </g>
    </g>
    <g id="xtick_13">
     <g id="line2d_24">
      <path d="M 688.39586 671.2 
L 688.39586 389.100312 
" clip-path="url(#p2271384144)" style="fill: none; stroke-dasharray: 2.96,1.28; stroke-dashoffset: 0; stroke: #cccccc; stroke-opacity: 0.6; stroke-width: 0.8"/>
     </g>
     <g id="text_16">
      <!-- 1000 -->
      <g style="fill: #262626" transform="translate(677.273985 685.357812) scale(0.1 -0.1)">
       <use xlink:href="#ArialMT-31"/>
       <use xlink:href="#ArialMT-30" transform="translate(55.615234 0)"/>
       <use xlink:href="#ArialMT-30" transform="translate(111.230469 0)"/>
       <use xlink:href="#ArialMT-30" transform="translate(166.845703 0)"/>
      </g>
     </g>
    </g>
    <g id="xtick_14">
     <g id="line2d_25">
      <path d="M 812.89858 671.2 
L 812.89858 389.100312 
" clip-path="url(#p2271384144)" style="fill: none; stroke-dasharray: 2.96,1.28; stroke-dashoffset: 0; stroke: #cccccc; stroke-opacity: 0.6; stroke-width: 0.8"/>
     </g>
     <g id="text_17">
      <!-- 1200 -->
      <g style="fill: #262626" transform="translate(801.776705 685.357812) scale(0.1 -0.1)">
       <use xlink:href="#ArialMT-31"/>
       <use xlink:href="#ArialMT-32" transform="translate(55.615234 0)"/>
       <use xlink:href="#ArialMT-30" transform="translate(111.230469 0)"/>
       <use xlink:href="#ArialMT-30" transform="translate(166.845703 0)"/>
      </g>
     </g>
    </g>
    <g id="text_18">
     <!-- 训练轮数 -->
     <g style="fill: #262626" transform="translate(428.728125 699.339062) scale(0.1 -0.1)">
      <defs>
       <path id="MicrosoftYaHei-8bad" d="M 2581 5178 
L 3056 5178 
L 3056 2722 
Q 3056 1272 2831 466 
Q 2613 -297 1981 -872 
Q 1769 -678 1550 -534 
Q 2156 -66 2375 647 
Q 2581 1353 2581 2678 
L 2581 5178 
z
M 5506 5184 
L 5981 5184 
L 5981 -772 
L 5506 -772 
L 5506 5184 
z
M 4038 4953 
L 4513 4953 
L 4513 -403 
L 4038 -403 
L 4038 4953 
z
M 2025 1372 
Q 2025 1059 2069 784 
Q 1438 247 913 -284 
L 625 116 
Q 838 316 838 691 
L 838 2803 
L 81 2803 
L 81 3253 
L 1313 3253 
L 1313 709 
Q 1650 1009 2025 1372 
z
M 875 5191 
Q 1438 4628 1850 4166 
L 1413 3797 
Q 1031 4303 500 4872 
L 875 5191 
z
" transform="scale(0.015625)"/>
       <path id="MicrosoftYaHei-7ec3" d="M 2363 3403 
L 3059 3403 
Q 3203 3781 3344 4197 
L 2213 4197 
L 2213 4622 
L 3488 4622 
Q 3603 4975 3719 5353 
L 4219 5253 
Q 4109 4931 4000 4622 
L 6000 4622 
L 6000 4197 
L 3847 4197 
Q 3700 3791 3553 3403 
L 4763 3403 
L 4763 2016 
L 6025 2016 
L 6025 1591 
L 4763 1591 
L 4763 3 
Q 4763 -734 4056 -734 
Q 3788 -734 3369 -728 
Q 3331 -516 3263 -241 
Q 3638 -284 3931 -284 
Q 4300 -284 4300 109 
L 4300 1591 
L 2475 1591 
L 2475 1997 
Q 2688 2450 2897 2978 
L 2363 2978 
L 2363 3403 
z
M 888 1566 
Q 1531 1659 2219 1778 
Q 2181 1547 2163 1297 
Q 1600 1216 319 1003 
L 219 1472 
Q 669 1969 1175 2794 
Q 666 2763 219 2722 
L 100 3147 
Q 700 3966 1294 5366 
L 1750 5178 
Q 1088 3878 644 3184 
Q 1078 3194 1419 3203 
Q 1669 3638 1931 4147 
L 2388 3916 
Q 1656 2659 888 1566 
z
M 3013 2016 
L 4300 2016 
L 4300 2978 
L 3394 2978 
Q 3203 2484 3013 2016 
z
M 94 122 
Q 1031 291 2219 559 
Q 2200 316 2206 78 
Q 1231 -103 219 -353 
L 94 122 
z
M 3194 1272 
L 3638 1066 
Q 3194 203 2700 -547 
Q 2500 -397 2275 -278 
Q 2813 459 3194 1272 
z
M 5094 1041 
L 5500 1278 
Q 5963 578 6381 -122 
L 5950 -391 
Q 5544 366 5094 1041 
z
" transform="scale(0.015625)"/>
       <path id="MicrosoftYaHei-8f6e" d="M 688 2228 
L 1438 2228 
L 1438 3597 
L 1888 3597 
L 1888 2228 
L 2688 2228 
L 2688 1803 
L 1888 1803 
L 1888 959 
Q 2344 1016 2763 1078 
Q 2756 922 2744 616 
Q 2313 566 1888 516 
L 1888 -866 
L 1438 -866 
L 1438 466 
Q 781 384 138 303 
L 88 772 
Q 794 834 1438 909 
L 1438 1803 
L 225 1803 
L 225 2197 
Q 550 3116 800 3916 
L 156 3916 
L 156 4341 
L 925 4341 
Q 1081 4859 1194 5322 
L 1675 5216 
Q 1538 4766 1400 4341 
L 2781 4341 
L 2781 3916 
L 1263 3916 
Q 975 3028 688 2228 
z
M 3163 2891 
L 3638 2891 
L 3638 1509 
Q 4456 1984 5150 2653 
L 5544 2359 
Q 4588 1484 3638 997 
L 3638 191 
Q 3638 -197 4075 -197 
L 4925 -197 
Q 5363 -197 5425 178 
Q 5494 584 5525 1097 
Q 5575 1078 5994 916 
Q 5956 441 5881 28 
Q 5775 -653 5013 -653 
L 3925 -653 
Q 3163 -653 3163 72 
L 3163 2891 
z
M 4656 5259 
L 4544 5072 
Q 5244 3722 6313 3178 
Q 6113 2953 5975 2766 
Q 4975 3359 4250 4622 
Q 3531 3422 2625 2697 
Q 2475 2891 2288 3059 
Q 3406 3897 4044 5259 
L 4656 5259 
z
" transform="scale(0.015625)"/>
       <path id="MicrosoftYaHei-6570" d="M 4175 5303 
L 4675 5228 
Q 4544 4622 4369 4097 
L 6281 4097 
L 6281 3672 
L 5888 3672 
Q 5731 1834 5088 753 
Q 5594 66 6375 -372 
Q 6175 -647 6038 -866 
Q 5275 -372 4769 309 
Q 4194 -403 3400 -928 
Q 3263 -747 3044 -534 
Q 3919 41 4463 772 
Q 3956 1647 3794 2791 
Q 3663 2559 3519 2359 
Q 3394 2541 3206 2759 
Q 3931 3803 4175 5303 
z
M 150 1697 
L 1100 1697 
Q 1238 1934 1369 2184 
L 1819 2041 
Q 1719 1866 1619 1697 
L 3150 1697 
L 3150 1291 
Q 2913 678 2431 216 
Q 2775 53 3131 -109 
L 2856 -541 
Q 2469 -322 2050 -103 
Q 1344 -609 269 -903 
Q 169 -703 56 -466 
Q 969 -259 1600 128 
Q 1063 403 475 691 
Q 675 978 863 1284 
L 150 1284 
L 150 1697 
z
M 219 3847 
L 1656 3847 
L 1656 5247 
L 2119 5247 
L 2119 3847 
L 3319 3847 
L 3319 3434 
L 2119 3434 
L 2119 3053 
L 2306 3266 
Q 2888 2841 3281 2516 
L 2981 2166 
Q 2638 2491 2119 2897 
L 2119 2184 
L 1656 2184 
L 1656 3059 
Q 1088 2466 331 2016 
Q 213 2197 63 2397 
Q 850 2822 1506 3434 
L 219 3434 
L 219 3847 
z
M 5388 3672 
L 4219 3672 
Q 4188 3591 4150 3516 
Q 4263 2191 4775 1247 
Q 5275 2159 5388 3672 
z
M 1088 834 
Q 1531 634 2000 416 
Q 2431 784 2675 1284 
L 1375 1284 
Q 1231 1053 1088 834 
z
M 3038 5091 
L 3425 4834 
Q 3081 4384 2738 4003 
Q 2594 4128 2400 4266 
Q 2725 4647 3038 5091 
z
M 381 4816 
L 738 5059 
Q 1019 4716 1319 4322 
L 931 4047 
Q 656 4453 381 4816 
z
" transform="scale(0.015625)"/>
      </defs>
      <use xlink:href="#MicrosoftYaHei-8bad"/>
      <use xlink:href="#MicrosoftYaHei-7ec3" transform="translate(100 0)"/>
      <use xlink:href="#MicrosoftYaHei-8f6e" transform="translate(200 0)"/>
      <use xlink:href="#MicrosoftYaHei-6570" transform="translate(300 0)"/>
     </g>
    </g>
   </g>
   <g id="matplotlib.axis_4">
    <g id="ytick_9">
     <g id="line2d_26">
      <path d="M 48.140625 671.2 
L 849.315625 671.2 
" clip-path="url(#p2271384144)" style="fill: none; stroke-dasharray: 2.96,1.28; stroke-dashoffset: 0; stroke: #cccccc; stroke-opacity: 0.6; stroke-width: 0.8"/>
     </g>
     <g id="text_19">
      <!-- 0.0 -->
      <g style="fill: #262626" transform="translate(27.240625 674.778906) scale(0.1 -0.1)">
       <use xlink:href="#ArialMT-30"/>
       <use xlink:href="#ArialMT-2e" transform="translate(55.615234 0)"/>
       <use xlink:href="#ArialMT-30" transform="translate(83.398438 0)"/>
      </g>
     </g>
    </g>
    <g id="ytick_10">
     <g id="line2d_27">
      <path d="M 48.140625 635.937539 
L 849.315625 635.937539 
" clip-path="url(#p2271384144)" style="fill: none; stroke-dasharray: 2.96,1.28; stroke-dashoffset: 0; stroke: #cccccc; stroke-opacity: 0.6; stroke-width: 0.8"/>
     </g>
     <g id="text_20">
      <!-- 2.5 -->
      <g style="fill: #262626" transform="translate(27.240625 639.516445) scale(0.1 -0.1)">
       <use xlink:href="#ArialMT-32"/>
       <use xlink:href="#ArialMT-2e" transform="translate(55.615234 0)"/>
       <use xlink:href="#ArialMT-35" transform="translate(83.398438 0)"/>
      </g>
     </g>
    </g>
    <g id="ytick_11">
     <g id="line2d_28">
      <path d="M 48.140625 600.675078 
L 849.315625 600.675078 
" clip-path="url(#p2271384144)" style="fill: none; stroke-dasharray: 2.96,1.28; stroke-dashoffset: 0; stroke: #cccccc; stroke-opacity: 0.6; stroke-width: 0.8"/>
     </g>
     <g id="text_21">
      <!-- 5.0 -->
      <g style="fill: #262626" transform="translate(27.240625 604.253984) scale(0.1 -0.1)">
       <use xlink:href="#ArialMT-35"/>
       <use xlink:href="#ArialMT-2e" transform="translate(55.615234 0)"/>
       <use xlink:href="#ArialMT-30" transform="translate(83.398438 0)"/>
      </g>
     </g>
    </g>
    <g id="ytick_12">
     <g id="line2d_29">
      <path d="M 48.140625 565.412617 
L 849.315625 565.412617 
" clip-path="url(#p2271384144)" style="fill: none; stroke-dasharray: 2.96,1.28; stroke-dashoffset: 0; stroke: #cccccc; stroke-opacity: 0.6; stroke-width: 0.8"/>
     </g>
     <g id="text_22">
      <!-- 7.5 -->
      <g style="fill: #262626" transform="translate(27.240625 568.991523) scale(0.1 -0.1)">
       <defs>
        <path id="ArialMT-37" d="M 303 3981 
L 303 4522 
L 3269 4522 
L 3269 4084 
Q 2831 3619 2401 2847 
Q 1972 2075 1738 1259 
Q 1569 684 1522 0 
L 944 0 
Q 953 541 1156 1306 
Q 1359 2072 1739 2783 
Q 2119 3494 2547 3981 
L 303 3981 
z
" transform="scale(0.015625)"/>
       </defs>
       <use xlink:href="#ArialMT-37"/>
       <use xlink:href="#ArialMT-2e" transform="translate(55.615234 0)"/>
       <use xlink:href="#ArialMT-35" transform="translate(83.398438 0)"/>
      </g>
     </g>
    </g>
    <g id="ytick_13">
     <g id="line2d_30">
      <path d="M 48.140625 530.150156 
L 849.315625 530.150156 
" clip-path="url(#p2271384144)" style="fill: none; stroke-dasharray: 2.96,1.28; stroke-dashoffset: 0; stroke: #cccccc; stroke-opacity: 0.6; stroke-width: 0.8"/>
     </g>
     <g id="text_23">
      <!-- 10.0 -->
      <g style="fill: #262626" transform="translate(21.679688 533.729062) scale(0.1 -0.1)">
       <use xlink:href="#ArialMT-31"/>
       <use xlink:href="#ArialMT-30" transform="translate(55.615234 0)"/>
       <use xlink:href="#ArialMT-2e" transform="translate(111.230469 0)"/>
       <use xlink:href="#ArialMT-30" transform="translate(139.013672 0)"/>
      </g>
     </g>
    </g>
    <g id="ytick_14">
     <g id="line2d_31">
      <path d="M 48.140625 494.887695 
L 849.315625 494.887695 
" clip-path="url(#p2271384144)" style="fill: none; stroke-dasharray: 2.96,1.28; stroke-dashoffset: 0; stroke: #cccccc; stroke-opacity: 0.6; stroke-width: 0.8"/>
     </g>
     <g id="text_24">
      <!-- 12.5 -->
      <g style="fill: #262626" transform="translate(21.679688 498.466602) scale(0.1 -0.1)">
       <use xlink:href="#ArialMT-31"/>
       <use xlink:href="#ArialMT-32" transform="translate(55.615234 0)"/>
       <use xlink:href="#ArialMT-2e" transform="translate(111.230469 0)"/>
       <use xlink:href="#ArialMT-35" transform="translate(139.013672 0)"/>
      </g>
     </g>
    </g>
    <g id="ytick_15">
     <g id="line2d_32">
      <path d="M 48.140625 459.625234 
L 849.315625 459.625234 
" clip-path="url(#p2271384144)" style="fill: none; stroke-dasharray: 2.96,1.28; stroke-dashoffset: 0; stroke: #cccccc; stroke-opacity: 0.6; stroke-width: 0.8"/>
     </g>
     <g id="text_25">
      <!-- 15.0 -->
      <g style="fill: #262626" transform="translate(21.679688 463.204141) scale(0.1 -0.1)">
       <use xlink:href="#ArialMT-31"/>
       <use xlink:href="#ArialMT-35" transform="translate(55.615234 0)"/>
       <use xlink:href="#ArialMT-2e" transform="translate(111.230469 0)"/>
       <use xlink:href="#ArialMT-30" transform="translate(139.013672 0)"/>
      </g>
     </g>
    </g>
    <g id="ytick_16">
     <g id="line2d_33">
      <path d="M 48.140625 424.362773 
L 849.315625 424.362773 
" clip-path="url(#p2271384144)" style="fill: none; stroke-dasharray: 2.96,1.28; stroke-dashoffset: 0; stroke: #cccccc; stroke-opacity: 0.6; stroke-width: 0.8"/>
     </g>
     <g id="text_26">
      <!-- 17.5 -->
      <g style="fill: #262626" transform="translate(21.679688 427.94168) scale(0.1 -0.1)">
       <use xlink:href="#ArialMT-31"/>
       <use xlink:href="#ArialMT-37" transform="translate(55.615234 0)"/>
       <use xlink:href="#ArialMT-2e" transform="translate(111.230469 0)"/>
       <use xlink:href="#ArialMT-35" transform="translate(139.013672 0)"/>
      </g>
     </g>
    </g>
    <g id="ytick_17">
     <g id="line2d_34">
      <path d="M 48.140625 389.100312 
L 849.315625 389.100312 
" clip-path="url(#p2271384144)" style="fill: none; stroke-dasharray: 2.96,1.28; stroke-dashoffset: 0; stroke: #cccccc; stroke-opacity: 0.6; stroke-width: 0.8"/>
     </g>
     <g id="text_27">
      <!-- 20.0 -->
      <g style="fill: #262626" transform="translate(21.679688 392.679219) scale(0.1 -0.1)">
       <use xlink:href="#ArialMT-32"/>
       <use xlink:href="#ArialMT-30" transform="translate(55.615234 0)"/>
       <use xlink:href="#ArialMT-2e" transform="translate(111.230469 0)"/>
       <use xlink:href="#ArialMT-30" transform="translate(139.013672 0)"/>
      </g>
     </g>
    </g>
    <g id="text_28">
     <!-- 奖励标准差 -->
     <g style="fill: #262626" transform="translate(15.19375 555.150156) rotate(-90) scale(0.1 -0.1)">
      <defs>
       <path id="MicrosoftYaHei-6807" d="M 75 1409 
Q 769 2478 1025 3647 
L 119 3647 
L 119 4072 
L 1069 4072 
L 1069 5297 
L 1506 5297 
L 1506 4072 
L 2356 4072 
L 2356 3647 
L 1506 3647 
L 1506 2541 
L 1775 2822 
Q 2175 2478 2481 2159 
L 2150 1816 
Q 1850 2156 1506 2503 
L 1506 -797 
L 1069 -797 
L 1069 2588 
Q 738 1513 281 859 
Q 194 1128 75 1409 
z
M 2350 3097 
L 6250 3097 
L 6250 2659 
L 4525 2659 
L 4525 47 
Q 4525 -734 3806 -734 
Q 3469 -741 2975 -728 
Q 2944 -503 2888 -209 
Q 3319 -259 3675 -259 
Q 4050 -259 4050 203 
L 4050 2659 
L 2350 2659 
L 2350 3097 
z
M 2638 4928 
L 5963 4928 
L 5963 4491 
L 2638 4491 
L 2638 4928 
z
M 4938 1853 
L 5381 2066 
Q 5975 928 6369 72 
L 5869 -147 
Q 5463 822 4938 1853 
z
M 2931 2066 
L 3400 1878 
Q 2888 734 2381 -153 
Q 2188 -41 1925 66 
Q 2425 872 2931 2066 
z
" transform="scale(0.015625)"/>
       <path id="MicrosoftYaHei-51c6" d="M 1413 2766 
Q 2313 3866 2869 5334 
L 3331 5172 
Q 3128 4694 2906 4253 
L 6194 4253 
L 6194 3822 
L 4675 3822 
L 4675 2891 
L 6025 2891 
L 6025 2459 
L 4675 2459 
L 4675 1528 
L 6038 1528 
L 6038 1097 
L 4675 1097 
L 4675 78 
L 6275 78 
L 6275 -341 
L 2769 -341 
L 2769 -841 
L 2281 -841 
L 2281 3131 
Q 2034 2738 1769 2384 
Q 1631 2578 1413 2766 
z
M 2769 78 
L 4188 78 
L 4188 1097 
L 2769 1097 
L 2769 78 
z
M 1081 2422 
Q 1325 2291 1556 2209 
Q 1113 916 681 -372 
L 169 -141 
Q 650 1003 1081 2422 
z
M 2769 1528 
L 4188 1528 
L 4188 2459 
L 2769 2459 
L 2769 1528 
z
M 2769 2891 
L 4188 2891 
L 4188 3822 
L 2769 3822 
L 2769 2891 
z
M 531 4991 
Q 1050 4384 1581 3709 
Q 1538 3678 1150 3341 
Q 681 3997 138 4672 
L 531 4991 
z
M 3919 5116 
L 4325 5372 
Q 4569 5072 4881 4622 
L 4450 4334 
Q 4156 4784 3919 5116 
z
" transform="scale(0.015625)"/>
       <path id="MicrosoftYaHei-5dee" d="M 1094 -172 
L 3419 -172 
L 3419 891 
L 1813 891 
L 1813 1088 
Q 1200 394 331 -197 
Q 206 3 31 247 
Q 1213 1028 1859 1984 
L 200 1984 
L 200 2409 
L 2119 2409 
Q 2275 2694 2409 3028 
L 638 3028 
L 638 3447 
L 2569 3447 
Q 2666 3728 2750 4041 
L 488 4041 
L 488 4466 
L 2075 4466 
Q 1813 4797 1513 5122 
L 1869 5397 
Q 2231 5047 2563 4672 
L 2278 4466 
L 4219 4466 
L 3975 4684 
Q 4344 5047 4631 5403 
L 5056 5122 
Q 4738 4772 4413 4466 
L 6050 4466 
L 6050 4041 
L 3291 4041 
Q 3206 3731 3109 3447 
L 5813 3447 
L 5813 3028 
L 2963 3028 
Q 2838 2700 2697 2409 
L 6294 2409 
L 6294 1984 
L 2469 1984 
Q 2259 1634 1997 1309 
L 5613 1309 
L 5613 891 
L 3925 891 
L 3925 -172 
L 6213 -172 
L 6213 -597 
L 1094 -597 
L 1094 -172 
z
" transform="scale(0.015625)"/>
      </defs>
      <use xlink:href="#MicrosoftYaHei-5956"/>
      <use xlink:href="#MicrosoftYaHei-52b1" transform="translate(100 0)"/>
      <use xlink:href="#MicrosoftYaHei-6807" transform="translate(200 0)"/>
      <use xlink:href="#MicrosoftYaHei-51c6" transform="translate(300 0)"/>
      <use xlink:href="#MicrosoftYaHei-5dee" transform="translate(400 0)"/>
     </g>
    </g>
   </g>
   <g id="line2d_35">
    <path d="M 84.55767 623.675435 
L 90.782806 619.479138 
L 97.007942 609.01751 
L 103.233078 607.639101 
L 109.458214 612.413812 
L 115.68335 625.403766 
L 121.908486 625.348314 
L 128.133622 622.880071 
L 134.358758 623.138164 
L 140.583894 620.621747 
L 146.80903 616.758069 
L 153.034166 615.584214 
L 159.259302 619.959741 
L 165.484438 629.29862 
L 171.709574 632.830755 
L 177.93471 625.045966 
L 184.159846 630.793494 
L 190.384982 624.253022 
L 196.610118 624.355688 
L 202.835254 606.158228 
L 209.06039 601.756779 
L 215.285526 602.892706 
L 221.510662 614.782022 
L 227.735798 619.046535 
L 233.960934 623.171567 
L 240.18607 626.45846 
L 246.411206 619.131227 
L 252.636342 615.880782 
L 258.861478 611.062074 
L 265.086614 617.879987 
L 271.31175 623.227291 
L 277.536886 622.672931 
L 283.762022 613.321726 
L 289.987158 607.267759 
L 296.212294 604.968291 
L 302.43743 602.969107 
L 308.662566 608.407538 
L 314.887702 611.789228 
L 321.112838 625.392086 
L 327.337973 628.993324 
L 333.563109 619.492069 
L 339.788245 620.831072 
L 346.013381 625.790882 
L 352.238517 628.102816 
L 358.463653 625.535369 
L 364.688789 613.190166 
L 370.913925 615.160199 
L 377.139061 617.992978 
L 383.364197 624.584645 
L 389.589333 617.792271 
L 395.814469 616.994411 
L 402.039605 613.606643 
L 408.264741 618.396679 
L 414.489877 615.447315 
L 420.715013 615.246179 
L 426.940149 617.343417 
L 433.165285 620.292295 
L 439.390421 621.375675 
L 445.615557 619.046535 
L 451.840693 613.495289 
L 458.065829 616.858881 
L 464.290965 621.893737 
L 470.516101 628.665059 
L 476.741237 620.950698 
L 482.966373 616.610876 
L 489.191509 613.878976 
L 495.416645 619.200623 
L 501.641781 615.010051 
L 507.866917 625.278364 
L 514.092053 625.185264 
L 520.317189 616.552109 
L 526.542325 608.689311 
L 532.767461 606.761436 
L 538.992597 620.368538 
L 545.217733 617.852404 
L 551.442869 614.924431 
L 557.668005 609.709601 
L 563.893141 613.757779 
L 570.118277 606.117116 
L 576.343412 610.380979 
L 582.568548 611.195655 
L 588.793684 626.482379 
L 595.01882 619.337115 
L 601.243956 625.994558 
L 607.469092 626.216991 
L 613.694228 629.773693 
L 619.919364 613.83 
L 626.1445 602.804657 
L 632.369636 602.424415 
L 638.594772 608.324528 
L 644.819908 620.608528 
L 651.045044 613.18325 
L 657.27018 616.310363 
L 663.495316 609.855497 
L 669.720452 615.440119 
L 675.945588 611.376462 
L 682.170724 617.962823 
L 688.39586 617.430401 
L 694.620996 616.787556 
L 700.846132 604.563656 
L 707.071268 603.607161 
L 713.296404 606.717866 
L 719.52154 615.497712 
L 725.746676 621.496611 
L 731.971812 623.717665 
L 738.196948 625.805611 
L 744.422084 622.73912 
L 750.64722 620.621747 
L 756.872356 626.32415 
L 763.097492 627.060337 
L 769.322628 617.490128 
L 775.547764 613.513833 
L 781.7729 617.852404 
L 787.998036 632.21869 
L 794.223172 639.314519 
L 800.448308 629.436091 
L 806.673444 620.064249 
L 812.89858 612.087119 
" clip-path="url(#p2271384144)" style="fill: none; stroke: #d62728; stroke-width: 1.5; stroke-linecap: round"/>
   </g>
   <g id="patch_9">
    <path d="M 48.140625 671.2 
L 48.140625 389.100312 
" style="fill: none; stroke: #cccccc; stroke-width: 0.8; stroke-linejoin: miter; stroke-linecap: square"/>
   </g>
   <g id="patch_10">
    <path d="M 849.315625 671.2 
L 849.315625 389.100312 
" style="fill: none; stroke: #cccccc; stroke-width: 0.8; stroke-linejoin: miter; stroke-linecap: square"/>
   </g>
   <g id="patch_11">
    <path d="M 48.140625 671.2 
L 849.315625 671.2 
" style="fill: none; stroke: #cccccc; stroke-width: 0.8; stroke-linejoin: miter; stroke-linecap: square"/>
   </g>
   <g id="patch_12">
    <path d="M 48.140625 389.100312 
L 849.315625 389.100312 
" style="fill: none; stroke: #cccccc; stroke-width: 0.8; stroke-linejoin: miter; stroke-linecap: square"/>
   </g>
   <g id="legend_2">
    <g id="patch_13">
     <path d="M 720.675 412.58 
L 842.315625 412.58 
Q 844.315625 412.58 844.315625 410.58 
L 844.315625 396.100312 
Q 844.315625 394.100312 842.315625 394.100312 
L 720.675 394.100312 
Q 718.675 394.100312 718.675 396.100312 
L 718.675 410.58 
Q 718.675 412.58 720.675 412.58 
z
" style="fill: #ffffff; opacity: 0.8; stroke: #cccccc; stroke-linejoin: miter"/>
    </g>
    <g id="line2d_36">
     <path d="M 722.675 402.594062 
L 732.675 402.594062 
L 742.675 402.594062 
" style="fill: none; stroke: #d62728; stroke-width: 1.5; stroke-linecap: round"/>
    </g>
    <g id="text_29">
     <!-- 奖励稳定性 (标准差) -->
     <g style="fill: #262626" transform="translate(750.675 406.094062) scale(0.1 -0.1)">
      <defs>
       <path id="MicrosoftYaHei-7a33" d="M 2444 1778 
L 5450 1778 
L 5450 2316 
L 2563 2316 
L 2563 2728 
L 5450 2728 
L 5450 3259 
L 2575 3259 
L 2575 3653 
L 2488 3566 
Q 2331 3716 2119 3878 
Q 2831 4522 3275 5366 
L 3763 5272 
Q 3616 5009 3456 4766 
L 5313 4766 
L 5313 4359 
Q 5063 4022 4800 3684 
L 5925 3684 
L 5925 1128 
L 5450 1128 
L 5450 1353 
L 2444 1353 
L 2444 1778 
z
M 31 991 
Q 619 1803 988 3034 
L 144 3034 
L 144 3472 
L 1025 3472 
L 1025 4466 
Q 653 4431 269 4403 
Q 238 4603 181 4853 
Q 1200 4916 2231 5059 
L 2331 4597 
Q 1916 4550 1488 4506 
L 1488 3472 
L 2269 3472 
L 2269 3034 
L 1488 3034 
L 1488 2288 
L 1744 2491 
Q 2100 2128 2413 1741 
L 2044 1434 
Q 1772 1822 1488 2144 
L 1488 -834 
L 1025 -834 
L 1025 1938 
Q 703 1072 244 466 
Q 150 728 31 991 
z
M 2950 991 
L 3425 991 
L 3425 97 
Q 3425 -259 3825 -259 
L 4425 -259 
Q 4819 -259 4888 53 
Q 4944 297 4981 634 
Q 5188 541 5456 447 
Q 5394 128 5319 -147 
Q 5181 -691 4563 -691 
L 3731 -691 
Q 2950 -691 2950 72 
L 2950 991 
z
M 4744 4353 
L 3172 4353 
Q 2903 3991 2603 3684 
L 4259 3684 
Q 4525 4038 4744 4353 
z
M 2275 991 
L 2694 841 
Q 2481 178 2200 -409 
Q 2000 -303 1769 -216 
Q 2069 322 2275 991 
z
M 5419 797 
L 5825 978 
Q 6175 309 6388 -147 
L 5956 -353 
Q 5750 153 5419 797 
z
M 3663 1097 
L 4000 1334 
Q 4369 909 4650 522 
L 4269 253 
Q 3994 691 3663 1097 
z
" transform="scale(0.015625)"/>
       <path id="MicrosoftYaHei-5b9a" d="M 81 -384 
Q 1119 509 1281 2241 
L 1806 2159 
Q 1731 1581 1578 1081 
Q 2063 50 3081 -103 
L 3081 2647 
L 225 2647 
L 225 3116 
L 6163 3116 
L 6163 2647 
L 3600 2647 
L 3600 1634 
L 5775 1634 
L 5775 1172 
L 3600 1172 
L 3600 -138 
Q 4844 -169 6306 -116 
Q 6200 -359 6125 -634 
Q 4594 -653 3450 -616 
Q 2041 -616 1378 528 
Q 1022 -300 413 -872 
Q 269 -628 81 -384 
z
M 450 4566 
L 3116 4566 
Q 2931 4834 2725 5091 
L 3200 5347 
Q 3444 5066 3731 4716 
L 3450 4566 
L 5981 4566 
L 5981 3378 
L 5488 3378 
L 5488 4097 
L 944 4097 
L 944 3384 
L 450 3384 
L 450 4566 
z
" transform="scale(0.015625)"/>
      </defs>
      <use xlink:href="#MicrosoftYaHei-5956"/>
      <use xlink:href="#MicrosoftYaHei-52b1" transform="translate(100 0)"/>
      <use xlink:href="#MicrosoftYaHei-7a33" transform="translate(200 0)"/>
      <use xlink:href="#MicrosoftYaHei-5b9a" transform="translate(300 0)"/>
      <use xlink:href="#MicrosoftYaHei-6027" transform="translate(400 0)"/>
      <use xlink:href="#MicrosoftYaHei-20" transform="translate(500 0)"/>
      <use xlink:href="#MicrosoftYaHei-28" transform="translate(529.589844 0)"/>
      <use xlink:href="#MicrosoftYaHei-6807" transform="translate(562.988281 0)"/>
      <use xlink:href="#MicrosoftYaHei-51c6" transform="translate(662.988281 0)"/>
      <use xlink:href="#MicrosoftYaHei-5dee" transform="translate(762.988281 0)"/>
      <use xlink:href="#MicrosoftYaHei-29" transform="translate(862.988281 0)"/>
     </g>
    </g>
   </g>
  </g>
  <g id="text_30">
   <!-- 收敛性指标动态图: default_params - PPO - 初始训练 (伽马分布(尖峰,shape5,scale2)) -->
   <g style="fill: #262626" transform="translate(111.173125 20.5975) scale(0.16 -0.16)">
    <defs>
     <path id="MicrosoftYaHei-Bold-6536" d="M 2450 5297 
L 2450 2941 
Q 3141 3934 3506 5341 
L 4363 5191 
Q 4253 4766 4119 4366 
L 6263 4366 
L 6263 3534 
L 5841 3534 
Q 5647 1928 4963 866 
Q 5528 328 6325 22 
Q 6050 -347 5775 -828 
Q 4988 -416 4413 178 
Q 3806 -447 2950 -872 
Q 2744 -416 2469 -34 
Q 3272 363 3841 897 
Q 3409 1559 3172 2384 
Q 3075 2234 2975 2091 
Q 2756 2469 2450 2844 
L 2450 -841 
L 1638 -841 
L 1638 963 
Q 847 569 456 259 
L 100 1059 
Q 331 1241 331 1528 
L 331 4684 
L 1106 4684 
L 1106 1528 
L 1638 1819 
L 1638 5297 
L 2450 5297 
z
M 4381 1581 
Q 4828 2341 5034 3534 
L 3794 3534 
Q 3756 3450 3716 3366 
Q 3906 2328 4381 1581 
z
" transform="scale(0.015625)"/>
     <path id="MicrosoftYaHei-Bold-655b" d="M 4138 5334 
L 4994 5253 
Q 4869 4766 4731 4328 
L 6294 4328 
L 6294 3566 
L 6044 3566 
Q 5913 1947 5338 841 
Q 5756 353 6319 41 
Q 6094 -216 5775 -791 
Q 5231 -428 4831 91 
Q 4319 -497 3638 -884 
Q 3388 -528 3088 -216 
Q 2525 -309 244 -691 
L 94 103 
Q 1000 216 2138 391 
Q 2425 1347 2688 2541 
L 3456 2341 
Q 3231 1516 2919 522 
Q 3094 553 3281 584 
Q 3263 266 3256 -3 
Q 3900 359 4344 891 
Q 4044 1516 3881 2297 
Q 3769 2091 3656 1909 
Q 3500 2441 3269 2909 
Q 3813 3953 4138 5334 
z
M 2906 2759 
L 869 2759 
L 869 3072 
Q 675 2872 481 2703 
Q 331 3041 88 3472 
Q 913 4209 1563 5334 
L 2450 5334 
L 2375 5203 
Q 2656 4884 3581 3847 
L 3088 3216 
Q 3006 3316 2906 3441 
L 2906 2759 
z
M 981 2378 
Q 1031 2109 1344 666 
L 681 509 
Q 488 1597 331 2241 
L 981 2378 
z
M 2031 2578 
Q 2144 1866 2238 891 
L 1606 784 
Q 1481 1678 1350 2466 
L 2031 2578 
z
M 4394 3384 
Q 4519 2391 4831 1666 
Q 5200 2472 5275 3566 
L 4463 3566 
Q 4431 3472 4394 3384 
z
M 1950 4541 
Q 1600 3959 1238 3509 
L 2850 3509 
Q 2500 3928 1950 4541 
z
" transform="scale(0.015625)"/>
     <path id="MicrosoftYaHei-Bold-6027" d="M 2250 216 
L 3975 216 
L 3975 1378 
L 2563 1378 
L 2563 2191 
L 3975 2191 
L 3975 3303 
L 3213 3303 
Q 3075 2734 2913 2272 
Q 2538 2491 2175 2684 
Q 2563 3684 2738 4947 
L 3506 4891 
Q 3447 4484 3381 4116 
L 3975 4116 
L 3975 5316 
L 4825 5316 
L 4825 4116 
L 6125 4116 
L 6125 3303 
L 4825 3303 
L 4825 2191 
L 6100 2191 
L 6100 1378 
L 4825 1378 
L 4825 216 
L 6313 216 
L 6313 -597 
L 2250 -597 
L 2250 216 
z
M 1788 5316 
L 1788 4456 
Q 2125 4316 2494 4134 
L 2175 3453 
L 1788 3713 
L 1788 -841 
L 950 -841 
L 950 5316 
L 1788 5316 
z
M 269 4103 
L 800 4041 
Q 719 3009 619 2178 
Q 350 2284 106 2316 
Q 225 3284 269 4103 
z
" transform="scale(0.015625)"/>
     <path id="MicrosoftYaHei-Bold-6307" d="M 106 4297 
L 800 4297 
L 800 5316 
L 1594 5316 
L 1594 4297 
L 2194 4297 
L 2194 3522 
L 1594 3522 
L 1594 2550 
L 2200 2716 
Q 2194 2222 2206 1878 
Q 2097 1850 1594 1700 
L 1594 -28 
Q 1594 -375 1458 -559 
Q 1322 -744 1067 -772 
Q 813 -800 313 -809 
Q 250 -434 156 3 
Q 538 -6 669 8 
Q 800 22 800 228 
L 800 1463 
L 156 1272 
L 88 2191 
Q 434 2263 800 2350 
L 800 3522 
L 106 3522 
L 106 4297 
z
M 5506 4278 
Q 5881 4078 6281 3959 
Q 6125 3116 5862 2959 
Q 5600 2803 5219 2803 
L 3306 2803 
Q 2394 2803 2394 3747 
L 2394 5291 
L 3225 5291 
L 3225 4628 
Q 4591 4809 5919 5172 
L 6206 4428 
Q 4866 4131 3225 3941 
L 3225 3884 
Q 3225 3528 3644 3528 
L 5025 3528 
Q 5334 3528 5403 3712 
Q 5472 3897 5506 4278 
z
M 2463 -834 
L 2463 2428 
L 6025 2428 
L 6025 -822 
L 5200 -822 
L 5200 -509 
L 3288 -509 
L 3288 -834 
L 2463 -834 
z
M 5200 1716 
L 3288 1716 
L 3288 1303 
L 5200 1303 
L 5200 1716 
z
M 3288 203 
L 5200 203 
L 5200 616 
L 3288 616 
L 3288 203 
z
" transform="scale(0.015625)"/>
     <path id="MicrosoftYaHei-Bold-6807" d="M 69 1703 
Q 550 2538 781 3391 
L 113 3391 
L 113 4209 
L 831 4209 
L 831 5303 
L 1600 5303 
L 1600 4209 
L 2200 4209 
L 2200 3391 
L 1600 3391 
L 1600 2669 
Q 2003 2444 2369 2228 
L 1981 1522 
Q 1850 1634 1600 1803 
L 1600 -841 
L 831 -841 
L 831 1734 
Q 594 1122 269 559 
Q 163 1209 69 1703 
z
M 2469 4978 
L 6000 4978 
L 6000 4166 
L 2469 4166 
L 2469 4978 
z
M 2219 3416 
L 6238 3416 
L 6238 2603 
L 4663 2603 
L 4663 -72 
Q 4663 -406 4478 -586 
Q 4294 -766 3948 -787 
Q 3603 -809 3006 -809 
Q 2919 -303 2838 59 
Q 3169 28 3431 28 
Q 3794 28 3794 366 
L 3794 2603 
L 2219 2603 
L 2219 3416 
z
M 2719 2209 
L 3463 1997 
Q 3081 784 2681 -97 
Q 2288 103 1944 203 
Q 2356 1047 2719 2209 
z
M 5575 2159 
Q 5969 1216 6331 178 
L 5563 -116 
Q 5200 991 4831 1891 
L 5575 2159 
z
" transform="scale(0.015625)"/>
     <path id="MicrosoftYaHei-Bold-52a8" d="M 2469 2178 
L 3134 603 
Q 3563 1378 3553 3441 
L 2919 3441 
L 2919 4266 
L 3572 4266 
L 3581 5328 
L 4413 5328 
L 4400 4266 
L 6038 4266 
L 5966 734 
Q 5947 22 5905 -156 
Q 5863 -334 5731 -473 
Q 5600 -613 5387 -675 
Q 5175 -738 4269 -747 
Q 4169 -272 4044 191 
Q 4456 166 4728 166 
Q 4909 166 5006 237 
Q 5103 309 5120 445 
Q 5138 581 5161 1404 
Q 5184 2228 5194 3441 
L 4384 3441 
Q 4356 2047 4272 1445 
Q 4188 844 3925 228 
Q 3663 -388 3244 -866 
Q 2888 -584 2481 -341 
Q 2663 -156 2813 50 
L 1078 -97 
Q 688 -144 481 -228 
L 94 528 
Q 422 794 897 2491 
L 119 2491 
L 119 3291 
L 3006 3291 
L 3006 2491 
L 1806 2491 
Q 1516 1594 1188 747 
Q 1756 763 2216 788 
Q 1991 1416 1775 1947 
L 2469 2178 
z
M 2788 4066 
L 388 4066 
L 388 4866 
L 2788 4866 
L 2788 4066 
z
" transform="scale(0.015625)"/>
     <path id="MicrosoftYaHei-Bold-6001" d="M 300 4628 
L 2656 4628 
Q 2719 4953 2700 5334 
L 3625 5334 
Q 3613 4947 3584 4628 
L 6100 4628 
L 6100 3878 
L 3981 3878 
Q 4788 3000 6313 2703 
Q 6063 2228 5869 1784 
Q 4159 2303 3206 3700 
Q 2500 2331 588 1703 
Q 356 2197 88 2616 
Q 1869 3028 2369 3878 
L 300 3878 
L 300 4628 
z
M 2919 3022 
Q 3356 2753 3950 2347 
L 3388 1784 
Q 2863 2222 2406 2528 
L 2919 3022 
z
M 2975 1941 
Q 3619 1559 4163 1166 
L 3644 566 
Q 3119 997 2506 1372 
L 2975 1941 
z
M 5494 1709 
Q 5969 997 6331 278 
L 5588 -128 
Q 5244 603 4775 1353 
L 5494 1709 
z
M 4350 872 
Q 4813 647 5213 497 
Q 5022 -278 4744 -509 
Q 4466 -741 3913 -741 
L 2500 -741 
Q 1563 -741 1563 184 
L 1563 1491 
L 2388 1491 
L 2388 391 
Q 2388 9 2775 9 
L 3713 9 
Q 4019 9 4147 143 
Q 4275 278 4350 872 
z
M 663 1466 
L 1438 1203 
Q 1119 253 863 -353 
L 81 -53 
Q 413 659 663 1466 
z
" transform="scale(0.015625)"/>
     <path id="MicrosoftYaHei-Bold-56fe" d="M 369 -841 
L 369 5072 
L 6019 5072 
L 6019 -834 
L 5156 -834 
L 5156 -591 
L 1231 -591 
L 1231 -841 
L 369 -841 
z
M 4875 3978 
L 4875 3466 
Q 4547 3022 4006 2678 
Q 4513 2541 5156 2463 
L 5156 4316 
L 3256 4316 
Q 3141 4144 3009 3978 
L 4875 3978 
z
M 2394 4316 
L 1231 4316 
L 1231 3231 
Q 2016 3747 2394 4316 
z
M 3228 2959 
Q 3666 3163 3919 3416 
L 2575 3416 
Q 2828 3156 3228 2959 
z
M 1644 2747 
Q 1481 2925 1231 3147 
L 1231 2400 
Q 1950 2522 2500 2688 
Q 2266 2863 2078 3063 
Q 1872 2900 1644 2747 
z
M 1669 1303 
Q 3319 1084 4775 841 
L 4600 166 
L 5156 166 
L 5156 2388 
Q 5019 2159 4825 1822 
Q 3897 1978 3219 2275 
Q 2872 2134 2472 2019 
Q 3509 1888 4500 1722 
L 4375 1128 
Q 3344 1309 2063 1484 
L 2159 1934 
Q 1856 1859 1525 1797 
Q 1409 2059 1231 2347 
L 1231 166 
L 4569 166 
Q 3297 425 1494 647 
L 1669 1303 
z
" transform="scale(0.015625)"/>
     <path id="MicrosoftYaHei-Bold-3a" d="M 313 2969 
Q 313 3200 491 3350 
Q 669 3500 916 3500 
Q 1166 3500 1337 3350 
Q 1509 3200 1509 2969 
Q 1509 2728 1337 2579 
Q 1166 2431 903 2431 
Q 653 2431 483 2584 
Q 313 2738 313 2969 
z
M 313 453 
Q 313 688 491 838 
Q 669 988 916 988 
Q 1166 988 1337 834 
Q 1509 681 1509 453 
Q 1509 213 1337 64 
Q 1166 -84 903 -84 
Q 659 -84 486 69 
Q 313 222 313 453 
z
" transform="scale(0.015625)"/>
     <path id="MicrosoftYaHei-Bold-20" transform="scale(0.015625)"/>
     <path id="MicrosoftYaHei-Bold-64" d="M 3794 0 
L 2788 0 
L 2788 488 
L 2772 488 
Q 2406 -84 1691 -84 
Q 1031 -84 642 381 
Q 253 847 253 1650 
Q 253 2500 689 3020 
Q 1125 3541 1828 3541 
Q 2503 3541 2772 3053 
L 2788 3053 
L 2788 5116 
L 3794 5116 
L 3794 0 
z
M 2803 1956 
Q 2803 2306 2592 2536 
Q 2381 2766 2066 2766 
Q 1697 2766 1486 2473 
Q 1275 2181 1275 1681 
Q 1275 1206 1478 948 
Q 1681 691 2038 691 
Q 2372 691 2587 962 
Q 2803 1234 2803 1669 
L 2803 1956 
z
" transform="scale(0.015625)"/>
     <path id="MicrosoftYaHei-Bold-65" d="M 3528 1444 
L 1253 1444 
Q 1306 641 2222 641 
Q 2794 641 3231 922 
L 3231 181 
Q 2759 -84 1994 -84 
Q 1169 -84 711 381 
Q 253 847 253 1678 
Q 253 2506 740 3023 
Q 1228 3541 1966 3541 
Q 2700 3541 3114 3095 
Q 3528 2650 3528 1872 
L 3528 1444 
z
M 2588 2075 
Q 2588 2850 1959 2850 
Q 1700 2850 1500 2637 
Q 1300 2425 1250 2075 
L 2588 2075 
z
" transform="scale(0.015625)"/>
     <path id="MicrosoftYaHei-Bold-66" d="M 2653 4338 
Q 2447 4419 2263 4419 
Q 1744 4419 1744 3844 
L 1744 3456 
L 2531 3456 
L 2531 2703 
L 1744 2703 
L 1744 0 
L 734 0 
L 734 2703 
L 156 2703 
L 156 3456 
L 734 3456 
L 734 3900 
Q 734 4491 1118 4844 
Q 1503 5197 2128 5197 
Q 2447 5197 2653 5131 
L 2653 4338 
z
" transform="scale(0.015625)"/>
     <path id="MicrosoftYaHei-Bold-61" d="M 544 3247 
Q 778 3378 1170 3459 
Q 1563 3541 1841 3541 
Q 3291 3541 3291 2088 
L 3291 0 
L 2331 0 
L 2331 503 
L 2319 503 
Q 1966 -84 1284 -84 
Q 794 -84 498 195 
Q 203 475 203 956 
Q 203 1950 1388 2113 
L 2338 2241 
Q 2338 2844 1709 2844 
Q 1091 2844 544 2469 
L 544 3247 
z
M 1684 1566 
Q 1138 1494 1138 1072 
Q 1138 878 1270 759 
Q 1403 641 1628 641 
Q 1938 641 2138 859 
Q 2338 1078 2338 1403 
L 2338 1650 
L 1684 1566 
z
" transform="scale(0.015625)"/>
     <path id="MicrosoftYaHei-Bold-75" d="M 3691 0 
L 2688 0 
L 2688 528 
L 2672 528 
Q 2284 -84 1613 -84 
Q 406 -84 406 1372 
L 406 3456 
L 1416 3456 
L 1416 1466 
Q 1416 691 2022 691 
Q 2325 691 2506 903 
Q 2688 1116 2688 1478 
L 2688 3456 
L 3691 3456 
L 3691 0 
z
" transform="scale(0.015625)"/>
     <path id="MicrosoftYaHei-Bold-6c" d="M 444 0 
L 444 5116 
L 1450 5116 
L 1450 0 
L 444 0 
z
" transform="scale(0.015625)"/>
     <path id="MicrosoftYaHei-Bold-74" d="M 2494 41 
Q 2266 -84 1803 -84 
Q 703 -84 703 1072 
L 703 2703 
L 134 2703 
L 134 3456 
L 703 3456 
L 703 4216 
L 1706 4503 
L 1706 3456 
L 2494 3456 
L 2494 2703 
L 1706 2703 
L 1706 1247 
Q 1706 694 2144 694 
Q 2313 694 2494 794 
L 2494 41 
z
" transform="scale(0.015625)"/>
     <path id="MicrosoftYaHei-Bold-5f" d="M 2869 -1675 
L 0 -1675 
L 0 -1272 
L 2869 -1272 
L 2869 -1675 
z
" transform="scale(0.015625)"/>
     <path id="MicrosoftYaHei-Bold-70" d="M 1469 416 
L 1469 -1591 
L 459 -1591 
L 459 3456 
L 1469 3456 
L 1469 2928 
L 1481 2928 
Q 1878 3541 2603 3541 
Q 3263 3541 3634 3080 
Q 4006 2619 4006 1825 
Q 4006 959 3575 437 
Q 3144 -84 2444 -84 
Q 1809 -84 1481 416 
L 1469 416 
z
M 1453 1528 
Q 1453 1159 1653 925 
Q 1853 691 2172 691 
Q 2550 691 2761 984 
Q 2972 1278 2972 1816 
Q 2972 2766 2231 2766 
Q 1888 2766 1670 2503 
Q 1453 2241 1453 1828 
L 1453 1528 
z
" transform="scale(0.015625)"/>
     <path id="MicrosoftYaHei-Bold-72" d="M 2663 2541 
Q 2478 2647 2216 2647 
Q 1872 2647 1670 2384 
Q 1469 2122 1469 1663 
L 1469 0 
L 459 0 
L 459 3456 
L 1469 3456 
L 1469 2806 
L 1481 2806 
Q 1731 3516 2391 3516 
Q 2569 3516 2663 3475 
L 2663 2541 
z
" transform="scale(0.015625)"/>
     <path id="MicrosoftYaHei-Bold-6d" d="M 5881 0 
L 4875 0 
L 4875 1972 
Q 4875 2766 4297 2766 
Q 4028 2766 3850 2525 
Q 3672 2284 3672 1938 
L 3672 0 
L 2666 0 
L 2666 1997 
Q 2666 2766 2094 2766 
Q 1809 2766 1639 2536 
Q 1469 2306 1469 1928 
L 1469 0 
L 459 0 
L 459 3456 
L 1469 3456 
L 1469 2916 
L 1481 2916 
Q 1663 3213 1963 3377 
Q 2263 3541 2594 3541 
Q 3322 3541 3591 2888 
Q 3991 3541 4753 3541 
Q 5881 3541 5881 2147 
L 5881 0 
z
" transform="scale(0.015625)"/>
     <path id="MicrosoftYaHei-Bold-73" d="M 369 928 
Q 888 613 1384 613 
Q 2009 613 2009 947 
Q 2009 1184 1494 1344 
Q 850 1544 609 1789 
Q 369 2034 369 2453 
Q 369 2963 781 3252 
Q 1194 3541 1863 3541 
Q 2338 3541 2778 3400 
L 2778 2606 
Q 2375 2844 1891 2844 
Q 1650 2844 1503 2758 
Q 1356 2672 1356 2531 
Q 1356 2294 1794 2147 
Q 2263 1991 2498 1862 
Q 2734 1734 2857 1525 
Q 2981 1316 2981 1041 
Q 2981 506 2553 211 
Q 2125 -84 1409 -84 
Q 847 -84 369 94 
L 369 928 
z
" transform="scale(0.015625)"/>
     <path id="MicrosoftYaHei-Bold-2d" d="M 2328 1497 
L 481 1497 
L 481 2209 
L 2328 2209 
L 2328 1497 
z
" transform="scale(0.015625)"/>
     <path id="MicrosoftYaHei-Bold-50" d="M 1591 1688 
L 1591 0 
L 559 0 
L 559 4841 
L 2225 4841 
Q 4031 4841 4031 3309 
Q 4031 2566 3486 2117 
Q 2941 1669 2122 1688 
L 1591 1688 
z
M 1591 4041 
L 1591 2478 
L 2038 2478 
Q 2947 2478 2947 3269 
Q 2947 4041 2047 4041 
L 1591 4041 
z
" transform="scale(0.015625)"/>
     <path id="MicrosoftYaHei-Bold-4f" d="M 256 2356 
Q 256 3494 920 4208 
Q 1584 4922 2675 4922 
Q 3713 4922 4345 4231 
Q 4978 3541 4978 2456 
Q 4978 1325 4320 620 
Q 3663 -84 2597 -84 
Q 1556 -84 906 598 
Q 256 1281 256 2356 
z
M 1341 2413 
Q 1341 1706 1681 1257 
Q 2022 809 2616 809 
Q 3222 809 3559 1239 
Q 3897 1669 3897 2394 
Q 3897 3150 3569 3589 
Q 3241 4028 2644 4028 
Q 2038 4028 1689 3578 
Q 1341 3128 1341 2413 
z
" transform="scale(0.015625)"/>
     <path id="MicrosoftYaHei-Bold-521d" d="M 1288 5359 
Q 1619 4997 2031 4453 
L 1516 4109 
L 2294 4109 
L 2294 3378 
Q 2019 2847 1700 2369 
L 1700 2256 
Q 1809 2175 1909 2097 
Q 2209 2516 2419 2878 
L 2994 2516 
Q 2716 2138 2381 1734 
Q 2619 1544 2813 1378 
L 2363 834 
Q 2016 1166 1700 1441 
L 1700 -866 
L 913 -866 
L 913 1338 
Q 641 1025 344 741 
Q 231 1228 94 1678 
Q 831 2278 1363 3303 
L 156 3303 
L 156 4109 
L 1231 4109 
Q 981 4472 613 4928 
L 1288 5359 
z
M 3919 -697 
Q 3838 -266 3700 253 
Q 4153 209 4563 209 
Q 5006 209 5040 675 
Q 5075 1141 5113 4159 
L 4097 4159 
Q 4050 2622 3984 1959 
Q 3919 1297 3595 525 
Q 3272 -247 2644 -859 
Q 2369 -578 1925 -216 
Q 2450 234 2734 806 
Q 3019 1378 3105 1972 
Q 3191 2566 3219 4159 
L 2488 4159 
L 2488 4947 
L 6013 4947 
L 5938 1331 
L 5906 491 
Q 5906 -44 5686 -328 
Q 5466 -613 5067 -647 
Q 4669 -681 3919 -697 
z
" transform="scale(0.015625)"/>
     <path id="MicrosoftYaHei-Bold-59cb" d="M 2863 -853 
L 2863 356 
L 2256 -291 
Q 2000 -25 1744 225 
Q 1309 -381 638 -847 
Q 350 -466 69 -153 
Q 706 259 1119 816 
Q 669 1228 225 1597 
Q 441 2363 616 3359 
L 119 3359 
L 119 4134 
L 741 4134 
Q 825 4706 900 5347 
L 1731 5259 
L 1550 4134 
L 2669 4134 
Q 2663 3728 2638 3363 
Q 3213 3972 3875 5359 
L 4800 5097 
Q 4225 4159 3594 3378 
Q 4328 3422 5075 3484 
Q 4847 3944 4619 4359 
L 5294 4634 
Q 5831 3747 6369 2659 
L 5613 2341 
L 5391 2828 
Q 3522 2697 2863 2578 
L 2625 3169 
Q 2519 1791 2156 953 
L 2863 394 
L 2863 2116 
L 5981 2116 
L 5981 -828 
L 5144 -828 
L 5144 -472 
L 3700 -472 
L 3700 -853 
L 2863 -853 
z
M 1088 1797 
L 1503 1469 
Q 1809 2241 1863 3359 
L 1413 3359 
Q 1259 2541 1088 1797 
z
M 5144 1328 
L 3700 1328 
L 3700 316 
L 5144 316 
L 5144 1328 
z
" transform="scale(0.015625)"/>
     <path id="MicrosoftYaHei-Bold-8bad" d="M 956 5259 
Q 1475 4753 1925 4234 
L 1263 3684 
Q 769 4328 356 4747 
L 956 5259 
z
M 2450 5184 
L 3281 5184 
L 3281 2066 
Q 3281 209 2275 -884 
Q 1844 -528 1519 -328 
Q 2450 659 2450 2134 
L 2450 5184 
z
M 5238 5184 
L 6069 5184 
L 6069 -784 
L 5238 -784 
L 5238 5184 
z
M 3856 4953 
L 4663 4953 
L 4663 -416 
L 3856 -416 
L 3856 4953 
z
M 2019 1772 
Q 2050 1466 2175 916 
Q 1556 353 925 -341 
L 488 266 
Q 650 447 650 772 
L 650 2422 
L 125 2422 
L 125 3266 
L 1475 3266 
L 1475 1297 
Q 1769 1541 2019 1772 
z
" transform="scale(0.015625)"/>
     <path id="MicrosoftYaHei-Bold-7ec3" d="M 2400 3516 
L 2984 3516 
L 3159 4028 
L 2263 4028 
L 2263 4753 
L 3394 4753 
L 3575 5347 
L 4413 5291 
L 4238 4753 
L 6000 4753 
L 6000 4028 
L 3994 4028 
L 3809 3516 
L 4969 3516 
L 4969 2191 
L 6025 2191 
L 6025 1484 
L 4969 1484 
L 4969 297 
Q 4969 -131 4831 -397 
Q 4694 -663 4444 -758 
Q 4194 -853 3394 -853 
Q 3294 -309 3225 -34 
Q 3525 -72 3756 -72 
Q 4125 -72 4125 491 
L 4125 1484 
L 2513 1484 
L 2513 2291 
Q 2613 2525 2716 2791 
L 2400 2791 
L 2400 3516 
z
M 3306 2191 
L 4125 2191 
L 4125 2791 
L 3541 2791 
L 3306 2191 
z
M 1013 3372 
L 1419 3388 
L 1744 3966 
L 2413 3659 
L 1356 1797 
Q 1894 1872 2294 1941 
Q 2263 1684 2231 1159 
Q 931 984 475 866 
L 244 1566 
Q 531 1816 1009 2653 
L 306 2584 
L 75 3297 
Q 575 3966 1219 5341 
L 2000 5028 
Q 1450 4053 1013 3372 
z
M 75 372 
Q 1100 478 2288 672 
Q 2275 350 2272 116 
Q 2722 741 3000 1309 
L 3706 1003 
Q 3294 197 2738 -597 
Q 2469 -409 2078 -191 
L 238 -503 
L 75 372 
z
M 5000 978 
L 5619 1278 
Q 5994 584 6369 -197 
L 5713 -534 
Q 5356 316 5000 978 
z
" transform="scale(0.015625)"/>
     <path id="MicrosoftYaHei-Bold-28" d="M 1606 -1100 
Q 525 97 525 1853 
Q 525 3550 1606 4841 
L 2431 4841 
Q 1406 3497 1406 1853 
Q 1406 216 2438 -1100 
L 1606 -1100 
z
" transform="scale(0.015625)"/>
     <path id="MicrosoftYaHei-Bold-4f3d" d="M 2050 5284 
L 2788 5284 
Q 2775 4666 2769 4166 
L 3863 4166 
L 3863 72 
Q 3863 -653 3181 -666 
Q 2844 -684 2550 -678 
Q 2494 -316 2394 41 
Q 2219 -428 1956 -834 
Q 1744 -466 1481 -53 
Q 2038 853 2038 3384 
L 1650 3384 
L 1650 4166 
L 2038 4166 
Q 2044 4684 2050 5284 
z
M 4200 -597 
L 4200 4697 
L 6063 4697 
L 6063 -578 
L 5331 -578 
L 5331 -122 
L 4931 -122 
L 4931 -597 
L 4200 -597 
z
M 1075 5297 
L 1794 5128 
Q 1650 4509 1456 3916 
L 1456 -803 
L 738 -803 
L 738 2141 
Q 544 1753 331 1378 
Q 263 1759 119 2478 
Q 788 3884 1075 5297 
z
M 2806 128 
Q 3119 116 3113 491 
L 3113 3384 
L 2769 3384 
Q 2750 1103 2425 128 
Q 2619 122 2806 128 
z
M 5331 3891 
L 4931 3891 
L 4931 684 
L 5331 684 
L 5331 3891 
z
" transform="scale(0.015625)"/>
     <path id="MicrosoftYaHei-Bold-9a6c" d="M 1081 4009 
L 2063 4009 
L 1925 2741 
L 4047 2741 
L 4206 4284 
L 663 4284 
L 663 5066 
L 5263 5066 
L 5028 2741 
L 6019 2741 
Q 5978 925 5934 378 
Q 5891 -169 5566 -439 
Q 5241 -709 4694 -728 
Q 4147 -747 2944 -747 
Q 2856 -303 2719 191 
Q 3931 141 4381 141 
Q 4666 141 4780 239 
Q 4894 338 4950 470 
Q 5006 603 5038 1966 
L 881 1966 
L 1081 4009 
z
M 150 1484 
L 4638 1484 
L 4638 672 
L 150 672 
L 150 1484 
z
" transform="scale(0.015625)"/>
     <path id="MicrosoftYaHei-Bold-5206" d="M 6350 3028 
Q 6088 2703 5750 2228 
Q 5519 2409 5303 2603 
Q 5219 606 5172 190 
Q 5125 -225 4862 -451 
Q 4600 -678 4128 -678 
Q 3484 -678 2913 -659 
Q 2856 -141 2781 284 
Q 3594 216 3956 216 
Q 4172 216 4230 408 
Q 4288 600 4325 1978 
L 2781 1978 
Q 2728 1100 2529 631 
Q 2331 163 1907 -215 
Q 1484 -594 844 -872 
Q 456 -353 194 -78 
Q 750 144 1111 414 
Q 1472 684 1630 989 
Q 1788 1294 1841 1978 
L 950 1978 
L 950 2475 
Q 794 2356 631 2247 
Q 344 2653 63 2953 
Q 1475 3947 2194 5316 
L 3031 4953 
Q 2378 3722 1391 2841 
L 5047 2841 
Q 4088 3766 3463 4903 
L 4238 5303 
Q 5038 3922 6350 3028 
z
" transform="scale(0.015625)"/>
     <path id="MicrosoftYaHei-Bold-5e03" d="M 3919 -834 
L 3050 -834 
L 3050 2034 
L 2063 2034 
L 2063 -359 
L 1200 -359 
L 1200 1641 
Q 825 1238 400 866 
Q 244 1403 113 1741 
Q 1128 2669 1731 3709 
L 200 3709 
L 200 4541 
L 2141 4541 
Q 2294 4916 2400 5303 
L 3275 5203 
Q 3169 4866 3038 4541 
L 6250 4541 
L 6250 3709 
L 2659 3709 
Q 2406 3222 2094 2766 
L 3050 2766 
L 3050 3566 
L 3919 3566 
L 3919 2766 
L 5800 2766 
L 5800 741 
Q 5800 338 5628 112 
Q 5456 -113 5178 -164 
Q 4900 -216 4306 -216 
Q 4225 291 4156 609 
Q 4456 584 4544 584 
Q 4950 584 4950 1034 
L 4950 2034 
L 3919 2034 
L 3919 -834 
z
" transform="scale(0.015625)"/>
     <path id="MicrosoftYaHei-Bold-5c16" d="M 2750 5328 
L 3669 5328 
L 3669 2878 
L 2750 2878 
L 2750 5328 
z
M 1794 4816 
L 2463 4216 
Q 1700 3422 819 2741 
Q 525 3147 238 3428 
Q 1181 4103 1794 4816 
z
M 3925 4203 
L 4506 4803 
Q 5244 4253 6125 3491 
L 5525 2803 
Q 4731 3572 3925 4203 
z
M 250 2216 
L 2728 2216 
Q 2744 2406 2750 2622 
L 3675 2622 
Q 3669 2416 3653 2216 
L 6175 2216 
L 6175 1416 
L 3925 1416 
Q 4659 269 6269 16 
Q 6044 -297 5706 -822 
Q 4069 -444 3272 975 
Q 2741 -338 650 -866 
Q 425 -484 94 -9 
Q 2153 344 2569 1416 
L 250 1416 
L 250 2216 
z
" transform="scale(0.015625)"/>
     <path id="MicrosoftYaHei-Bold-5cf0" d="M 2425 4241 
L 2425 2972 
Q 3169 3116 3738 3353 
Q 3538 3522 3375 3703 
Q 3188 3509 2994 3322 
Q 2756 3603 2531 3797 
Q 3188 4403 3750 5322 
L 4613 5222 
Q 4481 5034 4344 4859 
L 5869 4859 
L 5869 4253 
Q 5588 3759 5106 3372 
Q 5638 3216 6338 3134 
Q 6250 2847 6138 2416 
Q 5069 2603 4400 2916 
Q 3669 2541 2663 2309 
Q 2544 2628 2425 2884 
L 2425 -266 
L 1888 -266 
L 1888 9 
L 250 -116 
L 250 4241 
L 788 4241 
L 788 647 
L 1006 666 
L 1006 5253 
L 1669 5253 
L 1669 716 
L 1888 734 
L 1888 4241 
L 2425 4241 
z
M 2613 566 
L 4013 566 
L 4013 903 
L 2894 903 
L 2894 1428 
L 4013 1428 
L 4013 1766 
L 2794 1766 
L 2794 2291 
L 4013 2291 
L 4013 2584 
L 4788 2584 
L 4788 2291 
L 5994 2291 
L 5994 1766 
L 4788 1766 
L 4788 1428 
L 5925 1428 
L 5925 903 
L 4788 903 
L 4788 566 
L 6213 566 
L 6213 -16 
L 4788 -16 
L 4788 -847 
L 4013 -847 
L 4013 -16 
L 2613 -16 
L 2613 566 
z
M 4381 3691 
Q 4744 3922 4994 4209 
L 3825 4209 
Q 3813 4197 3806 4184 
Q 4038 3916 4381 3691 
z
" transform="scale(0.015625)"/>
     <path id="MicrosoftYaHei-Bold-2c" d="M 1419 841 
L 916 -859 
L 134 -859 
L 484 841 
L 1419 841 
z
" transform="scale(0.015625)"/>
     <path id="MicrosoftYaHei-Bold-68" d="M 3725 0 
L 2719 0 
L 2719 1969 
Q 2719 2766 2138 2766 
Q 1847 2766 1658 2544 
Q 1469 2322 1469 1969 
L 1469 0 
L 459 0 
L 459 5116 
L 1469 5116 
L 1469 2938 
L 1481 2938 
Q 1878 3541 2550 3541 
Q 3725 3541 3725 2122 
L 3725 0 
z
" transform="scale(0.015625)"/>
     <path id="MicrosoftYaHei-Bold-35" d="M 541 125 
L 541 997 
Q 1044 691 1613 691 
Q 2041 691 2283 902 
Q 2525 1113 2525 1472 
Q 2525 2225 1494 2225 
Q 1113 2225 616 2169 
L 797 4841 
L 3359 4841 
L 3359 4009 
L 1613 4009 
L 1544 2991 
Q 1803 3013 2022 3013 
Q 2731 3013 3142 2625 
Q 3553 2238 3553 1575 
Q 3553 844 3056 380 
Q 2559 -84 1706 -84 
Q 1016 -84 541 125 
z
" transform="scale(0.015625)"/>
     <path id="MicrosoftYaHei-Bold-63" d="M 3050 128 
Q 2688 -84 2019 -84 
Q 1228 -84 740 397 
Q 253 878 253 1644 
Q 253 2525 778 3033 
Q 1303 3541 2178 3541 
Q 2769 3541 3053 3378 
L 3053 2513 
Q 2706 2766 2297 2766 
Q 1834 2766 1554 2484 
Q 1275 2203 1275 1713 
Q 1275 1238 1540 964 
Q 1806 691 2263 691 
Q 2666 691 3050 947 
L 3050 128 
z
" transform="scale(0.015625)"/>
     <path id="MicrosoftYaHei-Bold-32" d="M 1500 841 
L 3553 841 
L 3553 0 
L 334 0 
L 334 359 
Q 334 738 473 1050 
Q 613 1363 856 1633 
Q 1100 1903 1613 2266 
Q 2081 2616 2268 2886 
Q 2456 3156 2456 3459 
Q 2456 4113 1744 4113 
Q 1119 4113 550 3613 
L 550 4513 
Q 1184 4922 1975 4922 
Q 2700 4922 3122 4551 
Q 3544 4181 3544 3531 
Q 3544 3169 3422 2876 
Q 3300 2584 3069 2328 
Q 2838 2072 2328 1713 
Q 1838 1363 1669 1172 
Q 1500 981 1500 841 
z
" transform="scale(0.015625)"/>
     <path id="MicrosoftYaHei-Bold-29" d="M 59 -1100 
Q 1097 216 1097 1853 
Q 1097 3484 59 4841 
L 888 4841 
Q 1978 3544 1978 1853 
Q 1978 113 881 -1100 
L 59 -1100 
z
" transform="scale(0.015625)"/>
    </defs>
    <use xlink:href="#MicrosoftYaHei-Bold-6536"/>
    <use xlink:href="#MicrosoftYaHei-Bold-655b" transform="translate(100 0)"/>
    <use xlink:href="#MicrosoftYaHei-Bold-6027" transform="translate(200 0)"/>
    <use xlink:href="#MicrosoftYaHei-Bold-6307" transform="translate(300 0)"/>
    <use xlink:href="#MicrosoftYaHei-Bold-6807" transform="translate(400 0)"/>
    <use xlink:href="#MicrosoftYaHei-Bold-52a8" transform="translate(500 0)"/>
    <use xlink:href="#MicrosoftYaHei-Bold-6001" transform="translate(600 0)"/>
    <use xlink:href="#MicrosoftYaHei-Bold-56fe" transform="translate(700 0)"/>
    <use xlink:href="#MicrosoftYaHei-Bold-3a" transform="translate(800 0)"/>
    <use xlink:href="#MicrosoftYaHei-Bold-20" transform="translate(828.564453 0)"/>
    <use xlink:href="#MicrosoftYaHei-Bold-64" transform="translate(858.349609 0)"/>
    <use xlink:href="#MicrosoftYaHei-Bold-65" transform="translate(924.804688 0)"/>
    <use xlink:href="#MicrosoftYaHei-Bold-66" transform="translate(983.007812 0)"/>
    <use xlink:href="#MicrosoftYaHei-Bold-61" transform="translate(1023.535156 0)"/>
    <use xlink:href="#MicrosoftYaHei-Bold-75" transform="translate(1081.298828 0)"/>
    <use xlink:href="#MicrosoftYaHei-Bold-6c" transform="translate(1146.09375 0)"/>
    <use xlink:href="#MicrosoftYaHei-Bold-74" transform="translate(1175.683594 0)"/>
    <use xlink:href="#MicrosoftYaHei-Bold-5f" transform="translate(1217.089844 0)"/>
    <use xlink:href="#MicrosoftYaHei-Bold-70" transform="translate(1261.914062 0)"/>
    <use xlink:href="#MicrosoftYaHei-Bold-61" transform="translate(1327.390625 0)"/>
    <use xlink:href="#MicrosoftYaHei-Bold-72" transform="translate(1385.154297 0)"/>
    <use xlink:href="#MicrosoftYaHei-Bold-61" transform="translate(1427.537109 0)"/>
    <use xlink:href="#MicrosoftYaHei-Bold-6d" transform="translate(1485.300781 0)"/>
    <use xlink:href="#MicrosoftYaHei-Bold-73" transform="translate(1583.494141 0)"/>
    <use xlink:href="#MicrosoftYaHei-Bold-20" transform="translate(1632.859375 0)"/>
    <use xlink:href="#MicrosoftYaHei-Bold-2d" transform="translate(1662.644531 0)"/>
    <use xlink:href="#MicrosoftYaHei-Bold-20" transform="translate(1706.296875 0)"/>
    <use xlink:href="#MicrosoftYaHei-Bold-50" transform="translate(1736.082031 0)"/>
    <use xlink:href="#MicrosoftYaHei-Bold-50" transform="translate(1801.804688 0)"/>
    <use xlink:href="#MicrosoftYaHei-Bold-4f" transform="translate(1867.527344 0)"/>
    <use xlink:href="#MicrosoftYaHei-Bold-20" transform="translate(1949.363281 0)"/>
    <use xlink:href="#MicrosoftYaHei-Bold-2d" transform="translate(1979.148438 0)"/>
    <use xlink:href="#MicrosoftYaHei-Bold-20" transform="translate(2022.800781 0)"/>
    <use xlink:href="#MicrosoftYaHei-Bold-521d" transform="translate(2052.585938 0)"/>
    <use xlink:href="#MicrosoftYaHei-Bold-59cb" transform="translate(2152.585938 0)"/>
    <use xlink:href="#MicrosoftYaHei-Bold-8bad" transform="translate(2252.585938 0)"/>
    <use xlink:href="#MicrosoftYaHei-Bold-7ec3" transform="translate(2352.585938 0)"/>
    <use xlink:href="#MicrosoftYaHei-Bold-20" transform="translate(2452.585938 0)"/>
    <use xlink:href="#MicrosoftYaHei-Bold-28" transform="translate(2482.371094 0)"/>
    <use xlink:href="#MicrosoftYaHei-Bold-4f3d" transform="translate(2521.335938 0)"/>
    <use xlink:href="#MicrosoftYaHei-Bold-9a6c" transform="translate(2621.335938 0)"/>
    <use xlink:href="#MicrosoftYaHei-Bold-5206" transform="translate(2721.335938 0)"/>
    <use xlink:href="#MicrosoftYaHei-Bold-5e03" transform="translate(2821.335938 0)"/>
    <use xlink:href="#MicrosoftYaHei-Bold-28" transform="translate(2921.335938 0)"/>
    <use xlink:href="#MicrosoftYaHei-Bold-5c16" transform="translate(2960.300781 0)"/>
    <use xlink:href="#MicrosoftYaHei-Bold-5cf0" transform="translate(3060.300781 0)"/>
    <use xlink:href="#MicrosoftYaHei-Bold-2c" transform="translate(3160.300781 0)"/>
    <use xlink:href="#MicrosoftYaHei-Bold-73" transform="translate(3188.865234 0)"/>
    <use xlink:href="#MicrosoftYaHei-Bold-68" transform="translate(3238.230469 0)"/>
    <use xlink:href="#MicrosoftYaHei-Bold-61" transform="translate(3302.78125 0)"/>
    <use xlink:href="#MicrosoftYaHei-Bold-70" transform="translate(3360.544922 0)"/>
    <use xlink:href="#MicrosoftYaHei-Bold-65" transform="translate(3427.146484 0)"/>
    <use xlink:href="#MicrosoftYaHei-Bold-35" transform="translate(3485.349609 0)"/>
    <use xlink:href="#MicrosoftYaHei-Bold-2c" transform="translate(3547.019531 0)"/>
    <use xlink:href="#MicrosoftYaHei-Bold-73" transform="translate(3575.583984 0)"/>
    <use xlink:href="#MicrosoftYaHei-Bold-63" transform="translate(3624.949219 0)"/>
    <use xlink:href="#MicrosoftYaHei-Bold-61" transform="translate(3676.609375 0)"/>
    <use xlink:href="#MicrosoftYaHei-Bold-6c" transform="translate(3734.373047 0)"/>
    <use xlink:href="#MicrosoftYaHei-Bold-65" transform="translate(3763.962891 0)"/>
    <use xlink:href="#MicrosoftYaHei-Bold-32" transform="translate(3822.166016 0)"/>
    <use xlink:href="#MicrosoftYaHei-Bold-29" transform="translate(3883.835938 0)"/>
    <use xlink:href="#MicrosoftYaHei-Bold-29" transform="translate(3922.800781 0)"/>
   </g>
   <!-- (环境: 伽马分布(尖峰,shape5,scale2 | 复杂度: 0.78) -->
   <g style="fill: #262626" transform="translate(238.964375 40.862) scale(0.16 -0.16)">
    <defs>
     <path id="MicrosoftYaHei-Bold-73af" d="M 5163 2916 
Q 5825 1797 6300 878 
L 5544 472 
Q 5081 1400 4550 2413 
L 4550 -834 
L 3706 -834 
L 3706 2013 
Q 3272 1200 2700 484 
Q 2525 641 2378 766 
Q 2347 503 2331 9 
L 175 -328 
L 81 522 
L 863 613 
L 863 2003 
L 213 2003 
L 213 2834 
L 863 2834 
L 863 4066 
L 175 4066 
L 175 4897 
L 2375 4897 
L 2375 4066 
L 1694 4066 
L 1694 2834 
L 2356 2834 
L 2356 2003 
L 1694 2003 
L 1694 728 
L 2306 825 
Q 2134 972 2000 1072 
Q 3194 2478 3675 4084 
L 2606 4084 
L 2606 4916 
L 6075 4916 
L 6075 4084 
L 4556 4084 
Q 4400 3559 4200 3066 
L 4550 3066 
L 4550 2591 
L 5163 2916 
z
" transform="scale(0.015625)"/>
     <path id="MicrosoftYaHei-Bold-5883" d="M 6044 4241 
L 5000 4241 
L 5563 4103 
Q 5450 3944 5322 3778 
L 6231 3778 
L 6231 3153 
L 2113 3153 
L 2113 3778 
L 2863 3778 
L 2638 4109 
L 3228 4241 
L 2256 4241 
L 2256 4866 
L 3591 4866 
Q 3506 5028 3400 5209 
L 4438 5353 
Q 4509 5125 4575 4866 
L 6044 4866 
L 6044 4241 
z
M 3853 3778 
L 4350 3778 
Q 4506 4009 4625 4241 
L 3503 4241 
Q 3681 4041 3853 3778 
z
M 263 -328 
L 100 603 
L 706 775 
L 706 2997 
L 175 2997 
L 175 3853 
L 706 3853 
L 706 5328 
L 1544 5328 
L 1544 3853 
L 1981 3853 
L 1981 2997 
L 1544 2997 
L 1544 1025 
L 2094 1197 
Q 2081 981 2081 759 
Q 2081 538 2094 309 
Q 1213 16 263 -328 
z
M 2244 2878 
L 5894 2878 
L 5894 603 
L 5038 603 
L 5038 141 
Q 5038 -91 5269 -91 
Q 5441 -91 5512 7 
Q 5584 106 5619 584 
Q 5956 428 6319 322 
Q 6284 66 6212 -223 
Q 6141 -513 5908 -652 
Q 5675 -791 5281 -791 
L 5006 -791 
Q 4238 -791 4238 -97 
L 4238 603 
L 3841 603 
Q 3647 -478 2331 -909 
Q 2125 -622 1763 -178 
Q 2781 88 2994 603 
L 2244 603 
L 2244 2878 
z
M 5094 2291 
L 3044 2291 
L 3044 2009 
L 5094 2009 
L 5094 2291 
z
M 5094 1191 
L 5094 1472 
L 3044 1472 
L 3044 1191 
L 5094 1191 
z
" transform="scale(0.015625)"/>
     <path id="MicrosoftYaHei-Bold-7c" d="M 1500 -1622 
L 691 -1622 
L 691 5288 
L 1500 5288 
L 1500 -1622 
z
" transform="scale(0.015625)"/>
     <path id="MicrosoftYaHei-Bold-590d" d="M 5738 1528 
L 5738 1003 
Q 5091 600 4322 259 
Q 5197 78 6306 -16 
Q 6000 -428 5819 -791 
Q 4391 -569 3278 -153 
Q 2125 -559 744 -853 
Q 550 -541 275 -178 
Q 1394 3 2341 256 
Q 1872 500 1478 788 
Q 1069 416 581 116 
Q 363 391 75 691 
Q 925 1194 1459 1816 
L 844 1816 
L 844 3406 
Q 600 3128 325 2872 
Q 238 3266 94 3759 
Q 831 4484 1188 5334 
L 2063 5334 
Q 1978 5144 1888 4959 
L 6181 4959 
L 6181 4334 
L 1538 4334 
Q 1434 4172 1325 4016 
L 5738 4016 
L 5738 1816 
L 2372 1816 
Q 2272 1666 2163 1528 
L 5738 1528 
z
M 4906 3478 
L 1675 3478 
L 1675 3141 
L 4906 3141 
L 4906 3478 
z
M 4906 2353 
L 4906 2691 
L 1675 2691 
L 1675 2353 
L 4906 2353 
z
M 3269 541 
Q 3897 753 4438 1009 
L 2231 1009 
Q 2669 744 3269 541 
z
" transform="scale(0.015625)"/>
     <path id="MicrosoftYaHei-Bold-6742" d="M 5500 4203 
Q 5919 4078 6338 3978 
Q 6269 3328 6188 2984 
Q 6063 2453 5400 2453 
L 4600 2453 
Q 3900 2453 3900 3153 
L 3900 3997 
L 2781 3997 
Q 2588 2603 613 2141 
Q 419 2466 106 2884 
Q 1644 3172 1869 3997 
L 456 3997 
L 456 4753 
L 1981 4753 
Q 2006 5053 2006 5328 
L 2894 5328 
Q 2894 5084 2869 4753 
L 4800 4753 
L 4800 3459 
Q 4800 3203 5056 3203 
L 5206 3203 
Q 5394 3203 5431 3466 
Q 5469 3816 5500 4203 
z
M 188 2072 
L 2800 2072 
L 2800 2666 
L 3706 2666 
L 3706 2072 
L 6175 2072 
L 6175 1309 
L 3706 1309 
L 3706 159 
Q 3706 -684 2900 -766 
Q 2613 -797 2000 -803 
Q 1906 -334 1794 72 
Q 2200 41 2456 41 
Q 2800 41 2800 403 
L 2800 1309 
L 188 1309 
L 188 2072 
z
M 4000 597 
L 4519 1172 
Q 5425 628 6263 34 
L 5725 -634 
Q 4956 -34 4000 597 
z
M 1675 1166 
L 2263 559 
Q 1406 -84 538 -634 
Q 288 -247 63 66 
Q 963 566 1675 1166 
z
" transform="scale(0.015625)"/>
     <path id="MicrosoftYaHei-Bold-5ea6" d="M 5656 1697 
L 5656 1022 
Q 5156 447 4656 97 
Q 5344 -34 6306 -66 
Q 6119 -428 5938 -822 
Q 4556 -653 3719 -353 
Q 2825 -653 1494 -872 
Q 1338 -522 1088 -178 
Q 2100 -128 2888 78 
Q 2369 453 1938 1022 
L 1538 1022 
L 1538 1697 
L 5656 1697 
z
M 1325 2478 
Q 1338 134 700 -884 
Q 356 -553 19 -297 
Q 550 697 525 2591 
L 525 4772 
L 3013 4772 
Q 2944 4953 2831 5209 
L 3869 5359 
Q 3981 5072 4094 4772 
L 6256 4772 
L 6256 4072 
L 1325 4072 
L 1325 2478 
z
M 1463 3684 
L 2144 3684 
L 2144 3947 
L 2944 3947 
L 2944 3684 
L 4494 3684 
L 4494 3947 
L 5294 3947 
L 5294 3684 
L 6144 3684 
L 6144 3009 
L 5294 3009 
L 5294 1991 
L 2144 1991 
L 2144 3009 
L 1463 3009 
L 1463 3684 
z
M 3756 378 
Q 4325 641 4725 1022 
L 2825 1022 
Q 3225 622 3756 378 
z
M 4494 2628 
L 4494 3009 
L 2944 3009 
L 2944 2628 
L 4494 2628 
z
" transform="scale(0.015625)"/>
     <path id="MicrosoftYaHei-Bold-30" d="M 244 2341 
Q 244 3597 706 4259 
Q 1169 4922 2044 4922 
Q 3713 4922 3713 2453 
Q 3713 1238 3259 577 
Q 2806 -84 1950 -84 
Q 244 -84 244 2341 
z
M 1266 2366 
Q 1266 691 1981 691 
Q 2684 691 2684 2416 
Q 2684 4147 2000 4147 
Q 1266 4147 1266 2366 
z
" transform="scale(0.015625)"/>
     <path id="MicrosoftYaHei-Bold-2e" d="M 313 453 
Q 313 688 491 838 
Q 669 988 916 988 
Q 1166 988 1337 834 
Q 1509 681 1509 453 
Q 1509 213 1337 64 
Q 1166 -84 903 -84 
Q 659 -84 486 69 
Q 313 222 313 453 
z
" transform="scale(0.015625)"/>
     <path id="MicrosoftYaHei-Bold-37" d="M 3675 4225 
Q 3088 3172 2798 2528 
Q 2509 1884 2328 1275 
Q 2147 666 2050 0 
L 966 0 
Q 1122 947 1517 1917 
Q 1913 2888 2609 4009 
L 300 4009 
L 300 4841 
L 3675 4841 
L 3675 4225 
z
" transform="scale(0.015625)"/>
     <path id="MicrosoftYaHei-Bold-38" d="M 269 1303 
Q 269 1725 512 2053 
Q 756 2381 1219 2534 
Q 850 2719 648 3003 
Q 447 3288 447 3634 
Q 447 3997 645 4292 
Q 844 4588 1200 4755 
Q 1556 4922 1997 4922 
Q 2441 4922 2800 4758 
Q 3159 4594 3359 4298 
Q 3559 4003 3559 3647 
Q 3559 3309 3339 3018 
Q 3119 2728 2747 2559 
Q 3200 2403 3453 2076 
Q 3706 1750 3706 1313 
Q 3706 697 3228 309 
Q 2750 -78 1988 -78 
Q 1225 -78 747 309 
Q 269 697 269 1303 
z
M 1278 1394 
Q 1278 1056 1472 853 
Q 1666 650 1991 650 
Q 2303 650 2503 853 
Q 2703 1056 2703 1394 
Q 2703 1709 2500 1920 
Q 2297 2131 1991 2131 
Q 1675 2131 1476 1920 
Q 1278 1709 1278 1394 
z
M 1428 3531 
Q 1428 3266 1592 3077 
Q 1756 2888 2006 2888 
Q 2247 2888 2415 3072 
Q 2584 3256 2584 3531 
Q 2584 3806 2420 3997 
Q 2256 4188 2006 4188 
Q 1750 4188 1589 3997 
Q 1428 3806 1428 3531 
z
" transform="scale(0.015625)"/>
    </defs>
    <use xlink:href="#MicrosoftYaHei-Bold-28"/>
    <use xlink:href="#MicrosoftYaHei-Bold-73af" transform="translate(38.964844 0)"/>
    <use xlink:href="#MicrosoftYaHei-Bold-5883" transform="translate(138.964844 0)"/>
    <use xlink:href="#MicrosoftYaHei-Bold-3a" transform="translate(238.964844 0)"/>
    <use xlink:href="#MicrosoftYaHei-Bold-20" transform="translate(267.529297 0)"/>
    <use xlink:href="#MicrosoftYaHei-Bold-4f3d" transform="translate(297.314453 0)"/>
    <use xlink:href="#MicrosoftYaHei-Bold-9a6c" transform="translate(397.314453 0)"/>
    <use xlink:href="#MicrosoftYaHei-Bold-5206" transform="translate(497.314453 0)"/>
    <use xlink:href="#MicrosoftYaHei-Bold-5e03" transform="translate(597.314453 0)"/>
    <use xlink:href="#MicrosoftYaHei-Bold-28" transform="translate(697.314453 0)"/>
    <use xlink:href="#MicrosoftYaHei-Bold-5c16" transform="translate(736.279297 0)"/>
    <use xlink:href="#MicrosoftYaHei-Bold-5cf0" transform="translate(836.279297 0)"/>
    <use xlink:href="#MicrosoftYaHei-Bold-2c" transform="translate(936.279297 0)"/>
    <use xlink:href="#MicrosoftYaHei-Bold-73" transform="translate(964.84375 0)"/>
    <use xlink:href="#MicrosoftYaHei-Bold-68" transform="translate(1014.208984 0)"/>
    <use xlink:href="#MicrosoftYaHei-Bold-61" transform="translate(1078.759766 0)"/>
    <use xlink:href="#MicrosoftYaHei-Bold-70" transform="translate(1136.523438 0)"/>
    <use xlink:href="#MicrosoftYaHei-Bold-65" transform="translate(1203.125 0)"/>
    <use xlink:href="#MicrosoftYaHei-Bold-35" transform="translate(1261.328125 0)"/>
    <use xlink:href="#MicrosoftYaHei-Bold-2c" transform="translate(1322.998047 0)"/>
    <use xlink:href="#MicrosoftYaHei-Bold-73" transform="translate(1351.5625 0)"/>
    <use xlink:href="#MicrosoftYaHei-Bold-63" transform="translate(1400.927734 0)"/>
    <use xlink:href="#MicrosoftYaHei-Bold-61" transform="translate(1452.587891 0)"/>
    <use xlink:href="#MicrosoftYaHei-Bold-6c" transform="translate(1510.351562 0)"/>
    <use xlink:href="#MicrosoftYaHei-Bold-65" transform="translate(1539.941406 0)"/>
    <use xlink:href="#MicrosoftYaHei-Bold-32" transform="translate(1598.144531 0)"/>
    <use xlink:href="#MicrosoftYaHei-Bold-20" transform="translate(1659.814453 0)"/>
    <use xlink:href="#MicrosoftYaHei-Bold-7c" transform="translate(1689.599609 0)"/>
    <use xlink:href="#MicrosoftYaHei-Bold-20" transform="translate(1723.730469 0)"/>
    <use xlink:href="#MicrosoftYaHei-Bold-590d" transform="translate(1753.515625 0)"/>
    <use xlink:href="#MicrosoftYaHei-Bold-6742" transform="translate(1853.515625 0)"/>
    <use xlink:href="#MicrosoftYaHei-Bold-5ea6" transform="translate(1953.515625 0)"/>
    <use xlink:href="#MicrosoftYaHei-Bold-3a" transform="translate(2053.515625 0)"/>
    <use xlink:href="#MicrosoftYaHei-Bold-20" transform="translate(2082.080078 0)"/>
    <use xlink:href="#MicrosoftYaHei-Bold-30" transform="translate(2111.865234 0)"/>
    <use xlink:href="#MicrosoftYaHei-Bold-2e" transform="translate(2173.535156 0)"/>
    <use xlink:href="#MicrosoftYaHei-Bold-37" transform="translate(2202.099609 0)"/>
    <use xlink:href="#MicrosoftYaHei-Bold-38" transform="translate(2263.769531 0)"/>
    <use xlink:href="#MicrosoftYaHei-Bold-29" transform="translate(2325.439453 0)"/>
   </g>
  </g>
 </g>
 <defs>
  <clipPath id="pb3ab531558">
   <rect x="48.140625" y="92.600625" width="801.175" height="282.099688"/>
  </clipPath>
  <clipPath id="p2271384144">
   <rect x="48.140625" y="389.100312" width="801.175" height="282.099687"/>
  </clipPath>
 </defs>
</svg>
