<?xml version="1.0" encoding="utf-8" standalone="no"?>
<!DOCTYPE svg PUBLIC "-//W3C//DTD SVG 1.1//EN"
  "http://www.w3.org/Graphics/SVG/1.1/DTD/svg11.dtd">
<svg xmlns:xlink="http://www.w3.org/1999/xlink" width="856.501562pt" height="497.641875pt" viewBox="0 0 856.501562 497.641875" xmlns="http://www.w3.org/2000/svg" version="1.1">
 <metadata>
  <rdf:RDF xmlns:dc="http://purl.org/dc/elements/1.1/" xmlns:cc="http://creativecommons.org/ns#" xmlns:rdf="http://www.w3.org/1999/02/22-rdf-syntax-ns#">
   <cc:Work>
    <dc:type rdf:resource="http://purl.org/dc/dcmitype/StillImage"/>
    <dc:date>2025-07-07T17:59:13.961128</dc:date>
    <dc:format>image/svg+xml</dc:format>
    <dc:creator>
     <cc:Agent>
      <dc:title>Matplotlib v3.10.3, https://matplotlib.org/</dc:title>
     </cc:Agent>
    </dc:creator>
   </cc:Work>
  </rdf:RDF>
 </metadata>
 <defs>
  <style type="text/css">*{stroke-linejoin: round; stroke-linecap: butt}</style>
 </defs>
 <g id="figure_1">
  <g id="patch_1">
   <path d="M 0 497.641875 
L 856.501562 497.641875 
L 856.501562 0 
L 0 0 
z
" style="fill: #ffffff"/>
  </g>
  <g id="axes_1">
   <g id="patch_2">
    <path d="M 39.801563 459.42625 
L 849.301563 459.42625 
L 849.301563 82.520625 
L 39.801563 82.520625 
z
" style="fill: #ffffff"/>
   </g>
   <g id="matplotlib.axis_1">
    <g id="xtick_1">
     <g id="line2d_1">
      <path d="M 76.597017 459.42625 
L 76.597017 82.520625 
" clip-path="url(#p2816f4f0de)" style="fill: none; stroke-dasharray: 2.96,1.28; stroke-dashoffset: 0; stroke: #cccccc; stroke-opacity: 0.6; stroke-width: 0.8"/>
     </g>
     <g id="text_1">
      <!-- 0 -->
      <g style="fill: #262626" transform="translate(73.816548 473.584062) scale(0.1 -0.1)">
       <defs>
        <path id="ArialMT-30" d="M 266 2259 
Q 266 3072 433 3567 
Q 600 4063 929 4331 
Q 1259 4600 1759 4600 
Q 2128 4600 2406 4451 
Q 2684 4303 2865 4023 
Q 3047 3744 3150 3342 
Q 3253 2941 3253 2259 
Q 3253 1453 3087 958 
Q 2922 463 2592 192 
Q 2263 -78 1759 -78 
Q 1097 -78 719 397 
Q 266 969 266 2259 
z
M 844 2259 
Q 844 1131 1108 757 
Q 1372 384 1759 384 
Q 2147 384 2411 759 
Q 2675 1134 2675 2259 
Q 2675 3391 2411 3762 
Q 2147 4134 1753 4134 
Q 1366 4134 1134 3806 
Q 844 3388 844 2259 
z
" transform="scale(0.015625)"/>
       </defs>
       <use xlink:href="#ArialMT-30"/>
      </g>
     </g>
    </g>
    <g id="xtick_2">
     <g id="line2d_2">
      <path d="M 198.537214 459.42625 
L 198.537214 82.520625 
" clip-path="url(#p2816f4f0de)" style="fill: none; stroke-dasharray: 2.96,1.28; stroke-dashoffset: 0; stroke: #cccccc; stroke-opacity: 0.6; stroke-width: 0.8"/>
     </g>
     <g id="text_2">
      <!-- 200 -->
      <g style="fill: #262626" transform="translate(190.195808 473.584062) scale(0.1 -0.1)">
       <defs>
        <path id="ArialMT-32" d="M 3222 541 
L 3222 0 
L 194 0 
Q 188 203 259 391 
Q 375 700 629 1000 
Q 884 1300 1366 1694 
Q 2113 2306 2375 2664 
Q 2638 3022 2638 3341 
Q 2638 3675 2398 3904 
Q 2159 4134 1775 4134 
Q 1369 4134 1125 3890 
Q 881 3647 878 3216 
L 300 3275 
Q 359 3922 746 4261 
Q 1134 4600 1788 4600 
Q 2447 4600 2831 4234 
Q 3216 3869 3216 3328 
Q 3216 3053 3103 2787 
Q 2991 2522 2730 2228 
Q 2469 1934 1863 1422 
Q 1356 997 1212 845 
Q 1069 694 975 541 
L 3222 541 
z
" transform="scale(0.015625)"/>
       </defs>
       <use xlink:href="#ArialMT-32"/>
       <use xlink:href="#ArialMT-30" transform="translate(55.615234 0)"/>
       <use xlink:href="#ArialMT-30" transform="translate(111.230469 0)"/>
      </g>
     </g>
    </g>
    <g id="xtick_3">
     <g id="line2d_3">
      <path d="M 320.477412 459.42625 
L 320.477412 82.520625 
" clip-path="url(#p2816f4f0de)" style="fill: none; stroke-dasharray: 2.96,1.28; stroke-dashoffset: 0; stroke: #cccccc; stroke-opacity: 0.6; stroke-width: 0.8"/>
     </g>
     <g id="text_3">
      <!-- 400 -->
      <g style="fill: #262626" transform="translate(312.136005 473.584062) scale(0.1 -0.1)">
       <defs>
        <path id="ArialMT-34" d="M 2069 0 
L 2069 1097 
L 81 1097 
L 81 1613 
L 2172 4581 
L 2631 4581 
L 2631 1613 
L 3250 1613 
L 3250 1097 
L 2631 1097 
L 2631 0 
L 2069 0 
z
M 2069 1613 
L 2069 3678 
L 634 1613 
L 2069 1613 
z
" transform="scale(0.015625)"/>
       </defs>
       <use xlink:href="#ArialMT-34"/>
       <use xlink:href="#ArialMT-30" transform="translate(55.615234 0)"/>
       <use xlink:href="#ArialMT-30" transform="translate(111.230469 0)"/>
      </g>
     </g>
    </g>
    <g id="xtick_4">
     <g id="line2d_4">
      <path d="M 442.417609 459.42625 
L 442.417609 82.520625 
" clip-path="url(#p2816f4f0de)" style="fill: none; stroke-dasharray: 2.96,1.28; stroke-dashoffset: 0; stroke: #cccccc; stroke-opacity: 0.6; stroke-width: 0.8"/>
     </g>
     <g id="text_4">
      <!-- 600 -->
      <g style="fill: #262626" transform="translate(434.076203 473.584062) scale(0.1 -0.1)">
       <defs>
        <path id="ArialMT-36" d="M 3184 3459 
L 2625 3416 
Q 2550 3747 2413 3897 
Q 2184 4138 1850 4138 
Q 1581 4138 1378 3988 
Q 1113 3794 959 3422 
Q 806 3050 800 2363 
Q 1003 2672 1297 2822 
Q 1591 2972 1913 2972 
Q 2475 2972 2870 2558 
Q 3266 2144 3266 1488 
Q 3266 1056 3080 686 
Q 2894 316 2569 119 
Q 2244 -78 1831 -78 
Q 1128 -78 684 439 
Q 241 956 241 2144 
Q 241 3472 731 4075 
Q 1159 4600 1884 4600 
Q 2425 4600 2770 4297 
Q 3116 3994 3184 3459 
z
M 888 1484 
Q 888 1194 1011 928 
Q 1134 663 1356 523 
Q 1578 384 1822 384 
Q 2178 384 2434 671 
Q 2691 959 2691 1453 
Q 2691 1928 2437 2201 
Q 2184 2475 1800 2475 
Q 1419 2475 1153 2201 
Q 888 1928 888 1484 
z
" transform="scale(0.015625)"/>
       </defs>
       <use xlink:href="#ArialMT-36"/>
       <use xlink:href="#ArialMT-30" transform="translate(55.615234 0)"/>
       <use xlink:href="#ArialMT-30" transform="translate(111.230469 0)"/>
      </g>
     </g>
    </g>
    <g id="xtick_5">
     <g id="line2d_5">
      <path d="M 564.357806 459.42625 
L 564.357806 82.520625 
" clip-path="url(#p2816f4f0de)" style="fill: none; stroke-dasharray: 2.96,1.28; stroke-dashoffset: 0; stroke: #cccccc; stroke-opacity: 0.6; stroke-width: 0.8"/>
     </g>
     <g id="text_5">
      <!-- 800 -->
      <g style="fill: #262626" transform="translate(556.0164 473.584062) scale(0.1 -0.1)">
       <defs>
        <path id="ArialMT-38" d="M 1131 2484 
Q 781 2613 612 2850 
Q 444 3088 444 3419 
Q 444 3919 803 4259 
Q 1163 4600 1759 4600 
Q 2359 4600 2725 4251 
Q 3091 3903 3091 3403 
Q 3091 3084 2923 2848 
Q 2756 2613 2416 2484 
Q 2838 2347 3058 2040 
Q 3278 1734 3278 1309 
Q 3278 722 2862 322 
Q 2447 -78 1769 -78 
Q 1091 -78 675 323 
Q 259 725 259 1325 
Q 259 1772 486 2073 
Q 713 2375 1131 2484 
z
M 1019 3438 
Q 1019 3113 1228 2906 
Q 1438 2700 1772 2700 
Q 2097 2700 2305 2904 
Q 2513 3109 2513 3406 
Q 2513 3716 2298 3927 
Q 2084 4138 1766 4138 
Q 1444 4138 1231 3931 
Q 1019 3725 1019 3438 
z
M 838 1322 
Q 838 1081 952 856 
Q 1066 631 1291 507 
Q 1516 384 1775 384 
Q 2178 384 2440 643 
Q 2703 903 2703 1303 
Q 2703 1709 2433 1975 
Q 2163 2241 1756 2241 
Q 1359 2241 1098 1978 
Q 838 1716 838 1322 
z
" transform="scale(0.015625)"/>
       </defs>
       <use xlink:href="#ArialMT-38"/>
       <use xlink:href="#ArialMT-30" transform="translate(55.615234 0)"/>
       <use xlink:href="#ArialMT-30" transform="translate(111.230469 0)"/>
      </g>
     </g>
    </g>
    <g id="xtick_6">
     <g id="line2d_6">
      <path d="M 686.298004 459.42625 
L 686.298004 82.520625 
" clip-path="url(#p2816f4f0de)" style="fill: none; stroke-dasharray: 2.96,1.28; stroke-dashoffset: 0; stroke: #cccccc; stroke-opacity: 0.6; stroke-width: 0.8"/>
     </g>
     <g id="text_6">
      <!-- 1000 -->
      <g style="fill: #262626" transform="translate(675.176129 473.584062) scale(0.1 -0.1)">
       <defs>
        <path id="ArialMT-31" d="M 2384 0 
L 1822 0 
L 1822 3584 
Q 1619 3391 1289 3197 
Q 959 3003 697 2906 
L 697 3450 
Q 1169 3672 1522 3987 
Q 1875 4303 2022 4600 
L 2384 4600 
L 2384 0 
z
" transform="scale(0.015625)"/>
       </defs>
       <use xlink:href="#ArialMT-31"/>
       <use xlink:href="#ArialMT-30" transform="translate(55.615234 0)"/>
       <use xlink:href="#ArialMT-30" transform="translate(111.230469 0)"/>
       <use xlink:href="#ArialMT-30" transform="translate(166.845703 0)"/>
      </g>
     </g>
    </g>
    <g id="xtick_7">
     <g id="line2d_7">
      <path d="M 808.238201 459.42625 
L 808.238201 82.520625 
" clip-path="url(#p2816f4f0de)" style="fill: none; stroke-dasharray: 2.96,1.28; stroke-dashoffset: 0; stroke: #cccccc; stroke-opacity: 0.6; stroke-width: 0.8"/>
     </g>
     <g id="text_7">
      <!-- 1200 -->
      <g style="fill: #262626" transform="translate(797.116326 473.584062) scale(0.1 -0.1)">
       <use xlink:href="#ArialMT-31"/>
       <use xlink:href="#ArialMT-32" transform="translate(55.615234 0)"/>
       <use xlink:href="#ArialMT-30" transform="translate(111.230469 0)"/>
       <use xlink:href="#ArialMT-30" transform="translate(166.845703 0)"/>
      </g>
     </g>
    </g>
    <g id="text_8">
     <!-- 训练轮数 (Episodes) -->
     <g style="fill: #262626" transform="translate(398.614062 487.955937) scale(0.1 -0.1)">
      <defs>
       <path id="MicrosoftYaHei-8bad" d="M 2581 5178 
L 3056 5178 
L 3056 2722 
Q 3056 1272 2831 466 
Q 2613 -297 1981 -872 
Q 1769 -678 1550 -534 
Q 2156 -66 2375 647 
Q 2581 1353 2581 2678 
L 2581 5178 
z
M 5506 5184 
L 5981 5184 
L 5981 -772 
L 5506 -772 
L 5506 5184 
z
M 4038 4953 
L 4513 4953 
L 4513 -403 
L 4038 -403 
L 4038 4953 
z
M 2025 1372 
Q 2025 1059 2069 784 
Q 1438 247 913 -284 
L 625 116 
Q 838 316 838 691 
L 838 2803 
L 81 2803 
L 81 3253 
L 1313 3253 
L 1313 709 
Q 1650 1009 2025 1372 
z
M 875 5191 
Q 1438 4628 1850 4166 
L 1413 3797 
Q 1031 4303 500 4872 
L 875 5191 
z
" transform="scale(0.015625)"/>
       <path id="MicrosoftYaHei-7ec3" d="M 2363 3403 
L 3059 3403 
Q 3203 3781 3344 4197 
L 2213 4197 
L 2213 4622 
L 3488 4622 
Q 3603 4975 3719 5353 
L 4219 5253 
Q 4109 4931 4000 4622 
L 6000 4622 
L 6000 4197 
L 3847 4197 
Q 3700 3791 3553 3403 
L 4763 3403 
L 4763 2016 
L 6025 2016 
L 6025 1591 
L 4763 1591 
L 4763 3 
Q 4763 -734 4056 -734 
Q 3788 -734 3369 -728 
Q 3331 -516 3263 -241 
Q 3638 -284 3931 -284 
Q 4300 -284 4300 109 
L 4300 1591 
L 2475 1591 
L 2475 1997 
Q 2688 2450 2897 2978 
L 2363 2978 
L 2363 3403 
z
M 888 1566 
Q 1531 1659 2219 1778 
Q 2181 1547 2163 1297 
Q 1600 1216 319 1003 
L 219 1472 
Q 669 1969 1175 2794 
Q 666 2763 219 2722 
L 100 3147 
Q 700 3966 1294 5366 
L 1750 5178 
Q 1088 3878 644 3184 
Q 1078 3194 1419 3203 
Q 1669 3638 1931 4147 
L 2388 3916 
Q 1656 2659 888 1566 
z
M 3013 2016 
L 4300 2016 
L 4300 2978 
L 3394 2978 
Q 3203 2484 3013 2016 
z
M 94 122 
Q 1031 291 2219 559 
Q 2200 316 2206 78 
Q 1231 -103 219 -353 
L 94 122 
z
M 3194 1272 
L 3638 1066 
Q 3194 203 2700 -547 
Q 2500 -397 2275 -278 
Q 2813 459 3194 1272 
z
M 5094 1041 
L 5500 1278 
Q 5963 578 6381 -122 
L 5950 -391 
Q 5544 366 5094 1041 
z
" transform="scale(0.015625)"/>
       <path id="MicrosoftYaHei-8f6e" d="M 688 2228 
L 1438 2228 
L 1438 3597 
L 1888 3597 
L 1888 2228 
L 2688 2228 
L 2688 1803 
L 1888 1803 
L 1888 959 
Q 2344 1016 2763 1078 
Q 2756 922 2744 616 
Q 2313 566 1888 516 
L 1888 -866 
L 1438 -866 
L 1438 466 
Q 781 384 138 303 
L 88 772 
Q 794 834 1438 909 
L 1438 1803 
L 225 1803 
L 225 2197 
Q 550 3116 800 3916 
L 156 3916 
L 156 4341 
L 925 4341 
Q 1081 4859 1194 5322 
L 1675 5216 
Q 1538 4766 1400 4341 
L 2781 4341 
L 2781 3916 
L 1263 3916 
Q 975 3028 688 2228 
z
M 3163 2891 
L 3638 2891 
L 3638 1509 
Q 4456 1984 5150 2653 
L 5544 2359 
Q 4588 1484 3638 997 
L 3638 191 
Q 3638 -197 4075 -197 
L 4925 -197 
Q 5363 -197 5425 178 
Q 5494 584 5525 1097 
Q 5575 1078 5994 916 
Q 5956 441 5881 28 
Q 5775 -653 5013 -653 
L 3925 -653 
Q 3163 -653 3163 72 
L 3163 2891 
z
M 4656 5259 
L 4544 5072 
Q 5244 3722 6313 3178 
Q 6113 2953 5975 2766 
Q 4975 3359 4250 4622 
Q 3531 3422 2625 2697 
Q 2475 2891 2288 3059 
Q 3406 3897 4044 5259 
L 4656 5259 
z
" transform="scale(0.015625)"/>
       <path id="MicrosoftYaHei-6570" d="M 4175 5303 
L 4675 5228 
Q 4544 4622 4369 4097 
L 6281 4097 
L 6281 3672 
L 5888 3672 
Q 5731 1834 5088 753 
Q 5594 66 6375 -372 
Q 6175 -647 6038 -866 
Q 5275 -372 4769 309 
Q 4194 -403 3400 -928 
Q 3263 -747 3044 -534 
Q 3919 41 4463 772 
Q 3956 1647 3794 2791 
Q 3663 2559 3519 2359 
Q 3394 2541 3206 2759 
Q 3931 3803 4175 5303 
z
M 150 1697 
L 1100 1697 
Q 1238 1934 1369 2184 
L 1819 2041 
Q 1719 1866 1619 1697 
L 3150 1697 
L 3150 1291 
Q 2913 678 2431 216 
Q 2775 53 3131 -109 
L 2856 -541 
Q 2469 -322 2050 -103 
Q 1344 -609 269 -903 
Q 169 -703 56 -466 
Q 969 -259 1600 128 
Q 1063 403 475 691 
Q 675 978 863 1284 
L 150 1284 
L 150 1697 
z
M 219 3847 
L 1656 3847 
L 1656 5247 
L 2119 5247 
L 2119 3847 
L 3319 3847 
L 3319 3434 
L 2119 3434 
L 2119 3053 
L 2306 3266 
Q 2888 2841 3281 2516 
L 2981 2166 
Q 2638 2491 2119 2897 
L 2119 2184 
L 1656 2184 
L 1656 3059 
Q 1088 2466 331 2016 
Q 213 2197 63 2397 
Q 850 2822 1506 3434 
L 219 3434 
L 219 3847 
z
M 5388 3672 
L 4219 3672 
Q 4188 3591 4150 3516 
Q 4263 2191 4775 1247 
Q 5275 2159 5388 3672 
z
M 1088 834 
Q 1531 634 2000 416 
Q 2431 784 2675 1284 
L 1375 1284 
Q 1231 1053 1088 834 
z
M 3038 5091 
L 3425 4834 
Q 3081 4384 2738 4003 
Q 2594 4128 2400 4266 
Q 2725 4647 3038 5091 
z
M 381 4816 
L 738 5059 
Q 1019 4716 1319 4322 
L 931 4047 
Q 656 4453 381 4816 
z
" transform="scale(0.015625)"/>
       <path id="MicrosoftYaHei-20" transform="scale(0.015625)"/>
       <path id="MicrosoftYaHei-28" d="M 1531 -1100 
Q 478 100 478 1847 
Q 478 3594 1531 4841 
L 2072 4841 
Q 1016 3544 1016 1853 
Q 1016 166 2066 -1100 
L 1531 -1100 
z
" transform="scale(0.015625)"/>
       <path id="MicrosoftYaHei-45" d="M 3228 0 
L 625 0 
L 625 4841 
L 3119 4841 
L 3119 4284 
L 1250 4284 
L 1250 2734 
L 2981 2734 
L 2981 2181 
L 1250 2181 
L 1250 553 
L 3228 553 
L 3228 0 
z
" transform="scale(0.015625)"/>
       <path id="MicrosoftYaHei-70" d="M 1159 488 
L 1159 -1591 
L 547 -1591 
L 547 3456 
L 1159 3456 
L 1159 2859 
L 1172 2859 
Q 1578 3538 2359 3538 
Q 3022 3538 3398 3073 
Q 3775 2609 3775 1828 
Q 3775 966 3348 442 
Q 2922 -81 2200 -81 
Q 1534 -81 1172 488 
L 1159 488 
z
M 1156 1425 
Q 1156 1003 1428 714 
Q 1700 425 2109 425 
Q 2597 425 2872 800 
Q 3147 1175 3147 1838 
Q 3147 2397 2890 2714 
Q 2634 3031 2191 3031 
Q 1738 3031 1447 2709 
Q 1156 2388 1156 1884 
L 1156 1425 
z
" transform="scale(0.015625)"/>
       <path id="MicrosoftYaHei-69" d="M 472 4675 
Q 472 4838 583 4948 
Q 694 5059 856 5059 
Q 1022 5059 1136 4950 
Q 1250 4841 1250 4675 
Q 1250 4513 1136 4405 
Q 1022 4297 856 4297 
Q 691 4297 581 4405 
Q 472 4513 472 4675 
z
M 544 0 
L 544 3456 
L 1156 3456 
L 1156 0 
L 544 0 
z
" transform="scale(0.015625)"/>
       <path id="MicrosoftYaHei-73" d="M 353 747 
Q 816 413 1350 413 
Q 2066 413 2066 881 
Q 2066 1081 1909 1211 
Q 1753 1341 1275 1519 
Q 700 1750 528 1976 
Q 356 2203 356 2525 
Q 356 2984 745 3261 
Q 1134 3538 1703 3538 
Q 2144 3538 2522 3384 
L 2522 2794 
Q 2134 3044 1644 3044 
Q 1350 3044 1165 2916 
Q 981 2788 981 2578 
Q 981 2372 1114 2256 
Q 1247 2141 1703 1959 
Q 2281 1744 2484 1512 
Q 2688 1281 2688 941 
Q 2688 466 2298 192 
Q 1909 -81 1291 -81 
Q 753 -81 353 122 
L 353 747 
z
" transform="scale(0.015625)"/>
       <path id="MicrosoftYaHei-6f" d="M 316 1691 
Q 316 2547 794 3042 
Q 1272 3538 2091 3538 
Q 2869 3538 3311 3061 
Q 3753 2584 3753 1744 
Q 3753 925 3281 422 
Q 2809 -81 2016 -81 
Q 1241 -81 778 406 
Q 316 894 316 1691 
z
M 941 1709 
Q 941 1113 1242 769 
Q 1544 425 2053 425 
Q 2578 425 2853 761 
Q 3128 1097 3128 1725 
Q 3128 2356 2853 2693 
Q 2578 3031 2053 3031 
Q 1538 3031 1239 2678 
Q 941 2325 941 1709 
z
" transform="scale(0.015625)"/>
       <path id="MicrosoftYaHei-64" d="M 3547 0 
L 2934 0 
L 2934 575 
L 2922 575 
Q 2544 -81 1747 -81 
Q 1091 -81 703 386 
Q 316 853 316 1647 
Q 316 2503 753 3020 
Q 1191 3538 1897 3538 
Q 2603 3538 2922 2988 
L 2934 2988 
L 2934 5116 
L 3547 5116 
L 3547 0 
z
M 2938 2056 
Q 2938 2472 2664 2751 
Q 2391 3031 1991 3031 
Q 1503 3031 1222 2667 
Q 941 2303 941 1675 
Q 941 1097 1211 761 
Q 1481 425 1931 425 
Q 2375 425 2656 754 
Q 2938 1084 2938 1575 
L 2938 2056 
z
" transform="scale(0.015625)"/>
       <path id="MicrosoftYaHei-65" d="M 3363 1572 
L 944 1572 
Q 959 1019 1246 717 
Q 1534 416 2050 416 
Q 2631 416 3116 788 
L 3116 241 
Q 2659 -81 1906 -81 
Q 1156 -81 736 394 
Q 316 869 316 1713 
Q 316 2506 777 3022 
Q 1238 3538 1922 3538 
Q 2600 3538 2981 3102 
Q 3363 2666 3363 1881 
L 3363 1572 
z
M 2750 2063 
Q 2747 2531 2528 2787 
Q 2309 3044 1913 3044 
Q 1547 3044 1280 2772 
Q 1013 2500 944 2063 
L 2750 2063 
z
" transform="scale(0.015625)"/>
       <path id="MicrosoftYaHei-29" d="M 78 -1100 
Q 1131 163 1131 1853 
Q 1131 3547 72 4841 
L 616 4841 
Q 1672 3603 1672 1847 
Q 1672 91 616 -1100 
L 78 -1100 
z
" transform="scale(0.015625)"/>
      </defs>
      <use xlink:href="#MicrosoftYaHei-8bad"/>
      <use xlink:href="#MicrosoftYaHei-7ec3" transform="translate(100 0)"/>
      <use xlink:href="#MicrosoftYaHei-8f6e" transform="translate(200 0)"/>
      <use xlink:href="#MicrosoftYaHei-6570" transform="translate(300 0)"/>
      <use xlink:href="#MicrosoftYaHei-20" transform="translate(400 0)"/>
      <use xlink:href="#MicrosoftYaHei-28" transform="translate(429.589844 0)"/>
      <use xlink:href="#MicrosoftYaHei-45" transform="translate(462.988281 0)"/>
      <use xlink:href="#MicrosoftYaHei-70" transform="translate(517.96875 0)"/>
      <use xlink:href="#MicrosoftYaHei-69" transform="translate(581.835938 0)"/>
      <use xlink:href="#MicrosoftYaHei-73" transform="translate(608.447266 0)"/>
      <use xlink:href="#MicrosoftYaHei-6f" transform="translate(654.736328 0)"/>
      <use xlink:href="#MicrosoftYaHei-64" transform="translate(718.310547 0)"/>
      <use xlink:href="#MicrosoftYaHei-65" transform="translate(782.275391 0)"/>
      <use xlink:href="#MicrosoftYaHei-73" transform="translate(839.013672 0)"/>
      <use xlink:href="#MicrosoftYaHei-29" transform="translate(885.302734 0)"/>
     </g>
    </g>
   </g>
   <g id="matplotlib.axis_2">
    <g id="ytick_1">
     <g id="line2d_8">
      <path d="M 39.801563 445.833861 
L 849.301563 445.833861 
" clip-path="url(#p2816f4f0de)" style="fill: none; stroke-dasharray: 2.96,1.28; stroke-dashoffset: 0; stroke: #cccccc; stroke-opacity: 0.6; stroke-width: 0.8"/>
     </g>
     <g id="text_9">
      <!-- 18 -->
      <g style="fill: #1f77b4" transform="translate(21.679688 449.412767) scale(0.1 -0.1)">
       <use xlink:href="#ArialMT-31"/>
       <use xlink:href="#ArialMT-38" transform="translate(55.615234 0)"/>
      </g>
     </g>
    </g>
    <g id="ytick_2">
     <g id="line2d_9">
      <path d="M 39.801563 375.040167 
L 849.301563 375.040167 
" clip-path="url(#p2816f4f0de)" style="fill: none; stroke-dasharray: 2.96,1.28; stroke-dashoffset: 0; stroke: #cccccc; stroke-opacity: 0.6; stroke-width: 0.8"/>
     </g>
     <g id="text_10">
      <!-- 20 -->
      <g style="fill: #1f77b4" transform="translate(21.679688 378.619073) scale(0.1 -0.1)">
       <use xlink:href="#ArialMT-32"/>
       <use xlink:href="#ArialMT-30" transform="translate(55.615234 0)"/>
      </g>
     </g>
    </g>
    <g id="ytick_3">
     <g id="line2d_10">
      <path d="M 39.801563 304.246474 
L 849.301563 304.246474 
" clip-path="url(#p2816f4f0de)" style="fill: none; stroke-dasharray: 2.96,1.28; stroke-dashoffset: 0; stroke: #cccccc; stroke-opacity: 0.6; stroke-width: 0.8"/>
     </g>
     <g id="text_11">
      <!-- 22 -->
      <g style="fill: #1f77b4" transform="translate(21.679688 307.82538) scale(0.1 -0.1)">
       <use xlink:href="#ArialMT-32"/>
       <use xlink:href="#ArialMT-32" transform="translate(55.615234 0)"/>
      </g>
     </g>
    </g>
    <g id="ytick_4">
     <g id="line2d_11">
      <path d="M 39.801563 233.45278 
L 849.301563 233.45278 
" clip-path="url(#p2816f4f0de)" style="fill: none; stroke-dasharray: 2.96,1.28; stroke-dashoffset: 0; stroke: #cccccc; stroke-opacity: 0.6; stroke-width: 0.8"/>
     </g>
     <g id="text_12">
      <!-- 24 -->
      <g style="fill: #1f77b4" transform="translate(21.679688 237.031686) scale(0.1 -0.1)">
       <use xlink:href="#ArialMT-32"/>
       <use xlink:href="#ArialMT-34" transform="translate(55.615234 0)"/>
      </g>
     </g>
    </g>
    <g id="ytick_5">
     <g id="line2d_12">
      <path d="M 39.801563 162.659086 
L 849.301563 162.659086 
" clip-path="url(#p2816f4f0de)" style="fill: none; stroke-dasharray: 2.96,1.28; stroke-dashoffset: 0; stroke: #cccccc; stroke-opacity: 0.6; stroke-width: 0.8"/>
     </g>
     <g id="text_13">
      <!-- 26 -->
      <g style="fill: #1f77b4" transform="translate(21.679688 166.237992) scale(0.1 -0.1)">
       <use xlink:href="#ArialMT-32"/>
       <use xlink:href="#ArialMT-36" transform="translate(55.615234 0)"/>
      </g>
     </g>
    </g>
    <g id="ytick_6">
     <g id="line2d_13">
      <path d="M 39.801563 91.865393 
L 849.301563 91.865393 
" clip-path="url(#p2816f4f0de)" style="fill: none; stroke-dasharray: 2.96,1.28; stroke-dashoffset: 0; stroke: #cccccc; stroke-opacity: 0.6; stroke-width: 0.8"/>
     </g>
     <g id="text_14">
      <!-- 28 -->
      <g style="fill: #1f77b4" transform="translate(21.679688 95.444299) scale(0.1 -0.1)">
       <use xlink:href="#ArialMT-32"/>
       <use xlink:href="#ArialMT-38" transform="translate(55.615234 0)"/>
      </g>
     </g>
    </g>
    <g id="text_15">
     <!-- 总奖励 (平滑后) -->
     <g style="fill: #1f77b4" transform="translate(15.19375 305.79375) rotate(-90) scale(0.1 -0.1)">
      <defs>
       <path id="MicrosoftYaHei-603b" d="M 900 4253 
L 3631 4253 
Q 4022 4822 4331 5353 
L 4813 5103 
Q 4500 4675 4175 4253 
L 5500 4253 
L 5500 1703 
L 5000 1703 
L 5000 1978 
L 1400 1978 
L 1400 1703 
L 900 1703 
L 900 4253 
z
M 5000 3803 
L 1400 3803 
L 1400 2428 
L 5000 2428 
L 5000 3803 
z
M 1694 1378 
L 2181 1378 
L 2181 284 
Q 2181 -203 2619 -203 
L 3875 -203 
Q 4244 -203 4338 172 
Q 4394 366 4450 872 
Q 4631 791 4931 684 
Q 4850 209 4750 -97 
Q 4556 -641 3900 -641 
L 2519 -641 
Q 1694 -641 1694 197 
L 1694 1378 
z
M 719 1422 
L 1188 1272 
Q 931 491 538 -334 
Q 338 -247 81 -134 
Q 444 597 719 1422 
z
M 4881 1203 
L 5238 1478 
Q 5813 841 6319 197 
L 5900 -134 
Q 5456 491 4881 1203 
z
M 2663 1591 
L 3044 1841 
Q 3488 1372 3863 841 
L 3444 547 
Q 3069 1109 2663 1591 
z
M 1594 5109 
L 1975 5353 
Q 2350 4959 2650 4541 
L 2225 4266 
Q 1956 4653 1594 5109 
z
" transform="scale(0.015625)"/>
       <path id="MicrosoftYaHei-5956" d="M 6306 -284 
Q 6119 -528 5944 -803 
Q 4031 -491 3197 859 
Q 2550 -472 406 -878 
Q 281 -666 100 -403 
Q 2175 -84 2709 972 
L 225 972 
L 225 1403 
L 2900 1403 
Q 2969 1600 3019 1822 
L 3531 1822 
Q 3484 1603 3422 1403 
L 6200 1403 
L 6200 972 
L 3647 972 
Q 4472 -169 6306 -284 
z
M 2388 3553 
Q 3181 4228 3588 5334 
L 4056 5241 
Q 3941 4938 3803 4666 
L 5988 4666 
L 5988 4278 
Q 5181 2359 2788 1853 
Q 2706 2072 2531 2316 
Q 3434 2463 4094 2831 
Q 3688 3222 3288 3516 
L 3588 3822 
Q 4056 3481 4491 3084 
Q 5116 3550 5463 4266 
L 3588 4266 
Q 3228 3666 2763 3234 
Q 2588 3428 2388 3553 
z
M 1744 5291 
L 2231 5291 
L 2231 1728 
L 1744 1728 
L 1744 2925 
Q 1231 2694 256 2253 
L 94 2747 
Q 991 3088 1744 3425 
L 1744 5291 
z
M 281 4584 
L 588 4891 
Q 1088 4503 1513 4072 
L 1169 3741 
Q 700 4253 281 4584 
z
" transform="scale(0.015625)"/>
       <path id="MicrosoftYaHei-52b1" d="M 3756 3997 
L 4303 3997 
Q 4316 4669 4319 5297 
L 4775 5297 
Q 4763 4559 4750 3997 
L 6031 3997 
Q 5963 1203 5925 278 
Q 5888 -678 5169 -678 
Q 4969 -678 4444 -666 
Q 4406 -378 4350 -134 
Q 4856 -178 5081 -178 
Q 5425 -178 5456 272 
Q 5513 1266 5563 3528 
L 4741 3528 
Q 4731 3028 4725 2716 
Q 4688 334 3600 -859 
Q 3469 -666 3281 -447 
Q 4238 634 4275 2634 
Q 4288 3091 4297 3528 
L 3756 3528 
L 3756 3997 
z
M 1225 3728 
L 3563 3728 
L 3563 3291 
L 2194 3291 
Q 2184 2784 2172 2372 
L 3375 2372 
Q 3319 766 3275 91 
Q 3206 -628 2581 -628 
Q 2406 -628 2050 -622 
Q 2013 -416 1956 -159 
Q 2306 -197 2475 -197 
Q 2819 -203 2850 216 
Q 2894 797 2931 1959 
L 2153 1959 
Q 2125 1378 2081 1034 
Q 1969 -3 1300 -828 
Q 1175 -659 981 -453 
Q 1531 209 1644 1097 
Q 1728 1641 1756 3291 
L 1225 3291 
L 1225 3728 
z
M 1044 4472 
L 1044 2166 
Q 1044 147 475 -809 
Q 306 -647 94 -478 
Q 588 341 588 2184 
L 588 4909 
L 3663 4909 
L 3663 4472 
L 1044 4472 
z
" transform="scale(0.015625)"/>
       <path id="MicrosoftYaHei-5e73" d="M 169 1934 
L 2938 1934 
L 2938 4547 
L 450 4547 
L 450 5028 
L 5975 5028 
L 5975 4547 
L 3463 4547 
L 3463 1934 
L 6250 1934 
L 6250 1453 
L 3463 1453 
L 3463 -847 
L 2938 -847 
L 2938 1453 
L 169 1453 
L 169 1934 
z
M 3950 2559 
Q 4638 3284 5188 4159 
L 5656 3859 
Q 4950 2891 4338 2234 
L 3950 2559 
z
M 769 3859 
L 1163 4134 
Q 1863 3316 2369 2553 
L 1925 2222 
Q 1444 3003 769 3859 
z
" transform="scale(0.015625)"/>
       <path id="MicrosoftYaHei-6ed1" d="M 2738 -791 
L 2263 -791 
L 2263 2378 
L 5494 2378 
L 5494 -22 
Q 5494 -728 4813 -734 
Q 4456 -741 4025 -734 
Q 3994 -534 3931 -272 
Q 4294 -316 4619 -316 
Q 5019 -316 5019 9 
L 5019 303 
L 2738 303 
L 2738 -791 
z
M 1713 3253 
L 2306 3253 
L 2306 5078 
L 5475 5078 
L 5475 3253 
L 6063 3253 
L 6063 2297 
L 5594 2297 
L 5594 2853 
L 2181 2853 
L 2181 2284 
L 1713 2284 
L 1713 3253 
z
M 5025 4678 
L 2756 4678 
L 2756 4178 
L 4238 4178 
L 4238 3253 
L 5025 3253 
L 5025 4678 
z
M 850 1816 
Q 1106 1716 1363 1628 
Q 1100 541 788 -784 
L 238 -622 
Q 588 541 850 1816 
z
M 2738 691 
L 5019 691 
L 5019 1141 
L 2738 1141 
L 2738 691 
z
M 5019 1978 
L 2738 1978 
L 2738 1528 
L 5019 1528 
L 5019 1978 
z
M 719 5241 
Q 1256 4822 1738 4378 
L 1381 4003 
Q 931 4453 394 4909 
L 719 5241 
z
M 388 3697 
Q 988 3247 1400 2891 
L 1056 2497 
Q 581 2941 81 3328 
L 388 3697 
z
M 3794 3791 
L 2756 3791 
L 2756 3253 
L 3794 3253 
L 3794 3791 
z
" transform="scale(0.015625)"/>
       <path id="MicrosoftYaHei-540e" d="M 1888 1984 
L 5688 1984 
L 5688 -828 
L 5188 -828 
L 5188 -403 
L 2388 -403 
L 2388 -828 
L 1888 -828 
L 1888 1984 
z
M 1313 2991 
Q 1313 1272 1138 672 
Q 963 -16 394 -847 
Q 250 -634 50 -409 
Q 494 222 650 859 
Q 806 1472 806 2659 
L 806 4766 
Q 3544 4853 5631 5141 
L 5931 4622 
Q 3344 4359 1313 4284 
L 1313 3459 
L 6263 3459 
L 6263 2991 
L 1313 2991 
z
M 5188 1528 
L 2388 1528 
L 2388 41 
L 5188 41 
L 5188 1528 
z
" transform="scale(0.015625)"/>
      </defs>
      <use xlink:href="#MicrosoftYaHei-603b"/>
      <use xlink:href="#MicrosoftYaHei-5956" transform="translate(100 0)"/>
      <use xlink:href="#MicrosoftYaHei-52b1" transform="translate(200 0)"/>
      <use xlink:href="#MicrosoftYaHei-20" transform="translate(300 0)"/>
      <use xlink:href="#MicrosoftYaHei-28" transform="translate(329.589844 0)"/>
      <use xlink:href="#MicrosoftYaHei-5e73" transform="translate(362.988281 0)"/>
      <use xlink:href="#MicrosoftYaHei-6ed1" transform="translate(462.988281 0)"/>
      <use xlink:href="#MicrosoftYaHei-540e" transform="translate(562.988281 0)"/>
      <use xlink:href="#MicrosoftYaHei-29" transform="translate(662.988281 0)"/>
     </g>
    </g>
   </g>
   <g id="line2d_14">
    <path d="M 76.597017 442.294176 
L 77.206718 267.079784 
L 77.816419 234.632675 
L 78.42612 218.40912 
L 79.035821 278.760744 
L 79.645522 299.526894 
L 80.255223 331.046943 
L 80.864924 325.484582 
L 81.474625 299.526894 
L 82.084326 306.016316 
L 83.303728 296.282183 
L 83.913429 292.538286 
L 84.52313 286.54805 
L 85.132831 286.54805 
L 85.742532 291.415117 
L 86.352233 297.999971 
L 86.961934 286.54805 
L 87.571635 288.597341 
L 88.181336 284.601224 
L 88.791037 288.494877 
L 89.400738 304.069489 
L 90.010439 307.963142 
L 90.62014 313.803622 
L 91.839542 298.22901 
L 92.449243 294.335356 
L 93.058944 302.122663 
L 93.668645 311.856796 
L 94.278346 309.909969 
L 94.888047 313.803622 
L 95.497748 311.856796 
L 96.107449 302.122663 
L 97.326851 290.441703 
L 97.936552 290.441703 
L 98.546253 270.973437 
L 99.155954 278.760744 
L 99.765655 265.132958 
L 100.375356 257.345651 
L 100.985057 251.505172 
L 101.594757 237.877386 
L 102.204458 241.771039 
L 102.814159 249.558345 
L 104.033561 216.462293 
L 104.643262 218.40912 
L 105.252963 198.940854 
L 105.862664 196.994028 
L 106.472365 200.887681 
L 107.082066 206.728161 
L 107.691767 214.515467 
L 108.301468 218.40912 
L 108.911169 237.877386 
L 109.52087 247.611519 
L 110.130571 239.824212 
L 110.740272 253.451998 
L 111.349973 249.558345 
L 111.959674 263.186131 
L 112.569375 282.654397 
L 113.179076 280.70757 
L 113.788777 290.441703 
L 115.008179 274.867091 
L 115.61788 290.441703 
L 116.227581 309.909969 
L 116.837282 292.38853 
L 117.446983 307.963142 
L 118.056684 311.856796 
L 118.666385 290.441703 
L 119.276086 286.54805 
L 119.885787 284.601224 
L 120.495488 290.441703 
L 121.105189 278.760744 
L 121.71489 263.186131 
L 122.324591 270.973437 
L 122.934292 265.132958 
L 123.543993 276.813917 
L 124.153694 269.026611 
L 124.763395 255.398825 
L 125.373096 247.611519 
L 125.982797 251.505172 
L 126.592498 253.451998 
L 127.202199 247.611519 
L 127.8119 253.451998 
L 128.421601 255.398825 
L 129.031302 265.132958 
L 129.641003 255.398825 
L 130.250704 241.771039 
L 130.860405 253.451998 
L 131.470106 241.771039 
L 132.079807 237.877386 
L 132.689508 235.930559 
L 133.299209 241.771039 
L 133.90891 249.558345 
L 134.518611 230.090079 
L 135.128312 241.771039 
L 135.738013 228.143253 
L 136.347714 232.036906 
L 136.957415 245.664692 
L 137.567116 255.398825 
L 138.176817 251.505172 
L 139.396219 267.079784 
L 140.00592 261.239305 
L 140.615621 249.558345 
L 141.225322 249.558345 
L 141.835023 251.505172 
L 142.444724 270.973437 
L 143.054425 276.813917 
L 143.664126 290.441703 
L 144.883528 282.654397 
L 145.493229 276.813917 
L 146.10293 276.813917 
L 146.712631 296.282183 
L 147.322331 276.813917 
L 147.932032 286.54805 
L 148.541733 276.813917 
L 149.151434 257.345651 
L 149.761135 251.505172 
L 150.370836 251.505172 
L 150.980537 247.611519 
L 151.590238 232.036906 
L 152.199939 233.983733 
L 153.419341 245.664692 
L 154.029042 249.558345 
L 154.638743 222.302773 
L 155.248444 214.515467 
L 155.858145 198.940854 
L 156.467846 204.781334 
L 157.077547 202.834507 
L 157.687248 204.781334 
L 158.296949 200.887681 
L 158.90665 191.153548 
L 159.516351 212.56864 
L 160.126052 210.621814 
L 160.735753 232.036906 
L 161.345454 247.611519 
L 161.955155 247.611519 
L 162.564856 243.717865 
L 163.174557 237.877386 
L 163.784258 247.611519 
L 164.393959 241.771039 
L 165.00366 239.824212 
L 165.613361 232.036906 
L 166.223062 222.302773 
L 166.832763 233.983733 
L 167.442464 241.771039 
L 168.052165 241.771039 
L 168.661866 232.036906 
L 169.271567 232.036906 
L 169.881268 228.143253 
L 170.490969 239.824212 
L 171.10067 241.771039 
L 171.710371 228.143253 
L 172.320072 230.090079 
L 172.929773 222.302773 
L 173.539474 222.302773 
L 174.149175 218.40912 
L 174.758876 220.355947 
L 175.368577 214.515467 
L 175.978278 210.621814 
L 176.587979 202.834507 
L 177.19768 198.940854 
L 177.807381 200.887681 
L 178.417082 210.621814 
L 179.026783 212.56864 
L 180.246185 204.781334 
L 180.855886 208.674987 
L 181.465587 216.462293 
L 182.075288 210.621814 
L 182.684989 198.940854 
L 183.29469 202.834507 
L 183.904391 198.940854 
L 184.514092 198.940854 
L 185.123793 187.259895 
L 185.733494 181.419415 
L 186.343195 163.897976 
L 186.952896 158.057496 
L 187.562597 165.844802 
L 190.001401 165.844802 
L 190.611102 160.004323 
L 191.220803 160.004323 
L 191.830504 154.163843 
L 192.440205 160.004323 
L 193.049905 156.11067 
L 193.659606 154.163843 
L 194.269307 165.844802 
L 194.879008 185.313068 
L 195.488709 177.525762 
L 196.09841 179.472588 
L 196.708111 169.738456 
L 197.317812 179.472588 
L 197.927513 185.313068 
L 198.537214 196.994028 
L 199.146915 204.781334 
L 199.756616 202.834507 
L 200.366317 212.56864 
L 200.976018 230.090079 
L 202.19542 237.877386 
L 202.805121 237.877386 
L 203.414822 243.717865 
L 204.024523 259.292478 
L 204.634224 261.239305 
L 205.243925 274.867091 
L 207.073028 214.515467 
L 207.682729 212.56864 
L 208.29243 224.2496 
L 208.902131 218.40912 
L 209.511832 230.090079 
L 210.121533 220.355947 
L 210.731234 222.302773 
L 211.340935 220.355947 
L 211.950636 233.983733 
L 213.170038 230.090079 
L 213.779739 232.036906 
L 214.38944 226.196426 
L 214.999141 222.302773 
L 215.608842 198.940854 
L 216.218543 191.153548 
L 216.828244 187.259895 
L 217.437945 179.472588 
L 218.047646 196.994028 
L 218.657347 218.40912 
L 219.267048 224.2496 
L 219.876749 224.2496 
L 220.48645 214.515467 
L 221.096151 228.143253 
L 221.705852 214.515467 
L 222.315553 218.40912 
L 222.925254 206.728161 
L 223.534955 198.940854 
L 224.144656 183.366242 
L 224.754357 175.578935 
L 225.364058 173.632109 
L 225.973759 163.897976 
L 226.58346 146.376537 
L 227.193161 148.323363 
L 227.802862 167.791629 
L 228.412563 158.057496 
L 229.022264 161.951149 
L 229.631965 150.27019 
L 230.851367 158.057496 
L 231.461068 158.057496 
L 232.070769 160.004323 
L 232.68047 158.057496 
L 233.290171 152.217016 
L 233.899872 152.217016 
L 234.509573 154.163843 
L 235.119274 181.419415 
L 235.728975 183.366242 
L 236.948377 198.940854 
L 237.558078 193.100374 
L 238.167779 196.994028 
L 239.38718 218.40912 
L 239.996881 208.674987 
L 240.606582 214.515467 
L 241.216283 218.40912 
L 241.825984 228.143253 
L 242.435685 228.143253 
L 243.045386 218.40912 
L 243.655087 218.40912 
L 244.264788 226.196426 
L 244.874489 220.355947 
L 246.093891 212.56864 
L 248.532695 165.844802 
L 249.142396 169.738456 
L 249.752097 150.27019 
L 250.361798 150.27019 
L 250.971499 154.163843 
L 251.5812 154.163843 
L 252.190901 171.685282 
L 252.800602 158.057496 
L 253.410303 154.163843 
L 254.020004 146.376537 
L 254.629705 142.482884 
L 255.239406 144.42971 
L 255.849107 148.323363 
L 256.458808 142.482884 
L 257.068509 158.057496 
L 257.67821 158.057496 
L 258.287911 144.42971 
L 258.897612 146.376537 
L 259.507313 142.482884 
L 260.117014 161.951149 
L 260.726715 169.738456 
L 261.336416 165.844802 
L 261.946117 177.525762 
L 262.555818 179.472588 
L 263.77522 154.163843 
L 264.384921 150.27019 
L 264.994622 169.738456 
L 265.604323 181.419415 
L 266.214024 206.728161 
L 266.823725 206.728161 
L 267.433426 200.887681 
L 268.043127 202.834507 
L 268.652828 212.56864 
L 269.262529 196.994028 
L 269.87223 204.781334 
L 270.481931 218.40912 
L 271.091632 224.2496 
L 271.701333 220.355947 
L 272.311034 208.674987 
L 272.920735 200.887681 
L 273.530436 198.940854 
L 274.140137 208.674987 
L 274.749838 212.56864 
L 275.359539 230.090079 
L 275.96924 233.983733 
L 276.578941 235.930559 
L 277.188642 228.143253 
L 278.408044 208.674987 
L 279.017745 212.56864 
L 279.627446 204.781334 
L 280.237147 193.100374 
L 280.846848 185.313068 
L 281.456549 193.100374 
L 282.06625 196.994028 
L 282.675951 206.728161 
L 283.285652 212.56864 
L 283.895353 206.728161 
L 284.505053 220.355947 
L 285.114754 212.56864 
L 285.724455 214.515467 
L 286.334156 191.153548 
L 286.943857 185.313068 
L 287.553558 167.791629 
L 288.163259 171.685282 
L 288.77296 167.791629 
L 289.382661 171.685282 
L 289.992362 177.525762 
L 290.602063 179.472588 
L 291.211764 175.578935 
L 291.821465 183.366242 
L 292.431166 196.994028 
L 293.650568 216.462293 
L 294.86997 208.674987 
L 295.479671 218.40912 
L 296.089372 224.2496 
L 296.699073 208.674987 
L 297.308774 233.983733 
L 297.918475 224.2496 
L 298.528176 233.983733 
L 299.137877 226.196426 
L 300.357279 230.090079 
L 300.96698 230.090079 
L 301.576681 220.355947 
L 302.186382 218.40912 
L 303.405784 210.621814 
L 304.625186 167.791629 
L 305.234887 156.11067 
L 305.844588 156.11067 
L 306.454289 146.376537 
L 307.06399 130.801924 
L 307.673691 119.120965 
L 308.283392 115.227311 
L 308.893093 126.908271 
L 309.502794 119.120965 
L 310.112495 128.855097 
L 311.331897 169.738456 
L 311.941598 177.525762 
L 312.551299 173.632109 
L 313.161 165.844802 
L 313.770701 165.844802 
L 314.380402 152.217016 
L 314.990103 144.42971 
L 315.599804 152.217016 
L 316.209505 179.472588 
L 316.819206 191.153548 
L 317.428907 198.940854 
L 318.038608 193.100374 
L 318.648309 195.047201 
L 319.25801 210.621814 
L 319.867711 208.674987 
L 320.477412 224.2496 
L 321.087113 218.40912 
L 321.696814 224.2496 
L 322.306515 224.2496 
L 322.916216 216.462293 
L 323.525917 200.887681 
L 324.135618 202.834507 
L 324.745319 195.047201 
L 325.35502 196.994028 
L 325.964721 210.621814 
L 326.574422 235.930559 
L 327.184123 235.930559 
L 327.793824 237.877386 
L 328.403525 235.930559 
L 329.013226 235.930559 
L 330.232627 239.824212 
L 330.842328 257.345651 
L 332.06173 249.558345 
L 332.671431 253.451998 
L 333.281132 255.398825 
L 334.500534 224.2496 
L 335.110235 222.302773 
L 335.719936 226.196426 
L 337.549039 255.398825 
L 338.15874 241.771039 
L 338.768441 218.40912 
L 339.378142 228.143253 
L 339.987843 220.355947 
L 340.597544 214.515467 
L 341.207245 214.515467 
L 341.816946 208.674987 
L 343.036348 189.206721 
L 343.646049 183.366242 
L 344.25575 171.685282 
L 344.865451 167.791629 
L 345.475152 161.951149 
L 346.084853 177.525762 
L 346.694554 183.366242 
L 347.304255 181.419415 
L 347.913956 185.313068 
L 348.523657 175.578935 
L 349.133358 171.685282 
L 349.743059 163.897976 
L 350.35276 175.578935 
L 350.962461 173.632109 
L 351.572162 163.897976 
L 352.181863 167.791629 
L 352.791564 167.791629 
L 354.010966 156.11067 
L 354.620667 148.323363 
L 355.230368 150.27019 
L 356.44977 150.27019 
L 357.059471 142.482884 
L 357.669172 146.376537 
L 358.278873 130.801924 
L 358.888574 130.801924 
L 359.498275 136.642404 
L 360.107976 136.642404 
L 360.717677 138.58923 
L 362.54678 99.652699 
L 363.156481 103.546352 
L 363.766182 103.546352 
L 364.375883 99.652699 
L 365.595285 115.227311 
L 366.204986 121.067791 
L 366.814687 148.323363 
L 367.424388 148.323363 
L 368.034089 140.536057 
L 368.64379 152.217016 
L 369.253491 167.791629 
L 369.863192 165.844802 
L 370.472893 177.525762 
L 371.082594 179.472588 
L 371.692295 175.578935 
L 372.301996 167.791629 
L 372.911697 171.685282 
L 373.521398 195.047201 
L 374.131099 212.56864 
L 374.7408 224.2496 
L 375.350501 230.090079 
L 375.960201 232.036906 
L 376.569902 243.717865 
L 377.179603 226.196426 
L 377.789304 226.196426 
L 378.399005 222.302773 
L 379.008706 204.781334 
L 379.618407 198.940854 
L 380.228108 208.674987 
L 380.837809 212.56864 
L 381.44751 183.366242 
L 382.057211 183.366242 
L 382.666912 171.685282 
L 383.276613 175.578935 
L 383.886314 185.313068 
L 385.105716 173.632109 
L 385.715417 160.004323 
L 386.934819 152.217016 
L 387.54452 154.163843 
L 388.154221 138.58923 
L 388.763922 128.855097 
L 389.373623 134.695577 
L 389.983324 136.642404 
L 390.593025 150.27019 
L 391.202726 150.27019 
L 391.812427 140.536057 
L 392.422128 146.376537 
L 393.031829 142.482884 
L 393.64153 156.11067 
L 394.251231 158.057496 
L 394.860932 165.844802 
L 395.470633 161.951149 
L 396.080334 148.323363 
L 396.690035 171.685282 
L 397.299736 160.004323 
L 397.909437 173.632109 
L 399.128839 177.525762 
L 399.73854 181.419415 
L 400.348241 206.728161 
L 400.957942 198.940854 
L 401.567643 214.515467 
L 402.177344 206.728161 
L 402.787045 191.153548 
L 403.396746 187.259895 
L 404.006447 196.994028 
L 404.616148 187.259895 
L 405.225849 195.047201 
L 405.83555 206.728161 
L 406.445251 206.728161 
L 407.054952 204.781334 
L 407.664653 204.781334 
L 408.274354 196.994028 
L 408.884055 183.366242 
L 409.493756 202.834507 
L 410.103457 200.887681 
L 410.713158 196.994028 
L 411.322859 195.047201 
L 411.93256 177.525762 
L 412.542261 181.419415 
L 413.151962 183.366242 
L 414.371364 175.578935 
L 414.981065 181.419415 
L 416.200467 196.994028 
L 416.810168 200.887681 
L 417.419869 195.047201 
L 418.02957 169.738456 
L 418.639271 167.791629 
L 419.248972 173.632109 
L 419.858673 169.738456 
L 420.468374 189.206721 
L 421.078075 181.419415 
L 421.687775 161.951149 
L 422.297476 152.217016 
L 422.907177 148.323363 
L 423.516878 142.482884 
L 424.126579 165.844802 
L 424.73628 150.27019 
L 425.345981 152.217016 
L 425.955682 142.482884 
L 426.565383 150.27019 
L 427.175084 148.323363 
L 427.784785 142.482884 
L 428.394486 132.748751 
L 429.004187 130.801924 
L 429.613888 115.227311 
L 430.223589 132.748751 
L 430.83329 146.376537 
L 431.442991 136.642404 
L 432.052692 152.217016 
L 432.662393 138.58923 
L 433.272094 150.27019 
L 433.881795 158.057496 
L 434.491496 163.897976 
L 435.101197 161.951149 
L 435.710898 163.897976 
L 436.320599 158.057496 
L 436.9303 158.057496 
L 437.540001 150.27019 
L 438.149702 154.163843 
L 438.759403 161.951149 
L 439.369104 160.004323 
L 439.978805 163.897976 
L 440.588506 165.844802 
L 441.198207 169.738456 
L 441.807908 165.844802 
L 442.417609 163.897976 
L 443.02731 158.057496 
L 443.637011 165.844802 
L 444.856413 144.42971 
L 445.466114 134.695577 
L 446.075815 132.748751 
L 446.685516 123.014618 
L 447.295217 132.748751 
L 447.904918 134.695577 
L 448.514619 132.748751 
L 449.12432 148.323363 
L 449.734021 160.004323 
L 450.343722 163.897976 
L 450.953423 156.11067 
L 451.563124 167.791629 
L 452.172825 163.897976 
L 452.782526 150.27019 
L 454.001928 158.057496 
L 454.611629 154.163843 
L 455.22133 142.482884 
L 455.831031 148.323363 
L 456.440732 146.376537 
L 457.050433 160.004323 
L 457.660134 177.525762 
L 458.269835 183.366242 
L 458.879536 195.047201 
L 459.489237 191.153548 
L 460.098938 193.100374 
L 460.708639 185.313068 
L 461.31834 171.685282 
L 461.928041 173.632109 
L 463.757144 156.11067 
L 464.366845 158.057496 
L 464.976546 167.791629 
L 465.586247 160.004323 
L 466.195948 171.685282 
L 466.805649 171.685282 
L 467.41535 177.525762 
L 468.02505 179.472588 
L 468.634751 183.366242 
L 469.244452 193.100374 
L 469.854153 175.578935 
L 470.463854 185.313068 
L 471.073555 181.419415 
L 471.683256 189.206721 
L 472.292957 193.100374 
L 472.902658 204.781334 
L 473.512359 220.355947 
L 474.12206 220.355947 
L 474.731761 210.621814 
L 475.341462 212.56864 
L 475.951163 196.994028 
L 476.560864 206.728161 
L 477.170565 206.728161 
L 477.780266 212.56864 
L 478.389967 216.462293 
L 478.999668 222.302773 
L 479.609369 226.196426 
L 480.21907 216.462293 
L 481.438472 191.153548 
L 482.048173 191.153548 
L 482.657874 173.632109 
L 483.267575 171.685282 
L 483.877276 158.057496 
L 484.486977 158.057496 
L 485.096678 154.163843 
L 485.706379 134.695577 
L 486.31608 128.855097 
L 486.925781 150.27019 
L 487.535482 160.004323 
L 488.145183 173.632109 
L 489.364585 169.738456 
L 489.974286 177.525762 
L 490.583987 191.153548 
L 491.193688 196.994028 
L 491.803389 193.100374 
L 492.41309 191.153548 
L 493.632492 206.728161 
L 494.242193 208.674987 
L 494.851894 204.781334 
L 495.461595 208.674987 
L 496.071296 204.781334 
L 496.680997 196.994028 
L 497.290698 187.259895 
L 497.900399 198.940854 
L 498.5101 195.047201 
L 499.119801 173.632109 
L 499.729502 177.525762 
L 500.339203 165.844802 
L 500.948904 167.791629 
L 501.558605 177.525762 
L 502.778007 152.217016 
L 503.387708 150.27019 
L 503.997409 158.057496 
L 504.60711 160.004323 
L 505.216811 160.004323 
L 506.436213 163.897976 
L 507.045914 167.791629 
L 507.655615 165.844802 
L 508.265316 177.525762 
L 508.875017 181.419415 
L 509.484718 187.259895 
L 510.094419 179.472588 
L 510.70412 183.366242 
L 511.313821 195.047201 
L 511.923522 179.472588 
L 512.533223 183.366242 
L 513.142924 183.366242 
L 513.752624 171.685282 
L 514.972026 163.897976 
L 515.581727 163.897976 
L 516.191428 146.376537 
L 516.801129 156.11067 
L 517.41083 161.951149 
L 518.020531 146.376537 
L 518.630232 156.11067 
L 519.239933 177.525762 
L 519.849634 160.004323 
L 520.459335 150.27019 
L 521.069036 146.376537 
L 522.288438 158.057496 
L 522.898139 160.004323 
L 523.50784 169.738456 
L 524.117541 171.685282 
L 524.727242 183.366242 
L 525.336943 177.525762 
L 525.946644 173.632109 
L 526.556345 187.259895 
L 527.166046 177.525762 
L 527.775747 161.951149 
L 528.385448 171.685282 
L 528.995149 152.217016 
L 530.214551 160.004323 
L 530.824252 156.11067 
L 531.433953 138.58923 
L 532.043654 158.057496 
L 532.653355 154.163843 
L 533.263056 161.951149 
L 533.872757 146.376537 
L 534.482458 140.536057 
L 535.092159 144.42971 
L 535.70186 140.536057 
L 536.311561 144.42971 
L 536.921262 134.695577 
L 537.530963 140.536057 
L 538.140664 152.217016 
L 538.750365 142.482884 
L 539.360066 156.11067 
L 539.969767 173.632109 
L 540.579468 160.004323 
L 541.189169 177.525762 
L 541.79887 173.632109 
L 542.408571 187.259895 
L 543.018272 171.685282 
L 543.627973 161.951149 
L 544.237674 154.163843 
L 544.847375 161.951149 
L 545.457076 167.791629 
L 546.066777 169.738456 
L 546.676478 165.844802 
L 547.89588 161.951149 
L 548.505581 175.578935 
L 549.115282 177.525762 
L 549.724983 161.951149 
L 550.334684 167.791629 
L 550.944385 161.951149 
L 551.554086 173.632109 
L 552.163787 165.844802 
L 552.773488 185.313068 
L 553.383189 177.525762 
L 553.99289 183.366242 
L 554.602591 183.366242 
L 555.212292 193.100374 
L 555.821993 212.56864 
L 556.431694 218.40912 
L 557.041395 233.983733 
L 557.651096 222.302773 
L 558.260797 216.462293 
L 559.480198 216.462293 
L 560.089899 214.515467 
L 560.6996 183.366242 
L 561.919002 195.047201 
L 562.528703 189.206721 
L 563.138404 195.047201 
L 563.748105 193.100374 
L 564.357806 185.313068 
L 564.967507 187.259895 
L 565.577208 177.525762 
L 566.186909 154.163843 
L 566.79661 140.536057 
L 567.406311 156.11067 
L 568.016012 152.217016 
L 568.625713 163.897976 
L 569.235414 154.163843 
L 570.454816 185.313068 
L 571.064517 187.259895 
L 571.674218 183.366242 
L 572.283919 181.419415 
L 572.89362 191.153548 
L 573.503321 189.206721 
L 574.113022 196.994028 
L 574.722723 193.100374 
L 575.332424 196.994028 
L 575.942125 179.472588 
L 576.551826 183.366242 
L 577.161527 175.578935 
L 577.771228 193.100374 
L 578.380929 202.834507 
L 578.99063 216.462293 
L 579.600331 195.047201 
L 580.210032 191.153548 
L 580.819733 177.525762 
L 581.429434 175.578935 
L 582.648836 136.642404 
L 583.258537 142.482884 
L 583.868238 136.642404 
L 584.477939 138.58923 
L 585.08764 148.323363 
L 585.697341 148.323363 
L 586.307042 130.801924 
L 586.916743 136.642404 
L 587.526444 138.58923 
L 588.136145 148.323363 
L 588.745846 148.323363 
L 589.355547 142.482884 
L 589.965248 123.014618 
L 590.574949 126.908271 
L 591.18465 128.855097 
L 591.794351 136.642404 
L 592.404052 134.695577 
L 593.013753 142.482884 
L 593.623454 134.695577 
L 594.842856 165.844802 
L 595.452557 163.897976 
L 596.062258 167.791629 
L 597.28166 163.897976 
L 597.891361 156.11067 
L 598.501062 161.951149 
L 599.110763 163.897976 
L 599.720464 163.897976 
L 600.939866 152.217016 
L 601.549567 158.057496 
L 602.159268 181.419415 
L 602.768969 189.206721 
L 603.37867 179.472588 
L 603.988371 173.632109 
L 604.598072 173.632109 
L 605.207772 158.057496 
L 605.817473 165.844802 
L 606.427174 158.057496 
L 607.646576 165.844802 
L 608.256277 165.844802 
L 608.865978 167.791629 
L 609.475679 163.897976 
L 610.08538 177.525762 
L 610.695081 187.259895 
L 611.304782 173.632109 
L 611.914483 169.738456 
L 612.524184 167.791629 
L 613.743586 193.100374 
L 614.353287 183.366242 
L 614.962988 169.738456 
L 615.572689 169.738456 
L 616.18239 181.419415 
L 616.792091 173.632109 
L 617.401792 167.791629 
L 618.011493 183.366242 
L 618.621194 169.738456 
L 619.230895 171.685282 
L 619.840596 161.951149 
L 620.450297 179.472588 
L 621.059998 160.004323 
L 621.669699 165.844802 
L 622.2794 148.323363 
L 622.889101 150.27019 
L 623.498802 175.578935 
L 624.108503 163.897976 
L 624.718204 167.791629 
L 625.327905 163.897976 
L 625.937606 158.057496 
L 626.547307 146.376537 
L 627.157008 154.163843 
L 627.766709 163.897976 
L 628.37641 152.217016 
L 628.986111 154.163843 
L 629.595812 161.951149 
L 630.205513 144.42971 
L 630.815214 150.27019 
L 631.424915 144.42971 
L 632.034616 148.323363 
L 632.644317 136.642404 
L 633.254018 146.376537 
L 633.863719 152.217016 
L 634.47342 165.844802 
L 635.692822 128.855097 
L 636.302523 126.908271 
L 636.912224 126.908271 
L 637.521925 134.695577 
L 638.131626 124.961444 
L 639.351028 121.067791 
L 639.960729 109.386832 
L 640.57043 117.174138 
L 641.180131 132.748751 
L 641.789832 144.42971 
L 642.399533 146.376537 
L 643.618935 154.163843 
L 644.228636 146.376537 
L 644.838337 150.27019 
L 645.448038 142.482884 
L 646.057739 132.748751 
L 647.277141 152.217016 
L 647.886842 144.42971 
L 648.496543 160.004323 
L 649.106244 165.844802 
L 649.715945 152.217016 
L 650.325646 169.738456 
L 651.545047 185.313068 
L 652.154748 187.259895 
L 652.764449 191.153548 
L 653.37415 181.419415 
L 654.593552 173.632109 
L 655.203253 185.313068 
L 655.812954 179.472588 
L 656.422655 181.419415 
L 657.032356 167.791629 
L 657.642057 179.472588 
L 658.251758 163.897976 
L 659.47116 152.217016 
L 660.080861 160.004323 
L 660.690562 160.004323 
L 661.300263 158.057496 
L 661.909964 163.897976 
L 662.519665 156.11067 
L 663.129366 158.057496 
L 663.739067 154.163843 
L 664.348768 160.004323 
L 664.958469 163.897976 
L 665.56817 173.632109 
L 666.177871 163.897976 
L 667.397273 148.323363 
L 668.006974 152.217016 
L 668.616675 152.217016 
L 669.226376 177.525762 
L 669.836077 191.153548 
L 670.445778 210.621814 
L 671.055479 196.994028 
L 671.66518 202.834507 
L 672.274881 214.515467 
L 673.494283 195.047201 
L 674.103984 200.887681 
L 674.713685 185.313068 
L 675.323386 187.259895 
L 675.933087 183.366242 
L 676.542788 185.313068 
L 677.152489 183.366242 
L 677.76219 175.578935 
L 678.371891 179.472588 
L 678.981592 198.940854 
L 679.591293 191.153548 
L 680.200994 191.153548 
L 680.810695 196.994028 
L 681.420396 195.047201 
L 682.030097 177.525762 
L 682.639798 173.632109 
L 683.249499 177.525762 
L 683.8592 187.259895 
L 684.468901 173.632109 
L 685.078602 179.472588 
L 685.688303 195.047201 
L 686.298004 193.100374 
L 686.907705 222.302773 
L 687.517406 216.462293 
L 688.127107 214.515467 
L 689.346509 198.940854 
L 690.565911 206.728161 
L 691.175612 206.728161 
L 691.785313 210.621814 
L 692.395014 222.302773 
L 694.224117 198.940854 
L 694.833818 216.462293 
L 695.443519 228.143253 
L 696.05322 216.462293 
L 696.66292 233.983733 
L 697.882322 237.877386 
L 698.492023 222.302773 
L 699.101724 191.153548 
L 700.321126 206.728161 
L 700.930827 212.56864 
L 701.540528 212.56864 
L 702.150229 220.355947 
L 702.75993 220.355947 
L 703.369631 204.781334 
L 703.979332 218.40912 
L 704.589033 208.674987 
L 705.198734 210.621814 
L 705.808435 206.728161 
L 706.418136 226.196426 
L 707.027837 214.515467 
L 707.637538 196.994028 
L 708.247239 193.100374 
L 708.85694 175.578935 
L 710.076342 156.11067 
L 710.686043 160.004323 
L 711.295744 169.738456 
L 711.905445 175.578935 
L 712.515146 173.632109 
L 713.124847 165.844802 
L 713.734548 179.472588 
L 714.344249 177.525762 
L 714.95395 187.259895 
L 715.563651 200.887681 
L 716.173352 183.366242 
L 716.783053 169.738456 
L 717.392754 175.578935 
L 718.002455 173.632109 
L 718.612156 165.844802 
L 719.221857 167.791629 
L 719.831558 167.791629 
L 720.441259 171.685282 
L 721.05096 181.419415 
L 721.660661 193.100374 
L 722.270362 200.887681 
L 723.489764 204.781334 
L 724.099465 202.834507 
L 724.709166 202.834507 
L 725.318867 200.887681 
L 725.928568 187.259895 
L 726.538269 177.525762 
L 727.14797 161.951149 
L 727.757671 154.163843 
L 728.367372 163.897976 
L 728.977073 161.951149 
L 729.586774 152.217016 
L 730.196475 158.057496 
L 730.806176 169.738456 
L 731.415877 161.951149 
L 732.025578 160.004323 
L 732.635279 169.738456 
L 733.24498 158.057496 
L 733.854681 158.057496 
L 734.464382 140.536057 
L 735.074083 154.163843 
L 735.683784 146.376537 
L 736.293485 136.642404 
L 736.903186 123.014618 
L 737.512887 128.855097 
L 738.122588 132.748751 
L 738.732289 134.695577 
L 739.34199 146.376537 
L 739.951691 148.323363 
L 740.561392 132.748751 
L 741.171093 142.482884 
L 741.780794 154.163843 
L 742.390494 150.27019 
L 743.000195 144.42971 
L 743.609896 146.376537 
L 744.219597 152.217016 
L 745.438999 171.685282 
L 746.0487 169.738456 
L 746.658401 171.685282 
L 747.268102 161.951149 
L 747.877803 165.844802 
L 748.487504 163.897976 
L 749.097205 169.738456 
L 749.706906 173.632109 
L 750.316607 173.632109 
L 750.926308 177.525762 
L 752.14571 169.738456 
L 753.365112 191.153548 
L 753.974813 177.525762 
L 755.194215 173.632109 
L 755.803916 163.897976 
L 756.413617 158.057496 
L 757.023318 144.42971 
L 757.633019 136.642404 
L 758.24272 138.58923 
L 758.852421 138.58923 
L 759.462122 142.482884 
L 760.071823 156.11067 
L 760.681524 148.323363 
L 761.291225 148.323363 
L 762.510627 136.642404 
L 763.120328 128.855097 
L 763.730029 119.120965 
L 764.33973 142.482884 
L 764.949431 142.482884 
L 765.559132 134.695577 
L 766.168833 144.42971 
L 766.778534 136.642404 
L 767.388235 138.58923 
L 767.997936 152.217016 
L 769.217338 152.217016 
L 769.827039 163.897976 
L 770.43674 156.11067 
L 771.046441 169.738456 
L 771.656142 150.27019 
L 772.265843 138.58923 
L 773.485245 161.951149 
L 774.094946 158.057496 
L 774.704647 163.897976 
L 775.314348 165.844802 
L 775.924049 173.632109 
L 776.53375 154.163843 
L 777.143451 154.163843 
L 777.753152 152.217016 
L 778.362853 152.217016 
L 778.972554 161.951149 
L 779.582255 161.951149 
L 780.191956 160.004323 
L 780.801657 167.791629 
L 781.411358 161.951149 
L 782.021059 148.323363 
L 782.63076 158.057496 
L 783.240461 152.217016 
L 783.850162 161.951149 
L 784.459863 160.004323 
L 785.069564 163.897976 
L 785.679265 158.057496 
L 786.288966 156.11067 
L 786.898667 146.376537 
L 788.727769 158.057496 
L 789.33747 167.791629 
L 789.947171 163.897976 
L 790.556872 171.685282 
L 791.166573 173.632109 
L 791.776274 171.685282 
L 792.385975 161.951149 
L 792.995676 150.27019 
L 793.605377 156.11067 
L 794.215078 154.163843 
L 794.824779 154.163843 
L 795.43448 150.27019 
L 796.044181 163.897976 
L 796.653882 171.685282 
L 797.263583 154.163843 
L 797.873284 161.951149 
L 798.482985 171.685282 
L 799.092686 175.578935 
L 799.702387 167.791629 
L 800.921789 156.11067 
L 802.141191 163.897976 
L 802.750892 165.844802 
L 803.360593 154.163843 
L 803.970294 152.217016 
L 804.579995 167.791629 
L 805.189696 179.472588 
L 805.799397 171.685282 
L 806.409098 173.632109 
L 807.6285 173.632109 
L 808.238201 185.313068 
L 808.847902 177.525762 
L 809.457603 202.834507 
L 810.067304 200.887681 
L 810.677005 196.994028 
L 811.286706 198.940854 
L 811.896407 212.56864 
L 812.506108 218.40912 
L 812.506108 218.40912 
" clip-path="url(#p2816f4f0de)" style="fill: none; stroke: #1f77b4; stroke-width: 1.5; stroke-linecap: round"/>
   </g>
   <g id="patch_3">
    <path d="M 39.801563 459.42625 
L 39.801563 82.520625 
" style="fill: none; stroke: #cccccc; stroke-width: 0.8; stroke-linejoin: miter; stroke-linecap: square"/>
   </g>
   <g id="patch_4">
    <path d="M 849.301563 459.42625 
L 849.301563 82.520625 
" style="fill: none; stroke: #cccccc; stroke-width: 0.8; stroke-linejoin: miter; stroke-linecap: square"/>
   </g>
   <g id="patch_5">
    <path d="M 39.801562 459.42625 
L 849.301563 459.42625 
" style="fill: none; stroke: #cccccc; stroke-width: 0.8; stroke-linejoin: miter; stroke-linecap: square"/>
   </g>
   <g id="patch_6">
    <path d="M 39.801562 82.520625 
L 849.301563 82.520625 
" style="fill: none; stroke: #cccccc; stroke-width: 0.8; stroke-linejoin: miter; stroke-linecap: square"/>
   </g>
   <g id="legend_1">
    <g id="patch_7">
     <path d="M 770.301563 454.42625 
L 842.301563 454.42625 
Q 844.301563 454.42625 844.301563 452.42625 
L 844.301563 437.946562 
Q 844.301563 435.946562 842.301563 435.946562 
L 770.301563 435.946562 
Q 768.301563 435.946562 768.301563 437.946562 
L 768.301563 452.42625 
Q 768.301563 454.42625 770.301563 454.42625 
z
" style="fill: #ffffff; opacity: 0.8; stroke: #cccccc; stroke-linejoin: miter"/>
    </g>
    <g id="line2d_15">
     <path d="M 772.301563 444.440312 
L 782.301563 444.440312 
L 792.301563 444.440312 
" style="fill: none; stroke: #1f77b4; stroke-width: 1.5; stroke-linecap: round"/>
    </g>
    <g id="text_16">
     <!-- 平滑奖励 -->
     <g style="fill: #262626" transform="translate(800.301563 447.940312) scale(0.1 -0.1)">
      <use xlink:href="#MicrosoftYaHei-5e73"/>
      <use xlink:href="#MicrosoftYaHei-6ed1" transform="translate(100 0)"/>
      <use xlink:href="#MicrosoftYaHei-5956" transform="translate(200 0)"/>
      <use xlink:href="#MicrosoftYaHei-52b1" transform="translate(300 0)"/>
     </g>
    </g>
   </g>
  </g>
  <g id="text_17">
   <!-- default_params - PPO - 初始训练 (伽马分布(尖峰,shape5,scale2)) -->
   <g style="fill: #262626" transform="translate(179.826562 20.5975) scale(0.16 -0.16)">
    <defs>
     <path id="MicrosoftYaHei-Bold-64" d="M 3794 0 
L 2788 0 
L 2788 488 
L 2772 488 
Q 2406 -84 1691 -84 
Q 1031 -84 642 381 
Q 253 847 253 1650 
Q 253 2500 689 3020 
Q 1125 3541 1828 3541 
Q 2503 3541 2772 3053 
L 2788 3053 
L 2788 5116 
L 3794 5116 
L 3794 0 
z
M 2803 1956 
Q 2803 2306 2592 2536 
Q 2381 2766 2066 2766 
Q 1697 2766 1486 2473 
Q 1275 2181 1275 1681 
Q 1275 1206 1478 948 
Q 1681 691 2038 691 
Q 2372 691 2587 962 
Q 2803 1234 2803 1669 
L 2803 1956 
z
" transform="scale(0.015625)"/>
     <path id="MicrosoftYaHei-Bold-65" d="M 3528 1444 
L 1253 1444 
Q 1306 641 2222 641 
Q 2794 641 3231 922 
L 3231 181 
Q 2759 -84 1994 -84 
Q 1169 -84 711 381 
Q 253 847 253 1678 
Q 253 2506 740 3023 
Q 1228 3541 1966 3541 
Q 2700 3541 3114 3095 
Q 3528 2650 3528 1872 
L 3528 1444 
z
M 2588 2075 
Q 2588 2850 1959 2850 
Q 1700 2850 1500 2637 
Q 1300 2425 1250 2075 
L 2588 2075 
z
" transform="scale(0.015625)"/>
     <path id="MicrosoftYaHei-Bold-66" d="M 2653 4338 
Q 2447 4419 2263 4419 
Q 1744 4419 1744 3844 
L 1744 3456 
L 2531 3456 
L 2531 2703 
L 1744 2703 
L 1744 0 
L 734 0 
L 734 2703 
L 156 2703 
L 156 3456 
L 734 3456 
L 734 3900 
Q 734 4491 1118 4844 
Q 1503 5197 2128 5197 
Q 2447 5197 2653 5131 
L 2653 4338 
z
" transform="scale(0.015625)"/>
     <path id="MicrosoftYaHei-Bold-61" d="M 544 3247 
Q 778 3378 1170 3459 
Q 1563 3541 1841 3541 
Q 3291 3541 3291 2088 
L 3291 0 
L 2331 0 
L 2331 503 
L 2319 503 
Q 1966 -84 1284 -84 
Q 794 -84 498 195 
Q 203 475 203 956 
Q 203 1950 1388 2113 
L 2338 2241 
Q 2338 2844 1709 2844 
Q 1091 2844 544 2469 
L 544 3247 
z
M 1684 1566 
Q 1138 1494 1138 1072 
Q 1138 878 1270 759 
Q 1403 641 1628 641 
Q 1938 641 2138 859 
Q 2338 1078 2338 1403 
L 2338 1650 
L 1684 1566 
z
" transform="scale(0.015625)"/>
     <path id="MicrosoftYaHei-Bold-75" d="M 3691 0 
L 2688 0 
L 2688 528 
L 2672 528 
Q 2284 -84 1613 -84 
Q 406 -84 406 1372 
L 406 3456 
L 1416 3456 
L 1416 1466 
Q 1416 691 2022 691 
Q 2325 691 2506 903 
Q 2688 1116 2688 1478 
L 2688 3456 
L 3691 3456 
L 3691 0 
z
" transform="scale(0.015625)"/>
     <path id="MicrosoftYaHei-Bold-6c" d="M 444 0 
L 444 5116 
L 1450 5116 
L 1450 0 
L 444 0 
z
" transform="scale(0.015625)"/>
     <path id="MicrosoftYaHei-Bold-74" d="M 2494 41 
Q 2266 -84 1803 -84 
Q 703 -84 703 1072 
L 703 2703 
L 134 2703 
L 134 3456 
L 703 3456 
L 703 4216 
L 1706 4503 
L 1706 3456 
L 2494 3456 
L 2494 2703 
L 1706 2703 
L 1706 1247 
Q 1706 694 2144 694 
Q 2313 694 2494 794 
L 2494 41 
z
" transform="scale(0.015625)"/>
     <path id="MicrosoftYaHei-Bold-5f" d="M 2869 -1675 
L 0 -1675 
L 0 -1272 
L 2869 -1272 
L 2869 -1675 
z
" transform="scale(0.015625)"/>
     <path id="MicrosoftYaHei-Bold-70" d="M 1469 416 
L 1469 -1591 
L 459 -1591 
L 459 3456 
L 1469 3456 
L 1469 2928 
L 1481 2928 
Q 1878 3541 2603 3541 
Q 3263 3541 3634 3080 
Q 4006 2619 4006 1825 
Q 4006 959 3575 437 
Q 3144 -84 2444 -84 
Q 1809 -84 1481 416 
L 1469 416 
z
M 1453 1528 
Q 1453 1159 1653 925 
Q 1853 691 2172 691 
Q 2550 691 2761 984 
Q 2972 1278 2972 1816 
Q 2972 2766 2231 2766 
Q 1888 2766 1670 2503 
Q 1453 2241 1453 1828 
L 1453 1528 
z
" transform="scale(0.015625)"/>
     <path id="MicrosoftYaHei-Bold-72" d="M 2663 2541 
Q 2478 2647 2216 2647 
Q 1872 2647 1670 2384 
Q 1469 2122 1469 1663 
L 1469 0 
L 459 0 
L 459 3456 
L 1469 3456 
L 1469 2806 
L 1481 2806 
Q 1731 3516 2391 3516 
Q 2569 3516 2663 3475 
L 2663 2541 
z
" transform="scale(0.015625)"/>
     <path id="MicrosoftYaHei-Bold-6d" d="M 5881 0 
L 4875 0 
L 4875 1972 
Q 4875 2766 4297 2766 
Q 4028 2766 3850 2525 
Q 3672 2284 3672 1938 
L 3672 0 
L 2666 0 
L 2666 1997 
Q 2666 2766 2094 2766 
Q 1809 2766 1639 2536 
Q 1469 2306 1469 1928 
L 1469 0 
L 459 0 
L 459 3456 
L 1469 3456 
L 1469 2916 
L 1481 2916 
Q 1663 3213 1963 3377 
Q 2263 3541 2594 3541 
Q 3322 3541 3591 2888 
Q 3991 3541 4753 3541 
Q 5881 3541 5881 2147 
L 5881 0 
z
" transform="scale(0.015625)"/>
     <path id="MicrosoftYaHei-Bold-73" d="M 369 928 
Q 888 613 1384 613 
Q 2009 613 2009 947 
Q 2009 1184 1494 1344 
Q 850 1544 609 1789 
Q 369 2034 369 2453 
Q 369 2963 781 3252 
Q 1194 3541 1863 3541 
Q 2338 3541 2778 3400 
L 2778 2606 
Q 2375 2844 1891 2844 
Q 1650 2844 1503 2758 
Q 1356 2672 1356 2531 
Q 1356 2294 1794 2147 
Q 2263 1991 2498 1862 
Q 2734 1734 2857 1525 
Q 2981 1316 2981 1041 
Q 2981 506 2553 211 
Q 2125 -84 1409 -84 
Q 847 -84 369 94 
L 369 928 
z
" transform="scale(0.015625)"/>
     <path id="MicrosoftYaHei-Bold-20" transform="scale(0.015625)"/>
     <path id="MicrosoftYaHei-Bold-2d" d="M 2328 1497 
L 481 1497 
L 481 2209 
L 2328 2209 
L 2328 1497 
z
" transform="scale(0.015625)"/>
     <path id="MicrosoftYaHei-Bold-50" d="M 1591 1688 
L 1591 0 
L 559 0 
L 559 4841 
L 2225 4841 
Q 4031 4841 4031 3309 
Q 4031 2566 3486 2117 
Q 2941 1669 2122 1688 
L 1591 1688 
z
M 1591 4041 
L 1591 2478 
L 2038 2478 
Q 2947 2478 2947 3269 
Q 2947 4041 2047 4041 
L 1591 4041 
z
" transform="scale(0.015625)"/>
     <path id="MicrosoftYaHei-Bold-4f" d="M 256 2356 
Q 256 3494 920 4208 
Q 1584 4922 2675 4922 
Q 3713 4922 4345 4231 
Q 4978 3541 4978 2456 
Q 4978 1325 4320 620 
Q 3663 -84 2597 -84 
Q 1556 -84 906 598 
Q 256 1281 256 2356 
z
M 1341 2413 
Q 1341 1706 1681 1257 
Q 2022 809 2616 809 
Q 3222 809 3559 1239 
Q 3897 1669 3897 2394 
Q 3897 3150 3569 3589 
Q 3241 4028 2644 4028 
Q 2038 4028 1689 3578 
Q 1341 3128 1341 2413 
z
" transform="scale(0.015625)"/>
     <path id="MicrosoftYaHei-Bold-521d" d="M 1288 5359 
Q 1619 4997 2031 4453 
L 1516 4109 
L 2294 4109 
L 2294 3378 
Q 2019 2847 1700 2369 
L 1700 2256 
Q 1809 2175 1909 2097 
Q 2209 2516 2419 2878 
L 2994 2516 
Q 2716 2138 2381 1734 
Q 2619 1544 2813 1378 
L 2363 834 
Q 2016 1166 1700 1441 
L 1700 -866 
L 913 -866 
L 913 1338 
Q 641 1025 344 741 
Q 231 1228 94 1678 
Q 831 2278 1363 3303 
L 156 3303 
L 156 4109 
L 1231 4109 
Q 981 4472 613 4928 
L 1288 5359 
z
M 3919 -697 
Q 3838 -266 3700 253 
Q 4153 209 4563 209 
Q 5006 209 5040 675 
Q 5075 1141 5113 4159 
L 4097 4159 
Q 4050 2622 3984 1959 
Q 3919 1297 3595 525 
Q 3272 -247 2644 -859 
Q 2369 -578 1925 -216 
Q 2450 234 2734 806 
Q 3019 1378 3105 1972 
Q 3191 2566 3219 4159 
L 2488 4159 
L 2488 4947 
L 6013 4947 
L 5938 1331 
L 5906 491 
Q 5906 -44 5686 -328 
Q 5466 -613 5067 -647 
Q 4669 -681 3919 -697 
z
" transform="scale(0.015625)"/>
     <path id="MicrosoftYaHei-Bold-59cb" d="M 2863 -853 
L 2863 356 
L 2256 -291 
Q 2000 -25 1744 225 
Q 1309 -381 638 -847 
Q 350 -466 69 -153 
Q 706 259 1119 816 
Q 669 1228 225 1597 
Q 441 2363 616 3359 
L 119 3359 
L 119 4134 
L 741 4134 
Q 825 4706 900 5347 
L 1731 5259 
L 1550 4134 
L 2669 4134 
Q 2663 3728 2638 3363 
Q 3213 3972 3875 5359 
L 4800 5097 
Q 4225 4159 3594 3378 
Q 4328 3422 5075 3484 
Q 4847 3944 4619 4359 
L 5294 4634 
Q 5831 3747 6369 2659 
L 5613 2341 
L 5391 2828 
Q 3522 2697 2863 2578 
L 2625 3169 
Q 2519 1791 2156 953 
L 2863 394 
L 2863 2116 
L 5981 2116 
L 5981 -828 
L 5144 -828 
L 5144 -472 
L 3700 -472 
L 3700 -853 
L 2863 -853 
z
M 1088 1797 
L 1503 1469 
Q 1809 2241 1863 3359 
L 1413 3359 
Q 1259 2541 1088 1797 
z
M 5144 1328 
L 3700 1328 
L 3700 316 
L 5144 316 
L 5144 1328 
z
" transform="scale(0.015625)"/>
     <path id="MicrosoftYaHei-Bold-8bad" d="M 956 5259 
Q 1475 4753 1925 4234 
L 1263 3684 
Q 769 4328 356 4747 
L 956 5259 
z
M 2450 5184 
L 3281 5184 
L 3281 2066 
Q 3281 209 2275 -884 
Q 1844 -528 1519 -328 
Q 2450 659 2450 2134 
L 2450 5184 
z
M 5238 5184 
L 6069 5184 
L 6069 -784 
L 5238 -784 
L 5238 5184 
z
M 3856 4953 
L 4663 4953 
L 4663 -416 
L 3856 -416 
L 3856 4953 
z
M 2019 1772 
Q 2050 1466 2175 916 
Q 1556 353 925 -341 
L 488 266 
Q 650 447 650 772 
L 650 2422 
L 125 2422 
L 125 3266 
L 1475 3266 
L 1475 1297 
Q 1769 1541 2019 1772 
z
" transform="scale(0.015625)"/>
     <path id="MicrosoftYaHei-Bold-7ec3" d="M 2400 3516 
L 2984 3516 
L 3159 4028 
L 2263 4028 
L 2263 4753 
L 3394 4753 
L 3575 5347 
L 4413 5291 
L 4238 4753 
L 6000 4753 
L 6000 4028 
L 3994 4028 
L 3809 3516 
L 4969 3516 
L 4969 2191 
L 6025 2191 
L 6025 1484 
L 4969 1484 
L 4969 297 
Q 4969 -131 4831 -397 
Q 4694 -663 4444 -758 
Q 4194 -853 3394 -853 
Q 3294 -309 3225 -34 
Q 3525 -72 3756 -72 
Q 4125 -72 4125 491 
L 4125 1484 
L 2513 1484 
L 2513 2291 
Q 2613 2525 2716 2791 
L 2400 2791 
L 2400 3516 
z
M 3306 2191 
L 4125 2191 
L 4125 2791 
L 3541 2791 
L 3306 2191 
z
M 1013 3372 
L 1419 3388 
L 1744 3966 
L 2413 3659 
L 1356 1797 
Q 1894 1872 2294 1941 
Q 2263 1684 2231 1159 
Q 931 984 475 866 
L 244 1566 
Q 531 1816 1009 2653 
L 306 2584 
L 75 3297 
Q 575 3966 1219 5341 
L 2000 5028 
Q 1450 4053 1013 3372 
z
M 75 372 
Q 1100 478 2288 672 
Q 2275 350 2272 116 
Q 2722 741 3000 1309 
L 3706 1003 
Q 3294 197 2738 -597 
Q 2469 -409 2078 -191 
L 238 -503 
L 75 372 
z
M 5000 978 
L 5619 1278 
Q 5994 584 6369 -197 
L 5713 -534 
Q 5356 316 5000 978 
z
" transform="scale(0.015625)"/>
     <path id="MicrosoftYaHei-Bold-28" d="M 1606 -1100 
Q 525 97 525 1853 
Q 525 3550 1606 4841 
L 2431 4841 
Q 1406 3497 1406 1853 
Q 1406 216 2438 -1100 
L 1606 -1100 
z
" transform="scale(0.015625)"/>
     <path id="MicrosoftYaHei-Bold-4f3d" d="M 2050 5284 
L 2788 5284 
Q 2775 4666 2769 4166 
L 3863 4166 
L 3863 72 
Q 3863 -653 3181 -666 
Q 2844 -684 2550 -678 
Q 2494 -316 2394 41 
Q 2219 -428 1956 -834 
Q 1744 -466 1481 -53 
Q 2038 853 2038 3384 
L 1650 3384 
L 1650 4166 
L 2038 4166 
Q 2044 4684 2050 5284 
z
M 4200 -597 
L 4200 4697 
L 6063 4697 
L 6063 -578 
L 5331 -578 
L 5331 -122 
L 4931 -122 
L 4931 -597 
L 4200 -597 
z
M 1075 5297 
L 1794 5128 
Q 1650 4509 1456 3916 
L 1456 -803 
L 738 -803 
L 738 2141 
Q 544 1753 331 1378 
Q 263 1759 119 2478 
Q 788 3884 1075 5297 
z
M 2806 128 
Q 3119 116 3113 491 
L 3113 3384 
L 2769 3384 
Q 2750 1103 2425 128 
Q 2619 122 2806 128 
z
M 5331 3891 
L 4931 3891 
L 4931 684 
L 5331 684 
L 5331 3891 
z
" transform="scale(0.015625)"/>
     <path id="MicrosoftYaHei-Bold-9a6c" d="M 1081 4009 
L 2063 4009 
L 1925 2741 
L 4047 2741 
L 4206 4284 
L 663 4284 
L 663 5066 
L 5263 5066 
L 5028 2741 
L 6019 2741 
Q 5978 925 5934 378 
Q 5891 -169 5566 -439 
Q 5241 -709 4694 -728 
Q 4147 -747 2944 -747 
Q 2856 -303 2719 191 
Q 3931 141 4381 141 
Q 4666 141 4780 239 
Q 4894 338 4950 470 
Q 5006 603 5038 1966 
L 881 1966 
L 1081 4009 
z
M 150 1484 
L 4638 1484 
L 4638 672 
L 150 672 
L 150 1484 
z
" transform="scale(0.015625)"/>
     <path id="MicrosoftYaHei-Bold-5206" d="M 6350 3028 
Q 6088 2703 5750 2228 
Q 5519 2409 5303 2603 
Q 5219 606 5172 190 
Q 5125 -225 4862 -451 
Q 4600 -678 4128 -678 
Q 3484 -678 2913 -659 
Q 2856 -141 2781 284 
Q 3594 216 3956 216 
Q 4172 216 4230 408 
Q 4288 600 4325 1978 
L 2781 1978 
Q 2728 1100 2529 631 
Q 2331 163 1907 -215 
Q 1484 -594 844 -872 
Q 456 -353 194 -78 
Q 750 144 1111 414 
Q 1472 684 1630 989 
Q 1788 1294 1841 1978 
L 950 1978 
L 950 2475 
Q 794 2356 631 2247 
Q 344 2653 63 2953 
Q 1475 3947 2194 5316 
L 3031 4953 
Q 2378 3722 1391 2841 
L 5047 2841 
Q 4088 3766 3463 4903 
L 4238 5303 
Q 5038 3922 6350 3028 
z
" transform="scale(0.015625)"/>
     <path id="MicrosoftYaHei-Bold-5e03" d="M 3919 -834 
L 3050 -834 
L 3050 2034 
L 2063 2034 
L 2063 -359 
L 1200 -359 
L 1200 1641 
Q 825 1238 400 866 
Q 244 1403 113 1741 
Q 1128 2669 1731 3709 
L 200 3709 
L 200 4541 
L 2141 4541 
Q 2294 4916 2400 5303 
L 3275 5203 
Q 3169 4866 3038 4541 
L 6250 4541 
L 6250 3709 
L 2659 3709 
Q 2406 3222 2094 2766 
L 3050 2766 
L 3050 3566 
L 3919 3566 
L 3919 2766 
L 5800 2766 
L 5800 741 
Q 5800 338 5628 112 
Q 5456 -113 5178 -164 
Q 4900 -216 4306 -216 
Q 4225 291 4156 609 
Q 4456 584 4544 584 
Q 4950 584 4950 1034 
L 4950 2034 
L 3919 2034 
L 3919 -834 
z
" transform="scale(0.015625)"/>
     <path id="MicrosoftYaHei-Bold-5c16" d="M 2750 5328 
L 3669 5328 
L 3669 2878 
L 2750 2878 
L 2750 5328 
z
M 1794 4816 
L 2463 4216 
Q 1700 3422 819 2741 
Q 525 3147 238 3428 
Q 1181 4103 1794 4816 
z
M 3925 4203 
L 4506 4803 
Q 5244 4253 6125 3491 
L 5525 2803 
Q 4731 3572 3925 4203 
z
M 250 2216 
L 2728 2216 
Q 2744 2406 2750 2622 
L 3675 2622 
Q 3669 2416 3653 2216 
L 6175 2216 
L 6175 1416 
L 3925 1416 
Q 4659 269 6269 16 
Q 6044 -297 5706 -822 
Q 4069 -444 3272 975 
Q 2741 -338 650 -866 
Q 425 -484 94 -9 
Q 2153 344 2569 1416 
L 250 1416 
L 250 2216 
z
" transform="scale(0.015625)"/>
     <path id="MicrosoftYaHei-Bold-5cf0" d="M 2425 4241 
L 2425 2972 
Q 3169 3116 3738 3353 
Q 3538 3522 3375 3703 
Q 3188 3509 2994 3322 
Q 2756 3603 2531 3797 
Q 3188 4403 3750 5322 
L 4613 5222 
Q 4481 5034 4344 4859 
L 5869 4859 
L 5869 4253 
Q 5588 3759 5106 3372 
Q 5638 3216 6338 3134 
Q 6250 2847 6138 2416 
Q 5069 2603 4400 2916 
Q 3669 2541 2663 2309 
Q 2544 2628 2425 2884 
L 2425 -266 
L 1888 -266 
L 1888 9 
L 250 -116 
L 250 4241 
L 788 4241 
L 788 647 
L 1006 666 
L 1006 5253 
L 1669 5253 
L 1669 716 
L 1888 734 
L 1888 4241 
L 2425 4241 
z
M 2613 566 
L 4013 566 
L 4013 903 
L 2894 903 
L 2894 1428 
L 4013 1428 
L 4013 1766 
L 2794 1766 
L 2794 2291 
L 4013 2291 
L 4013 2584 
L 4788 2584 
L 4788 2291 
L 5994 2291 
L 5994 1766 
L 4788 1766 
L 4788 1428 
L 5925 1428 
L 5925 903 
L 4788 903 
L 4788 566 
L 6213 566 
L 6213 -16 
L 4788 -16 
L 4788 -847 
L 4013 -847 
L 4013 -16 
L 2613 -16 
L 2613 566 
z
M 4381 3691 
Q 4744 3922 4994 4209 
L 3825 4209 
Q 3813 4197 3806 4184 
Q 4038 3916 4381 3691 
z
" transform="scale(0.015625)"/>
     <path id="MicrosoftYaHei-Bold-2c" d="M 1419 841 
L 916 -859 
L 134 -859 
L 484 841 
L 1419 841 
z
" transform="scale(0.015625)"/>
     <path id="MicrosoftYaHei-Bold-68" d="M 3725 0 
L 2719 0 
L 2719 1969 
Q 2719 2766 2138 2766 
Q 1847 2766 1658 2544 
Q 1469 2322 1469 1969 
L 1469 0 
L 459 0 
L 459 5116 
L 1469 5116 
L 1469 2938 
L 1481 2938 
Q 1878 3541 2550 3541 
Q 3725 3541 3725 2122 
L 3725 0 
z
" transform="scale(0.015625)"/>
     <path id="MicrosoftYaHei-Bold-35" d="M 541 125 
L 541 997 
Q 1044 691 1613 691 
Q 2041 691 2283 902 
Q 2525 1113 2525 1472 
Q 2525 2225 1494 2225 
Q 1113 2225 616 2169 
L 797 4841 
L 3359 4841 
L 3359 4009 
L 1613 4009 
L 1544 2991 
Q 1803 3013 2022 3013 
Q 2731 3013 3142 2625 
Q 3553 2238 3553 1575 
Q 3553 844 3056 380 
Q 2559 -84 1706 -84 
Q 1016 -84 541 125 
z
" transform="scale(0.015625)"/>
     <path id="MicrosoftYaHei-Bold-63" d="M 3050 128 
Q 2688 -84 2019 -84 
Q 1228 -84 740 397 
Q 253 878 253 1644 
Q 253 2525 778 3033 
Q 1303 3541 2178 3541 
Q 2769 3541 3053 3378 
L 3053 2513 
Q 2706 2766 2297 2766 
Q 1834 2766 1554 2484 
Q 1275 2203 1275 1713 
Q 1275 1238 1540 964 
Q 1806 691 2263 691 
Q 2666 691 3050 947 
L 3050 128 
z
" transform="scale(0.015625)"/>
     <path id="MicrosoftYaHei-Bold-32" d="M 1500 841 
L 3553 841 
L 3553 0 
L 334 0 
L 334 359 
Q 334 738 473 1050 
Q 613 1363 856 1633 
Q 1100 1903 1613 2266 
Q 2081 2616 2268 2886 
Q 2456 3156 2456 3459 
Q 2456 4113 1744 4113 
Q 1119 4113 550 3613 
L 550 4513 
Q 1184 4922 1975 4922 
Q 2700 4922 3122 4551 
Q 3544 4181 3544 3531 
Q 3544 3169 3422 2876 
Q 3300 2584 3069 2328 
Q 2838 2072 2328 1713 
Q 1838 1363 1669 1172 
Q 1500 981 1500 841 
z
" transform="scale(0.015625)"/>
     <path id="MicrosoftYaHei-Bold-29" d="M 59 -1100 
Q 1097 216 1097 1853 
Q 1097 3484 59 4841 
L 888 4841 
Q 1978 3544 1978 1853 
Q 1978 113 881 -1100 
L 59 -1100 
z
" transform="scale(0.015625)"/>
    </defs>
    <use xlink:href="#MicrosoftYaHei-Bold-64"/>
    <use xlink:href="#MicrosoftYaHei-Bold-65" transform="translate(66.455078 0)"/>
    <use xlink:href="#MicrosoftYaHei-Bold-66" transform="translate(124.658203 0)"/>
    <use xlink:href="#MicrosoftYaHei-Bold-61" transform="translate(165.185547 0)"/>
    <use xlink:href="#MicrosoftYaHei-Bold-75" transform="translate(222.949219 0)"/>
    <use xlink:href="#MicrosoftYaHei-Bold-6c" transform="translate(287.744141 0)"/>
    <use xlink:href="#MicrosoftYaHei-Bold-74" transform="translate(317.333984 0)"/>
    <use xlink:href="#MicrosoftYaHei-Bold-5f" transform="translate(358.740234 0)"/>
    <use xlink:href="#MicrosoftYaHei-Bold-70" transform="translate(403.564453 0)"/>
    <use xlink:href="#MicrosoftYaHei-Bold-61" transform="translate(469.041016 0)"/>
    <use xlink:href="#MicrosoftYaHei-Bold-72" transform="translate(526.804688 0)"/>
    <use xlink:href="#MicrosoftYaHei-Bold-61" transform="translate(569.1875 0)"/>
    <use xlink:href="#MicrosoftYaHei-Bold-6d" transform="translate(626.951172 0)"/>
    <use xlink:href="#MicrosoftYaHei-Bold-73" transform="translate(725.144531 0)"/>
    <use xlink:href="#MicrosoftYaHei-Bold-20" transform="translate(774.509766 0)"/>
    <use xlink:href="#MicrosoftYaHei-Bold-2d" transform="translate(804.294922 0)"/>
    <use xlink:href="#MicrosoftYaHei-Bold-20" transform="translate(847.947266 0)"/>
    <use xlink:href="#MicrosoftYaHei-Bold-50" transform="translate(877.732422 0)"/>
    <use xlink:href="#MicrosoftYaHei-Bold-50" transform="translate(943.455078 0)"/>
    <use xlink:href="#MicrosoftYaHei-Bold-4f" transform="translate(1009.177734 0)"/>
    <use xlink:href="#MicrosoftYaHei-Bold-20" transform="translate(1091.013672 0)"/>
    <use xlink:href="#MicrosoftYaHei-Bold-2d" transform="translate(1120.798828 0)"/>
    <use xlink:href="#MicrosoftYaHei-Bold-20" transform="translate(1164.451172 0)"/>
    <use xlink:href="#MicrosoftYaHei-Bold-521d" transform="translate(1194.236328 0)"/>
    <use xlink:href="#MicrosoftYaHei-Bold-59cb" transform="translate(1294.236328 0)"/>
    <use xlink:href="#MicrosoftYaHei-Bold-8bad" transform="translate(1394.236328 0)"/>
    <use xlink:href="#MicrosoftYaHei-Bold-7ec3" transform="translate(1494.236328 0)"/>
    <use xlink:href="#MicrosoftYaHei-Bold-20" transform="translate(1594.236328 0)"/>
    <use xlink:href="#MicrosoftYaHei-Bold-28" transform="translate(1624.021484 0)"/>
    <use xlink:href="#MicrosoftYaHei-Bold-4f3d" transform="translate(1662.986328 0)"/>
    <use xlink:href="#MicrosoftYaHei-Bold-9a6c" transform="translate(1762.986328 0)"/>
    <use xlink:href="#MicrosoftYaHei-Bold-5206" transform="translate(1862.986328 0)"/>
    <use xlink:href="#MicrosoftYaHei-Bold-5e03" transform="translate(1962.986328 0)"/>
    <use xlink:href="#MicrosoftYaHei-Bold-28" transform="translate(2062.986328 0)"/>
    <use xlink:href="#MicrosoftYaHei-Bold-5c16" transform="translate(2101.951172 0)"/>
    <use xlink:href="#MicrosoftYaHei-Bold-5cf0" transform="translate(2201.951172 0)"/>
    <use xlink:href="#MicrosoftYaHei-Bold-2c" transform="translate(2301.951172 0)"/>
    <use xlink:href="#MicrosoftYaHei-Bold-73" transform="translate(2330.515625 0)"/>
    <use xlink:href="#MicrosoftYaHei-Bold-68" transform="translate(2379.880859 0)"/>
    <use xlink:href="#MicrosoftYaHei-Bold-61" transform="translate(2444.431641 0)"/>
    <use xlink:href="#MicrosoftYaHei-Bold-70" transform="translate(2502.195312 0)"/>
    <use xlink:href="#MicrosoftYaHei-Bold-65" transform="translate(2568.796875 0)"/>
    <use xlink:href="#MicrosoftYaHei-Bold-35" transform="translate(2627 0)"/>
    <use xlink:href="#MicrosoftYaHei-Bold-2c" transform="translate(2688.669922 0)"/>
    <use xlink:href="#MicrosoftYaHei-Bold-73" transform="translate(2717.234375 0)"/>
    <use xlink:href="#MicrosoftYaHei-Bold-63" transform="translate(2766.599609 0)"/>
    <use xlink:href="#MicrosoftYaHei-Bold-61" transform="translate(2818.259766 0)"/>
    <use xlink:href="#MicrosoftYaHei-Bold-6c" transform="translate(2876.023438 0)"/>
    <use xlink:href="#MicrosoftYaHei-Bold-65" transform="translate(2905.613281 0)"/>
    <use xlink:href="#MicrosoftYaHei-Bold-32" transform="translate(2963.816406 0)"/>
    <use xlink:href="#MicrosoftYaHei-Bold-29" transform="translate(3025.486328 0)"/>
    <use xlink:href="#MicrosoftYaHei-Bold-29" transform="translate(3064.451172 0)"/>
   </g>
   <!-- (环境: 伽马分布(尖峰,shape5,scale2 | 复杂度: 0.78) -->
   <g style="fill: #262626" transform="translate(238.950312 40.862) scale(0.16 -0.16)">
    <defs>
     <path id="MicrosoftYaHei-Bold-73af" d="M 5163 2916 
Q 5825 1797 6300 878 
L 5544 472 
Q 5081 1400 4550 2413 
L 4550 -834 
L 3706 -834 
L 3706 2013 
Q 3272 1200 2700 484 
Q 2525 641 2378 766 
Q 2347 503 2331 9 
L 175 -328 
L 81 522 
L 863 613 
L 863 2003 
L 213 2003 
L 213 2834 
L 863 2834 
L 863 4066 
L 175 4066 
L 175 4897 
L 2375 4897 
L 2375 4066 
L 1694 4066 
L 1694 2834 
L 2356 2834 
L 2356 2003 
L 1694 2003 
L 1694 728 
L 2306 825 
Q 2134 972 2000 1072 
Q 3194 2478 3675 4084 
L 2606 4084 
L 2606 4916 
L 6075 4916 
L 6075 4084 
L 4556 4084 
Q 4400 3559 4200 3066 
L 4550 3066 
L 4550 2591 
L 5163 2916 
z
" transform="scale(0.015625)"/>
     <path id="MicrosoftYaHei-Bold-5883" d="M 6044 4241 
L 5000 4241 
L 5563 4103 
Q 5450 3944 5322 3778 
L 6231 3778 
L 6231 3153 
L 2113 3153 
L 2113 3778 
L 2863 3778 
L 2638 4109 
L 3228 4241 
L 2256 4241 
L 2256 4866 
L 3591 4866 
Q 3506 5028 3400 5209 
L 4438 5353 
Q 4509 5125 4575 4866 
L 6044 4866 
L 6044 4241 
z
M 3853 3778 
L 4350 3778 
Q 4506 4009 4625 4241 
L 3503 4241 
Q 3681 4041 3853 3778 
z
M 263 -328 
L 100 603 
L 706 775 
L 706 2997 
L 175 2997 
L 175 3853 
L 706 3853 
L 706 5328 
L 1544 5328 
L 1544 3853 
L 1981 3853 
L 1981 2997 
L 1544 2997 
L 1544 1025 
L 2094 1197 
Q 2081 981 2081 759 
Q 2081 538 2094 309 
Q 1213 16 263 -328 
z
M 2244 2878 
L 5894 2878 
L 5894 603 
L 5038 603 
L 5038 141 
Q 5038 -91 5269 -91 
Q 5441 -91 5512 7 
Q 5584 106 5619 584 
Q 5956 428 6319 322 
Q 6284 66 6212 -223 
Q 6141 -513 5908 -652 
Q 5675 -791 5281 -791 
L 5006 -791 
Q 4238 -791 4238 -97 
L 4238 603 
L 3841 603 
Q 3647 -478 2331 -909 
Q 2125 -622 1763 -178 
Q 2781 88 2994 603 
L 2244 603 
L 2244 2878 
z
M 5094 2291 
L 3044 2291 
L 3044 2009 
L 5094 2009 
L 5094 2291 
z
M 5094 1191 
L 5094 1472 
L 3044 1472 
L 3044 1191 
L 5094 1191 
z
" transform="scale(0.015625)"/>
     <path id="MicrosoftYaHei-Bold-3a" d="M 313 2969 
Q 313 3200 491 3350 
Q 669 3500 916 3500 
Q 1166 3500 1337 3350 
Q 1509 3200 1509 2969 
Q 1509 2728 1337 2579 
Q 1166 2431 903 2431 
Q 653 2431 483 2584 
Q 313 2738 313 2969 
z
M 313 453 
Q 313 688 491 838 
Q 669 988 916 988 
Q 1166 988 1337 834 
Q 1509 681 1509 453 
Q 1509 213 1337 64 
Q 1166 -84 903 -84 
Q 659 -84 486 69 
Q 313 222 313 453 
z
" transform="scale(0.015625)"/>
     <path id="MicrosoftYaHei-Bold-7c" d="M 1500 -1622 
L 691 -1622 
L 691 5288 
L 1500 5288 
L 1500 -1622 
z
" transform="scale(0.015625)"/>
     <path id="MicrosoftYaHei-Bold-590d" d="M 5738 1528 
L 5738 1003 
Q 5091 600 4322 259 
Q 5197 78 6306 -16 
Q 6000 -428 5819 -791 
Q 4391 -569 3278 -153 
Q 2125 -559 744 -853 
Q 550 -541 275 -178 
Q 1394 3 2341 256 
Q 1872 500 1478 788 
Q 1069 416 581 116 
Q 363 391 75 691 
Q 925 1194 1459 1816 
L 844 1816 
L 844 3406 
Q 600 3128 325 2872 
Q 238 3266 94 3759 
Q 831 4484 1188 5334 
L 2063 5334 
Q 1978 5144 1888 4959 
L 6181 4959 
L 6181 4334 
L 1538 4334 
Q 1434 4172 1325 4016 
L 5738 4016 
L 5738 1816 
L 2372 1816 
Q 2272 1666 2163 1528 
L 5738 1528 
z
M 4906 3478 
L 1675 3478 
L 1675 3141 
L 4906 3141 
L 4906 3478 
z
M 4906 2353 
L 4906 2691 
L 1675 2691 
L 1675 2353 
L 4906 2353 
z
M 3269 541 
Q 3897 753 4438 1009 
L 2231 1009 
Q 2669 744 3269 541 
z
" transform="scale(0.015625)"/>
     <path id="MicrosoftYaHei-Bold-6742" d="M 5500 4203 
Q 5919 4078 6338 3978 
Q 6269 3328 6188 2984 
Q 6063 2453 5400 2453 
L 4600 2453 
Q 3900 2453 3900 3153 
L 3900 3997 
L 2781 3997 
Q 2588 2603 613 2141 
Q 419 2466 106 2884 
Q 1644 3172 1869 3997 
L 456 3997 
L 456 4753 
L 1981 4753 
Q 2006 5053 2006 5328 
L 2894 5328 
Q 2894 5084 2869 4753 
L 4800 4753 
L 4800 3459 
Q 4800 3203 5056 3203 
L 5206 3203 
Q 5394 3203 5431 3466 
Q 5469 3816 5500 4203 
z
M 188 2072 
L 2800 2072 
L 2800 2666 
L 3706 2666 
L 3706 2072 
L 6175 2072 
L 6175 1309 
L 3706 1309 
L 3706 159 
Q 3706 -684 2900 -766 
Q 2613 -797 2000 -803 
Q 1906 -334 1794 72 
Q 2200 41 2456 41 
Q 2800 41 2800 403 
L 2800 1309 
L 188 1309 
L 188 2072 
z
M 4000 597 
L 4519 1172 
Q 5425 628 6263 34 
L 5725 -634 
Q 4956 -34 4000 597 
z
M 1675 1166 
L 2263 559 
Q 1406 -84 538 -634 
Q 288 -247 63 66 
Q 963 566 1675 1166 
z
" transform="scale(0.015625)"/>
     <path id="MicrosoftYaHei-Bold-5ea6" d="M 5656 1697 
L 5656 1022 
Q 5156 447 4656 97 
Q 5344 -34 6306 -66 
Q 6119 -428 5938 -822 
Q 4556 -653 3719 -353 
Q 2825 -653 1494 -872 
Q 1338 -522 1088 -178 
Q 2100 -128 2888 78 
Q 2369 453 1938 1022 
L 1538 1022 
L 1538 1697 
L 5656 1697 
z
M 1325 2478 
Q 1338 134 700 -884 
Q 356 -553 19 -297 
Q 550 697 525 2591 
L 525 4772 
L 3013 4772 
Q 2944 4953 2831 5209 
L 3869 5359 
Q 3981 5072 4094 4772 
L 6256 4772 
L 6256 4072 
L 1325 4072 
L 1325 2478 
z
M 1463 3684 
L 2144 3684 
L 2144 3947 
L 2944 3947 
L 2944 3684 
L 4494 3684 
L 4494 3947 
L 5294 3947 
L 5294 3684 
L 6144 3684 
L 6144 3009 
L 5294 3009 
L 5294 1991 
L 2144 1991 
L 2144 3009 
L 1463 3009 
L 1463 3684 
z
M 3756 378 
Q 4325 641 4725 1022 
L 2825 1022 
Q 3225 622 3756 378 
z
M 4494 2628 
L 4494 3009 
L 2944 3009 
L 2944 2628 
L 4494 2628 
z
" transform="scale(0.015625)"/>
     <path id="MicrosoftYaHei-Bold-30" d="M 244 2341 
Q 244 3597 706 4259 
Q 1169 4922 2044 4922 
Q 3713 4922 3713 2453 
Q 3713 1238 3259 577 
Q 2806 -84 1950 -84 
Q 244 -84 244 2341 
z
M 1266 2366 
Q 1266 691 1981 691 
Q 2684 691 2684 2416 
Q 2684 4147 2000 4147 
Q 1266 4147 1266 2366 
z
" transform="scale(0.015625)"/>
     <path id="MicrosoftYaHei-Bold-2e" d="M 313 453 
Q 313 688 491 838 
Q 669 988 916 988 
Q 1166 988 1337 834 
Q 1509 681 1509 453 
Q 1509 213 1337 64 
Q 1166 -84 903 -84 
Q 659 -84 486 69 
Q 313 222 313 453 
z
" transform="scale(0.015625)"/>
     <path id="MicrosoftYaHei-Bold-37" d="M 3675 4225 
Q 3088 3172 2798 2528 
Q 2509 1884 2328 1275 
Q 2147 666 2050 0 
L 966 0 
Q 1122 947 1517 1917 
Q 1913 2888 2609 4009 
L 300 4009 
L 300 4841 
L 3675 4841 
L 3675 4225 
z
" transform="scale(0.015625)"/>
     <path id="MicrosoftYaHei-Bold-38" d="M 269 1303 
Q 269 1725 512 2053 
Q 756 2381 1219 2534 
Q 850 2719 648 3003 
Q 447 3288 447 3634 
Q 447 3997 645 4292 
Q 844 4588 1200 4755 
Q 1556 4922 1997 4922 
Q 2441 4922 2800 4758 
Q 3159 4594 3359 4298 
Q 3559 4003 3559 3647 
Q 3559 3309 3339 3018 
Q 3119 2728 2747 2559 
Q 3200 2403 3453 2076 
Q 3706 1750 3706 1313 
Q 3706 697 3228 309 
Q 2750 -78 1988 -78 
Q 1225 -78 747 309 
Q 269 697 269 1303 
z
M 1278 1394 
Q 1278 1056 1472 853 
Q 1666 650 1991 650 
Q 2303 650 2503 853 
Q 2703 1056 2703 1394 
Q 2703 1709 2500 1920 
Q 2297 2131 1991 2131 
Q 1675 2131 1476 1920 
Q 1278 1709 1278 1394 
z
M 1428 3531 
Q 1428 3266 1592 3077 
Q 1756 2888 2006 2888 
Q 2247 2888 2415 3072 
Q 2584 3256 2584 3531 
Q 2584 3806 2420 3997 
Q 2256 4188 2006 4188 
Q 1750 4188 1589 3997 
Q 1428 3806 1428 3531 
z
" transform="scale(0.015625)"/>
    </defs>
    <use xlink:href="#MicrosoftYaHei-Bold-28"/>
    <use xlink:href="#MicrosoftYaHei-Bold-73af" transform="translate(38.964844 0)"/>
    <use xlink:href="#MicrosoftYaHei-Bold-5883" transform="translate(138.964844 0)"/>
    <use xlink:href="#MicrosoftYaHei-Bold-3a" transform="translate(238.964844 0)"/>
    <use xlink:href="#MicrosoftYaHei-Bold-20" transform="translate(267.529297 0)"/>
    <use xlink:href="#MicrosoftYaHei-Bold-4f3d" transform="translate(297.314453 0)"/>
    <use xlink:href="#MicrosoftYaHei-Bold-9a6c" transform="translate(397.314453 0)"/>
    <use xlink:href="#MicrosoftYaHei-Bold-5206" transform="translate(497.314453 0)"/>
    <use xlink:href="#MicrosoftYaHei-Bold-5e03" transform="translate(597.314453 0)"/>
    <use xlink:href="#MicrosoftYaHei-Bold-28" transform="translate(697.314453 0)"/>
    <use xlink:href="#MicrosoftYaHei-Bold-5c16" transform="translate(736.279297 0)"/>
    <use xlink:href="#MicrosoftYaHei-Bold-5cf0" transform="translate(836.279297 0)"/>
    <use xlink:href="#MicrosoftYaHei-Bold-2c" transform="translate(936.279297 0)"/>
    <use xlink:href="#MicrosoftYaHei-Bold-73" transform="translate(964.84375 0)"/>
    <use xlink:href="#MicrosoftYaHei-Bold-68" transform="translate(1014.208984 0)"/>
    <use xlink:href="#MicrosoftYaHei-Bold-61" transform="translate(1078.759766 0)"/>
    <use xlink:href="#MicrosoftYaHei-Bold-70" transform="translate(1136.523438 0)"/>
    <use xlink:href="#MicrosoftYaHei-Bold-65" transform="translate(1203.125 0)"/>
    <use xlink:href="#MicrosoftYaHei-Bold-35" transform="translate(1261.328125 0)"/>
    <use xlink:href="#MicrosoftYaHei-Bold-2c" transform="translate(1322.998047 0)"/>
    <use xlink:href="#MicrosoftYaHei-Bold-73" transform="translate(1351.5625 0)"/>
    <use xlink:href="#MicrosoftYaHei-Bold-63" transform="translate(1400.927734 0)"/>
    <use xlink:href="#MicrosoftYaHei-Bold-61" transform="translate(1452.587891 0)"/>
    <use xlink:href="#MicrosoftYaHei-Bold-6c" transform="translate(1510.351562 0)"/>
    <use xlink:href="#MicrosoftYaHei-Bold-65" transform="translate(1539.941406 0)"/>
    <use xlink:href="#MicrosoftYaHei-Bold-32" transform="translate(1598.144531 0)"/>
    <use xlink:href="#MicrosoftYaHei-Bold-20" transform="translate(1659.814453 0)"/>
    <use xlink:href="#MicrosoftYaHei-Bold-7c" transform="translate(1689.599609 0)"/>
    <use xlink:href="#MicrosoftYaHei-Bold-20" transform="translate(1723.730469 0)"/>
    <use xlink:href="#MicrosoftYaHei-Bold-590d" transform="translate(1753.515625 0)"/>
    <use xlink:href="#MicrosoftYaHei-Bold-6742" transform="translate(1853.515625 0)"/>
    <use xlink:href="#MicrosoftYaHei-Bold-5ea6" transform="translate(1953.515625 0)"/>
    <use xlink:href="#MicrosoftYaHei-Bold-3a" transform="translate(2053.515625 0)"/>
    <use xlink:href="#MicrosoftYaHei-Bold-20" transform="translate(2082.080078 0)"/>
    <use xlink:href="#MicrosoftYaHei-Bold-30" transform="translate(2111.865234 0)"/>
    <use xlink:href="#MicrosoftYaHei-Bold-2e" transform="translate(2173.535156 0)"/>
    <use xlink:href="#MicrosoftYaHei-Bold-37" transform="translate(2202.099609 0)"/>
    <use xlink:href="#MicrosoftYaHei-Bold-38" transform="translate(2263.769531 0)"/>
    <use xlink:href="#MicrosoftYaHei-Bold-29" transform="translate(2325.439453 0)"/>
   </g>
  </g>
 </g>
 <defs>
  <clipPath id="p2816f4f0de">
   <rect x="39.801563" y="82.520625" width="809.5" height="376.905625"/>
  </clipPath>
 </defs>
</svg>
