<?xml version="1.0" encoding="utf-8" standalone="no"?>
<!DOCTYPE svg PUBLIC "-//W3C//DTD SVG 1.1//EN"
  "http://www.w3.org/Graphics/SVG/1.1/DTD/svg11.dtd">
<svg xmlns:xlink="http://www.w3.org/1999/xlink" width="856.501562pt" height="497.641875pt" viewBox="0 0 856.501562 497.641875" xmlns="http://www.w3.org/2000/svg" version="1.1">
 <metadata>
  <rdf:RDF xmlns:dc="http://purl.org/dc/elements/1.1/" xmlns:cc="http://creativecommons.org/ns#" xmlns:rdf="http://www.w3.org/1999/02/22-rdf-syntax-ns#">
   <cc:Work>
    <dc:type rdf:resource="http://purl.org/dc/dcmitype/StillImage"/>
    <dc:date>2025-07-07T17:59:17.407819</dc:date>
    <dc:format>image/svg+xml</dc:format>
    <dc:creator>
     <cc:Agent>
      <dc:title>Matplotlib v3.10.3, https://matplotlib.org/</dc:title>
     </cc:Agent>
    </dc:creator>
   </cc:Work>
  </rdf:RDF>
 </metadata>
 <defs>
  <style type="text/css">*{stroke-linejoin: round; stroke-linecap: butt}</style>
 </defs>
 <g id="figure_1">
  <g id="patch_1">
   <path d="M 0 497.641875 
L 856.501562 497.641875 
L 856.501562 0 
L 0 0 
z
" style="fill: #ffffff"/>
  </g>
  <g id="axes_1">
   <g id="patch_2">
    <path d="M 39.801563 459.42625 
L 849.301563 459.42625 
L 849.301563 82.520625 
L 39.801563 82.520625 
z
" style="fill: #ffffff"/>
   </g>
   <g id="matplotlib.axis_1">
    <g id="xtick_1">
     <g id="line2d_1">
      <path d="M 76.597017 459.42625 
L 76.597017 82.520625 
" clip-path="url(#pba4488c825)" style="fill: none; stroke-dasharray: 2.96,1.28; stroke-dashoffset: 0; stroke: #cccccc; stroke-opacity: 0.6; stroke-width: 0.8"/>
     </g>
     <g id="text_1">
      <!-- 0 -->
      <g style="fill: #262626" transform="translate(73.816548 473.584062) scale(0.1 -0.1)">
       <defs>
        <path id="ArialMT-30" d="M 266 2259 
Q 266 3072 433 3567 
Q 600 4063 929 4331 
Q 1259 4600 1759 4600 
Q 2128 4600 2406 4451 
Q 2684 4303 2865 4023 
Q 3047 3744 3150 3342 
Q 3253 2941 3253 2259 
Q 3253 1453 3087 958 
Q 2922 463 2592 192 
Q 2263 -78 1759 -78 
Q 1097 -78 719 397 
Q 266 969 266 2259 
z
M 844 2259 
Q 844 1131 1108 757 
Q 1372 384 1759 384 
Q 2147 384 2411 759 
Q 2675 1134 2675 2259 
Q 2675 3391 2411 3762 
Q 2147 4134 1753 4134 
Q 1366 4134 1134 3806 
Q 844 3388 844 2259 
z
" transform="scale(0.015625)"/>
       </defs>
       <use xlink:href="#ArialMT-30"/>
      </g>
     </g>
    </g>
    <g id="xtick_2">
     <g id="line2d_2">
      <path d="M 199.044453 459.42625 
L 199.044453 82.520625 
" clip-path="url(#pba4488c825)" style="fill: none; stroke-dasharray: 2.96,1.28; stroke-dashoffset: 0; stroke: #cccccc; stroke-opacity: 0.6; stroke-width: 0.8"/>
     </g>
     <g id="text_2">
      <!-- 200 -->
      <g style="fill: #262626" transform="translate(190.703047 473.584062) scale(0.1 -0.1)">
       <defs>
        <path id="ArialMT-32" d="M 3222 541 
L 3222 0 
L 194 0 
Q 188 203 259 391 
Q 375 700 629 1000 
Q 884 1300 1366 1694 
Q 2113 2306 2375 2664 
Q 2638 3022 2638 3341 
Q 2638 3675 2398 3904 
Q 2159 4134 1775 4134 
Q 1369 4134 1125 3890 
Q 881 3647 878 3216 
L 300 3275 
Q 359 3922 746 4261 
Q 1134 4600 1788 4600 
Q 2447 4600 2831 4234 
Q 3216 3869 3216 3328 
Q 3216 3053 3103 2787 
Q 2991 2522 2730 2228 
Q 2469 1934 1863 1422 
Q 1356 997 1212 845 
Q 1069 694 975 541 
L 3222 541 
z
" transform="scale(0.015625)"/>
       </defs>
       <use xlink:href="#ArialMT-32"/>
       <use xlink:href="#ArialMT-30" transform="translate(55.615234 0)"/>
       <use xlink:href="#ArialMT-30" transform="translate(111.230469 0)"/>
      </g>
     </g>
    </g>
    <g id="xtick_3">
     <g id="line2d_3">
      <path d="M 321.491889 459.42625 
L 321.491889 82.520625 
" clip-path="url(#pba4488c825)" style="fill: none; stroke-dasharray: 2.96,1.28; stroke-dashoffset: 0; stroke: #cccccc; stroke-opacity: 0.6; stroke-width: 0.8"/>
     </g>
     <g id="text_3">
      <!-- 400 -->
      <g style="fill: #262626" transform="translate(313.150483 473.584062) scale(0.1 -0.1)">
       <defs>
        <path id="ArialMT-34" d="M 2069 0 
L 2069 1097 
L 81 1097 
L 81 1613 
L 2172 4581 
L 2631 4581 
L 2631 1613 
L 3250 1613 
L 3250 1097 
L 2631 1097 
L 2631 0 
L 2069 0 
z
M 2069 1613 
L 2069 3678 
L 634 1613 
L 2069 1613 
z
" transform="scale(0.015625)"/>
       </defs>
       <use xlink:href="#ArialMT-34"/>
       <use xlink:href="#ArialMT-30" transform="translate(55.615234 0)"/>
       <use xlink:href="#ArialMT-30" transform="translate(111.230469 0)"/>
      </g>
     </g>
    </g>
    <g id="xtick_4">
     <g id="line2d_4">
      <path d="M 443.939325 459.42625 
L 443.939325 82.520625 
" clip-path="url(#pba4488c825)" style="fill: none; stroke-dasharray: 2.96,1.28; stroke-dashoffset: 0; stroke: #cccccc; stroke-opacity: 0.6; stroke-width: 0.8"/>
     </g>
     <g id="text_4">
      <!-- 600 -->
      <g style="fill: #262626" transform="translate(435.597919 473.584062) scale(0.1 -0.1)">
       <defs>
        <path id="ArialMT-36" d="M 3184 3459 
L 2625 3416 
Q 2550 3747 2413 3897 
Q 2184 4138 1850 4138 
Q 1581 4138 1378 3988 
Q 1113 3794 959 3422 
Q 806 3050 800 2363 
Q 1003 2672 1297 2822 
Q 1591 2972 1913 2972 
Q 2475 2972 2870 2558 
Q 3266 2144 3266 1488 
Q 3266 1056 3080 686 
Q 2894 316 2569 119 
Q 2244 -78 1831 -78 
Q 1128 -78 684 439 
Q 241 956 241 2144 
Q 241 3472 731 4075 
Q 1159 4600 1884 4600 
Q 2425 4600 2770 4297 
Q 3116 3994 3184 3459 
z
M 888 1484 
Q 888 1194 1011 928 
Q 1134 663 1356 523 
Q 1578 384 1822 384 
Q 2178 384 2434 671 
Q 2691 959 2691 1453 
Q 2691 1928 2437 2201 
Q 2184 2475 1800 2475 
Q 1419 2475 1153 2201 
Q 888 1928 888 1484 
z
" transform="scale(0.015625)"/>
       </defs>
       <use xlink:href="#ArialMT-36"/>
       <use xlink:href="#ArialMT-30" transform="translate(55.615234 0)"/>
       <use xlink:href="#ArialMT-30" transform="translate(111.230469 0)"/>
      </g>
     </g>
    </g>
    <g id="xtick_5">
     <g id="line2d_5">
      <path d="M 566.386761 459.42625 
L 566.386761 82.520625 
" clip-path="url(#pba4488c825)" style="fill: none; stroke-dasharray: 2.96,1.28; stroke-dashoffset: 0; stroke: #cccccc; stroke-opacity: 0.6; stroke-width: 0.8"/>
     </g>
     <g id="text_5">
      <!-- 800 -->
      <g style="fill: #262626" transform="translate(558.045355 473.584062) scale(0.1 -0.1)">
       <defs>
        <path id="ArialMT-38" d="M 1131 2484 
Q 781 2613 612 2850 
Q 444 3088 444 3419 
Q 444 3919 803 4259 
Q 1163 4600 1759 4600 
Q 2359 4600 2725 4251 
Q 3091 3903 3091 3403 
Q 3091 3084 2923 2848 
Q 2756 2613 2416 2484 
Q 2838 2347 3058 2040 
Q 3278 1734 3278 1309 
Q 3278 722 2862 322 
Q 2447 -78 1769 -78 
Q 1091 -78 675 323 
Q 259 725 259 1325 
Q 259 1772 486 2073 
Q 713 2375 1131 2484 
z
M 1019 3438 
Q 1019 3113 1228 2906 
Q 1438 2700 1772 2700 
Q 2097 2700 2305 2904 
Q 2513 3109 2513 3406 
Q 2513 3716 2298 3927 
Q 2084 4138 1766 4138 
Q 1444 4138 1231 3931 
Q 1019 3725 1019 3438 
z
M 838 1322 
Q 838 1081 952 856 
Q 1066 631 1291 507 
Q 1516 384 1775 384 
Q 2178 384 2440 643 
Q 2703 903 2703 1303 
Q 2703 1709 2433 1975 
Q 2163 2241 1756 2241 
Q 1359 2241 1098 1978 
Q 838 1716 838 1322 
z
" transform="scale(0.015625)"/>
       </defs>
       <use xlink:href="#ArialMT-38"/>
       <use xlink:href="#ArialMT-30" transform="translate(55.615234 0)"/>
       <use xlink:href="#ArialMT-30" transform="translate(111.230469 0)"/>
      </g>
     </g>
    </g>
    <g id="xtick_6">
     <g id="line2d_6">
      <path d="M 688.834198 459.42625 
L 688.834198 82.520625 
" clip-path="url(#pba4488c825)" style="fill: none; stroke-dasharray: 2.96,1.28; stroke-dashoffset: 0; stroke: #cccccc; stroke-opacity: 0.6; stroke-width: 0.8"/>
     </g>
     <g id="text_6">
      <!-- 1000 -->
      <g style="fill: #262626" transform="translate(677.712323 473.584062) scale(0.1 -0.1)">
       <defs>
        <path id="ArialMT-31" d="M 2384 0 
L 1822 0 
L 1822 3584 
Q 1619 3391 1289 3197 
Q 959 3003 697 2906 
L 697 3450 
Q 1169 3672 1522 3987 
Q 1875 4303 2022 4600 
L 2384 4600 
L 2384 0 
z
" transform="scale(0.015625)"/>
       </defs>
       <use xlink:href="#ArialMT-31"/>
       <use xlink:href="#ArialMT-30" transform="translate(55.615234 0)"/>
       <use xlink:href="#ArialMT-30" transform="translate(111.230469 0)"/>
       <use xlink:href="#ArialMT-30" transform="translate(166.845703 0)"/>
      </g>
     </g>
    </g>
    <g id="xtick_7">
     <g id="line2d_7">
      <path d="M 811.281634 459.42625 
L 811.281634 82.520625 
" clip-path="url(#pba4488c825)" style="fill: none; stroke-dasharray: 2.96,1.28; stroke-dashoffset: 0; stroke: #cccccc; stroke-opacity: 0.6; stroke-width: 0.8"/>
     </g>
     <g id="text_7">
      <!-- 1200 -->
      <g style="fill: #262626" transform="translate(800.159759 473.584062) scale(0.1 -0.1)">
       <use xlink:href="#ArialMT-31"/>
       <use xlink:href="#ArialMT-32" transform="translate(55.615234 0)"/>
       <use xlink:href="#ArialMT-30" transform="translate(111.230469 0)"/>
       <use xlink:href="#ArialMT-30" transform="translate(166.845703 0)"/>
      </g>
     </g>
    </g>
    <g id="text_8">
     <!-- 训练轮数 (Episodes) -->
     <g style="fill: #262626" transform="translate(398.614062 487.955937) scale(0.1 -0.1)">
      <defs>
       <path id="MicrosoftYaHei-8bad" d="M 2581 5178 
L 3056 5178 
L 3056 2722 
Q 3056 1272 2831 466 
Q 2613 -297 1981 -872 
Q 1769 -678 1550 -534 
Q 2156 -66 2375 647 
Q 2581 1353 2581 2678 
L 2581 5178 
z
M 5506 5184 
L 5981 5184 
L 5981 -772 
L 5506 -772 
L 5506 5184 
z
M 4038 4953 
L 4513 4953 
L 4513 -403 
L 4038 -403 
L 4038 4953 
z
M 2025 1372 
Q 2025 1059 2069 784 
Q 1438 247 913 -284 
L 625 116 
Q 838 316 838 691 
L 838 2803 
L 81 2803 
L 81 3253 
L 1313 3253 
L 1313 709 
Q 1650 1009 2025 1372 
z
M 875 5191 
Q 1438 4628 1850 4166 
L 1413 3797 
Q 1031 4303 500 4872 
L 875 5191 
z
" transform="scale(0.015625)"/>
       <path id="MicrosoftYaHei-7ec3" d="M 2363 3403 
L 3059 3403 
Q 3203 3781 3344 4197 
L 2213 4197 
L 2213 4622 
L 3488 4622 
Q 3603 4975 3719 5353 
L 4219 5253 
Q 4109 4931 4000 4622 
L 6000 4622 
L 6000 4197 
L 3847 4197 
Q 3700 3791 3553 3403 
L 4763 3403 
L 4763 2016 
L 6025 2016 
L 6025 1591 
L 4763 1591 
L 4763 3 
Q 4763 -734 4056 -734 
Q 3788 -734 3369 -728 
Q 3331 -516 3263 -241 
Q 3638 -284 3931 -284 
Q 4300 -284 4300 109 
L 4300 1591 
L 2475 1591 
L 2475 1997 
Q 2688 2450 2897 2978 
L 2363 2978 
L 2363 3403 
z
M 888 1566 
Q 1531 1659 2219 1778 
Q 2181 1547 2163 1297 
Q 1600 1216 319 1003 
L 219 1472 
Q 669 1969 1175 2794 
Q 666 2763 219 2722 
L 100 3147 
Q 700 3966 1294 5366 
L 1750 5178 
Q 1088 3878 644 3184 
Q 1078 3194 1419 3203 
Q 1669 3638 1931 4147 
L 2388 3916 
Q 1656 2659 888 1566 
z
M 3013 2016 
L 4300 2016 
L 4300 2978 
L 3394 2978 
Q 3203 2484 3013 2016 
z
M 94 122 
Q 1031 291 2219 559 
Q 2200 316 2206 78 
Q 1231 -103 219 -353 
L 94 122 
z
M 3194 1272 
L 3638 1066 
Q 3194 203 2700 -547 
Q 2500 -397 2275 -278 
Q 2813 459 3194 1272 
z
M 5094 1041 
L 5500 1278 
Q 5963 578 6381 -122 
L 5950 -391 
Q 5544 366 5094 1041 
z
" transform="scale(0.015625)"/>
       <path id="MicrosoftYaHei-8f6e" d="M 688 2228 
L 1438 2228 
L 1438 3597 
L 1888 3597 
L 1888 2228 
L 2688 2228 
L 2688 1803 
L 1888 1803 
L 1888 959 
Q 2344 1016 2763 1078 
Q 2756 922 2744 616 
Q 2313 566 1888 516 
L 1888 -866 
L 1438 -866 
L 1438 466 
Q 781 384 138 303 
L 88 772 
Q 794 834 1438 909 
L 1438 1803 
L 225 1803 
L 225 2197 
Q 550 3116 800 3916 
L 156 3916 
L 156 4341 
L 925 4341 
Q 1081 4859 1194 5322 
L 1675 5216 
Q 1538 4766 1400 4341 
L 2781 4341 
L 2781 3916 
L 1263 3916 
Q 975 3028 688 2228 
z
M 3163 2891 
L 3638 2891 
L 3638 1509 
Q 4456 1984 5150 2653 
L 5544 2359 
Q 4588 1484 3638 997 
L 3638 191 
Q 3638 -197 4075 -197 
L 4925 -197 
Q 5363 -197 5425 178 
Q 5494 584 5525 1097 
Q 5575 1078 5994 916 
Q 5956 441 5881 28 
Q 5775 -653 5013 -653 
L 3925 -653 
Q 3163 -653 3163 72 
L 3163 2891 
z
M 4656 5259 
L 4544 5072 
Q 5244 3722 6313 3178 
Q 6113 2953 5975 2766 
Q 4975 3359 4250 4622 
Q 3531 3422 2625 2697 
Q 2475 2891 2288 3059 
Q 3406 3897 4044 5259 
L 4656 5259 
z
" transform="scale(0.015625)"/>
       <path id="MicrosoftYaHei-6570" d="M 4175 5303 
L 4675 5228 
Q 4544 4622 4369 4097 
L 6281 4097 
L 6281 3672 
L 5888 3672 
Q 5731 1834 5088 753 
Q 5594 66 6375 -372 
Q 6175 -647 6038 -866 
Q 5275 -372 4769 309 
Q 4194 -403 3400 -928 
Q 3263 -747 3044 -534 
Q 3919 41 4463 772 
Q 3956 1647 3794 2791 
Q 3663 2559 3519 2359 
Q 3394 2541 3206 2759 
Q 3931 3803 4175 5303 
z
M 150 1697 
L 1100 1697 
Q 1238 1934 1369 2184 
L 1819 2041 
Q 1719 1866 1619 1697 
L 3150 1697 
L 3150 1291 
Q 2913 678 2431 216 
Q 2775 53 3131 -109 
L 2856 -541 
Q 2469 -322 2050 -103 
Q 1344 -609 269 -903 
Q 169 -703 56 -466 
Q 969 -259 1600 128 
Q 1063 403 475 691 
Q 675 978 863 1284 
L 150 1284 
L 150 1697 
z
M 219 3847 
L 1656 3847 
L 1656 5247 
L 2119 5247 
L 2119 3847 
L 3319 3847 
L 3319 3434 
L 2119 3434 
L 2119 3053 
L 2306 3266 
Q 2888 2841 3281 2516 
L 2981 2166 
Q 2638 2491 2119 2897 
L 2119 2184 
L 1656 2184 
L 1656 3059 
Q 1088 2466 331 2016 
Q 213 2197 63 2397 
Q 850 2822 1506 3434 
L 219 3434 
L 219 3847 
z
M 5388 3672 
L 4219 3672 
Q 4188 3591 4150 3516 
Q 4263 2191 4775 1247 
Q 5275 2159 5388 3672 
z
M 1088 834 
Q 1531 634 2000 416 
Q 2431 784 2675 1284 
L 1375 1284 
Q 1231 1053 1088 834 
z
M 3038 5091 
L 3425 4834 
Q 3081 4384 2738 4003 
Q 2594 4128 2400 4266 
Q 2725 4647 3038 5091 
z
M 381 4816 
L 738 5059 
Q 1019 4716 1319 4322 
L 931 4047 
Q 656 4453 381 4816 
z
" transform="scale(0.015625)"/>
       <path id="MicrosoftYaHei-20" transform="scale(0.015625)"/>
       <path id="MicrosoftYaHei-28" d="M 1531 -1100 
Q 478 100 478 1847 
Q 478 3594 1531 4841 
L 2072 4841 
Q 1016 3544 1016 1853 
Q 1016 166 2066 -1100 
L 1531 -1100 
z
" transform="scale(0.015625)"/>
       <path id="MicrosoftYaHei-45" d="M 3228 0 
L 625 0 
L 625 4841 
L 3119 4841 
L 3119 4284 
L 1250 4284 
L 1250 2734 
L 2981 2734 
L 2981 2181 
L 1250 2181 
L 1250 553 
L 3228 553 
L 3228 0 
z
" transform="scale(0.015625)"/>
       <path id="MicrosoftYaHei-70" d="M 1159 488 
L 1159 -1591 
L 547 -1591 
L 547 3456 
L 1159 3456 
L 1159 2859 
L 1172 2859 
Q 1578 3538 2359 3538 
Q 3022 3538 3398 3073 
Q 3775 2609 3775 1828 
Q 3775 966 3348 442 
Q 2922 -81 2200 -81 
Q 1534 -81 1172 488 
L 1159 488 
z
M 1156 1425 
Q 1156 1003 1428 714 
Q 1700 425 2109 425 
Q 2597 425 2872 800 
Q 3147 1175 3147 1838 
Q 3147 2397 2890 2714 
Q 2634 3031 2191 3031 
Q 1738 3031 1447 2709 
Q 1156 2388 1156 1884 
L 1156 1425 
z
" transform="scale(0.015625)"/>
       <path id="MicrosoftYaHei-69" d="M 472 4675 
Q 472 4838 583 4948 
Q 694 5059 856 5059 
Q 1022 5059 1136 4950 
Q 1250 4841 1250 4675 
Q 1250 4513 1136 4405 
Q 1022 4297 856 4297 
Q 691 4297 581 4405 
Q 472 4513 472 4675 
z
M 544 0 
L 544 3456 
L 1156 3456 
L 1156 0 
L 544 0 
z
" transform="scale(0.015625)"/>
       <path id="MicrosoftYaHei-73" d="M 353 747 
Q 816 413 1350 413 
Q 2066 413 2066 881 
Q 2066 1081 1909 1211 
Q 1753 1341 1275 1519 
Q 700 1750 528 1976 
Q 356 2203 356 2525 
Q 356 2984 745 3261 
Q 1134 3538 1703 3538 
Q 2144 3538 2522 3384 
L 2522 2794 
Q 2134 3044 1644 3044 
Q 1350 3044 1165 2916 
Q 981 2788 981 2578 
Q 981 2372 1114 2256 
Q 1247 2141 1703 1959 
Q 2281 1744 2484 1512 
Q 2688 1281 2688 941 
Q 2688 466 2298 192 
Q 1909 -81 1291 -81 
Q 753 -81 353 122 
L 353 747 
z
" transform="scale(0.015625)"/>
       <path id="MicrosoftYaHei-6f" d="M 316 1691 
Q 316 2547 794 3042 
Q 1272 3538 2091 3538 
Q 2869 3538 3311 3061 
Q 3753 2584 3753 1744 
Q 3753 925 3281 422 
Q 2809 -81 2016 -81 
Q 1241 -81 778 406 
Q 316 894 316 1691 
z
M 941 1709 
Q 941 1113 1242 769 
Q 1544 425 2053 425 
Q 2578 425 2853 761 
Q 3128 1097 3128 1725 
Q 3128 2356 2853 2693 
Q 2578 3031 2053 3031 
Q 1538 3031 1239 2678 
Q 941 2325 941 1709 
z
" transform="scale(0.015625)"/>
       <path id="MicrosoftYaHei-64" d="M 3547 0 
L 2934 0 
L 2934 575 
L 2922 575 
Q 2544 -81 1747 -81 
Q 1091 -81 703 386 
Q 316 853 316 1647 
Q 316 2503 753 3020 
Q 1191 3538 1897 3538 
Q 2603 3538 2922 2988 
L 2934 2988 
L 2934 5116 
L 3547 5116 
L 3547 0 
z
M 2938 2056 
Q 2938 2472 2664 2751 
Q 2391 3031 1991 3031 
Q 1503 3031 1222 2667 
Q 941 2303 941 1675 
Q 941 1097 1211 761 
Q 1481 425 1931 425 
Q 2375 425 2656 754 
Q 2938 1084 2938 1575 
L 2938 2056 
z
" transform="scale(0.015625)"/>
       <path id="MicrosoftYaHei-65" d="M 3363 1572 
L 944 1572 
Q 959 1019 1246 717 
Q 1534 416 2050 416 
Q 2631 416 3116 788 
L 3116 241 
Q 2659 -81 1906 -81 
Q 1156 -81 736 394 
Q 316 869 316 1713 
Q 316 2506 777 3022 
Q 1238 3538 1922 3538 
Q 2600 3538 2981 3102 
Q 3363 2666 3363 1881 
L 3363 1572 
z
M 2750 2063 
Q 2747 2531 2528 2787 
Q 2309 3044 1913 3044 
Q 1547 3044 1280 2772 
Q 1013 2500 944 2063 
L 2750 2063 
z
" transform="scale(0.015625)"/>
       <path id="MicrosoftYaHei-29" d="M 78 -1100 
Q 1131 163 1131 1853 
Q 1131 3547 72 4841 
L 616 4841 
Q 1672 3603 1672 1847 
Q 1672 91 616 -1100 
L 78 -1100 
z
" transform="scale(0.015625)"/>
      </defs>
      <use xlink:href="#MicrosoftYaHei-8bad"/>
      <use xlink:href="#MicrosoftYaHei-7ec3" transform="translate(100 0)"/>
      <use xlink:href="#MicrosoftYaHei-8f6e" transform="translate(200 0)"/>
      <use xlink:href="#MicrosoftYaHei-6570" transform="translate(300 0)"/>
      <use xlink:href="#MicrosoftYaHei-20" transform="translate(400 0)"/>
      <use xlink:href="#MicrosoftYaHei-28" transform="translate(429.589844 0)"/>
      <use xlink:href="#MicrosoftYaHei-45" transform="translate(462.988281 0)"/>
      <use xlink:href="#MicrosoftYaHei-70" transform="translate(517.96875 0)"/>
      <use xlink:href="#MicrosoftYaHei-69" transform="translate(581.835938 0)"/>
      <use xlink:href="#MicrosoftYaHei-73" transform="translate(608.447266 0)"/>
      <use xlink:href="#MicrosoftYaHei-6f" transform="translate(654.736328 0)"/>
      <use xlink:href="#MicrosoftYaHei-64" transform="translate(718.310547 0)"/>
      <use xlink:href="#MicrosoftYaHei-65" transform="translate(782.275391 0)"/>
      <use xlink:href="#MicrosoftYaHei-73" transform="translate(839.013672 0)"/>
      <use xlink:href="#MicrosoftYaHei-29" transform="translate(885.302734 0)"/>
     </g>
    </g>
   </g>
   <g id="matplotlib.axis_2">
    <g id="ytick_1">
     <g id="line2d_8">
      <path d="M 39.801563 459.085555 
L 849.301563 459.085555 
" clip-path="url(#pba4488c825)" style="fill: none; stroke-dasharray: 2.96,1.28; stroke-dashoffset: 0; stroke: #cccccc; stroke-opacity: 0.6; stroke-width: 0.8"/>
     </g>
     <g id="text_9">
      <!-- 21 -->
      <g style="fill: #1f77b4" transform="translate(21.679688 462.664462) scale(0.1 -0.1)">
       <use xlink:href="#ArialMT-32"/>
       <use xlink:href="#ArialMT-31" transform="translate(55.615234 0)"/>
      </g>
     </g>
    </g>
    <g id="ytick_2">
     <g id="line2d_9">
      <path d="M 39.801563 410.414891 
L 849.301563 410.414891 
" clip-path="url(#pba4488c825)" style="fill: none; stroke-dasharray: 2.96,1.28; stroke-dashoffset: 0; stroke: #cccccc; stroke-opacity: 0.6; stroke-width: 0.8"/>
     </g>
     <g id="text_10">
      <!-- 22 -->
      <g style="fill: #1f77b4" transform="translate(21.679688 413.993797) scale(0.1 -0.1)">
       <use xlink:href="#ArialMT-32"/>
       <use xlink:href="#ArialMT-32" transform="translate(55.615234 0)"/>
      </g>
     </g>
    </g>
    <g id="ytick_3">
     <g id="line2d_10">
      <path d="M 39.801563 361.744227 
L 849.301563 361.744227 
" clip-path="url(#pba4488c825)" style="fill: none; stroke-dasharray: 2.96,1.28; stroke-dashoffset: 0; stroke: #cccccc; stroke-opacity: 0.6; stroke-width: 0.8"/>
     </g>
     <g id="text_11">
      <!-- 23 -->
      <g style="fill: #1f77b4" transform="translate(21.679688 365.323133) scale(0.1 -0.1)">
       <defs>
        <path id="ArialMT-33" d="M 269 1209 
L 831 1284 
Q 928 806 1161 595 
Q 1394 384 1728 384 
Q 2125 384 2398 659 
Q 2672 934 2672 1341 
Q 2672 1728 2419 1979 
Q 2166 2231 1775 2231 
Q 1616 2231 1378 2169 
L 1441 2663 
Q 1497 2656 1531 2656 
Q 1891 2656 2178 2843 
Q 2466 3031 2466 3422 
Q 2466 3731 2256 3934 
Q 2047 4138 1716 4138 
Q 1388 4138 1169 3931 
Q 950 3725 888 3313 
L 325 3413 
Q 428 3978 793 4289 
Q 1159 4600 1703 4600 
Q 2078 4600 2393 4439 
Q 2709 4278 2876 4000 
Q 3044 3722 3044 3409 
Q 3044 3113 2884 2869 
Q 2725 2625 2413 2481 
Q 2819 2388 3044 2092 
Q 3269 1797 3269 1353 
Q 3269 753 2831 336 
Q 2394 -81 1725 -81 
Q 1122 -81 723 278 
Q 325 638 269 1209 
z
" transform="scale(0.015625)"/>
       </defs>
       <use xlink:href="#ArialMT-32"/>
       <use xlink:href="#ArialMT-33" transform="translate(55.615234 0)"/>
      </g>
     </g>
    </g>
    <g id="ytick_4">
     <g id="line2d_11">
      <path d="M 39.801563 313.073562 
L 849.301563 313.073562 
" clip-path="url(#pba4488c825)" style="fill: none; stroke-dasharray: 2.96,1.28; stroke-dashoffset: 0; stroke: #cccccc; stroke-opacity: 0.6; stroke-width: 0.8"/>
     </g>
     <g id="text_12">
      <!-- 24 -->
      <g style="fill: #1f77b4" transform="translate(21.679688 316.652468) scale(0.1 -0.1)">
       <use xlink:href="#ArialMT-32"/>
       <use xlink:href="#ArialMT-34" transform="translate(55.615234 0)"/>
      </g>
     </g>
    </g>
    <g id="ytick_5">
     <g id="line2d_12">
      <path d="M 39.801563 264.402898 
L 849.301563 264.402898 
" clip-path="url(#pba4488c825)" style="fill: none; stroke-dasharray: 2.96,1.28; stroke-dashoffset: 0; stroke: #cccccc; stroke-opacity: 0.6; stroke-width: 0.8"/>
     </g>
     <g id="text_13">
      <!-- 25 -->
      <g style="fill: #1f77b4" transform="translate(21.679688 267.981804) scale(0.1 -0.1)">
       <defs>
        <path id="ArialMT-35" d="M 266 1200 
L 856 1250 
Q 922 819 1161 601 
Q 1400 384 1738 384 
Q 2144 384 2425 690 
Q 2706 997 2706 1503 
Q 2706 1984 2436 2262 
Q 2166 2541 1728 2541 
Q 1456 2541 1237 2417 
Q 1019 2294 894 2097 
L 366 2166 
L 809 4519 
L 3088 4519 
L 3088 3981 
L 1259 3981 
L 1013 2750 
Q 1425 3038 1878 3038 
Q 2478 3038 2890 2622 
Q 3303 2206 3303 1553 
Q 3303 931 2941 478 
Q 2500 -78 1738 -78 
Q 1113 -78 717 272 
Q 322 622 266 1200 
z
" transform="scale(0.015625)"/>
       </defs>
       <use xlink:href="#ArialMT-32"/>
       <use xlink:href="#ArialMT-35" transform="translate(55.615234 0)"/>
      </g>
     </g>
    </g>
    <g id="ytick_6">
     <g id="line2d_13">
      <path d="M 39.801563 215.732233 
L 849.301563 215.732233 
" clip-path="url(#pba4488c825)" style="fill: none; stroke-dasharray: 2.96,1.28; stroke-dashoffset: 0; stroke: #cccccc; stroke-opacity: 0.6; stroke-width: 0.8"/>
     </g>
     <g id="text_14">
      <!-- 26 -->
      <g style="fill: #1f77b4" transform="translate(21.679688 219.31114) scale(0.1 -0.1)">
       <use xlink:href="#ArialMT-32"/>
       <use xlink:href="#ArialMT-36" transform="translate(55.615234 0)"/>
      </g>
     </g>
    </g>
    <g id="ytick_7">
     <g id="line2d_14">
      <path d="M 39.801563 167.061569 
L 849.301563 167.061569 
" clip-path="url(#pba4488c825)" style="fill: none; stroke-dasharray: 2.96,1.28; stroke-dashoffset: 0; stroke: #cccccc; stroke-opacity: 0.6; stroke-width: 0.8"/>
     </g>
     <g id="text_15">
      <!-- 27 -->
      <g style="fill: #1f77b4" transform="translate(21.679688 170.640475) scale(0.1 -0.1)">
       <defs>
        <path id="ArialMT-37" d="M 303 3981 
L 303 4522 
L 3269 4522 
L 3269 4084 
Q 2831 3619 2401 2847 
Q 1972 2075 1738 1259 
Q 1569 684 1522 0 
L 944 0 
Q 953 541 1156 1306 
Q 1359 2072 1739 2783 
Q 2119 3494 2547 3981 
L 303 3981 
z
" transform="scale(0.015625)"/>
       </defs>
       <use xlink:href="#ArialMT-32"/>
       <use xlink:href="#ArialMT-37" transform="translate(55.615234 0)"/>
      </g>
     </g>
    </g>
    <g id="ytick_8">
     <g id="line2d_15">
      <path d="M 39.801563 118.390905 
L 849.301563 118.390905 
" clip-path="url(#pba4488c825)" style="fill: none; stroke-dasharray: 2.96,1.28; stroke-dashoffset: 0; stroke: #cccccc; stroke-opacity: 0.6; stroke-width: 0.8"/>
     </g>
     <g id="text_16">
      <!-- 28 -->
      <g style="fill: #1f77b4" transform="translate(21.679688 121.969811) scale(0.1 -0.1)">
       <use xlink:href="#ArialMT-32"/>
       <use xlink:href="#ArialMT-38" transform="translate(55.615234 0)"/>
      </g>
     </g>
    </g>
    <g id="text_17">
     <!-- 总奖励 (平滑后) -->
     <g style="fill: #1f77b4" transform="translate(15.19375 305.79375) rotate(-90) scale(0.1 -0.1)">
      <defs>
       <path id="MicrosoftYaHei-603b" d="M 900 4253 
L 3631 4253 
Q 4022 4822 4331 5353 
L 4813 5103 
Q 4500 4675 4175 4253 
L 5500 4253 
L 5500 1703 
L 5000 1703 
L 5000 1978 
L 1400 1978 
L 1400 1703 
L 900 1703 
L 900 4253 
z
M 5000 3803 
L 1400 3803 
L 1400 2428 
L 5000 2428 
L 5000 3803 
z
M 1694 1378 
L 2181 1378 
L 2181 284 
Q 2181 -203 2619 -203 
L 3875 -203 
Q 4244 -203 4338 172 
Q 4394 366 4450 872 
Q 4631 791 4931 684 
Q 4850 209 4750 -97 
Q 4556 -641 3900 -641 
L 2519 -641 
Q 1694 -641 1694 197 
L 1694 1378 
z
M 719 1422 
L 1188 1272 
Q 931 491 538 -334 
Q 338 -247 81 -134 
Q 444 597 719 1422 
z
M 4881 1203 
L 5238 1478 
Q 5813 841 6319 197 
L 5900 -134 
Q 5456 491 4881 1203 
z
M 2663 1591 
L 3044 1841 
Q 3488 1372 3863 841 
L 3444 547 
Q 3069 1109 2663 1591 
z
M 1594 5109 
L 1975 5353 
Q 2350 4959 2650 4541 
L 2225 4266 
Q 1956 4653 1594 5109 
z
" transform="scale(0.015625)"/>
       <path id="MicrosoftYaHei-5956" d="M 6306 -284 
Q 6119 -528 5944 -803 
Q 4031 -491 3197 859 
Q 2550 -472 406 -878 
Q 281 -666 100 -403 
Q 2175 -84 2709 972 
L 225 972 
L 225 1403 
L 2900 1403 
Q 2969 1600 3019 1822 
L 3531 1822 
Q 3484 1603 3422 1403 
L 6200 1403 
L 6200 972 
L 3647 972 
Q 4472 -169 6306 -284 
z
M 2388 3553 
Q 3181 4228 3588 5334 
L 4056 5241 
Q 3941 4938 3803 4666 
L 5988 4666 
L 5988 4278 
Q 5181 2359 2788 1853 
Q 2706 2072 2531 2316 
Q 3434 2463 4094 2831 
Q 3688 3222 3288 3516 
L 3588 3822 
Q 4056 3481 4491 3084 
Q 5116 3550 5463 4266 
L 3588 4266 
Q 3228 3666 2763 3234 
Q 2588 3428 2388 3553 
z
M 1744 5291 
L 2231 5291 
L 2231 1728 
L 1744 1728 
L 1744 2925 
Q 1231 2694 256 2253 
L 94 2747 
Q 991 3088 1744 3425 
L 1744 5291 
z
M 281 4584 
L 588 4891 
Q 1088 4503 1513 4072 
L 1169 3741 
Q 700 4253 281 4584 
z
" transform="scale(0.015625)"/>
       <path id="MicrosoftYaHei-52b1" d="M 3756 3997 
L 4303 3997 
Q 4316 4669 4319 5297 
L 4775 5297 
Q 4763 4559 4750 3997 
L 6031 3997 
Q 5963 1203 5925 278 
Q 5888 -678 5169 -678 
Q 4969 -678 4444 -666 
Q 4406 -378 4350 -134 
Q 4856 -178 5081 -178 
Q 5425 -178 5456 272 
Q 5513 1266 5563 3528 
L 4741 3528 
Q 4731 3028 4725 2716 
Q 4688 334 3600 -859 
Q 3469 -666 3281 -447 
Q 4238 634 4275 2634 
Q 4288 3091 4297 3528 
L 3756 3528 
L 3756 3997 
z
M 1225 3728 
L 3563 3728 
L 3563 3291 
L 2194 3291 
Q 2184 2784 2172 2372 
L 3375 2372 
Q 3319 766 3275 91 
Q 3206 -628 2581 -628 
Q 2406 -628 2050 -622 
Q 2013 -416 1956 -159 
Q 2306 -197 2475 -197 
Q 2819 -203 2850 216 
Q 2894 797 2931 1959 
L 2153 1959 
Q 2125 1378 2081 1034 
Q 1969 -3 1300 -828 
Q 1175 -659 981 -453 
Q 1531 209 1644 1097 
Q 1728 1641 1756 3291 
L 1225 3291 
L 1225 3728 
z
M 1044 4472 
L 1044 2166 
Q 1044 147 475 -809 
Q 306 -647 94 -478 
Q 588 341 588 2184 
L 588 4909 
L 3663 4909 
L 3663 4472 
L 1044 4472 
z
" transform="scale(0.015625)"/>
       <path id="MicrosoftYaHei-5e73" d="M 169 1934 
L 2938 1934 
L 2938 4547 
L 450 4547 
L 450 5028 
L 5975 5028 
L 5975 4547 
L 3463 4547 
L 3463 1934 
L 6250 1934 
L 6250 1453 
L 3463 1453 
L 3463 -847 
L 2938 -847 
L 2938 1453 
L 169 1453 
L 169 1934 
z
M 3950 2559 
Q 4638 3284 5188 4159 
L 5656 3859 
Q 4950 2891 4338 2234 
L 3950 2559 
z
M 769 3859 
L 1163 4134 
Q 1863 3316 2369 2553 
L 1925 2222 
Q 1444 3003 769 3859 
z
" transform="scale(0.015625)"/>
       <path id="MicrosoftYaHei-6ed1" d="M 2738 -791 
L 2263 -791 
L 2263 2378 
L 5494 2378 
L 5494 -22 
Q 5494 -728 4813 -734 
Q 4456 -741 4025 -734 
Q 3994 -534 3931 -272 
Q 4294 -316 4619 -316 
Q 5019 -316 5019 9 
L 5019 303 
L 2738 303 
L 2738 -791 
z
M 1713 3253 
L 2306 3253 
L 2306 5078 
L 5475 5078 
L 5475 3253 
L 6063 3253 
L 6063 2297 
L 5594 2297 
L 5594 2853 
L 2181 2853 
L 2181 2284 
L 1713 2284 
L 1713 3253 
z
M 5025 4678 
L 2756 4678 
L 2756 4178 
L 4238 4178 
L 4238 3253 
L 5025 3253 
L 5025 4678 
z
M 850 1816 
Q 1106 1716 1363 1628 
Q 1100 541 788 -784 
L 238 -622 
Q 588 541 850 1816 
z
M 2738 691 
L 5019 691 
L 5019 1141 
L 2738 1141 
L 2738 691 
z
M 5019 1978 
L 2738 1978 
L 2738 1528 
L 5019 1528 
L 5019 1978 
z
M 719 5241 
Q 1256 4822 1738 4378 
L 1381 4003 
Q 931 4453 394 4909 
L 719 5241 
z
M 388 3697 
Q 988 3247 1400 2891 
L 1056 2497 
Q 581 2941 81 3328 
L 388 3697 
z
M 3794 3791 
L 2756 3791 
L 2756 3253 
L 3794 3253 
L 3794 3791 
z
" transform="scale(0.015625)"/>
       <path id="MicrosoftYaHei-540e" d="M 1888 1984 
L 5688 1984 
L 5688 -828 
L 5188 -828 
L 5188 -403 
L 2388 -403 
L 2388 -828 
L 1888 -828 
L 1888 1984 
z
M 1313 2991 
Q 1313 1272 1138 672 
Q 963 -16 394 -847 
Q 250 -634 50 -409 
Q 494 222 650 859 
Q 806 1472 806 2659 
L 806 4766 
Q 3544 4853 5631 5141 
L 5931 4622 
Q 3344 4359 1313 4284 
L 1313 3459 
L 6263 3459 
L 6263 2991 
L 1313 2991 
z
M 5188 1528 
L 2388 1528 
L 2388 41 
L 5188 41 
L 5188 1528 
z
" transform="scale(0.015625)"/>
      </defs>
      <use xlink:href="#MicrosoftYaHei-603b"/>
      <use xlink:href="#MicrosoftYaHei-5956" transform="translate(100 0)"/>
      <use xlink:href="#MicrosoftYaHei-52b1" transform="translate(200 0)"/>
      <use xlink:href="#MicrosoftYaHei-20" transform="translate(300 0)"/>
      <use xlink:href="#MicrosoftYaHei-28" transform="translate(329.589844 0)"/>
      <use xlink:href="#MicrosoftYaHei-5e73" transform="translate(362.988281 0)"/>
      <use xlink:href="#MicrosoftYaHei-6ed1" transform="translate(462.988281 0)"/>
      <use xlink:href="#MicrosoftYaHei-540e" transform="translate(562.988281 0)"/>
      <use xlink:href="#MicrosoftYaHei-29" transform="translate(662.988281 0)"/>
     </g>
    </g>
   </g>
   <g id="line2d_16">
    <path d="M 76.597017 225.466366 
L 77.209254 386.079559 
L 78.433729 319.157395 
L 79.045966 353.95692 
L 79.658203 341.464783 
L 80.27044 279.004097 
L 80.882677 292.38853 
L 81.494914 326.593191 
L 82.107152 316.480509 
L 83.331626 372.695126 
L 84.5561 332.541828 
L 85.168338 332.541828 
L 85.780575 329.19572 
L 87.005049 335.516146 
L 87.617286 326.906277 
L 88.229523 335.218714 
L 88.841761 348.603147 
L 89.453998 335.218714 
L 90.066235 335.218714 
L 90.678472 337.895601 
L 91.290709 329.864941 
L 91.902947 329.864941 
L 92.515184 343.249374 
L 93.127421 343.249374 
L 93.739658 337.895601 
L 94.351895 361.98758 
L 95.57637 340.572488 
L 96.800844 345.926261 
L 97.413081 340.572488 
L 98.025318 343.249374 
L 99.249793 343.249374 
L 99.86203 351.280034 
L 100.474267 329.864941 
L 101.086504 303.096076 
L 101.698741 313.803622 
L 102.310979 297.742303 
L 102.923216 316.480509 
L 103.535453 327.188055 
L 105.372165 380.725786 
L 105.984402 372.695126 
L 106.596639 361.98758 
L 107.208876 367.341353 
L 107.821113 356.633807 
L 109.045588 391.433332 
L 109.657825 396.787105 
L 110.882299 391.433332 
L 111.494536 404.817765 
L 112.106774 396.787105 
L 113.331248 442.294176 
L 113.943485 423.55597 
L 114.555722 431.58663 
L 115.780197 386.079559 
L 116.392434 372.695126 
L 117.004671 380.725786 
L 117.616908 351.280034 
L 118.229145 343.249374 
L 118.841382 319.157395 
L 120.065857 297.742303 
L 120.678094 289.711643 
L 121.290331 262.942778 
L 121.902568 249.558345 
L 122.514806 244.204572 
L 123.127043 246.881459 
L 123.73928 228.143253 
L 124.351517 222.78948 
L 124.963754 206.728161 
L 126.188229 212.081934 
L 126.800466 241.527686 
L 127.412703 254.912118 
L 128.02494 262.942778 
L 128.637177 244.204572 
L 129.249415 230.820139 
L 129.861652 238.850799 
L 130.473889 233.497026 
L 131.086126 236.173912 
L 131.698363 233.497026 
L 132.922838 233.497026 
L 133.535075 254.912118 
L 134.147312 265.619664 
L 134.759549 252.235232 
L 135.371786 254.912118 
L 135.984024 265.619664 
L 136.596261 273.650324 
L 137.820735 262.942778 
L 138.432972 252.235232 
L 139.045209 228.143253 
L 139.657447 236.173912 
L 140.881921 225.466366 
L 142.106395 220.112593 
L 142.718633 225.466366 
L 143.33087 233.497026 
L 143.943107 230.820139 
L 144.555344 246.881459 
L 145.167581 252.235232 
L 145.779818 244.204572 
L 146.392056 233.497026 
L 147.004293 244.204572 
L 147.61653 238.850799 
L 148.228767 217.435707 
L 148.841004 214.75882 
L 149.453242 244.204572 
L 150.065479 233.497026 
L 150.677716 246.881459 
L 151.289953 246.881459 
L 151.90219 238.850799 
L 152.514427 246.881459 
L 153.126665 268.296551 
L 153.738902 257.589005 
L 154.351139 262.942778 
L 154.963376 260.265891 
L 156.800088 236.173912 
L 157.412325 225.466366 
L 158.024562 225.466366 
L 158.636799 244.204572 
L 159.861274 233.497026 
L 160.473511 252.235232 
L 161.085748 254.912118 
L 161.697985 230.820139 
L 162.310222 241.527686 
L 162.922459 225.466366 
L 163.534697 204.051274 
L 164.146934 187.989955 
L 164.759171 187.989955 
L 165.371408 185.313068 
L 165.983645 174.605522 
L 166.595883 153.19043 
L 167.20812 153.19043 
L 167.820357 169.251749 
L 168.432594 179.959295 
L 169.044831 187.989955 
L 169.657068 185.313068 
L 170.269306 177.282409 
L 170.881543 174.605522 
L 171.49378 174.605522 
L 172.106017 185.313068 
L 172.718254 155.867316 
L 173.330492 163.897976 
L 173.942729 155.867316 
L 174.554966 161.221089 
L 175.167203 174.605522 
L 175.77944 174.605522 
L 176.391677 182.636182 
L 177.003915 187.989955 
L 177.616152 190.666841 
L 178.228389 214.75882 
L 178.840626 222.78948 
L 179.452863 238.850799 
L 180.065101 236.173912 
L 180.677338 217.435707 
L 181.289575 230.820139 
L 181.901812 241.527686 
L 182.514049 246.881459 
L 183.126286 238.850799 
L 183.738524 252.235232 
L 184.350761 246.881459 
L 184.962998 262.942778 
L 185.575235 270.973438 
L 186.187472 300.419189 
L 186.79971 289.711643 
L 187.411947 297.742303 
L 188.024184 313.803622 
L 188.636421 319.157395 
L 189.248658 303.096076 
L 189.860895 295.065416 
L 190.473133 273.650324 
L 191.08537 270.973437 
L 191.697607 252.235232 
L 192.309844 238.850799 
L 192.922081 249.558345 
L 193.534319 212.081934 
L 194.146556 201.374387 
L 194.758793 214.75882 
L 195.37103 209.405047 
L 195.983267 201.374387 
L 196.595504 185.313068 
L 197.207742 177.282409 
L 197.819979 153.19043 
L 198.432216 134.452224 
L 199.044453 121.067791 
L 199.65669 129.098451 
L 200.881165 113.037132 
L 201.493402 110.360245 
L 202.717876 145.15977 
L 203.330113 158.544203 
L 203.942351 158.544203 
L 205.166825 174.605522 
L 205.779062 187.989955 
L 206.391299 185.313068 
L 207.003536 177.282409 
L 207.615774 171.928635 
L 208.228011 177.282409 
L 208.840248 198.697501 
L 209.452485 214.75882 
L 210.67696 214.75882 
L 211.289197 238.850799 
L 211.901434 233.497026 
L 212.513671 257.589005 
L 213.125908 268.296551 
L 213.738145 276.327211 
L 214.96262 241.527686 
L 215.574857 241.527686 
L 216.187094 244.204572 
L 216.799331 228.143253 
L 217.411569 228.143253 
L 218.636043 222.78948 
L 219.24828 212.081934 
L 219.860517 228.143253 
L 220.472754 233.497026 
L 221.084992 230.820139 
L 221.697229 225.466366 
L 222.309466 252.235232 
L 222.921703 257.589005 
L 223.53394 238.850799 
L 224.146178 238.850799 
L 224.758415 225.466366 
L 225.370652 209.405047 
L 225.982889 225.466366 
L 226.595126 236.173912 
L 227.207363 254.912118 
L 227.819601 244.204572 
L 228.431838 241.527686 
L 229.044075 260.265891 
L 229.656312 273.650324 
L 230.268549 289.711643 
L 230.880787 295.065416 
L 231.493024 295.065416 
L 232.105261 292.38853 
L 232.717498 270.973438 
L 233.329735 268.296551 
L 234.55421 273.650324 
L 235.166447 268.296551 
L 235.778684 281.680984 
L 236.390921 262.942778 
L 237.003158 265.619664 
L 237.615396 284.35787 
L 238.227633 270.973438 
L 238.83987 268.296551 
L 239.452107 252.235232 
L 240.064344 257.589005 
L 240.676581 257.589005 
L 241.901056 230.820139 
L 242.513293 206.728161 
L 243.12553 196.020614 
L 243.737767 198.697501 
L 244.350004 204.051274 
L 245.574479 220.112593 
L 246.186716 220.112593 
L 246.798953 198.697501 
L 247.41119 209.405047 
L 248.023428 198.697501 
L 248.635665 209.405047 
L 249.247902 198.697501 
L 249.860139 166.574862 
L 250.472376 163.897976 
L 251.084613 163.897976 
L 251.696851 190.666841 
L 252.309088 193.343728 
L 252.921325 190.666841 
L 253.533562 196.020614 
L 254.145799 193.343728 
L 254.758037 212.081934 
L 255.370274 217.435707 
L 255.982511 212.081934 
L 256.594748 204.051274 
L 257.206985 209.405047 
L 258.43146 187.989955 
L 259.043697 169.251749 
L 259.655934 142.482884 
L 260.268171 137.12911 
L 260.880408 145.15977 
L 261.492646 145.15977 
L 262.104883 161.221089 
L 262.71712 163.897976 
L 263.329357 158.544203 
L 263.941594 142.482884 
L 264.553831 153.19043 
L 265.166069 169.251749 
L 266.390543 174.605522 
L 267.00278 163.897976 
L 267.615017 158.544203 
L 268.227255 171.928635 
L 268.839492 169.251749 
L 269.451729 177.282409 
L 270.063966 174.605522 
L 271.28844 201.374387 
L 272.512915 222.78948 
L 273.125152 214.75882 
L 273.737389 222.78948 
L 274.349626 212.081934 
L 274.961864 220.112593 
L 275.574101 233.497026 
L 276.186338 209.405047 
L 277.410812 214.75882 
L 278.023049 222.78948 
L 278.635287 222.78948 
L 279.247524 217.435707 
L 279.859761 225.466366 
L 280.471998 214.75882 
L 281.084235 217.435707 
L 281.696472 206.728161 
L 282.920947 190.666841 
L 283.533184 193.343728 
L 284.757658 187.989955 
L 285.982133 187.989955 
L 286.59437 209.405047 
L 287.206607 198.697501 
L 287.818844 169.251749 
L 288.431081 201.374387 
L 289.043319 179.959295 
L 289.655556 174.605522 
L 290.267793 163.897976 
L 290.88003 169.251749 
L 291.492267 169.251749 
L 292.104505 179.959295 
L 292.716742 177.282409 
L 293.328979 190.666841 
L 293.941216 198.697501 
L 294.553453 201.374387 
L 295.16569 190.666841 
L 295.777928 198.697501 
L 296.390165 209.405047 
L 297.002402 225.466366 
L 297.614639 228.143253 
L 298.226876 252.235232 
L 298.839114 238.850799 
L 299.451351 249.558345 
L 300.063588 268.296551 
L 300.675825 246.881459 
L 301.288062 246.881459 
L 302.512537 268.296551 
L 303.124774 249.558345 
L 303.737011 254.912118 
L 304.349248 246.881459 
L 304.961485 265.619664 
L 305.573723 244.204572 
L 306.798197 233.497026 
L 307.410434 244.204572 
L 308.022671 233.497026 
L 308.634908 225.466366 
L 309.247146 222.78948 
L 309.859383 222.78948 
L 310.47162 198.697501 
L 311.083857 209.405047 
L 312.308332 204.051274 
L 312.920569 212.081934 
L 313.532806 222.78948 
L 314.145043 204.051274 
L 314.75728 212.081934 
L 315.369517 236.173912 
L 315.981755 236.173912 
L 316.593992 246.881459 
L 317.206229 238.850799 
L 317.818466 249.558345 
L 318.430703 249.558345 
L 319.042941 244.204572 
L 319.655178 249.558345 
L 320.267415 252.235232 
L 320.879652 257.589005 
L 321.491889 257.589005 
L 322.104126 265.619664 
L 322.716364 268.296551 
L 323.940838 252.235232 
L 324.553075 254.912118 
L 325.165312 268.296551 
L 325.777549 252.235232 
L 326.389787 246.881459 
L 327.002024 230.820139 
L 327.614261 209.405047 
L 328.226498 222.78948 
L 328.838735 196.020614 
L 329.450973 204.051274 
L 330.06321 217.435707 
L 330.675447 217.435707 
L 331.287684 238.850799 
L 331.899921 220.112593 
L 332.512158 222.78948 
L 333.124396 230.820139 
L 334.34887 198.697501 
L 334.961107 171.928635 
L 335.573344 193.343728 
L 336.185582 187.989955 
L 336.797819 179.959295 
L 337.410056 158.544203 
L 338.022293 174.605522 
L 338.63453 174.605522 
L 339.246767 169.251749 
L 339.859005 193.343728 
L 340.471242 185.313068 
L 341.083479 201.374387 
L 341.695716 193.343728 
L 342.307953 179.959295 
L 342.920191 187.989955 
L 343.532428 187.989955 
L 344.144665 201.374387 
L 344.756902 217.435707 
L 345.369139 209.405047 
L 345.981376 233.497026 
L 346.593614 236.173912 
L 347.205851 262.942778 
L 347.818088 230.820139 
L 348.430325 230.820139 
L 349.6548 246.881459 
L 350.267037 244.204572 
L 350.879274 265.619664 
L 351.491511 276.327211 
L 352.103748 262.942778 
L 352.715985 252.235232 
L 353.328223 246.881459 
L 353.94046 244.204572 
L 354.552697 254.912118 
L 355.164934 260.265891 
L 355.777171 254.912118 
L 356.389409 252.235232 
L 357.001646 233.497026 
L 357.613883 228.143253 
L 358.22612 206.728161 
L 358.838357 220.112593 
L 359.450594 214.75882 
L 360.062832 228.143253 
L 360.675069 230.820139 
L 361.899543 204.051274 
L 362.51178 201.374387 
L 363.124017 185.313068 
L 363.736255 198.697501 
L 364.348492 204.051274 
L 364.960729 217.435707 
L 365.572966 236.173912 
L 366.185203 244.204572 
L 366.797441 220.112593 
L 368.021915 193.343728 
L 369.246389 228.143253 
L 369.858626 225.466366 
L 370.470864 217.435707 
L 371.083101 214.75882 
L 371.695338 222.78948 
L 372.307575 204.051274 
L 372.919812 212.081934 
L 373.53205 225.466366 
L 374.144287 260.265891 
L 374.756524 252.235232 
L 375.368761 246.881459 
L 375.980998 217.435707 
L 376.593235 225.466366 
L 377.205473 206.728161 
L 377.81771 196.020614 
L 378.429947 187.989955 
L 379.042184 214.75882 
L 379.654421 212.081934 
L 380.266659 244.204572 
L 381.491133 204.051274 
L 382.10337 209.405047 
L 382.715607 222.78948 
L 383.327844 209.405047 
L 383.940082 212.081934 
L 384.552319 244.204572 
L 385.164556 241.527686 
L 385.776793 254.912118 
L 386.38903 241.527686 
L 388.225742 295.065416 
L 388.837979 305.772963 
L 389.450216 327.188055 
L 390.062453 308.449849 
L 390.674691 316.480509 
L 391.286928 297.742303 
L 391.899165 313.803622 
L 392.511402 300.419189 
L 393.735877 329.864941 
L 394.348114 321.834282 
L 394.960351 319.157395 
L 395.572588 324.511168 
L 396.184825 327.188055 
L 396.797062 316.480509 
L 397.4093 321.834282 
L 398.021537 289.711643 
L 398.633774 289.711643 
L 399.246011 284.35787 
L 399.858248 281.680984 
L 400.470486 273.650324 
L 401.082723 252.235232 
L 401.69496 257.589005 
L 402.307197 268.296551 
L 402.919434 254.912118 
L 403.531671 260.265891 
L 404.143909 236.173912 
L 404.756146 241.527686 
L 405.368383 238.850799 
L 405.98062 249.558345 
L 406.592857 270.973437 
L 407.205094 270.973438 
L 407.817332 276.327211 
L 408.429569 249.558345 
L 409.041806 252.235232 
L 409.654043 228.143253 
L 410.26628 246.881459 
L 410.878518 246.881459 
L 411.490755 238.850799 
L 412.102992 241.527686 
L 412.715229 246.881459 
L 413.327466 249.558345 
L 413.939703 244.204572 
L 415.164178 260.265891 
L 415.776415 270.973438 
L 416.388652 287.034757 
L 417.613127 276.327211 
L 418.225364 265.619664 
L 418.837601 249.558345 
L 419.449838 262.942778 
L 420.062075 254.912118 
L 420.674312 284.35787 
L 421.28655 292.38853 
L 421.898787 319.157395 
L 422.511024 313.803622 
L 423.123261 311.126736 
L 423.735498 327.188055 
L 424.347736 332.541828 
L 424.959973 335.218714 
L 425.57221 329.864941 
L 426.796684 313.803622 
L 427.408921 308.449849 
L 428.021159 297.742303 
L 428.633396 297.742303 
L 429.245633 289.711643 
L 429.85787 305.772963 
L 431.082345 305.772963 
L 431.694582 292.38853 
L 434.14353 225.466366 
L 435.368005 214.75882 
L 435.980242 204.051274 
L 436.592479 187.989955 
L 437.816954 182.636182 
L 438.429191 196.020614 
L 439.041428 206.728161 
L 439.653665 201.374387 
L 440.265902 201.374387 
L 440.878139 196.020614 
L 441.490377 212.081934 
L 442.102614 185.313068 
L 442.714851 193.343728 
L 443.939325 220.112593 
L 445.1638 260.265891 
L 445.776037 268.296551 
L 446.388274 268.296551 
L 447.000511 270.973437 
L 447.612748 241.527686 
L 448.224986 230.820139 
L 449.44946 236.173912 
L 450.061697 236.173912 
L 450.673934 217.435707 
L 451.286171 220.112593 
L 451.898409 244.204572 
L 452.510646 246.881459 
L 453.122883 257.589005 
L 453.73512 252.235232 
L 454.347357 249.558345 
L 454.959595 228.143253 
L 456.184069 206.728161 
L 456.796306 193.343728 
L 457.408543 190.666841 
L 458.02078 179.959295 
L 458.633018 204.051274 
L 459.245255 220.112593 
L 459.857492 257.589005 
L 461.694204 273.650324 
L 462.306441 270.973438 
L 462.918678 292.38853 
L 463.530915 289.711643 
L 464.143152 270.973437 
L 464.755389 273.650324 
L 465.367627 260.265891 
L 465.979864 252.235232 
L 466.592101 262.942778 
L 467.204338 246.881459 
L 467.816575 244.204572 
L 468.428813 244.204572 
L 469.04105 279.004097 
L 469.653287 289.711643 
L 470.265524 295.065416 
L 471.489998 257.589005 
L 472.102236 254.912118 
L 472.714473 257.589005 
L 473.32671 257.589005 
L 473.938947 244.204572 
L 474.551184 241.527686 
L 475.163422 220.112593 
L 475.775659 212.081934 
L 477.000133 217.435707 
L 477.61237 206.728161 
L 478.224607 201.374387 
L 478.836845 212.081934 
L 479.449082 252.235232 
L 480.061319 260.265891 
L 480.673556 265.619664 
L 481.285793 246.881459 
L 481.898031 222.78948 
L 482.510268 225.466366 
L 483.122505 233.497026 
L 483.734742 268.296551 
L 484.346979 279.004097 
L 484.959216 270.973438 
L 485.571454 276.327211 
L 486.795928 276.327211 
L 487.408165 295.065416 
L 488.020402 273.650324 
L 488.632639 268.296551 
L 489.244877 257.589005 
L 489.857114 268.296551 
L 490.469351 270.973438 
L 491.081588 260.265891 
L 491.693825 246.881459 
L 492.306063 217.435707 
L 492.9183 201.374387 
L 493.530537 204.051274 
L 494.142774 214.75882 
L 494.755011 212.081934 
L 495.367248 206.728161 
L 495.979486 182.636182 
L 496.591723 166.574862 
L 497.20396 169.251749 
L 497.816197 166.574862 
L 498.428434 169.251749 
L 499.040672 190.666841 
L 499.652909 182.636182 
L 500.265146 190.666841 
L 500.877383 196.020614 
L 501.48962 217.435707 
L 502.101857 230.820139 
L 502.714095 230.820139 
L 503.326332 214.75882 
L 503.938569 225.466366 
L 504.550806 252.235232 
L 505.163043 244.204572 
L 505.775281 265.619664 
L 506.387518 252.235232 
L 506.999755 252.235232 
L 507.611992 265.619664 
L 508.224229 270.973437 
L 508.836466 268.296551 
L 509.448704 279.004097 
L 510.060941 273.650324 
L 510.673178 270.973437 
L 511.285415 254.912118 
L 511.897652 276.327211 
L 512.50989 289.711643 
L 513.122127 295.065416 
L 513.734364 262.942778 
L 514.346601 262.942778 
L 514.958838 268.296551 
L 515.571075 295.065416 
L 516.183313 287.034757 
L 516.79555 273.650324 
L 517.407787 287.034757 
L 518.020024 257.589005 
L 518.632261 252.235232 
L 519.244499 249.558345 
L 519.856736 238.850799 
L 520.468973 233.497026 
L 521.08121 246.881459 
L 521.693447 241.527686 
L 522.305684 246.881459 
L 522.917922 236.173912 
L 523.530159 233.497026 
L 524.142396 193.343728 
L 524.754633 201.374387 
L 525.36687 187.989955 
L 525.979108 201.374387 
L 526.591345 209.405047 
L 527.203582 206.728161 
L 527.815819 190.666841 
L 528.428056 204.051274 
L 529.040293 209.405047 
L 530.264768 193.343728 
L 531.489242 238.850799 
L 533.325954 206.728161 
L 533.938191 236.173912 
L 534.550428 233.497026 
L 535.162665 236.173912 
L 535.774902 236.173912 
L 536.38714 257.589005 
L 536.999377 246.881459 
L 537.611614 273.650324 
L 538.223851 273.650324 
L 538.836088 265.619664 
L 539.448325 273.650324 
L 540.060563 284.35787 
L 540.6728 262.942778 
L 541.285037 279.004097 
L 541.897274 287.034757 
L 542.509511 300.419189 
L 543.121749 300.419189 
L 543.733986 273.650324 
L 544.346223 279.004097 
L 544.95846 270.973437 
L 545.570697 257.589005 
L 546.182934 228.143253 
L 546.795172 228.143253 
L 547.407409 244.204572 
L 548.631883 228.143253 
L 549.24412 228.143253 
L 549.856358 209.405047 
L 550.468595 209.405047 
L 551.080832 204.051274 
L 551.693069 206.728161 
L 552.305306 196.020614 
L 552.917543 196.020614 
L 553.529781 177.282409 
L 554.142018 171.928635 
L 555.366492 142.482884 
L 556.590967 137.12911 
L 557.203204 139.805997 
L 557.815441 171.928635 
L 558.427678 174.605522 
L 559.039915 155.867316 
L 559.652152 142.482884 
L 560.26439 147.836657 
L 560.876627 145.15977 
L 561.488864 158.544203 
L 562.101101 161.221089 
L 562.713338 158.544203 
L 563.325576 158.544203 
L 563.937813 129.098451 
L 564.55005 126.421564 
L 565.162287 137.12911 
L 566.386761 163.897976 
L 566.998999 179.959295 
L 567.611236 185.313068 
L 568.223473 174.605522 
L 568.83571 166.574862 
L 569.447947 166.574862 
L 570.060184 142.482884 
L 570.672422 139.805997 
L 571.284659 139.805997 
L 572.509133 185.313068 
L 573.12137 198.697501 
L 573.733608 206.728161 
L 574.345845 212.081934 
L 574.958082 212.081934 
L 575.570319 217.435707 
L 576.182556 225.466366 
L 576.794793 236.173912 
L 577.407031 233.497026 
L 578.019268 217.435707 
L 578.631505 214.75882 
L 579.243742 209.405047 
L 579.855979 222.78948 
L 580.468217 225.466366 
L 581.080454 252.235232 
L 581.692691 268.296551 
L 582.917165 262.942778 
L 583.529402 270.973438 
L 584.753877 228.143253 
L 585.366114 233.497026 
L 585.978351 220.112593 
L 586.590588 217.435707 
L 587.202826 228.143253 
L 587.815063 220.112593 
L 588.4273 233.497026 
L 589.039537 220.112593 
L 589.651774 225.466366 
L 590.264011 244.204572 
L 590.876249 244.204572 
L 592.100723 228.143253 
L 592.71296 233.497026 
L 593.325197 233.497026 
L 593.937435 241.527686 
L 594.549672 230.820139 
L 595.161909 233.497026 
L 596.99862 257.589005 
L 597.610858 246.881459 
L 598.223095 246.881459 
L 598.835332 249.558345 
L 599.447569 246.881459 
L 600.059806 238.850799 
L 600.672044 214.75882 
L 601.284281 233.497026 
L 601.896518 214.75882 
L 602.508755 204.051274 
L 603.120992 204.051274 
L 603.733229 222.78948 
L 604.345467 209.405047 
L 604.957704 230.820139 
L 605.569941 217.435707 
L 606.182178 201.374387 
L 606.794415 220.112593 
L 607.406653 209.405047 
L 608.01889 209.405047 
L 608.631127 206.728161 
L 609.243364 212.081934 
L 609.855601 190.666841 
L 610.467838 198.697501 
L 611.080076 220.112593 
L 611.692313 214.75882 
L 612.916787 241.527686 
L 613.529024 233.497026 
L 614.141261 244.204572 
L 614.753499 238.850799 
L 615.365736 230.820139 
L 615.977973 217.435707 
L 616.59021 209.405047 
L 617.202447 204.051274 
L 617.814685 206.728161 
L 618.426922 212.081934 
L 619.039159 190.666841 
L 619.651396 198.697501 
L 620.263633 196.020614 
L 620.87587 209.405047 
L 621.488108 214.75882 
L 622.100345 214.75882 
L 622.712582 196.020614 
L 623.324819 171.928635 
L 623.937056 163.897976 
L 624.549294 171.928635 
L 625.161531 177.282409 
L 626.386005 182.636182 
L 626.998242 187.989955 
L 627.610479 198.697501 
L 628.222717 206.728161 
L 628.834954 230.820139 
L 629.447191 209.405047 
L 630.059428 209.405047 
L 630.671665 212.081934 
L 631.283903 230.820139 
L 631.89614 209.405047 
L 632.508377 206.728161 
L 633.120614 196.020614 
L 633.732851 193.343728 
L 634.345088 209.405047 
L 634.957326 233.497026 
L 635.569563 230.820139 
L 636.1818 236.173912 
L 636.794037 220.112593 
L 637.406274 228.143253 
L 638.018512 217.435707 
L 638.630749 228.143253 
L 639.855223 228.143253 
L 640.46746 244.204572 
L 641.079697 246.881459 
L 641.691935 265.619664 
L 642.304172 265.619664 
L 642.916409 273.650324 
L 643.528646 260.265891 
L 644.140883 292.38853 
L 644.753121 297.742303 
L 645.365358 292.38853 
L 645.977595 281.680984 
L 646.589832 292.38853 
L 647.202069 279.004097 
L 647.814306 276.327211 
L 648.426544 276.327211 
L 649.038781 284.35787 
L 650.263255 254.912118 
L 650.875492 230.820139 
L 651.487729 233.497026 
L 652.099967 233.497026 
L 652.712204 204.051274 
L 653.324441 179.959295 
L 654.548915 145.15977 
L 655.161153 123.744678 
L 655.77339 126.421564 
L 656.385627 107.683358 
L 656.997864 113.037132 
L 657.610101 123.744678 
L 658.222338 118.390905 
L 658.834576 102.329585 
L 659.446813 99.652699 
L 660.671287 115.714018 
L 661.283524 113.037132 
L 661.895762 134.452224 
L 662.507999 150.513543 
L 663.120236 174.605522 
L 663.732473 187.989955 
L 664.34471 193.343728 
L 664.956947 190.666841 
L 665.569185 185.313068 
L 666.181422 201.374387 
L 666.793659 206.728161 
L 667.405896 220.112593 
L 668.018133 246.881459 
L 668.630371 262.942778 
L 669.242608 257.589005 
L 669.854845 244.204572 
L 670.467082 270.973438 
L 671.079319 265.619664 
L 671.691556 281.680984 
L 672.303794 287.034757 
L 672.916031 279.004097 
L 673.528268 262.942778 
L 674.140505 257.589005 
L 674.752742 257.589005 
L 675.36498 254.912118 
L 675.977217 238.850799 
L 676.589454 228.143253 
L 677.201691 230.820139 
L 677.813928 244.204572 
L 678.426165 246.881459 
L 679.038403 252.235232 
L 679.65064 252.235232 
L 680.262877 249.558345 
L 680.875114 233.497026 
L 681.487351 212.081934 
L 682.099589 225.466366 
L 682.711826 228.143253 
L 683.324063 238.850799 
L 684.548537 206.728161 
L 685.160774 196.020614 
L 685.773012 209.405047 
L 686.385249 206.728161 
L 686.997486 217.435707 
L 687.609723 209.405047 
L 688.22196 198.697501 
L 688.834198 193.343728 
L 689.446435 217.435707 
L 690.058672 217.435707 
L 690.670909 209.405047 
L 691.283146 225.466366 
L 691.895383 212.081934 
L 692.507621 212.081934 
L 693.119858 225.466366 
L 693.732095 246.881459 
L 694.344332 236.173912 
L 694.956569 220.112593 
L 695.568806 225.466366 
L 696.181044 212.081934 
L 696.793281 228.143253 
L 697.405518 238.850799 
L 698.017755 257.589005 
L 698.629992 249.558345 
L 699.24223 236.173912 
L 699.854467 225.466366 
L 701.078941 246.881459 
L 701.691178 252.235232 
L 702.303415 252.235232 
L 702.915653 262.942778 
L 703.52789 244.204572 
L 704.140127 254.912118 
L 704.752364 260.265891 
L 705.364601 262.942778 
L 705.976839 270.973437 
L 706.589076 281.680984 
L 707.201313 270.973438 
L 707.81355 281.680984 
L 708.425787 300.419189 
L 709.038024 279.004097 
L 709.650262 281.680984 
L 710.262499 265.619664 
L 710.874736 262.942778 
L 711.486973 262.942778 
L 712.09921 260.265891 
L 712.711448 287.034757 
L 713.323685 284.35787 
L 713.935922 254.912118 
L 714.548159 257.589005 
L 715.160396 236.173912 
L 715.772633 265.619664 
L 716.384871 268.296551 
L 716.997108 246.881459 
L 717.609345 244.204572 
L 718.221582 233.497026 
L 718.833819 225.466366 
L 719.446057 230.820139 
L 720.058294 228.143253 
L 720.670531 230.820139 
L 721.282768 254.912118 
L 721.895005 249.558345 
L 722.507242 236.173912 
L 723.11948 238.850799 
L 723.731717 244.204572 
L 724.343954 265.619664 
L 724.956191 238.850799 
L 725.568428 249.558345 
L 726.180666 268.296551 
L 726.792903 265.619664 
L 727.40514 270.973438 
L 728.017377 249.558345 
L 728.629614 244.204572 
L 729.241851 257.589005 
L 729.854089 268.296551 
L 730.466326 270.973438 
L 731.078563 270.973438 
L 731.6908 249.558345 
L 732.303037 244.204572 
L 732.915274 249.558345 
L 733.527512 222.78948 
L 734.139749 214.75882 
L 734.751986 230.820139 
L 735.364223 233.497026 
L 735.97646 244.204572 
L 736.588698 233.497026 
L 737.200935 241.527686 
L 737.813172 220.112593 
L 738.425409 222.78948 
L 739.037646 217.435707 
L 739.649883 220.112593 
L 740.262121 217.435707 
L 740.874358 225.466366 
L 741.486595 209.405047 
L 742.711069 214.75882 
L 743.323307 212.081934 
L 743.935544 233.497026 
L 744.547781 246.881459 
L 745.160018 236.173912 
L 745.772255 265.619664 
L 746.384492 270.973437 
L 746.99673 268.296551 
L 747.608967 270.973437 
L 748.221204 270.973438 
L 748.833441 265.619664 
L 749.445678 262.942778 
L 750.057916 281.680984 
L 750.670153 265.619664 
L 751.28239 289.711643 
L 751.894627 297.742303 
L 752.506864 287.034757 
L 753.119101 279.004097 
L 753.731339 281.680984 
L 754.343576 262.942778 
L 754.955813 252.235232 
L 755.56805 246.881459 
L 756.180287 252.235232 
L 756.792525 230.820139 
L 757.404762 233.497026 
L 758.016999 212.081934 
L 758.629236 225.466366 
L 759.241473 222.78948 
L 759.85371 230.820139 
L 760.465948 204.051274 
L 761.078185 214.75882 
L 761.690422 201.374387 
L 762.302659 209.405047 
L 762.914896 230.820139 
L 763.527134 196.020614 
L 764.139371 209.405047 
L 764.751608 217.435707 
L 765.363845 217.435707 
L 765.976082 241.527686 
L 766.588319 238.850799 
L 767.200557 241.527686 
L 767.812794 257.589005 
L 768.425031 238.850799 
L 769.037268 244.204572 
L 769.649505 236.173912 
L 770.261743 236.173912 
L 770.87398 238.850799 
L 771.486217 233.497026 
L 772.098454 214.75882 
L 772.710691 241.527686 
L 773.322928 236.173912 
L 773.935166 254.912118 
L 774.547403 230.820139 
L 775.15964 236.173912 
L 775.771877 238.850799 
L 776.384114 204.051274 
L 777.608589 198.697501 
L 778.220826 179.959295 
L 778.833063 182.636182 
L 779.4453 187.989955 
L 780.057537 187.989955 
L 780.669775 206.728161 
L 781.282012 198.697501 
L 781.894249 209.405047 
L 782.506486 222.78948 
L 783.118723 206.728161 
L 784.343198 212.081934 
L 784.955435 193.343728 
L 785.567672 209.405047 
L 786.179909 198.697501 
L 786.792146 198.697501 
L 787.404384 169.251749 
L 788.016621 209.405047 
L 788.628858 230.820139 
L 789.241095 233.497026 
L 790.465569 249.558345 
L 791.690044 276.327211 
L 792.914518 254.912118 
L 793.526755 254.912118 
L 794.138993 257.589005 
L 794.75123 254.912118 
L 795.363467 249.558345 
L 795.975704 260.265891 
L 796.587941 254.912118 
L 797.200178 268.296551 
L 797.812416 246.881459 
L 799.03689 276.327211 
L 799.649127 273.650324 
L 800.261364 262.942778 
L 800.873602 265.619664 
L 801.485839 265.619664 
L 802.710313 217.435707 
L 803.32255 198.697501 
L 803.934787 187.989955 
L 804.547025 182.636182 
L 805.159262 174.605522 
L 805.771499 171.928635 
L 806.383736 166.574862 
L 806.995973 155.867316 
L 807.608211 174.605522 
L 808.220448 174.605522 
L 808.832685 196.020614 
L 809.444922 198.697501 
L 810.057159 196.020614 
L 810.669396 171.928635 
L 811.281634 158.544203 
L 811.893871 174.605522 
L 812.506108 158.544203 
L 812.506108 158.544203 
" clip-path="url(#pba4488c825)" style="fill: none; stroke: #1f77b4; stroke-width: 1.5; stroke-linecap: round"/>
   </g>
   <g id="patch_3">
    <path d="M 39.801563 459.42625 
L 39.801563 82.520625 
" style="fill: none; stroke: #cccccc; stroke-width: 0.8; stroke-linejoin: miter; stroke-linecap: square"/>
   </g>
   <g id="patch_4">
    <path d="M 849.301563 459.42625 
L 849.301563 82.520625 
" style="fill: none; stroke: #cccccc; stroke-width: 0.8; stroke-linejoin: miter; stroke-linecap: square"/>
   </g>
   <g id="patch_5">
    <path d="M 39.801562 459.42625 
L 849.301563 459.42625 
" style="fill: none; stroke: #cccccc; stroke-width: 0.8; stroke-linejoin: miter; stroke-linecap: square"/>
   </g>
   <g id="patch_6">
    <path d="M 39.801562 82.520625 
L 849.301563 82.520625 
" style="fill: none; stroke: #cccccc; stroke-width: 0.8; stroke-linejoin: miter; stroke-linecap: square"/>
   </g>
   <g id="legend_1">
    <g id="patch_7">
     <path d="M 770.301563 454.42625 
L 842.301563 454.42625 
Q 844.301563 454.42625 844.301563 452.42625 
L 844.301563 437.946562 
Q 844.301563 435.946562 842.301563 435.946562 
L 770.301563 435.946562 
Q 768.301563 435.946562 768.301563 437.946562 
L 768.301563 452.42625 
Q 768.301563 454.42625 770.301563 454.42625 
z
" style="fill: #ffffff; opacity: 0.8; stroke: #cccccc; stroke-linejoin: miter"/>
    </g>
    <g id="line2d_17">
     <path d="M 772.301563 444.440312 
L 782.301563 444.440312 
L 792.301563 444.440312 
" style="fill: none; stroke: #1f77b4; stroke-width: 1.5; stroke-linecap: round"/>
    </g>
    <g id="text_18">
     <!-- 平滑奖励 -->
     <g style="fill: #262626" transform="translate(800.301563 447.940312) scale(0.1 -0.1)">
      <use xlink:href="#MicrosoftYaHei-5e73"/>
      <use xlink:href="#MicrosoftYaHei-6ed1" transform="translate(100 0)"/>
      <use xlink:href="#MicrosoftYaHei-5956" transform="translate(200 0)"/>
      <use xlink:href="#MicrosoftYaHei-52b1" transform="translate(300 0)"/>
     </g>
    </g>
   </g>
  </g>
  <g id="text_19">
   <!-- hpo_params - PPO - 初始训练 (伽马分布(尖峰,shape5,scale2)) -->
   <g style="fill: #262626" transform="translate(192.776562 20.5975) scale(0.16 -0.16)">
    <defs>
     <path id="MicrosoftYaHei-Bold-68" d="M 3725 0 
L 2719 0 
L 2719 1969 
Q 2719 2766 2138 2766 
Q 1847 2766 1658 2544 
Q 1469 2322 1469 1969 
L 1469 0 
L 459 0 
L 459 5116 
L 1469 5116 
L 1469 2938 
L 1481 2938 
Q 1878 3541 2550 3541 
Q 3725 3541 3725 2122 
L 3725 0 
z
" transform="scale(0.015625)"/>
     <path id="MicrosoftYaHei-Bold-70" d="M 1469 416 
L 1469 -1591 
L 459 -1591 
L 459 3456 
L 1469 3456 
L 1469 2928 
L 1481 2928 
Q 1878 3541 2603 3541 
Q 3263 3541 3634 3080 
Q 4006 2619 4006 1825 
Q 4006 959 3575 437 
Q 3144 -84 2444 -84 
Q 1809 -84 1481 416 
L 1469 416 
z
M 1453 1528 
Q 1453 1159 1653 925 
Q 1853 691 2172 691 
Q 2550 691 2761 984 
Q 2972 1278 2972 1816 
Q 2972 2766 2231 2766 
Q 1888 2766 1670 2503 
Q 1453 2241 1453 1828 
L 1453 1528 
z
" transform="scale(0.015625)"/>
     <path id="MicrosoftYaHei-Bold-6f" d="M 253 1713 
Q 253 2566 764 3053 
Q 1275 3541 2138 3541 
Q 2972 3541 3462 3061 
Q 3953 2581 3953 1772 
Q 3953 922 3450 419 
Q 2947 -84 2088 -84 
Q 1244 -84 748 398 
Q 253 881 253 1713 
z
M 1275 1725 
Q 1275 691 2119 691 
Q 2928 691 2928 1753 
Q 2928 2766 2113 2766 
Q 1716 2766 1495 2494 
Q 1275 2222 1275 1725 
z
" transform="scale(0.015625)"/>
     <path id="MicrosoftYaHei-Bold-5f" d="M 2869 -1675 
L 0 -1675 
L 0 -1272 
L 2869 -1272 
L 2869 -1675 
z
" transform="scale(0.015625)"/>
     <path id="MicrosoftYaHei-Bold-61" d="M 544 3247 
Q 778 3378 1170 3459 
Q 1563 3541 1841 3541 
Q 3291 3541 3291 2088 
L 3291 0 
L 2331 0 
L 2331 503 
L 2319 503 
Q 1966 -84 1284 -84 
Q 794 -84 498 195 
Q 203 475 203 956 
Q 203 1950 1388 2113 
L 2338 2241 
Q 2338 2844 1709 2844 
Q 1091 2844 544 2469 
L 544 3247 
z
M 1684 1566 
Q 1138 1494 1138 1072 
Q 1138 878 1270 759 
Q 1403 641 1628 641 
Q 1938 641 2138 859 
Q 2338 1078 2338 1403 
L 2338 1650 
L 1684 1566 
z
" transform="scale(0.015625)"/>
     <path id="MicrosoftYaHei-Bold-72" d="M 2663 2541 
Q 2478 2647 2216 2647 
Q 1872 2647 1670 2384 
Q 1469 2122 1469 1663 
L 1469 0 
L 459 0 
L 459 3456 
L 1469 3456 
L 1469 2806 
L 1481 2806 
Q 1731 3516 2391 3516 
Q 2569 3516 2663 3475 
L 2663 2541 
z
" transform="scale(0.015625)"/>
     <path id="MicrosoftYaHei-Bold-6d" d="M 5881 0 
L 4875 0 
L 4875 1972 
Q 4875 2766 4297 2766 
Q 4028 2766 3850 2525 
Q 3672 2284 3672 1938 
L 3672 0 
L 2666 0 
L 2666 1997 
Q 2666 2766 2094 2766 
Q 1809 2766 1639 2536 
Q 1469 2306 1469 1928 
L 1469 0 
L 459 0 
L 459 3456 
L 1469 3456 
L 1469 2916 
L 1481 2916 
Q 1663 3213 1963 3377 
Q 2263 3541 2594 3541 
Q 3322 3541 3591 2888 
Q 3991 3541 4753 3541 
Q 5881 3541 5881 2147 
L 5881 0 
z
" transform="scale(0.015625)"/>
     <path id="MicrosoftYaHei-Bold-73" d="M 369 928 
Q 888 613 1384 613 
Q 2009 613 2009 947 
Q 2009 1184 1494 1344 
Q 850 1544 609 1789 
Q 369 2034 369 2453 
Q 369 2963 781 3252 
Q 1194 3541 1863 3541 
Q 2338 3541 2778 3400 
L 2778 2606 
Q 2375 2844 1891 2844 
Q 1650 2844 1503 2758 
Q 1356 2672 1356 2531 
Q 1356 2294 1794 2147 
Q 2263 1991 2498 1862 
Q 2734 1734 2857 1525 
Q 2981 1316 2981 1041 
Q 2981 506 2553 211 
Q 2125 -84 1409 -84 
Q 847 -84 369 94 
L 369 928 
z
" transform="scale(0.015625)"/>
     <path id="MicrosoftYaHei-Bold-20" transform="scale(0.015625)"/>
     <path id="MicrosoftYaHei-Bold-2d" d="M 2328 1497 
L 481 1497 
L 481 2209 
L 2328 2209 
L 2328 1497 
z
" transform="scale(0.015625)"/>
     <path id="MicrosoftYaHei-Bold-50" d="M 1591 1688 
L 1591 0 
L 559 0 
L 559 4841 
L 2225 4841 
Q 4031 4841 4031 3309 
Q 4031 2566 3486 2117 
Q 2941 1669 2122 1688 
L 1591 1688 
z
M 1591 4041 
L 1591 2478 
L 2038 2478 
Q 2947 2478 2947 3269 
Q 2947 4041 2047 4041 
L 1591 4041 
z
" transform="scale(0.015625)"/>
     <path id="MicrosoftYaHei-Bold-4f" d="M 256 2356 
Q 256 3494 920 4208 
Q 1584 4922 2675 4922 
Q 3713 4922 4345 4231 
Q 4978 3541 4978 2456 
Q 4978 1325 4320 620 
Q 3663 -84 2597 -84 
Q 1556 -84 906 598 
Q 256 1281 256 2356 
z
M 1341 2413 
Q 1341 1706 1681 1257 
Q 2022 809 2616 809 
Q 3222 809 3559 1239 
Q 3897 1669 3897 2394 
Q 3897 3150 3569 3589 
Q 3241 4028 2644 4028 
Q 2038 4028 1689 3578 
Q 1341 3128 1341 2413 
z
" transform="scale(0.015625)"/>
     <path id="MicrosoftYaHei-Bold-521d" d="M 1288 5359 
Q 1619 4997 2031 4453 
L 1516 4109 
L 2294 4109 
L 2294 3378 
Q 2019 2847 1700 2369 
L 1700 2256 
Q 1809 2175 1909 2097 
Q 2209 2516 2419 2878 
L 2994 2516 
Q 2716 2138 2381 1734 
Q 2619 1544 2813 1378 
L 2363 834 
Q 2016 1166 1700 1441 
L 1700 -866 
L 913 -866 
L 913 1338 
Q 641 1025 344 741 
Q 231 1228 94 1678 
Q 831 2278 1363 3303 
L 156 3303 
L 156 4109 
L 1231 4109 
Q 981 4472 613 4928 
L 1288 5359 
z
M 3919 -697 
Q 3838 -266 3700 253 
Q 4153 209 4563 209 
Q 5006 209 5040 675 
Q 5075 1141 5113 4159 
L 4097 4159 
Q 4050 2622 3984 1959 
Q 3919 1297 3595 525 
Q 3272 -247 2644 -859 
Q 2369 -578 1925 -216 
Q 2450 234 2734 806 
Q 3019 1378 3105 1972 
Q 3191 2566 3219 4159 
L 2488 4159 
L 2488 4947 
L 6013 4947 
L 5938 1331 
L 5906 491 
Q 5906 -44 5686 -328 
Q 5466 -613 5067 -647 
Q 4669 -681 3919 -697 
z
" transform="scale(0.015625)"/>
     <path id="MicrosoftYaHei-Bold-59cb" d="M 2863 -853 
L 2863 356 
L 2256 -291 
Q 2000 -25 1744 225 
Q 1309 -381 638 -847 
Q 350 -466 69 -153 
Q 706 259 1119 816 
Q 669 1228 225 1597 
Q 441 2363 616 3359 
L 119 3359 
L 119 4134 
L 741 4134 
Q 825 4706 900 5347 
L 1731 5259 
L 1550 4134 
L 2669 4134 
Q 2663 3728 2638 3363 
Q 3213 3972 3875 5359 
L 4800 5097 
Q 4225 4159 3594 3378 
Q 4328 3422 5075 3484 
Q 4847 3944 4619 4359 
L 5294 4634 
Q 5831 3747 6369 2659 
L 5613 2341 
L 5391 2828 
Q 3522 2697 2863 2578 
L 2625 3169 
Q 2519 1791 2156 953 
L 2863 394 
L 2863 2116 
L 5981 2116 
L 5981 -828 
L 5144 -828 
L 5144 -472 
L 3700 -472 
L 3700 -853 
L 2863 -853 
z
M 1088 1797 
L 1503 1469 
Q 1809 2241 1863 3359 
L 1413 3359 
Q 1259 2541 1088 1797 
z
M 5144 1328 
L 3700 1328 
L 3700 316 
L 5144 316 
L 5144 1328 
z
" transform="scale(0.015625)"/>
     <path id="MicrosoftYaHei-Bold-8bad" d="M 956 5259 
Q 1475 4753 1925 4234 
L 1263 3684 
Q 769 4328 356 4747 
L 956 5259 
z
M 2450 5184 
L 3281 5184 
L 3281 2066 
Q 3281 209 2275 -884 
Q 1844 -528 1519 -328 
Q 2450 659 2450 2134 
L 2450 5184 
z
M 5238 5184 
L 6069 5184 
L 6069 -784 
L 5238 -784 
L 5238 5184 
z
M 3856 4953 
L 4663 4953 
L 4663 -416 
L 3856 -416 
L 3856 4953 
z
M 2019 1772 
Q 2050 1466 2175 916 
Q 1556 353 925 -341 
L 488 266 
Q 650 447 650 772 
L 650 2422 
L 125 2422 
L 125 3266 
L 1475 3266 
L 1475 1297 
Q 1769 1541 2019 1772 
z
" transform="scale(0.015625)"/>
     <path id="MicrosoftYaHei-Bold-7ec3" d="M 2400 3516 
L 2984 3516 
L 3159 4028 
L 2263 4028 
L 2263 4753 
L 3394 4753 
L 3575 5347 
L 4413 5291 
L 4238 4753 
L 6000 4753 
L 6000 4028 
L 3994 4028 
L 3809 3516 
L 4969 3516 
L 4969 2191 
L 6025 2191 
L 6025 1484 
L 4969 1484 
L 4969 297 
Q 4969 -131 4831 -397 
Q 4694 -663 4444 -758 
Q 4194 -853 3394 -853 
Q 3294 -309 3225 -34 
Q 3525 -72 3756 -72 
Q 4125 -72 4125 491 
L 4125 1484 
L 2513 1484 
L 2513 2291 
Q 2613 2525 2716 2791 
L 2400 2791 
L 2400 3516 
z
M 3306 2191 
L 4125 2191 
L 4125 2791 
L 3541 2791 
L 3306 2191 
z
M 1013 3372 
L 1419 3388 
L 1744 3966 
L 2413 3659 
L 1356 1797 
Q 1894 1872 2294 1941 
Q 2263 1684 2231 1159 
Q 931 984 475 866 
L 244 1566 
Q 531 1816 1009 2653 
L 306 2584 
L 75 3297 
Q 575 3966 1219 5341 
L 2000 5028 
Q 1450 4053 1013 3372 
z
M 75 372 
Q 1100 478 2288 672 
Q 2275 350 2272 116 
Q 2722 741 3000 1309 
L 3706 1003 
Q 3294 197 2738 -597 
Q 2469 -409 2078 -191 
L 238 -503 
L 75 372 
z
M 5000 978 
L 5619 1278 
Q 5994 584 6369 -197 
L 5713 -534 
Q 5356 316 5000 978 
z
" transform="scale(0.015625)"/>
     <path id="MicrosoftYaHei-Bold-28" d="M 1606 -1100 
Q 525 97 525 1853 
Q 525 3550 1606 4841 
L 2431 4841 
Q 1406 3497 1406 1853 
Q 1406 216 2438 -1100 
L 1606 -1100 
z
" transform="scale(0.015625)"/>
     <path id="MicrosoftYaHei-Bold-4f3d" d="M 2050 5284 
L 2788 5284 
Q 2775 4666 2769 4166 
L 3863 4166 
L 3863 72 
Q 3863 -653 3181 -666 
Q 2844 -684 2550 -678 
Q 2494 -316 2394 41 
Q 2219 -428 1956 -834 
Q 1744 -466 1481 -53 
Q 2038 853 2038 3384 
L 1650 3384 
L 1650 4166 
L 2038 4166 
Q 2044 4684 2050 5284 
z
M 4200 -597 
L 4200 4697 
L 6063 4697 
L 6063 -578 
L 5331 -578 
L 5331 -122 
L 4931 -122 
L 4931 -597 
L 4200 -597 
z
M 1075 5297 
L 1794 5128 
Q 1650 4509 1456 3916 
L 1456 -803 
L 738 -803 
L 738 2141 
Q 544 1753 331 1378 
Q 263 1759 119 2478 
Q 788 3884 1075 5297 
z
M 2806 128 
Q 3119 116 3113 491 
L 3113 3384 
L 2769 3384 
Q 2750 1103 2425 128 
Q 2619 122 2806 128 
z
M 5331 3891 
L 4931 3891 
L 4931 684 
L 5331 684 
L 5331 3891 
z
" transform="scale(0.015625)"/>
     <path id="MicrosoftYaHei-Bold-9a6c" d="M 1081 4009 
L 2063 4009 
L 1925 2741 
L 4047 2741 
L 4206 4284 
L 663 4284 
L 663 5066 
L 5263 5066 
L 5028 2741 
L 6019 2741 
Q 5978 925 5934 378 
Q 5891 -169 5566 -439 
Q 5241 -709 4694 -728 
Q 4147 -747 2944 -747 
Q 2856 -303 2719 191 
Q 3931 141 4381 141 
Q 4666 141 4780 239 
Q 4894 338 4950 470 
Q 5006 603 5038 1966 
L 881 1966 
L 1081 4009 
z
M 150 1484 
L 4638 1484 
L 4638 672 
L 150 672 
L 150 1484 
z
" transform="scale(0.015625)"/>
     <path id="MicrosoftYaHei-Bold-5206" d="M 6350 3028 
Q 6088 2703 5750 2228 
Q 5519 2409 5303 2603 
Q 5219 606 5172 190 
Q 5125 -225 4862 -451 
Q 4600 -678 4128 -678 
Q 3484 -678 2913 -659 
Q 2856 -141 2781 284 
Q 3594 216 3956 216 
Q 4172 216 4230 408 
Q 4288 600 4325 1978 
L 2781 1978 
Q 2728 1100 2529 631 
Q 2331 163 1907 -215 
Q 1484 -594 844 -872 
Q 456 -353 194 -78 
Q 750 144 1111 414 
Q 1472 684 1630 989 
Q 1788 1294 1841 1978 
L 950 1978 
L 950 2475 
Q 794 2356 631 2247 
Q 344 2653 63 2953 
Q 1475 3947 2194 5316 
L 3031 4953 
Q 2378 3722 1391 2841 
L 5047 2841 
Q 4088 3766 3463 4903 
L 4238 5303 
Q 5038 3922 6350 3028 
z
" transform="scale(0.015625)"/>
     <path id="MicrosoftYaHei-Bold-5e03" d="M 3919 -834 
L 3050 -834 
L 3050 2034 
L 2063 2034 
L 2063 -359 
L 1200 -359 
L 1200 1641 
Q 825 1238 400 866 
Q 244 1403 113 1741 
Q 1128 2669 1731 3709 
L 200 3709 
L 200 4541 
L 2141 4541 
Q 2294 4916 2400 5303 
L 3275 5203 
Q 3169 4866 3038 4541 
L 6250 4541 
L 6250 3709 
L 2659 3709 
Q 2406 3222 2094 2766 
L 3050 2766 
L 3050 3566 
L 3919 3566 
L 3919 2766 
L 5800 2766 
L 5800 741 
Q 5800 338 5628 112 
Q 5456 -113 5178 -164 
Q 4900 -216 4306 -216 
Q 4225 291 4156 609 
Q 4456 584 4544 584 
Q 4950 584 4950 1034 
L 4950 2034 
L 3919 2034 
L 3919 -834 
z
" transform="scale(0.015625)"/>
     <path id="MicrosoftYaHei-Bold-5c16" d="M 2750 5328 
L 3669 5328 
L 3669 2878 
L 2750 2878 
L 2750 5328 
z
M 1794 4816 
L 2463 4216 
Q 1700 3422 819 2741 
Q 525 3147 238 3428 
Q 1181 4103 1794 4816 
z
M 3925 4203 
L 4506 4803 
Q 5244 4253 6125 3491 
L 5525 2803 
Q 4731 3572 3925 4203 
z
M 250 2216 
L 2728 2216 
Q 2744 2406 2750 2622 
L 3675 2622 
Q 3669 2416 3653 2216 
L 6175 2216 
L 6175 1416 
L 3925 1416 
Q 4659 269 6269 16 
Q 6044 -297 5706 -822 
Q 4069 -444 3272 975 
Q 2741 -338 650 -866 
Q 425 -484 94 -9 
Q 2153 344 2569 1416 
L 250 1416 
L 250 2216 
z
" transform="scale(0.015625)"/>
     <path id="MicrosoftYaHei-Bold-5cf0" d="M 2425 4241 
L 2425 2972 
Q 3169 3116 3738 3353 
Q 3538 3522 3375 3703 
Q 3188 3509 2994 3322 
Q 2756 3603 2531 3797 
Q 3188 4403 3750 5322 
L 4613 5222 
Q 4481 5034 4344 4859 
L 5869 4859 
L 5869 4253 
Q 5588 3759 5106 3372 
Q 5638 3216 6338 3134 
Q 6250 2847 6138 2416 
Q 5069 2603 4400 2916 
Q 3669 2541 2663 2309 
Q 2544 2628 2425 2884 
L 2425 -266 
L 1888 -266 
L 1888 9 
L 250 -116 
L 250 4241 
L 788 4241 
L 788 647 
L 1006 666 
L 1006 5253 
L 1669 5253 
L 1669 716 
L 1888 734 
L 1888 4241 
L 2425 4241 
z
M 2613 566 
L 4013 566 
L 4013 903 
L 2894 903 
L 2894 1428 
L 4013 1428 
L 4013 1766 
L 2794 1766 
L 2794 2291 
L 4013 2291 
L 4013 2584 
L 4788 2584 
L 4788 2291 
L 5994 2291 
L 5994 1766 
L 4788 1766 
L 4788 1428 
L 5925 1428 
L 5925 903 
L 4788 903 
L 4788 566 
L 6213 566 
L 6213 -16 
L 4788 -16 
L 4788 -847 
L 4013 -847 
L 4013 -16 
L 2613 -16 
L 2613 566 
z
M 4381 3691 
Q 4744 3922 4994 4209 
L 3825 4209 
Q 3813 4197 3806 4184 
Q 4038 3916 4381 3691 
z
" transform="scale(0.015625)"/>
     <path id="MicrosoftYaHei-Bold-2c" d="M 1419 841 
L 916 -859 
L 134 -859 
L 484 841 
L 1419 841 
z
" transform="scale(0.015625)"/>
     <path id="MicrosoftYaHei-Bold-65" d="M 3528 1444 
L 1253 1444 
Q 1306 641 2222 641 
Q 2794 641 3231 922 
L 3231 181 
Q 2759 -84 1994 -84 
Q 1169 -84 711 381 
Q 253 847 253 1678 
Q 253 2506 740 3023 
Q 1228 3541 1966 3541 
Q 2700 3541 3114 3095 
Q 3528 2650 3528 1872 
L 3528 1444 
z
M 2588 2075 
Q 2588 2850 1959 2850 
Q 1700 2850 1500 2637 
Q 1300 2425 1250 2075 
L 2588 2075 
z
" transform="scale(0.015625)"/>
     <path id="MicrosoftYaHei-Bold-35" d="M 541 125 
L 541 997 
Q 1044 691 1613 691 
Q 2041 691 2283 902 
Q 2525 1113 2525 1472 
Q 2525 2225 1494 2225 
Q 1113 2225 616 2169 
L 797 4841 
L 3359 4841 
L 3359 4009 
L 1613 4009 
L 1544 2991 
Q 1803 3013 2022 3013 
Q 2731 3013 3142 2625 
Q 3553 2238 3553 1575 
Q 3553 844 3056 380 
Q 2559 -84 1706 -84 
Q 1016 -84 541 125 
z
" transform="scale(0.015625)"/>
     <path id="MicrosoftYaHei-Bold-63" d="M 3050 128 
Q 2688 -84 2019 -84 
Q 1228 -84 740 397 
Q 253 878 253 1644 
Q 253 2525 778 3033 
Q 1303 3541 2178 3541 
Q 2769 3541 3053 3378 
L 3053 2513 
Q 2706 2766 2297 2766 
Q 1834 2766 1554 2484 
Q 1275 2203 1275 1713 
Q 1275 1238 1540 964 
Q 1806 691 2263 691 
Q 2666 691 3050 947 
L 3050 128 
z
" transform="scale(0.015625)"/>
     <path id="MicrosoftYaHei-Bold-6c" d="M 444 0 
L 444 5116 
L 1450 5116 
L 1450 0 
L 444 0 
z
" transform="scale(0.015625)"/>
     <path id="MicrosoftYaHei-Bold-32" d="M 1500 841 
L 3553 841 
L 3553 0 
L 334 0 
L 334 359 
Q 334 738 473 1050 
Q 613 1363 856 1633 
Q 1100 1903 1613 2266 
Q 2081 2616 2268 2886 
Q 2456 3156 2456 3459 
Q 2456 4113 1744 4113 
Q 1119 4113 550 3613 
L 550 4513 
Q 1184 4922 1975 4922 
Q 2700 4922 3122 4551 
Q 3544 4181 3544 3531 
Q 3544 3169 3422 2876 
Q 3300 2584 3069 2328 
Q 2838 2072 2328 1713 
Q 1838 1363 1669 1172 
Q 1500 981 1500 841 
z
" transform="scale(0.015625)"/>
     <path id="MicrosoftYaHei-Bold-29" d="M 59 -1100 
Q 1097 216 1097 1853 
Q 1097 3484 59 4841 
L 888 4841 
Q 1978 3544 1978 1853 
Q 1978 113 881 -1100 
L 59 -1100 
z
" transform="scale(0.015625)"/>
    </defs>
    <use xlink:href="#MicrosoftYaHei-Bold-68"/>
    <use xlink:href="#MicrosoftYaHei-Bold-70" transform="translate(64.550781 0)"/>
    <use xlink:href="#MicrosoftYaHei-Bold-6f" transform="translate(131.152344 0)"/>
    <use xlink:href="#MicrosoftYaHei-Bold-5f" transform="translate(196.875 0)"/>
    <use xlink:href="#MicrosoftYaHei-Bold-70" transform="translate(241.699219 0)"/>
    <use xlink:href="#MicrosoftYaHei-Bold-61" transform="translate(307.175781 0)"/>
    <use xlink:href="#MicrosoftYaHei-Bold-72" transform="translate(364.939453 0)"/>
    <use xlink:href="#MicrosoftYaHei-Bold-61" transform="translate(407.322266 0)"/>
    <use xlink:href="#MicrosoftYaHei-Bold-6d" transform="translate(465.085938 0)"/>
    <use xlink:href="#MicrosoftYaHei-Bold-73" transform="translate(563.279297 0)"/>
    <use xlink:href="#MicrosoftYaHei-Bold-20" transform="translate(612.644531 0)"/>
    <use xlink:href="#MicrosoftYaHei-Bold-2d" transform="translate(642.429688 0)"/>
    <use xlink:href="#MicrosoftYaHei-Bold-20" transform="translate(686.082031 0)"/>
    <use xlink:href="#MicrosoftYaHei-Bold-50" transform="translate(715.867188 0)"/>
    <use xlink:href="#MicrosoftYaHei-Bold-50" transform="translate(781.589844 0)"/>
    <use xlink:href="#MicrosoftYaHei-Bold-4f" transform="translate(847.3125 0)"/>
    <use xlink:href="#MicrosoftYaHei-Bold-20" transform="translate(929.148438 0)"/>
    <use xlink:href="#MicrosoftYaHei-Bold-2d" transform="translate(958.933594 0)"/>
    <use xlink:href="#MicrosoftYaHei-Bold-20" transform="translate(1002.585938 0)"/>
    <use xlink:href="#MicrosoftYaHei-Bold-521d" transform="translate(1032.371094 0)"/>
    <use xlink:href="#MicrosoftYaHei-Bold-59cb" transform="translate(1132.371094 0)"/>
    <use xlink:href="#MicrosoftYaHei-Bold-8bad" transform="translate(1232.371094 0)"/>
    <use xlink:href="#MicrosoftYaHei-Bold-7ec3" transform="translate(1332.371094 0)"/>
    <use xlink:href="#MicrosoftYaHei-Bold-20" transform="translate(1432.371094 0)"/>
    <use xlink:href="#MicrosoftYaHei-Bold-28" transform="translate(1462.15625 0)"/>
    <use xlink:href="#MicrosoftYaHei-Bold-4f3d" transform="translate(1501.121094 0)"/>
    <use xlink:href="#MicrosoftYaHei-Bold-9a6c" transform="translate(1601.121094 0)"/>
    <use xlink:href="#MicrosoftYaHei-Bold-5206" transform="translate(1701.121094 0)"/>
    <use xlink:href="#MicrosoftYaHei-Bold-5e03" transform="translate(1801.121094 0)"/>
    <use xlink:href="#MicrosoftYaHei-Bold-28" transform="translate(1901.121094 0)"/>
    <use xlink:href="#MicrosoftYaHei-Bold-5c16" transform="translate(1940.085938 0)"/>
    <use xlink:href="#MicrosoftYaHei-Bold-5cf0" transform="translate(2040.085938 0)"/>
    <use xlink:href="#MicrosoftYaHei-Bold-2c" transform="translate(2140.085938 0)"/>
    <use xlink:href="#MicrosoftYaHei-Bold-73" transform="translate(2168.650391 0)"/>
    <use xlink:href="#MicrosoftYaHei-Bold-68" transform="translate(2218.015625 0)"/>
    <use xlink:href="#MicrosoftYaHei-Bold-61" transform="translate(2282.566406 0)"/>
    <use xlink:href="#MicrosoftYaHei-Bold-70" transform="translate(2340.330078 0)"/>
    <use xlink:href="#MicrosoftYaHei-Bold-65" transform="translate(2406.931641 0)"/>
    <use xlink:href="#MicrosoftYaHei-Bold-35" transform="translate(2465.134766 0)"/>
    <use xlink:href="#MicrosoftYaHei-Bold-2c" transform="translate(2526.804688 0)"/>
    <use xlink:href="#MicrosoftYaHei-Bold-73" transform="translate(2555.369141 0)"/>
    <use xlink:href="#MicrosoftYaHei-Bold-63" transform="translate(2604.734375 0)"/>
    <use xlink:href="#MicrosoftYaHei-Bold-61" transform="translate(2656.394531 0)"/>
    <use xlink:href="#MicrosoftYaHei-Bold-6c" transform="translate(2714.158203 0)"/>
    <use xlink:href="#MicrosoftYaHei-Bold-65" transform="translate(2743.748047 0)"/>
    <use xlink:href="#MicrosoftYaHei-Bold-32" transform="translate(2801.951172 0)"/>
    <use xlink:href="#MicrosoftYaHei-Bold-29" transform="translate(2863.621094 0)"/>
    <use xlink:href="#MicrosoftYaHei-Bold-29" transform="translate(2902.585938 0)"/>
   </g>
   <!-- (环境: 伽马分布(尖峰,shape5,scale2 | 复杂度: 0.78) -->
   <g style="fill: #262626" transform="translate(238.950312 40.862) scale(0.16 -0.16)">
    <defs>
     <path id="MicrosoftYaHei-Bold-73af" d="M 5163 2916 
Q 5825 1797 6300 878 
L 5544 472 
Q 5081 1400 4550 2413 
L 4550 -834 
L 3706 -834 
L 3706 2013 
Q 3272 1200 2700 484 
Q 2525 641 2378 766 
Q 2347 503 2331 9 
L 175 -328 
L 81 522 
L 863 613 
L 863 2003 
L 213 2003 
L 213 2834 
L 863 2834 
L 863 4066 
L 175 4066 
L 175 4897 
L 2375 4897 
L 2375 4066 
L 1694 4066 
L 1694 2834 
L 2356 2834 
L 2356 2003 
L 1694 2003 
L 1694 728 
L 2306 825 
Q 2134 972 2000 1072 
Q 3194 2478 3675 4084 
L 2606 4084 
L 2606 4916 
L 6075 4916 
L 6075 4084 
L 4556 4084 
Q 4400 3559 4200 3066 
L 4550 3066 
L 4550 2591 
L 5163 2916 
z
" transform="scale(0.015625)"/>
     <path id="MicrosoftYaHei-Bold-5883" d="M 6044 4241 
L 5000 4241 
L 5563 4103 
Q 5450 3944 5322 3778 
L 6231 3778 
L 6231 3153 
L 2113 3153 
L 2113 3778 
L 2863 3778 
L 2638 4109 
L 3228 4241 
L 2256 4241 
L 2256 4866 
L 3591 4866 
Q 3506 5028 3400 5209 
L 4438 5353 
Q 4509 5125 4575 4866 
L 6044 4866 
L 6044 4241 
z
M 3853 3778 
L 4350 3778 
Q 4506 4009 4625 4241 
L 3503 4241 
Q 3681 4041 3853 3778 
z
M 263 -328 
L 100 603 
L 706 775 
L 706 2997 
L 175 2997 
L 175 3853 
L 706 3853 
L 706 5328 
L 1544 5328 
L 1544 3853 
L 1981 3853 
L 1981 2997 
L 1544 2997 
L 1544 1025 
L 2094 1197 
Q 2081 981 2081 759 
Q 2081 538 2094 309 
Q 1213 16 263 -328 
z
M 2244 2878 
L 5894 2878 
L 5894 603 
L 5038 603 
L 5038 141 
Q 5038 -91 5269 -91 
Q 5441 -91 5512 7 
Q 5584 106 5619 584 
Q 5956 428 6319 322 
Q 6284 66 6212 -223 
Q 6141 -513 5908 -652 
Q 5675 -791 5281 -791 
L 5006 -791 
Q 4238 -791 4238 -97 
L 4238 603 
L 3841 603 
Q 3647 -478 2331 -909 
Q 2125 -622 1763 -178 
Q 2781 88 2994 603 
L 2244 603 
L 2244 2878 
z
M 5094 2291 
L 3044 2291 
L 3044 2009 
L 5094 2009 
L 5094 2291 
z
M 5094 1191 
L 5094 1472 
L 3044 1472 
L 3044 1191 
L 5094 1191 
z
" transform="scale(0.015625)"/>
     <path id="MicrosoftYaHei-Bold-3a" d="M 313 2969 
Q 313 3200 491 3350 
Q 669 3500 916 3500 
Q 1166 3500 1337 3350 
Q 1509 3200 1509 2969 
Q 1509 2728 1337 2579 
Q 1166 2431 903 2431 
Q 653 2431 483 2584 
Q 313 2738 313 2969 
z
M 313 453 
Q 313 688 491 838 
Q 669 988 916 988 
Q 1166 988 1337 834 
Q 1509 681 1509 453 
Q 1509 213 1337 64 
Q 1166 -84 903 -84 
Q 659 -84 486 69 
Q 313 222 313 453 
z
" transform="scale(0.015625)"/>
     <path id="MicrosoftYaHei-Bold-7c" d="M 1500 -1622 
L 691 -1622 
L 691 5288 
L 1500 5288 
L 1500 -1622 
z
" transform="scale(0.015625)"/>
     <path id="MicrosoftYaHei-Bold-590d" d="M 5738 1528 
L 5738 1003 
Q 5091 600 4322 259 
Q 5197 78 6306 -16 
Q 6000 -428 5819 -791 
Q 4391 -569 3278 -153 
Q 2125 -559 744 -853 
Q 550 -541 275 -178 
Q 1394 3 2341 256 
Q 1872 500 1478 788 
Q 1069 416 581 116 
Q 363 391 75 691 
Q 925 1194 1459 1816 
L 844 1816 
L 844 3406 
Q 600 3128 325 2872 
Q 238 3266 94 3759 
Q 831 4484 1188 5334 
L 2063 5334 
Q 1978 5144 1888 4959 
L 6181 4959 
L 6181 4334 
L 1538 4334 
Q 1434 4172 1325 4016 
L 5738 4016 
L 5738 1816 
L 2372 1816 
Q 2272 1666 2163 1528 
L 5738 1528 
z
M 4906 3478 
L 1675 3478 
L 1675 3141 
L 4906 3141 
L 4906 3478 
z
M 4906 2353 
L 4906 2691 
L 1675 2691 
L 1675 2353 
L 4906 2353 
z
M 3269 541 
Q 3897 753 4438 1009 
L 2231 1009 
Q 2669 744 3269 541 
z
" transform="scale(0.015625)"/>
     <path id="MicrosoftYaHei-Bold-6742" d="M 5500 4203 
Q 5919 4078 6338 3978 
Q 6269 3328 6188 2984 
Q 6063 2453 5400 2453 
L 4600 2453 
Q 3900 2453 3900 3153 
L 3900 3997 
L 2781 3997 
Q 2588 2603 613 2141 
Q 419 2466 106 2884 
Q 1644 3172 1869 3997 
L 456 3997 
L 456 4753 
L 1981 4753 
Q 2006 5053 2006 5328 
L 2894 5328 
Q 2894 5084 2869 4753 
L 4800 4753 
L 4800 3459 
Q 4800 3203 5056 3203 
L 5206 3203 
Q 5394 3203 5431 3466 
Q 5469 3816 5500 4203 
z
M 188 2072 
L 2800 2072 
L 2800 2666 
L 3706 2666 
L 3706 2072 
L 6175 2072 
L 6175 1309 
L 3706 1309 
L 3706 159 
Q 3706 -684 2900 -766 
Q 2613 -797 2000 -803 
Q 1906 -334 1794 72 
Q 2200 41 2456 41 
Q 2800 41 2800 403 
L 2800 1309 
L 188 1309 
L 188 2072 
z
M 4000 597 
L 4519 1172 
Q 5425 628 6263 34 
L 5725 -634 
Q 4956 -34 4000 597 
z
M 1675 1166 
L 2263 559 
Q 1406 -84 538 -634 
Q 288 -247 63 66 
Q 963 566 1675 1166 
z
" transform="scale(0.015625)"/>
     <path id="MicrosoftYaHei-Bold-5ea6" d="M 5656 1697 
L 5656 1022 
Q 5156 447 4656 97 
Q 5344 -34 6306 -66 
Q 6119 -428 5938 -822 
Q 4556 -653 3719 -353 
Q 2825 -653 1494 -872 
Q 1338 -522 1088 -178 
Q 2100 -128 2888 78 
Q 2369 453 1938 1022 
L 1538 1022 
L 1538 1697 
L 5656 1697 
z
M 1325 2478 
Q 1338 134 700 -884 
Q 356 -553 19 -297 
Q 550 697 525 2591 
L 525 4772 
L 3013 4772 
Q 2944 4953 2831 5209 
L 3869 5359 
Q 3981 5072 4094 4772 
L 6256 4772 
L 6256 4072 
L 1325 4072 
L 1325 2478 
z
M 1463 3684 
L 2144 3684 
L 2144 3947 
L 2944 3947 
L 2944 3684 
L 4494 3684 
L 4494 3947 
L 5294 3947 
L 5294 3684 
L 6144 3684 
L 6144 3009 
L 5294 3009 
L 5294 1991 
L 2144 1991 
L 2144 3009 
L 1463 3009 
L 1463 3684 
z
M 3756 378 
Q 4325 641 4725 1022 
L 2825 1022 
Q 3225 622 3756 378 
z
M 4494 2628 
L 4494 3009 
L 2944 3009 
L 2944 2628 
L 4494 2628 
z
" transform="scale(0.015625)"/>
     <path id="MicrosoftYaHei-Bold-30" d="M 244 2341 
Q 244 3597 706 4259 
Q 1169 4922 2044 4922 
Q 3713 4922 3713 2453 
Q 3713 1238 3259 577 
Q 2806 -84 1950 -84 
Q 244 -84 244 2341 
z
M 1266 2366 
Q 1266 691 1981 691 
Q 2684 691 2684 2416 
Q 2684 4147 2000 4147 
Q 1266 4147 1266 2366 
z
" transform="scale(0.015625)"/>
     <path id="MicrosoftYaHei-Bold-2e" d="M 313 453 
Q 313 688 491 838 
Q 669 988 916 988 
Q 1166 988 1337 834 
Q 1509 681 1509 453 
Q 1509 213 1337 64 
Q 1166 -84 903 -84 
Q 659 -84 486 69 
Q 313 222 313 453 
z
" transform="scale(0.015625)"/>
     <path id="MicrosoftYaHei-Bold-37" d="M 3675 4225 
Q 3088 3172 2798 2528 
Q 2509 1884 2328 1275 
Q 2147 666 2050 0 
L 966 0 
Q 1122 947 1517 1917 
Q 1913 2888 2609 4009 
L 300 4009 
L 300 4841 
L 3675 4841 
L 3675 4225 
z
" transform="scale(0.015625)"/>
     <path id="MicrosoftYaHei-Bold-38" d="M 269 1303 
Q 269 1725 512 2053 
Q 756 2381 1219 2534 
Q 850 2719 648 3003 
Q 447 3288 447 3634 
Q 447 3997 645 4292 
Q 844 4588 1200 4755 
Q 1556 4922 1997 4922 
Q 2441 4922 2800 4758 
Q 3159 4594 3359 4298 
Q 3559 4003 3559 3647 
Q 3559 3309 3339 3018 
Q 3119 2728 2747 2559 
Q 3200 2403 3453 2076 
Q 3706 1750 3706 1313 
Q 3706 697 3228 309 
Q 2750 -78 1988 -78 
Q 1225 -78 747 309 
Q 269 697 269 1303 
z
M 1278 1394 
Q 1278 1056 1472 853 
Q 1666 650 1991 650 
Q 2303 650 2503 853 
Q 2703 1056 2703 1394 
Q 2703 1709 2500 1920 
Q 2297 2131 1991 2131 
Q 1675 2131 1476 1920 
Q 1278 1709 1278 1394 
z
M 1428 3531 
Q 1428 3266 1592 3077 
Q 1756 2888 2006 2888 
Q 2247 2888 2415 3072 
Q 2584 3256 2584 3531 
Q 2584 3806 2420 3997 
Q 2256 4188 2006 4188 
Q 1750 4188 1589 3997 
Q 1428 3806 1428 3531 
z
" transform="scale(0.015625)"/>
    </defs>
    <use xlink:href="#MicrosoftYaHei-Bold-28"/>
    <use xlink:href="#MicrosoftYaHei-Bold-73af" transform="translate(38.964844 0)"/>
    <use xlink:href="#MicrosoftYaHei-Bold-5883" transform="translate(138.964844 0)"/>
    <use xlink:href="#MicrosoftYaHei-Bold-3a" transform="translate(238.964844 0)"/>
    <use xlink:href="#MicrosoftYaHei-Bold-20" transform="translate(267.529297 0)"/>
    <use xlink:href="#MicrosoftYaHei-Bold-4f3d" transform="translate(297.314453 0)"/>
    <use xlink:href="#MicrosoftYaHei-Bold-9a6c" transform="translate(397.314453 0)"/>
    <use xlink:href="#MicrosoftYaHei-Bold-5206" transform="translate(497.314453 0)"/>
    <use xlink:href="#MicrosoftYaHei-Bold-5e03" transform="translate(597.314453 0)"/>
    <use xlink:href="#MicrosoftYaHei-Bold-28" transform="translate(697.314453 0)"/>
    <use xlink:href="#MicrosoftYaHei-Bold-5c16" transform="translate(736.279297 0)"/>
    <use xlink:href="#MicrosoftYaHei-Bold-5cf0" transform="translate(836.279297 0)"/>
    <use xlink:href="#MicrosoftYaHei-Bold-2c" transform="translate(936.279297 0)"/>
    <use xlink:href="#MicrosoftYaHei-Bold-73" transform="translate(964.84375 0)"/>
    <use xlink:href="#MicrosoftYaHei-Bold-68" transform="translate(1014.208984 0)"/>
    <use xlink:href="#MicrosoftYaHei-Bold-61" transform="translate(1078.759766 0)"/>
    <use xlink:href="#MicrosoftYaHei-Bold-70" transform="translate(1136.523438 0)"/>
    <use xlink:href="#MicrosoftYaHei-Bold-65" transform="translate(1203.125 0)"/>
    <use xlink:href="#MicrosoftYaHei-Bold-35" transform="translate(1261.328125 0)"/>
    <use xlink:href="#MicrosoftYaHei-Bold-2c" transform="translate(1322.998047 0)"/>
    <use xlink:href="#MicrosoftYaHei-Bold-73" transform="translate(1351.5625 0)"/>
    <use xlink:href="#MicrosoftYaHei-Bold-63" transform="translate(1400.927734 0)"/>
    <use xlink:href="#MicrosoftYaHei-Bold-61" transform="translate(1452.587891 0)"/>
    <use xlink:href="#MicrosoftYaHei-Bold-6c" transform="translate(1510.351562 0)"/>
    <use xlink:href="#MicrosoftYaHei-Bold-65" transform="translate(1539.941406 0)"/>
    <use xlink:href="#MicrosoftYaHei-Bold-32" transform="translate(1598.144531 0)"/>
    <use xlink:href="#MicrosoftYaHei-Bold-20" transform="translate(1659.814453 0)"/>
    <use xlink:href="#MicrosoftYaHei-Bold-7c" transform="translate(1689.599609 0)"/>
    <use xlink:href="#MicrosoftYaHei-Bold-20" transform="translate(1723.730469 0)"/>
    <use xlink:href="#MicrosoftYaHei-Bold-590d" transform="translate(1753.515625 0)"/>
    <use xlink:href="#MicrosoftYaHei-Bold-6742" transform="translate(1853.515625 0)"/>
    <use xlink:href="#MicrosoftYaHei-Bold-5ea6" transform="translate(1953.515625 0)"/>
    <use xlink:href="#MicrosoftYaHei-Bold-3a" transform="translate(2053.515625 0)"/>
    <use xlink:href="#MicrosoftYaHei-Bold-20" transform="translate(2082.080078 0)"/>
    <use xlink:href="#MicrosoftYaHei-Bold-30" transform="translate(2111.865234 0)"/>
    <use xlink:href="#MicrosoftYaHei-Bold-2e" transform="translate(2173.535156 0)"/>
    <use xlink:href="#MicrosoftYaHei-Bold-37" transform="translate(2202.099609 0)"/>
    <use xlink:href="#MicrosoftYaHei-Bold-38" transform="translate(2263.769531 0)"/>
    <use xlink:href="#MicrosoftYaHei-Bold-29" transform="translate(2325.439453 0)"/>
   </g>
  </g>
 </g>
 <defs>
  <clipPath id="pba4488c825">
   <rect x="39.801563" y="82.520625" width="809.5" height="376.905625"/>
  </clipPath>
 </defs>
</svg>
