<?xml version="1.0" encoding="utf-8" standalone="no"?>
<!DOCTYPE svg PUBLIC "-//W3C//DTD SVG 1.1//EN"
  "http://www.w3.org/Graphics/SVG/1.1/DTD/svg11.dtd">
<svg xmlns:xlink="http://www.w3.org/1999/xlink" width="856.501562pt" height="497.537187pt" viewBox="0 0 856.501562 497.537187" xmlns="http://www.w3.org/2000/svg" version="1.1">
 <metadata>
  <rdf:RDF xmlns:dc="http://purl.org/dc/elements/1.1/" xmlns:cc="http://creativecommons.org/ns#" xmlns:rdf="http://www.w3.org/1999/02/22-rdf-syntax-ns#">
   <cc:Work>
    <dc:type rdf:resource="http://purl.org/dc/dcmitype/StillImage"/>
    <dc:date>2025-07-07T17:59:17.666242</dc:date>
    <dc:format>image/svg+xml</dc:format>
    <dc:creator>
     <cc:Agent>
      <dc:title>Matplotlib v3.10.3, https://matplotlib.org/</dc:title>
     </cc:Agent>
    </dc:creator>
   </cc:Work>
  </rdf:RDF>
 </metadata>
 <defs>
  <style type="text/css">*{stroke-linejoin: round; stroke-linecap: butt}</style>
 </defs>
 <g id="figure_1">
  <g id="patch_1">
   <path d="M 0 497.537187 
L 856.501562 497.537187 
L 856.501562 0 
L 0 0 
z
" style="fill: #ffffff"/>
  </g>
  <g id="axes_1">
   <g id="patch_2">
    <path d="M 39.801563 459.473125 
L 849.301563 459.473125 
L 849.301563 82.520625 
L 39.801563 82.520625 
z
" style="fill: #ffffff"/>
   </g>
   <g id="matplotlib.axis_1">
    <g id="xtick_1">
     <g id="line2d_1">
      <path d="M 140.989062 459.473125 
L 140.989062 82.520625 
" clip-path="url(#p140200feec)" style="fill: none; stroke-dasharray: 2.96,1.28; stroke-dashoffset: 0; stroke: #cccccc; stroke-opacity: 0.6; stroke-width: 0.8"/>
     </g>
     <g id="text_1">
      <!-- Stage 1 -->
      <g style="fill: #262626" transform="translate(123.753906 473.752812) scale(0.1 -0.1)">
       <defs>
        <path id="ArialMT-53" d="M 288 1472 
L 859 1522 
Q 900 1178 1048 958 
Q 1197 738 1509 602 
Q 1822 466 2213 466 
Q 2559 466 2825 569 
Q 3091 672 3220 851 
Q 3350 1031 3350 1244 
Q 3350 1459 3225 1620 
Q 3100 1781 2813 1891 
Q 2628 1963 1997 2114 
Q 1366 2266 1113 2400 
Q 784 2572 623 2826 
Q 463 3081 463 3397 
Q 463 3744 659 4045 
Q 856 4347 1234 4503 
Q 1613 4659 2075 4659 
Q 2584 4659 2973 4495 
Q 3363 4331 3572 4012 
Q 3781 3694 3797 3291 
L 3216 3247 
Q 3169 3681 2898 3903 
Q 2628 4125 2100 4125 
Q 1550 4125 1298 3923 
Q 1047 3722 1047 3438 
Q 1047 3191 1225 3031 
Q 1400 2872 2139 2705 
Q 2878 2538 3153 2413 
Q 3553 2228 3743 1945 
Q 3934 1663 3934 1294 
Q 3934 928 3725 604 
Q 3516 281 3123 101 
Q 2731 -78 2241 -78 
Q 1619 -78 1198 103 
Q 778 284 539 648 
Q 300 1013 288 1472 
z
" transform="scale(0.015625)"/>
        <path id="ArialMT-74" d="M 1650 503 
L 1731 6 
Q 1494 -44 1306 -44 
Q 1000 -44 831 53 
Q 663 150 594 308 
Q 525 466 525 972 
L 525 2881 
L 113 2881 
L 113 3319 
L 525 3319 
L 525 4141 
L 1084 4478 
L 1084 3319 
L 1650 3319 
L 1650 2881 
L 1084 2881 
L 1084 941 
Q 1084 700 1114 631 
Q 1144 563 1211 522 
Q 1278 481 1403 481 
Q 1497 481 1650 503 
z
" transform="scale(0.015625)"/>
        <path id="ArialMT-61" d="M 2588 409 
Q 2275 144 1986 34 
Q 1697 -75 1366 -75 
Q 819 -75 525 192 
Q 231 459 231 875 
Q 231 1119 342 1320 
Q 453 1522 633 1644 
Q 813 1766 1038 1828 
Q 1203 1872 1538 1913 
Q 2219 1994 2541 2106 
Q 2544 2222 2544 2253 
Q 2544 2597 2384 2738 
Q 2169 2928 1744 2928 
Q 1347 2928 1158 2789 
Q 969 2650 878 2297 
L 328 2372 
Q 403 2725 575 2942 
Q 747 3159 1072 3276 
Q 1397 3394 1825 3394 
Q 2250 3394 2515 3294 
Q 2781 3194 2906 3042 
Q 3031 2891 3081 2659 
Q 3109 2516 3109 2141 
L 3109 1391 
Q 3109 606 3145 398 
Q 3181 191 3288 0 
L 2700 0 
Q 2613 175 2588 409 
z
M 2541 1666 
Q 2234 1541 1622 1453 
Q 1275 1403 1131 1340 
Q 988 1278 909 1158 
Q 831 1038 831 891 
Q 831 666 1001 516 
Q 1172 366 1500 366 
Q 1825 366 2078 508 
Q 2331 650 2450 897 
Q 2541 1088 2541 1459 
L 2541 1666 
z
" transform="scale(0.015625)"/>
        <path id="ArialMT-67" d="M 319 -275 
L 866 -356 
Q 900 -609 1056 -725 
Q 1266 -881 1628 -881 
Q 2019 -881 2231 -725 
Q 2444 -569 2519 -288 
Q 2563 -116 2559 434 
Q 2191 0 1641 0 
Q 956 0 581 494 
Q 206 988 206 1678 
Q 206 2153 378 2554 
Q 550 2956 876 3175 
Q 1203 3394 1644 3394 
Q 2231 3394 2613 2919 
L 2613 3319 
L 3131 3319 
L 3131 450 
Q 3131 -325 2973 -648 
Q 2816 -972 2473 -1159 
Q 2131 -1347 1631 -1347 
Q 1038 -1347 672 -1080 
Q 306 -813 319 -275 
z
M 784 1719 
Q 784 1066 1043 766 
Q 1303 466 1694 466 
Q 2081 466 2343 764 
Q 2606 1063 2606 1700 
Q 2606 2309 2336 2618 
Q 2066 2928 1684 2928 
Q 1309 2928 1046 2623 
Q 784 2319 784 1719 
z
" transform="scale(0.015625)"/>
        <path id="ArialMT-65" d="M 2694 1069 
L 3275 997 
Q 3138 488 2766 206 
Q 2394 -75 1816 -75 
Q 1088 -75 661 373 
Q 234 822 234 1631 
Q 234 2469 665 2931 
Q 1097 3394 1784 3394 
Q 2450 3394 2872 2941 
Q 3294 2488 3294 1666 
Q 3294 1616 3291 1516 
L 816 1516 
Q 847 969 1125 678 
Q 1403 388 1819 388 
Q 2128 388 2347 550 
Q 2566 713 2694 1069 
z
M 847 1978 
L 2700 1978 
Q 2663 2397 2488 2606 
Q 2219 2931 1791 2931 
Q 1403 2931 1139 2672 
Q 875 2413 847 1978 
z
" transform="scale(0.015625)"/>
        <path id="ArialMT-20" transform="scale(0.015625)"/>
        <path id="ArialMT-31" d="M 2384 0 
L 1822 0 
L 1822 3584 
Q 1619 3391 1289 3197 
Q 959 3003 697 2906 
L 697 3450 
Q 1169 3672 1522 3987 
Q 1875 4303 2022 4600 
L 2384 4600 
L 2384 0 
z
" transform="scale(0.015625)"/>
       </defs>
       <use xlink:href="#ArialMT-53"/>
       <use xlink:href="#ArialMT-74" transform="translate(66.699219 0)"/>
       <use xlink:href="#ArialMT-61" transform="translate(94.482422 0)"/>
       <use xlink:href="#ArialMT-67" transform="translate(150.097656 0)"/>
       <use xlink:href="#ArialMT-65" transform="translate(205.712891 0)"/>
       <use xlink:href="#ArialMT-20" transform="translate(261.328125 0)"/>
       <use xlink:href="#ArialMT-31" transform="translate(289.111328 0)"/>
      </g>
     </g>
    </g>
    <g id="xtick_2">
     <g id="line2d_2">
      <path d="M 343.364062 459.473125 
L 343.364062 82.520625 
" clip-path="url(#p140200feec)" style="fill: none; stroke-dasharray: 2.96,1.28; stroke-dashoffset: 0; stroke: #cccccc; stroke-opacity: 0.6; stroke-width: 0.8"/>
     </g>
     <g id="text_2">
      <!-- Stage 2 -->
      <g style="fill: #262626" transform="translate(326.128906 473.752812) scale(0.1 -0.1)">
       <defs>
        <path id="ArialMT-32" d="M 3222 541 
L 3222 0 
L 194 0 
Q 188 203 259 391 
Q 375 700 629 1000 
Q 884 1300 1366 1694 
Q 2113 2306 2375 2664 
Q 2638 3022 2638 3341 
Q 2638 3675 2398 3904 
Q 2159 4134 1775 4134 
Q 1369 4134 1125 3890 
Q 881 3647 878 3216 
L 300 3275 
Q 359 3922 746 4261 
Q 1134 4600 1788 4600 
Q 2447 4600 2831 4234 
Q 3216 3869 3216 3328 
Q 3216 3053 3103 2787 
Q 2991 2522 2730 2228 
Q 2469 1934 1863 1422 
Q 1356 997 1212 845 
Q 1069 694 975 541 
L 3222 541 
z
" transform="scale(0.015625)"/>
       </defs>
       <use xlink:href="#ArialMT-53"/>
       <use xlink:href="#ArialMT-74" transform="translate(66.699219 0)"/>
       <use xlink:href="#ArialMT-61" transform="translate(94.482422 0)"/>
       <use xlink:href="#ArialMT-67" transform="translate(150.097656 0)"/>
       <use xlink:href="#ArialMT-65" transform="translate(205.712891 0)"/>
       <use xlink:href="#ArialMT-20" transform="translate(261.328125 0)"/>
       <use xlink:href="#ArialMT-32" transform="translate(289.111328 0)"/>
      </g>
     </g>
    </g>
    <g id="xtick_3">
     <g id="line2d_3">
      <path d="M 545.739063 459.473125 
L 545.739063 82.520625 
" clip-path="url(#p140200feec)" style="fill: none; stroke-dasharray: 2.96,1.28; stroke-dashoffset: 0; stroke: #cccccc; stroke-opacity: 0.6; stroke-width: 0.8"/>
     </g>
     <g id="text_3">
      <!-- Stage 3 -->
      <g style="fill: #262626" transform="translate(528.503906 473.752812) scale(0.1 -0.1)">
       <defs>
        <path id="ArialMT-33" d="M 269 1209 
L 831 1284 
Q 928 806 1161 595 
Q 1394 384 1728 384 
Q 2125 384 2398 659 
Q 2672 934 2672 1341 
Q 2672 1728 2419 1979 
Q 2166 2231 1775 2231 
Q 1616 2231 1378 2169 
L 1441 2663 
Q 1497 2656 1531 2656 
Q 1891 2656 2178 2843 
Q 2466 3031 2466 3422 
Q 2466 3731 2256 3934 
Q 2047 4138 1716 4138 
Q 1388 4138 1169 3931 
Q 950 3725 888 3313 
L 325 3413 
Q 428 3978 793 4289 
Q 1159 4600 1703 4600 
Q 2078 4600 2393 4439 
Q 2709 4278 2876 4000 
Q 3044 3722 3044 3409 
Q 3044 3113 2884 2869 
Q 2725 2625 2413 2481 
Q 2819 2388 3044 2092 
Q 3269 1797 3269 1353 
Q 3269 753 2831 336 
Q 2394 -81 1725 -81 
Q 1122 -81 723 278 
Q 325 638 269 1209 
z
" transform="scale(0.015625)"/>
       </defs>
       <use xlink:href="#ArialMT-53"/>
       <use xlink:href="#ArialMT-74" transform="translate(66.699219 0)"/>
       <use xlink:href="#ArialMT-61" transform="translate(94.482422 0)"/>
       <use xlink:href="#ArialMT-67" transform="translate(150.097656 0)"/>
       <use xlink:href="#ArialMT-65" transform="translate(205.712891 0)"/>
       <use xlink:href="#ArialMT-20" transform="translate(261.328125 0)"/>
       <use xlink:href="#ArialMT-33" transform="translate(289.111328 0)"/>
      </g>
     </g>
    </g>
    <g id="xtick_4">
     <g id="line2d_4">
      <path d="M 748.114063 459.473125 
L 748.114063 82.520625 
" clip-path="url(#p140200feec)" style="fill: none; stroke-dasharray: 2.96,1.28; stroke-dashoffset: 0; stroke: #cccccc; stroke-opacity: 0.6; stroke-width: 0.8"/>
     </g>
     <g id="text_4">
      <!-- Stage 4 -->
      <g style="fill: #262626" transform="translate(730.878906 473.752812) scale(0.1 -0.1)">
       <defs>
        <path id="ArialMT-34" d="M 2069 0 
L 2069 1097 
L 81 1097 
L 81 1613 
L 2172 4581 
L 2631 4581 
L 2631 1613 
L 3250 1613 
L 3250 1097 
L 2631 1097 
L 2631 0 
L 2069 0 
z
M 2069 1613 
L 2069 3678 
L 634 1613 
L 2069 1613 
z
" transform="scale(0.015625)"/>
       </defs>
       <use xlink:href="#ArialMT-53"/>
       <use xlink:href="#ArialMT-74" transform="translate(66.699219 0)"/>
       <use xlink:href="#ArialMT-61" transform="translate(94.482422 0)"/>
       <use xlink:href="#ArialMT-67" transform="translate(150.097656 0)"/>
       <use xlink:href="#ArialMT-65" transform="translate(205.712891 0)"/>
       <use xlink:href="#ArialMT-20" transform="translate(261.328125 0)"/>
       <use xlink:href="#ArialMT-34" transform="translate(289.111328 0)"/>
      </g>
     </g>
    </g>
    <g id="text_5">
     <!-- 训练阶段 -->
     <g style="fill: #262626" transform="translate(424.551562 487.85125) scale(0.1 -0.1)">
      <defs>
       <path id="MicrosoftYaHei-8bad" d="M 2581 5178 
L 3056 5178 
L 3056 2722 
Q 3056 1272 2831 466 
Q 2613 -297 1981 -872 
Q 1769 -678 1550 -534 
Q 2156 -66 2375 647 
Q 2581 1353 2581 2678 
L 2581 5178 
z
M 5506 5184 
L 5981 5184 
L 5981 -772 
L 5506 -772 
L 5506 5184 
z
M 4038 4953 
L 4513 4953 
L 4513 -403 
L 4038 -403 
L 4038 4953 
z
M 2025 1372 
Q 2025 1059 2069 784 
Q 1438 247 913 -284 
L 625 116 
Q 838 316 838 691 
L 838 2803 
L 81 2803 
L 81 3253 
L 1313 3253 
L 1313 709 
Q 1650 1009 2025 1372 
z
M 875 5191 
Q 1438 4628 1850 4166 
L 1413 3797 
Q 1031 4303 500 4872 
L 875 5191 
z
" transform="scale(0.015625)"/>
       <path id="MicrosoftYaHei-7ec3" d="M 2363 3403 
L 3059 3403 
Q 3203 3781 3344 4197 
L 2213 4197 
L 2213 4622 
L 3488 4622 
Q 3603 4975 3719 5353 
L 4219 5253 
Q 4109 4931 4000 4622 
L 6000 4622 
L 6000 4197 
L 3847 4197 
Q 3700 3791 3553 3403 
L 4763 3403 
L 4763 2016 
L 6025 2016 
L 6025 1591 
L 4763 1591 
L 4763 3 
Q 4763 -734 4056 -734 
Q 3788 -734 3369 -728 
Q 3331 -516 3263 -241 
Q 3638 -284 3931 -284 
Q 4300 -284 4300 109 
L 4300 1591 
L 2475 1591 
L 2475 1997 
Q 2688 2450 2897 2978 
L 2363 2978 
L 2363 3403 
z
M 888 1566 
Q 1531 1659 2219 1778 
Q 2181 1547 2163 1297 
Q 1600 1216 319 1003 
L 219 1472 
Q 669 1969 1175 2794 
Q 666 2763 219 2722 
L 100 3147 
Q 700 3966 1294 5366 
L 1750 5178 
Q 1088 3878 644 3184 
Q 1078 3194 1419 3203 
Q 1669 3638 1931 4147 
L 2388 3916 
Q 1656 2659 888 1566 
z
M 3013 2016 
L 4300 2016 
L 4300 2978 
L 3394 2978 
Q 3203 2484 3013 2016 
z
M 94 122 
Q 1031 291 2219 559 
Q 2200 316 2206 78 
Q 1231 -103 219 -353 
L 94 122 
z
M 3194 1272 
L 3638 1066 
Q 3194 203 2700 -547 
Q 2500 -397 2275 -278 
Q 2813 459 3194 1272 
z
M 5094 1041 
L 5500 1278 
Q 5963 578 6381 -122 
L 5950 -391 
Q 5544 366 5094 1041 
z
" transform="scale(0.015625)"/>
       <path id="MicrosoftYaHei-9636" d="M 2213 1816 
Q 2388 616 1644 484 
Q 1406 441 1031 478 
Q 981 734 913 991 
Q 1206 916 1475 941 
Q 1894 991 1744 1797 
Q 1669 2222 1188 2853 
Q 1419 3616 1688 4578 
L 863 4578 
L 863 -853 
L 400 -853 
L 400 5016 
L 2194 5016 
L 2194 4578 
Q 1906 3672 1663 2934 
Q 2144 2284 2213 1816 
z
M 3469 2834 
L 3469 1841 
Q 3469 78 2450 -897 
Q 2269 -734 2031 -572 
Q 2994 297 2994 1859 
L 2994 2834 
L 3469 2834 
z
M 4806 2834 
L 5281 2834 
L 5281 -822 
L 4806 -822 
L 4806 2834 
z
M 4475 5278 
L 4388 5078 
Q 5169 3653 6338 3134 
Q 6175 2947 5994 2697 
Q 4856 3384 4144 4634 
Q 3494 3472 2356 2609 
Q 2206 2828 2031 3003 
Q 3244 3809 3981 5278 
L 4475 5278 
z
" transform="scale(0.015625)"/>
       <path id="MicrosoftYaHei-6bb5" d="M 2844 1978 
L 2844 2422 
L 5763 2422 
L 5763 1953 
Q 5397 1069 4731 416 
Q 5378 -63 6338 -266 
Q 6144 -516 6019 -747 
Q 5031 -456 4359 88 
Q 3638 -488 2631 -853 
Q 2450 -559 2331 -422 
Q 3313 -75 3997 428 
Q 3400 1069 3138 1978 
L 2844 1978 
z
M 88 722 
Q 325 744 569 769 
L 569 4897 
Q 1931 4972 2719 5116 
L 2888 4653 
Q 2175 4559 1031 4484 
L 1031 3616 
L 2613 3616 
L 2613 3203 
L 1031 3203 
L 1031 2259 
L 2594 2259 
L 2594 1847 
L 1031 1847 
L 1031 819 
Q 1891 916 2838 1041 
Q 2831 916 2831 591 
Q 1894 484 1031 366 
L 1031 -816 
L 569 -816 
L 569 303 
Q 381 275 200 247 
L 88 722 
z
M 5738 3209 
Q 5981 3209 6306 3228 
L 6219 2759 
Q 5906 2747 5625 2747 
Q 4988 2747 4988 3459 
L 4988 4553 
L 3831 4553 
L 3831 4216 
Q 3831 3053 2938 2522 
Q 2781 2709 2600 2909 
Q 3363 3272 3363 4241 
L 3363 4997 
L 5456 4997 
L 5456 3497 
Q 5456 3209 5738 3209 
z
M 5256 1978 
L 3613 1978 
Q 3863 1241 4363 731 
Q 4956 1275 5256 1978 
z
" transform="scale(0.015625)"/>
      </defs>
      <use xlink:href="#MicrosoftYaHei-8bad"/>
      <use xlink:href="#MicrosoftYaHei-7ec3" transform="translate(100 0)"/>
      <use xlink:href="#MicrosoftYaHei-9636" transform="translate(200 0)"/>
      <use xlink:href="#MicrosoftYaHei-6bb5" transform="translate(300 0)"/>
     </g>
    </g>
   </g>
   <g id="matplotlib.axis_2">
    <g id="ytick_1">
     <g id="line2d_5">
      <path d="M 39.801563 409.768659 
L 849.301563 409.768659 
" clip-path="url(#p140200feec)" style="fill: none; stroke-dasharray: 2.96,1.28; stroke-dashoffset: 0; stroke: #cccccc; stroke-opacity: 0.6; stroke-width: 0.8"/>
     </g>
     <g id="text_6">
      <!-- 15 -->
      <g style="fill: #262626" transform="translate(21.679688 413.347565) scale(0.1 -0.1)">
       <defs>
        <path id="ArialMT-35" d="M 266 1200 
L 856 1250 
Q 922 819 1161 601 
Q 1400 384 1738 384 
Q 2144 384 2425 690 
Q 2706 997 2706 1503 
Q 2706 1984 2436 2262 
Q 2166 2541 1728 2541 
Q 1456 2541 1237 2417 
Q 1019 2294 894 2097 
L 366 2166 
L 809 4519 
L 3088 4519 
L 3088 3981 
L 1259 3981 
L 1013 2750 
Q 1425 3038 1878 3038 
Q 2478 3038 2890 2622 
Q 3303 2206 3303 1553 
Q 3303 931 2941 478 
Q 2500 -78 1738 -78 
Q 1113 -78 717 272 
Q 322 622 266 1200 
z
" transform="scale(0.015625)"/>
       </defs>
       <use xlink:href="#ArialMT-31"/>
       <use xlink:href="#ArialMT-35" transform="translate(55.615234 0)"/>
      </g>
     </g>
    </g>
    <g id="ytick_2">
     <g id="line2d_6">
      <path d="M 39.801563 351.461187 
L 849.301563 351.461187 
" clip-path="url(#p140200feec)" style="fill: none; stroke-dasharray: 2.96,1.28; stroke-dashoffset: 0; stroke: #cccccc; stroke-opacity: 0.6; stroke-width: 0.8"/>
     </g>
     <g id="text_7">
      <!-- 20 -->
      <g style="fill: #262626" transform="translate(21.679688 355.040093) scale(0.1 -0.1)">
       <defs>
        <path id="ArialMT-30" d="M 266 2259 
Q 266 3072 433 3567 
Q 600 4063 929 4331 
Q 1259 4600 1759 4600 
Q 2128 4600 2406 4451 
Q 2684 4303 2865 4023 
Q 3047 3744 3150 3342 
Q 3253 2941 3253 2259 
Q 3253 1453 3087 958 
Q 2922 463 2592 192 
Q 2263 -78 1759 -78 
Q 1097 -78 719 397 
Q 266 969 266 2259 
z
M 844 2259 
Q 844 1131 1108 757 
Q 1372 384 1759 384 
Q 2147 384 2411 759 
Q 2675 1134 2675 2259 
Q 2675 3391 2411 3762 
Q 2147 4134 1753 4134 
Q 1366 4134 1134 3806 
Q 844 3388 844 2259 
z
" transform="scale(0.015625)"/>
       </defs>
       <use xlink:href="#ArialMT-32"/>
       <use xlink:href="#ArialMT-30" transform="translate(55.615234 0)"/>
      </g>
     </g>
    </g>
    <g id="ytick_3">
     <g id="line2d_7">
      <path d="M 39.801563 293.153714 
L 849.301563 293.153714 
" clip-path="url(#p140200feec)" style="fill: none; stroke-dasharray: 2.96,1.28; stroke-dashoffset: 0; stroke: #cccccc; stroke-opacity: 0.6; stroke-width: 0.8"/>
     </g>
     <g id="text_8">
      <!-- 25 -->
      <g style="fill: #262626" transform="translate(21.679688 296.732621) scale(0.1 -0.1)">
       <use xlink:href="#ArialMT-32"/>
       <use xlink:href="#ArialMT-35" transform="translate(55.615234 0)"/>
      </g>
     </g>
    </g>
    <g id="ytick_4">
     <g id="line2d_8">
      <path d="M 39.801563 234.846242 
L 849.301563 234.846242 
" clip-path="url(#p140200feec)" style="fill: none; stroke-dasharray: 2.96,1.28; stroke-dashoffset: 0; stroke: #cccccc; stroke-opacity: 0.6; stroke-width: 0.8"/>
     </g>
     <g id="text_9">
      <!-- 30 -->
      <g style="fill: #262626" transform="translate(21.679688 238.425149) scale(0.1 -0.1)">
       <use xlink:href="#ArialMT-33"/>
       <use xlink:href="#ArialMT-30" transform="translate(55.615234 0)"/>
      </g>
     </g>
    </g>
    <g id="ytick_5">
     <g id="line2d_9">
      <path d="M 39.801563 176.53877 
L 849.301563 176.53877 
" clip-path="url(#p140200feec)" style="fill: none; stroke-dasharray: 2.96,1.28; stroke-dashoffset: 0; stroke: #cccccc; stroke-opacity: 0.6; stroke-width: 0.8"/>
     </g>
     <g id="text_10">
      <!-- 35 -->
      <g style="fill: #262626" transform="translate(21.679688 180.117676) scale(0.1 -0.1)">
       <use xlink:href="#ArialMT-33"/>
       <use xlink:href="#ArialMT-35" transform="translate(55.615234 0)"/>
      </g>
     </g>
    </g>
    <g id="ytick_6">
     <g id="line2d_10">
      <path d="M 39.801563 118.231298 
L 849.301563 118.231298 
" clip-path="url(#p140200feec)" style="fill: none; stroke-dasharray: 2.96,1.28; stroke-dashoffset: 0; stroke: #cccccc; stroke-opacity: 0.6; stroke-width: 0.8"/>
     </g>
     <g id="text_11">
      <!-- 40 -->
      <g style="fill: #262626" transform="translate(21.679688 121.810204) scale(0.1 -0.1)">
       <use xlink:href="#ArialMT-34"/>
       <use xlink:href="#ArialMT-30" transform="translate(55.615234 0)"/>
      </g>
     </g>
    </g>
    <g id="text_12">
     <!-- 奖励 -->
     <g style="fill: #262626" transform="translate(15.19375 280.996875) rotate(-90) scale(0.1 -0.1)">
      <defs>
       <path id="MicrosoftYaHei-5956" d="M 6306 -284 
Q 6119 -528 5944 -803 
Q 4031 -491 3197 859 
Q 2550 -472 406 -878 
Q 281 -666 100 -403 
Q 2175 -84 2709 972 
L 225 972 
L 225 1403 
L 2900 1403 
Q 2969 1600 3019 1822 
L 3531 1822 
Q 3484 1603 3422 1403 
L 6200 1403 
L 6200 972 
L 3647 972 
Q 4472 -169 6306 -284 
z
M 2388 3553 
Q 3181 4228 3588 5334 
L 4056 5241 
Q 3941 4938 3803 4666 
L 5988 4666 
L 5988 4278 
Q 5181 2359 2788 1853 
Q 2706 2072 2531 2316 
Q 3434 2463 4094 2831 
Q 3688 3222 3288 3516 
L 3588 3822 
Q 4056 3481 4491 3084 
Q 5116 3550 5463 4266 
L 3588 4266 
Q 3228 3666 2763 3234 
Q 2588 3428 2388 3553 
z
M 1744 5291 
L 2231 5291 
L 2231 1728 
L 1744 1728 
L 1744 2925 
Q 1231 2694 256 2253 
L 94 2747 
Q 991 3088 1744 3425 
L 1744 5291 
z
M 281 4584 
L 588 4891 
Q 1088 4503 1513 4072 
L 1169 3741 
Q 700 4253 281 4584 
z
" transform="scale(0.015625)"/>
       <path id="MicrosoftYaHei-52b1" d="M 3756 3997 
L 4303 3997 
Q 4316 4669 4319 5297 
L 4775 5297 
Q 4763 4559 4750 3997 
L 6031 3997 
Q 5963 1203 5925 278 
Q 5888 -678 5169 -678 
Q 4969 -678 4444 -666 
Q 4406 -378 4350 -134 
Q 4856 -178 5081 -178 
Q 5425 -178 5456 272 
Q 5513 1266 5563 3528 
L 4741 3528 
Q 4731 3028 4725 2716 
Q 4688 334 3600 -859 
Q 3469 -666 3281 -447 
Q 4238 634 4275 2634 
Q 4288 3091 4297 3528 
L 3756 3528 
L 3756 3997 
z
M 1225 3728 
L 3563 3728 
L 3563 3291 
L 2194 3291 
Q 2184 2784 2172 2372 
L 3375 2372 
Q 3319 766 3275 91 
Q 3206 -628 2581 -628 
Q 2406 -628 2050 -622 
Q 2013 -416 1956 -159 
Q 2306 -197 2475 -197 
Q 2819 -203 2850 216 
Q 2894 797 2931 1959 
L 2153 1959 
Q 2125 1378 2081 1034 
Q 1969 -3 1300 -828 
Q 1175 -659 981 -453 
Q 1531 209 1644 1097 
Q 1728 1641 1756 3291 
L 1225 3291 
L 1225 3728 
z
M 1044 4472 
L 1044 2166 
Q 1044 147 475 -809 
Q 306 -647 94 -478 
Q 588 341 588 2184 
L 588 4909 
L 3663 4909 
L 3663 4472 
L 1044 4472 
z
" transform="scale(0.015625)"/>
      </defs>
      <use xlink:href="#MicrosoftYaHei-5956"/>
      <use xlink:href="#MicrosoftYaHei-52b1" transform="translate(100 0)"/>
     </g>
    </g>
   </g>
   <g id="FillBetweenPolyCollection_1">
    <defs>
     <path id="mf53de7246a" d="M 141.703745 -68.573211 
L 140.27438 -68.573211 
L 139.943083 -71.375749 
L 139.506411 -74.178287 
L 138.95236 -76.980825 
L 138.275757 -79.783363 
L 137.480629 -82.585901 
L 136.58158 -85.388439 
L 135.603656 -88.190977 
L 134.580439 -90.993516 
L 133.550458 -93.796054 
L 132.552384 -96.598592 
L 131.619749 -99.40113 
L 130.776062 -102.203668 
L 130.031097 -105.006206 
L 129.37891 -107.808744 
L 128.797808 -110.611282 
L 128.252179 -113.41382 
L 127.695881 -116.216358 
L 127.076711 -119.018897 
L 126.341468 -121.821435 
L 125.4411 -124.623973 
L 124.335439 -127.426511 
L 122.997045 -130.229049 
L 121.413721 -133.031587 
L 119.589318 -135.834125 
L 117.54267 -138.636663 
L 115.304764 -141.439201 
L 112.914559 -144.241739 
L 110.414216 -147.044278 
L 107.844611 -149.846816 
L 105.241973 -152.649354 
L 102.636205 -155.451892 
L 100.050982 -158.25443 
L 97.505257 -161.056968 
L 95.015442 -163.859506 
L 92.597396 -166.662044 
L 90.267511 -169.464582 
L 88.042523 -172.26712 
L 85.938173 -175.069659 
L 83.96724 -177.872197 
L 82.137742 -180.674735 
L 80.452114 -183.477273 
L 78.90794 -186.279811 
L 77.500406 -189.082349 
L 76.226072 -191.884887 
L 75.087101 -194.687425 
L 74.094719 -197.489963 
L 73.27066 -200.292501 
L 72.645663 -203.09504 
L 72.25476 -205.897578 
L 72.129938 -208.700116 
L 72.291617 -211.502654 
L 72.740923 -214.305192 
L 73.454856 -217.10773 
L 74.385975 -219.910268 
L 75.467324 -222.712806 
L 76.622131 -225.515344 
L 77.776694 -228.317882 
L 78.874018 -231.120421 
L 79.885425 -233.922959 
L 80.817618 -236.725497 
L 81.713432 -239.528035 
L 82.645754 -242.330573 
L 83.705441 -245.133111 
L 84.985397 -247.935649 
L 86.563837 -250.738187 
L 88.49002 -253.540725 
L 90.77525 -256.343263 
L 93.390741 -259.145802 
L 96.272486 -261.94834 
L 99.331714 -264.750878 
L 102.468503 -267.553416 
L 105.58566 -270.355954 
L 108.600334 -273.158492 
L 111.451602 -275.96103 
L 114.103399 -278.763568 
L 116.543151 -281.566106 
L 118.777249 -284.368644 
L 120.824806 -287.171183 
L 122.711165 -289.973721 
L 124.462287 -292.776259 
L 126.100739 -295.578797 
L 127.643469 -298.381335 
L 129.10123 -301.183873 
L 130.479197 -303.986411 
L 131.778259 -306.788949 
L 132.996486 -309.591487 
L 134.130451 -312.394025 
L 135.176234 -315.196564 
L 136.130127 -317.999102 
L 136.989122 -320.80164 
L 137.751317 -323.604178 
L 138.416288 -326.406716 
L 138.985441 -329.209254 
L 139.462271 -332.011792 
L 139.852441 -334.81433 
L 140.163624 -337.616868 
L 140.405085 -340.419406 
L 140.587075 -343.221945 
L 140.720123 -346.024483 
L 141.258002 -346.024483 
L 141.258002 -346.024483 
L 141.39105 -343.221945 
L 141.57304 -340.419406 
L 141.814501 -337.616868 
L 142.125684 -334.81433 
L 142.515854 -332.011792 
L 142.992684 -329.209254 
L 143.561837 -326.406716 
L 144.226808 -323.604178 
L 144.989003 -320.80164 
L 145.847998 -317.999102 
L 146.801891 -315.196564 
L 147.847674 -312.394025 
L 148.981639 -309.591487 
L 150.199866 -306.788949 
L 151.498928 -303.986411 
L 152.876895 -301.183873 
L 154.334656 -298.381335 
L 155.877386 -295.578797 
L 157.515838 -292.776259 
L 159.26696 -289.973721 
L 161.153319 -287.171183 
L 163.200876 -284.368644 
L 165.434974 -281.566106 
L 167.874726 -278.763568 
L 170.526523 -275.96103 
L 173.377791 -273.158492 
L 176.392465 -270.355954 
L 179.509622 -267.553416 
L 182.646411 -264.750878 
L 185.705639 -261.94834 
L 188.587384 -259.145802 
L 191.202875 -256.343263 
L 193.488105 -253.540725 
L 195.414288 -250.738187 
L 196.992728 -247.935649 
L 198.272684 -245.133111 
L 199.332371 -242.330573 
L 200.264693 -239.528035 
L 201.160507 -236.725497 
L 202.0927 -233.922959 
L 203.104107 -231.120421 
L 204.201431 -228.317882 
L 205.355994 -225.515344 
L 206.510801 -222.712806 
L 207.59215 -219.910268 
L 208.523269 -217.10773 
L 209.237202 -214.305192 
L 209.686508 -211.502654 
L 209.848187 -208.700116 
L 209.723365 -205.897578 
L 209.332462 -203.09504 
L 208.707465 -200.292501 
L 207.883406 -197.489963 
L 206.891024 -194.687425 
L 205.752053 -191.884887 
L 204.477719 -189.082349 
L 203.070185 -186.279811 
L 201.526011 -183.477273 
L 199.840383 -180.674735 
L 198.010885 -177.872197 
L 196.039952 -175.069659 
L 193.935602 -172.26712 
L 191.710614 -169.464582 
L 189.380729 -166.662044 
L 186.962683 -163.859506 
L 184.472868 -161.056968 
L 181.927143 -158.25443 
L 179.34192 -155.451892 
L 176.736152 -152.649354 
L 174.133514 -149.846816 
L 171.563909 -147.044278 
L 169.063566 -144.241739 
L 166.673361 -141.439201 
L 164.435455 -138.636663 
L 162.388807 -135.834125 
L 160.564404 -133.031587 
L 158.98108 -130.229049 
L 157.642686 -127.426511 
L 156.537025 -124.623973 
L 155.636657 -121.821435 
L 154.901414 -119.018897 
L 154.282244 -116.216358 
L 153.725946 -113.41382 
L 153.180317 -110.611282 
L 152.599215 -107.808744 
L 151.947028 -105.006206 
L 151.202063 -102.203668 
L 150.358376 -99.40113 
L 149.425741 -96.598592 
L 148.427667 -93.796054 
L 147.397686 -90.993516 
L 146.374469 -88.190977 
L 145.396545 -85.388439 
L 144.497496 -82.585901 
L 143.702368 -79.783363 
L 143.025765 -76.980825 
L 142.471714 -74.178287 
L 142.035042 -71.375749 
L 141.703745 -68.573211 
z
" style="stroke: #3f3f3f; stroke-width: 1.25"/>
    </defs>
    <g clip-path="url(#p140200feec)">
     <use xlink:href="#mf53de7246a" x="0" y="497.537187" style="fill: #3274a1; stroke: #3f3f3f; stroke-width: 1.25"/>
    </g>
   </g>
   <g id="FillBetweenPolyCollection_2">
    <defs>
     <path id="m0de0a40a3c" d="M 343.494035 -71.482307 
L 343.23409 -71.482307 
L 343.159889 -74.48522 
L 343.056549 -77.488132 
L 342.918888 -80.491045 
L 342.742652 -83.493958 
L 342.524374 -86.496871 
L 342.260539 -89.499784 
L 341.946178 -92.502696 
L 341.573338 -95.505609 
L 341.130083 -98.508522 
L 340.600643 -101.511435 
L 339.966884 -104.514348 
L 339.210607 -107.51726 
L 338.315584 -110.520173 
L 337.268095 -113.523086 
L 336.055258 -116.525999 
L 334.661581 -119.528912 
L 333.065456 -122.531824 
L 331.238108 -125.534737 
L 329.147212 -128.53765 
L 326.765954 -131.540563 
L 324.086054 -134.543476 
L 321.131207 -137.546388 
L 317.966243 -140.549301 
L 314.697779 -143.552214 
L 311.46393 -146.555127 
L 308.413384 -149.55804 
L 305.676998 -152.560953 
L 303.337468 -155.563865 
L 301.404201 -158.566778 
L 299.800726 -161.569691 
L 298.370461 -164.572604 
L 296.902907 -167.575517 
L 295.176812 -170.578429 
L 293.011052 -173.581342 
L 290.309996 -176.584255 
L 287.090312 -179.587168 
L 283.480836 -182.590081 
L 279.695139 -185.592993 
L 275.984613 -188.595906 
L 272.585305 -191.598819 
L 269.672644 -194.601732 
L 267.334838 -197.604645 
L 265.569957 -200.607557 
L 264.305458 -203.61047 
L 263.433809 -206.613383 
L 262.854459 -209.616296 
L 262.511088 -212.619209 
L 262.414062 -215.622121 
L 262.641616 -218.625034 
L 263.318973 -221.627947 
L 264.581126 -224.63086 
L 266.530095 -227.633773 
L 269.1992 -230.636685 
L 272.534549 -233.639598 
L 276.398322 -236.642511 
L 280.591906 -239.645424 
L 284.891789 -242.648337 
L 289.088653 -245.651249 
L 293.020604 -248.654162 
L 296.593871 -251.657075 
L 299.787755 -254.659988 
L 302.644184 -257.662901 
L 305.245547 -260.665813 
L 307.686978 -263.668726 
L 310.050311 -266.671639 
L 312.386102 -269.674552 
L 314.707424 -272.677465 
L 316.995358 -275.680377 
L 319.212693 -278.68329 
L 321.320321 -281.686203 
L 323.29094 -284.689116 
L 325.116543 -287.692029 
L 326.808691 -290.694941 
L 328.392943 -293.697854 
L 329.900076 -296.700767 
L 331.356989 -299.70368 
L 332.779588 -302.706593 
L 334.169037 -305.709505 
L 335.511772 -308.712418 
L 336.782861 -311.715331 
L 337.951668 -314.718244 
L 338.988465 -317.721157 
L 339.870567 -320.724069 
L 340.586849 -323.726982 
L 341.13988 -326.729895 
L 341.545486 -329.732808 
L 341.82997 -332.735721 
L 342.025656 -335.738633 
L 342.165671 -338.741546 
L 342.279032 -341.744459 
L 342.387023 -344.747372 
L 342.501521 -347.750285 
L 342.625463 -350.753197 
L 342.755023 -353.75611 
L 342.882726 -356.759023 
L 343.000538 -359.761936 
L 343.102183 -362.764849 
L 343.184318 -365.767761 
L 343.246603 -368.770674 
L 343.481522 -368.770674 
L 343.481522 -368.770674 
L 343.543807 -365.767761 
L 343.625942 -362.764849 
L 343.727587 -359.761936 
L 343.845399 -356.759023 
L 343.973102 -353.75611 
L 344.102662 -350.753197 
L 344.226604 -347.750285 
L 344.341102 -344.747372 
L 344.449093 -341.744459 
L 344.562454 -338.741546 
L 344.702469 -335.738633 
L 344.898155 -332.735721 
L 345.182639 -329.732808 
L 345.588245 -326.729895 
L 346.141276 -323.726982 
L 346.857558 -320.724069 
L 347.73966 -317.721157 
L 348.776457 -314.718244 
L 349.945264 -311.715331 
L 351.216353 -308.712418 
L 352.559088 -305.709505 
L 353.948537 -302.706593 
L 355.371136 -299.70368 
L 356.828049 -296.700767 
L 358.335182 -293.697854 
L 359.919434 -290.694941 
L 361.611582 -287.692029 
L 363.437185 -284.689116 
L 365.407804 -281.686203 
L 367.515432 -278.68329 
L 369.732767 -275.680377 
L 372.020701 -272.677465 
L 374.342023 -269.674552 
L 376.677814 -266.671639 
L 379.041147 -263.668726 
L 381.482578 -260.665813 
L 384.083941 -257.662901 
L 386.94037 -254.659988 
L 390.134254 -251.657075 
L 393.707521 -248.654162 
L 397.639472 -245.651249 
L 401.836336 -242.648337 
L 406.136219 -239.645424 
L 410.329803 -236.642511 
L 414.193576 -233.639598 
L 417.528925 -230.636685 
L 420.19803 -227.633773 
L 422.146999 -224.63086 
L 423.409152 -221.627947 
L 424.086509 -218.625034 
L 424.314062 -215.622121 
L 424.217037 -212.619209 
L 423.873666 -209.616296 
L 423.294316 -206.613383 
L 422.422667 -203.61047 
L 421.158168 -200.607557 
L 419.393287 -197.604645 
L 417.055481 -194.601732 
L 414.14282 -191.598819 
L 410.743512 -188.595906 
L 407.032986 -185.592993 
L 403.247289 -182.590081 
L 399.637813 -179.587168 
L 396.418129 -176.584255 
L 393.717073 -173.581342 
L 391.551313 -170.578429 
L 389.825218 -167.575517 
L 388.357664 -164.572604 
L 386.927399 -161.569691 
L 385.323924 -158.566778 
L 383.390657 -155.563865 
L 381.051127 -152.560953 
L 378.314741 -149.55804 
L 375.264195 -146.555127 
L 372.030346 -143.552214 
L 368.761882 -140.549301 
L 365.596918 -137.546388 
L 362.642071 -134.543476 
L 359.962171 -131.540563 
L 357.580913 -128.53765 
L 355.490017 -125.534737 
L 353.662669 -122.531824 
L 352.066544 -119.528912 
L 350.672867 -116.525999 
L 349.46003 -113.523086 
L 348.412541 -110.520173 
L 347.517518 -107.51726 
L 346.761241 -104.514348 
L 346.127482 -101.511435 
L 345.598042 -98.508522 
L 345.154787 -95.505609 
L 344.781947 -92.502696 
L 344.467586 -89.499784 
L 344.203751 -86.496871 
L 343.985473 -83.493958 
L 343.809237 -80.491045 
L 343.671576 -77.488132 
L 343.568236 -74.48522 
L 343.494035 -71.482307 
z
" style="stroke: #3f3f3f; stroke-width: 1.25"/>
    </defs>
    <g clip-path="url(#p140200feec)">
     <use xlink:href="#m0de0a40a3c" x="0" y="497.537187" style="fill: #3274a1; stroke: #3f3f3f; stroke-width: 1.25"/>
    </g>
   </g>
   <g id="FillBetweenPolyCollection_3">
    <defs>
     <path id="mb387f3089c" d="M 546.182662 -55.198267 
L 545.295463 -55.198267 
L 545.04539 -58.659723 
L 544.705935 -62.121178 
L 544.272168 -65.582633 
L 543.751091 -69.044089 
L 543.163647 -72.505544 
L 542.543535 -75.967 
L 541.932443 -79.428455 
L 541.37256 -82.889911 
L 540.898264 -86.351366 
L 540.529229 -89.812822 
L 540.266573 -93.274277 
L 540.092379 -96.735733 
L 539.971633 -100.197188 
L 539.855082 -103.658644 
L 539.681938 -107.120099 
L 539.382487 -110.581554 
L 538.881732 -114.04301 
L 538.105442 -117.504465 
L 536.989189 -120.965921 
L 535.489332 -124.427376 
L 533.593359 -127.888832 
L 531.326194 -131.350287 
L 528.749602 -134.811743 
L 525.953538 -138.273198 
L 523.040666 -141.734654 
L 520.107559 -145.196109 
L 517.227318 -148.657565 
L 514.438104 -152.11902 
L 511.740125 -155.580475 
L 509.100938 -159.041931 
L 506.46637 -162.503386 
L 503.773467 -165.964842 
L 500.962736 -169.426297 
L 497.989071 -172.887753 
L 494.8324 -176.349208 
L 491.508831 -179.810664 
L 488.080671 -183.272119 
L 484.660602 -186.733575 
L 481.404106 -190.19503 
L 478.48686 -193.656486 
L 476.070041 -197.117941 
L 474.263441 -200.579397 
L 473.09993 -204.040852 
L 472.532147 -207.502307 
L 472.453929 -210.963763 
L 472.738526 -214.425218 
L 473.278709 -217.886674 
L 474.013856 -221.348129 
L 474.935999 -224.809585 
L 476.076664 -228.27104 
L 477.483947 -231.732496 
L 479.201125 -235.193951 
L 481.25424 -238.655407 
L 483.649549 -242.116862 
L 486.376574 -245.578318 
L 489.411125 -249.039773 
L 492.715079 -252.501228 
L 496.233583 -255.962684 
L 499.893143 -259.424139 
L 503.604257 -262.885595 
L 507.270042 -266.34705 
L 510.799284 -269.808506 
L 514.119999 -273.269961 
L 517.189176 -276.731417 
L 519.995606 -280.192872 
L 522.55511 -283.654328 
L 524.899915 -287.115783 
L 527.065614 -290.577239 
L 529.079624 -294.038694 
L 530.954296 -297.50015 
L 532.686139 -300.961605 
L 534.260677 -304.42306 
L 535.660804 -307.884516 
L 536.875675 -311.345971 
L 537.907312 -314.807427 
L 538.773037 -318.268882 
L 539.503232 -321.730338 
L 540.135339 -325.191793 
L 540.706034 -328.653249 
L 541.243918 -332.114704 
L 541.764758 -335.57616 
L 542.270436 -339.037615 
L 542.751624 -342.499071 
L 543.193101 -345.960526 
L 543.579997 -349.421981 
L 543.90312 -352.883437 
L 544.161961 -356.344892 
L 544.36478 -359.806348 
L 544.526085 -363.267803 
L 544.662555 -366.729259 
L 544.788819 -370.190714 
L 544.914394 -373.65217 
L 545.042535 -377.113625 
L 545.171026 -380.575081 
L 545.294315 -384.036536 
L 545.406065 -387.497992 
L 545.501262 -390.959447 
L 545.577377 -394.420902 
L 545.634514 -397.882358 
L 545.843611 -397.882358 
L 545.843611 -397.882358 
L 545.900748 -394.420902 
L 545.976863 -390.959447 
L 546.07206 -387.497992 
L 546.18381 -384.036536 
L 546.307099 -380.575081 
L 546.43559 -377.113625 
L 546.563731 -373.65217 
L 546.689306 -370.190714 
L 546.81557 -366.729259 
L 546.95204 -363.267803 
L 547.113345 -359.806348 
L 547.316164 -356.344892 
L 547.575005 -352.883437 
L 547.898128 -349.421981 
L 548.285024 -345.960526 
L 548.726501 -342.499071 
L 549.207689 -339.037615 
L 549.713367 -335.57616 
L 550.234207 -332.114704 
L 550.772091 -328.653249 
L 551.342786 -325.191793 
L 551.974893 -321.730338 
L 552.705088 -318.268882 
L 553.570813 -314.807427 
L 554.60245 -311.345971 
L 555.817321 -307.884516 
L 557.217448 -304.42306 
L 558.791986 -300.961605 
L 560.523829 -297.50015 
L 562.398501 -294.038694 
L 564.412511 -290.577239 
L 566.57821 -287.115783 
L 568.923015 -283.654328 
L 571.482519 -280.192872 
L 574.288949 -276.731417 
L 577.358126 -273.269961 
L 580.678841 -269.808506 
L 584.208083 -266.34705 
L 587.873868 -262.885595 
L 591.584982 -259.424139 
L 595.244542 -255.962684 
L 598.763046 -252.501228 
L 602.067 -249.039773 
L 605.101551 -245.578318 
L 607.828576 -242.116862 
L 610.223885 -238.655407 
L 612.277 -235.193951 
L 613.994178 -231.732496 
L 615.401461 -228.27104 
L 616.542126 -224.809585 
L 617.464269 -221.348129 
L 618.199416 -217.886674 
L 618.739599 -214.425218 
L 619.024196 -210.963763 
L 618.945978 -207.502307 
L 618.378195 -204.040852 
L 617.214684 -200.579397 
L 615.408084 -197.117941 
L 612.991265 -193.656486 
L 610.074019 -190.19503 
L 606.817523 -186.733575 
L 603.397454 -183.272119 
L 599.969294 -179.810664 
L 596.645725 -176.349208 
L 593.489054 -172.887753 
L 590.515389 -169.426297 
L 587.704658 -165.964842 
L 585.011755 -162.503386 
L 582.377187 -159.041931 
L 579.738 -155.580475 
L 577.040021 -152.11902 
L 574.250807 -148.657565 
L 571.370566 -145.196109 
L 568.437459 -141.734654 
L 565.524587 -138.273198 
L 562.728523 -134.811743 
L 560.151931 -131.350287 
L 557.884766 -127.888832 
L 555.988793 -124.427376 
L 554.488936 -120.965921 
L 553.372683 -117.504465 
L 552.596393 -114.04301 
L 552.095638 -110.581554 
L 551.796187 -107.120099 
L 551.623043 -103.658644 
L 551.506492 -100.197188 
L 551.385746 -96.735733 
L 551.211552 -93.274277 
L 550.948896 -89.812822 
L 550.579861 -86.351366 
L 550.105565 -82.889911 
L 549.545682 -79.428455 
L 548.93459 -75.967 
L 548.314478 -72.505544 
L 547.727034 -69.044089 
L 547.205957 -65.582633 
L 546.77219 -62.121178 
L 546.432735 -58.659723 
L 546.182662 -55.198267 
z
" style="stroke: #3f3f3f; stroke-width: 1.25"/>
    </defs>
    <g clip-path="url(#p140200feec)">
     <use xlink:href="#mb387f3089c" x="0" y="497.537187" style="fill: #3274a1; stroke: #3f3f3f; stroke-width: 1.25"/>
    </g>
   </g>
   <g id="FillBetweenPolyCollection_4">
    <defs>
     <path id="m816195c7e6" d="M 748.370777 -69.359501 
L 747.857348 -69.359501 
L 747.716518 -72.405299 
L 747.520336 -75.451097 
L 747.257446 -78.496895 
L 746.917755 -81.542693 
L 746.493272 -84.58849 
L 745.97853 -87.634288 
L 745.370527 -90.680086 
L 744.668371 -93.725884 
L 743.872926 -96.771681 
L 742.986835 -99.817479 
L 742.015004 -102.863277 
L 740.965317 -105.909075 
L 739.84894 -108.954872 
L 738.679477 -112.00067 
L 737.470524 -115.046468 
L 736.231834 -118.092266 
L 734.965134 -121.138063 
L 733.661123 -124.183861 
L 732.299141 -127.229659 
L 730.850109 -130.275457 
L 729.282084 -133.321254 
L 727.56659 -136.367052 
L 725.683425 -139.41285 
L 723.622257 -142.458648 
L 721.380816 -145.504445 
L 718.961177 -148.550243 
L 716.366735 -151.596041 
L 713.602298 -154.641839 
L 710.678301 -157.687636 
L 707.618021 -160.733434 
L 704.464907 -163.779232 
L 701.286458 -166.82503 
L 698.172016 -169.870828 
L 695.223841 -172.916625 
L 692.543188 -175.962423 
L 690.214758 -179.008221 
L 688.293303 -182.054019 
L 686.795297 -185.099816 
L 685.697 -188.145614 
L 684.938595 -191.191412 
L 684.432988 -194.23721 
L 684.077489 -197.283007 
L 683.766804 -200.328805 
L 683.406139 -203.374603 
L 682.923452 -206.420401 
L 682.27985 -209.466198 
L 681.476886 -212.511996 
L 680.559364 -215.557794 
L 679.612452 -218.603592 
L 678.752589 -221.649389 
L 678.112762 -224.695187 
L 677.823979 -227.740985 
L 677.995836 -230.786783 
L 678.699716 -233.83258 
L 679.958005 -236.878378 
L 681.741831 -239.924176 
L 683.978178 -242.969974 
L 686.565076 -246.015772 
L 689.391535 -249.061569 
L 692.357442 -252.107367 
L 695.388589 -255.153165 
L 698.443268 -258.198963 
L 701.509396 -261.24476 
L 704.593918 -264.290558 
L 707.708383 -267.336356 
L 710.855337 -270.382154 
L 714.019397 -273.427951 
L 717.164919 -276.473749 
L 720.240005 -279.519547 
L 723.184857 -282.565345 
L 725.941727 -285.611142 
L 728.463939 -288.65694 
L 730.722226 -291.702738 
L 732.707676 -294.748536 
L 734.431311 -297.794333 
L 735.920863 -300.840131 
L 737.2155 -303.885929 
L 738.359358 -306.931727 
L 739.394825 -309.977524 
L 740.356595 -313.023322 
L 741.267513 -316.06912 
L 742.136989 -319.114918 
L 742.962302 -322.160716 
L 743.732396 -325.206513 
L 744.43313 -328.252311 
L 745.052538 -331.298109 
L 745.584685 -334.343907 
L 746.031256 -337.389704 
L 746.400743 -340.435502 
L 746.705893 -343.4813 
L 746.960484 -346.527098 
L 747.176538 -349.572895 
L 747.362698 -352.618693 
L 747.523972 -355.664491 
L 747.662537 -358.710289 
L 747.779061 -361.756086 
L 747.873976 -364.801884 
L 747.94833 -367.847682 
L 748.004094 -370.89348 
L 748.224031 -370.89348 
L 748.224031 -370.89348 
L 748.279795 -367.847682 
L 748.354149 -364.801884 
L 748.449064 -361.756086 
L 748.565588 -358.710289 
L 748.704153 -355.664491 
L 748.865427 -352.618693 
L 749.051587 -349.572895 
L 749.267641 -346.527098 
L 749.522232 -343.4813 
L 749.827382 -340.435502 
L 750.196869 -337.389704 
L 750.64344 -334.343907 
L 751.175587 -331.298109 
L 751.794995 -328.252311 
L 752.495729 -325.206513 
L 753.265823 -322.160716 
L 754.091136 -319.114918 
L 754.960612 -316.06912 
L 755.87153 -313.023322 
L 756.8333 -309.977524 
L 757.868767 -306.931727 
L 759.012625 -303.885929 
L 760.307262 -300.840131 
L 761.796814 -297.794333 
L 763.520449 -294.748536 
L 765.505899 -291.702738 
L 767.764186 -288.65694 
L 770.286398 -285.611142 
L 773.043268 -282.565345 
L 775.98812 -279.519547 
L 779.063206 -276.473749 
L 782.208728 -273.427951 
L 785.372788 -270.382154 
L 788.519742 -267.336356 
L 791.634207 -264.290558 
L 794.718729 -261.24476 
L 797.784857 -258.198963 
L 800.839536 -255.153165 
L 803.870683 -252.107367 
L 806.83659 -249.061569 
L 809.663049 -246.015772 
L 812.249947 -242.969974 
L 814.486294 -239.924176 
L 816.27012 -236.878378 
L 817.528409 -233.83258 
L 818.232289 -230.786783 
L 818.404146 -227.740985 
L 818.115363 -224.695187 
L 817.475536 -221.649389 
L 816.615673 -218.603592 
L 815.668761 -215.557794 
L 814.751239 -212.511996 
L 813.948275 -209.466198 
L 813.304673 -206.420401 
L 812.821986 -203.374603 
L 812.461321 -200.328805 
L 812.150636 -197.283007 
L 811.795137 -194.23721 
L 811.28953 -191.191412 
L 810.531125 -188.145614 
L 809.432828 -185.099816 
L 807.934822 -182.054019 
L 806.013367 -179.008221 
L 803.684937 -175.962423 
L 801.004284 -172.916625 
L 798.056109 -169.870828 
L 794.941667 -166.82503 
L 791.763218 -163.779232 
L 788.610104 -160.733434 
L 785.549824 -157.687636 
L 782.625827 -154.641839 
L 779.86139 -151.596041 
L 777.266948 -148.550243 
L 774.847309 -145.504445 
L 772.605868 -142.458648 
L 770.5447 -139.41285 
L 768.661535 -136.367052 
L 766.946041 -133.321254 
L 765.378016 -130.275457 
L 763.928984 -127.229659 
L 762.567002 -124.183861 
L 761.262991 -121.138063 
L 759.996291 -118.092266 
L 758.757601 -115.046468 
L 757.548648 -112.00067 
L 756.379185 -108.954872 
L 755.262808 -105.909075 
L 754.213121 -102.863277 
L 753.24129 -99.817479 
L 752.355199 -96.771681 
L 751.559754 -93.725884 
L 750.857598 -90.680086 
L 750.249595 -87.634288 
L 749.734853 -84.58849 
L 749.31037 -81.542693 
L 748.970679 -78.496895 
L 748.707789 -75.451097 
L 748.511607 -72.405299 
L 748.370777 -69.359501 
z
" style="stroke: #3f3f3f; stroke-width: 1.25"/>
    </defs>
    <g clip-path="url(#p140200feec)">
     <use xlink:href="#m816195c7e6" x="0" y="497.537187" style="fill: #3274a1; stroke: #3f3f3f; stroke-width: 1.25"/>
    </g>
   </g>
   <g id="line2d_11">
    <path d="M 85.825595 322.30745 
L 196.15253 322.30745 
" clip-path="url(#p140200feec)" style="fill: none; stroke-dasharray: 1.5625,0.9375; stroke-dashoffset: 0; stroke: #3f3f3f; stroke-width: 1.25"/>
   </g>
   <g id="line2d_12">
    <path d="M 72.645929 283.824519 
L 209.332196 283.824519 
" clip-path="url(#p140200feec)" style="fill: none; stroke-dasharray: 3.125,1.25; stroke-dashoffset: 0; stroke: #3f3f3f; stroke-width: 1.25"/>
   </g>
   <g id="line2d_13">
    <path d="M 81.662264 258.169231 
L 200.315861 258.169231 
" clip-path="url(#p140200feec)" style="fill: none; stroke-dasharray: 1.5625,0.9375; stroke-dashoffset: 0; stroke: #3f3f3f; stroke-width: 1.25"/>
   </g>
   <g id="line2d_14">
    <path d="M 276.650037 309.479807 
L 410.078088 309.479807 
" clip-path="url(#p140200feec)" style="fill: none; stroke-dasharray: 1.5625,0.9375; stroke-dashoffset: 0; stroke: #3f3f3f; stroke-width: 1.25"/>
   </g>
   <g id="line2d_15">
    <path d="M 262.475758 283.824519 
L 424.252367 283.824519 
" clip-path="url(#p140200feec)" style="fill: none; stroke-dasharray: 3.125,1.25; stroke-dashoffset: 0; stroke: #3f3f3f; stroke-width: 1.25"/>
   </g>
   <g id="line2d_16">
    <path d="M 280.204421 258.169231 
L 406.523704 258.169231 
" clip-path="url(#p140200feec)" style="fill: none; stroke-dasharray: 1.5625,0.9375; stroke-dashoffset: 0; stroke: #3f3f3f; stroke-width: 1.25"/>
   </g>
   <g id="line2d_17">
    <path d="M 483.415181 309.479807 
L 608.062944 309.479807 
" clip-path="url(#p140200feec)" style="fill: none; stroke-dasharray: 1.5625,0.9375; stroke-dashoffset: 0; stroke: #3f3f3f; stroke-width: 1.25"/>
   </g>
   <g id="line2d_18">
    <path d="M 472.679941 283.824519 
L 618.798184 283.824519 
" clip-path="url(#p140200feec)" style="fill: none; stroke-dasharray: 3.125,1.25; stroke-dashoffset: 0; stroke: #3f3f3f; stroke-width: 1.25"/>
   </g>
   <g id="line2d_19">
    <path d="M 481.747321 258.169231 
L 609.730804 258.169231 
" clip-path="url(#p140200feec)" style="fill: none; stroke-dasharray: 1.5625,0.9375; stroke-dashoffset: 0; stroke: #3f3f3f; stroke-width: 1.25"/>
   </g>
   <g id="line2d_20">
    <path d="M 693.188036 322.30745 
L 803.040089 322.30745 
" clip-path="url(#p140200feec)" style="fill: none; stroke-dasharray: 1.5625,0.9375; stroke-dashoffset: 0; stroke: #3f3f3f; stroke-width: 1.25"/>
   </g>
   <g id="line2d_21">
    <path d="M 681.115193 283.824519 
L 815.112932 283.824519 
" clip-path="url(#p140200feec)" style="fill: none; stroke-dasharray: 3.125,1.25; stroke-dashoffset: 0; stroke: #3f3f3f; stroke-width: 1.25"/>
   </g>
   <g id="line2d_22">
    <path d="M 681.416071 258.169231 
L 814.812054 258.169231 
" clip-path="url(#p140200feec)" style="fill: none; stroke-dasharray: 1.5625,0.9375; stroke-dashoffset: 0; stroke: #3f3f3f; stroke-width: 1.25"/>
   </g>
   <g id="patch_3">
    <path d="M 39.801563 459.473125 
L 39.801563 82.520625 
" style="fill: none; stroke: #cccccc; stroke-width: 0.8; stroke-linejoin: miter; stroke-linecap: square"/>
   </g>
   <g id="patch_4">
    <path d="M 849.301563 459.473125 
L 849.301563 82.520625 
" style="fill: none; stroke: #cccccc; stroke-width: 0.8; stroke-linejoin: miter; stroke-linecap: square"/>
   </g>
   <g id="patch_5">
    <path d="M 39.801562 459.473125 
L 849.301563 459.473125 
" style="fill: none; stroke: #cccccc; stroke-width: 0.8; stroke-linejoin: miter; stroke-linecap: square"/>
   </g>
   <g id="patch_6">
    <path d="M 39.801562 82.520625 
L 849.301563 82.520625 
" style="fill: none; stroke: #cccccc; stroke-width: 0.8; stroke-linejoin: miter; stroke-linecap: square"/>
   </g>
  </g>
  <g id="text_13">
   <!-- 训练阶段奖励分布: hpo_params - PPO - 初始训练 (伽马分布(尖峰,shape5,scale2)) -->
   <g style="fill: #262626" transform="translate(124.109062 20.615) scale(0.16 -0.16)">
    <defs>
     <path id="MicrosoftYaHei-Bold-8bad" d="M 956 5259 
Q 1475 4753 1925 4234 
L 1263 3684 
Q 769 4328 356 4747 
L 956 5259 
z
M 2450 5184 
L 3281 5184 
L 3281 2066 
Q 3281 209 2275 -884 
Q 1844 -528 1519 -328 
Q 2450 659 2450 2134 
L 2450 5184 
z
M 5238 5184 
L 6069 5184 
L 6069 -784 
L 5238 -784 
L 5238 5184 
z
M 3856 4953 
L 4663 4953 
L 4663 -416 
L 3856 -416 
L 3856 4953 
z
M 2019 1772 
Q 2050 1466 2175 916 
Q 1556 353 925 -341 
L 488 266 
Q 650 447 650 772 
L 650 2422 
L 125 2422 
L 125 3266 
L 1475 3266 
L 1475 1297 
Q 1769 1541 2019 1772 
z
" transform="scale(0.015625)"/>
     <path id="MicrosoftYaHei-Bold-7ec3" d="M 2400 3516 
L 2984 3516 
L 3159 4028 
L 2263 4028 
L 2263 4753 
L 3394 4753 
L 3575 5347 
L 4413 5291 
L 4238 4753 
L 6000 4753 
L 6000 4028 
L 3994 4028 
L 3809 3516 
L 4969 3516 
L 4969 2191 
L 6025 2191 
L 6025 1484 
L 4969 1484 
L 4969 297 
Q 4969 -131 4831 -397 
Q 4694 -663 4444 -758 
Q 4194 -853 3394 -853 
Q 3294 -309 3225 -34 
Q 3525 -72 3756 -72 
Q 4125 -72 4125 491 
L 4125 1484 
L 2513 1484 
L 2513 2291 
Q 2613 2525 2716 2791 
L 2400 2791 
L 2400 3516 
z
M 3306 2191 
L 4125 2191 
L 4125 2791 
L 3541 2791 
L 3306 2191 
z
M 1013 3372 
L 1419 3388 
L 1744 3966 
L 2413 3659 
L 1356 1797 
Q 1894 1872 2294 1941 
Q 2263 1684 2231 1159 
Q 931 984 475 866 
L 244 1566 
Q 531 1816 1009 2653 
L 306 2584 
L 75 3297 
Q 575 3966 1219 5341 
L 2000 5028 
Q 1450 4053 1013 3372 
z
M 75 372 
Q 1100 478 2288 672 
Q 2275 350 2272 116 
Q 2722 741 3000 1309 
L 3706 1003 
Q 3294 197 2738 -597 
Q 2469 -409 2078 -191 
L 238 -503 
L 75 372 
z
M 5000 978 
L 5619 1278 
Q 5994 584 6369 -197 
L 5713 -534 
Q 5356 316 5000 978 
z
" transform="scale(0.015625)"/>
     <path id="MicrosoftYaHei-Bold-9636" d="M 4638 2678 
L 5488 2678 
L 5488 -753 
L 4638 -753 
L 4638 2678 
z
M 6338 3297 
Q 6138 2947 5925 2434 
Q 4825 3197 4256 4297 
Q 3631 3259 2663 2384 
Q 2425 2784 2163 3147 
Q 3269 4053 3856 5253 
L 4756 5253 
L 4675 5047 
Q 5288 3966 6338 3297 
z
M 3006 2672 
L 3863 2672 
Q 3863 1284 3781 872 
Q 3625 -128 2763 -872 
Q 2531 -609 2113 -241 
Q 2775 328 2925 1041 
Q 3006 1322 3006 2672 
z
M 1988 2791 
Q 2525 2003 2525 1209 
Q 2525 747 2288 509 
Q 2019 241 1319 222 
Q 1288 609 1163 1066 
Q 1344 1034 1450 1034 
Q 1719 1034 1719 1297 
Q 1719 1941 1194 2672 
L 1725 4328 
L 1119 4328 
L 1119 -872 
L 331 -872 
L 331 5053 
L 2581 5053 
L 2581 4341 
L 1988 2791 
z
" transform="scale(0.015625)"/>
     <path id="MicrosoftYaHei-Bold-6bb5" d="M 113 22 
L 94 859 
L 525 897 
L 525 4947 
Q 1238 4978 2713 5228 
L 2988 4447 
Q 2094 4303 1356 4241 
L 1356 3716 
L 2625 3716 
L 2625 2953 
L 1356 2953 
L 1356 2397 
L 2625 2397 
L 2625 1634 
L 1356 1634 
L 1356 981 
L 2775 1141 
Q 2750 766 2750 347 
L 1356 178 
L 1356 -822 
L 525 -822 
L 525 75 
L 113 22 
z
M 5900 3816 
L 6319 3816 
Q 6231 3422 6169 3047 
L 5519 3047 
Q 4844 3047 4844 3734 
L 4844 4303 
L 3956 4303 
Q 3956 3672 3806 3372 
Q 3656 3072 3319 2791 
Q 3038 3047 2688 3322 
Q 3181 3628 3181 4278 
L 3181 5078 
L 5638 5078 
L 5638 4109 
Q 5638 3816 5900 3816 
z
M 6038 2728 
L 6038 1978 
Q 5703 1163 5119 541 
Q 5684 209 6356 16 
Q 6138 -378 5906 -816 
Q 5088 -503 4438 -53 
Q 3775 -538 2894 -853 
Q 2731 -578 2350 -66 
Q 3138 163 3731 525 
Q 3284 959 2950 1484 
L 3581 1941 
Q 3953 1431 4413 1041 
Q 4834 1447 5100 1959 
L 2788 1959 
L 2788 2728 
L 6038 2728 
z
" transform="scale(0.015625)"/>
     <path id="MicrosoftYaHei-Bold-5956" d="M 2475 3678 
Q 3206 4403 3625 5366 
L 4438 5209 
Q 4294 4925 4141 4666 
L 6156 4666 
L 6156 4053 
Q 5606 2531 3719 1856 
Q 3688 1706 3647 1566 
L 6225 1566 
L 6225 828 
L 3922 828 
Q 4569 141 6300 34 
Q 6150 -234 5875 -866 
Q 3972 -681 3147 538 
Q 2319 -541 400 -859 
Q 269 -434 100 -16 
Q 1706 197 2306 828 
L 200 828 
L 200 1566 
L 2756 1566 
Q 2856 1853 2888 2191 
L 3328 2191 
Q 3228 2331 3100 2491 
Q 3638 2666 4056 2881 
Q 3747 3163 3444 3397 
L 3944 3884 
Q 4234 3663 4684 3275 
Q 5106 3606 5319 4003 
L 3716 4003 
Q 3388 3534 3019 3153 
Q 2794 3391 2475 3678 
z
M 381 2166 
L 125 2972 
Q 950 3263 1600 3534 
L 1600 4184 
L 1075 3678 
Q 556 4222 213 4553 
L 706 5016 
Q 984 4775 1600 4206 
L 1600 5328 
L 2406 5328 
L 2406 1766 
L 1600 1766 
L 1600 2691 
Q 956 2431 381 2166 
z
" transform="scale(0.015625)"/>
     <path id="MicrosoftYaHei-Bold-52b1" d="M 4438 -753 
Q 4394 -381 4328 -47 
Q 4109 -556 3794 -909 
Q 3709 -813 3231 -403 
Q 3113 -634 2897 -721 
Q 2681 -809 2069 -809 
Q 2025 -506 1959 -175 
Q 1806 -600 1600 -934 
Q 1369 -484 1106 -66 
Q 1300 266 1423 697 
Q 1547 1128 1592 1590 
Q 1638 2053 1647 3153 
L 1263 3153 
L 1263 2878 
Q 1263 556 613 -878 
Q 381 -441 75 22 
Q 469 1078 475 2991 
L 475 5103 
L 3688 5103 
L 3688 4328 
L 1263 4328 
L 1263 3903 
L 3463 3903 
L 3463 3153 
L 2391 3153 
Q 2388 2753 2375 2509 
L 3444 2509 
Q 3406 603 3344 -50 
Q 4075 953 4081 3328 
L 3675 3328 
L 3675 4153 
L 4094 4153 
Q 4100 4666 4100 5309 
L 4844 5309 
L 4834 4153 
L 6038 4153 
L 6003 1713 
L 5969 263 
Q 5956 -166 5792 -394 
Q 5628 -622 5383 -683 
Q 5138 -744 4438 -753 
z
M 4397 128 
Q 4581 116 4872 116 
Q 5013 116 5092 197 
Q 5172 278 5195 422 
Q 5219 566 5244 1344 
Q 5269 2122 5269 3328 
L 4825 3328 
Q 4819 1216 4397 128 
z
M 2031 34 
Q 2131 31 2313 22 
Q 2563 16 2606 202 
Q 2650 388 2688 1784 
L 2338 1784 
Q 2263 781 2031 34 
z
" transform="scale(0.015625)"/>
     <path id="MicrosoftYaHei-Bold-5206" d="M 6350 3028 
Q 6088 2703 5750 2228 
Q 5519 2409 5303 2603 
Q 5219 606 5172 190 
Q 5125 -225 4862 -451 
Q 4600 -678 4128 -678 
Q 3484 -678 2913 -659 
Q 2856 -141 2781 284 
Q 3594 216 3956 216 
Q 4172 216 4230 408 
Q 4288 600 4325 1978 
L 2781 1978 
Q 2728 1100 2529 631 
Q 2331 163 1907 -215 
Q 1484 -594 844 -872 
Q 456 -353 194 -78 
Q 750 144 1111 414 
Q 1472 684 1630 989 
Q 1788 1294 1841 1978 
L 950 1978 
L 950 2475 
Q 794 2356 631 2247 
Q 344 2653 63 2953 
Q 1475 3947 2194 5316 
L 3031 4953 
Q 2378 3722 1391 2841 
L 5047 2841 
Q 4088 3766 3463 4903 
L 4238 5303 
Q 5038 3922 6350 3028 
z
" transform="scale(0.015625)"/>
     <path id="MicrosoftYaHei-Bold-5e03" d="M 3919 -834 
L 3050 -834 
L 3050 2034 
L 2063 2034 
L 2063 -359 
L 1200 -359 
L 1200 1641 
Q 825 1238 400 866 
Q 244 1403 113 1741 
Q 1128 2669 1731 3709 
L 200 3709 
L 200 4541 
L 2141 4541 
Q 2294 4916 2400 5303 
L 3275 5203 
Q 3169 4866 3038 4541 
L 6250 4541 
L 6250 3709 
L 2659 3709 
Q 2406 3222 2094 2766 
L 3050 2766 
L 3050 3566 
L 3919 3566 
L 3919 2766 
L 5800 2766 
L 5800 741 
Q 5800 338 5628 112 
Q 5456 -113 5178 -164 
Q 4900 -216 4306 -216 
Q 4225 291 4156 609 
Q 4456 584 4544 584 
Q 4950 584 4950 1034 
L 4950 2034 
L 3919 2034 
L 3919 -834 
z
" transform="scale(0.015625)"/>
     <path id="MicrosoftYaHei-Bold-3a" d="M 313 2969 
Q 313 3200 491 3350 
Q 669 3500 916 3500 
Q 1166 3500 1337 3350 
Q 1509 3200 1509 2969 
Q 1509 2728 1337 2579 
Q 1166 2431 903 2431 
Q 653 2431 483 2584 
Q 313 2738 313 2969 
z
M 313 453 
Q 313 688 491 838 
Q 669 988 916 988 
Q 1166 988 1337 834 
Q 1509 681 1509 453 
Q 1509 213 1337 64 
Q 1166 -84 903 -84 
Q 659 -84 486 69 
Q 313 222 313 453 
z
" transform="scale(0.015625)"/>
     <path id="MicrosoftYaHei-Bold-20" transform="scale(0.015625)"/>
     <path id="MicrosoftYaHei-Bold-68" d="M 3725 0 
L 2719 0 
L 2719 1969 
Q 2719 2766 2138 2766 
Q 1847 2766 1658 2544 
Q 1469 2322 1469 1969 
L 1469 0 
L 459 0 
L 459 5116 
L 1469 5116 
L 1469 2938 
L 1481 2938 
Q 1878 3541 2550 3541 
Q 3725 3541 3725 2122 
L 3725 0 
z
" transform="scale(0.015625)"/>
     <path id="MicrosoftYaHei-Bold-70" d="M 1469 416 
L 1469 -1591 
L 459 -1591 
L 459 3456 
L 1469 3456 
L 1469 2928 
L 1481 2928 
Q 1878 3541 2603 3541 
Q 3263 3541 3634 3080 
Q 4006 2619 4006 1825 
Q 4006 959 3575 437 
Q 3144 -84 2444 -84 
Q 1809 -84 1481 416 
L 1469 416 
z
M 1453 1528 
Q 1453 1159 1653 925 
Q 1853 691 2172 691 
Q 2550 691 2761 984 
Q 2972 1278 2972 1816 
Q 2972 2766 2231 2766 
Q 1888 2766 1670 2503 
Q 1453 2241 1453 1828 
L 1453 1528 
z
" transform="scale(0.015625)"/>
     <path id="MicrosoftYaHei-Bold-6f" d="M 253 1713 
Q 253 2566 764 3053 
Q 1275 3541 2138 3541 
Q 2972 3541 3462 3061 
Q 3953 2581 3953 1772 
Q 3953 922 3450 419 
Q 2947 -84 2088 -84 
Q 1244 -84 748 398 
Q 253 881 253 1713 
z
M 1275 1725 
Q 1275 691 2119 691 
Q 2928 691 2928 1753 
Q 2928 2766 2113 2766 
Q 1716 2766 1495 2494 
Q 1275 2222 1275 1725 
z
" transform="scale(0.015625)"/>
     <path id="MicrosoftYaHei-Bold-5f" d="M 2869 -1675 
L 0 -1675 
L 0 -1272 
L 2869 -1272 
L 2869 -1675 
z
" transform="scale(0.015625)"/>
     <path id="MicrosoftYaHei-Bold-61" d="M 544 3247 
Q 778 3378 1170 3459 
Q 1563 3541 1841 3541 
Q 3291 3541 3291 2088 
L 3291 0 
L 2331 0 
L 2331 503 
L 2319 503 
Q 1966 -84 1284 -84 
Q 794 -84 498 195 
Q 203 475 203 956 
Q 203 1950 1388 2113 
L 2338 2241 
Q 2338 2844 1709 2844 
Q 1091 2844 544 2469 
L 544 3247 
z
M 1684 1566 
Q 1138 1494 1138 1072 
Q 1138 878 1270 759 
Q 1403 641 1628 641 
Q 1938 641 2138 859 
Q 2338 1078 2338 1403 
L 2338 1650 
L 1684 1566 
z
" transform="scale(0.015625)"/>
     <path id="MicrosoftYaHei-Bold-72" d="M 2663 2541 
Q 2478 2647 2216 2647 
Q 1872 2647 1670 2384 
Q 1469 2122 1469 1663 
L 1469 0 
L 459 0 
L 459 3456 
L 1469 3456 
L 1469 2806 
L 1481 2806 
Q 1731 3516 2391 3516 
Q 2569 3516 2663 3475 
L 2663 2541 
z
" transform="scale(0.015625)"/>
     <path id="MicrosoftYaHei-Bold-6d" d="M 5881 0 
L 4875 0 
L 4875 1972 
Q 4875 2766 4297 2766 
Q 4028 2766 3850 2525 
Q 3672 2284 3672 1938 
L 3672 0 
L 2666 0 
L 2666 1997 
Q 2666 2766 2094 2766 
Q 1809 2766 1639 2536 
Q 1469 2306 1469 1928 
L 1469 0 
L 459 0 
L 459 3456 
L 1469 3456 
L 1469 2916 
L 1481 2916 
Q 1663 3213 1963 3377 
Q 2263 3541 2594 3541 
Q 3322 3541 3591 2888 
Q 3991 3541 4753 3541 
Q 5881 3541 5881 2147 
L 5881 0 
z
" transform="scale(0.015625)"/>
     <path id="MicrosoftYaHei-Bold-73" d="M 369 928 
Q 888 613 1384 613 
Q 2009 613 2009 947 
Q 2009 1184 1494 1344 
Q 850 1544 609 1789 
Q 369 2034 369 2453 
Q 369 2963 781 3252 
Q 1194 3541 1863 3541 
Q 2338 3541 2778 3400 
L 2778 2606 
Q 2375 2844 1891 2844 
Q 1650 2844 1503 2758 
Q 1356 2672 1356 2531 
Q 1356 2294 1794 2147 
Q 2263 1991 2498 1862 
Q 2734 1734 2857 1525 
Q 2981 1316 2981 1041 
Q 2981 506 2553 211 
Q 2125 -84 1409 -84 
Q 847 -84 369 94 
L 369 928 
z
" transform="scale(0.015625)"/>
     <path id="MicrosoftYaHei-Bold-2d" d="M 2328 1497 
L 481 1497 
L 481 2209 
L 2328 2209 
L 2328 1497 
z
" transform="scale(0.015625)"/>
     <path id="MicrosoftYaHei-Bold-50" d="M 1591 1688 
L 1591 0 
L 559 0 
L 559 4841 
L 2225 4841 
Q 4031 4841 4031 3309 
Q 4031 2566 3486 2117 
Q 2941 1669 2122 1688 
L 1591 1688 
z
M 1591 4041 
L 1591 2478 
L 2038 2478 
Q 2947 2478 2947 3269 
Q 2947 4041 2047 4041 
L 1591 4041 
z
" transform="scale(0.015625)"/>
     <path id="MicrosoftYaHei-Bold-4f" d="M 256 2356 
Q 256 3494 920 4208 
Q 1584 4922 2675 4922 
Q 3713 4922 4345 4231 
Q 4978 3541 4978 2456 
Q 4978 1325 4320 620 
Q 3663 -84 2597 -84 
Q 1556 -84 906 598 
Q 256 1281 256 2356 
z
M 1341 2413 
Q 1341 1706 1681 1257 
Q 2022 809 2616 809 
Q 3222 809 3559 1239 
Q 3897 1669 3897 2394 
Q 3897 3150 3569 3589 
Q 3241 4028 2644 4028 
Q 2038 4028 1689 3578 
Q 1341 3128 1341 2413 
z
" transform="scale(0.015625)"/>
     <path id="MicrosoftYaHei-Bold-521d" d="M 1288 5359 
Q 1619 4997 2031 4453 
L 1516 4109 
L 2294 4109 
L 2294 3378 
Q 2019 2847 1700 2369 
L 1700 2256 
Q 1809 2175 1909 2097 
Q 2209 2516 2419 2878 
L 2994 2516 
Q 2716 2138 2381 1734 
Q 2619 1544 2813 1378 
L 2363 834 
Q 2016 1166 1700 1441 
L 1700 -866 
L 913 -866 
L 913 1338 
Q 641 1025 344 741 
Q 231 1228 94 1678 
Q 831 2278 1363 3303 
L 156 3303 
L 156 4109 
L 1231 4109 
Q 981 4472 613 4928 
L 1288 5359 
z
M 3919 -697 
Q 3838 -266 3700 253 
Q 4153 209 4563 209 
Q 5006 209 5040 675 
Q 5075 1141 5113 4159 
L 4097 4159 
Q 4050 2622 3984 1959 
Q 3919 1297 3595 525 
Q 3272 -247 2644 -859 
Q 2369 -578 1925 -216 
Q 2450 234 2734 806 
Q 3019 1378 3105 1972 
Q 3191 2566 3219 4159 
L 2488 4159 
L 2488 4947 
L 6013 4947 
L 5938 1331 
L 5906 491 
Q 5906 -44 5686 -328 
Q 5466 -613 5067 -647 
Q 4669 -681 3919 -697 
z
" transform="scale(0.015625)"/>
     <path id="MicrosoftYaHei-Bold-59cb" d="M 2863 -853 
L 2863 356 
L 2256 -291 
Q 2000 -25 1744 225 
Q 1309 -381 638 -847 
Q 350 -466 69 -153 
Q 706 259 1119 816 
Q 669 1228 225 1597 
Q 441 2363 616 3359 
L 119 3359 
L 119 4134 
L 741 4134 
Q 825 4706 900 5347 
L 1731 5259 
L 1550 4134 
L 2669 4134 
Q 2663 3728 2638 3363 
Q 3213 3972 3875 5359 
L 4800 5097 
Q 4225 4159 3594 3378 
Q 4328 3422 5075 3484 
Q 4847 3944 4619 4359 
L 5294 4634 
Q 5831 3747 6369 2659 
L 5613 2341 
L 5391 2828 
Q 3522 2697 2863 2578 
L 2625 3169 
Q 2519 1791 2156 953 
L 2863 394 
L 2863 2116 
L 5981 2116 
L 5981 -828 
L 5144 -828 
L 5144 -472 
L 3700 -472 
L 3700 -853 
L 2863 -853 
z
M 1088 1797 
L 1503 1469 
Q 1809 2241 1863 3359 
L 1413 3359 
Q 1259 2541 1088 1797 
z
M 5144 1328 
L 3700 1328 
L 3700 316 
L 5144 316 
L 5144 1328 
z
" transform="scale(0.015625)"/>
     <path id="MicrosoftYaHei-Bold-28" d="M 1606 -1100 
Q 525 97 525 1853 
Q 525 3550 1606 4841 
L 2431 4841 
Q 1406 3497 1406 1853 
Q 1406 216 2438 -1100 
L 1606 -1100 
z
" transform="scale(0.015625)"/>
     <path id="MicrosoftYaHei-Bold-4f3d" d="M 2050 5284 
L 2788 5284 
Q 2775 4666 2769 4166 
L 3863 4166 
L 3863 72 
Q 3863 -653 3181 -666 
Q 2844 -684 2550 -678 
Q 2494 -316 2394 41 
Q 2219 -428 1956 -834 
Q 1744 -466 1481 -53 
Q 2038 853 2038 3384 
L 1650 3384 
L 1650 4166 
L 2038 4166 
Q 2044 4684 2050 5284 
z
M 4200 -597 
L 4200 4697 
L 6063 4697 
L 6063 -578 
L 5331 -578 
L 5331 -122 
L 4931 -122 
L 4931 -597 
L 4200 -597 
z
M 1075 5297 
L 1794 5128 
Q 1650 4509 1456 3916 
L 1456 -803 
L 738 -803 
L 738 2141 
Q 544 1753 331 1378 
Q 263 1759 119 2478 
Q 788 3884 1075 5297 
z
M 2806 128 
Q 3119 116 3113 491 
L 3113 3384 
L 2769 3384 
Q 2750 1103 2425 128 
Q 2619 122 2806 128 
z
M 5331 3891 
L 4931 3891 
L 4931 684 
L 5331 684 
L 5331 3891 
z
" transform="scale(0.015625)"/>
     <path id="MicrosoftYaHei-Bold-9a6c" d="M 1081 4009 
L 2063 4009 
L 1925 2741 
L 4047 2741 
L 4206 4284 
L 663 4284 
L 663 5066 
L 5263 5066 
L 5028 2741 
L 6019 2741 
Q 5978 925 5934 378 
Q 5891 -169 5566 -439 
Q 5241 -709 4694 -728 
Q 4147 -747 2944 -747 
Q 2856 -303 2719 191 
Q 3931 141 4381 141 
Q 4666 141 4780 239 
Q 4894 338 4950 470 
Q 5006 603 5038 1966 
L 881 1966 
L 1081 4009 
z
M 150 1484 
L 4638 1484 
L 4638 672 
L 150 672 
L 150 1484 
z
" transform="scale(0.015625)"/>
     <path id="MicrosoftYaHei-Bold-5c16" d="M 2750 5328 
L 3669 5328 
L 3669 2878 
L 2750 2878 
L 2750 5328 
z
M 1794 4816 
L 2463 4216 
Q 1700 3422 819 2741 
Q 525 3147 238 3428 
Q 1181 4103 1794 4816 
z
M 3925 4203 
L 4506 4803 
Q 5244 4253 6125 3491 
L 5525 2803 
Q 4731 3572 3925 4203 
z
M 250 2216 
L 2728 2216 
Q 2744 2406 2750 2622 
L 3675 2622 
Q 3669 2416 3653 2216 
L 6175 2216 
L 6175 1416 
L 3925 1416 
Q 4659 269 6269 16 
Q 6044 -297 5706 -822 
Q 4069 -444 3272 975 
Q 2741 -338 650 -866 
Q 425 -484 94 -9 
Q 2153 344 2569 1416 
L 250 1416 
L 250 2216 
z
" transform="scale(0.015625)"/>
     <path id="MicrosoftYaHei-Bold-5cf0" d="M 2425 4241 
L 2425 2972 
Q 3169 3116 3738 3353 
Q 3538 3522 3375 3703 
Q 3188 3509 2994 3322 
Q 2756 3603 2531 3797 
Q 3188 4403 3750 5322 
L 4613 5222 
Q 4481 5034 4344 4859 
L 5869 4859 
L 5869 4253 
Q 5588 3759 5106 3372 
Q 5638 3216 6338 3134 
Q 6250 2847 6138 2416 
Q 5069 2603 4400 2916 
Q 3669 2541 2663 2309 
Q 2544 2628 2425 2884 
L 2425 -266 
L 1888 -266 
L 1888 9 
L 250 -116 
L 250 4241 
L 788 4241 
L 788 647 
L 1006 666 
L 1006 5253 
L 1669 5253 
L 1669 716 
L 1888 734 
L 1888 4241 
L 2425 4241 
z
M 2613 566 
L 4013 566 
L 4013 903 
L 2894 903 
L 2894 1428 
L 4013 1428 
L 4013 1766 
L 2794 1766 
L 2794 2291 
L 4013 2291 
L 4013 2584 
L 4788 2584 
L 4788 2291 
L 5994 2291 
L 5994 1766 
L 4788 1766 
L 4788 1428 
L 5925 1428 
L 5925 903 
L 4788 903 
L 4788 566 
L 6213 566 
L 6213 -16 
L 4788 -16 
L 4788 -847 
L 4013 -847 
L 4013 -16 
L 2613 -16 
L 2613 566 
z
M 4381 3691 
Q 4744 3922 4994 4209 
L 3825 4209 
Q 3813 4197 3806 4184 
Q 4038 3916 4381 3691 
z
" transform="scale(0.015625)"/>
     <path id="MicrosoftYaHei-Bold-2c" d="M 1419 841 
L 916 -859 
L 134 -859 
L 484 841 
L 1419 841 
z
" transform="scale(0.015625)"/>
     <path id="MicrosoftYaHei-Bold-65" d="M 3528 1444 
L 1253 1444 
Q 1306 641 2222 641 
Q 2794 641 3231 922 
L 3231 181 
Q 2759 -84 1994 -84 
Q 1169 -84 711 381 
Q 253 847 253 1678 
Q 253 2506 740 3023 
Q 1228 3541 1966 3541 
Q 2700 3541 3114 3095 
Q 3528 2650 3528 1872 
L 3528 1444 
z
M 2588 2075 
Q 2588 2850 1959 2850 
Q 1700 2850 1500 2637 
Q 1300 2425 1250 2075 
L 2588 2075 
z
" transform="scale(0.015625)"/>
     <path id="MicrosoftYaHei-Bold-35" d="M 541 125 
L 541 997 
Q 1044 691 1613 691 
Q 2041 691 2283 902 
Q 2525 1113 2525 1472 
Q 2525 2225 1494 2225 
Q 1113 2225 616 2169 
L 797 4841 
L 3359 4841 
L 3359 4009 
L 1613 4009 
L 1544 2991 
Q 1803 3013 2022 3013 
Q 2731 3013 3142 2625 
Q 3553 2238 3553 1575 
Q 3553 844 3056 380 
Q 2559 -84 1706 -84 
Q 1016 -84 541 125 
z
" transform="scale(0.015625)"/>
     <path id="MicrosoftYaHei-Bold-63" d="M 3050 128 
Q 2688 -84 2019 -84 
Q 1228 -84 740 397 
Q 253 878 253 1644 
Q 253 2525 778 3033 
Q 1303 3541 2178 3541 
Q 2769 3541 3053 3378 
L 3053 2513 
Q 2706 2766 2297 2766 
Q 1834 2766 1554 2484 
Q 1275 2203 1275 1713 
Q 1275 1238 1540 964 
Q 1806 691 2263 691 
Q 2666 691 3050 947 
L 3050 128 
z
" transform="scale(0.015625)"/>
     <path id="MicrosoftYaHei-Bold-6c" d="M 444 0 
L 444 5116 
L 1450 5116 
L 1450 0 
L 444 0 
z
" transform="scale(0.015625)"/>
     <path id="MicrosoftYaHei-Bold-32" d="M 1500 841 
L 3553 841 
L 3553 0 
L 334 0 
L 334 359 
Q 334 738 473 1050 
Q 613 1363 856 1633 
Q 1100 1903 1613 2266 
Q 2081 2616 2268 2886 
Q 2456 3156 2456 3459 
Q 2456 4113 1744 4113 
Q 1119 4113 550 3613 
L 550 4513 
Q 1184 4922 1975 4922 
Q 2700 4922 3122 4551 
Q 3544 4181 3544 3531 
Q 3544 3169 3422 2876 
Q 3300 2584 3069 2328 
Q 2838 2072 2328 1713 
Q 1838 1363 1669 1172 
Q 1500 981 1500 841 
z
" transform="scale(0.015625)"/>
     <path id="MicrosoftYaHei-Bold-29" d="M 59 -1100 
Q 1097 216 1097 1853 
Q 1097 3484 59 4841 
L 888 4841 
Q 1978 3544 1978 1853 
Q 1978 113 881 -1100 
L 59 -1100 
z
" transform="scale(0.015625)"/>
    </defs>
    <use xlink:href="#MicrosoftYaHei-Bold-8bad"/>
    <use xlink:href="#MicrosoftYaHei-Bold-7ec3" transform="translate(100 0)"/>
    <use xlink:href="#MicrosoftYaHei-Bold-9636" transform="translate(200 0)"/>
    <use xlink:href="#MicrosoftYaHei-Bold-6bb5" transform="translate(300 0)"/>
    <use xlink:href="#MicrosoftYaHei-Bold-5956" transform="translate(400 0)"/>
    <use xlink:href="#MicrosoftYaHei-Bold-52b1" transform="translate(500 0)"/>
    <use xlink:href="#MicrosoftYaHei-Bold-5206" transform="translate(600 0)"/>
    <use xlink:href="#MicrosoftYaHei-Bold-5e03" transform="translate(700 0)"/>
    <use xlink:href="#MicrosoftYaHei-Bold-3a" transform="translate(800 0)"/>
    <use xlink:href="#MicrosoftYaHei-Bold-20" transform="translate(828.564453 0)"/>
    <use xlink:href="#MicrosoftYaHei-Bold-68" transform="translate(858.349609 0)"/>
    <use xlink:href="#MicrosoftYaHei-Bold-70" transform="translate(922.900391 0)"/>
    <use xlink:href="#MicrosoftYaHei-Bold-6f" transform="translate(989.501953 0)"/>
    <use xlink:href="#MicrosoftYaHei-Bold-5f" transform="translate(1055.224609 0)"/>
    <use xlink:href="#MicrosoftYaHei-Bold-70" transform="translate(1100.048828 0)"/>
    <use xlink:href="#MicrosoftYaHei-Bold-61" transform="translate(1165.525391 0)"/>
    <use xlink:href="#MicrosoftYaHei-Bold-72" transform="translate(1223.289062 0)"/>
    <use xlink:href="#MicrosoftYaHei-Bold-61" transform="translate(1265.671875 0)"/>
    <use xlink:href="#MicrosoftYaHei-Bold-6d" transform="translate(1323.435547 0)"/>
    <use xlink:href="#MicrosoftYaHei-Bold-73" transform="translate(1421.628906 0)"/>
    <use xlink:href="#MicrosoftYaHei-Bold-20" transform="translate(1470.994141 0)"/>
    <use xlink:href="#MicrosoftYaHei-Bold-2d" transform="translate(1500.779297 0)"/>
    <use xlink:href="#MicrosoftYaHei-Bold-20" transform="translate(1544.431641 0)"/>
    <use xlink:href="#MicrosoftYaHei-Bold-50" transform="translate(1574.216797 0)"/>
    <use xlink:href="#MicrosoftYaHei-Bold-50" transform="translate(1639.939453 0)"/>
    <use xlink:href="#MicrosoftYaHei-Bold-4f" transform="translate(1705.662109 0)"/>
    <use xlink:href="#MicrosoftYaHei-Bold-20" transform="translate(1787.498047 0)"/>
    <use xlink:href="#MicrosoftYaHei-Bold-2d" transform="translate(1817.283203 0)"/>
    <use xlink:href="#MicrosoftYaHei-Bold-20" transform="translate(1860.935547 0)"/>
    <use xlink:href="#MicrosoftYaHei-Bold-521d" transform="translate(1890.720703 0)"/>
    <use xlink:href="#MicrosoftYaHei-Bold-59cb" transform="translate(1990.720703 0)"/>
    <use xlink:href="#MicrosoftYaHei-Bold-8bad" transform="translate(2090.720703 0)"/>
    <use xlink:href="#MicrosoftYaHei-Bold-7ec3" transform="translate(2190.720703 0)"/>
    <use xlink:href="#MicrosoftYaHei-Bold-20" transform="translate(2290.720703 0)"/>
    <use xlink:href="#MicrosoftYaHei-Bold-28" transform="translate(2320.505859 0)"/>
    <use xlink:href="#MicrosoftYaHei-Bold-4f3d" transform="translate(2359.470703 0)"/>
    <use xlink:href="#MicrosoftYaHei-Bold-9a6c" transform="translate(2459.470703 0)"/>
    <use xlink:href="#MicrosoftYaHei-Bold-5206" transform="translate(2559.470703 0)"/>
    <use xlink:href="#MicrosoftYaHei-Bold-5e03" transform="translate(2659.470703 0)"/>
    <use xlink:href="#MicrosoftYaHei-Bold-28" transform="translate(2759.470703 0)"/>
    <use xlink:href="#MicrosoftYaHei-Bold-5c16" transform="translate(2798.435547 0)"/>
    <use xlink:href="#MicrosoftYaHei-Bold-5cf0" transform="translate(2898.435547 0)"/>
    <use xlink:href="#MicrosoftYaHei-Bold-2c" transform="translate(2998.435547 0)"/>
    <use xlink:href="#MicrosoftYaHei-Bold-73" transform="translate(3027 0)"/>
    <use xlink:href="#MicrosoftYaHei-Bold-68" transform="translate(3076.365234 0)"/>
    <use xlink:href="#MicrosoftYaHei-Bold-61" transform="translate(3140.916016 0)"/>
    <use xlink:href="#MicrosoftYaHei-Bold-70" transform="translate(3198.679688 0)"/>
    <use xlink:href="#MicrosoftYaHei-Bold-65" transform="translate(3265.28125 0)"/>
    <use xlink:href="#MicrosoftYaHei-Bold-35" transform="translate(3323.484375 0)"/>
    <use xlink:href="#MicrosoftYaHei-Bold-2c" transform="translate(3385.154297 0)"/>
    <use xlink:href="#MicrosoftYaHei-Bold-73" transform="translate(3413.71875 0)"/>
    <use xlink:href="#MicrosoftYaHei-Bold-63" transform="translate(3463.083984 0)"/>
    <use xlink:href="#MicrosoftYaHei-Bold-61" transform="translate(3514.744141 0)"/>
    <use xlink:href="#MicrosoftYaHei-Bold-6c" transform="translate(3572.507812 0)"/>
    <use xlink:href="#MicrosoftYaHei-Bold-65" transform="translate(3602.097656 0)"/>
    <use xlink:href="#MicrosoftYaHei-Bold-32" transform="translate(3660.300781 0)"/>
    <use xlink:href="#MicrosoftYaHei-Bold-29" transform="translate(3721.970703 0)"/>
    <use xlink:href="#MicrosoftYaHei-Bold-29" transform="translate(3760.935547 0)"/>
   </g>
   <!-- (环境: 伽马分布(尖峰,shape5,scale2 | 复杂度: 0.78) -->
   <g style="fill: #262626" transform="translate(238.950312 40.8795) scale(0.16 -0.16)">
    <defs>
     <path id="MicrosoftYaHei-Bold-73af" d="M 5163 2916 
Q 5825 1797 6300 878 
L 5544 472 
Q 5081 1400 4550 2413 
L 4550 -834 
L 3706 -834 
L 3706 2013 
Q 3272 1200 2700 484 
Q 2525 641 2378 766 
Q 2347 503 2331 9 
L 175 -328 
L 81 522 
L 863 613 
L 863 2003 
L 213 2003 
L 213 2834 
L 863 2834 
L 863 4066 
L 175 4066 
L 175 4897 
L 2375 4897 
L 2375 4066 
L 1694 4066 
L 1694 2834 
L 2356 2834 
L 2356 2003 
L 1694 2003 
L 1694 728 
L 2306 825 
Q 2134 972 2000 1072 
Q 3194 2478 3675 4084 
L 2606 4084 
L 2606 4916 
L 6075 4916 
L 6075 4084 
L 4556 4084 
Q 4400 3559 4200 3066 
L 4550 3066 
L 4550 2591 
L 5163 2916 
z
" transform="scale(0.015625)"/>
     <path id="MicrosoftYaHei-Bold-5883" d="M 6044 4241 
L 5000 4241 
L 5563 4103 
Q 5450 3944 5322 3778 
L 6231 3778 
L 6231 3153 
L 2113 3153 
L 2113 3778 
L 2863 3778 
L 2638 4109 
L 3228 4241 
L 2256 4241 
L 2256 4866 
L 3591 4866 
Q 3506 5028 3400 5209 
L 4438 5353 
Q 4509 5125 4575 4866 
L 6044 4866 
L 6044 4241 
z
M 3853 3778 
L 4350 3778 
Q 4506 4009 4625 4241 
L 3503 4241 
Q 3681 4041 3853 3778 
z
M 263 -328 
L 100 603 
L 706 775 
L 706 2997 
L 175 2997 
L 175 3853 
L 706 3853 
L 706 5328 
L 1544 5328 
L 1544 3853 
L 1981 3853 
L 1981 2997 
L 1544 2997 
L 1544 1025 
L 2094 1197 
Q 2081 981 2081 759 
Q 2081 538 2094 309 
Q 1213 16 263 -328 
z
M 2244 2878 
L 5894 2878 
L 5894 603 
L 5038 603 
L 5038 141 
Q 5038 -91 5269 -91 
Q 5441 -91 5512 7 
Q 5584 106 5619 584 
Q 5956 428 6319 322 
Q 6284 66 6212 -223 
Q 6141 -513 5908 -652 
Q 5675 -791 5281 -791 
L 5006 -791 
Q 4238 -791 4238 -97 
L 4238 603 
L 3841 603 
Q 3647 -478 2331 -909 
Q 2125 -622 1763 -178 
Q 2781 88 2994 603 
L 2244 603 
L 2244 2878 
z
M 5094 2291 
L 3044 2291 
L 3044 2009 
L 5094 2009 
L 5094 2291 
z
M 5094 1191 
L 5094 1472 
L 3044 1472 
L 3044 1191 
L 5094 1191 
z
" transform="scale(0.015625)"/>
     <path id="MicrosoftYaHei-Bold-7c" d="M 1500 -1622 
L 691 -1622 
L 691 5288 
L 1500 5288 
L 1500 -1622 
z
" transform="scale(0.015625)"/>
     <path id="MicrosoftYaHei-Bold-590d" d="M 5738 1528 
L 5738 1003 
Q 5091 600 4322 259 
Q 5197 78 6306 -16 
Q 6000 -428 5819 -791 
Q 4391 -569 3278 -153 
Q 2125 -559 744 -853 
Q 550 -541 275 -178 
Q 1394 3 2341 256 
Q 1872 500 1478 788 
Q 1069 416 581 116 
Q 363 391 75 691 
Q 925 1194 1459 1816 
L 844 1816 
L 844 3406 
Q 600 3128 325 2872 
Q 238 3266 94 3759 
Q 831 4484 1188 5334 
L 2063 5334 
Q 1978 5144 1888 4959 
L 6181 4959 
L 6181 4334 
L 1538 4334 
Q 1434 4172 1325 4016 
L 5738 4016 
L 5738 1816 
L 2372 1816 
Q 2272 1666 2163 1528 
L 5738 1528 
z
M 4906 3478 
L 1675 3478 
L 1675 3141 
L 4906 3141 
L 4906 3478 
z
M 4906 2353 
L 4906 2691 
L 1675 2691 
L 1675 2353 
L 4906 2353 
z
M 3269 541 
Q 3897 753 4438 1009 
L 2231 1009 
Q 2669 744 3269 541 
z
" transform="scale(0.015625)"/>
     <path id="MicrosoftYaHei-Bold-6742" d="M 5500 4203 
Q 5919 4078 6338 3978 
Q 6269 3328 6188 2984 
Q 6063 2453 5400 2453 
L 4600 2453 
Q 3900 2453 3900 3153 
L 3900 3997 
L 2781 3997 
Q 2588 2603 613 2141 
Q 419 2466 106 2884 
Q 1644 3172 1869 3997 
L 456 3997 
L 456 4753 
L 1981 4753 
Q 2006 5053 2006 5328 
L 2894 5328 
Q 2894 5084 2869 4753 
L 4800 4753 
L 4800 3459 
Q 4800 3203 5056 3203 
L 5206 3203 
Q 5394 3203 5431 3466 
Q 5469 3816 5500 4203 
z
M 188 2072 
L 2800 2072 
L 2800 2666 
L 3706 2666 
L 3706 2072 
L 6175 2072 
L 6175 1309 
L 3706 1309 
L 3706 159 
Q 3706 -684 2900 -766 
Q 2613 -797 2000 -803 
Q 1906 -334 1794 72 
Q 2200 41 2456 41 
Q 2800 41 2800 403 
L 2800 1309 
L 188 1309 
L 188 2072 
z
M 4000 597 
L 4519 1172 
Q 5425 628 6263 34 
L 5725 -634 
Q 4956 -34 4000 597 
z
M 1675 1166 
L 2263 559 
Q 1406 -84 538 -634 
Q 288 -247 63 66 
Q 963 566 1675 1166 
z
" transform="scale(0.015625)"/>
     <path id="MicrosoftYaHei-Bold-5ea6" d="M 5656 1697 
L 5656 1022 
Q 5156 447 4656 97 
Q 5344 -34 6306 -66 
Q 6119 -428 5938 -822 
Q 4556 -653 3719 -353 
Q 2825 -653 1494 -872 
Q 1338 -522 1088 -178 
Q 2100 -128 2888 78 
Q 2369 453 1938 1022 
L 1538 1022 
L 1538 1697 
L 5656 1697 
z
M 1325 2478 
Q 1338 134 700 -884 
Q 356 -553 19 -297 
Q 550 697 525 2591 
L 525 4772 
L 3013 4772 
Q 2944 4953 2831 5209 
L 3869 5359 
Q 3981 5072 4094 4772 
L 6256 4772 
L 6256 4072 
L 1325 4072 
L 1325 2478 
z
M 1463 3684 
L 2144 3684 
L 2144 3947 
L 2944 3947 
L 2944 3684 
L 4494 3684 
L 4494 3947 
L 5294 3947 
L 5294 3684 
L 6144 3684 
L 6144 3009 
L 5294 3009 
L 5294 1991 
L 2144 1991 
L 2144 3009 
L 1463 3009 
L 1463 3684 
z
M 3756 378 
Q 4325 641 4725 1022 
L 2825 1022 
Q 3225 622 3756 378 
z
M 4494 2628 
L 4494 3009 
L 2944 3009 
L 2944 2628 
L 4494 2628 
z
" transform="scale(0.015625)"/>
     <path id="MicrosoftYaHei-Bold-30" d="M 244 2341 
Q 244 3597 706 4259 
Q 1169 4922 2044 4922 
Q 3713 4922 3713 2453 
Q 3713 1238 3259 577 
Q 2806 -84 1950 -84 
Q 244 -84 244 2341 
z
M 1266 2366 
Q 1266 691 1981 691 
Q 2684 691 2684 2416 
Q 2684 4147 2000 4147 
Q 1266 4147 1266 2366 
z
" transform="scale(0.015625)"/>
     <path id="MicrosoftYaHei-Bold-2e" d="M 313 453 
Q 313 688 491 838 
Q 669 988 916 988 
Q 1166 988 1337 834 
Q 1509 681 1509 453 
Q 1509 213 1337 64 
Q 1166 -84 903 -84 
Q 659 -84 486 69 
Q 313 222 313 453 
z
" transform="scale(0.015625)"/>
     <path id="MicrosoftYaHei-Bold-37" d="M 3675 4225 
Q 3088 3172 2798 2528 
Q 2509 1884 2328 1275 
Q 2147 666 2050 0 
L 966 0 
Q 1122 947 1517 1917 
Q 1913 2888 2609 4009 
L 300 4009 
L 300 4841 
L 3675 4841 
L 3675 4225 
z
" transform="scale(0.015625)"/>
     <path id="MicrosoftYaHei-Bold-38" d="M 269 1303 
Q 269 1725 512 2053 
Q 756 2381 1219 2534 
Q 850 2719 648 3003 
Q 447 3288 447 3634 
Q 447 3997 645 4292 
Q 844 4588 1200 4755 
Q 1556 4922 1997 4922 
Q 2441 4922 2800 4758 
Q 3159 4594 3359 4298 
Q 3559 4003 3559 3647 
Q 3559 3309 3339 3018 
Q 3119 2728 2747 2559 
Q 3200 2403 3453 2076 
Q 3706 1750 3706 1313 
Q 3706 697 3228 309 
Q 2750 -78 1988 -78 
Q 1225 -78 747 309 
Q 269 697 269 1303 
z
M 1278 1394 
Q 1278 1056 1472 853 
Q 1666 650 1991 650 
Q 2303 650 2503 853 
Q 2703 1056 2703 1394 
Q 2703 1709 2500 1920 
Q 2297 2131 1991 2131 
Q 1675 2131 1476 1920 
Q 1278 1709 1278 1394 
z
M 1428 3531 
Q 1428 3266 1592 3077 
Q 1756 2888 2006 2888 
Q 2247 2888 2415 3072 
Q 2584 3256 2584 3531 
Q 2584 3806 2420 3997 
Q 2256 4188 2006 4188 
Q 1750 4188 1589 3997 
Q 1428 3806 1428 3531 
z
" transform="scale(0.015625)"/>
    </defs>
    <use xlink:href="#MicrosoftYaHei-Bold-28"/>
    <use xlink:href="#MicrosoftYaHei-Bold-73af" transform="translate(38.964844 0)"/>
    <use xlink:href="#MicrosoftYaHei-Bold-5883" transform="translate(138.964844 0)"/>
    <use xlink:href="#MicrosoftYaHei-Bold-3a" transform="translate(238.964844 0)"/>
    <use xlink:href="#MicrosoftYaHei-Bold-20" transform="translate(267.529297 0)"/>
    <use xlink:href="#MicrosoftYaHei-Bold-4f3d" transform="translate(297.314453 0)"/>
    <use xlink:href="#MicrosoftYaHei-Bold-9a6c" transform="translate(397.314453 0)"/>
    <use xlink:href="#MicrosoftYaHei-Bold-5206" transform="translate(497.314453 0)"/>
    <use xlink:href="#MicrosoftYaHei-Bold-5e03" transform="translate(597.314453 0)"/>
    <use xlink:href="#MicrosoftYaHei-Bold-28" transform="translate(697.314453 0)"/>
    <use xlink:href="#MicrosoftYaHei-Bold-5c16" transform="translate(736.279297 0)"/>
    <use xlink:href="#MicrosoftYaHei-Bold-5cf0" transform="translate(836.279297 0)"/>
    <use xlink:href="#MicrosoftYaHei-Bold-2c" transform="translate(936.279297 0)"/>
    <use xlink:href="#MicrosoftYaHei-Bold-73" transform="translate(964.84375 0)"/>
    <use xlink:href="#MicrosoftYaHei-Bold-68" transform="translate(1014.208984 0)"/>
    <use xlink:href="#MicrosoftYaHei-Bold-61" transform="translate(1078.759766 0)"/>
    <use xlink:href="#MicrosoftYaHei-Bold-70" transform="translate(1136.523438 0)"/>
    <use xlink:href="#MicrosoftYaHei-Bold-65" transform="translate(1203.125 0)"/>
    <use xlink:href="#MicrosoftYaHei-Bold-35" transform="translate(1261.328125 0)"/>
    <use xlink:href="#MicrosoftYaHei-Bold-2c" transform="translate(1322.998047 0)"/>
    <use xlink:href="#MicrosoftYaHei-Bold-73" transform="translate(1351.5625 0)"/>
    <use xlink:href="#MicrosoftYaHei-Bold-63" transform="translate(1400.927734 0)"/>
    <use xlink:href="#MicrosoftYaHei-Bold-61" transform="translate(1452.587891 0)"/>
    <use xlink:href="#MicrosoftYaHei-Bold-6c" transform="translate(1510.351562 0)"/>
    <use xlink:href="#MicrosoftYaHei-Bold-65" transform="translate(1539.941406 0)"/>
    <use xlink:href="#MicrosoftYaHei-Bold-32" transform="translate(1598.144531 0)"/>
    <use xlink:href="#MicrosoftYaHei-Bold-20" transform="translate(1659.814453 0)"/>
    <use xlink:href="#MicrosoftYaHei-Bold-7c" transform="translate(1689.599609 0)"/>
    <use xlink:href="#MicrosoftYaHei-Bold-20" transform="translate(1723.730469 0)"/>
    <use xlink:href="#MicrosoftYaHei-Bold-590d" transform="translate(1753.515625 0)"/>
    <use xlink:href="#MicrosoftYaHei-Bold-6742" transform="translate(1853.515625 0)"/>
    <use xlink:href="#MicrosoftYaHei-Bold-5ea6" transform="translate(1953.515625 0)"/>
    <use xlink:href="#MicrosoftYaHei-Bold-3a" transform="translate(2053.515625 0)"/>
    <use xlink:href="#MicrosoftYaHei-Bold-20" transform="translate(2082.080078 0)"/>
    <use xlink:href="#MicrosoftYaHei-Bold-30" transform="translate(2111.865234 0)"/>
    <use xlink:href="#MicrosoftYaHei-Bold-2e" transform="translate(2173.535156 0)"/>
    <use xlink:href="#MicrosoftYaHei-Bold-37" transform="translate(2202.099609 0)"/>
    <use xlink:href="#MicrosoftYaHei-Bold-38" transform="translate(2263.769531 0)"/>
    <use xlink:href="#MicrosoftYaHei-Bold-29" transform="translate(2325.439453 0)"/>
   </g>
  </g>
 </g>
 <defs>
  <clipPath id="p140200feec">
   <rect x="39.801563" y="82.520625" width="809.5" height="376.9525"/>
  </clipPath>
 </defs>
</svg>
