<?xml version="1.0" encoding="utf-8" standalone="no"?>
<!DOCTYPE svg PUBLIC "-//W3C//DTD SVG 1.1//EN"
  "http://www.w3.org/Graphics/SVG/1.1/DTD/svg11.dtd">
<svg xmlns:xlink="http://www.w3.org/1999/xlink" width="856.501562pt" height="497.537187pt" viewBox="0 0 856.501562 497.537187" xmlns="http://www.w3.org/2000/svg" version="1.1">
 <metadata>
  <rdf:RDF xmlns:dc="http://purl.org/dc/elements/1.1/" xmlns:cc="http://creativecommons.org/ns#" xmlns:rdf="http://www.w3.org/1999/02/22-rdf-syntax-ns#">
   <cc:Work>
    <dc:type rdf:resource="http://purl.org/dc/dcmitype/StillImage"/>
    <dc:date>2025-07-07T17:59:14.217845</dc:date>
    <dc:format>image/svg+xml</dc:format>
    <dc:creator>
     <cc:Agent>
      <dc:title>Matplotlib v3.10.3, https://matplotlib.org/</dc:title>
     </cc:Agent>
    </dc:creator>
   </cc:Work>
  </rdf:RDF>
 </metadata>
 <defs>
  <style type="text/css">*{stroke-linejoin: round; stroke-linecap: butt}</style>
 </defs>
 <g id="figure_1">
  <g id="patch_1">
   <path d="M 0 497.537187 
L 856.501562 497.537187 
L 856.501562 0 
L 0 0 
z
" style="fill: #ffffff"/>
  </g>
  <g id="axes_1">
   <g id="patch_2">
    <path d="M 39.801563 459.473125 
L 849.301563 459.473125 
L 849.301563 82.520625 
L 39.801563 82.520625 
z
" style="fill: #ffffff"/>
   </g>
   <g id="matplotlib.axis_1">
    <g id="xtick_1">
     <g id="line2d_1">
      <path d="M 140.989062 459.473125 
L 140.989062 82.520625 
" clip-path="url(#pa81e24d4da)" style="fill: none; stroke-dasharray: 2.96,1.28; stroke-dashoffset: 0; stroke: #cccccc; stroke-opacity: 0.6; stroke-width: 0.8"/>
     </g>
     <g id="text_1">
      <!-- Stage 1 -->
      <g style="fill: #262626" transform="translate(123.753906 473.752812) scale(0.1 -0.1)">
       <defs>
        <path id="ArialMT-53" d="M 288 1472 
L 859 1522 
Q 900 1178 1048 958 
Q 1197 738 1509 602 
Q 1822 466 2213 466 
Q 2559 466 2825 569 
Q 3091 672 3220 851 
Q 3350 1031 3350 1244 
Q 3350 1459 3225 1620 
Q 3100 1781 2813 1891 
Q 2628 1963 1997 2114 
Q 1366 2266 1113 2400 
Q 784 2572 623 2826 
Q 463 3081 463 3397 
Q 463 3744 659 4045 
Q 856 4347 1234 4503 
Q 1613 4659 2075 4659 
Q 2584 4659 2973 4495 
Q 3363 4331 3572 4012 
Q 3781 3694 3797 3291 
L 3216 3247 
Q 3169 3681 2898 3903 
Q 2628 4125 2100 4125 
Q 1550 4125 1298 3923 
Q 1047 3722 1047 3438 
Q 1047 3191 1225 3031 
Q 1400 2872 2139 2705 
Q 2878 2538 3153 2413 
Q 3553 2228 3743 1945 
Q 3934 1663 3934 1294 
Q 3934 928 3725 604 
Q 3516 281 3123 101 
Q 2731 -78 2241 -78 
Q 1619 -78 1198 103 
Q 778 284 539 648 
Q 300 1013 288 1472 
z
" transform="scale(0.015625)"/>
        <path id="ArialMT-74" d="M 1650 503 
L 1731 6 
Q 1494 -44 1306 -44 
Q 1000 -44 831 53 
Q 663 150 594 308 
Q 525 466 525 972 
L 525 2881 
L 113 2881 
L 113 3319 
L 525 3319 
L 525 4141 
L 1084 4478 
L 1084 3319 
L 1650 3319 
L 1650 2881 
L 1084 2881 
L 1084 941 
Q 1084 700 1114 631 
Q 1144 563 1211 522 
Q 1278 481 1403 481 
Q 1497 481 1650 503 
z
" transform="scale(0.015625)"/>
        <path id="ArialMT-61" d="M 2588 409 
Q 2275 144 1986 34 
Q 1697 -75 1366 -75 
Q 819 -75 525 192 
Q 231 459 231 875 
Q 231 1119 342 1320 
Q 453 1522 633 1644 
Q 813 1766 1038 1828 
Q 1203 1872 1538 1913 
Q 2219 1994 2541 2106 
Q 2544 2222 2544 2253 
Q 2544 2597 2384 2738 
Q 2169 2928 1744 2928 
Q 1347 2928 1158 2789 
Q 969 2650 878 2297 
L 328 2372 
Q 403 2725 575 2942 
Q 747 3159 1072 3276 
Q 1397 3394 1825 3394 
Q 2250 3394 2515 3294 
Q 2781 3194 2906 3042 
Q 3031 2891 3081 2659 
Q 3109 2516 3109 2141 
L 3109 1391 
Q 3109 606 3145 398 
Q 3181 191 3288 0 
L 2700 0 
Q 2613 175 2588 409 
z
M 2541 1666 
Q 2234 1541 1622 1453 
Q 1275 1403 1131 1340 
Q 988 1278 909 1158 
Q 831 1038 831 891 
Q 831 666 1001 516 
Q 1172 366 1500 366 
Q 1825 366 2078 508 
Q 2331 650 2450 897 
Q 2541 1088 2541 1459 
L 2541 1666 
z
" transform="scale(0.015625)"/>
        <path id="ArialMT-67" d="M 319 -275 
L 866 -356 
Q 900 -609 1056 -725 
Q 1266 -881 1628 -881 
Q 2019 -881 2231 -725 
Q 2444 -569 2519 -288 
Q 2563 -116 2559 434 
Q 2191 0 1641 0 
Q 956 0 581 494 
Q 206 988 206 1678 
Q 206 2153 378 2554 
Q 550 2956 876 3175 
Q 1203 3394 1644 3394 
Q 2231 3394 2613 2919 
L 2613 3319 
L 3131 3319 
L 3131 450 
Q 3131 -325 2973 -648 
Q 2816 -972 2473 -1159 
Q 2131 -1347 1631 -1347 
Q 1038 -1347 672 -1080 
Q 306 -813 319 -275 
z
M 784 1719 
Q 784 1066 1043 766 
Q 1303 466 1694 466 
Q 2081 466 2343 764 
Q 2606 1063 2606 1700 
Q 2606 2309 2336 2618 
Q 2066 2928 1684 2928 
Q 1309 2928 1046 2623 
Q 784 2319 784 1719 
z
" transform="scale(0.015625)"/>
        <path id="ArialMT-65" d="M 2694 1069 
L 3275 997 
Q 3138 488 2766 206 
Q 2394 -75 1816 -75 
Q 1088 -75 661 373 
Q 234 822 234 1631 
Q 234 2469 665 2931 
Q 1097 3394 1784 3394 
Q 2450 3394 2872 2941 
Q 3294 2488 3294 1666 
Q 3294 1616 3291 1516 
L 816 1516 
Q 847 969 1125 678 
Q 1403 388 1819 388 
Q 2128 388 2347 550 
Q 2566 713 2694 1069 
z
M 847 1978 
L 2700 1978 
Q 2663 2397 2488 2606 
Q 2219 2931 1791 2931 
Q 1403 2931 1139 2672 
Q 875 2413 847 1978 
z
" transform="scale(0.015625)"/>
        <path id="ArialMT-20" transform="scale(0.015625)"/>
        <path id="ArialMT-31" d="M 2384 0 
L 1822 0 
L 1822 3584 
Q 1619 3391 1289 3197 
Q 959 3003 697 2906 
L 697 3450 
Q 1169 3672 1522 3987 
Q 1875 4303 2022 4600 
L 2384 4600 
L 2384 0 
z
" transform="scale(0.015625)"/>
       </defs>
       <use xlink:href="#ArialMT-53"/>
       <use xlink:href="#ArialMT-74" transform="translate(66.699219 0)"/>
       <use xlink:href="#ArialMT-61" transform="translate(94.482422 0)"/>
       <use xlink:href="#ArialMT-67" transform="translate(150.097656 0)"/>
       <use xlink:href="#ArialMT-65" transform="translate(205.712891 0)"/>
       <use xlink:href="#ArialMT-20" transform="translate(261.328125 0)"/>
       <use xlink:href="#ArialMT-31" transform="translate(289.111328 0)"/>
      </g>
     </g>
    </g>
    <g id="xtick_2">
     <g id="line2d_2">
      <path d="M 343.364062 459.473125 
L 343.364062 82.520625 
" clip-path="url(#pa81e24d4da)" style="fill: none; stroke-dasharray: 2.96,1.28; stroke-dashoffset: 0; stroke: #cccccc; stroke-opacity: 0.6; stroke-width: 0.8"/>
     </g>
     <g id="text_2">
      <!-- Stage 2 -->
      <g style="fill: #262626" transform="translate(326.128906 473.752812) scale(0.1 -0.1)">
       <defs>
        <path id="ArialMT-32" d="M 3222 541 
L 3222 0 
L 194 0 
Q 188 203 259 391 
Q 375 700 629 1000 
Q 884 1300 1366 1694 
Q 2113 2306 2375 2664 
Q 2638 3022 2638 3341 
Q 2638 3675 2398 3904 
Q 2159 4134 1775 4134 
Q 1369 4134 1125 3890 
Q 881 3647 878 3216 
L 300 3275 
Q 359 3922 746 4261 
Q 1134 4600 1788 4600 
Q 2447 4600 2831 4234 
Q 3216 3869 3216 3328 
Q 3216 3053 3103 2787 
Q 2991 2522 2730 2228 
Q 2469 1934 1863 1422 
Q 1356 997 1212 845 
Q 1069 694 975 541 
L 3222 541 
z
" transform="scale(0.015625)"/>
       </defs>
       <use xlink:href="#ArialMT-53"/>
       <use xlink:href="#ArialMT-74" transform="translate(66.699219 0)"/>
       <use xlink:href="#ArialMT-61" transform="translate(94.482422 0)"/>
       <use xlink:href="#ArialMT-67" transform="translate(150.097656 0)"/>
       <use xlink:href="#ArialMT-65" transform="translate(205.712891 0)"/>
       <use xlink:href="#ArialMT-20" transform="translate(261.328125 0)"/>
       <use xlink:href="#ArialMT-32" transform="translate(289.111328 0)"/>
      </g>
     </g>
    </g>
    <g id="xtick_3">
     <g id="line2d_3">
      <path d="M 545.739063 459.473125 
L 545.739063 82.520625 
" clip-path="url(#pa81e24d4da)" style="fill: none; stroke-dasharray: 2.96,1.28; stroke-dashoffset: 0; stroke: #cccccc; stroke-opacity: 0.6; stroke-width: 0.8"/>
     </g>
     <g id="text_3">
      <!-- Stage 3 -->
      <g style="fill: #262626" transform="translate(528.503906 473.752812) scale(0.1 -0.1)">
       <defs>
        <path id="ArialMT-33" d="M 269 1209 
L 831 1284 
Q 928 806 1161 595 
Q 1394 384 1728 384 
Q 2125 384 2398 659 
Q 2672 934 2672 1341 
Q 2672 1728 2419 1979 
Q 2166 2231 1775 2231 
Q 1616 2231 1378 2169 
L 1441 2663 
Q 1497 2656 1531 2656 
Q 1891 2656 2178 2843 
Q 2466 3031 2466 3422 
Q 2466 3731 2256 3934 
Q 2047 4138 1716 4138 
Q 1388 4138 1169 3931 
Q 950 3725 888 3313 
L 325 3413 
Q 428 3978 793 4289 
Q 1159 4600 1703 4600 
Q 2078 4600 2393 4439 
Q 2709 4278 2876 4000 
Q 3044 3722 3044 3409 
Q 3044 3113 2884 2869 
Q 2725 2625 2413 2481 
Q 2819 2388 3044 2092 
Q 3269 1797 3269 1353 
Q 3269 753 2831 336 
Q 2394 -81 1725 -81 
Q 1122 -81 723 278 
Q 325 638 269 1209 
z
" transform="scale(0.015625)"/>
       </defs>
       <use xlink:href="#ArialMT-53"/>
       <use xlink:href="#ArialMT-74" transform="translate(66.699219 0)"/>
       <use xlink:href="#ArialMT-61" transform="translate(94.482422 0)"/>
       <use xlink:href="#ArialMT-67" transform="translate(150.097656 0)"/>
       <use xlink:href="#ArialMT-65" transform="translate(205.712891 0)"/>
       <use xlink:href="#ArialMT-20" transform="translate(261.328125 0)"/>
       <use xlink:href="#ArialMT-33" transform="translate(289.111328 0)"/>
      </g>
     </g>
    </g>
    <g id="xtick_4">
     <g id="line2d_4">
      <path d="M 748.114063 459.473125 
L 748.114063 82.520625 
" clip-path="url(#pa81e24d4da)" style="fill: none; stroke-dasharray: 2.96,1.28; stroke-dashoffset: 0; stroke: #cccccc; stroke-opacity: 0.6; stroke-width: 0.8"/>
     </g>
     <g id="text_4">
      <!-- Stage 4 -->
      <g style="fill: #262626" transform="translate(730.878906 473.752812) scale(0.1 -0.1)">
       <defs>
        <path id="ArialMT-34" d="M 2069 0 
L 2069 1097 
L 81 1097 
L 81 1613 
L 2172 4581 
L 2631 4581 
L 2631 1613 
L 3250 1613 
L 3250 1097 
L 2631 1097 
L 2631 0 
L 2069 0 
z
M 2069 1613 
L 2069 3678 
L 634 1613 
L 2069 1613 
z
" transform="scale(0.015625)"/>
       </defs>
       <use xlink:href="#ArialMT-53"/>
       <use xlink:href="#ArialMT-74" transform="translate(66.699219 0)"/>
       <use xlink:href="#ArialMT-61" transform="translate(94.482422 0)"/>
       <use xlink:href="#ArialMT-67" transform="translate(150.097656 0)"/>
       <use xlink:href="#ArialMT-65" transform="translate(205.712891 0)"/>
       <use xlink:href="#ArialMT-20" transform="translate(261.328125 0)"/>
       <use xlink:href="#ArialMT-34" transform="translate(289.111328 0)"/>
      </g>
     </g>
    </g>
    <g id="text_5">
     <!-- 训练阶段 -->
     <g style="fill: #262626" transform="translate(424.551562 487.85125) scale(0.1 -0.1)">
      <defs>
       <path id="MicrosoftYaHei-8bad" d="M 2581 5178 
L 3056 5178 
L 3056 2722 
Q 3056 1272 2831 466 
Q 2613 -297 1981 -872 
Q 1769 -678 1550 -534 
Q 2156 -66 2375 647 
Q 2581 1353 2581 2678 
L 2581 5178 
z
M 5506 5184 
L 5981 5184 
L 5981 -772 
L 5506 -772 
L 5506 5184 
z
M 4038 4953 
L 4513 4953 
L 4513 -403 
L 4038 -403 
L 4038 4953 
z
M 2025 1372 
Q 2025 1059 2069 784 
Q 1438 247 913 -284 
L 625 116 
Q 838 316 838 691 
L 838 2803 
L 81 2803 
L 81 3253 
L 1313 3253 
L 1313 709 
Q 1650 1009 2025 1372 
z
M 875 5191 
Q 1438 4628 1850 4166 
L 1413 3797 
Q 1031 4303 500 4872 
L 875 5191 
z
" transform="scale(0.015625)"/>
       <path id="MicrosoftYaHei-7ec3" d="M 2363 3403 
L 3059 3403 
Q 3203 3781 3344 4197 
L 2213 4197 
L 2213 4622 
L 3488 4622 
Q 3603 4975 3719 5353 
L 4219 5253 
Q 4109 4931 4000 4622 
L 6000 4622 
L 6000 4197 
L 3847 4197 
Q 3700 3791 3553 3403 
L 4763 3403 
L 4763 2016 
L 6025 2016 
L 6025 1591 
L 4763 1591 
L 4763 3 
Q 4763 -734 4056 -734 
Q 3788 -734 3369 -728 
Q 3331 -516 3263 -241 
Q 3638 -284 3931 -284 
Q 4300 -284 4300 109 
L 4300 1591 
L 2475 1591 
L 2475 1997 
Q 2688 2450 2897 2978 
L 2363 2978 
L 2363 3403 
z
M 888 1566 
Q 1531 1659 2219 1778 
Q 2181 1547 2163 1297 
Q 1600 1216 319 1003 
L 219 1472 
Q 669 1969 1175 2794 
Q 666 2763 219 2722 
L 100 3147 
Q 700 3966 1294 5366 
L 1750 5178 
Q 1088 3878 644 3184 
Q 1078 3194 1419 3203 
Q 1669 3638 1931 4147 
L 2388 3916 
Q 1656 2659 888 1566 
z
M 3013 2016 
L 4300 2016 
L 4300 2978 
L 3394 2978 
Q 3203 2484 3013 2016 
z
M 94 122 
Q 1031 291 2219 559 
Q 2200 316 2206 78 
Q 1231 -103 219 -353 
L 94 122 
z
M 3194 1272 
L 3638 1066 
Q 3194 203 2700 -547 
Q 2500 -397 2275 -278 
Q 2813 459 3194 1272 
z
M 5094 1041 
L 5500 1278 
Q 5963 578 6381 -122 
L 5950 -391 
Q 5544 366 5094 1041 
z
" transform="scale(0.015625)"/>
       <path id="MicrosoftYaHei-9636" d="M 2213 1816 
Q 2388 616 1644 484 
Q 1406 441 1031 478 
Q 981 734 913 991 
Q 1206 916 1475 941 
Q 1894 991 1744 1797 
Q 1669 2222 1188 2853 
Q 1419 3616 1688 4578 
L 863 4578 
L 863 -853 
L 400 -853 
L 400 5016 
L 2194 5016 
L 2194 4578 
Q 1906 3672 1663 2934 
Q 2144 2284 2213 1816 
z
M 3469 2834 
L 3469 1841 
Q 3469 78 2450 -897 
Q 2269 -734 2031 -572 
Q 2994 297 2994 1859 
L 2994 2834 
L 3469 2834 
z
M 4806 2834 
L 5281 2834 
L 5281 -822 
L 4806 -822 
L 4806 2834 
z
M 4475 5278 
L 4388 5078 
Q 5169 3653 6338 3134 
Q 6175 2947 5994 2697 
Q 4856 3384 4144 4634 
Q 3494 3472 2356 2609 
Q 2206 2828 2031 3003 
Q 3244 3809 3981 5278 
L 4475 5278 
z
" transform="scale(0.015625)"/>
       <path id="MicrosoftYaHei-6bb5" d="M 2844 1978 
L 2844 2422 
L 5763 2422 
L 5763 1953 
Q 5397 1069 4731 416 
Q 5378 -63 6338 -266 
Q 6144 -516 6019 -747 
Q 5031 -456 4359 88 
Q 3638 -488 2631 -853 
Q 2450 -559 2331 -422 
Q 3313 -75 3997 428 
Q 3400 1069 3138 1978 
L 2844 1978 
z
M 88 722 
Q 325 744 569 769 
L 569 4897 
Q 1931 4972 2719 5116 
L 2888 4653 
Q 2175 4559 1031 4484 
L 1031 3616 
L 2613 3616 
L 2613 3203 
L 1031 3203 
L 1031 2259 
L 2594 2259 
L 2594 1847 
L 1031 1847 
L 1031 819 
Q 1891 916 2838 1041 
Q 2831 916 2831 591 
Q 1894 484 1031 366 
L 1031 -816 
L 569 -816 
L 569 303 
Q 381 275 200 247 
L 88 722 
z
M 5738 3209 
Q 5981 3209 6306 3228 
L 6219 2759 
Q 5906 2747 5625 2747 
Q 4988 2747 4988 3459 
L 4988 4553 
L 3831 4553 
L 3831 4216 
Q 3831 3053 2938 2522 
Q 2781 2709 2600 2909 
Q 3363 3272 3363 4241 
L 3363 4997 
L 5456 4997 
L 5456 3497 
Q 5456 3209 5738 3209 
z
M 5256 1978 
L 3613 1978 
Q 3863 1241 4363 731 
Q 4956 1275 5256 1978 
z
" transform="scale(0.015625)"/>
      </defs>
      <use xlink:href="#MicrosoftYaHei-8bad"/>
      <use xlink:href="#MicrosoftYaHei-7ec3" transform="translate(100 0)"/>
      <use xlink:href="#MicrosoftYaHei-9636" transform="translate(200 0)"/>
      <use xlink:href="#MicrosoftYaHei-6bb5" transform="translate(300 0)"/>
     </g>
    </g>
   </g>
   <g id="matplotlib.axis_2">
    <g id="ytick_1">
     <g id="line2d_5">
      <path d="M 39.801563 409.9451 
L 849.301563 409.9451 
" clip-path="url(#pa81e24d4da)" style="fill: none; stroke-dasharray: 2.96,1.28; stroke-dashoffset: 0; stroke: #cccccc; stroke-opacity: 0.6; stroke-width: 0.8"/>
     </g>
     <g id="text_6">
      <!-- 15 -->
      <g style="fill: #262626" transform="translate(21.679688 413.524006) scale(0.1 -0.1)">
       <defs>
        <path id="ArialMT-35" d="M 266 1200 
L 856 1250 
Q 922 819 1161 601 
Q 1400 384 1738 384 
Q 2144 384 2425 690 
Q 2706 997 2706 1503 
Q 2706 1984 2436 2262 
Q 2166 2541 1728 2541 
Q 1456 2541 1237 2417 
Q 1019 2294 894 2097 
L 366 2166 
L 809 4519 
L 3088 4519 
L 3088 3981 
L 1259 3981 
L 1013 2750 
Q 1425 3038 1878 3038 
Q 2478 3038 2890 2622 
Q 3303 2206 3303 1553 
Q 3303 931 2941 478 
Q 2500 -78 1738 -78 
Q 1113 -78 717 272 
Q 322 622 266 1200 
z
" transform="scale(0.015625)"/>
       </defs>
       <use xlink:href="#ArialMT-31"/>
       <use xlink:href="#ArialMT-35" transform="translate(55.615234 0)"/>
      </g>
     </g>
    </g>
    <g id="ytick_2">
     <g id="line2d_6">
      <path d="M 39.801563 348.835521 
L 849.301563 348.835521 
" clip-path="url(#pa81e24d4da)" style="fill: none; stroke-dasharray: 2.96,1.28; stroke-dashoffset: 0; stroke: #cccccc; stroke-opacity: 0.6; stroke-width: 0.8"/>
     </g>
     <g id="text_7">
      <!-- 20 -->
      <g style="fill: #262626" transform="translate(21.679688 352.414428) scale(0.1 -0.1)">
       <defs>
        <path id="ArialMT-30" d="M 266 2259 
Q 266 3072 433 3567 
Q 600 4063 929 4331 
Q 1259 4600 1759 4600 
Q 2128 4600 2406 4451 
Q 2684 4303 2865 4023 
Q 3047 3744 3150 3342 
Q 3253 2941 3253 2259 
Q 3253 1453 3087 958 
Q 2922 463 2592 192 
Q 2263 -78 1759 -78 
Q 1097 -78 719 397 
Q 266 969 266 2259 
z
M 844 2259 
Q 844 1131 1108 757 
Q 1372 384 1759 384 
Q 2147 384 2411 759 
Q 2675 1134 2675 2259 
Q 2675 3391 2411 3762 
Q 2147 4134 1753 4134 
Q 1366 4134 1134 3806 
Q 844 3388 844 2259 
z
" transform="scale(0.015625)"/>
       </defs>
       <use xlink:href="#ArialMT-32"/>
       <use xlink:href="#ArialMT-30" transform="translate(55.615234 0)"/>
      </g>
     </g>
    </g>
    <g id="ytick_3">
     <g id="line2d_7">
      <path d="M 39.801563 287.725942 
L 849.301563 287.725942 
" clip-path="url(#pa81e24d4da)" style="fill: none; stroke-dasharray: 2.96,1.28; stroke-dashoffset: 0; stroke: #cccccc; stroke-opacity: 0.6; stroke-width: 0.8"/>
     </g>
     <g id="text_8">
      <!-- 25 -->
      <g style="fill: #262626" transform="translate(21.679688 291.304849) scale(0.1 -0.1)">
       <use xlink:href="#ArialMT-32"/>
       <use xlink:href="#ArialMT-35" transform="translate(55.615234 0)"/>
      </g>
     </g>
    </g>
    <g id="ytick_4">
     <g id="line2d_8">
      <path d="M 39.801563 226.616363 
L 849.301563 226.616363 
" clip-path="url(#pa81e24d4da)" style="fill: none; stroke-dasharray: 2.96,1.28; stroke-dashoffset: 0; stroke: #cccccc; stroke-opacity: 0.6; stroke-width: 0.8"/>
     </g>
     <g id="text_9">
      <!-- 30 -->
      <g style="fill: #262626" transform="translate(21.679688 230.19527) scale(0.1 -0.1)">
       <use xlink:href="#ArialMT-33"/>
       <use xlink:href="#ArialMT-30" transform="translate(55.615234 0)"/>
      </g>
     </g>
    </g>
    <g id="ytick_5">
     <g id="line2d_9">
      <path d="M 39.801563 165.506784 
L 849.301563 165.506784 
" clip-path="url(#pa81e24d4da)" style="fill: none; stroke-dasharray: 2.96,1.28; stroke-dashoffset: 0; stroke: #cccccc; stroke-opacity: 0.6; stroke-width: 0.8"/>
     </g>
     <g id="text_10">
      <!-- 35 -->
      <g style="fill: #262626" transform="translate(21.679688 169.085691) scale(0.1 -0.1)">
       <use xlink:href="#ArialMT-33"/>
       <use xlink:href="#ArialMT-35" transform="translate(55.615234 0)"/>
      </g>
     </g>
    </g>
    <g id="ytick_6">
     <g id="line2d_10">
      <path d="M 39.801563 104.397205 
L 849.301563 104.397205 
" clip-path="url(#pa81e24d4da)" style="fill: none; stroke-dasharray: 2.96,1.28; stroke-dashoffset: 0; stroke: #cccccc; stroke-opacity: 0.6; stroke-width: 0.8"/>
     </g>
     <g id="text_11">
      <!-- 40 -->
      <g style="fill: #262626" transform="translate(21.679688 107.976112) scale(0.1 -0.1)">
       <use xlink:href="#ArialMT-34"/>
       <use xlink:href="#ArialMT-30" transform="translate(55.615234 0)"/>
      </g>
     </g>
    </g>
    <g id="text_12">
     <!-- 奖励 -->
     <g style="fill: #262626" transform="translate(15.19375 280.996875) rotate(-90) scale(0.1 -0.1)">
      <defs>
       <path id="MicrosoftYaHei-5956" d="M 6306 -284 
Q 6119 -528 5944 -803 
Q 4031 -491 3197 859 
Q 2550 -472 406 -878 
Q 281 -666 100 -403 
Q 2175 -84 2709 972 
L 225 972 
L 225 1403 
L 2900 1403 
Q 2969 1600 3019 1822 
L 3531 1822 
Q 3484 1603 3422 1403 
L 6200 1403 
L 6200 972 
L 3647 972 
Q 4472 -169 6306 -284 
z
M 2388 3553 
Q 3181 4228 3588 5334 
L 4056 5241 
Q 3941 4938 3803 4666 
L 5988 4666 
L 5988 4278 
Q 5181 2359 2788 1853 
Q 2706 2072 2531 2316 
Q 3434 2463 4094 2831 
Q 3688 3222 3288 3516 
L 3588 3822 
Q 4056 3481 4491 3084 
Q 5116 3550 5463 4266 
L 3588 4266 
Q 3228 3666 2763 3234 
Q 2588 3428 2388 3553 
z
M 1744 5291 
L 2231 5291 
L 2231 1728 
L 1744 1728 
L 1744 2925 
Q 1231 2694 256 2253 
L 94 2747 
Q 991 3088 1744 3425 
L 1744 5291 
z
M 281 4584 
L 588 4891 
Q 1088 4503 1513 4072 
L 1169 3741 
Q 700 4253 281 4584 
z
" transform="scale(0.015625)"/>
       <path id="MicrosoftYaHei-52b1" d="M 3756 3997 
L 4303 3997 
Q 4316 4669 4319 5297 
L 4775 5297 
Q 4763 4559 4750 3997 
L 6031 3997 
Q 5963 1203 5925 278 
Q 5888 -678 5169 -678 
Q 4969 -678 4444 -666 
Q 4406 -378 4350 -134 
Q 4856 -178 5081 -178 
Q 5425 -178 5456 272 
Q 5513 1266 5563 3528 
L 4741 3528 
Q 4731 3028 4725 2716 
Q 4688 334 3600 -859 
Q 3469 -666 3281 -447 
Q 4238 634 4275 2634 
Q 4288 3091 4297 3528 
L 3756 3528 
L 3756 3997 
z
M 1225 3728 
L 3563 3728 
L 3563 3291 
L 2194 3291 
Q 2184 2784 2172 2372 
L 3375 2372 
Q 3319 766 3275 91 
Q 3206 -628 2581 -628 
Q 2406 -628 2050 -622 
Q 2013 -416 1956 -159 
Q 2306 -197 2475 -197 
Q 2819 -203 2850 216 
Q 2894 797 2931 1959 
L 2153 1959 
Q 2125 1378 2081 1034 
Q 1969 -3 1300 -828 
Q 1175 -659 981 -453 
Q 1531 209 1644 1097 
Q 1728 1641 1756 3291 
L 1225 3291 
L 1225 3728 
z
M 1044 4472 
L 1044 2166 
Q 1044 147 475 -809 
Q 306 -647 94 -478 
Q 588 341 588 2184 
L 588 4909 
L 3663 4909 
L 3663 4472 
L 1044 4472 
z
" transform="scale(0.015625)"/>
      </defs>
      <use xlink:href="#MicrosoftYaHei-5956"/>
      <use xlink:href="#MicrosoftYaHei-52b1" transform="translate(100 0)"/>
     </g>
    </g>
   </g>
   <g id="FillBetweenPolyCollection_1">
    <defs>
     <path id="mb06035f546" d="M 141.600665 -67.85199 
L 140.37746 -67.85199 
L 140.074316 -70.91738 
L 139.667012 -73.982769 
L 139.140217 -77.048159 
L 138.48305 -80.113549 
L 137.690134 -83.178938 
L 136.761347 -86.244328 
L 135.700128 -89.309718 
L 134.510747 -92.375107 
L 133.195431 -95.440497 
L 131.7525 -98.505887 
L 130.176439 -101.571276 
L 128.460202 -104.636666 
L 126.599084 -107.702056 
L 124.594687 -110.767445 
L 122.457209 -113.832835 
L 120.204664 -116.898225 
L 117.85878 -119.963614 
L 115.438661 -123.029004 
L 112.95443 -126.094394 
L 110.403404 -129.159783 
L 107.770729 -132.225173 
L 105.034983 -135.290562 
L 102.177578 -138.355952 
L 99.193441 -141.421342 
L 96.099942 -144.486731 
L 92.941477 -147.552121 
L 89.788307 -150.617511 
L 86.72982 -153.6829 
L 83.863704 -156.74829 
L 81.283414 -159.81368 
L 79.066458 -162.879069 
L 77.265569 -165.944459 
L 75.903938 -169.009849 
L 74.974595 -172.075238 
L 74.443096 -175.140628 
L 74.252148 -178.206018 
L 74.326795 -181.271407 
L 74.579388 -184.336797 
L 74.91439 -187.402187 
L 75.233883 -190.467576 
L 75.4449 -193.532966 
L 75.469172 -196.598355 
L 75.254742 -199.663745 
L 74.787326 -202.729135 
L 74.098328 -205.794524 
L 73.266301 -208.859914 
L 72.409939 -211.925304 
L 71.672911 -214.990693 
L 71.203339 -218.056083 
L 71.132486 -221.121473 
L 71.557499 -224.186862 
L 72.531752 -227.252252 
L 74.063947 -230.317642 
L 76.124504 -233.383031 
L 78.656051 -236.448421 
L 81.584391 -239.513811 
L 84.827256 -242.5792 
L 88.299873 -245.64459 
L 91.91792 -248.70998 
L 95.599405 -251.775369 
L 99.266872 -254.840759 
L 102.850516 -257.906148 
L 106.29176 -260.971538 
L 109.546164 -264.036928 
L 112.584516 -267.102317 
L 115.391573 -270.167707 
L 117.962824 -273.233097 
L 120.300366 -276.298486 
L 122.409274 -279.363876 
L 124.295474 -282.429266 
L 125.965483 -285.494655 
L 127.427567 -288.560045 
L 128.693421 -291.625435 
L 129.77936 -294.690824 
L 130.706371 -297.756214 
L 131.498876 -300.821604 
L 132.182583 -303.886993 
L 132.78208 -306.952383 
L 133.318864 -310.017773 
L 133.81026 -313.083162 
L 134.269363 -316.148552 
L 134.705812 -319.213941 
L 135.126988 -322.279331 
L 135.539141 -325.344721 
L 135.948065 -328.41011 
L 136.359102 -331.4755 
L 136.776521 -334.54089 
L 137.202523 -337.606279 
L 137.636271 -340.671669 
L 138.073348 -343.737059 
L 138.505919 -346.802448 
L 138.923671 -349.867838 
L 139.315339 -352.933228 
L 139.670478 -355.998617 
L 139.981058 -359.064007 
L 140.242519 -362.129397 
L 140.454128 -365.194786 
L 140.618631 -368.260176 
L 140.741394 -371.325566 
L 141.236731 -371.325566 
L 141.236731 -371.325566 
L 141.359494 -368.260176 
L 141.523997 -365.194786 
L 141.735606 -362.129397 
L 141.997067 -359.064007 
L 142.307647 -355.998617 
L 142.662786 -352.933228 
L 143.054454 -349.867838 
L 143.472206 -346.802448 
L 143.904777 -343.737059 
L 144.341854 -340.671669 
L 144.775602 -337.606279 
L 145.201604 -334.54089 
L 145.619023 -331.4755 
L 146.03006 -328.41011 
L 146.438984 -325.344721 
L 146.851137 -322.279331 
L 147.272313 -319.213941 
L 147.708762 -316.148552 
L 148.167865 -313.083162 
L 148.659261 -310.017773 
L 149.196045 -306.952383 
L 149.795542 -303.886993 
L 150.479249 -300.821604 
L 151.271754 -297.756214 
L 152.198765 -294.690824 
L 153.284704 -291.625435 
L 154.550558 -288.560045 
L 156.012642 -285.494655 
L 157.682651 -282.429266 
L 159.568851 -279.363876 
L 161.677759 -276.298486 
L 164.015301 -273.233097 
L 166.586552 -270.167707 
L 169.393609 -267.102317 
L 172.431961 -264.036928 
L 175.686365 -260.971538 
L 179.127609 -257.906148 
L 182.711253 -254.840759 
L 186.37872 -251.775369 
L 190.060205 -248.70998 
L 193.678252 -245.64459 
L 197.150869 -242.5792 
L 200.393734 -239.513811 
L 203.322074 -236.448421 
L 205.853621 -233.383031 
L 207.914178 -230.317642 
L 209.446373 -227.252252 
L 210.420626 -224.186862 
L 210.845639 -221.121473 
L 210.774786 -218.056083 
L 210.305214 -214.990693 
L 209.568186 -211.925304 
L 208.711824 -208.859914 
L 207.879797 -205.794524 
L 207.190799 -202.729135 
L 206.723383 -199.663745 
L 206.508953 -196.598355 
L 206.533225 -193.532966 
L 206.744242 -190.467576 
L 207.063735 -187.402187 
L 207.398737 -184.336797 
L 207.65133 -181.271407 
L 207.725977 -178.206018 
L 207.535029 -175.140628 
L 207.00353 -172.075238 
L 206.074187 -169.009849 
L 204.712556 -165.944459 
L 202.911667 -162.879069 
L 200.694711 -159.81368 
L 198.114421 -156.74829 
L 195.248305 -153.6829 
L 192.189818 -150.617511 
L 189.036648 -147.552121 
L 185.878183 -144.486731 
L 182.784684 -141.421342 
L 179.800547 -138.355952 
L 176.943142 -135.290562 
L 174.207396 -132.225173 
L 171.574721 -129.159783 
L 169.023695 -126.094394 
L 166.539464 -123.029004 
L 164.119345 -119.963614 
L 161.773461 -116.898225 
L 159.520916 -113.832835 
L 157.383438 -110.767445 
L 155.379041 -107.702056 
L 153.517923 -104.636666 
L 151.801686 -101.571276 
L 150.225625 -98.505887 
L 148.782694 -95.440497 
L 147.467378 -92.375107 
L 146.277997 -89.309718 
L 145.216778 -86.244328 
L 144.287991 -83.178938 
L 143.495075 -80.113549 
L 142.837908 -77.048159 
L 142.311113 -73.982769 
L 141.903809 -70.91738 
L 141.600665 -67.85199 
z
" style="stroke: #3f3f3f; stroke-width: 1.25"/>
    </defs>
    <g clip-path="url(#pa81e24d4da)">
     <use xlink:href="#mb06035f546" x="0" y="497.537187" style="fill: #3274a1; stroke: #3f3f3f; stroke-width: 1.25"/>
    </g>
   </g>
   <g id="FillBetweenPolyCollection_2">
    <defs>
     <path id="mb8055e68c1" d="M 343.725896 -68.183412 
L 343.002229 -68.183412 
L 342.805738 -71.513705 
L 342.538805 -74.843997 
L 342.193974 -78.17429 
L 341.76981 -81.504582 
L 341.27182 -84.834874 
L 340.711458 -88.165167 
L 340.10304 -91.495459 
L 339.45903 -94.825752 
L 338.784907 -98.156044 
L 338.075139 -101.486336 
L 337.311542 -104.816629 
L 336.464609 -108.146921 
L 335.497379 -111.477213 
L 334.370684 -114.807506 
L 333.048311 -118.137798 
L 331.50093 -121.468091 
L 329.708314 -124.798383 
L 327.660131 -128.128675 
L 325.355981 -131.458968 
L 322.805362 -134.78926 
L 320.027889 -138.119552 
L 317.053537 -141.449845 
L 313.922354 -144.780137 
L 310.682954 -148.11043 
L 307.389411 -151.440722 
L 304.096719 -154.771014 
L 300.855609 -158.101307 
L 297.708037 -161.431599 
L 294.684666 -164.761891 
L 291.805228 -168.092184 
L 289.081559 -171.422476 
L 286.521877 -174.752769 
L 284.134018 -178.083061 
L 281.925497 -181.413353 
L 279.899644 -184.743646 
L 278.049363 -188.073938 
L 276.352167 -191.40423 
L 274.770837 -194.734523 
L 273.262477 -198.064815 
L 271.795174 -201.395108 
L 270.367311 -204.7254 
L 269.021998 -208.055692 
L 267.84955 -211.385985 
L 266.974896 -214.716277 
L 266.532505 -218.04657 
L 266.6365 -221.376862 
L 267.355624 -224.707154 
L 268.700667 -228.037447 
L 270.627002 -231.367739 
L 273.049262 -234.698031 
L 275.86143 -238.028324 
L 278.955131 -241.358616 
L 282.231305 -244.688909 
L 285.604282 -248.019201 
L 289.000475 -251.349493 
L 292.355427 -254.679786 
L 295.612315 -258.010078 
L 298.723259 -261.34037 
L 301.65281 -264.670663 
L 304.381796 -268.000955 
L 306.909552 -271.331248 
L 309.253287 -274.66154 
L 311.44437 -277.991832 
L 313.522292 -281.322125 
L 315.5276 -284.652417 
L 317.495225 -287.982709 
L 319.449337 -291.313002 
L 321.400455 -294.643294 
L 323.344998 -297.973587 
L 325.267018 -301.303879 
L 327.141605 -304.634171 
L 328.939237 -307.964464 
L 330.630411 -311.294756 
L 332.18991 -314.625048 
L 333.600173 -317.955341 
L 334.853339 -321.285633 
L 335.951701 -324.615926 
L 336.906467 -327.946218 
L 337.735054 -331.27651 
L 338.45743 -334.606803 
L 339.092358 -337.937095 
L 339.654462 -341.267388 
L 340.152913 -344.59768 
L 340.592001 -347.927972 
L 340.973291 -351.258265 
L 341.298449 -354.588557 
L 341.571618 -357.918849 
L 341.800446 -361.249142 
L 341.995419 -364.579434 
L 342.167871 -367.909727 
L 342.327537 -371.240019 
L 342.480608 -374.570311 
L 342.62897 -377.900604 
L 342.770763 -381.230896 
L 342.901901 -384.561188 
L 343.017909 -387.891481 
L 343.115449 -391.221773 
L 343.193164 -394.552066 
L 343.251774 -397.882358 
L 343.476351 -397.882358 
L 343.476351 -397.882358 
L 343.534961 -394.552066 
L 343.612676 -391.221773 
L 343.710216 -387.891481 
L 343.826224 -384.561188 
L 343.957362 -381.230896 
L 344.099155 -377.900604 
L 344.247517 -374.570311 
L 344.400588 -371.240019 
L 344.560254 -367.909727 
L 344.732706 -364.579434 
L 344.927679 -361.249142 
L 345.156507 -357.918849 
L 345.429676 -354.588557 
L 345.754834 -351.258265 
L 346.136124 -347.927972 
L 346.575212 -344.59768 
L 347.073663 -341.267388 
L 347.635767 -337.937095 
L 348.270695 -334.606803 
L 348.993071 -331.27651 
L 349.821658 -327.946218 
L 350.776424 -324.615926 
L 351.874786 -321.285633 
L 353.127952 -317.955341 
L 354.538215 -314.625048 
L 356.097714 -311.294756 
L 357.788888 -307.964464 
L 359.58652 -304.634171 
L 361.461107 -301.303879 
L 363.383127 -297.973587 
L 365.32767 -294.643294 
L 367.278788 -291.313002 
L 369.2329 -287.982709 
L 371.200525 -284.652417 
L 373.205833 -281.322125 
L 375.283755 -277.991832 
L 377.474838 -274.66154 
L 379.818573 -271.331248 
L 382.346329 -268.000955 
L 385.075315 -264.670663 
L 388.004866 -261.34037 
L 391.11581 -258.010078 
L 394.372698 -254.679786 
L 397.72765 -251.349493 
L 401.123843 -248.019201 
L 404.49682 -244.688909 
L 407.772994 -241.358616 
L 410.866695 -238.028324 
L 413.678863 -234.698031 
L 416.101123 -231.367739 
L 418.027458 -228.037447 
L 419.372501 -224.707154 
L 420.091625 -221.376862 
L 420.19562 -218.04657 
L 419.753229 -214.716277 
L 418.878575 -211.385985 
L 417.706127 -208.055692 
L 416.360814 -204.7254 
L 414.932951 -201.395108 
L 413.465648 -198.064815 
L 411.957288 -194.734523 
L 410.375958 -191.40423 
L 408.678762 -188.073938 
L 406.828481 -184.743646 
L 404.802628 -181.413353 
L 402.594107 -178.083061 
L 400.206248 -174.752769 
L 397.646566 -171.422476 
L 394.922897 -168.092184 
L 392.043459 -164.761891 
L 389.020088 -161.431599 
L 385.872516 -158.101307 
L 382.631406 -154.771014 
L 379.338714 -151.440722 
L 376.045171 -148.11043 
L 372.805771 -144.780137 
L 369.674588 -141.449845 
L 366.700236 -138.119552 
L 363.922763 -134.78926 
L 361.372144 -131.458968 
L 359.067994 -128.128675 
L 357.019811 -124.798383 
L 355.227195 -121.468091 
L 353.679814 -118.137798 
L 352.357441 -114.807506 
L 351.230746 -111.477213 
L 350.263516 -108.146921 
L 349.416583 -104.816629 
L 348.652986 -101.486336 
L 347.943218 -98.156044 
L 347.269095 -94.825752 
L 346.625085 -91.495459 
L 346.016667 -88.165167 
L 345.456305 -84.834874 
L 344.958315 -81.504582 
L 344.534151 -78.17429 
L 344.18932 -74.843997 
L 343.922387 -71.513705 
L 343.725896 -68.183412 
z
" style="stroke: #3f3f3f; stroke-width: 1.25"/>
    </defs>
    <g clip-path="url(#pa81e24d4da)">
     <use xlink:href="#mb8055e68c1" x="0" y="497.537187" style="fill: #3274a1; stroke: #3f3f3f; stroke-width: 1.25"/>
    </g>
   </g>
   <g id="FillBetweenPolyCollection_3">
    <defs>
     <path id="m18afec0940" d="M 546.36901 -81.085094 
L 545.109115 -81.085094 
L 544.811176 -84.018947 
L 544.414369 -86.9528 
L 543.904495 -89.886654 
L 543.271989 -92.820507 
L 542.513766 -95.75436 
L 541.634259 -98.688213 
L 540.645231 -101.622067 
L 539.564171 -104.55592 
L 538.411398 -107.489773 
L 537.206331 -110.423627 
L 535.963582 -113.35748 
L 534.689672 -116.291333 
L 533.381035 -119.225187 
L 532.023778 -122.15904 
L 530.595291 -125.092893 
L 529.067532 -128.026746 
L 527.411494 -130.9606 
L 525.602214 -133.894453 
L 523.623607 -136.828306 
L 521.47244 -139.76216 
L 519.160819 -142.696013 
L 516.716771 -145.629866 
L 514.182643 -148.563719 
L 511.611373 -151.497573 
L 509.060934 -154.431426 
L 506.587633 -157.365279 
L 504.23919 -160.299133 
L 502.048678 -163.232986 
L 500.03039 -166.166839 
L 498.178365 -169.100692 
L 496.467885 -172.034546 
L 494.859637 -174.968399 
L 493.305754 -177.902252 
L 491.756666 -180.836106 
L 490.16771 -183.769959 
L 488.504735 -186.703812 
L 486.748372 -189.637665 
L 484.896976 -192.571519 
L 482.96839 -195.505372 
L 481.000534 -198.439225 
L 479.050513 -201.373079 
L 477.191661 -204.306932 
L 475.507977 -207.240785 
L 474.085797 -210.174638 
L 473.003394 -213.108492 
L 472.320086 -216.042345 
L 472.067099 -218.976198 
L 472.242527 -221.910052 
L 472.812044 -224.843905 
L 473.715698 -227.777758 
L 474.87956 -230.711611 
L 476.229683 -233.645465 
L 477.705165 -236.579318 
L 479.267388 -239.513171 
L 480.90353 -242.447025 
L 482.623949 -245.380878 
L 484.45452 -248.314731 
L 486.426028 -251.248584 
L 488.563181 -254.182438 
L 490.875559 -257.116291 
L 493.352147 -260.050144 
L 495.960211 -262.983998 
L 498.648396 -265.917851 
L 501.353198 -268.851704 
L 504.007526 -271.785558 
L 506.549849 -274.719411 
L 508.932441 -277.653264 
L 511.127449 -280.587117 
L 513.129855 -283.520971 
L 514.956891 -286.454824 
L 516.644009 -289.388677 
L 518.238073 -292.322531 
L 519.788955 -295.256384 
L 521.341014 -298.190237 
L 522.925987 -301.12409 
L 524.558571 -304.057944 
L 526.235368 -306.991797 
L 527.937184 -309.92565 
L 529.633935 -312.859504 
L 531.290939 -315.793357 
L 532.875175 -318.72721 
L 534.360282 -321.661063 
L 535.729496 -324.594917 
L 536.976309 -327.52877 
L 538.103136 -330.462623 
L 539.118659 -333.396477 
L 540.034634 -336.33033 
L 540.862941 -339.264183 
L 541.6134 -342.198036 
L 542.292654 -345.13189 
L 542.904097 -348.065743 
L 543.448645 -350.999596 
L 543.925989 -353.93345 
L 544.335938 -356.867303 
L 544.679539 -359.801156 
L 544.959733 -362.735009 
L 545.181502 -365.668863 
L 545.351555 -368.602716 
L 545.477714 -371.536569 
L 546.000411 -371.536569 
L 546.000411 -371.536569 
L 546.12657 -368.602716 
L 546.296623 -365.668863 
L 546.518392 -362.735009 
L 546.798586 -359.801156 
L 547.142187 -356.867303 
L 547.552136 -353.93345 
L 548.02948 -350.999596 
L 548.574028 -348.065743 
L 549.185471 -345.13189 
L 549.864725 -342.198036 
L 550.615184 -339.264183 
L 551.443491 -336.33033 
L 552.359466 -333.396477 
L 553.374989 -330.462623 
L 554.501816 -327.52877 
L 555.748629 -324.594917 
L 557.117843 -321.661063 
L 558.60295 -318.72721 
L 560.187186 -315.793357 
L 561.84419 -312.859504 
L 563.540941 -309.92565 
L 565.242757 -306.991797 
L 566.919554 -304.057944 
L 568.552138 -301.12409 
L 570.137111 -298.190237 
L 571.68917 -295.256384 
L 573.240052 -292.322531 
L 574.834116 -289.388677 
L 576.521234 -286.454824 
L 578.34827 -283.520971 
L 580.350676 -280.587117 
L 582.545684 -277.653264 
L 584.928276 -274.719411 
L 587.470599 -271.785558 
L 590.124927 -268.851704 
L 592.829729 -265.917851 
L 595.517914 -262.983998 
L 598.125978 -260.050144 
L 600.602566 -257.116291 
L 602.914944 -254.182438 
L 605.052097 -251.248584 
L 607.023605 -248.314731 
L 608.854176 -245.380878 
L 610.574595 -242.447025 
L 612.210737 -239.513171 
L 613.77296 -236.579318 
L 615.248442 -233.645465 
L 616.598565 -230.711611 
L 617.762427 -227.777758 
L 618.666081 -224.843905 
L 619.235598 -221.910052 
L 619.411026 -218.976198 
L 619.158039 -216.042345 
L 618.474731 -213.108492 
L 617.392328 -210.174638 
L 615.970148 -207.240785 
L 614.286464 -204.306932 
L 612.427612 -201.373079 
L 610.477591 -198.439225 
L 608.509735 -195.505372 
L 606.581149 -192.571519 
L 604.729753 -189.637665 
L 602.97339 -186.703812 
L 601.310415 -183.769959 
L 599.721459 -180.836106 
L 598.172371 -177.902252 
L 596.618488 -174.968399 
L 595.01024 -172.034546 
L 593.29976 -169.100692 
L 591.447735 -166.166839 
L 589.429447 -163.232986 
L 587.238935 -160.299133 
L 584.890492 -157.365279 
L 582.417191 -154.431426 
L 579.866752 -151.497573 
L 577.295482 -148.563719 
L 574.761354 -145.629866 
L 572.317306 -142.696013 
L 570.005685 -139.76216 
L 567.854518 -136.828306 
L 565.875911 -133.894453 
L 564.066631 -130.9606 
L 562.410593 -128.026746 
L 560.882834 -125.092893 
L 559.454347 -122.15904 
L 558.09709 -119.225187 
L 556.788453 -116.291333 
L 555.514543 -113.35748 
L 554.271794 -110.423627 
L 553.066727 -107.489773 
L 551.913954 -104.55592 
L 550.832894 -101.622067 
L 549.843866 -98.688213 
L 548.964359 -95.75436 
L 548.206136 -92.820507 
L 547.57363 -89.886654 
L 547.063756 -86.9528 
L 546.666949 -84.018947 
L 546.36901 -81.085094 
z
" style="stroke: #3f3f3f; stroke-width: 1.25"/>
    </defs>
    <g clip-path="url(#pa81e24d4da)">
     <use xlink:href="#m18afec0940" x="0" y="497.537187" style="fill: #3274a1; stroke: #3f3f3f; stroke-width: 1.25"/>
    </g>
   </g>
   <g id="FillBetweenPolyCollection_4">
    <defs>
     <path id="meaf2b0b486" d="M 748.454418 -55.198267 
L 747.773707 -55.198267 
L 747.603089 -58.383488 
L 747.379649 -61.56871 
L 747.10271 -64.753931 
L 746.778126 -67.939152 
L 746.418482 -71.124374 
L 746.041315 -74.309595 
L 745.665332 -77.494817 
L 745.305331 -80.680038 
L 744.967243 -83.865259 
L 744.644995 -87.050481 
L 744.320554 -90.235702 
L 743.967522 -93.420923 
L 743.557432 -96.606145 
L 743.066816 -99.791366 
L 742.482693 -102.976587 
L 741.804589 -106.161809 
L 741.042271 -109.34703 
L 740.209841 -112.532251 
L 739.317964 -115.717473 
L 738.36662 -118.902694 
L 737.340618 -122.087916 
L 736.209378 -125.273137 
L 734.931299 -128.458358 
L 733.461872 -131.64358 
L 731.763643 -134.828801 
L 729.815568 -138.014022 
L 727.619372 -141.199244 
L 725.201237 -144.384465 
L 722.608369 -147.569686 
L 719.901334 -150.754908 
L 717.144139 -153.940129 
L 714.394409 -157.12535 
L 711.695691 -160.310572 
L 709.072995 -163.495793 
L 706.531692 -166.681015 
L 704.059083 -169.866236 
L 701.627738 -173.051457 
L 699.199881 -176.236679 
L 696.732559 -179.4219 
L 694.183645 -182.607121 
L 691.518767 -185.792343 
L 688.71891 -188.977564 
L 685.78792 -192.162785 
L 682.758639 -195.348007 
L 679.69623 -198.533228 
L 676.697405 -201.718449 
L 673.884852 -204.903671 
L 671.396886 -208.088892 
L 669.373235 -211.274113 
L 667.938606 -214.459335 
L 667.186254 -217.644556 
L 667.164062 -220.829778 
L 667.865558 -224.014999 
L 669.227794 -227.20022 
L 671.137164 -230.385442 
L 673.443007 -233.570663 
L 675.977557 -236.755884 
L 678.579432 -239.941106 
L 681.116858 -243.126327 
L 683.506391 -246.311548 
L 685.723329 -249.49677 
L 687.801408 -252.681991 
L 689.821485 -255.867212 
L 691.891325 -259.052434 
L 694.120604 -262.237655 
L 696.596333 -265.422877 
L 699.363811 -268.608098 
L 702.416953 -271.793319 
L 705.699771 -274.978541 
L 709.118269 -278.163762 
L 712.559629 -281.348983 
L 715.91384 -284.534205 
L 719.092378 -287.719426 
L 722.039488 -290.904647 
L 724.733912 -294.089869 
L 727.181897 -297.27509 
L 729.404964 -300.460311 
L 731.42727 -303.645533 
L 733.26688 -306.830754 
L 734.933205 -310.015976 
L 736.430138 -313.201197 
L 737.762221 -316.386418 
L 738.94034 -319.57164 
L 739.984177 -322.756861 
L 740.920437 -325.942082 
L 741.777801 -329.127304 
L 742.580813 -332.312525 
L 743.345061 -335.497746 
L 744.0752 -338.682968 
L 744.766136 -341.868189 
L 745.406539 -345.05341 
L 745.983286 -348.238632 
L 746.485456 -351.423853 
L 746.906962 -354.609074 
L 747.247521 -357.794296 
L 747.512188 -360.979517 
L 747.709962 -364.164739 
L 747.852029 -367.34996 
L 747.950105 -370.535181 
L 748.27802 -370.535181 
L 748.27802 -370.535181 
L 748.376096 -367.34996 
L 748.518163 -364.164739 
L 748.715937 -360.979517 
L 748.980604 -357.794296 
L 749.321163 -354.609074 
L 749.742669 -351.423853 
L 750.244839 -348.238632 
L 750.821586 -345.05341 
L 751.461989 -341.868189 
L 752.152925 -338.682968 
L 752.883064 -335.497746 
L 753.647312 -332.312525 
L 754.450324 -329.127304 
L 755.307688 -325.942082 
L 756.243948 -322.756861 
L 757.287785 -319.57164 
L 758.465904 -316.386418 
L 759.797987 -313.201197 
L 761.29492 -310.015976 
L 762.961245 -306.830754 
L 764.800855 -303.645533 
L 766.823161 -300.460311 
L 769.046228 -297.27509 
L 771.494213 -294.089869 
L 774.188637 -290.904647 
L 777.135747 -287.719426 
L 780.314285 -284.534205 
L 783.668496 -281.348983 
L 787.109856 -278.163762 
L 790.528354 -274.978541 
L 793.811172 -271.793319 
L 796.864314 -268.608098 
L 799.631792 -265.422877 
L 802.107521 -262.237655 
L 804.3368 -259.052434 
L 806.40664 -255.867212 
L 808.426717 -252.681991 
L 810.504796 -249.49677 
L 812.721734 -246.311548 
L 815.111267 -243.126327 
L 817.648693 -239.941106 
L 820.250568 -236.755884 
L 822.785118 -233.570663 
L 825.090961 -230.385442 
L 827.000331 -227.20022 
L 828.362567 -224.014999 
L 829.064062 -220.829778 
L 829.041871 -217.644556 
L 828.289519 -214.459335 
L 826.85489 -211.274113 
L 824.831239 -208.088892 
L 822.343273 -204.903671 
L 819.53072 -201.718449 
L 816.531895 -198.533228 
L 813.469486 -195.348007 
L 810.440205 -192.162785 
L 807.509215 -188.977564 
L 804.709358 -185.792343 
L 802.04448 -182.607121 
L 799.495566 -179.4219 
L 797.028244 -176.236679 
L 794.600387 -173.051457 
L 792.169042 -169.866236 
L 789.696433 -166.681015 
L 787.15513 -163.495793 
L 784.532434 -160.310572 
L 781.833716 -157.12535 
L 779.083986 -153.940129 
L 776.326791 -150.754908 
L 773.619756 -147.569686 
L 771.026888 -144.384465 
L 768.608753 -141.199244 
L 766.412557 -138.014022 
L 764.464482 -134.828801 
L 762.766253 -131.64358 
L 761.296826 -128.458358 
L 760.018747 -125.273137 
L 758.887507 -122.087916 
L 757.861505 -118.902694 
L 756.910161 -115.717473 
L 756.018284 -112.532251 
L 755.185854 -109.34703 
L 754.423536 -106.161809 
L 753.745432 -102.976587 
L 753.161309 -99.791366 
L 752.670693 -96.606145 
L 752.260603 -93.420923 
L 751.907571 -90.235702 
L 751.58313 -87.050481 
L 751.260882 -83.865259 
L 750.922794 -80.680038 
L 750.562793 -77.494817 
L 750.18681 -74.309595 
L 749.809643 -71.124374 
L 749.449999 -67.939152 
L 749.125415 -64.753931 
L 748.848476 -61.56871 
L 748.625036 -58.383488 
L 748.454418 -55.198267 
z
" style="stroke: #3f3f3f; stroke-width: 1.25"/>
    </defs>
    <g clip-path="url(#pa81e24d4da)">
     <use xlink:href="#meaf2b0b486" x="0" y="497.537187" style="fill: #3274a1; stroke: #3f3f3f; stroke-width: 1.25"/>
    </g>
   </g>
   <g id="line2d_11">
    <path d="M 77.343183 331.724839 
L 204.634942 331.724839 
" clip-path="url(#pa81e24d4da)" style="fill: none; stroke-dasharray: 1.5625,0.9375; stroke-dashoffset: 0; stroke: #3f3f3f; stroke-width: 1.25"/>
   </g>
   <g id="line2d_12">
    <path d="M 75.271609 298.114571 
L 206.706516 298.114571 
" clip-path="url(#pa81e24d4da)" style="fill: none; stroke-dasharray: 3.125,1.25; stroke-dashoffset: 0; stroke: #3f3f3f; stroke-width: 1.25"/>
   </g>
   <g id="line2d_13">
    <path d="M 75.889135 264.504302 
L 206.08899 264.504302 
" clip-path="url(#pa81e24d4da)" style="fill: none; stroke-dasharray: 1.5625,0.9375; stroke-dashoffset: 0; stroke: #3f3f3f; stroke-width: 1.25"/>
   </g>
   <g id="line2d_14">
    <path d="M 283.355868 318.280732 
L 403.372257 318.280732 
" clip-path="url(#pa81e24d4da)" style="fill: none; stroke-dasharray: 1.5625,0.9375; stroke-dashoffset: 0; stroke: #3f3f3f; stroke-width: 1.25"/>
   </g>
   <g id="line2d_15">
    <path d="M 266.580663 277.94841 
L 420.147462 277.94841 
" clip-path="url(#pa81e24d4da)" style="fill: none; stroke-dasharray: 3.125,1.25; stroke-dashoffset: 0; stroke: #3f3f3f; stroke-width: 1.25"/>
   </g>
   <g id="line2d_16">
    <path d="M 284.042307 251.060195 
L 402.685818 251.060195 
" clip-path="url(#pa81e24d4da)" style="fill: none; stroke-dasharray: 1.5625,0.9375; stroke-dashoffset: 0; stroke: #3f3f3f; stroke-width: 1.25"/>
   </g>
   <g id="line2d_17">
    <path d="M 492.590729 318.280732 
L 598.887396 318.280732 
" clip-path="url(#pa81e24d4da)" style="fill: none; stroke-dasharray: 1.5625,0.9375; stroke-dashoffset: 0; stroke: #3f3f3f; stroke-width: 1.25"/>
   </g>
   <g id="line2d_18">
    <path d="M 472.103727 277.94841 
L 619.374398 277.94841 
" clip-path="url(#pa81e24d4da)" style="fill: none; stroke-dasharray: 3.125,1.25; stroke-dashoffset: 0; stroke: #3f3f3f; stroke-width: 1.25"/>
   </g>
   <g id="line2d_19">
    <path d="M 483.307867 251.060195 
L 608.170258 251.060195 
" clip-path="url(#pa81e24d4da)" style="fill: none; stroke-dasharray: 1.5625,0.9375; stroke-dashoffset: 0; stroke: #3f3f3f; stroke-width: 1.25"/>
   </g>
   <g id="line2d_20">
    <path d="M 685.276471 304.836624 
L 810.951654 304.836624 
" clip-path="url(#pa81e24d4da)" style="fill: none; stroke-dasharray: 1.5625,0.9375; stroke-dashoffset: 0; stroke: #3f3f3f; stroke-width: 1.25"/>
   </g>
   <g id="line2d_21">
    <path d="M 667.172709 277.94841 
L 829.055416 277.94841 
" clip-path="url(#pa81e24d4da)" style="fill: none; stroke-dasharray: 3.125,1.25; stroke-dashoffset: 0; stroke: #3f3f3f; stroke-width: 1.25"/>
   </g>
   <g id="line2d_22">
    <path d="M 683.621541 251.060195 
L 812.606584 251.060195 
" clip-path="url(#pa81e24d4da)" style="fill: none; stroke-dasharray: 1.5625,0.9375; stroke-dashoffset: 0; stroke: #3f3f3f; stroke-width: 1.25"/>
   </g>
   <g id="patch_3">
    <path d="M 39.801563 459.473125 
L 39.801563 82.520625 
" style="fill: none; stroke: #cccccc; stroke-width: 0.8; stroke-linejoin: miter; stroke-linecap: square"/>
   </g>
   <g id="patch_4">
    <path d="M 849.301563 459.473125 
L 849.301563 82.520625 
" style="fill: none; stroke: #cccccc; stroke-width: 0.8; stroke-linejoin: miter; stroke-linecap: square"/>
   </g>
   <g id="patch_5">
    <path d="M 39.801562 459.473125 
L 849.301563 459.473125 
" style="fill: none; stroke: #cccccc; stroke-width: 0.8; stroke-linejoin: miter; stroke-linecap: square"/>
   </g>
   <g id="patch_6">
    <path d="M 39.801562 82.520625 
L 849.301563 82.520625 
" style="fill: none; stroke: #cccccc; stroke-width: 0.8; stroke-linejoin: miter; stroke-linecap: square"/>
   </g>
  </g>
  <g id="text_13">
   <!-- 训练阶段奖励分布: default_params - PPO - 初始训练 (伽马分布(尖峰,shape5,scale2)) -->
   <g style="fill: #262626" transform="translate(111.159063 20.615) scale(0.16 -0.16)">
    <defs>
     <path id="MicrosoftYaHei-Bold-8bad" d="M 956 5259 
Q 1475 4753 1925 4234 
L 1263 3684 
Q 769 4328 356 4747 
L 956 5259 
z
M 2450 5184 
L 3281 5184 
L 3281 2066 
Q 3281 209 2275 -884 
Q 1844 -528 1519 -328 
Q 2450 659 2450 2134 
L 2450 5184 
z
M 5238 5184 
L 6069 5184 
L 6069 -784 
L 5238 -784 
L 5238 5184 
z
M 3856 4953 
L 4663 4953 
L 4663 -416 
L 3856 -416 
L 3856 4953 
z
M 2019 1772 
Q 2050 1466 2175 916 
Q 1556 353 925 -341 
L 488 266 
Q 650 447 650 772 
L 650 2422 
L 125 2422 
L 125 3266 
L 1475 3266 
L 1475 1297 
Q 1769 1541 2019 1772 
z
" transform="scale(0.015625)"/>
     <path id="MicrosoftYaHei-Bold-7ec3" d="M 2400 3516 
L 2984 3516 
L 3159 4028 
L 2263 4028 
L 2263 4753 
L 3394 4753 
L 3575 5347 
L 4413 5291 
L 4238 4753 
L 6000 4753 
L 6000 4028 
L 3994 4028 
L 3809 3516 
L 4969 3516 
L 4969 2191 
L 6025 2191 
L 6025 1484 
L 4969 1484 
L 4969 297 
Q 4969 -131 4831 -397 
Q 4694 -663 4444 -758 
Q 4194 -853 3394 -853 
Q 3294 -309 3225 -34 
Q 3525 -72 3756 -72 
Q 4125 -72 4125 491 
L 4125 1484 
L 2513 1484 
L 2513 2291 
Q 2613 2525 2716 2791 
L 2400 2791 
L 2400 3516 
z
M 3306 2191 
L 4125 2191 
L 4125 2791 
L 3541 2791 
L 3306 2191 
z
M 1013 3372 
L 1419 3388 
L 1744 3966 
L 2413 3659 
L 1356 1797 
Q 1894 1872 2294 1941 
Q 2263 1684 2231 1159 
Q 931 984 475 866 
L 244 1566 
Q 531 1816 1009 2653 
L 306 2584 
L 75 3297 
Q 575 3966 1219 5341 
L 2000 5028 
Q 1450 4053 1013 3372 
z
M 75 372 
Q 1100 478 2288 672 
Q 2275 350 2272 116 
Q 2722 741 3000 1309 
L 3706 1003 
Q 3294 197 2738 -597 
Q 2469 -409 2078 -191 
L 238 -503 
L 75 372 
z
M 5000 978 
L 5619 1278 
Q 5994 584 6369 -197 
L 5713 -534 
Q 5356 316 5000 978 
z
" transform="scale(0.015625)"/>
     <path id="MicrosoftYaHei-Bold-9636" d="M 4638 2678 
L 5488 2678 
L 5488 -753 
L 4638 -753 
L 4638 2678 
z
M 6338 3297 
Q 6138 2947 5925 2434 
Q 4825 3197 4256 4297 
Q 3631 3259 2663 2384 
Q 2425 2784 2163 3147 
Q 3269 4053 3856 5253 
L 4756 5253 
L 4675 5047 
Q 5288 3966 6338 3297 
z
M 3006 2672 
L 3863 2672 
Q 3863 1284 3781 872 
Q 3625 -128 2763 -872 
Q 2531 -609 2113 -241 
Q 2775 328 2925 1041 
Q 3006 1322 3006 2672 
z
M 1988 2791 
Q 2525 2003 2525 1209 
Q 2525 747 2288 509 
Q 2019 241 1319 222 
Q 1288 609 1163 1066 
Q 1344 1034 1450 1034 
Q 1719 1034 1719 1297 
Q 1719 1941 1194 2672 
L 1725 4328 
L 1119 4328 
L 1119 -872 
L 331 -872 
L 331 5053 
L 2581 5053 
L 2581 4341 
L 1988 2791 
z
" transform="scale(0.015625)"/>
     <path id="MicrosoftYaHei-Bold-6bb5" d="M 113 22 
L 94 859 
L 525 897 
L 525 4947 
Q 1238 4978 2713 5228 
L 2988 4447 
Q 2094 4303 1356 4241 
L 1356 3716 
L 2625 3716 
L 2625 2953 
L 1356 2953 
L 1356 2397 
L 2625 2397 
L 2625 1634 
L 1356 1634 
L 1356 981 
L 2775 1141 
Q 2750 766 2750 347 
L 1356 178 
L 1356 -822 
L 525 -822 
L 525 75 
L 113 22 
z
M 5900 3816 
L 6319 3816 
Q 6231 3422 6169 3047 
L 5519 3047 
Q 4844 3047 4844 3734 
L 4844 4303 
L 3956 4303 
Q 3956 3672 3806 3372 
Q 3656 3072 3319 2791 
Q 3038 3047 2688 3322 
Q 3181 3628 3181 4278 
L 3181 5078 
L 5638 5078 
L 5638 4109 
Q 5638 3816 5900 3816 
z
M 6038 2728 
L 6038 1978 
Q 5703 1163 5119 541 
Q 5684 209 6356 16 
Q 6138 -378 5906 -816 
Q 5088 -503 4438 -53 
Q 3775 -538 2894 -853 
Q 2731 -578 2350 -66 
Q 3138 163 3731 525 
Q 3284 959 2950 1484 
L 3581 1941 
Q 3953 1431 4413 1041 
Q 4834 1447 5100 1959 
L 2788 1959 
L 2788 2728 
L 6038 2728 
z
" transform="scale(0.015625)"/>
     <path id="MicrosoftYaHei-Bold-5956" d="M 2475 3678 
Q 3206 4403 3625 5366 
L 4438 5209 
Q 4294 4925 4141 4666 
L 6156 4666 
L 6156 4053 
Q 5606 2531 3719 1856 
Q 3688 1706 3647 1566 
L 6225 1566 
L 6225 828 
L 3922 828 
Q 4569 141 6300 34 
Q 6150 -234 5875 -866 
Q 3972 -681 3147 538 
Q 2319 -541 400 -859 
Q 269 -434 100 -16 
Q 1706 197 2306 828 
L 200 828 
L 200 1566 
L 2756 1566 
Q 2856 1853 2888 2191 
L 3328 2191 
Q 3228 2331 3100 2491 
Q 3638 2666 4056 2881 
Q 3747 3163 3444 3397 
L 3944 3884 
Q 4234 3663 4684 3275 
Q 5106 3606 5319 4003 
L 3716 4003 
Q 3388 3534 3019 3153 
Q 2794 3391 2475 3678 
z
M 381 2166 
L 125 2972 
Q 950 3263 1600 3534 
L 1600 4184 
L 1075 3678 
Q 556 4222 213 4553 
L 706 5016 
Q 984 4775 1600 4206 
L 1600 5328 
L 2406 5328 
L 2406 1766 
L 1600 1766 
L 1600 2691 
Q 956 2431 381 2166 
z
" transform="scale(0.015625)"/>
     <path id="MicrosoftYaHei-Bold-52b1" d="M 4438 -753 
Q 4394 -381 4328 -47 
Q 4109 -556 3794 -909 
Q 3709 -813 3231 -403 
Q 3113 -634 2897 -721 
Q 2681 -809 2069 -809 
Q 2025 -506 1959 -175 
Q 1806 -600 1600 -934 
Q 1369 -484 1106 -66 
Q 1300 266 1423 697 
Q 1547 1128 1592 1590 
Q 1638 2053 1647 3153 
L 1263 3153 
L 1263 2878 
Q 1263 556 613 -878 
Q 381 -441 75 22 
Q 469 1078 475 2991 
L 475 5103 
L 3688 5103 
L 3688 4328 
L 1263 4328 
L 1263 3903 
L 3463 3903 
L 3463 3153 
L 2391 3153 
Q 2388 2753 2375 2509 
L 3444 2509 
Q 3406 603 3344 -50 
Q 4075 953 4081 3328 
L 3675 3328 
L 3675 4153 
L 4094 4153 
Q 4100 4666 4100 5309 
L 4844 5309 
L 4834 4153 
L 6038 4153 
L 6003 1713 
L 5969 263 
Q 5956 -166 5792 -394 
Q 5628 -622 5383 -683 
Q 5138 -744 4438 -753 
z
M 4397 128 
Q 4581 116 4872 116 
Q 5013 116 5092 197 
Q 5172 278 5195 422 
Q 5219 566 5244 1344 
Q 5269 2122 5269 3328 
L 4825 3328 
Q 4819 1216 4397 128 
z
M 2031 34 
Q 2131 31 2313 22 
Q 2563 16 2606 202 
Q 2650 388 2688 1784 
L 2338 1784 
Q 2263 781 2031 34 
z
" transform="scale(0.015625)"/>
     <path id="MicrosoftYaHei-Bold-5206" d="M 6350 3028 
Q 6088 2703 5750 2228 
Q 5519 2409 5303 2603 
Q 5219 606 5172 190 
Q 5125 -225 4862 -451 
Q 4600 -678 4128 -678 
Q 3484 -678 2913 -659 
Q 2856 -141 2781 284 
Q 3594 216 3956 216 
Q 4172 216 4230 408 
Q 4288 600 4325 1978 
L 2781 1978 
Q 2728 1100 2529 631 
Q 2331 163 1907 -215 
Q 1484 -594 844 -872 
Q 456 -353 194 -78 
Q 750 144 1111 414 
Q 1472 684 1630 989 
Q 1788 1294 1841 1978 
L 950 1978 
L 950 2475 
Q 794 2356 631 2247 
Q 344 2653 63 2953 
Q 1475 3947 2194 5316 
L 3031 4953 
Q 2378 3722 1391 2841 
L 5047 2841 
Q 4088 3766 3463 4903 
L 4238 5303 
Q 5038 3922 6350 3028 
z
" transform="scale(0.015625)"/>
     <path id="MicrosoftYaHei-Bold-5e03" d="M 3919 -834 
L 3050 -834 
L 3050 2034 
L 2063 2034 
L 2063 -359 
L 1200 -359 
L 1200 1641 
Q 825 1238 400 866 
Q 244 1403 113 1741 
Q 1128 2669 1731 3709 
L 200 3709 
L 200 4541 
L 2141 4541 
Q 2294 4916 2400 5303 
L 3275 5203 
Q 3169 4866 3038 4541 
L 6250 4541 
L 6250 3709 
L 2659 3709 
Q 2406 3222 2094 2766 
L 3050 2766 
L 3050 3566 
L 3919 3566 
L 3919 2766 
L 5800 2766 
L 5800 741 
Q 5800 338 5628 112 
Q 5456 -113 5178 -164 
Q 4900 -216 4306 -216 
Q 4225 291 4156 609 
Q 4456 584 4544 584 
Q 4950 584 4950 1034 
L 4950 2034 
L 3919 2034 
L 3919 -834 
z
" transform="scale(0.015625)"/>
     <path id="MicrosoftYaHei-Bold-3a" d="M 313 2969 
Q 313 3200 491 3350 
Q 669 3500 916 3500 
Q 1166 3500 1337 3350 
Q 1509 3200 1509 2969 
Q 1509 2728 1337 2579 
Q 1166 2431 903 2431 
Q 653 2431 483 2584 
Q 313 2738 313 2969 
z
M 313 453 
Q 313 688 491 838 
Q 669 988 916 988 
Q 1166 988 1337 834 
Q 1509 681 1509 453 
Q 1509 213 1337 64 
Q 1166 -84 903 -84 
Q 659 -84 486 69 
Q 313 222 313 453 
z
" transform="scale(0.015625)"/>
     <path id="MicrosoftYaHei-Bold-20" transform="scale(0.015625)"/>
     <path id="MicrosoftYaHei-Bold-64" d="M 3794 0 
L 2788 0 
L 2788 488 
L 2772 488 
Q 2406 -84 1691 -84 
Q 1031 -84 642 381 
Q 253 847 253 1650 
Q 253 2500 689 3020 
Q 1125 3541 1828 3541 
Q 2503 3541 2772 3053 
L 2788 3053 
L 2788 5116 
L 3794 5116 
L 3794 0 
z
M 2803 1956 
Q 2803 2306 2592 2536 
Q 2381 2766 2066 2766 
Q 1697 2766 1486 2473 
Q 1275 2181 1275 1681 
Q 1275 1206 1478 948 
Q 1681 691 2038 691 
Q 2372 691 2587 962 
Q 2803 1234 2803 1669 
L 2803 1956 
z
" transform="scale(0.015625)"/>
     <path id="MicrosoftYaHei-Bold-65" d="M 3528 1444 
L 1253 1444 
Q 1306 641 2222 641 
Q 2794 641 3231 922 
L 3231 181 
Q 2759 -84 1994 -84 
Q 1169 -84 711 381 
Q 253 847 253 1678 
Q 253 2506 740 3023 
Q 1228 3541 1966 3541 
Q 2700 3541 3114 3095 
Q 3528 2650 3528 1872 
L 3528 1444 
z
M 2588 2075 
Q 2588 2850 1959 2850 
Q 1700 2850 1500 2637 
Q 1300 2425 1250 2075 
L 2588 2075 
z
" transform="scale(0.015625)"/>
     <path id="MicrosoftYaHei-Bold-66" d="M 2653 4338 
Q 2447 4419 2263 4419 
Q 1744 4419 1744 3844 
L 1744 3456 
L 2531 3456 
L 2531 2703 
L 1744 2703 
L 1744 0 
L 734 0 
L 734 2703 
L 156 2703 
L 156 3456 
L 734 3456 
L 734 3900 
Q 734 4491 1118 4844 
Q 1503 5197 2128 5197 
Q 2447 5197 2653 5131 
L 2653 4338 
z
" transform="scale(0.015625)"/>
     <path id="MicrosoftYaHei-Bold-61" d="M 544 3247 
Q 778 3378 1170 3459 
Q 1563 3541 1841 3541 
Q 3291 3541 3291 2088 
L 3291 0 
L 2331 0 
L 2331 503 
L 2319 503 
Q 1966 -84 1284 -84 
Q 794 -84 498 195 
Q 203 475 203 956 
Q 203 1950 1388 2113 
L 2338 2241 
Q 2338 2844 1709 2844 
Q 1091 2844 544 2469 
L 544 3247 
z
M 1684 1566 
Q 1138 1494 1138 1072 
Q 1138 878 1270 759 
Q 1403 641 1628 641 
Q 1938 641 2138 859 
Q 2338 1078 2338 1403 
L 2338 1650 
L 1684 1566 
z
" transform="scale(0.015625)"/>
     <path id="MicrosoftYaHei-Bold-75" d="M 3691 0 
L 2688 0 
L 2688 528 
L 2672 528 
Q 2284 -84 1613 -84 
Q 406 -84 406 1372 
L 406 3456 
L 1416 3456 
L 1416 1466 
Q 1416 691 2022 691 
Q 2325 691 2506 903 
Q 2688 1116 2688 1478 
L 2688 3456 
L 3691 3456 
L 3691 0 
z
" transform="scale(0.015625)"/>
     <path id="MicrosoftYaHei-Bold-6c" d="M 444 0 
L 444 5116 
L 1450 5116 
L 1450 0 
L 444 0 
z
" transform="scale(0.015625)"/>
     <path id="MicrosoftYaHei-Bold-74" d="M 2494 41 
Q 2266 -84 1803 -84 
Q 703 -84 703 1072 
L 703 2703 
L 134 2703 
L 134 3456 
L 703 3456 
L 703 4216 
L 1706 4503 
L 1706 3456 
L 2494 3456 
L 2494 2703 
L 1706 2703 
L 1706 1247 
Q 1706 694 2144 694 
Q 2313 694 2494 794 
L 2494 41 
z
" transform="scale(0.015625)"/>
     <path id="MicrosoftYaHei-Bold-5f" d="M 2869 -1675 
L 0 -1675 
L 0 -1272 
L 2869 -1272 
L 2869 -1675 
z
" transform="scale(0.015625)"/>
     <path id="MicrosoftYaHei-Bold-70" d="M 1469 416 
L 1469 -1591 
L 459 -1591 
L 459 3456 
L 1469 3456 
L 1469 2928 
L 1481 2928 
Q 1878 3541 2603 3541 
Q 3263 3541 3634 3080 
Q 4006 2619 4006 1825 
Q 4006 959 3575 437 
Q 3144 -84 2444 -84 
Q 1809 -84 1481 416 
L 1469 416 
z
M 1453 1528 
Q 1453 1159 1653 925 
Q 1853 691 2172 691 
Q 2550 691 2761 984 
Q 2972 1278 2972 1816 
Q 2972 2766 2231 2766 
Q 1888 2766 1670 2503 
Q 1453 2241 1453 1828 
L 1453 1528 
z
" transform="scale(0.015625)"/>
     <path id="MicrosoftYaHei-Bold-72" d="M 2663 2541 
Q 2478 2647 2216 2647 
Q 1872 2647 1670 2384 
Q 1469 2122 1469 1663 
L 1469 0 
L 459 0 
L 459 3456 
L 1469 3456 
L 1469 2806 
L 1481 2806 
Q 1731 3516 2391 3516 
Q 2569 3516 2663 3475 
L 2663 2541 
z
" transform="scale(0.015625)"/>
     <path id="MicrosoftYaHei-Bold-6d" d="M 5881 0 
L 4875 0 
L 4875 1972 
Q 4875 2766 4297 2766 
Q 4028 2766 3850 2525 
Q 3672 2284 3672 1938 
L 3672 0 
L 2666 0 
L 2666 1997 
Q 2666 2766 2094 2766 
Q 1809 2766 1639 2536 
Q 1469 2306 1469 1928 
L 1469 0 
L 459 0 
L 459 3456 
L 1469 3456 
L 1469 2916 
L 1481 2916 
Q 1663 3213 1963 3377 
Q 2263 3541 2594 3541 
Q 3322 3541 3591 2888 
Q 3991 3541 4753 3541 
Q 5881 3541 5881 2147 
L 5881 0 
z
" transform="scale(0.015625)"/>
     <path id="MicrosoftYaHei-Bold-73" d="M 369 928 
Q 888 613 1384 613 
Q 2009 613 2009 947 
Q 2009 1184 1494 1344 
Q 850 1544 609 1789 
Q 369 2034 369 2453 
Q 369 2963 781 3252 
Q 1194 3541 1863 3541 
Q 2338 3541 2778 3400 
L 2778 2606 
Q 2375 2844 1891 2844 
Q 1650 2844 1503 2758 
Q 1356 2672 1356 2531 
Q 1356 2294 1794 2147 
Q 2263 1991 2498 1862 
Q 2734 1734 2857 1525 
Q 2981 1316 2981 1041 
Q 2981 506 2553 211 
Q 2125 -84 1409 -84 
Q 847 -84 369 94 
L 369 928 
z
" transform="scale(0.015625)"/>
     <path id="MicrosoftYaHei-Bold-2d" d="M 2328 1497 
L 481 1497 
L 481 2209 
L 2328 2209 
L 2328 1497 
z
" transform="scale(0.015625)"/>
     <path id="MicrosoftYaHei-Bold-50" d="M 1591 1688 
L 1591 0 
L 559 0 
L 559 4841 
L 2225 4841 
Q 4031 4841 4031 3309 
Q 4031 2566 3486 2117 
Q 2941 1669 2122 1688 
L 1591 1688 
z
M 1591 4041 
L 1591 2478 
L 2038 2478 
Q 2947 2478 2947 3269 
Q 2947 4041 2047 4041 
L 1591 4041 
z
" transform="scale(0.015625)"/>
     <path id="MicrosoftYaHei-Bold-4f" d="M 256 2356 
Q 256 3494 920 4208 
Q 1584 4922 2675 4922 
Q 3713 4922 4345 4231 
Q 4978 3541 4978 2456 
Q 4978 1325 4320 620 
Q 3663 -84 2597 -84 
Q 1556 -84 906 598 
Q 256 1281 256 2356 
z
M 1341 2413 
Q 1341 1706 1681 1257 
Q 2022 809 2616 809 
Q 3222 809 3559 1239 
Q 3897 1669 3897 2394 
Q 3897 3150 3569 3589 
Q 3241 4028 2644 4028 
Q 2038 4028 1689 3578 
Q 1341 3128 1341 2413 
z
" transform="scale(0.015625)"/>
     <path id="MicrosoftYaHei-Bold-521d" d="M 1288 5359 
Q 1619 4997 2031 4453 
L 1516 4109 
L 2294 4109 
L 2294 3378 
Q 2019 2847 1700 2369 
L 1700 2256 
Q 1809 2175 1909 2097 
Q 2209 2516 2419 2878 
L 2994 2516 
Q 2716 2138 2381 1734 
Q 2619 1544 2813 1378 
L 2363 834 
Q 2016 1166 1700 1441 
L 1700 -866 
L 913 -866 
L 913 1338 
Q 641 1025 344 741 
Q 231 1228 94 1678 
Q 831 2278 1363 3303 
L 156 3303 
L 156 4109 
L 1231 4109 
Q 981 4472 613 4928 
L 1288 5359 
z
M 3919 -697 
Q 3838 -266 3700 253 
Q 4153 209 4563 209 
Q 5006 209 5040 675 
Q 5075 1141 5113 4159 
L 4097 4159 
Q 4050 2622 3984 1959 
Q 3919 1297 3595 525 
Q 3272 -247 2644 -859 
Q 2369 -578 1925 -216 
Q 2450 234 2734 806 
Q 3019 1378 3105 1972 
Q 3191 2566 3219 4159 
L 2488 4159 
L 2488 4947 
L 6013 4947 
L 5938 1331 
L 5906 491 
Q 5906 -44 5686 -328 
Q 5466 -613 5067 -647 
Q 4669 -681 3919 -697 
z
" transform="scale(0.015625)"/>
     <path id="MicrosoftYaHei-Bold-59cb" d="M 2863 -853 
L 2863 356 
L 2256 -291 
Q 2000 -25 1744 225 
Q 1309 -381 638 -847 
Q 350 -466 69 -153 
Q 706 259 1119 816 
Q 669 1228 225 1597 
Q 441 2363 616 3359 
L 119 3359 
L 119 4134 
L 741 4134 
Q 825 4706 900 5347 
L 1731 5259 
L 1550 4134 
L 2669 4134 
Q 2663 3728 2638 3363 
Q 3213 3972 3875 5359 
L 4800 5097 
Q 4225 4159 3594 3378 
Q 4328 3422 5075 3484 
Q 4847 3944 4619 4359 
L 5294 4634 
Q 5831 3747 6369 2659 
L 5613 2341 
L 5391 2828 
Q 3522 2697 2863 2578 
L 2625 3169 
Q 2519 1791 2156 953 
L 2863 394 
L 2863 2116 
L 5981 2116 
L 5981 -828 
L 5144 -828 
L 5144 -472 
L 3700 -472 
L 3700 -853 
L 2863 -853 
z
M 1088 1797 
L 1503 1469 
Q 1809 2241 1863 3359 
L 1413 3359 
Q 1259 2541 1088 1797 
z
M 5144 1328 
L 3700 1328 
L 3700 316 
L 5144 316 
L 5144 1328 
z
" transform="scale(0.015625)"/>
     <path id="MicrosoftYaHei-Bold-28" d="M 1606 -1100 
Q 525 97 525 1853 
Q 525 3550 1606 4841 
L 2431 4841 
Q 1406 3497 1406 1853 
Q 1406 216 2438 -1100 
L 1606 -1100 
z
" transform="scale(0.015625)"/>
     <path id="MicrosoftYaHei-Bold-4f3d" d="M 2050 5284 
L 2788 5284 
Q 2775 4666 2769 4166 
L 3863 4166 
L 3863 72 
Q 3863 -653 3181 -666 
Q 2844 -684 2550 -678 
Q 2494 -316 2394 41 
Q 2219 -428 1956 -834 
Q 1744 -466 1481 -53 
Q 2038 853 2038 3384 
L 1650 3384 
L 1650 4166 
L 2038 4166 
Q 2044 4684 2050 5284 
z
M 4200 -597 
L 4200 4697 
L 6063 4697 
L 6063 -578 
L 5331 -578 
L 5331 -122 
L 4931 -122 
L 4931 -597 
L 4200 -597 
z
M 1075 5297 
L 1794 5128 
Q 1650 4509 1456 3916 
L 1456 -803 
L 738 -803 
L 738 2141 
Q 544 1753 331 1378 
Q 263 1759 119 2478 
Q 788 3884 1075 5297 
z
M 2806 128 
Q 3119 116 3113 491 
L 3113 3384 
L 2769 3384 
Q 2750 1103 2425 128 
Q 2619 122 2806 128 
z
M 5331 3891 
L 4931 3891 
L 4931 684 
L 5331 684 
L 5331 3891 
z
" transform="scale(0.015625)"/>
     <path id="MicrosoftYaHei-Bold-9a6c" d="M 1081 4009 
L 2063 4009 
L 1925 2741 
L 4047 2741 
L 4206 4284 
L 663 4284 
L 663 5066 
L 5263 5066 
L 5028 2741 
L 6019 2741 
Q 5978 925 5934 378 
Q 5891 -169 5566 -439 
Q 5241 -709 4694 -728 
Q 4147 -747 2944 -747 
Q 2856 -303 2719 191 
Q 3931 141 4381 141 
Q 4666 141 4780 239 
Q 4894 338 4950 470 
Q 5006 603 5038 1966 
L 881 1966 
L 1081 4009 
z
M 150 1484 
L 4638 1484 
L 4638 672 
L 150 672 
L 150 1484 
z
" transform="scale(0.015625)"/>
     <path id="MicrosoftYaHei-Bold-5c16" d="M 2750 5328 
L 3669 5328 
L 3669 2878 
L 2750 2878 
L 2750 5328 
z
M 1794 4816 
L 2463 4216 
Q 1700 3422 819 2741 
Q 525 3147 238 3428 
Q 1181 4103 1794 4816 
z
M 3925 4203 
L 4506 4803 
Q 5244 4253 6125 3491 
L 5525 2803 
Q 4731 3572 3925 4203 
z
M 250 2216 
L 2728 2216 
Q 2744 2406 2750 2622 
L 3675 2622 
Q 3669 2416 3653 2216 
L 6175 2216 
L 6175 1416 
L 3925 1416 
Q 4659 269 6269 16 
Q 6044 -297 5706 -822 
Q 4069 -444 3272 975 
Q 2741 -338 650 -866 
Q 425 -484 94 -9 
Q 2153 344 2569 1416 
L 250 1416 
L 250 2216 
z
" transform="scale(0.015625)"/>
     <path id="MicrosoftYaHei-Bold-5cf0" d="M 2425 4241 
L 2425 2972 
Q 3169 3116 3738 3353 
Q 3538 3522 3375 3703 
Q 3188 3509 2994 3322 
Q 2756 3603 2531 3797 
Q 3188 4403 3750 5322 
L 4613 5222 
Q 4481 5034 4344 4859 
L 5869 4859 
L 5869 4253 
Q 5588 3759 5106 3372 
Q 5638 3216 6338 3134 
Q 6250 2847 6138 2416 
Q 5069 2603 4400 2916 
Q 3669 2541 2663 2309 
Q 2544 2628 2425 2884 
L 2425 -266 
L 1888 -266 
L 1888 9 
L 250 -116 
L 250 4241 
L 788 4241 
L 788 647 
L 1006 666 
L 1006 5253 
L 1669 5253 
L 1669 716 
L 1888 734 
L 1888 4241 
L 2425 4241 
z
M 2613 566 
L 4013 566 
L 4013 903 
L 2894 903 
L 2894 1428 
L 4013 1428 
L 4013 1766 
L 2794 1766 
L 2794 2291 
L 4013 2291 
L 4013 2584 
L 4788 2584 
L 4788 2291 
L 5994 2291 
L 5994 1766 
L 4788 1766 
L 4788 1428 
L 5925 1428 
L 5925 903 
L 4788 903 
L 4788 566 
L 6213 566 
L 6213 -16 
L 4788 -16 
L 4788 -847 
L 4013 -847 
L 4013 -16 
L 2613 -16 
L 2613 566 
z
M 4381 3691 
Q 4744 3922 4994 4209 
L 3825 4209 
Q 3813 4197 3806 4184 
Q 4038 3916 4381 3691 
z
" transform="scale(0.015625)"/>
     <path id="MicrosoftYaHei-Bold-2c" d="M 1419 841 
L 916 -859 
L 134 -859 
L 484 841 
L 1419 841 
z
" transform="scale(0.015625)"/>
     <path id="MicrosoftYaHei-Bold-68" d="M 3725 0 
L 2719 0 
L 2719 1969 
Q 2719 2766 2138 2766 
Q 1847 2766 1658 2544 
Q 1469 2322 1469 1969 
L 1469 0 
L 459 0 
L 459 5116 
L 1469 5116 
L 1469 2938 
L 1481 2938 
Q 1878 3541 2550 3541 
Q 3725 3541 3725 2122 
L 3725 0 
z
" transform="scale(0.015625)"/>
     <path id="MicrosoftYaHei-Bold-35" d="M 541 125 
L 541 997 
Q 1044 691 1613 691 
Q 2041 691 2283 902 
Q 2525 1113 2525 1472 
Q 2525 2225 1494 2225 
Q 1113 2225 616 2169 
L 797 4841 
L 3359 4841 
L 3359 4009 
L 1613 4009 
L 1544 2991 
Q 1803 3013 2022 3013 
Q 2731 3013 3142 2625 
Q 3553 2238 3553 1575 
Q 3553 844 3056 380 
Q 2559 -84 1706 -84 
Q 1016 -84 541 125 
z
" transform="scale(0.015625)"/>
     <path id="MicrosoftYaHei-Bold-63" d="M 3050 128 
Q 2688 -84 2019 -84 
Q 1228 -84 740 397 
Q 253 878 253 1644 
Q 253 2525 778 3033 
Q 1303 3541 2178 3541 
Q 2769 3541 3053 3378 
L 3053 2513 
Q 2706 2766 2297 2766 
Q 1834 2766 1554 2484 
Q 1275 2203 1275 1713 
Q 1275 1238 1540 964 
Q 1806 691 2263 691 
Q 2666 691 3050 947 
L 3050 128 
z
" transform="scale(0.015625)"/>
     <path id="MicrosoftYaHei-Bold-32" d="M 1500 841 
L 3553 841 
L 3553 0 
L 334 0 
L 334 359 
Q 334 738 473 1050 
Q 613 1363 856 1633 
Q 1100 1903 1613 2266 
Q 2081 2616 2268 2886 
Q 2456 3156 2456 3459 
Q 2456 4113 1744 4113 
Q 1119 4113 550 3613 
L 550 4513 
Q 1184 4922 1975 4922 
Q 2700 4922 3122 4551 
Q 3544 4181 3544 3531 
Q 3544 3169 3422 2876 
Q 3300 2584 3069 2328 
Q 2838 2072 2328 1713 
Q 1838 1363 1669 1172 
Q 1500 981 1500 841 
z
" transform="scale(0.015625)"/>
     <path id="MicrosoftYaHei-Bold-29" d="M 59 -1100 
Q 1097 216 1097 1853 
Q 1097 3484 59 4841 
L 888 4841 
Q 1978 3544 1978 1853 
Q 1978 113 881 -1100 
L 59 -1100 
z
" transform="scale(0.015625)"/>
    </defs>
    <use xlink:href="#MicrosoftYaHei-Bold-8bad"/>
    <use xlink:href="#MicrosoftYaHei-Bold-7ec3" transform="translate(100 0)"/>
    <use xlink:href="#MicrosoftYaHei-Bold-9636" transform="translate(200 0)"/>
    <use xlink:href="#MicrosoftYaHei-Bold-6bb5" transform="translate(300 0)"/>
    <use xlink:href="#MicrosoftYaHei-Bold-5956" transform="translate(400 0)"/>
    <use xlink:href="#MicrosoftYaHei-Bold-52b1" transform="translate(500 0)"/>
    <use xlink:href="#MicrosoftYaHei-Bold-5206" transform="translate(600 0)"/>
    <use xlink:href="#MicrosoftYaHei-Bold-5e03" transform="translate(700 0)"/>
    <use xlink:href="#MicrosoftYaHei-Bold-3a" transform="translate(800 0)"/>
    <use xlink:href="#MicrosoftYaHei-Bold-20" transform="translate(828.564453 0)"/>
    <use xlink:href="#MicrosoftYaHei-Bold-64" transform="translate(858.349609 0)"/>
    <use xlink:href="#MicrosoftYaHei-Bold-65" transform="translate(924.804688 0)"/>
    <use xlink:href="#MicrosoftYaHei-Bold-66" transform="translate(983.007812 0)"/>
    <use xlink:href="#MicrosoftYaHei-Bold-61" transform="translate(1023.535156 0)"/>
    <use xlink:href="#MicrosoftYaHei-Bold-75" transform="translate(1081.298828 0)"/>
    <use xlink:href="#MicrosoftYaHei-Bold-6c" transform="translate(1146.09375 0)"/>
    <use xlink:href="#MicrosoftYaHei-Bold-74" transform="translate(1175.683594 0)"/>
    <use xlink:href="#MicrosoftYaHei-Bold-5f" transform="translate(1217.089844 0)"/>
    <use xlink:href="#MicrosoftYaHei-Bold-70" transform="translate(1261.914062 0)"/>
    <use xlink:href="#MicrosoftYaHei-Bold-61" transform="translate(1327.390625 0)"/>
    <use xlink:href="#MicrosoftYaHei-Bold-72" transform="translate(1385.154297 0)"/>
    <use xlink:href="#MicrosoftYaHei-Bold-61" transform="translate(1427.537109 0)"/>
    <use xlink:href="#MicrosoftYaHei-Bold-6d" transform="translate(1485.300781 0)"/>
    <use xlink:href="#MicrosoftYaHei-Bold-73" transform="translate(1583.494141 0)"/>
    <use xlink:href="#MicrosoftYaHei-Bold-20" transform="translate(1632.859375 0)"/>
    <use xlink:href="#MicrosoftYaHei-Bold-2d" transform="translate(1662.644531 0)"/>
    <use xlink:href="#MicrosoftYaHei-Bold-20" transform="translate(1706.296875 0)"/>
    <use xlink:href="#MicrosoftYaHei-Bold-50" transform="translate(1736.082031 0)"/>
    <use xlink:href="#MicrosoftYaHei-Bold-50" transform="translate(1801.804688 0)"/>
    <use xlink:href="#MicrosoftYaHei-Bold-4f" transform="translate(1867.527344 0)"/>
    <use xlink:href="#MicrosoftYaHei-Bold-20" transform="translate(1949.363281 0)"/>
    <use xlink:href="#MicrosoftYaHei-Bold-2d" transform="translate(1979.148438 0)"/>
    <use xlink:href="#MicrosoftYaHei-Bold-20" transform="translate(2022.800781 0)"/>
    <use xlink:href="#MicrosoftYaHei-Bold-521d" transform="translate(2052.585938 0)"/>
    <use xlink:href="#MicrosoftYaHei-Bold-59cb" transform="translate(2152.585938 0)"/>
    <use xlink:href="#MicrosoftYaHei-Bold-8bad" transform="translate(2252.585938 0)"/>
    <use xlink:href="#MicrosoftYaHei-Bold-7ec3" transform="translate(2352.585938 0)"/>
    <use xlink:href="#MicrosoftYaHei-Bold-20" transform="translate(2452.585938 0)"/>
    <use xlink:href="#MicrosoftYaHei-Bold-28" transform="translate(2482.371094 0)"/>
    <use xlink:href="#MicrosoftYaHei-Bold-4f3d" transform="translate(2521.335938 0)"/>
    <use xlink:href="#MicrosoftYaHei-Bold-9a6c" transform="translate(2621.335938 0)"/>
    <use xlink:href="#MicrosoftYaHei-Bold-5206" transform="translate(2721.335938 0)"/>
    <use xlink:href="#MicrosoftYaHei-Bold-5e03" transform="translate(2821.335938 0)"/>
    <use xlink:href="#MicrosoftYaHei-Bold-28" transform="translate(2921.335938 0)"/>
    <use xlink:href="#MicrosoftYaHei-Bold-5c16" transform="translate(2960.300781 0)"/>
    <use xlink:href="#MicrosoftYaHei-Bold-5cf0" transform="translate(3060.300781 0)"/>
    <use xlink:href="#MicrosoftYaHei-Bold-2c" transform="translate(3160.300781 0)"/>
    <use xlink:href="#MicrosoftYaHei-Bold-73" transform="translate(3188.865234 0)"/>
    <use xlink:href="#MicrosoftYaHei-Bold-68" transform="translate(3238.230469 0)"/>
    <use xlink:href="#MicrosoftYaHei-Bold-61" transform="translate(3302.78125 0)"/>
    <use xlink:href="#MicrosoftYaHei-Bold-70" transform="translate(3360.544922 0)"/>
    <use xlink:href="#MicrosoftYaHei-Bold-65" transform="translate(3427.146484 0)"/>
    <use xlink:href="#MicrosoftYaHei-Bold-35" transform="translate(3485.349609 0)"/>
    <use xlink:href="#MicrosoftYaHei-Bold-2c" transform="translate(3547.019531 0)"/>
    <use xlink:href="#MicrosoftYaHei-Bold-73" transform="translate(3575.583984 0)"/>
    <use xlink:href="#MicrosoftYaHei-Bold-63" transform="translate(3624.949219 0)"/>
    <use xlink:href="#MicrosoftYaHei-Bold-61" transform="translate(3676.609375 0)"/>
    <use xlink:href="#MicrosoftYaHei-Bold-6c" transform="translate(3734.373047 0)"/>
    <use xlink:href="#MicrosoftYaHei-Bold-65" transform="translate(3763.962891 0)"/>
    <use xlink:href="#MicrosoftYaHei-Bold-32" transform="translate(3822.166016 0)"/>
    <use xlink:href="#MicrosoftYaHei-Bold-29" transform="translate(3883.835938 0)"/>
    <use xlink:href="#MicrosoftYaHei-Bold-29" transform="translate(3922.800781 0)"/>
   </g>
   <!-- (环境: 伽马分布(尖峰,shape5,scale2 | 复杂度: 0.78) -->
   <g style="fill: #262626" transform="translate(238.950312 40.8795) scale(0.16 -0.16)">
    <defs>
     <path id="MicrosoftYaHei-Bold-73af" d="M 5163 2916 
Q 5825 1797 6300 878 
L 5544 472 
Q 5081 1400 4550 2413 
L 4550 -834 
L 3706 -834 
L 3706 2013 
Q 3272 1200 2700 484 
Q 2525 641 2378 766 
Q 2347 503 2331 9 
L 175 -328 
L 81 522 
L 863 613 
L 863 2003 
L 213 2003 
L 213 2834 
L 863 2834 
L 863 4066 
L 175 4066 
L 175 4897 
L 2375 4897 
L 2375 4066 
L 1694 4066 
L 1694 2834 
L 2356 2834 
L 2356 2003 
L 1694 2003 
L 1694 728 
L 2306 825 
Q 2134 972 2000 1072 
Q 3194 2478 3675 4084 
L 2606 4084 
L 2606 4916 
L 6075 4916 
L 6075 4084 
L 4556 4084 
Q 4400 3559 4200 3066 
L 4550 3066 
L 4550 2591 
L 5163 2916 
z
" transform="scale(0.015625)"/>
     <path id="MicrosoftYaHei-Bold-5883" d="M 6044 4241 
L 5000 4241 
L 5563 4103 
Q 5450 3944 5322 3778 
L 6231 3778 
L 6231 3153 
L 2113 3153 
L 2113 3778 
L 2863 3778 
L 2638 4109 
L 3228 4241 
L 2256 4241 
L 2256 4866 
L 3591 4866 
Q 3506 5028 3400 5209 
L 4438 5353 
Q 4509 5125 4575 4866 
L 6044 4866 
L 6044 4241 
z
M 3853 3778 
L 4350 3778 
Q 4506 4009 4625 4241 
L 3503 4241 
Q 3681 4041 3853 3778 
z
M 263 -328 
L 100 603 
L 706 775 
L 706 2997 
L 175 2997 
L 175 3853 
L 706 3853 
L 706 5328 
L 1544 5328 
L 1544 3853 
L 1981 3853 
L 1981 2997 
L 1544 2997 
L 1544 1025 
L 2094 1197 
Q 2081 981 2081 759 
Q 2081 538 2094 309 
Q 1213 16 263 -328 
z
M 2244 2878 
L 5894 2878 
L 5894 603 
L 5038 603 
L 5038 141 
Q 5038 -91 5269 -91 
Q 5441 -91 5512 7 
Q 5584 106 5619 584 
Q 5956 428 6319 322 
Q 6284 66 6212 -223 
Q 6141 -513 5908 -652 
Q 5675 -791 5281 -791 
L 5006 -791 
Q 4238 -791 4238 -97 
L 4238 603 
L 3841 603 
Q 3647 -478 2331 -909 
Q 2125 -622 1763 -178 
Q 2781 88 2994 603 
L 2244 603 
L 2244 2878 
z
M 5094 2291 
L 3044 2291 
L 3044 2009 
L 5094 2009 
L 5094 2291 
z
M 5094 1191 
L 5094 1472 
L 3044 1472 
L 3044 1191 
L 5094 1191 
z
" transform="scale(0.015625)"/>
     <path id="MicrosoftYaHei-Bold-7c" d="M 1500 -1622 
L 691 -1622 
L 691 5288 
L 1500 5288 
L 1500 -1622 
z
" transform="scale(0.015625)"/>
     <path id="MicrosoftYaHei-Bold-590d" d="M 5738 1528 
L 5738 1003 
Q 5091 600 4322 259 
Q 5197 78 6306 -16 
Q 6000 -428 5819 -791 
Q 4391 -569 3278 -153 
Q 2125 -559 744 -853 
Q 550 -541 275 -178 
Q 1394 3 2341 256 
Q 1872 500 1478 788 
Q 1069 416 581 116 
Q 363 391 75 691 
Q 925 1194 1459 1816 
L 844 1816 
L 844 3406 
Q 600 3128 325 2872 
Q 238 3266 94 3759 
Q 831 4484 1188 5334 
L 2063 5334 
Q 1978 5144 1888 4959 
L 6181 4959 
L 6181 4334 
L 1538 4334 
Q 1434 4172 1325 4016 
L 5738 4016 
L 5738 1816 
L 2372 1816 
Q 2272 1666 2163 1528 
L 5738 1528 
z
M 4906 3478 
L 1675 3478 
L 1675 3141 
L 4906 3141 
L 4906 3478 
z
M 4906 2353 
L 4906 2691 
L 1675 2691 
L 1675 2353 
L 4906 2353 
z
M 3269 541 
Q 3897 753 4438 1009 
L 2231 1009 
Q 2669 744 3269 541 
z
" transform="scale(0.015625)"/>
     <path id="MicrosoftYaHei-Bold-6742" d="M 5500 4203 
Q 5919 4078 6338 3978 
Q 6269 3328 6188 2984 
Q 6063 2453 5400 2453 
L 4600 2453 
Q 3900 2453 3900 3153 
L 3900 3997 
L 2781 3997 
Q 2588 2603 613 2141 
Q 419 2466 106 2884 
Q 1644 3172 1869 3997 
L 456 3997 
L 456 4753 
L 1981 4753 
Q 2006 5053 2006 5328 
L 2894 5328 
Q 2894 5084 2869 4753 
L 4800 4753 
L 4800 3459 
Q 4800 3203 5056 3203 
L 5206 3203 
Q 5394 3203 5431 3466 
Q 5469 3816 5500 4203 
z
M 188 2072 
L 2800 2072 
L 2800 2666 
L 3706 2666 
L 3706 2072 
L 6175 2072 
L 6175 1309 
L 3706 1309 
L 3706 159 
Q 3706 -684 2900 -766 
Q 2613 -797 2000 -803 
Q 1906 -334 1794 72 
Q 2200 41 2456 41 
Q 2800 41 2800 403 
L 2800 1309 
L 188 1309 
L 188 2072 
z
M 4000 597 
L 4519 1172 
Q 5425 628 6263 34 
L 5725 -634 
Q 4956 -34 4000 597 
z
M 1675 1166 
L 2263 559 
Q 1406 -84 538 -634 
Q 288 -247 63 66 
Q 963 566 1675 1166 
z
" transform="scale(0.015625)"/>
     <path id="MicrosoftYaHei-Bold-5ea6" d="M 5656 1697 
L 5656 1022 
Q 5156 447 4656 97 
Q 5344 -34 6306 -66 
Q 6119 -428 5938 -822 
Q 4556 -653 3719 -353 
Q 2825 -653 1494 -872 
Q 1338 -522 1088 -178 
Q 2100 -128 2888 78 
Q 2369 453 1938 1022 
L 1538 1022 
L 1538 1697 
L 5656 1697 
z
M 1325 2478 
Q 1338 134 700 -884 
Q 356 -553 19 -297 
Q 550 697 525 2591 
L 525 4772 
L 3013 4772 
Q 2944 4953 2831 5209 
L 3869 5359 
Q 3981 5072 4094 4772 
L 6256 4772 
L 6256 4072 
L 1325 4072 
L 1325 2478 
z
M 1463 3684 
L 2144 3684 
L 2144 3947 
L 2944 3947 
L 2944 3684 
L 4494 3684 
L 4494 3947 
L 5294 3947 
L 5294 3684 
L 6144 3684 
L 6144 3009 
L 5294 3009 
L 5294 1991 
L 2144 1991 
L 2144 3009 
L 1463 3009 
L 1463 3684 
z
M 3756 378 
Q 4325 641 4725 1022 
L 2825 1022 
Q 3225 622 3756 378 
z
M 4494 2628 
L 4494 3009 
L 2944 3009 
L 2944 2628 
L 4494 2628 
z
" transform="scale(0.015625)"/>
     <path id="MicrosoftYaHei-Bold-30" d="M 244 2341 
Q 244 3597 706 4259 
Q 1169 4922 2044 4922 
Q 3713 4922 3713 2453 
Q 3713 1238 3259 577 
Q 2806 -84 1950 -84 
Q 244 -84 244 2341 
z
M 1266 2366 
Q 1266 691 1981 691 
Q 2684 691 2684 2416 
Q 2684 4147 2000 4147 
Q 1266 4147 1266 2366 
z
" transform="scale(0.015625)"/>
     <path id="MicrosoftYaHei-Bold-2e" d="M 313 453 
Q 313 688 491 838 
Q 669 988 916 988 
Q 1166 988 1337 834 
Q 1509 681 1509 453 
Q 1509 213 1337 64 
Q 1166 -84 903 -84 
Q 659 -84 486 69 
Q 313 222 313 453 
z
" transform="scale(0.015625)"/>
     <path id="MicrosoftYaHei-Bold-37" d="M 3675 4225 
Q 3088 3172 2798 2528 
Q 2509 1884 2328 1275 
Q 2147 666 2050 0 
L 966 0 
Q 1122 947 1517 1917 
Q 1913 2888 2609 4009 
L 300 4009 
L 300 4841 
L 3675 4841 
L 3675 4225 
z
" transform="scale(0.015625)"/>
     <path id="MicrosoftYaHei-Bold-38" d="M 269 1303 
Q 269 1725 512 2053 
Q 756 2381 1219 2534 
Q 850 2719 648 3003 
Q 447 3288 447 3634 
Q 447 3997 645 4292 
Q 844 4588 1200 4755 
Q 1556 4922 1997 4922 
Q 2441 4922 2800 4758 
Q 3159 4594 3359 4298 
Q 3559 4003 3559 3647 
Q 3559 3309 3339 3018 
Q 3119 2728 2747 2559 
Q 3200 2403 3453 2076 
Q 3706 1750 3706 1313 
Q 3706 697 3228 309 
Q 2750 -78 1988 -78 
Q 1225 -78 747 309 
Q 269 697 269 1303 
z
M 1278 1394 
Q 1278 1056 1472 853 
Q 1666 650 1991 650 
Q 2303 650 2503 853 
Q 2703 1056 2703 1394 
Q 2703 1709 2500 1920 
Q 2297 2131 1991 2131 
Q 1675 2131 1476 1920 
Q 1278 1709 1278 1394 
z
M 1428 3531 
Q 1428 3266 1592 3077 
Q 1756 2888 2006 2888 
Q 2247 2888 2415 3072 
Q 2584 3256 2584 3531 
Q 2584 3806 2420 3997 
Q 2256 4188 2006 4188 
Q 1750 4188 1589 3997 
Q 1428 3806 1428 3531 
z
" transform="scale(0.015625)"/>
    </defs>
    <use xlink:href="#MicrosoftYaHei-Bold-28"/>
    <use xlink:href="#MicrosoftYaHei-Bold-73af" transform="translate(38.964844 0)"/>
    <use xlink:href="#MicrosoftYaHei-Bold-5883" transform="translate(138.964844 0)"/>
    <use xlink:href="#MicrosoftYaHei-Bold-3a" transform="translate(238.964844 0)"/>
    <use xlink:href="#MicrosoftYaHei-Bold-20" transform="translate(267.529297 0)"/>
    <use xlink:href="#MicrosoftYaHei-Bold-4f3d" transform="translate(297.314453 0)"/>
    <use xlink:href="#MicrosoftYaHei-Bold-9a6c" transform="translate(397.314453 0)"/>
    <use xlink:href="#MicrosoftYaHei-Bold-5206" transform="translate(497.314453 0)"/>
    <use xlink:href="#MicrosoftYaHei-Bold-5e03" transform="translate(597.314453 0)"/>
    <use xlink:href="#MicrosoftYaHei-Bold-28" transform="translate(697.314453 0)"/>
    <use xlink:href="#MicrosoftYaHei-Bold-5c16" transform="translate(736.279297 0)"/>
    <use xlink:href="#MicrosoftYaHei-Bold-5cf0" transform="translate(836.279297 0)"/>
    <use xlink:href="#MicrosoftYaHei-Bold-2c" transform="translate(936.279297 0)"/>
    <use xlink:href="#MicrosoftYaHei-Bold-73" transform="translate(964.84375 0)"/>
    <use xlink:href="#MicrosoftYaHei-Bold-68" transform="translate(1014.208984 0)"/>
    <use xlink:href="#MicrosoftYaHei-Bold-61" transform="translate(1078.759766 0)"/>
    <use xlink:href="#MicrosoftYaHei-Bold-70" transform="translate(1136.523438 0)"/>
    <use xlink:href="#MicrosoftYaHei-Bold-65" transform="translate(1203.125 0)"/>
    <use xlink:href="#MicrosoftYaHei-Bold-35" transform="translate(1261.328125 0)"/>
    <use xlink:href="#MicrosoftYaHei-Bold-2c" transform="translate(1322.998047 0)"/>
    <use xlink:href="#MicrosoftYaHei-Bold-73" transform="translate(1351.5625 0)"/>
    <use xlink:href="#MicrosoftYaHei-Bold-63" transform="translate(1400.927734 0)"/>
    <use xlink:href="#MicrosoftYaHei-Bold-61" transform="translate(1452.587891 0)"/>
    <use xlink:href="#MicrosoftYaHei-Bold-6c" transform="translate(1510.351562 0)"/>
    <use xlink:href="#MicrosoftYaHei-Bold-65" transform="translate(1539.941406 0)"/>
    <use xlink:href="#MicrosoftYaHei-Bold-32" transform="translate(1598.144531 0)"/>
    <use xlink:href="#MicrosoftYaHei-Bold-20" transform="translate(1659.814453 0)"/>
    <use xlink:href="#MicrosoftYaHei-Bold-7c" transform="translate(1689.599609 0)"/>
    <use xlink:href="#MicrosoftYaHei-Bold-20" transform="translate(1723.730469 0)"/>
    <use xlink:href="#MicrosoftYaHei-Bold-590d" transform="translate(1753.515625 0)"/>
    <use xlink:href="#MicrosoftYaHei-Bold-6742" transform="translate(1853.515625 0)"/>
    <use xlink:href="#MicrosoftYaHei-Bold-5ea6" transform="translate(1953.515625 0)"/>
    <use xlink:href="#MicrosoftYaHei-Bold-3a" transform="translate(2053.515625 0)"/>
    <use xlink:href="#MicrosoftYaHei-Bold-20" transform="translate(2082.080078 0)"/>
    <use xlink:href="#MicrosoftYaHei-Bold-30" transform="translate(2111.865234 0)"/>
    <use xlink:href="#MicrosoftYaHei-Bold-2e" transform="translate(2173.535156 0)"/>
    <use xlink:href="#MicrosoftYaHei-Bold-37" transform="translate(2202.099609 0)"/>
    <use xlink:href="#MicrosoftYaHei-Bold-38" transform="translate(2263.769531 0)"/>
    <use xlink:href="#MicrosoftYaHei-Bold-29" transform="translate(2325.439453 0)"/>
   </g>
  </g>
 </g>
 <defs>
  <clipPath id="pa81e24d4da">
   <rect x="39.801563" y="82.520625" width="809.5" height="376.9525"/>
  </clipPath>
 </defs>
</svg>
