<?xml version="1.0" encoding="utf-8" standalone="no"?>
<!DOCTYPE svg PUBLIC "-//W3C//DTD SVG 1.1//EN"
  "http://www.w3.org/Graphics/SVG/1.1/DTD/svg11.dtd">
<svg xmlns:xlink="http://www.w3.org/1999/xlink" width="856.594085pt" height="427.080937pt" viewBox="0 0 856.594085 427.080937" xmlns="http://www.w3.org/2000/svg" version="1.1">
 <metadata>
  <rdf:RDF xmlns:dc="http://purl.org/dc/elements/1.1/" xmlns:cc="http://creativecommons.org/ns#" xmlns:rdf="http://www.w3.org/1999/02/22-rdf-syntax-ns#">
   <cc:Work>
    <dc:type rdf:resource="http://purl.org/dc/dcmitype/StillImage"/>
    <dc:date>2025-07-07T17:58:57.632565</dc:date>
    <dc:format>image/svg+xml</dc:format>
    <dc:creator>
     <cc:Agent>
      <dc:title>Matplotlib v3.10.3, https://matplotlib.org/</dc:title>
     </cc:Agent>
    </dc:creator>
   </cc:Work>
  </rdf:RDF>
 </metadata>
 <defs>
  <style type="text/css">*{stroke-linejoin: round; stroke-linecap: butt}</style>
 </defs>
 <g id="figure_1">
  <g id="patch_1">
   <path d="M 0 427.080937 
L 856.594085 427.080937 
L 856.594085 0 
L 0 0 
z
" style="fill: #ffffff"/>
  </g>
  <g id="axes_1">
   <g id="patch_2">
    <path d="M 183.7925 387.16 
L 842.142045 387.16 
L 842.142045 87.424 
L 183.7925 87.424 
z
" style="fill: #ffffff"/>
   </g>
   <g id="matplotlib.axis_1">
    <g id="xtick_1">
     <g id="line2d_1">
      <path d="M 265.416755 387.16 
L 265.416755 87.424 
" clip-path="url(#p18b90928cd)" style="fill: none; stroke-dasharray: 2.96,1.28; stroke-dashoffset: 0; stroke: #cccccc; stroke-opacity: 0.6; stroke-width: 0.8"/>
     </g>
     <g id="text_1">
      <!-- 15 -->
      <g style="fill: #262626" transform="translate(259.855817 401.317812) scale(0.1 -0.1)">
       <defs>
        <path id="ArialMT-31" d="M 2384 0 
L 1822 0 
L 1822 3584 
Q 1619 3391 1289 3197 
Q 959 3003 697 2906 
L 697 3450 
Q 1169 3672 1522 3987 
Q 1875 4303 2022 4600 
L 2384 4600 
L 2384 0 
z
" transform="scale(0.015625)"/>
        <path id="ArialMT-35" d="M 266 1200 
L 856 1250 
Q 922 819 1161 601 
Q 1400 384 1738 384 
Q 2144 384 2425 690 
Q 2706 997 2706 1503 
Q 2706 1984 2436 2262 
Q 2166 2541 1728 2541 
Q 1456 2541 1237 2417 
Q 1019 2294 894 2097 
L 366 2166 
L 809 4519 
L 3088 4519 
L 3088 3981 
L 1259 3981 
L 1013 2750 
Q 1425 3038 1878 3038 
Q 2478 3038 2890 2622 
Q 3303 2206 3303 1553 
Q 3303 931 2941 478 
Q 2500 -78 1738 -78 
Q 1113 -78 717 272 
Q 322 622 266 1200 
z
" transform="scale(0.015625)"/>
       </defs>
       <use xlink:href="#ArialMT-31"/>
       <use xlink:href="#ArialMT-35" transform="translate(55.615234 0)"/>
      </g>
     </g>
    </g>
    <g id="xtick_2">
     <g id="line2d_2">
      <path d="M 347.531233 387.16 
L 347.531233 87.424 
" clip-path="url(#p18b90928cd)" style="fill: none; stroke-dasharray: 2.96,1.28; stroke-dashoffset: 0; stroke: #cccccc; stroke-opacity: 0.6; stroke-width: 0.8"/>
     </g>
     <g id="text_2">
      <!-- 20 -->
      <g style="fill: #262626" transform="translate(341.970296 401.317812) scale(0.1 -0.1)">
       <defs>
        <path id="ArialMT-32" d="M 3222 541 
L 3222 0 
L 194 0 
Q 188 203 259 391 
Q 375 700 629 1000 
Q 884 1300 1366 1694 
Q 2113 2306 2375 2664 
Q 2638 3022 2638 3341 
Q 2638 3675 2398 3904 
Q 2159 4134 1775 4134 
Q 1369 4134 1125 3890 
Q 881 3647 878 3216 
L 300 3275 
Q 359 3922 746 4261 
Q 1134 4600 1788 4600 
Q 2447 4600 2831 4234 
Q 3216 3869 3216 3328 
Q 3216 3053 3103 2787 
Q 2991 2522 2730 2228 
Q 2469 1934 1863 1422 
Q 1356 997 1212 845 
Q 1069 694 975 541 
L 3222 541 
z
" transform="scale(0.015625)"/>
        <path id="ArialMT-30" d="M 266 2259 
Q 266 3072 433 3567 
Q 600 4063 929 4331 
Q 1259 4600 1759 4600 
Q 2128 4600 2406 4451 
Q 2684 4303 2865 4023 
Q 3047 3744 3150 3342 
Q 3253 2941 3253 2259 
Q 3253 1453 3087 958 
Q 2922 463 2592 192 
Q 2263 -78 1759 -78 
Q 1097 -78 719 397 
Q 266 969 266 2259 
z
M 844 2259 
Q 844 1131 1108 757 
Q 1372 384 1759 384 
Q 2147 384 2411 759 
Q 2675 1134 2675 2259 
Q 2675 3391 2411 3762 
Q 2147 4134 1753 4134 
Q 1366 4134 1134 3806 
Q 844 3388 844 2259 
z
" transform="scale(0.015625)"/>
       </defs>
       <use xlink:href="#ArialMT-32"/>
       <use xlink:href="#ArialMT-30" transform="translate(55.615234 0)"/>
      </g>
     </g>
    </g>
    <g id="xtick_3">
     <g id="line2d_3">
      <path d="M 429.645712 387.16 
L 429.645712 87.424 
" clip-path="url(#p18b90928cd)" style="fill: none; stroke-dasharray: 2.96,1.28; stroke-dashoffset: 0; stroke: #cccccc; stroke-opacity: 0.6; stroke-width: 0.8"/>
     </g>
     <g id="text_3">
      <!-- 25 -->
      <g style="fill: #262626" transform="translate(424.084774 401.317812) scale(0.1 -0.1)">
       <use xlink:href="#ArialMT-32"/>
       <use xlink:href="#ArialMT-35" transform="translate(55.615234 0)"/>
      </g>
     </g>
    </g>
    <g id="xtick_4">
     <g id="line2d_4">
      <path d="M 511.76019 387.16 
L 511.76019 87.424 
" clip-path="url(#p18b90928cd)" style="fill: none; stroke-dasharray: 2.96,1.28; stroke-dashoffset: 0; stroke: #cccccc; stroke-opacity: 0.6; stroke-width: 0.8"/>
     </g>
     <g id="text_4">
      <!-- 30 -->
      <g style="fill: #262626" transform="translate(506.199252 401.317812) scale(0.1 -0.1)">
       <defs>
        <path id="ArialMT-33" d="M 269 1209 
L 831 1284 
Q 928 806 1161 595 
Q 1394 384 1728 384 
Q 2125 384 2398 659 
Q 2672 934 2672 1341 
Q 2672 1728 2419 1979 
Q 2166 2231 1775 2231 
Q 1616 2231 1378 2169 
L 1441 2663 
Q 1497 2656 1531 2656 
Q 1891 2656 2178 2843 
Q 2466 3031 2466 3422 
Q 2466 3731 2256 3934 
Q 2047 4138 1716 4138 
Q 1388 4138 1169 3931 
Q 950 3725 888 3313 
L 325 3413 
Q 428 3978 793 4289 
Q 1159 4600 1703 4600 
Q 2078 4600 2393 4439 
Q 2709 4278 2876 4000 
Q 3044 3722 3044 3409 
Q 3044 3113 2884 2869 
Q 2725 2625 2413 2481 
Q 2819 2388 3044 2092 
Q 3269 1797 3269 1353 
Q 3269 753 2831 336 
Q 2394 -81 1725 -81 
Q 1122 -81 723 278 
Q 325 638 269 1209 
z
" transform="scale(0.015625)"/>
       </defs>
       <use xlink:href="#ArialMT-33"/>
       <use xlink:href="#ArialMT-30" transform="translate(55.615234 0)"/>
      </g>
     </g>
    </g>
    <g id="xtick_5">
     <g id="line2d_5">
      <path d="M 593.874668 387.16 
L 593.874668 87.424 
" clip-path="url(#p18b90928cd)" style="fill: none; stroke-dasharray: 2.96,1.28; stroke-dashoffset: 0; stroke: #cccccc; stroke-opacity: 0.6; stroke-width: 0.8"/>
     </g>
     <g id="text_5">
      <!-- 35 -->
      <g style="fill: #262626" transform="translate(588.313731 401.317812) scale(0.1 -0.1)">
       <use xlink:href="#ArialMT-33"/>
       <use xlink:href="#ArialMT-35" transform="translate(55.615234 0)"/>
      </g>
     </g>
    </g>
    <g id="xtick_6">
     <g id="line2d_6">
      <path d="M 675.989147 387.16 
L 675.989147 87.424 
" clip-path="url(#p18b90928cd)" style="fill: none; stroke-dasharray: 2.96,1.28; stroke-dashoffset: 0; stroke: #cccccc; stroke-opacity: 0.6; stroke-width: 0.8"/>
     </g>
     <g id="text_6">
      <!-- 40 -->
      <g style="fill: #262626" transform="translate(670.428209 401.317812) scale(0.1 -0.1)">
       <defs>
        <path id="ArialMT-34" d="M 2069 0 
L 2069 1097 
L 81 1097 
L 81 1613 
L 2172 4581 
L 2631 4581 
L 2631 1613 
L 3250 1613 
L 3250 1097 
L 2631 1097 
L 2631 0 
L 2069 0 
z
M 2069 1613 
L 2069 3678 
L 634 1613 
L 2069 1613 
z
" transform="scale(0.015625)"/>
       </defs>
       <use xlink:href="#ArialMT-34"/>
       <use xlink:href="#ArialMT-30" transform="translate(55.615234 0)"/>
      </g>
     </g>
    </g>
    <g id="xtick_7">
     <g id="line2d_7">
      <path d="M 758.103625 387.16 
L 758.103625 87.424 
" clip-path="url(#p18b90928cd)" style="fill: none; stroke-dasharray: 2.96,1.28; stroke-dashoffset: 0; stroke: #cccccc; stroke-opacity: 0.6; stroke-width: 0.8"/>
     </g>
     <g id="text_7">
      <!-- 45 -->
      <g style="fill: #262626" transform="translate(752.542687 401.317812) scale(0.1 -0.1)">
       <use xlink:href="#ArialMT-34"/>
       <use xlink:href="#ArialMT-35" transform="translate(55.615234 0)"/>
      </g>
     </g>
    </g>
    <g id="xtick_8">
     <g id="line2d_8">
      <path d="M 840.218103 387.16 
L 840.218103 87.424 
" clip-path="url(#p18b90928cd)" style="fill: none; stroke-dasharray: 2.96,1.28; stroke-dashoffset: 0; stroke: #cccccc; stroke-opacity: 0.6; stroke-width: 0.8"/>
     </g>
     <g id="text_8">
      <!-- 50 -->
      <g style="fill: #262626" transform="translate(834.657166 401.317812) scale(0.1 -0.1)">
       <use xlink:href="#ArialMT-35"/>
       <use xlink:href="#ArialMT-30" transform="translate(55.615234 0)"/>
      </g>
     </g>
    </g>
    <g id="text_9">
     <!-- 平均奖励 -->
     <g style="fill: #262626" transform="translate(488.967273 416.897812) scale(0.12 -0.12)">
      <defs>
       <path id="MicrosoftYaHei-5e73" d="M 169 1934 
L 2938 1934 
L 2938 4547 
L 450 4547 
L 450 5028 
L 5975 5028 
L 5975 4547 
L 3463 4547 
L 3463 1934 
L 6250 1934 
L 6250 1453 
L 3463 1453 
L 3463 -847 
L 2938 -847 
L 2938 1453 
L 169 1453 
L 169 1934 
z
M 3950 2559 
Q 4638 3284 5188 4159 
L 5656 3859 
Q 4950 2891 4338 2234 
L 3950 2559 
z
M 769 3859 
L 1163 4134 
Q 1863 3316 2369 2553 
L 1925 2222 
Q 1444 3003 769 3859 
z
" transform="scale(0.015625)"/>
       <path id="MicrosoftYaHei-5747" d="M 2244 2803 
Q 2931 3953 3338 5322 
L 3838 5172 
Q 3691 4744 3531 4347 
L 6013 4347 
Q 5925 1053 5875 297 
Q 5831 -697 4806 -697 
Q 4188 -697 3706 -672 
Q 3669 -422 3606 -141 
L 3625 -141 
Q 4250 -209 4775 -209 
Q 5350 -209 5394 378 
Q 5456 1447 5513 3891 
L 3341 3891 
Q 3028 3172 2675 2572 
Q 2481 2691 2244 2803 
z
M 81 428 
Q 559 600 1006 769 
L 1006 3253 
L 169 3253 
L 169 3697 
L 1006 3697 
L 1006 5259 
L 1469 5259 
L 1469 3697 
L 2281 3697 
L 2281 3253 
L 1469 3253 
L 1469 947 
Q 1922 1125 2338 1303 
Q 2350 991 2369 784 
Q 1363 403 250 -53 
L 81 428 
z
M 2513 853 
Q 3769 1353 5119 1934 
Q 5150 1641 5188 1434 
Q 4031 947 2706 359 
L 2513 853 
z
M 3138 2909 
L 3481 3216 
Q 4025 2716 4531 2216 
L 4125 1859 
Q 3644 2409 3138 2909 
z
" transform="scale(0.015625)"/>
       <path id="MicrosoftYaHei-5956" d="M 6306 -284 
Q 6119 -528 5944 -803 
Q 4031 -491 3197 859 
Q 2550 -472 406 -878 
Q 281 -666 100 -403 
Q 2175 -84 2709 972 
L 225 972 
L 225 1403 
L 2900 1403 
Q 2969 1600 3019 1822 
L 3531 1822 
Q 3484 1603 3422 1403 
L 6200 1403 
L 6200 972 
L 3647 972 
Q 4472 -169 6306 -284 
z
M 2388 3553 
Q 3181 4228 3588 5334 
L 4056 5241 
Q 3941 4938 3803 4666 
L 5988 4666 
L 5988 4278 
Q 5181 2359 2788 1853 
Q 2706 2072 2531 2316 
Q 3434 2463 4094 2831 
Q 3688 3222 3288 3516 
L 3588 3822 
Q 4056 3481 4491 3084 
Q 5116 3550 5463 4266 
L 3588 4266 
Q 3228 3666 2763 3234 
Q 2588 3428 2388 3553 
z
M 1744 5291 
L 2231 5291 
L 2231 1728 
L 1744 1728 
L 1744 2925 
Q 1231 2694 256 2253 
L 94 2747 
Q 991 3088 1744 3425 
L 1744 5291 
z
M 281 4584 
L 588 4891 
Q 1088 4503 1513 4072 
L 1169 3741 
Q 700 4253 281 4584 
z
" transform="scale(0.015625)"/>
       <path id="MicrosoftYaHei-52b1" d="M 3756 3997 
L 4303 3997 
Q 4316 4669 4319 5297 
L 4775 5297 
Q 4763 4559 4750 3997 
L 6031 3997 
Q 5963 1203 5925 278 
Q 5888 -678 5169 -678 
Q 4969 -678 4444 -666 
Q 4406 -378 4350 -134 
Q 4856 -178 5081 -178 
Q 5425 -178 5456 272 
Q 5513 1266 5563 3528 
L 4741 3528 
Q 4731 3028 4725 2716 
Q 4688 334 3600 -859 
Q 3469 -666 3281 -447 
Q 4238 634 4275 2634 
Q 4288 3091 4297 3528 
L 3756 3528 
L 3756 3997 
z
M 1225 3728 
L 3563 3728 
L 3563 3291 
L 2194 3291 
Q 2184 2784 2172 2372 
L 3375 2372 
Q 3319 766 3275 91 
Q 3206 -628 2581 -628 
Q 2406 -628 2050 -622 
Q 2013 -416 1956 -159 
Q 2306 -197 2475 -197 
Q 2819 -203 2850 216 
Q 2894 797 2931 1959 
L 2153 1959 
Q 2125 1378 2081 1034 
Q 1969 -3 1300 -828 
Q 1175 -659 981 -453 
Q 1531 209 1644 1097 
Q 1728 1641 1756 3291 
L 1225 3291 
L 1225 3728 
z
M 1044 4472 
L 1044 2166 
Q 1044 147 475 -809 
Q 306 -647 94 -478 
Q 588 341 588 2184 
L 588 4909 
L 3663 4909 
L 3663 4472 
L 1044 4472 
z
" transform="scale(0.015625)"/>
      </defs>
      <use xlink:href="#MicrosoftYaHei-5e73"/>
      <use xlink:href="#MicrosoftYaHei-5747" transform="translate(100 0)"/>
      <use xlink:href="#MicrosoftYaHei-5956" transform="translate(200 0)"/>
      <use xlink:href="#MicrosoftYaHei-52b1" transform="translate(300 0)"/>
     </g>
    </g>
   </g>
   <g id="matplotlib.axis_2">
    <g id="ytick_1">
     <g id="line2d_9">
      <path d="M 183.7925 373.535636 
L 842.142045 373.535636 
" clip-path="url(#p18b90928cd)" style="fill: none; stroke-dasharray: 2.96,1.28; stroke-dashoffset: 0; stroke: #cccccc; stroke-opacity: 0.6; stroke-width: 0.8"/>
     </g>
     <g id="text_10">
      <!-- 泊松分布(低均值,λ5) - PPO -->
      <g style="fill: #262626" transform="translate(43.659844 377.932199) scale(0.11 -0.11)">
       <defs>
        <path id="MicrosoftYaHei-6cca" d="M 2225 4516 
L 3447 4516 
Q 3603 4903 3706 5359 
L 4269 5234 
Q 4131 4872 3966 4516 
L 5919 4516 
L 5919 -797 
L 5394 -797 
L 5394 -316 
L 2750 -316 
L 2750 -797 
L 2225 -797 
L 2225 4516 
z
M 2750 147 
L 5394 147 
L 5394 1909 
L 2750 1909 
L 2750 147 
z
M 5394 4053 
L 2750 4053 
L 2750 2372 
L 5394 2372 
L 5394 4053 
z
M 1156 1791 
Q 1475 1609 1681 1528 
Q 1331 491 913 -747 
L 356 -478 
Q 838 603 1156 1791 
z
M 388 3641 
Q 1063 3228 1644 2797 
Q 1450 2547 1294 2347 
Q 725 2803 88 3241 
L 388 3641 
z
M 731 5266 
Q 1394 4809 1950 4359 
Q 1819 4203 1606 3928 
Q 1038 4434 419 4897 
L 731 5266 
z
" transform="scale(0.015625)"/>
        <path id="MicrosoftYaHei-677e" d="M 69 1384 
Q 750 2328 1106 3603 
L 163 3603 
L 163 4022 
L 1100 4022 
L 1100 5259 
L 1556 5259 
L 1556 4022 
L 2388 4022 
L 2388 3603 
L 1556 3603 
L 1556 2584 
L 1788 2791 
Q 2213 2366 2600 1934 
L 2263 1603 
Q 1769 2172 1556 2397 
L 1556 -834 
L 1100 -834 
L 1100 2372 
Q 763 1459 294 841 
Q 200 1109 69 1384 
z
M 5063 1472 
Q 5575 547 6100 -603 
L 5619 -828 
Q 5506 -566 5394 -309 
Q 4075 -391 3088 -491 
Q 2806 -528 2606 -597 
L 2375 -153 
Q 2594 -41 2744 184 
Q 3375 1216 3906 2891 
L 4438 2703 
Q 3781 1028 3163 -28 
Q 4006 16 5213 91 
Q 4938 697 4644 1266 
L 5063 1472 
z
M 4425 5103 
L 4844 5253 
Q 5369 3578 6375 2578 
Q 6138 2384 5938 2191 
Q 4931 3366 4425 5103 
z
M 3463 5128 
L 3938 4972 
Q 3456 3478 2694 2316 
Q 2500 2478 2288 2628 
Q 3094 3772 3463 5128 
z
" transform="scale(0.015625)"/>
        <path id="MicrosoftYaHei-5206" d="M 900 2559 
L 5056 2559 
Q 5025 1497 4963 484 
Q 4888 -684 3856 -678 
Q 3350 -684 2788 -647 
Q 2750 -384 2700 -116 
Q 3181 -184 3775 -191 
Q 4400 -203 4463 541 
Q 4513 1216 4538 2097 
L 2616 2097 
Q 2541 1053 2181 416 
Q 1706 -422 588 -878 
Q 425 -666 231 -459 
Q 1269 -72 1725 666 
Q 2053 1225 2103 2097 
L 900 2097 
L 900 2559 
z
M 3488 5159 
L 3938 5353 
Q 4625 3678 6350 2847 
Q 6069 2553 5944 2372 
Q 4225 3366 3488 5159 
z
M 50 2766 
Q 1338 3678 2250 5253 
L 2694 5009 
Q 1744 3347 413 2341 
Q 281 2534 50 2766 
z
" transform="scale(0.015625)"/>
        <path id="MicrosoftYaHei-5e03" d="M 3250 3666 
L 3750 3666 
L 3750 2703 
L 5681 2703 
L 5681 541 
Q 5681 -197 5050 -197 
Q 4888 -197 4119 -191 
Q 4081 16 4019 316 
Q 4644 278 4769 278 
Q 5188 266 5188 666 
L 5188 2253 
L 3750 2253 
L 3750 -828 
L 3250 -828 
L 3250 2253 
L 1844 2253 
L 1844 -353 
L 1350 -353 
L 1350 2113 
Q 928 1553 450 1028 
Q 294 1253 94 1447 
Q 1241 2647 1969 3984 
L 200 3984 
L 200 4434 
L 2200 4434 
Q 2419 4884 2594 5353 
L 3088 5153 
Q 2934 4788 2766 4434 
L 6250 4434 
L 6250 3984 
L 2538 3984 
Q 2188 3325 1772 2703 
L 3250 2703 
L 3250 3666 
z
" transform="scale(0.015625)"/>
        <path id="MicrosoftYaHei-28" d="M 1531 -1100 
Q 478 100 478 1847 
Q 478 3594 1531 4841 
L 2072 4841 
Q 1016 3544 1016 1853 
Q 1016 166 2066 -1100 
L 1531 -1100 
z
" transform="scale(0.015625)"/>
        <path id="MicrosoftYaHei-4f4e" d="M 2275 4809 
Q 4069 4809 5994 5072 
L 6169 4603 
Q 5306 4522 4497 4469 
Q 4513 3594 4556 2872 
L 6250 2872 
L 6250 2422 
L 4591 2422 
Q 4775 250 5581 -172 
Q 5756 -247 5806 -41 
Q 5863 278 5913 897 
Q 6156 784 6363 728 
Q 6300 141 6225 -241 
Q 6119 -728 5738 -728 
Q 5275 -728 4856 -178 
Q 4259 644 4122 2422 
L 2750 2422 
L 2750 209 
Q 3425 597 3913 878 
Q 3950 591 4006 397 
Q 3206 -59 2744 -353 
Q 2563 -472 2388 -634 
L 2063 -222 
Q 2275 -41 2275 316 
L 2275 4809 
z
M 38 2397 
Q 1000 3697 1531 5334 
L 1988 5172 
Q 1678 4309 1306 3578 
L 1306 -828 
L 856 -828 
L 856 2778 
Q 550 2288 213 1872 
Q 138 2122 38 2397 
z
M 4016 4441 
Q 3366 4403 2750 4384 
L 2750 2872 
L 4094 2872 
Q 4059 3481 4016 4441 
z
M 3531 -116 
L 3856 141 
Q 4206 -191 4544 -566 
L 4181 -859 
Q 3888 -491 3531 -116 
z
" transform="scale(0.015625)"/>
        <path id="MicrosoftYaHei-503c" d="M 1619 -216 
L 2250 -216 
L 2250 3653 
L 3725 3653 
L 3725 4222 
L 1913 4222 
L 1913 4647 
L 3725 4647 
L 3725 5309 
L 4200 5309 
L 4200 4647 
L 6169 4647 
L 6169 4222 
L 4200 4222 
L 4200 3653 
L 5713 3653 
L 5713 -216 
L 6306 -216 
L 6306 -641 
L 1619 -641 
L 1619 -216 
z
M 69 2247 
Q 906 3497 1369 5278 
L 1831 5141 
Q 1581 4334 1288 3628 
L 1288 -816 
L 831 -816 
L 831 2666 
Q 563 2166 263 1734 
Q 175 1997 69 2247 
z
M 2713 -216 
L 5250 -216 
L 5250 353 
L 2713 353 
L 2713 -216 
z
M 5250 3241 
L 2713 3241 
L 2713 2678 
L 5250 2678 
L 5250 3241 
z
M 2713 1716 
L 5250 1716 
L 5250 2278 
L 2713 2278 
L 2713 1716 
z
M 2713 753 
L 5250 753 
L 5250 1316 
L 2713 1316 
L 2713 753 
z
" transform="scale(0.015625)"/>
        <path id="MicrosoftYaHei-2c" d="M 1109 778 
L 575 -888 
L 131 -888 
L 519 778 
L 1109 778 
z
" transform="scale(0.015625)"/>
        <path id="MicrosoftYaHei-3bb" d="M 3388 0 
L 2731 0 
L 1822 2747 
L 666 0 
L -3 0 
L 1553 3428 
L 1338 4059 
Q 1163 4572 813 4572 
Q 638 4572 391 4500 
L 391 5072 
Q 616 5119 856 5119 
Q 1281 5119 1507 4892 
Q 1734 4666 1950 4069 
L 3388 0 
z
" transform="scale(0.015625)"/>
        <path id="MicrosoftYaHei-35" d="M 3294 1494 
Q 3294 784 2823 350 
Q 2353 -84 1559 -84 
Q 878 -84 544 119 
L 544 744 
Q 1034 425 1544 425 
Q 2050 425 2361 704 
Q 2672 984 2672 1447 
Q 2672 1909 2348 2167 
Q 2025 2425 1434 2425 
Q 978 2425 613 2384 
L 791 4841 
L 3053 4841 
L 3053 4303 
L 1306 4303 
L 1206 2931 
L 1647 2950 
Q 2416 2950 2855 2567 
Q 3294 2184 3294 1494 
z
" transform="scale(0.015625)"/>
        <path id="MicrosoftYaHei-29" d="M 78 -1100 
Q 1131 163 1131 1853 
Q 1131 3547 72 4841 
L 616 4841 
Q 1672 3603 1672 1847 
Q 1672 91 616 -1100 
L 78 -1100 
z
" transform="scale(0.015625)"/>
        <path id="MicrosoftYaHei-20" transform="scale(0.015625)"/>
        <path id="MicrosoftYaHei-2d" d="M 2328 1681 
L 488 1681 
L 488 2153 
L 2328 2153 
L 2328 1681 
z
" transform="scale(0.015625)"/>
        <path id="MicrosoftYaHei-50" d="M 1250 1809 
L 1250 0 
L 625 0 
L 625 4841 
L 2000 4841 
Q 2784 4841 3217 4462 
Q 3650 4084 3650 3381 
Q 3650 2669 3144 2226 
Q 2638 1784 1878 1809 
L 1250 1809 
z
M 1250 4291 
L 1250 2359 
L 1828 2359 
Q 2400 2359 2697 2617 
Q 2994 2875 2994 3356 
Q 2994 4291 1888 4291 
L 1250 4291 
z
" transform="scale(0.015625)"/>
        <path id="MicrosoftYaHei-4f" d="M 313 2363 
Q 313 3534 947 4228 
Q 1581 4922 2666 4922 
Q 3675 4922 4290 4244 
Q 4906 3566 4906 2478 
Q 4906 1300 4275 609 
Q 3644 -81 2588 -81 
Q 1556 -81 934 597 
Q 313 1275 313 2363 
z
M 969 2413 
Q 969 1534 1417 1004 
Q 1866 475 2588 475 
Q 3363 475 3805 983 
Q 4247 1491 4247 2403 
Q 4247 3341 3814 3850 
Q 3381 4359 2628 4359 
Q 1888 4359 1428 3821 
Q 969 3284 969 2413 
z
" transform="scale(0.015625)"/>
       </defs>
       <use xlink:href="#MicrosoftYaHei-6cca"/>
       <use xlink:href="#MicrosoftYaHei-677e" transform="translate(100 0)"/>
       <use xlink:href="#MicrosoftYaHei-5206" transform="translate(200 0)"/>
       <use xlink:href="#MicrosoftYaHei-5e03" transform="translate(300 0)"/>
       <use xlink:href="#MicrosoftYaHei-28" transform="translate(400 0)"/>
       <use xlink:href="#MicrosoftYaHei-4f4e" transform="translate(433.398438 0)"/>
       <use xlink:href="#MicrosoftYaHei-5747" transform="translate(533.398438 0)"/>
       <use xlink:href="#MicrosoftYaHei-503c" transform="translate(633.398438 0)"/>
       <use xlink:href="#MicrosoftYaHei-2c" transform="translate(733.398438 0)"/>
       <use xlink:href="#MicrosoftYaHei-3bb" transform="translate(757.470703 0)"/>
       <use xlink:href="#MicrosoftYaHei-35" transform="translate(811.914062 0)"/>
       <use xlink:href="#MicrosoftYaHei-29" transform="translate(870.556641 0)"/>
       <use xlink:href="#MicrosoftYaHei-20" transform="translate(903.955078 0)"/>
       <use xlink:href="#MicrosoftYaHei-2d" transform="translate(933.544922 0)"/>
       <use xlink:href="#MicrosoftYaHei-20" transform="translate(976.806641 0)"/>
       <use xlink:href="#MicrosoftYaHei-50" transform="translate(1006.396484 0)"/>
       <use xlink:href="#MicrosoftYaHei-50" transform="translate(1067.578125 0)"/>
       <use xlink:href="#MicrosoftYaHei-4f" transform="translate(1128.759766 0)"/>
      </g>
     </g>
    </g>
    <g id="ytick_2">
     <g id="line2d_10">
      <path d="M 183.7925 282.706545 
L 842.142045 282.706545 
" clip-path="url(#p18b90928cd)" style="fill: none; stroke-dasharray: 2.96,1.28; stroke-dashoffset: 0; stroke: #cccccc; stroke-opacity: 0.6; stroke-width: 0.8"/>
     </g>
     <g id="text_11">
      <!-- 泊松分布(低均值,λ5) - PPO -->
      <g style="fill: #262626" transform="translate(43.659844 287.103108) scale(0.11 -0.11)">
       <use xlink:href="#MicrosoftYaHei-6cca"/>
       <use xlink:href="#MicrosoftYaHei-677e" transform="translate(100 0)"/>
       <use xlink:href="#MicrosoftYaHei-5206" transform="translate(200 0)"/>
       <use xlink:href="#MicrosoftYaHei-5e03" transform="translate(300 0)"/>
       <use xlink:href="#MicrosoftYaHei-28" transform="translate(400 0)"/>
       <use xlink:href="#MicrosoftYaHei-4f4e" transform="translate(433.398438 0)"/>
       <use xlink:href="#MicrosoftYaHei-5747" transform="translate(533.398438 0)"/>
       <use xlink:href="#MicrosoftYaHei-503c" transform="translate(633.398438 0)"/>
       <use xlink:href="#MicrosoftYaHei-2c" transform="translate(733.398438 0)"/>
       <use xlink:href="#MicrosoftYaHei-3bb" transform="translate(757.470703 0)"/>
       <use xlink:href="#MicrosoftYaHei-35" transform="translate(811.914062 0)"/>
       <use xlink:href="#MicrosoftYaHei-29" transform="translate(870.556641 0)"/>
       <use xlink:href="#MicrosoftYaHei-20" transform="translate(903.955078 0)"/>
       <use xlink:href="#MicrosoftYaHei-2d" transform="translate(933.544922 0)"/>
       <use xlink:href="#MicrosoftYaHei-20" transform="translate(976.806641 0)"/>
       <use xlink:href="#MicrosoftYaHei-50" transform="translate(1006.396484 0)"/>
       <use xlink:href="#MicrosoftYaHei-50" transform="translate(1067.578125 0)"/>
       <use xlink:href="#MicrosoftYaHei-4f" transform="translate(1128.759766 0)"/>
      </g>
     </g>
    </g>
    <g id="ytick_3">
     <g id="line2d_11">
      <path d="M 183.7925 191.877455 
L 842.142045 191.877455 
" clip-path="url(#p18b90928cd)" style="fill: none; stroke-dasharray: 2.96,1.28; stroke-dashoffset: 0; stroke: #cccccc; stroke-opacity: 0.6; stroke-width: 0.8"/>
     </g>
     <g id="text_12">
      <!-- 正态-小幅均值改变(μ11,σ2) - PPO -->
      <g style="fill: #262626" transform="translate(7.2 196.274017) scale(0.11 -0.11)">
       <defs>
        <path id="MicrosoftYaHei-6b63" d="M 88 66 
L 1106 66 
L 1106 3416 
L 1644 3416 
L 1644 66 
L 3231 66 
L 3231 4309 
L 375 4309 
L 375 4797 
L 6063 4797 
L 6063 4309 
L 3769 4309 
L 3769 2672 
L 5850 2672 
L 5850 2191 
L 3769 2191 
L 3769 66 
L 6313 66 
L 6313 -422 
L 88 -422 
L 88 66 
z
" transform="scale(0.015625)"/>
        <path id="MicrosoftYaHei-6001" d="M 325 4434 
L 2888 4434 
Q 2972 4822 2969 5328 
L 3438 5328 
Q 3444 4841 3372 4434 
L 6075 4434 
L 6075 3991 
L 3528 3991 
Q 4419 2706 6231 2241 
Q 6050 2034 5881 1759 
Q 4041 2394 3172 3772 
Q 2975 3331 2588 2953 
Q 3078 2616 3538 2259 
L 3225 1891 
Q 2828 2244 2259 2675 
Q 1556 2138 388 1703 
Q 294 1922 113 2178 
Q 2250 2866 2750 3991 
L 325 3991 
L 325 4434 
z
M 1713 1547 
L 2200 1547 
L 2200 203 
Q 2200 -172 2575 -172 
L 3763 -172 
Q 4175 -172 4256 134 
Q 4331 428 4381 1028 
Q 4556 953 4863 847 
Q 4763 128 4706 -47 
Q 4563 -616 3869 -616 
L 2488 -616 
Q 1713 -616 1713 172 
L 1713 1547 
z
M 813 1447 
L 1281 1297 
Q 1038 522 663 -297 
Q 463 -203 194 -116 
Q 569 591 813 1447 
z
M 4894 1272 
L 5263 1553 
Q 5781 972 6306 309 
L 5888 -9 
Q 5425 641 4894 1272 
z
M 2594 1503 
L 2913 1809 
Q 3419 1403 3850 991 
L 3488 641 
Q 3094 1059 2594 1503 
z
" transform="scale(0.015625)"/>
        <path id="MicrosoftYaHei-5c0f" d="M 1513 3878 
L 2025 3697 
Q 1425 1984 625 478 
Q 413 609 113 759 
Q 831 1972 1513 3878 
z
M 4300 3641 
L 4769 3866 
Q 5563 2422 6319 828 
L 5750 559 
Q 4988 2328 4300 3641 
z
M 3000 5247 
L 3556 5247 
L 3556 66 
Q 3556 -747 2675 -747 
Q 2325 -747 1744 -728 
Q 1700 -453 1638 -141 
Q 2238 -197 2556 -197 
Q 3000 -197 3000 203 
L 3000 5247 
z
" transform="scale(0.015625)"/>
        <path id="MicrosoftYaHei-5e45" d="M 2725 2197 
L 6094 2197 
L 6094 -822 
L 5681 -822 
L 5681 -459 
L 3138 -459 
L 3138 -816 
L 2725 -816 
L 2725 2197 
z
M 331 4222 
L 1131 4222 
L 1131 5297 
L 1544 5297 
L 1544 4222 
L 2388 4222 
L 2388 978 
Q 2388 472 1900 472 
L 1700 472 
Q 1663 659 1594 872 
Q 1719 859 1831 859 
Q 1988 859 1988 1028 
L 1988 3822 
L 1544 3822 
L 1544 -816 
L 1131 -816 
L 1131 3822 
L 731 3822 
L 731 384 
L 331 384 
L 331 4222 
z
M 3031 4178 
L 5813 4178 
L 5813 2478 
L 5400 2478 
L 5400 2703 
L 3444 2703 
L 3444 2478 
L 3031 2478 
L 3031 4178 
z
M 2588 5009 
L 6250 5009 
L 6250 4609 
L 2588 4609 
L 2588 5009 
z
M 5400 3791 
L 3444 3791 
L 3444 3091 
L 5400 3091 
L 5400 3791 
z
M 5681 1809 
L 4606 1809 
L 4606 1053 
L 5681 1053 
L 5681 1809 
z
M 3138 1053 
L 4206 1053 
L 4206 1809 
L 3138 1809 
L 3138 1053 
z
M 4606 -72 
L 5681 -72 
L 5681 678 
L 4606 678 
L 4606 -72 
z
M 3138 -72 
L 4206 -72 
L 4206 678 
L 3138 678 
L 3138 -72 
z
" transform="scale(0.015625)"/>
        <path id="MicrosoftYaHei-6539" d="M 2513 2709 
Q 3106 3791 3575 5341 
L 4069 5197 
Q 3894 4694 3709 4234 
L 6238 4234 
L 6238 3772 
L 5506 3772 
Q 5338 1747 4597 772 
Q 5203 125 6331 -259 
Q 6150 -434 5938 -747 
Q 4863 -234 4272 391 
Q 3634 -259 2363 -847 
Q 2213 -628 1994 -403 
Q 3303 144 3941 791 
Q 3363 1594 3147 2944 
Q 2988 2616 2825 2316 
Q 2669 2541 2513 2709 
z
M 450 2809 
L 2013 2809 
L 2013 4372 
L 331 4372 
L 331 4809 
L 2500 4809 
L 2500 2034 
L 2013 2034 
L 2013 2372 
L 938 2372 
L 938 303 
Q 1700 666 2500 1116 
Q 2544 816 2600 609 
Q 1788 203 931 -278 
Q 700 -441 569 -572 
L 231 -141 
Q 450 59 450 422 
L 450 2809 
z
M 3463 3634 
Q 3681 2050 4269 1184 
Q 4853 2038 5016 3772 
L 3522 3772 
L 3463 3634 
z
" transform="scale(0.015625)"/>
        <path id="MicrosoftYaHei-53d8" d="M 838 1634 
L 838 2066 
L 5088 2066 
L 5088 1634 
Q 4494 853 3659 309 
Q 4675 -178 6313 -297 
Q 6088 -609 5950 -822 
Q 4275 -594 3178 34 
Q 2122 -509 425 -866 
Q 269 -622 106 -403 
Q 1741 -122 2728 328 
Q 2047 838 1553 1634 
L 838 1634 
z
M 231 4534 
L 3081 4534 
Q 2888 4884 2725 5141 
L 3175 5359 
Q 3481 4884 3600 4659 
L 3359 4534 
L 6200 4534 
L 6200 4091 
L 4181 4091 
L 4181 2353 
L 3700 2353 
L 3700 4091 
L 2694 4091 
L 2694 2341 
L 2213 2341 
L 2213 4091 
L 231 4091 
L 231 4534 
z
M 4475 1634 
L 2116 1634 
Q 2575 953 3197 572 
Q 3947 1016 4475 1634 
z
M 4556 3434 
L 4900 3728 
Q 5700 3009 6213 2459 
L 5825 2116 
Q 5219 2797 4556 3434 
z
M 1381 3741 
L 1756 3422 
Q 1119 2691 500 2097 
Q 344 2272 138 2447 
Q 794 3009 1381 3741 
z
" transform="scale(0.015625)"/>
        <path id="MicrosoftYaHei-3bc" d="M 2947 0 
Q 2869 238 2869 559 
L 2853 559 
Q 2578 -78 1934 -78 
Q 1400 -78 1169 316 
L 1156 316 
L 1156 -1338 
L 547 -1338 
L 547 3456 
L 1156 3456 
L 1156 1359 
Q 1156 941 1379 695 
Q 1603 450 1966 450 
Q 2363 450 2606 734 
Q 2850 1019 2850 1494 
L 2850 3456 
L 3469 3456 
L 3469 913 
Q 3469 259 3581 0 
L 2947 0 
z
" transform="scale(0.015625)"/>
        <path id="MicrosoftYaHei-31" d="M 1781 0 
L 1781 4141 
Q 1638 3997 1295 3819 
Q 953 3641 663 3569 
L 663 4169 
Q 1047 4275 1484 4508 
Q 1922 4741 2156 4947 
L 2388 4947 
L 2388 0 
L 1781 0 
z
" transform="scale(0.015625)"/>
        <path id="MicrosoftYaHei-3c3" d="M 3925 2972 
L 3075 2972 
Q 3541 2375 3541 1647 
Q 3541 875 3106 397 
Q 2672 -81 1956 -81 
Q 1209 -81 764 409 
Q 319 900 319 1697 
Q 319 3456 2084 3456 
L 3925 3456 
L 3925 2972 
z
M 2141 2972 
Q 947 2972 947 1672 
Q 947 1122 1217 775 
Q 1488 428 1953 428 
Q 2403 428 2659 772 
Q 2916 1116 2916 1691 
Q 2916 2416 2522 2972 
L 2141 2972 
z
" transform="scale(0.015625)"/>
        <path id="MicrosoftYaHei-32" d="M 2666 3572 
Q 2666 3963 2419 4186 
Q 2172 4409 1747 4409 
Q 1447 4409 1140 4256 
Q 834 4103 569 3819 
L 569 4413 
Q 806 4659 1107 4790 
Q 1409 4922 1816 4922 
Q 2472 4922 2872 4570 
Q 3272 4219 3272 3619 
Q 3272 3084 3026 2693 
Q 2781 2303 2188 1894 
Q 1581 1475 1376 1294 
Q 1172 1113 1090 947 
Q 1009 781 1009 544 
L 3416 544 
L 3416 0 
L 372 0 
L 372 241 
Q 372 659 486 951 
Q 600 1244 862 1520 
Q 1125 1797 1681 2184 
Q 2250 2584 2458 2886 
Q 2666 3188 2666 3572 
z
" transform="scale(0.015625)"/>
       </defs>
       <use xlink:href="#MicrosoftYaHei-6b63"/>
       <use xlink:href="#MicrosoftYaHei-6001" transform="translate(100 0)"/>
       <use xlink:href="#MicrosoftYaHei-2d" transform="translate(200 0)"/>
       <use xlink:href="#MicrosoftYaHei-5c0f" transform="translate(243.261719 0)"/>
       <use xlink:href="#MicrosoftYaHei-5e45" transform="translate(343.261719 0)"/>
       <use xlink:href="#MicrosoftYaHei-5747" transform="translate(443.261719 0)"/>
       <use xlink:href="#MicrosoftYaHei-503c" transform="translate(543.261719 0)"/>
       <use xlink:href="#MicrosoftYaHei-6539" transform="translate(643.261719 0)"/>
       <use xlink:href="#MicrosoftYaHei-53d8" transform="translate(743.261719 0)"/>
       <use xlink:href="#MicrosoftYaHei-28" transform="translate(843.261719 0)"/>
       <use xlink:href="#MicrosoftYaHei-3bc" transform="translate(876.660156 0)"/>
       <use xlink:href="#MicrosoftYaHei-31" transform="translate(939.453125 0)"/>
       <use xlink:href="#MicrosoftYaHei-31" transform="translate(998.095703 0)"/>
       <use xlink:href="#MicrosoftYaHei-2c" transform="translate(1056.738281 0)"/>
       <use xlink:href="#MicrosoftYaHei-3c3" transform="translate(1080.810547 0)"/>
       <use xlink:href="#MicrosoftYaHei-32" transform="translate(1143.359375 0)"/>
       <use xlink:href="#MicrosoftYaHei-29" transform="translate(1202.001953 0)"/>
       <use xlink:href="#MicrosoftYaHei-20" transform="translate(1235.400391 0)"/>
       <use xlink:href="#MicrosoftYaHei-2d" transform="translate(1264.990234 0)"/>
       <use xlink:href="#MicrosoftYaHei-20" transform="translate(1308.251953 0)"/>
       <use xlink:href="#MicrosoftYaHei-50" transform="translate(1337.841797 0)"/>
       <use xlink:href="#MicrosoftYaHei-50" transform="translate(1399.023438 0)"/>
       <use xlink:href="#MicrosoftYaHei-4f" transform="translate(1460.205078 0)"/>
      </g>
     </g>
    </g>
    <g id="ytick_4">
     <g id="line2d_12">
      <path d="M 183.7925 101.048364 
L 842.142045 101.048364 
" clip-path="url(#p18b90928cd)" style="fill: none; stroke-dasharray: 2.96,1.28; stroke-dashoffset: 0; stroke: #cccccc; stroke-opacity: 0.6; stroke-width: 0.8"/>
     </g>
     <g id="text_13">
      <!-- 正态-小幅均值改变(μ11,σ2) - PPO -->
      <g style="fill: #262626" transform="translate(7.2 105.444926) scale(0.11 -0.11)">
       <use xlink:href="#MicrosoftYaHei-6b63"/>
       <use xlink:href="#MicrosoftYaHei-6001" transform="translate(100 0)"/>
       <use xlink:href="#MicrosoftYaHei-2d" transform="translate(200 0)"/>
       <use xlink:href="#MicrosoftYaHei-5c0f" transform="translate(243.261719 0)"/>
       <use xlink:href="#MicrosoftYaHei-5e45" transform="translate(343.261719 0)"/>
       <use xlink:href="#MicrosoftYaHei-5747" transform="translate(443.261719 0)"/>
       <use xlink:href="#MicrosoftYaHei-503c" transform="translate(543.261719 0)"/>
       <use xlink:href="#MicrosoftYaHei-6539" transform="translate(643.261719 0)"/>
       <use xlink:href="#MicrosoftYaHei-53d8" transform="translate(743.261719 0)"/>
       <use xlink:href="#MicrosoftYaHei-28" transform="translate(843.261719 0)"/>
       <use xlink:href="#MicrosoftYaHei-3bc" transform="translate(876.660156 0)"/>
       <use xlink:href="#MicrosoftYaHei-31" transform="translate(939.453125 0)"/>
       <use xlink:href="#MicrosoftYaHei-31" transform="translate(998.095703 0)"/>
       <use xlink:href="#MicrosoftYaHei-2c" transform="translate(1056.738281 0)"/>
       <use xlink:href="#MicrosoftYaHei-3c3" transform="translate(1080.810547 0)"/>
       <use xlink:href="#MicrosoftYaHei-32" transform="translate(1143.359375 0)"/>
       <use xlink:href="#MicrosoftYaHei-29" transform="translate(1202.001953 0)"/>
       <use xlink:href="#MicrosoftYaHei-20" transform="translate(1235.400391 0)"/>
       <use xlink:href="#MicrosoftYaHei-2d" transform="translate(1264.990234 0)"/>
       <use xlink:href="#MicrosoftYaHei-20" transform="translate(1308.251953 0)"/>
       <use xlink:href="#MicrosoftYaHei-50" transform="translate(1337.841797 0)"/>
       <use xlink:href="#MicrosoftYaHei-50" transform="translate(1399.023438 0)"/>
       <use xlink:href="#MicrosoftYaHei-4f" transform="translate(1460.205078 0)"/>
      </g>
     </g>
    </g>
   </g>
   <g id="line2d_13">
    <path d="M 811.675111 373.535636 
L 811.313807 373.535636 
" clip-path="url(#p18b90928cd)" style="fill: none; stroke: #d9534f; stroke-opacity: 0.7; stroke-width: 2; stroke-linecap: round"/>
   </g>
   <g id="line2d_14">
    <path d="M 809.507288 282.706545 
L 812.217066 282.706545 
" clip-path="url(#p18b90928cd)" style="fill: none; stroke: #5cb85c; stroke-opacity: 0.7; stroke-width: 2; stroke-linecap: round"/>
   </g>
   <g id="line2d_15">
    <path d="M 214.440087 191.877455 
L 562.375554 191.877455 
" clip-path="url(#p18b90928cd)" style="fill: none; stroke: #5cb85c; stroke-opacity: 0.7; stroke-width: 2; stroke-linecap: round"/>
   </g>
   <g id="line2d_16">
    <path d="M 213.717479 101.048364 
L 562.736858 101.048364 
" clip-path="url(#p18b90928cd)" style="fill: none; stroke: #5cb85c; stroke-opacity: 0.7; stroke-width: 2; stroke-linecap: round"/>
   </g>
   <g id="PathCollection_1">
    <defs>
     <path id="m07ebfd98ff" d="M 0 5.477226 
C 1.452577 5.477226 2.845856 4.900111 3.872983 3.872983 
C 4.900111 2.845856 5.477226 1.452577 5.477226 0 
C 5.477226 -1.452577 4.900111 -2.845856 3.872983 -3.872983 
C 2.845856 -4.900111 1.452577 -5.477226 0 -5.477226 
C -1.452577 -5.477226 -2.845856 -4.900111 -3.872983 -3.872983 
C -4.900111 -2.845856 -5.477226 -1.452577 -5.477226 0 
C -5.477226 1.452577 -4.900111 2.845856 -3.872983 3.872983 
C -2.845856 4.900111 -1.452577 5.477226 0 5.477226 
z
" style="stroke: #d9534f; stroke-opacity: 0.9"/>
    </defs>
    <g clip-path="url(#p18b90928cd)">
     <use xlink:href="#m07ebfd98ff" x="811.675111" y="373.535636" style="fill: #d9534f; fill-opacity: 0.9; stroke: #d9534f; stroke-opacity: 0.9"/>
     <use xlink:href="#m07ebfd98ff" x="809.507288" y="282.706545" style="fill: #d9534f; fill-opacity: 0.9; stroke: #d9534f; stroke-opacity: 0.9"/>
     <use xlink:href="#m07ebfd98ff" x="214.440087" y="191.877455" style="fill: #d9534f; fill-opacity: 0.9; stroke: #d9534f; stroke-opacity: 0.9"/>
     <use xlink:href="#m07ebfd98ff" x="213.717479" y="101.048364" style="fill: #d9534f; fill-opacity: 0.9; stroke: #d9534f; stroke-opacity: 0.9"/>
    </g>
   </g>
   <g id="PathCollection_2">
    <defs>
     <path id="m353b98d14c" d="M 0 5.477226 
C 1.452577 5.477226 2.845856 4.900111 3.872983 3.872983 
C 4.900111 2.845856 5.477226 1.452577 5.477226 0 
C 5.477226 -1.452577 4.900111 -2.845856 3.872983 -3.872983 
C 2.845856 -4.900111 1.452577 -5.477226 0 -5.477226 
C -1.452577 -5.477226 -2.845856 -4.900111 -3.872983 -3.872983 
C -4.900111 -2.845856 -5.477226 -1.452577 -5.477226 0 
C -5.477226 1.452577 -4.900111 2.845856 -3.872983 3.872983 
C -2.845856 4.900111 -1.452577 5.477226 0 5.477226 
z
" style="stroke: #5cb85c; stroke-opacity: 0.9"/>
    </defs>
    <g clip-path="url(#p18b90928cd)">
     <use xlink:href="#m353b98d14c" x="811.313807" y="373.535636" style="fill: #5cb85c; fill-opacity: 0.9; stroke: #5cb85c; stroke-opacity: 0.9"/>
     <use xlink:href="#m353b98d14c" x="812.217066" y="282.706545" style="fill: #5cb85c; fill-opacity: 0.9; stroke: #5cb85c; stroke-opacity: 0.9"/>
     <use xlink:href="#m353b98d14c" x="562.375554" y="191.877455" style="fill: #5cb85c; fill-opacity: 0.9; stroke: #5cb85c; stroke-opacity: 0.9"/>
     <use xlink:href="#m353b98d14c" x="562.736858" y="101.048364" style="fill: #5cb85c; fill-opacity: 0.9; stroke: #5cb85c; stroke-opacity: 0.9"/>
    </g>
   </g>
   <g id="patch_3">
    <path d="M 183.7925 387.16 
L 842.142045 387.16 
" style="fill: none; stroke: #cccccc; stroke-width: 0.8; stroke-linejoin: miter; stroke-linecap: square"/>
   </g>
   <g id="text_14">
    <!-- -0.0 -->
    <g style="fill: #9c4240" transform="translate(803.671959 357.922523) scale(0.08 -0.08)">
     <defs>
      <path id="MicrosoftYaHei-Bold-2d" d="M 2328 1497 
L 481 1497 
L 481 2209 
L 2328 2209 
L 2328 1497 
z
" transform="scale(0.015625)"/>
      <path id="MicrosoftYaHei-Bold-30" d="M 244 2341 
Q 244 3597 706 4259 
Q 1169 4922 2044 4922 
Q 3713 4922 3713 2453 
Q 3713 1238 3259 577 
Q 2806 -84 1950 -84 
Q 244 -84 244 2341 
z
M 1266 2366 
Q 1266 691 1981 691 
Q 2684 691 2684 2416 
Q 2684 4147 2000 4147 
Q 1266 4147 1266 2366 
z
" transform="scale(0.015625)"/>
      <path id="MicrosoftYaHei-Bold-2e" d="M 313 453 
Q 313 688 491 838 
Q 669 988 916 988 
Q 1166 988 1337 834 
Q 1509 681 1509 453 
Q 1509 213 1337 64 
Q 1166 -84 903 -84 
Q 659 -84 486 69 
Q 313 222 313 453 
z
" transform="scale(0.015625)"/>
     </defs>
     <use xlink:href="#MicrosoftYaHei-Bold-2d"/>
     <use xlink:href="#MicrosoftYaHei-Bold-30" transform="translate(43.652344 0)"/>
     <use xlink:href="#MicrosoftYaHei-Bold-2e" transform="translate(105.322266 0)"/>
     <use xlink:href="#MicrosoftYaHei-Bold-30" transform="translate(133.886719 0)"/>
    </g>
   </g>
   <g id="text_15">
    <!-- +0.2 -->
    <g style="fill: #3a7d3a" transform="translate(801.740927 267.093432) scale(0.08 -0.08)">
     <defs>
      <path id="MicrosoftYaHei-Bold-2b" d="M 4072 1653 
L 2766 1653 
L 2766 347 
L 2109 347 
L 2109 1653 
L 797 1653 
L 797 2313 
L 2109 2313 
L 2109 3625 
L 2766 3625 
L 2766 2313 
L 4072 2313 
L 4072 1653 
z
" transform="scale(0.015625)"/>
      <path id="MicrosoftYaHei-Bold-32" d="M 1500 841 
L 3553 841 
L 3553 0 
L 334 0 
L 334 359 
Q 334 738 473 1050 
Q 613 1363 856 1633 
Q 1100 1903 1613 2266 
Q 2081 2616 2268 2886 
Q 2456 3156 2456 3459 
Q 2456 4113 1744 4113 
Q 1119 4113 550 3613 
L 550 4513 
Q 1184 4922 1975 4922 
Q 2700 4922 3122 4551 
Q 3544 4181 3544 3531 
Q 3544 3169 3422 2876 
Q 3300 2584 3069 2328 
Q 2838 2072 2328 1713 
Q 1838 1363 1669 1172 
Q 1500 981 1500 841 
z
" transform="scale(0.015625)"/>
     </defs>
     <use xlink:href="#MicrosoftYaHei-Bold-2b"/>
     <use xlink:href="#MicrosoftYaHei-Bold-30" transform="translate(76.123047 0)"/>
     <use xlink:href="#MicrosoftYaHei-Bold-2e" transform="translate(137.792969 0)"/>
     <use xlink:href="#MicrosoftYaHei-Bold-32" transform="translate(166.357422 0)"/>
    </g>
   </g>
   <g id="text_16">
    <!-- +21.2 -->
    <g style="fill: #3a7d3a" transform="translate(376.819696 176.264341) scale(0.08 -0.08)">
     <defs>
      <path id="MicrosoftYaHei-Bold-31" d="M 2716 4947 
L 2716 0 
L 1700 0 
L 1700 3809 
Q 1513 3647 1188 3517 
Q 863 3388 591 3356 
L 591 4222 
Q 1447 4472 2072 4947 
L 2716 4947 
z
" transform="scale(0.015625)"/>
     </defs>
     <use xlink:href="#MicrosoftYaHei-Bold-2b"/>
     <use xlink:href="#MicrosoftYaHei-Bold-32" transform="translate(76.123047 0)"/>
     <use xlink:href="#MicrosoftYaHei-Bold-31" transform="translate(137.792969 0)"/>
     <use xlink:href="#MicrosoftYaHei-Bold-2e" transform="translate(199.462891 0)"/>
     <use xlink:href="#MicrosoftYaHei-Bold-32" transform="translate(228.027344 0)"/>
    </g>
   </g>
   <g id="text_17">
    <!-- +21.3 -->
    <g style="fill: #3a7d3a" transform="translate(376.639044 85.43525) scale(0.08 -0.08)">
     <defs>
      <path id="MicrosoftYaHei-Bold-33" d="M 494 1053 
Q 978 691 1625 691 
Q 2034 691 2275 872 
Q 2516 1053 2516 1388 
Q 2516 1731 2230 1912 
Q 1944 2094 1428 2094 
L 997 2094 
L 997 2872 
L 1394 2872 
Q 2369 2872 2369 3528 
Q 2369 4147 1622 4147 
Q 1134 4147 675 3828 
L 675 4663 
Q 1175 4922 1853 4922 
Q 2541 4922 2969 4605 
Q 3397 4288 3397 3725 
Q 3397 2775 2434 2531 
L 2434 2516 
Q 2941 2459 3244 2145 
Q 3547 1831 3547 1381 
Q 3547 691 3042 303 
Q 2538 -84 1697 -84 
Q 950 -84 494 163 
L 494 1053 
z
" transform="scale(0.015625)"/>
     </defs>
     <use xlink:href="#MicrosoftYaHei-Bold-2b"/>
     <use xlink:href="#MicrosoftYaHei-Bold-32" transform="translate(76.123047 0)"/>
     <use xlink:href="#MicrosoftYaHei-Bold-31" transform="translate(137.792969 0)"/>
     <use xlink:href="#MicrosoftYaHei-Bold-2e" transform="translate(199.462891 0)"/>
     <use xlink:href="#MicrosoftYaHei-Bold-33" transform="translate(228.027344 0)"/>
    </g>
   </g>
   <g id="text_18">
    <!-- 48.3 -->
    <g style="fill: #d9534f" transform="translate(829.630098 376.014152) scale(0.09 -0.09)">
     <defs>
      <path id="MicrosoftYaHei-Bold-34" d="M 3184 4841 
L 3184 1766 
L 3869 1766 
L 3869 1031 
L 3184 1031 
L 3184 0 
L 2266 0 
L 2266 1031 
L 103 1031 
L 103 1772 
Q 775 2522 1362 3359 
Q 1950 4197 2250 4841 
L 3184 4841 
z
M 997 1766 
L 2266 1766 
L 2266 3541 
Q 2116 3259 1836 2859 
Q 1556 2459 997 1766 
z
" transform="scale(0.015625)"/>
      <path id="MicrosoftYaHei-Bold-38" d="M 269 1303 
Q 269 1725 512 2053 
Q 756 2381 1219 2534 
Q 850 2719 648 3003 
Q 447 3288 447 3634 
Q 447 3997 645 4292 
Q 844 4588 1200 4755 
Q 1556 4922 1997 4922 
Q 2441 4922 2800 4758 
Q 3159 4594 3359 4298 
Q 3559 4003 3559 3647 
Q 3559 3309 3339 3018 
Q 3119 2728 2747 2559 
Q 3200 2403 3453 2076 
Q 3706 1750 3706 1313 
Q 3706 697 3228 309 
Q 2750 -78 1988 -78 
Q 1225 -78 747 309 
Q 269 697 269 1303 
z
M 1278 1394 
Q 1278 1056 1472 853 
Q 1666 650 1991 650 
Q 2303 650 2503 853 
Q 2703 1056 2703 1394 
Q 2703 1709 2500 1920 
Q 2297 2131 1991 2131 
Q 1675 2131 1476 1920 
Q 1278 1709 1278 1394 
z
M 1428 3531 
Q 1428 3266 1592 3077 
Q 1756 2888 2006 2888 
Q 2247 2888 2415 3072 
Q 2584 3256 2584 3531 
Q 2584 3806 2420 3997 
Q 2256 4188 2006 4188 
Q 1750 4188 1589 3997 
Q 1428 3806 1428 3531 
z
" transform="scale(0.015625)"/>
     </defs>
     <use xlink:href="#MicrosoftYaHei-Bold-34"/>
     <use xlink:href="#MicrosoftYaHei-Bold-38" transform="translate(61.669922 0)"/>
     <use xlink:href="#MicrosoftYaHei-Bold-2e" transform="translate(123.339844 0)"/>
     <use xlink:href="#MicrosoftYaHei-Bold-33" transform="translate(151.904297 0)"/>
    </g>
   </g>
   <g id="text_19">
    <!-- 48.2 -->
    <g style="fill: #5cb85c" transform="translate(774.136788 376.014152) scale(0.09 -0.09)">
     <use xlink:href="#MicrosoftYaHei-Bold-34"/>
     <use xlink:href="#MicrosoftYaHei-Bold-38" transform="translate(61.669922 0)"/>
     <use xlink:href="#MicrosoftYaHei-Bold-2e" transform="translate(123.339844 0)"/>
     <use xlink:href="#MicrosoftYaHei-Bold-32" transform="translate(151.904297 0)"/>
    </g>
   </g>
   <g id="text_20">
    <!-- 48.1 -->
    <g style="fill: #d9534f" transform="translate(772.330269 285.185061) scale(0.09 -0.09)">
     <use xlink:href="#MicrosoftYaHei-Bold-34"/>
     <use xlink:href="#MicrosoftYaHei-Bold-38" transform="translate(61.669922 0)"/>
     <use xlink:href="#MicrosoftYaHei-Bold-2e" transform="translate(123.339844 0)"/>
     <use xlink:href="#MicrosoftYaHei-Bold-31" transform="translate(151.904297 0)"/>
    </g>
   </g>
   <g id="text_21">
    <!-- 48.3 -->
    <g style="fill: #5cb85c" transform="translate(830.172054 285.185061) scale(0.09 -0.09)">
     <use xlink:href="#MicrosoftYaHei-Bold-34"/>
     <use xlink:href="#MicrosoftYaHei-Bold-38" transform="translate(61.669922 0)"/>
     <use xlink:href="#MicrosoftYaHei-Bold-2e" transform="translate(123.339844 0)"/>
     <use xlink:href="#MicrosoftYaHei-Bold-33" transform="translate(151.904297 0)"/>
    </g>
   </g>
   <g id="text_22">
    <!-- 11.9 -->
    <g style="fill: #d9534f" transform="translate(177.263068 194.35597) scale(0.09 -0.09)">
     <defs>
      <path id="MicrosoftYaHei-Bold-39" d="M 544 941 
Q 931 691 1456 691 
Q 2628 691 2653 2216 
L 2634 2222 
Q 2316 1731 1650 1731 
Q 1047 1731 658 2154 
Q 269 2578 269 3222 
Q 269 3978 737 4450 
Q 1206 4922 1959 4922 
Q 2744 4922 3191 4325 
Q 3638 3728 3638 2659 
Q 3638 1391 3098 653 
Q 2559 -84 1547 -84 
Q 975 -84 544 100 
L 544 941 
z
M 1259 3313 
Q 1259 2928 1445 2709 
Q 1631 2491 1953 2491 
Q 2241 2491 2427 2700 
Q 2613 2909 2613 3219 
Q 2613 3591 2427 3869 
Q 2241 4147 1928 4147 
Q 1625 4147 1442 3906 
Q 1259 3666 1259 3313 
z
" transform="scale(0.015625)"/>
     </defs>
     <use xlink:href="#MicrosoftYaHei-Bold-31"/>
     <use xlink:href="#MicrosoftYaHei-Bold-31" transform="translate(61.669922 0)"/>
     <use xlink:href="#MicrosoftYaHei-Bold-2e" transform="translate(123.339844 0)"/>
     <use xlink:href="#MicrosoftYaHei-Bold-39" transform="translate(151.904297 0)"/>
    </g>
   </g>
   <g id="text_23">
    <!-- 33.1 -->
    <g style="fill: #5cb85c" transform="translate(580.330542 194.35597) scale(0.09 -0.09)">
     <use xlink:href="#MicrosoftYaHei-Bold-33"/>
     <use xlink:href="#MicrosoftYaHei-Bold-33" transform="translate(61.669922 0)"/>
     <use xlink:href="#MicrosoftYaHei-Bold-2e" transform="translate(123.339844 0)"/>
     <use xlink:href="#MicrosoftYaHei-Bold-31" transform="translate(151.904297 0)"/>
    </g>
   </g>
   <g id="text_24">
    <!-- 11.9 -->
    <g style="fill: #d9534f" transform="translate(176.54046 103.526879) scale(0.09 -0.09)">
     <use xlink:href="#MicrosoftYaHei-Bold-31"/>
     <use xlink:href="#MicrosoftYaHei-Bold-31" transform="translate(61.669922 0)"/>
     <use xlink:href="#MicrosoftYaHei-Bold-2e" transform="translate(123.339844 0)"/>
     <use xlink:href="#MicrosoftYaHei-Bold-39" transform="translate(151.904297 0)"/>
    </g>
   </g>
   <g id="text_25">
    <!-- 33.1 -->
    <g style="fill: #5cb85c" transform="translate(580.691846 103.526879) scale(0.09 -0.09)">
     <use xlink:href="#MicrosoftYaHei-Bold-33"/>
     <use xlink:href="#MicrosoftYaHei-Bold-33" transform="translate(61.669922 0)"/>
     <use xlink:href="#MicrosoftYaHei-Bold-2e" transform="translate(123.339844 0)"/>
     <use xlink:href="#MicrosoftYaHei-Bold-31" transform="translate(151.904297 0)"/>
    </g>
   </g>
   <g id="legend_1">
    <g id="PathCollection_3">
     <g>
      <use xlink:href="#m07ebfd98ff" x="454.967273" y="71.81915" style="fill: #d9534f; fill-opacity: 0.9; stroke: #d9534f; stroke-opacity: 0.9"/>
     </g>
    </g>
    <g id="text_26">
     <!-- 适应前 -->
     <g style="fill: #262626" transform="translate(472.967273 74.44415) scale(0.1 -0.1)">
      <defs>
       <path id="MicrosoftYaHei-9002" d="M 2425 2441 
L 3825 2441 
L 3825 3222 
L 1875 3222 
L 1875 3672 
L 3825 3672 
L 3825 4491 
Q 3050 4444 2225 4397 
Q 2194 4597 2138 4841 
Q 4288 4934 5844 5097 
L 5938 4641 
Q 5153 4581 4313 4525 
L 4313 3672 
L 6269 3672 
L 6269 3222 
L 4313 3222 
L 4313 2441 
L 5725 2441 
L 5725 216 
L 5250 216 
L 5250 503 
L 2900 503 
L 2900 216 
L 2425 216 
L 2425 2441 
z
M 2663 -203 
L 4444 -228 
L 6288 -178 
Q 6194 -434 6113 -672 
L 4344 -672 
L 2581 -647 
Q 1513 -634 1069 84 
Q 813 -153 319 -753 
L 63 -234 
Q 631 313 875 541 
L 875 2641 
L 131 2641 
L 131 3103 
L 1356 3103 
L 1356 403 
Q 1744 -191 2663 -203 
z
M 5250 2016 
L 2900 2016 
L 2900 928 
L 5250 928 
L 5250 2016 
z
M 856 5203 
Q 1325 4603 1731 4022 
L 1288 3709 
Q 894 4334 456 4934 
L 856 5203 
z
" transform="scale(0.015625)"/>
       <path id="MicrosoftYaHei-5e94" d="M 2969 5134 
L 3425 5378 
Q 3694 5034 3938 4634 
L 3634 4459 
L 6169 4459 
L 6169 3984 
L 1300 3984 
L 1300 2453 
Q 1300 241 388 -853 
Q 238 -647 25 -422 
Q 775 416 775 2441 
L 775 4459 
L 3419 4459 
Q 3216 4803 2969 5134 
z
M 1263 -9 
L 4153 -9 
Q 4641 1238 5188 3403 
L 5731 3253 
Q 5147 1191 4694 -9 
L 6238 -9 
L 6238 -484 
L 1263 -484 
L 1263 -9 
z
M 1600 3059 
L 2075 3222 
Q 2463 2084 2825 672 
L 2294 509 
Q 2006 1747 1600 3059 
z
M 3106 3372 
L 3588 3509 
Q 3913 2384 4163 991 
L 3613 847 
Q 3431 2084 3106 3372 
z
" transform="scale(0.015625)"/>
       <path id="MicrosoftYaHei-524d" d="M 1038 -841 
L 563 -841 
L 563 3322 
L 3300 3322 
L 3300 -172 
Q 3300 -784 2669 -772 
Q 2406 -772 1950 -759 
Q 1913 -516 1856 -297 
Q 2238 -328 2563 -328 
Q 2825 -334 2825 -72 
L 2825 722 
L 1038 722 
L 1038 -841 
z
M 150 4372 
L 2169 4372 
Q 1963 4697 1644 5078 
L 2038 5347 
Q 2425 4916 2663 4578 
L 2353 4372 
L 4063 4372 
L 3813 4509 
Q 4144 4916 4388 5359 
L 4863 5084 
Q 4575 4691 4284 4372 
L 6263 4372 
L 6263 3934 
L 150 3934 
L 150 4372 
z
M 5331 3522 
L 5819 3522 
L 5819 28 
Q 5819 -741 5094 -747 
Q 4763 -753 4269 -741 
Q 4238 -484 4181 -216 
Q 4644 -266 4931 -266 
Q 5331 -266 5331 141 
L 5331 3522 
z
M 4044 3222 
L 4519 3222 
L 4519 409 
L 4044 409 
L 4044 3222 
z
M 2825 2897 
L 1038 2897 
L 1038 2228 
L 2825 2228 
L 2825 2897 
z
M 1038 1141 
L 2825 1141 
L 2825 1809 
L 1038 1809 
L 1038 1141 
z
" transform="scale(0.015625)"/>
      </defs>
      <use xlink:href="#MicrosoftYaHei-9002"/>
      <use xlink:href="#MicrosoftYaHei-5e94" transform="translate(100 0)"/>
      <use xlink:href="#MicrosoftYaHei-524d" transform="translate(200 0)"/>
     </g>
    </g>
    <g id="PathCollection_4">
     <g>
      <use xlink:href="#m353b98d14c" x="532.967273" y="71.81915" style="fill: #5cb85c; fill-opacity: 0.9; stroke: #5cb85c; stroke-opacity: 0.9"/>
     </g>
    </g>
    <g id="text_27">
     <!-- 适应后 -->
     <g style="fill: #262626" transform="translate(550.967273 74.44415) scale(0.1 -0.1)">
      <defs>
       <path id="MicrosoftYaHei-540e" d="M 1888 1984 
L 5688 1984 
L 5688 -828 
L 5188 -828 
L 5188 -403 
L 2388 -403 
L 2388 -828 
L 1888 -828 
L 1888 1984 
z
M 1313 2991 
Q 1313 1272 1138 672 
Q 963 -16 394 -847 
Q 250 -634 50 -409 
Q 494 222 650 859 
Q 806 1472 806 2659 
L 806 4766 
Q 3544 4853 5631 5141 
L 5931 4622 
Q 3344 4359 1313 4284 
L 1313 3459 
L 6263 3459 
L 6263 2991 
L 1313 2991 
z
M 5188 1528 
L 2388 1528 
L 2388 41 
L 5188 41 
L 5188 1528 
z
" transform="scale(0.015625)"/>
      </defs>
      <use xlink:href="#MicrosoftYaHei-9002"/>
      <use xlink:href="#MicrosoftYaHei-5e94" transform="translate(100 0)"/>
      <use xlink:href="#MicrosoftYaHei-540e" transform="translate(200 0)"/>
     </g>
    </g>
   </g>
  </g>
  <g id="text_28">
   <!-- 适应性表现哑铃图 -->
   <g style="fill: #262626" transform="translate(364.0425 19.99) scale(0.16 -0.16)">
    <defs>
     <path id="MicrosoftYaHei-Bold-9002" d="M 975 5241 
Q 1319 4778 1806 4059 
L 1081 3609 
Q 719 4209 281 4841 
L 975 5241 
z
M 2250 2534 
L 3644 2534 
L 3644 3072 
L 1875 3072 
L 1875 3797 
L 3644 3797 
L 3644 4309 
L 2131 4247 
Q 2088 4591 2019 4959 
Q 4313 5016 5856 5141 
L 5963 4434 
L 4475 4350 
L 4475 3797 
L 6250 3797 
L 6250 3072 
L 4475 3072 
L 4475 2534 
L 5844 2534 
L 5844 453 
L 2250 453 
L 2250 2534 
z
M 5025 1153 
L 5025 1834 
L 3069 1834 
L 3069 1153 
L 5025 1153 
z
M 6300 128 
Q 6131 -366 6031 -703 
Q 3891 -719 2844 -684 
Q 1797 -650 1238 -103 
Q 813 -522 513 -853 
L 156 109 
L 781 641 
L 781 2222 
L 200 2222 
L 200 3016 
L 1600 3016 
L 1600 638 
Q 2069 109 3025 109 
L 4194 88 
Q 5103 88 6300 128 
z
" transform="scale(0.015625)"/>
     <path id="MicrosoftYaHei-Bold-5e94" d="M 1438 2491 
Q 1438 119 794 -866 
Q 506 -597 88 -266 
Q 619 622 613 2603 
L 613 4566 
L 3009 4566 
Q 2894 4853 2781 5116 
L 3788 5353 
Q 3928 5016 4103 4566 
L 6225 4566 
L 6225 3797 
L 1438 3797 
L 1438 2491 
z
M 3013 3309 
L 3794 3541 
Q 4125 2678 4513 1316 
L 3669 1084 
Q 3300 2416 3013 3309 
z
M 1325 316 
L 4300 316 
Q 4681 1541 5200 3453 
L 6069 3228 
Q 5744 2006 5184 316 
L 6250 316 
L 6250 -553 
L 1325 -553 
L 1325 316 
z
M 1475 2984 
L 2225 3303 
Q 2775 2103 3244 828 
L 2406 516 
Q 2006 1684 1475 2984 
z
" transform="scale(0.015625)"/>
     <path id="MicrosoftYaHei-Bold-6027" d="M 2250 216 
L 3975 216 
L 3975 1378 
L 2563 1378 
L 2563 2191 
L 3975 2191 
L 3975 3303 
L 3213 3303 
Q 3075 2734 2913 2272 
Q 2538 2491 2175 2684 
Q 2563 3684 2738 4947 
L 3506 4891 
Q 3447 4484 3381 4116 
L 3975 4116 
L 3975 5316 
L 4825 5316 
L 4825 4116 
L 6125 4116 
L 6125 3303 
L 4825 3303 
L 4825 2191 
L 6100 2191 
L 6100 1378 
L 4825 1378 
L 4825 216 
L 6313 216 
L 6313 -597 
L 2250 -597 
L 2250 216 
z
M 1788 5316 
L 1788 4456 
Q 2125 4316 2494 4134 
L 2175 3453 
L 1788 3713 
L 1788 -841 
L 950 -841 
L 950 5316 
L 1788 5316 
z
M 269 4103 
L 800 4041 
Q 719 3009 619 2178 
Q 350 2284 106 2316 
Q 225 3284 269 4103 
z
" transform="scale(0.015625)"/>
     <path id="MicrosoftYaHei-Bold-8868" d="M 5925 1259 
L 4825 684 
Q 5459 291 6313 109 
Q 5994 -291 5744 -666 
Q 4638 -309 3894 344 
Q 3878 -91 3888 -328 
Q 2419 -678 1856 -884 
L 1500 -172 
Q 1675 3 1675 403 
L 1675 522 
Q 1078 94 363 -278 
Q 219 203 69 591 
Q 1206 1109 2044 1891 
L 150 1891 
L 150 2591 
L 2750 2591 
L 2750 3003 
L 625 3003 
L 625 3703 
L 2750 3703 
L 2750 4116 
L 363 4116 
L 363 4816 
L 2750 4816 
L 2750 5353 
L 3631 5353 
L 3631 4816 
L 6044 4816 
L 6044 4116 
L 3631 4116 
L 3631 3703 
L 5750 3703 
L 5750 3003 
L 3631 3003 
L 3631 2591 
L 6244 2591 
L 6244 1891 
L 5453 1891 
L 5925 1259 
z
M 4209 1169 
Q 4600 1391 5284 1891 
L 3647 1891 
Q 3888 1488 4209 1169 
z
M 2916 1619 
Q 2722 1406 2506 1203 
L 2506 166 
L 3713 513 
Q 3225 994 2916 1619 
z
" transform="scale(0.015625)"/>
     <path id="MicrosoftYaHei-Bold-73b0" d="M 2475 1172 
L 2475 5103 
L 5900 5103 
L 5900 1222 
L 5075 1222 
L 5075 4284 
L 3300 4284 
L 3300 1172 
L 2475 1172 
z
M 338 -553 
L 75 359 
L 813 619 
L 813 2153 
L 206 2153 
L 206 2978 
L 813 2978 
L 813 4191 
L 163 4191 
L 163 5016 
L 2294 5016 
L 2294 4191 
L 1625 4191 
L 1625 2978 
L 2206 2978 
L 2206 2153 
L 1625 2153 
L 1625 931 
Q 1988 1078 2238 1203 
Q 2269 684 2319 309 
Q 1269 -122 338 -553 
z
M 5506 1003 
Q 5988 772 6306 659 
Q 6169 -353 5964 -540 
Q 5759 -728 5481 -728 
L 4819 -728 
Q 4075 -728 4075 -22 
L 4075 800 
Q 3575 -181 2463 -859 
Q 2200 -509 1850 -134 
Q 2972 434 3361 1164 
Q 3750 1894 3744 3903 
L 4588 3903 
Q 4575 2547 4375 1672 
L 4863 1672 
L 4863 278 
Q 4863 3 5128 3 
Q 5334 3 5398 145 
Q 5463 288 5506 1003 
z
" transform="scale(0.015625)"/>
     <path id="MicrosoftYaHei-Bold-54d1" d="M 2731 3509 
Q 2988 2522 3188 1691 
L 3188 4234 
L 2238 4234 
L 2238 4978 
L 6138 4978 
L 6138 4234 
L 5200 4234 
L 5200 1778 
Q 5481 2703 5631 3453 
L 6350 3272 
Q 6106 2159 5756 1084 
L 5200 1266 
L 5200 166 
L 6325 166 
L 6325 -578 
L 2044 -578 
L 2044 166 
L 3188 166 
L 3188 1228 
L 2619 1078 
Q 2431 2028 2094 3334 
L 2731 3509 
z
M 3975 166 
L 4413 166 
L 4413 4234 
L 3975 4234 
L 3975 166 
z
M 1388 1184 
L 1388 4016 
L 1063 4016 
L 1063 1184 
L 1388 1184 
z
M 2063 4816 
L 2063 384 
L 1063 384 
L 1063 -72 
L 338 -72 
L 338 4816 
L 2063 4816 
z
" transform="scale(0.015625)"/>
     <path id="MicrosoftYaHei-Bold-94c3" d="M 2175 2703 
L 1594 2703 
L 1594 2066 
L 2363 2066 
L 2363 1359 
L 1594 1359 
L 1594 516 
Q 1919 691 2281 922 
Q 2313 491 2394 16 
Q 1719 -359 1413 -553 
Q 1175 -709 1063 -841 
L 638 -222 
Q 806 -53 806 353 
L 806 1359 
L 100 1359 
L 100 2066 
L 806 2066 
L 806 2703 
L 600 2703 
Q 475 2484 338 2297 
Q 238 2791 81 3303 
Q 544 4128 781 5341 
L 1531 5216 
Q 1450 4872 1363 4553 
L 2375 4553 
L 2375 3853 
L 1131 3853 
Q 1050 3622 956 3409 
L 2175 3409 
Q 3144 4053 3831 5303 
L 4819 5303 
L 4694 5097 
Q 5419 3984 6350 3447 
Q 6150 3091 5925 2666 
Q 4913 3378 4225 4484 
Q 3538 3328 2556 2584 
Q 2406 2916 2175 3334 
L 2175 2703 
z
M 4119 3703 
Q 4550 3228 4894 2766 
L 4263 2309 
L 6013 2309 
L 6013 1516 
Q 5650 1028 4831 191 
Q 5163 -3 5463 -184 
L 4963 -884 
Q 3881 -191 2538 616 
L 2963 1259 
Q 3563 922 4094 616 
Q 4531 1053 4944 1516 
L 2525 1516 
L 2525 2309 
L 4250 2309 
Q 3900 2841 3550 3278 
L 4119 3703 
z
" transform="scale(0.015625)"/>
     <path id="MicrosoftYaHei-Bold-56fe" d="M 369 -841 
L 369 5072 
L 6019 5072 
L 6019 -834 
L 5156 -834 
L 5156 -591 
L 1231 -591 
L 1231 -841 
L 369 -841 
z
M 4875 3978 
L 4875 3466 
Q 4547 3022 4006 2678 
Q 4513 2541 5156 2463 
L 5156 4316 
L 3256 4316 
Q 3141 4144 3009 3978 
L 4875 3978 
z
M 2394 4316 
L 1231 4316 
L 1231 3231 
Q 2016 3747 2394 4316 
z
M 3228 2959 
Q 3666 3163 3919 3416 
L 2575 3416 
Q 2828 3156 3228 2959 
z
M 1644 2747 
Q 1481 2925 1231 3147 
L 1231 2400 
Q 1950 2522 2500 2688 
Q 2266 2863 2078 3063 
Q 1872 2900 1644 2747 
z
M 1669 1303 
Q 3319 1084 4775 841 
L 4600 166 
L 5156 166 
L 5156 2388 
Q 5019 2159 4825 1822 
Q 3897 1978 3219 2275 
Q 2872 2134 2472 2019 
Q 3509 1888 4500 1722 
L 4375 1128 
Q 3344 1309 2063 1484 
L 2159 1934 
Q 1856 1859 1525 1797 
Q 1409 2059 1231 2347 
L 1231 166 
L 4569 166 
Q 3297 425 1494 647 
L 1669 1303 
z
" transform="scale(0.015625)"/>
    </defs>
    <use xlink:href="#MicrosoftYaHei-Bold-9002"/>
    <use xlink:href="#MicrosoftYaHei-Bold-5e94" transform="translate(100 0)"/>
    <use xlink:href="#MicrosoftYaHei-Bold-6027" transform="translate(200 0)"/>
    <use xlink:href="#MicrosoftYaHei-Bold-8868" transform="translate(300 0)"/>
    <use xlink:href="#MicrosoftYaHei-Bold-73b0" transform="translate(400 0)"/>
    <use xlink:href="#MicrosoftYaHei-Bold-54d1" transform="translate(500 0)"/>
    <use xlink:href="#MicrosoftYaHei-Bold-94c3" transform="translate(600 0)"/>
    <use xlink:href="#MicrosoftYaHei-Bold-56fe" transform="translate(700 0)"/>
   </g>
  </g>
 </g>
 <defs>
  <clipPath id="p18b90928cd">
   <rect x="183.7925" y="87.424" width="658.349545" height="299.736"/>
  </clipPath>
 </defs>
</svg>
