<?xml version="1.0" encoding="utf-8" standalone="no"?>
<!DOCTYPE svg PUBLIC "-//W3C//DTD SVG 1.1//EN"
  "http://www.w3.org/Graphics/SVG/1.1/DTD/svg11.dtd">
<svg xmlns:xlink="http://www.w3.org/1999/xlink" width="856.501562pt" height="497.537187pt" viewBox="0 0 856.501562 497.537187" xmlns="http://www.w3.org/2000/svg" version="1.1">
 <metadata>
  <rdf:RDF xmlns:dc="http://purl.org/dc/elements/1.1/" xmlns:cc="http://creativecommons.org/ns#" xmlns:rdf="http://www.w3.org/1999/02/22-rdf-syntax-ns#">
   <cc:Work>
    <dc:type rdf:resource="http://purl.org/dc/dcmitype/StillImage"/>
    <dc:date>2025-07-07T17:59:04.114058</dc:date>
    <dc:format>image/svg+xml</dc:format>
    <dc:creator>
     <cc:Agent>
      <dc:title>Matplotlib v3.10.3, https://matplotlib.org/</dc:title>
     </cc:Agent>
    </dc:creator>
   </cc:Work>
  </rdf:RDF>
 </metadata>
 <defs>
  <style type="text/css">*{stroke-linejoin: round; stroke-linecap: butt}</style>
 </defs>
 <g id="figure_1">
  <g id="patch_1">
   <path d="M 0 497.537187 
L 856.501562 497.537187 
L 856.501562 0 
L 0 0 
z
" style="fill: #ffffff"/>
  </g>
  <g id="axes_1">
   <g id="patch_2">
    <path d="M 39.801563 459.473125 
L 849.301563 459.473125 
L 849.301563 82.655625 
L 39.801563 82.655625 
z
" style="fill: #ffffff"/>
   </g>
   <g id="matplotlib.axis_1">
    <g id="xtick_1">
     <g id="line2d_1">
      <path d="M 140.989062 459.473125 
L 140.989062 82.655625 
" clip-path="url(#p8b582a5ae9)" style="fill: none; stroke-dasharray: 2.96,1.28; stroke-dashoffset: 0; stroke: #cccccc; stroke-opacity: 0.6; stroke-width: 0.8"/>
     </g>
     <g id="text_1">
      <!-- Stage 1 -->
      <g style="fill: #262626" transform="translate(123.753906 473.752812) scale(0.1 -0.1)">
       <defs>
        <path id="ArialMT-53" d="M 288 1472 
L 859 1522 
Q 900 1178 1048 958 
Q 1197 738 1509 602 
Q 1822 466 2213 466 
Q 2559 466 2825 569 
Q 3091 672 3220 851 
Q 3350 1031 3350 1244 
Q 3350 1459 3225 1620 
Q 3100 1781 2813 1891 
Q 2628 1963 1997 2114 
Q 1366 2266 1113 2400 
Q 784 2572 623 2826 
Q 463 3081 463 3397 
Q 463 3744 659 4045 
Q 856 4347 1234 4503 
Q 1613 4659 2075 4659 
Q 2584 4659 2973 4495 
Q 3363 4331 3572 4012 
Q 3781 3694 3797 3291 
L 3216 3247 
Q 3169 3681 2898 3903 
Q 2628 4125 2100 4125 
Q 1550 4125 1298 3923 
Q 1047 3722 1047 3438 
Q 1047 3191 1225 3031 
Q 1400 2872 2139 2705 
Q 2878 2538 3153 2413 
Q 3553 2228 3743 1945 
Q 3934 1663 3934 1294 
Q 3934 928 3725 604 
Q 3516 281 3123 101 
Q 2731 -78 2241 -78 
Q 1619 -78 1198 103 
Q 778 284 539 648 
Q 300 1013 288 1472 
z
" transform="scale(0.015625)"/>
        <path id="ArialMT-74" d="M 1650 503 
L 1731 6 
Q 1494 -44 1306 -44 
Q 1000 -44 831 53 
Q 663 150 594 308 
Q 525 466 525 972 
L 525 2881 
L 113 2881 
L 113 3319 
L 525 3319 
L 525 4141 
L 1084 4478 
L 1084 3319 
L 1650 3319 
L 1650 2881 
L 1084 2881 
L 1084 941 
Q 1084 700 1114 631 
Q 1144 563 1211 522 
Q 1278 481 1403 481 
Q 1497 481 1650 503 
z
" transform="scale(0.015625)"/>
        <path id="ArialMT-61" d="M 2588 409 
Q 2275 144 1986 34 
Q 1697 -75 1366 -75 
Q 819 -75 525 192 
Q 231 459 231 875 
Q 231 1119 342 1320 
Q 453 1522 633 1644 
Q 813 1766 1038 1828 
Q 1203 1872 1538 1913 
Q 2219 1994 2541 2106 
Q 2544 2222 2544 2253 
Q 2544 2597 2384 2738 
Q 2169 2928 1744 2928 
Q 1347 2928 1158 2789 
Q 969 2650 878 2297 
L 328 2372 
Q 403 2725 575 2942 
Q 747 3159 1072 3276 
Q 1397 3394 1825 3394 
Q 2250 3394 2515 3294 
Q 2781 3194 2906 3042 
Q 3031 2891 3081 2659 
Q 3109 2516 3109 2141 
L 3109 1391 
Q 3109 606 3145 398 
Q 3181 191 3288 0 
L 2700 0 
Q 2613 175 2588 409 
z
M 2541 1666 
Q 2234 1541 1622 1453 
Q 1275 1403 1131 1340 
Q 988 1278 909 1158 
Q 831 1038 831 891 
Q 831 666 1001 516 
Q 1172 366 1500 366 
Q 1825 366 2078 508 
Q 2331 650 2450 897 
Q 2541 1088 2541 1459 
L 2541 1666 
z
" transform="scale(0.015625)"/>
        <path id="ArialMT-67" d="M 319 -275 
L 866 -356 
Q 900 -609 1056 -725 
Q 1266 -881 1628 -881 
Q 2019 -881 2231 -725 
Q 2444 -569 2519 -288 
Q 2563 -116 2559 434 
Q 2191 0 1641 0 
Q 956 0 581 494 
Q 206 988 206 1678 
Q 206 2153 378 2554 
Q 550 2956 876 3175 
Q 1203 3394 1644 3394 
Q 2231 3394 2613 2919 
L 2613 3319 
L 3131 3319 
L 3131 450 
Q 3131 -325 2973 -648 
Q 2816 -972 2473 -1159 
Q 2131 -1347 1631 -1347 
Q 1038 -1347 672 -1080 
Q 306 -813 319 -275 
z
M 784 1719 
Q 784 1066 1043 766 
Q 1303 466 1694 466 
Q 2081 466 2343 764 
Q 2606 1063 2606 1700 
Q 2606 2309 2336 2618 
Q 2066 2928 1684 2928 
Q 1309 2928 1046 2623 
Q 784 2319 784 1719 
z
" transform="scale(0.015625)"/>
        <path id="ArialMT-65" d="M 2694 1069 
L 3275 997 
Q 3138 488 2766 206 
Q 2394 -75 1816 -75 
Q 1088 -75 661 373 
Q 234 822 234 1631 
Q 234 2469 665 2931 
Q 1097 3394 1784 3394 
Q 2450 3394 2872 2941 
Q 3294 2488 3294 1666 
Q 3294 1616 3291 1516 
L 816 1516 
Q 847 969 1125 678 
Q 1403 388 1819 388 
Q 2128 388 2347 550 
Q 2566 713 2694 1069 
z
M 847 1978 
L 2700 1978 
Q 2663 2397 2488 2606 
Q 2219 2931 1791 2931 
Q 1403 2931 1139 2672 
Q 875 2413 847 1978 
z
" transform="scale(0.015625)"/>
        <path id="ArialMT-20" transform="scale(0.015625)"/>
        <path id="ArialMT-31" d="M 2384 0 
L 1822 0 
L 1822 3584 
Q 1619 3391 1289 3197 
Q 959 3003 697 2906 
L 697 3450 
Q 1169 3672 1522 3987 
Q 1875 4303 2022 4600 
L 2384 4600 
L 2384 0 
z
" transform="scale(0.015625)"/>
       </defs>
       <use xlink:href="#ArialMT-53"/>
       <use xlink:href="#ArialMT-74" transform="translate(66.699219 0)"/>
       <use xlink:href="#ArialMT-61" transform="translate(94.482422 0)"/>
       <use xlink:href="#ArialMT-67" transform="translate(150.097656 0)"/>
       <use xlink:href="#ArialMT-65" transform="translate(205.712891 0)"/>
       <use xlink:href="#ArialMT-20" transform="translate(261.328125 0)"/>
       <use xlink:href="#ArialMT-31" transform="translate(289.111328 0)"/>
      </g>
     </g>
    </g>
    <g id="xtick_2">
     <g id="line2d_2">
      <path d="M 343.364062 459.473125 
L 343.364062 82.655625 
" clip-path="url(#p8b582a5ae9)" style="fill: none; stroke-dasharray: 2.96,1.28; stroke-dashoffset: 0; stroke: #cccccc; stroke-opacity: 0.6; stroke-width: 0.8"/>
     </g>
     <g id="text_2">
      <!-- Stage 2 -->
      <g style="fill: #262626" transform="translate(326.128906 473.752812) scale(0.1 -0.1)">
       <defs>
        <path id="ArialMT-32" d="M 3222 541 
L 3222 0 
L 194 0 
Q 188 203 259 391 
Q 375 700 629 1000 
Q 884 1300 1366 1694 
Q 2113 2306 2375 2664 
Q 2638 3022 2638 3341 
Q 2638 3675 2398 3904 
Q 2159 4134 1775 4134 
Q 1369 4134 1125 3890 
Q 881 3647 878 3216 
L 300 3275 
Q 359 3922 746 4261 
Q 1134 4600 1788 4600 
Q 2447 4600 2831 4234 
Q 3216 3869 3216 3328 
Q 3216 3053 3103 2787 
Q 2991 2522 2730 2228 
Q 2469 1934 1863 1422 
Q 1356 997 1212 845 
Q 1069 694 975 541 
L 3222 541 
z
" transform="scale(0.015625)"/>
       </defs>
       <use xlink:href="#ArialMT-53"/>
       <use xlink:href="#ArialMT-74" transform="translate(66.699219 0)"/>
       <use xlink:href="#ArialMT-61" transform="translate(94.482422 0)"/>
       <use xlink:href="#ArialMT-67" transform="translate(150.097656 0)"/>
       <use xlink:href="#ArialMT-65" transform="translate(205.712891 0)"/>
       <use xlink:href="#ArialMT-20" transform="translate(261.328125 0)"/>
       <use xlink:href="#ArialMT-32" transform="translate(289.111328 0)"/>
      </g>
     </g>
    </g>
    <g id="xtick_3">
     <g id="line2d_3">
      <path d="M 545.739063 459.473125 
L 545.739063 82.655625 
" clip-path="url(#p8b582a5ae9)" style="fill: none; stroke-dasharray: 2.96,1.28; stroke-dashoffset: 0; stroke: #cccccc; stroke-opacity: 0.6; stroke-width: 0.8"/>
     </g>
     <g id="text_3">
      <!-- Stage 3 -->
      <g style="fill: #262626" transform="translate(528.503906 473.752812) scale(0.1 -0.1)">
       <defs>
        <path id="ArialMT-33" d="M 269 1209 
L 831 1284 
Q 928 806 1161 595 
Q 1394 384 1728 384 
Q 2125 384 2398 659 
Q 2672 934 2672 1341 
Q 2672 1728 2419 1979 
Q 2166 2231 1775 2231 
Q 1616 2231 1378 2169 
L 1441 2663 
Q 1497 2656 1531 2656 
Q 1891 2656 2178 2843 
Q 2466 3031 2466 3422 
Q 2466 3731 2256 3934 
Q 2047 4138 1716 4138 
Q 1388 4138 1169 3931 
Q 950 3725 888 3313 
L 325 3413 
Q 428 3978 793 4289 
Q 1159 4600 1703 4600 
Q 2078 4600 2393 4439 
Q 2709 4278 2876 4000 
Q 3044 3722 3044 3409 
Q 3044 3113 2884 2869 
Q 2725 2625 2413 2481 
Q 2819 2388 3044 2092 
Q 3269 1797 3269 1353 
Q 3269 753 2831 336 
Q 2394 -81 1725 -81 
Q 1122 -81 723 278 
Q 325 638 269 1209 
z
" transform="scale(0.015625)"/>
       </defs>
       <use xlink:href="#ArialMT-53"/>
       <use xlink:href="#ArialMT-74" transform="translate(66.699219 0)"/>
       <use xlink:href="#ArialMT-61" transform="translate(94.482422 0)"/>
       <use xlink:href="#ArialMT-67" transform="translate(150.097656 0)"/>
       <use xlink:href="#ArialMT-65" transform="translate(205.712891 0)"/>
       <use xlink:href="#ArialMT-20" transform="translate(261.328125 0)"/>
       <use xlink:href="#ArialMT-33" transform="translate(289.111328 0)"/>
      </g>
     </g>
    </g>
    <g id="xtick_4">
     <g id="line2d_4">
      <path d="M 748.114063 459.473125 
L 748.114063 82.655625 
" clip-path="url(#p8b582a5ae9)" style="fill: none; stroke-dasharray: 2.96,1.28; stroke-dashoffset: 0; stroke: #cccccc; stroke-opacity: 0.6; stroke-width: 0.8"/>
     </g>
     <g id="text_4">
      <!-- Stage 4 -->
      <g style="fill: #262626" transform="translate(730.878906 473.752812) scale(0.1 -0.1)">
       <defs>
        <path id="ArialMT-34" d="M 2069 0 
L 2069 1097 
L 81 1097 
L 81 1613 
L 2172 4581 
L 2631 4581 
L 2631 1613 
L 3250 1613 
L 3250 1097 
L 2631 1097 
L 2631 0 
L 2069 0 
z
M 2069 1613 
L 2069 3678 
L 634 1613 
L 2069 1613 
z
" transform="scale(0.015625)"/>
       </defs>
       <use xlink:href="#ArialMT-53"/>
       <use xlink:href="#ArialMT-74" transform="translate(66.699219 0)"/>
       <use xlink:href="#ArialMT-61" transform="translate(94.482422 0)"/>
       <use xlink:href="#ArialMT-67" transform="translate(150.097656 0)"/>
       <use xlink:href="#ArialMT-65" transform="translate(205.712891 0)"/>
       <use xlink:href="#ArialMT-20" transform="translate(261.328125 0)"/>
       <use xlink:href="#ArialMT-34" transform="translate(289.111328 0)"/>
      </g>
     </g>
    </g>
    <g id="text_5">
     <!-- 训练阶段 -->
     <g style="fill: #262626" transform="translate(424.551562 487.85125) scale(0.1 -0.1)">
      <defs>
       <path id="MicrosoftYaHei-8bad" d="M 2581 5178 
L 3056 5178 
L 3056 2722 
Q 3056 1272 2831 466 
Q 2613 -297 1981 -872 
Q 1769 -678 1550 -534 
Q 2156 -66 2375 647 
Q 2581 1353 2581 2678 
L 2581 5178 
z
M 5506 5184 
L 5981 5184 
L 5981 -772 
L 5506 -772 
L 5506 5184 
z
M 4038 4953 
L 4513 4953 
L 4513 -403 
L 4038 -403 
L 4038 4953 
z
M 2025 1372 
Q 2025 1059 2069 784 
Q 1438 247 913 -284 
L 625 116 
Q 838 316 838 691 
L 838 2803 
L 81 2803 
L 81 3253 
L 1313 3253 
L 1313 709 
Q 1650 1009 2025 1372 
z
M 875 5191 
Q 1438 4628 1850 4166 
L 1413 3797 
Q 1031 4303 500 4872 
L 875 5191 
z
" transform="scale(0.015625)"/>
       <path id="MicrosoftYaHei-7ec3" d="M 2363 3403 
L 3059 3403 
Q 3203 3781 3344 4197 
L 2213 4197 
L 2213 4622 
L 3488 4622 
Q 3603 4975 3719 5353 
L 4219 5253 
Q 4109 4931 4000 4622 
L 6000 4622 
L 6000 4197 
L 3847 4197 
Q 3700 3791 3553 3403 
L 4763 3403 
L 4763 2016 
L 6025 2016 
L 6025 1591 
L 4763 1591 
L 4763 3 
Q 4763 -734 4056 -734 
Q 3788 -734 3369 -728 
Q 3331 -516 3263 -241 
Q 3638 -284 3931 -284 
Q 4300 -284 4300 109 
L 4300 1591 
L 2475 1591 
L 2475 1997 
Q 2688 2450 2897 2978 
L 2363 2978 
L 2363 3403 
z
M 888 1566 
Q 1531 1659 2219 1778 
Q 2181 1547 2163 1297 
Q 1600 1216 319 1003 
L 219 1472 
Q 669 1969 1175 2794 
Q 666 2763 219 2722 
L 100 3147 
Q 700 3966 1294 5366 
L 1750 5178 
Q 1088 3878 644 3184 
Q 1078 3194 1419 3203 
Q 1669 3638 1931 4147 
L 2388 3916 
Q 1656 2659 888 1566 
z
M 3013 2016 
L 4300 2016 
L 4300 2978 
L 3394 2978 
Q 3203 2484 3013 2016 
z
M 94 122 
Q 1031 291 2219 559 
Q 2200 316 2206 78 
Q 1231 -103 219 -353 
L 94 122 
z
M 3194 1272 
L 3638 1066 
Q 3194 203 2700 -547 
Q 2500 -397 2275 -278 
Q 2813 459 3194 1272 
z
M 5094 1041 
L 5500 1278 
Q 5963 578 6381 -122 
L 5950 -391 
Q 5544 366 5094 1041 
z
" transform="scale(0.015625)"/>
       <path id="MicrosoftYaHei-9636" d="M 2213 1816 
Q 2388 616 1644 484 
Q 1406 441 1031 478 
Q 981 734 913 991 
Q 1206 916 1475 941 
Q 1894 991 1744 1797 
Q 1669 2222 1188 2853 
Q 1419 3616 1688 4578 
L 863 4578 
L 863 -853 
L 400 -853 
L 400 5016 
L 2194 5016 
L 2194 4578 
Q 1906 3672 1663 2934 
Q 2144 2284 2213 1816 
z
M 3469 2834 
L 3469 1841 
Q 3469 78 2450 -897 
Q 2269 -734 2031 -572 
Q 2994 297 2994 1859 
L 2994 2834 
L 3469 2834 
z
M 4806 2834 
L 5281 2834 
L 5281 -822 
L 4806 -822 
L 4806 2834 
z
M 4475 5278 
L 4388 5078 
Q 5169 3653 6338 3134 
Q 6175 2947 5994 2697 
Q 4856 3384 4144 4634 
Q 3494 3472 2356 2609 
Q 2206 2828 2031 3003 
Q 3244 3809 3981 5278 
L 4475 5278 
z
" transform="scale(0.015625)"/>
       <path id="MicrosoftYaHei-6bb5" d="M 2844 1978 
L 2844 2422 
L 5763 2422 
L 5763 1953 
Q 5397 1069 4731 416 
Q 5378 -63 6338 -266 
Q 6144 -516 6019 -747 
Q 5031 -456 4359 88 
Q 3638 -488 2631 -853 
Q 2450 -559 2331 -422 
Q 3313 -75 3997 428 
Q 3400 1069 3138 1978 
L 2844 1978 
z
M 88 722 
Q 325 744 569 769 
L 569 4897 
Q 1931 4972 2719 5116 
L 2888 4653 
Q 2175 4559 1031 4484 
L 1031 3616 
L 2613 3616 
L 2613 3203 
L 1031 3203 
L 1031 2259 
L 2594 2259 
L 2594 1847 
L 1031 1847 
L 1031 819 
Q 1891 916 2838 1041 
Q 2831 916 2831 591 
Q 1894 484 1031 366 
L 1031 -816 
L 569 -816 
L 569 303 
Q 381 275 200 247 
L 88 722 
z
M 5738 3209 
Q 5981 3209 6306 3228 
L 6219 2759 
Q 5906 2747 5625 2747 
Q 4988 2747 4988 3459 
L 4988 4553 
L 3831 4553 
L 3831 4216 
Q 3831 3053 2938 2522 
Q 2781 2709 2600 2909 
Q 3363 3272 3363 4241 
L 3363 4997 
L 5456 4997 
L 5456 3497 
Q 5456 3209 5738 3209 
z
M 5256 1978 
L 3613 1978 
Q 3863 1241 4363 731 
Q 4956 1275 5256 1978 
z
" transform="scale(0.015625)"/>
      </defs>
      <use xlink:href="#MicrosoftYaHei-8bad"/>
      <use xlink:href="#MicrosoftYaHei-7ec3" transform="translate(100 0)"/>
      <use xlink:href="#MicrosoftYaHei-9636" transform="translate(200 0)"/>
      <use xlink:href="#MicrosoftYaHei-6bb5" transform="translate(300 0)"/>
     </g>
    </g>
   </g>
   <g id="matplotlib.axis_2">
    <g id="ytick_1">
     <g id="line2d_5">
      <path d="M 39.801563 379.274707 
L 849.301563 379.274707 
" clip-path="url(#p8b582a5ae9)" style="fill: none; stroke-dasharray: 2.96,1.28; stroke-dashoffset: 0; stroke: #cccccc; stroke-opacity: 0.6; stroke-width: 0.8"/>
     </g>
     <g id="text_6">
      <!-- 20 -->
      <g style="fill: #262626" transform="translate(21.679688 382.853614) scale(0.1 -0.1)">
       <defs>
        <path id="ArialMT-30" d="M 266 2259 
Q 266 3072 433 3567 
Q 600 4063 929 4331 
Q 1259 4600 1759 4600 
Q 2128 4600 2406 4451 
Q 2684 4303 2865 4023 
Q 3047 3744 3150 3342 
Q 3253 2941 3253 2259 
Q 3253 1453 3087 958 
Q 2922 463 2592 192 
Q 2263 -78 1759 -78 
Q 1097 -78 719 397 
Q 266 969 266 2259 
z
M 844 2259 
Q 844 1131 1108 757 
Q 1372 384 1759 384 
Q 2147 384 2411 759 
Q 2675 1134 2675 2259 
Q 2675 3391 2411 3762 
Q 2147 4134 1753 4134 
Q 1366 4134 1134 3806 
Q 844 3388 844 2259 
z
" transform="scale(0.015625)"/>
       </defs>
       <use xlink:href="#ArialMT-32"/>
       <use xlink:href="#ArialMT-30" transform="translate(55.615234 0)"/>
      </g>
     </g>
    </g>
    <g id="ytick_2">
     <g id="line2d_6">
      <path d="M 39.801563 295.714605 
L 849.301563 295.714605 
" clip-path="url(#p8b582a5ae9)" style="fill: none; stroke-dasharray: 2.96,1.28; stroke-dashoffset: 0; stroke: #cccccc; stroke-opacity: 0.6; stroke-width: 0.8"/>
     </g>
     <g id="text_7">
      <!-- 30 -->
      <g style="fill: #262626" transform="translate(21.679688 299.293511) scale(0.1 -0.1)">
       <use xlink:href="#ArialMT-33"/>
       <use xlink:href="#ArialMT-30" transform="translate(55.615234 0)"/>
      </g>
     </g>
    </g>
    <g id="ytick_3">
     <g id="line2d_7">
      <path d="M 39.801563 212.154503 
L 849.301563 212.154503 
" clip-path="url(#p8b582a5ae9)" style="fill: none; stroke-dasharray: 2.96,1.28; stroke-dashoffset: 0; stroke: #cccccc; stroke-opacity: 0.6; stroke-width: 0.8"/>
     </g>
     <g id="text_8">
      <!-- 40 -->
      <g style="fill: #262626" transform="translate(21.679688 215.733409) scale(0.1 -0.1)">
       <use xlink:href="#ArialMT-34"/>
       <use xlink:href="#ArialMT-30" transform="translate(55.615234 0)"/>
      </g>
     </g>
    </g>
    <g id="ytick_4">
     <g id="line2d_8">
      <path d="M 39.801563 128.594401 
L 849.301563 128.594401 
" clip-path="url(#p8b582a5ae9)" style="fill: none; stroke-dasharray: 2.96,1.28; stroke-dashoffset: 0; stroke: #cccccc; stroke-opacity: 0.6; stroke-width: 0.8"/>
     </g>
     <g id="text_9">
      <!-- 50 -->
      <g style="fill: #262626" transform="translate(21.679688 132.173307) scale(0.1 -0.1)">
       <defs>
        <path id="ArialMT-35" d="M 266 1200 
L 856 1250 
Q 922 819 1161 601 
Q 1400 384 1738 384 
Q 2144 384 2425 690 
Q 2706 997 2706 1503 
Q 2706 1984 2436 2262 
Q 2166 2541 1728 2541 
Q 1456 2541 1237 2417 
Q 1019 2294 894 2097 
L 366 2166 
L 809 4519 
L 3088 4519 
L 3088 3981 
L 1259 3981 
L 1013 2750 
Q 1425 3038 1878 3038 
Q 2478 3038 2890 2622 
Q 3303 2206 3303 1553 
Q 3303 931 2941 478 
Q 2500 -78 1738 -78 
Q 1113 -78 717 272 
Q 322 622 266 1200 
z
" transform="scale(0.015625)"/>
       </defs>
       <use xlink:href="#ArialMT-35"/>
       <use xlink:href="#ArialMT-30" transform="translate(55.615234 0)"/>
      </g>
     </g>
    </g>
    <g id="text_10">
     <!-- 奖励 -->
     <g style="fill: #262626" transform="translate(15.19375 281.064375) rotate(-90) scale(0.1 -0.1)">
      <defs>
       <path id="MicrosoftYaHei-5956" d="M 6306 -284 
Q 6119 -528 5944 -803 
Q 4031 -491 3197 859 
Q 2550 -472 406 -878 
Q 281 -666 100 -403 
Q 2175 -84 2709 972 
L 225 972 
L 225 1403 
L 2900 1403 
Q 2969 1600 3019 1822 
L 3531 1822 
Q 3484 1603 3422 1403 
L 6200 1403 
L 6200 972 
L 3647 972 
Q 4472 -169 6306 -284 
z
M 2388 3553 
Q 3181 4228 3588 5334 
L 4056 5241 
Q 3941 4938 3803 4666 
L 5988 4666 
L 5988 4278 
Q 5181 2359 2788 1853 
Q 2706 2072 2531 2316 
Q 3434 2463 4094 2831 
Q 3688 3222 3288 3516 
L 3588 3822 
Q 4056 3481 4491 3084 
Q 5116 3550 5463 4266 
L 3588 4266 
Q 3228 3666 2763 3234 
Q 2588 3428 2388 3553 
z
M 1744 5291 
L 2231 5291 
L 2231 1728 
L 1744 1728 
L 1744 2925 
Q 1231 2694 256 2253 
L 94 2747 
Q 991 3088 1744 3425 
L 1744 5291 
z
M 281 4584 
L 588 4891 
Q 1088 4503 1513 4072 
L 1169 3741 
Q 700 4253 281 4584 
z
" transform="scale(0.015625)"/>
       <path id="MicrosoftYaHei-52b1" d="M 3756 3997 
L 4303 3997 
Q 4316 4669 4319 5297 
L 4775 5297 
Q 4763 4559 4750 3997 
L 6031 3997 
Q 5963 1203 5925 278 
Q 5888 -678 5169 -678 
Q 4969 -678 4444 -666 
Q 4406 -378 4350 -134 
Q 4856 -178 5081 -178 
Q 5425 -178 5456 272 
Q 5513 1266 5563 3528 
L 4741 3528 
Q 4731 3028 4725 2716 
Q 4688 334 3600 -859 
Q 3469 -666 3281 -447 
Q 4238 634 4275 2634 
Q 4288 3091 4297 3528 
L 3756 3528 
L 3756 3997 
z
M 1225 3728 
L 3563 3728 
L 3563 3291 
L 2194 3291 
Q 2184 2784 2172 2372 
L 3375 2372 
Q 3319 766 3275 91 
Q 3206 -628 2581 -628 
Q 2406 -628 2050 -622 
Q 2013 -416 1956 -159 
Q 2306 -197 2475 -197 
Q 2819 -203 2850 216 
Q 2894 797 2931 1959 
L 2153 1959 
Q 2125 1378 2081 1034 
Q 1969 -3 1300 -828 
Q 1175 -659 981 -453 
Q 1531 209 1644 1097 
Q 1728 1641 1756 3291 
L 1225 3291 
L 1225 3728 
z
M 1044 4472 
L 1044 2166 
Q 1044 147 475 -809 
Q 306 -647 94 -478 
Q 588 341 588 2184 
L 588 4909 
L 3663 4909 
L 3663 4472 
L 1044 4472 
z
" transform="scale(0.015625)"/>
      </defs>
      <use xlink:href="#MicrosoftYaHei-5956"/>
      <use xlink:href="#MicrosoftYaHei-52b1" transform="translate(100 0)"/>
     </g>
    </g>
   </g>
   <g id="FillBetweenPolyCollection_1">
    <defs>
     <path id="m400203f960" d="M 141.015796 -55.192131 
L 140.962329 -55.192131 
L 140.946561 -58.652346 
L 140.925011 -62.112562 
L 140.897437 -65.572778 
L 140.86442 -69.032994 
L 140.827451 -72.49321 
L 140.788751 -75.953425 
L 140.750876 -79.413641 
L 140.716191 -82.873857 
L 140.686384 -86.334073 
L 140.662166 -89.794289 
L 140.643204 -93.254504 
L 140.628241 -96.71472 
L 140.615304 -100.174936 
L 140.601934 -103.635152 
L 140.585431 -107.095368 
L 140.563197 -110.555583 
L 140.533226 -114.015799 
L 140.494754 -117.476015 
L 140.448923 -120.936231 
L 140.399191 -124.396447 
L 140.351208 -127.856662 
L 140.311913 -131.316878 
L 140.287951 -134.777094 
L 140.283766 -138.23731 
L 140.300053 -141.697526 
L 140.333197 -145.157741 
L 140.376039 -148.617957 
L 140.419767 -152.078173 
L 140.456252 -155.538389 
L 140.479966 -158.998605 
L 140.488828 -162.45882 
L 140.483827 -165.919036 
L 140.467819 -169.379252 
L 140.444167 -172.839468 
L 140.415853 -176.299683 
L 140.385329 -179.759899 
L 140.354894 -183.220115 
L 140.327107 -186.680331 
L 140.304739 -190.140547 
L 140.290069 -193.600762 
L 140.283768 -197.060978 
L 140.28392 -200.521194 
L 140.285754 -203.98141 
L 140.282403 -207.441626 
L 140.266532 -210.901841 
L 140.232301 -214.362057 
L 140.17699 -217.822273 
L 140.101748 -221.282489 
L 140.011292 -224.742705 
L 139.912774 -228.20292 
L 139.814283 -231.663136 
L 139.723465 -235.123352 
L 139.646538 -238.583568 
L 139.587732 -242.043784 
L 139.548936 -245.503999 
L 139.529378 -248.964215 
L 139.5253 -252.424431 
L 139.529916 -255.884647 
L 139.534022 -259.344863 
L 139.527544 -262.805078 
L 139.501824 -266.265294 
L 139.451919 -269.72551 
L 139.377887 -273.185726 
L 139.28415 -276.645942 
L 139.176675 -280.106157 
L 139.05859 -283.566373 
L 138.925532 -287.026589 
L 138.762151 -290.486805 
L 138.540733 -293.94702 
L 138.222066 -297.407236 
L 137.75786 -300.867452 
L 137.093745 -304.327668 
L 136.172148 -307.787884 
L 134.935069 -311.248099 
L 133.327642 -314.708315 
L 131.303793 -318.168531 
L 128.835071 -321.628747 
L 125.922641 -325.088963 
L 122.610785 -328.549178 
L 118.998697 -332.009394 
L 115.246541 -335.46961 
L 111.572186 -338.929826 
L 108.236624 -342.390042 
L 105.518468 -345.850257 
L 103.680264 -349.310473 
L 102.931362 -352.770689 
L 103.393489 -356.230905 
L 105.075719 -359.691121 
L 107.864995 -363.151336 
L 111.536166 -366.611552 
L 115.781616 -370.071768 
L 120.255753 -373.531984 
L 124.625312 -376.9922 
L 128.61452 -380.452415 
L 132.035528 -383.912631 
L 134.798931 -387.372847 
L 136.904895 -390.833063 
L 138.420428 -394.293279 
L 139.450793 -397.753494 
L 142.527332 -397.753494 
L 142.527332 -397.753494 
L 143.557697 -394.293279 
L 145.07323 -390.833063 
L 147.179194 -387.372847 
L 149.942597 -383.912631 
L 153.363605 -380.452415 
L 157.352813 -376.9922 
L 161.722372 -373.531984 
L 166.196509 -370.071768 
L 170.441959 -366.611552 
L 174.11313 -363.151336 
L 176.902406 -359.691121 
L 178.584636 -356.230905 
L 179.046763 -352.770689 
L 178.297861 -349.310473 
L 176.459657 -345.850257 
L 173.741501 -342.390042 
L 170.405939 -338.929826 
L 166.731584 -335.46961 
L 162.979428 -332.009394 
L 159.36734 -328.549178 
L 156.055484 -325.088963 
L 153.143054 -321.628747 
L 150.674332 -318.168531 
L 148.650483 -314.708315 
L 147.043056 -311.248099 
L 145.805977 -307.787884 
L 144.88438 -304.327668 
L 144.220265 -300.867452 
L 143.756059 -297.407236 
L 143.437392 -293.94702 
L 143.215974 -290.486805 
L 143.052593 -287.026589 
L 142.919535 -283.566373 
L 142.80145 -280.106157 
L 142.693975 -276.645942 
L 142.600238 -273.185726 
L 142.526206 -269.72551 
L 142.476301 -266.265294 
L 142.450581 -262.805078 
L 142.444103 -259.344863 
L 142.448209 -255.884647 
L 142.452825 -252.424431 
L 142.448747 -248.964215 
L 142.429189 -245.503999 
L 142.390393 -242.043784 
L 142.331587 -238.583568 
L 142.25466 -235.123352 
L 142.163842 -231.663136 
L 142.065351 -228.20292 
L 141.966833 -224.742705 
L 141.876377 -221.282489 
L 141.801135 -217.822273 
L 141.745824 -214.362057 
L 141.711593 -210.901841 
L 141.695722 -207.441626 
L 141.692371 -203.98141 
L 141.694205 -200.521194 
L 141.694357 -197.060978 
L 141.688056 -193.600762 
L 141.673386 -190.140547 
L 141.651018 -186.680331 
L 141.623231 -183.220115 
L 141.592796 -179.759899 
L 141.562272 -176.299683 
L 141.533958 -172.839468 
L 141.510306 -169.379252 
L 141.494298 -165.919036 
L 141.489297 -162.45882 
L 141.498159 -158.998605 
L 141.521873 -155.538389 
L 141.558358 -152.078173 
L 141.602086 -148.617957 
L 141.644928 -145.157741 
L 141.678072 -141.697526 
L 141.694359 -138.23731 
L 141.690174 -134.777094 
L 141.666212 -131.316878 
L 141.626917 -127.856662 
L 141.578934 -124.396447 
L 141.529202 -120.936231 
L 141.483371 -117.476015 
L 141.444899 -114.015799 
L 141.414928 -110.555583 
L 141.392694 -107.095368 
L 141.376191 -103.635152 
L 141.362821 -100.174936 
L 141.349884 -96.71472 
L 141.334921 -93.254504 
L 141.315959 -89.794289 
L 141.291741 -86.334073 
L 141.261934 -82.873857 
L 141.227249 -79.413641 
L 141.189374 -75.953425 
L 141.150674 -72.49321 
L 141.113705 -69.032994 
L 141.080688 -65.572778 
L 141.053114 -62.112562 
L 141.031564 -58.652346 
L 141.015796 -55.192131 
z
" style="stroke: #3f3f3f; stroke-width: 1.25"/>
    </defs>
    <g clip-path="url(#p8b582a5ae9)">
     <use xlink:href="#m400203f960" x="0" y="497.537187" style="fill: #3274a1; stroke: #3f3f3f; stroke-width: 1.25"/>
    </g>
   </g>
   <g id="FillBetweenPolyCollection_2">
    <defs>
     <path id="mf1262fd34d" d="M 343.463943 -306.335612 
L 343.264182 -306.335612 
L 343.220614 -307.043336 
L 343.165282 -307.75106 
L 343.09825 -308.458784 
L 343.020975 -309.166508 
L 342.936481 -309.874232 
L 342.84922 -310.581956 
L 342.76459 -311.28968 
L 342.688093 -311.997404 
L 342.624272 -312.705128 
L 342.575632 -313.412852 
L 342.541806 -314.120577 
L 342.519213 -314.828301 
L 342.501367 -315.536025 
L 342.479843 -316.243749 
L 342.445711 -316.951473 
L 342.391107 -317.659197 
L 342.31046 -318.366921 
L 342.200912 -319.074645 
L 342.061532 -319.782369 
L 341.8912 -320.490093 
L 341.685331 -321.197817 
L 341.432022 -321.905541 
L 341.108599 -322.613265 
L 340.679768 -323.320989 
L 340.098643 -324.028713 
L 339.311581 -324.736437 
L 338.267076 -325.444162 
L 336.927936 -326.151886 
L 335.284749 -326.85961 
L 333.367618 -327.567334 
L 331.252595 -328.275058 
L 329.059642 -328.982782 
L 326.940349 -329.690506 
L 325.055986 -330.39823 
L 323.549163 -331.105954 
L 322.514758 -331.813678 
L 321.976952 -332.521402 
L 321.878653 -333.229126 
L 322.08731 -333.93685 
L 322.417383 -334.644574 
L 322.665725 -335.352298 
L 322.652585 -336.060022 
L 322.259096 -336.767747 
L 321.452289 -337.475471 
L 320.29104 -338.183195 
L 318.910419 -338.890919 
L 317.486862 -339.598643 
L 316.191272 -340.306367 
L 315.140585 -341.014091 
L 314.359527 -341.721815 
L 313.762807 -342.429539 
L 313.163983 -343.137263 
L 312.311384 -343.844987 
L 310.945022 -344.552711 
L 308.862795 -345.260435 
L 305.980867 -345.968159 
L 302.372956 -346.675883 
L 298.276674 -347.383607 
L 294.061796 -348.091332 
L 290.163973 -348.799056 
L 286.996231 -349.50678 
L 284.85722 -350.214504 
L 283.857759 -350.922228 
L 283.884576 -351.629952 
L 284.6126 -352.337676 
L 285.566209 -353.0454 
L 286.218197 -353.753124 
L 286.105677 -354.460848 
L 284.937166 -355.168572 
L 282.666041 -355.876296 
L 279.512307 -356.58402 
L 275.925855 -357.291744 
L 272.497603 -357.999468 
L 269.837152 -358.707192 
L 268.443813 -359.414917 
L 268.600025 -360.122641 
L 270.311409 -360.830365 
L 273.307038 -361.538089 
L 277.099524 -362.245813 
L 281.090716 -362.953537 
L 284.698636 -363.661261 
L 287.477154 -364.368985 
L 289.202561 -365.076709 
L 289.909714 -365.784433 
L 289.872399 -366.492157 
L 289.535119 -367.199881 
L 289.413726 -367.907605 
L 289.98803 -368.615329 
L 291.609631 -369.323053 
L 294.443033 -370.030777 
L 298.449135 -370.738502 
L 303.409843 -371.446226 
L 308.983529 -372.15395 
L 314.775572 -372.861674 
L 320.407209 -373.569398 
L 325.569187 -374.277122 
L 330.052629 -374.984846 
L 333.756123 -375.69257 
L 336.673447 -376.400294 
L 350.054678 -376.400294 
L 350.054678 -376.400294 
L 352.972002 -375.69257 
L 356.675496 -374.984846 
L 361.158938 -374.277122 
L 366.320916 -373.569398 
L 371.952553 -372.861674 
L 377.744596 -372.15395 
L 383.318282 -371.446226 
L 388.27899 -370.738502 
L 392.285092 -370.030777 
L 395.118494 -369.323053 
L 396.740095 -368.615329 
L 397.314399 -367.907605 
L 397.193006 -367.199881 
L 396.855726 -366.492157 
L 396.818411 -365.784433 
L 397.525564 -365.076709 
L 399.250971 -364.368985 
L 402.029489 -363.661261 
L 405.637409 -362.953537 
L 409.628601 -362.245813 
L 413.421087 -361.538089 
L 416.416716 -360.830365 
L 418.1281 -360.122641 
L 418.284312 -359.414917 
L 416.890973 -358.707192 
L 414.230522 -357.999468 
L 410.80227 -357.291744 
L 407.215818 -356.58402 
L 404.062084 -355.876296 
L 401.790959 -355.168572 
L 400.622448 -354.460848 
L 400.509928 -353.753124 
L 401.161916 -353.0454 
L 402.115525 -352.337676 
L 402.843549 -351.629952 
L 402.870366 -350.922228 
L 401.870905 -350.214504 
L 399.731894 -349.50678 
L 396.564152 -348.799056 
L 392.666329 -348.091332 
L 388.451451 -347.383607 
L 384.355169 -346.675883 
L 380.747258 -345.968159 
L 377.86533 -345.260435 
L 375.783103 -344.552711 
L 374.416741 -343.844987 
L 373.564142 -343.137263 
L 372.965318 -342.429539 
L 372.368598 -341.721815 
L 371.58754 -341.014091 
L 370.536853 -340.306367 
L 369.241263 -339.598643 
L 367.817706 -338.890919 
L 366.437085 -338.183195 
L 365.275836 -337.475471 
L 364.469029 -336.767747 
L 364.07554 -336.060022 
L 364.0624 -335.352298 
L 364.310742 -334.644574 
L 364.640815 -333.93685 
L 364.849472 -333.229126 
L 364.751173 -332.521402 
L 364.213367 -331.813678 
L 363.178962 -331.105954 
L 361.672139 -330.39823 
L 359.787776 -329.690506 
L 357.668483 -328.982782 
L 355.47553 -328.275058 
L 353.360507 -327.567334 
L 351.443376 -326.85961 
L 349.800189 -326.151886 
L 348.461049 -325.444162 
L 347.416544 -324.736437 
L 346.629482 -324.028713 
L 346.048357 -323.320989 
L 345.619526 -322.613265 
L 345.296103 -321.905541 
L 345.042794 -321.197817 
L 344.836925 -320.490093 
L 344.666593 -319.782369 
L 344.527213 -319.074645 
L 344.417665 -318.366921 
L 344.337018 -317.659197 
L 344.282414 -316.951473 
L 344.248282 -316.243749 
L 344.226758 -315.536025 
L 344.208912 -314.828301 
L 344.186319 -314.120577 
L 344.152493 -313.412852 
L 344.103853 -312.705128 
L 344.040032 -311.997404 
L 343.963535 -311.28968 
L 343.878905 -310.581956 
L 343.791644 -309.874232 
L 343.70715 -309.166508 
L 343.629875 -308.458784 
L 343.562843 -307.75106 
L 343.507511 -307.043336 
L 343.463943 -306.335612 
z
" style="stroke: #3f3f3f; stroke-width: 1.25"/>
    </defs>
    <g clip-path="url(#p8b582a5ae9)">
     <use xlink:href="#mf1262fd34d" x="0" y="497.537187" style="fill: #3274a1; stroke: #3f3f3f; stroke-width: 1.25"/>
    </g>
   </g>
   <g id="FillBetweenPolyCollection_3">
    <defs>
     <path id="m36a99fdf5c" d="M 546.472186 -315.87436 
L 545.005939 -315.87436 
L 544.721758 -316.482226 
L 544.367895 -317.090093 
L 543.943794 -317.69796 
L 543.45546 -318.305826 
L 542.916483 -318.913693 
L 542.348018 -319.52156 
L 541.777389 -320.129426 
L 541.235217 -320.737293 
L 540.751273 -321.34516 
L 540.349568 -321.953026 
L 540.043503 -322.560893 
L 539.832014 -323.168759 
L 539.697624 -323.776626 
L 539.607096 -324.384493 
L 539.514933 -324.992359 
L 539.369487 -325.600226 
L 539.120913 -326.208093 
L 538.72974 -326.815959 
L 538.174584 -327.423826 
L 537.457481 -328.031693 
L 536.605537 -328.639559 
L 535.668119 -329.247426 
L 534.709489 -329.855293 
L 533.797641 -330.463159 
L 532.990905 -331.071026 
L 532.324529 -331.678892 
L 531.799746 -332.286759 
L 531.377738 -332.894626 
L 530.980298 -333.502492 
L 530.498019 -334.110359 
L 529.805546 -334.718226 
L 528.782104 -335.326092 
L 527.334307 -335.933959 
L 525.417407 -336.541826 
L 523.050904 -337.149692 
L 520.324879 -337.757559 
L 517.394566 -338.365426 
L 514.462572 -338.973292 
L 511.750344 -339.581159 
L 509.462766 -340.189025 
L 507.751578 -340.796892 
L 506.684193 -341.404759 
L 506.224186 -342.012625 
L 506.228189 -342.620492 
L 506.461257 -343.228359 
L 506.629592 -343.836225 
L 506.426254 -344.444092 
L 505.582852 -345.051959 
L 503.918642 -345.659825 
L 501.378318 -346.267692 
L 498.05106 -346.875559 
L 494.166176 -347.483425 
L 490.064357 -348.091292 
L 486.147824 -348.699158 
L 482.816641 -349.307025 
L 480.401492 -349.914892 
L 479.104564 -350.522758 
L 478.959447 -351.130625 
L 479.818114 -351.738492 
L 481.368527 -352.346358 
L 483.181069 -352.954225 
L 484.776824 -353.562092 
L 485.706686 -354.169958 
L 485.628151 -354.777825 
L 484.366734 -355.385692 
L 481.951301 -355.993558 
L 478.616752 -356.601425 
L 474.772872 -357.209291 
L 470.943848 -357.817158 
L 467.688078 -358.425025 
L 465.511506 -359.032891 
L 464.789062 -359.640758 
L 465.707527 -360.248625 
L 468.23935 -360.856491 
L 472.151383 -361.464358 
L 477.046154 -362.072225 
L 482.427618 -362.680091 
L 487.779326 -363.287958 
L 492.641395 -363.895825 
L 496.673773 -364.503691 
L 499.696441 -365.111558 
L 501.701861 -365.719424 
L 502.839889 -366.327291 
L 503.379886 -366.935158 
L 503.658017 -367.543024 
L 504.019414 -368.150891 
L 504.764827 -368.758758 
L 506.10976 -369.366624 
L 508.161269 -369.974491 
L 510.914129 -370.582358 
L 514.264587 -371.190224 
L 518.037157 -371.798091 
L 522.018209 -372.405957 
L 525.989829 -373.013824 
L 529.758438 -373.621691 
L 533.174507 -374.229557 
L 536.142029 -374.837424 
L 538.618473 -375.445291 
L 540.607453 -376.053157 
L 550.870672 -376.053157 
L 550.870672 -376.053157 
L 552.859652 -375.445291 
L 555.336096 -374.837424 
L 558.303618 -374.229557 
L 561.719687 -373.621691 
L 565.488296 -373.013824 
L 569.459916 -372.405957 
L 573.440968 -371.798091 
L 577.213538 -371.190224 
L 580.563996 -370.582358 
L 583.316856 -369.974491 
L 585.368365 -369.366624 
L 586.713298 -368.758758 
L 587.458711 -368.150891 
L 587.820108 -367.543024 
L 588.098239 -366.935158 
L 588.638236 -366.327291 
L 589.776264 -365.719424 
L 591.781684 -365.111558 
L 594.804352 -364.503691 
L 598.83673 -363.895825 
L 603.698799 -363.287958 
L 609.050507 -362.680091 
L 614.431971 -362.072225 
L 619.326742 -361.464358 
L 623.238775 -360.856491 
L 625.770598 -360.248625 
L 626.689062 -359.640758 
L 625.966619 -359.032891 
L 623.790047 -358.425025 
L 620.534277 -357.817158 
L 616.705253 -357.209291 
L 612.861373 -356.601425 
L 609.526824 -355.993558 
L 607.111391 -355.385692 
L 605.849974 -354.777825 
L 605.771439 -354.169958 
L 606.701301 -353.562092 
L 608.297056 -352.954225 
L 610.109598 -352.346358 
L 611.660011 -351.738492 
L 612.518678 -351.130625 
L 612.373561 -350.522758 
L 611.076633 -349.914892 
L 608.661484 -349.307025 
L 605.330301 -348.699158 
L 601.413768 -348.091292 
L 597.311949 -347.483425 
L 593.427065 -346.875559 
L 590.099807 -346.267692 
L 587.559483 -345.659825 
L 585.895273 -345.051959 
L 585.051871 -344.444092 
L 584.848533 -343.836225 
L 585.016868 -343.228359 
L 585.249936 -342.620492 
L 585.253939 -342.012625 
L 584.793932 -341.404759 
L 583.726547 -340.796892 
L 582.015359 -340.189025 
L 579.727781 -339.581159 
L 577.015553 -338.973292 
L 574.083559 -338.365426 
L 571.153246 -337.757559 
L 568.427221 -337.149692 
L 566.060718 -336.541826 
L 564.143818 -335.933959 
L 562.696021 -335.326092 
L 561.672579 -334.718226 
L 560.980106 -334.110359 
L 560.497827 -333.502492 
L 560.100387 -332.894626 
L 559.678379 -332.286759 
L 559.153596 -331.678892 
L 558.48722 -331.071026 
L 557.680484 -330.463159 
L 556.768636 -329.855293 
L 555.810006 -329.247426 
L 554.872588 -328.639559 
L 554.020644 -328.031693 
L 553.303541 -327.423826 
L 552.748385 -326.815959 
L 552.357212 -326.208093 
L 552.108638 -325.600226 
L 551.963192 -324.992359 
L 551.871029 -324.384493 
L 551.780501 -323.776626 
L 551.646111 -323.168759 
L 551.434622 -322.560893 
L 551.128557 -321.953026 
L 550.726852 -321.34516 
L 550.242908 -320.737293 
L 549.700736 -320.129426 
L 549.130107 -319.52156 
L 548.561642 -318.913693 
L 548.022665 -318.305826 
L 547.534331 -317.69796 
L 547.11023 -317.090093 
L 546.756367 -316.482226 
L 546.472186 -315.87436 
z
" style="stroke: #3f3f3f; stroke-width: 1.25"/>
    </defs>
    <g clip-path="url(#p8b582a5ae9)">
     <use xlink:href="#m36a99fdf5c" x="0" y="497.537187" style="fill: #3274a1; stroke: #3f3f3f; stroke-width: 1.25"/>
    </g>
   </g>
   <g id="FillBetweenPolyCollection_4">
    <defs>
     <path id="m4ec05969de" d="M 748.217668 -306.598826 
L 748.010457 -306.598826 
L 747.963714 -307.301232 
L 747.903924 -308.003639 
L 747.831077 -308.706046 
L 747.746666 -309.408452 
L 747.653756 -310.110859 
L 747.556638 -310.813266 
L 747.459966 -311.515672 
L 747.367431 -312.218079 
L 747.280172 -312.920485 
L 747.195282 -313.622892 
L 747.104852 -314.325299 
L 746.996019 -315.027705 
L 746.852311 -315.730112 
L 746.656379 -316.432518 
L 746.3938 -317.134925 
L 746.057305 -317.837332 
L 745.650465 -318.539738 
L 745.189742 -319.242145 
L 744.703994 -319.944551 
L 744.230942 -320.646958 
L 743.810848 -321.349365 
L 743.478419 -322.051771 
L 743.25465 -322.754178 
L 743.140597 -323.456584 
L 743.114881 -324.158991 
L 743.136 -324.861398 
L 743.149423 -325.563804 
L 743.098245 -326.266211 
L 742.935147 -326.968617 
L 742.632828 -327.671024 
L 742.190111 -328.373431 
L 741.631608 -329.075837 
L 741.000099 -329.778244 
L 740.342415 -330.480651 
L 739.691388 -331.183057 
L 739.047828 -331.885464 
L 738.36732 -332.58787 
L 737.556408 -333.290277 
L 736.481394 -333.992684 
L 734.99058 -334.69509 
L 732.947563 -335.397497 
L 730.269863 -336.099903 
L 726.964394 -336.80231 
L 723.150089 -337.504717 
L 719.059071 -338.207123 
L 715.01142 -338.90953 
L 711.364558 -339.611936 
L 708.445135 -340.314343 
L 706.477306 -341.01675 
L 705.524457 -341.719156 
L 705.460287 -342.421563 
L 705.979633 -343.123969 
L 706.650527 -343.826376 
L 706.999 -344.528783 
L 706.609564 -345.231189 
L 705.219347 -345.933596 
L 702.783873 -346.636002 
L 699.49755 -347.338409 
L 695.761297 -348.040816 
L 692.101425 -348.743222 
L 689.055522 -349.445629 
L 687.049824 -350.148036 
L 686.296116 -350.850442 
L 686.733196 -351.552849 
L 688.028712 -352.255255 
L 689.643654 -352.957662 
L 690.9472 -353.660069 
L 691.357514 -354.362475 
L 690.477368 -355.064882 
L 688.193731 -355.767288 
L 684.717714 -356.469695 
L 680.553985 -357.172102 
L 676.40438 -357.874508 
L 673.025556 -358.576915 
L 671.07163 -359.279321 
L 670.957008 -359.981728 
L 672.770462 -360.684135 
L 676.259783 -361.386541 
L 680.889705 -362.088948 
L 685.958679 -362.791354 
L 690.746873 -363.493761 
L 694.661747 -364.196168 
L 697.349771 -364.898574 
L 698.752217 -365.600981 
L 699.09662 -366.303388 
L 698.830054 -367.005794 
L 698.512451 -367.708201 
L 698.695489 -368.410607 
L 699.813703 -369.113014 
L 702.109606 -369.815421 
L 705.605124 -370.517827 
L 710.120053 -371.220234 
L 715.32755 -371.92264 
L 720.829562 -372.625047 
L 726.233114 -373.327454 
L 731.211416 -374.02986 
L 735.540304 -374.732267 
L 739.108179 -375.434673 
L 741.904013 -376.13708 
L 754.324112 -376.13708 
L 754.324112 -376.13708 
L 757.119946 -375.434673 
L 760.687821 -374.732267 
L 765.016709 -374.02986 
L 769.995011 -373.327454 
L 775.398563 -372.625047 
L 780.900575 -371.92264 
L 786.108072 -371.220234 
L 790.623001 -370.517827 
L 794.118519 -369.815421 
L 796.414422 -369.113014 
L 797.532636 -368.410607 
L 797.715674 -367.708201 
L 797.398071 -367.005794 
L 797.131505 -366.303388 
L 797.475908 -365.600981 
L 798.878354 -364.898574 
L 801.566378 -364.196168 
L 805.481252 -363.493761 
L 810.269446 -362.791354 
L 815.33842 -362.088948 
L 819.968342 -361.386541 
L 823.457663 -360.684135 
L 825.271117 -359.981728 
L 825.156495 -359.279321 
L 823.202569 -358.576915 
L 819.823745 -357.874508 
L 815.67414 -357.172102 
L 811.510411 -356.469695 
L 808.034394 -355.767288 
L 805.750757 -355.064882 
L 804.870611 -354.362475 
L 805.280925 -353.660069 
L 806.584471 -352.957662 
L 808.199413 -352.255255 
L 809.494929 -351.552849 
L 809.932009 -350.850442 
L 809.178301 -350.148036 
L 807.172603 -349.445629 
L 804.1267 -348.743222 
L 800.466828 -348.040816 
L 796.730575 -347.338409 
L 793.444252 -346.636002 
L 791.008778 -345.933596 
L 789.618561 -345.231189 
L 789.229125 -344.528783 
L 789.577598 -343.826376 
L 790.248492 -343.123969 
L 790.767838 -342.421563 
L 790.703668 -341.719156 
L 789.750819 -341.01675 
L 787.78299 -340.314343 
L 784.863567 -339.611936 
L 781.216705 -338.90953 
L 777.169054 -338.207123 
L 773.078036 -337.504717 
L 769.263731 -336.80231 
L 765.958262 -336.099903 
L 763.280562 -335.397497 
L 761.237545 -334.69509 
L 759.746731 -333.992684 
L 758.671717 -333.290277 
L 757.860805 -332.58787 
L 757.180297 -331.885464 
L 756.536737 -331.183057 
L 755.88571 -330.480651 
L 755.228026 -329.778244 
L 754.596517 -329.075837 
L 754.038014 -328.373431 
L 753.595297 -327.671024 
L 753.292978 -326.968617 
L 753.12988 -326.266211 
L 753.078702 -325.563804 
L 753.092125 -324.861398 
L 753.113244 -324.158991 
L 753.087528 -323.456584 
L 752.973475 -322.754178 
L 752.749706 -322.051771 
L 752.417277 -321.349365 
L 751.997183 -320.646958 
L 751.524131 -319.944551 
L 751.038383 -319.242145 
L 750.57766 -318.539738 
L 750.17082 -317.837332 
L 749.834325 -317.134925 
L 749.571746 -316.432518 
L 749.375814 -315.730112 
L 749.232106 -315.027705 
L 749.123273 -314.325299 
L 749.032843 -313.622892 
L 748.947953 -312.920485 
L 748.860694 -312.218079 
L 748.768159 -311.515672 
L 748.671487 -310.813266 
L 748.574369 -310.110859 
L 748.481459 -309.408452 
L 748.397048 -308.706046 
L 748.324201 -308.003639 
L 748.264411 -307.301232 
L 748.217668 -306.598826 
z
" style="stroke: #3f3f3f; stroke-width: 1.25"/>
    </defs>
    <g clip-path="url(#p8b582a5ae9)">
     <use xlink:href="#m4ec05969de" x="0" y="497.537187" style="fill: #3274a1; stroke: #3f3f3f; stroke-width: 1.25"/>
    </g>
   </g>
   <g id="line2d_9">
    <path d="M 109.221892 156.169235 
L 172.756233 156.169235 
" clip-path="url(#p8b582a5ae9)" style="fill: none; stroke-dasharray: 1.5625,0.9375; stroke-dashoffset: 0; stroke: #3f3f3f; stroke-width: 1.25"/>
   </g>
   <g id="line2d_10">
    <path d="M 103.409921 146.977623 
L 178.568204 146.977623 
" clip-path="url(#p8b582a5ae9)" style="fill: none; stroke-dasharray: 3.125,1.25; stroke-dashoffset: 0; stroke: #3f3f3f; stroke-width: 1.25"/>
   </g>
   <g id="line2d_11">
    <path d="M 105.124129 137.786012 
L 176.853996 137.786012 
" clip-path="url(#p8b582a5ae9)" style="fill: none; stroke-dasharray: 1.5625,0.9375; stroke-dashoffset: 0; stroke: #3f3f3f; stroke-width: 1.25"/>
   </g>
   <g id="line2d_12">
    <path d="M 284.369919 146.977623 
L 402.358206 146.977623 
" clip-path="url(#p8b582a5ae9)" style="fill: none; stroke-dasharray: 1.5625,0.9375; stroke-dashoffset: 0; stroke: #3f3f3f; stroke-width: 1.25"/>
   </g>
   <g id="line2d_13">
    <path d="M 268.518033 137.786012 
L 418.210092 137.786012 
" clip-path="url(#p8b582a5ae9)" style="fill: none; stroke-dasharray: 3.125,1.25; stroke-dashoffset: 0; stroke: #3f3f3f; stroke-width: 1.25"/>
   </g>
   <g id="line2d_14">
    <path d="M 268.518033 137.786012 
L 418.210092 137.786012 
" clip-path="url(#p8b582a5ae9)" style="fill: none; stroke-dasharray: 1.5625,0.9375; stroke-dashoffset: 0; stroke: #3f3f3f; stroke-width: 1.25"/>
   </g>
   <g id="line2d_15">
    <path d="M 479.095777 146.977623 
L 612.382348 146.977623 
" clip-path="url(#p8b582a5ae9)" style="fill: none; stroke-dasharray: 1.5625,0.9375; stroke-dashoffset: 0; stroke: #3f3f3f; stroke-width: 1.25"/>
   </g>
   <g id="line2d_16">
    <path d="M 479.095777 146.977623 
L 612.382348 146.977623 
" clip-path="url(#p8b582a5ae9)" style="fill: none; stroke-dasharray: 3.125,1.25; stroke-dashoffset: 0; stroke: #3f3f3f; stroke-width: 1.25"/>
   </g>
   <g id="line2d_17">
    <path d="M 464.955899 137.786012 
L 626.522226 137.786012 
" clip-path="url(#p8b582a5ae9)" style="fill: none; stroke-dasharray: 1.5625,0.9375; stroke-dashoffset: 0; stroke: #3f3f3f; stroke-width: 1.25"/>
   </g>
   <g id="line2d_18">
    <path d="M 686.608239 146.977623 
L 809.619886 146.977623 
" clip-path="url(#p8b582a5ae9)" style="fill: none; stroke-dasharray: 1.5625,0.9375; stroke-dashoffset: 0; stroke: #3f3f3f; stroke-width: 1.25"/>
   </g>
   <g id="line2d_19">
    <path d="M 670.994631 137.786012 
L 825.233494 137.786012 
" clip-path="url(#p8b582a5ae9)" style="fill: none; stroke-dasharray: 3.125,1.25; stroke-dashoffset: 0; stroke: #3f3f3f; stroke-width: 1.25"/>
   </g>
   <g id="line2d_20">
    <path d="M 670.994631 137.786012 
L 825.233494 137.786012 
" clip-path="url(#p8b582a5ae9)" style="fill: none; stroke-dasharray: 1.5625,0.9375; stroke-dashoffset: 0; stroke: #3f3f3f; stroke-width: 1.25"/>
   </g>
   <g id="patch_3">
    <path d="M 39.801563 459.473125 
L 39.801563 82.655625 
" style="fill: none; stroke: #cccccc; stroke-width: 0.8; stroke-linejoin: miter; stroke-linecap: square"/>
   </g>
   <g id="patch_4">
    <path d="M 849.301563 459.473125 
L 849.301563 82.655625 
" style="fill: none; stroke: #cccccc; stroke-width: 0.8; stroke-linejoin: miter; stroke-linecap: square"/>
   </g>
   <g id="patch_5">
    <path d="M 39.801562 459.473125 
L 849.301563 459.473125 
" style="fill: none; stroke: #cccccc; stroke-width: 0.8; stroke-linejoin: miter; stroke-linecap: square"/>
   </g>
   <g id="patch_6">
    <path d="M 39.801562 82.655625 
L 849.301563 82.655625 
" style="fill: none; stroke: #cccccc; stroke-width: 0.8; stroke-linejoin: miter; stroke-linecap: square"/>
   </g>
  </g>
  <g id="text_11">
   <!-- 训练阶段奖励分布: hpo_params - PPO - 初始训练 (泊松分布(低均值,λ5)) -->
   <g style="fill: #262626" transform="translate(162.081563 20.63) scale(0.16 -0.16)">
    <defs>
     <path id="MicrosoftYaHei-Bold-8bad" d="M 956 5259 
Q 1475 4753 1925 4234 
L 1263 3684 
Q 769 4328 356 4747 
L 956 5259 
z
M 2450 5184 
L 3281 5184 
L 3281 2066 
Q 3281 209 2275 -884 
Q 1844 -528 1519 -328 
Q 2450 659 2450 2134 
L 2450 5184 
z
M 5238 5184 
L 6069 5184 
L 6069 -784 
L 5238 -784 
L 5238 5184 
z
M 3856 4953 
L 4663 4953 
L 4663 -416 
L 3856 -416 
L 3856 4953 
z
M 2019 1772 
Q 2050 1466 2175 916 
Q 1556 353 925 -341 
L 488 266 
Q 650 447 650 772 
L 650 2422 
L 125 2422 
L 125 3266 
L 1475 3266 
L 1475 1297 
Q 1769 1541 2019 1772 
z
" transform="scale(0.015625)"/>
     <path id="MicrosoftYaHei-Bold-7ec3" d="M 2400 3516 
L 2984 3516 
L 3159 4028 
L 2263 4028 
L 2263 4753 
L 3394 4753 
L 3575 5347 
L 4413 5291 
L 4238 4753 
L 6000 4753 
L 6000 4028 
L 3994 4028 
L 3809 3516 
L 4969 3516 
L 4969 2191 
L 6025 2191 
L 6025 1484 
L 4969 1484 
L 4969 297 
Q 4969 -131 4831 -397 
Q 4694 -663 4444 -758 
Q 4194 -853 3394 -853 
Q 3294 -309 3225 -34 
Q 3525 -72 3756 -72 
Q 4125 -72 4125 491 
L 4125 1484 
L 2513 1484 
L 2513 2291 
Q 2613 2525 2716 2791 
L 2400 2791 
L 2400 3516 
z
M 3306 2191 
L 4125 2191 
L 4125 2791 
L 3541 2791 
L 3306 2191 
z
M 1013 3372 
L 1419 3388 
L 1744 3966 
L 2413 3659 
L 1356 1797 
Q 1894 1872 2294 1941 
Q 2263 1684 2231 1159 
Q 931 984 475 866 
L 244 1566 
Q 531 1816 1009 2653 
L 306 2584 
L 75 3297 
Q 575 3966 1219 5341 
L 2000 5028 
Q 1450 4053 1013 3372 
z
M 75 372 
Q 1100 478 2288 672 
Q 2275 350 2272 116 
Q 2722 741 3000 1309 
L 3706 1003 
Q 3294 197 2738 -597 
Q 2469 -409 2078 -191 
L 238 -503 
L 75 372 
z
M 5000 978 
L 5619 1278 
Q 5994 584 6369 -197 
L 5713 -534 
Q 5356 316 5000 978 
z
" transform="scale(0.015625)"/>
     <path id="MicrosoftYaHei-Bold-9636" d="M 4638 2678 
L 5488 2678 
L 5488 -753 
L 4638 -753 
L 4638 2678 
z
M 6338 3297 
Q 6138 2947 5925 2434 
Q 4825 3197 4256 4297 
Q 3631 3259 2663 2384 
Q 2425 2784 2163 3147 
Q 3269 4053 3856 5253 
L 4756 5253 
L 4675 5047 
Q 5288 3966 6338 3297 
z
M 3006 2672 
L 3863 2672 
Q 3863 1284 3781 872 
Q 3625 -128 2763 -872 
Q 2531 -609 2113 -241 
Q 2775 328 2925 1041 
Q 3006 1322 3006 2672 
z
M 1988 2791 
Q 2525 2003 2525 1209 
Q 2525 747 2288 509 
Q 2019 241 1319 222 
Q 1288 609 1163 1066 
Q 1344 1034 1450 1034 
Q 1719 1034 1719 1297 
Q 1719 1941 1194 2672 
L 1725 4328 
L 1119 4328 
L 1119 -872 
L 331 -872 
L 331 5053 
L 2581 5053 
L 2581 4341 
L 1988 2791 
z
" transform="scale(0.015625)"/>
     <path id="MicrosoftYaHei-Bold-6bb5" d="M 113 22 
L 94 859 
L 525 897 
L 525 4947 
Q 1238 4978 2713 5228 
L 2988 4447 
Q 2094 4303 1356 4241 
L 1356 3716 
L 2625 3716 
L 2625 2953 
L 1356 2953 
L 1356 2397 
L 2625 2397 
L 2625 1634 
L 1356 1634 
L 1356 981 
L 2775 1141 
Q 2750 766 2750 347 
L 1356 178 
L 1356 -822 
L 525 -822 
L 525 75 
L 113 22 
z
M 5900 3816 
L 6319 3816 
Q 6231 3422 6169 3047 
L 5519 3047 
Q 4844 3047 4844 3734 
L 4844 4303 
L 3956 4303 
Q 3956 3672 3806 3372 
Q 3656 3072 3319 2791 
Q 3038 3047 2688 3322 
Q 3181 3628 3181 4278 
L 3181 5078 
L 5638 5078 
L 5638 4109 
Q 5638 3816 5900 3816 
z
M 6038 2728 
L 6038 1978 
Q 5703 1163 5119 541 
Q 5684 209 6356 16 
Q 6138 -378 5906 -816 
Q 5088 -503 4438 -53 
Q 3775 -538 2894 -853 
Q 2731 -578 2350 -66 
Q 3138 163 3731 525 
Q 3284 959 2950 1484 
L 3581 1941 
Q 3953 1431 4413 1041 
Q 4834 1447 5100 1959 
L 2788 1959 
L 2788 2728 
L 6038 2728 
z
" transform="scale(0.015625)"/>
     <path id="MicrosoftYaHei-Bold-5956" d="M 2475 3678 
Q 3206 4403 3625 5366 
L 4438 5209 
Q 4294 4925 4141 4666 
L 6156 4666 
L 6156 4053 
Q 5606 2531 3719 1856 
Q 3688 1706 3647 1566 
L 6225 1566 
L 6225 828 
L 3922 828 
Q 4569 141 6300 34 
Q 6150 -234 5875 -866 
Q 3972 -681 3147 538 
Q 2319 -541 400 -859 
Q 269 -434 100 -16 
Q 1706 197 2306 828 
L 200 828 
L 200 1566 
L 2756 1566 
Q 2856 1853 2888 2191 
L 3328 2191 
Q 3228 2331 3100 2491 
Q 3638 2666 4056 2881 
Q 3747 3163 3444 3397 
L 3944 3884 
Q 4234 3663 4684 3275 
Q 5106 3606 5319 4003 
L 3716 4003 
Q 3388 3534 3019 3153 
Q 2794 3391 2475 3678 
z
M 381 2166 
L 125 2972 
Q 950 3263 1600 3534 
L 1600 4184 
L 1075 3678 
Q 556 4222 213 4553 
L 706 5016 
Q 984 4775 1600 4206 
L 1600 5328 
L 2406 5328 
L 2406 1766 
L 1600 1766 
L 1600 2691 
Q 956 2431 381 2166 
z
" transform="scale(0.015625)"/>
     <path id="MicrosoftYaHei-Bold-52b1" d="M 4438 -753 
Q 4394 -381 4328 -47 
Q 4109 -556 3794 -909 
Q 3709 -813 3231 -403 
Q 3113 -634 2897 -721 
Q 2681 -809 2069 -809 
Q 2025 -506 1959 -175 
Q 1806 -600 1600 -934 
Q 1369 -484 1106 -66 
Q 1300 266 1423 697 
Q 1547 1128 1592 1590 
Q 1638 2053 1647 3153 
L 1263 3153 
L 1263 2878 
Q 1263 556 613 -878 
Q 381 -441 75 22 
Q 469 1078 475 2991 
L 475 5103 
L 3688 5103 
L 3688 4328 
L 1263 4328 
L 1263 3903 
L 3463 3903 
L 3463 3153 
L 2391 3153 
Q 2388 2753 2375 2509 
L 3444 2509 
Q 3406 603 3344 -50 
Q 4075 953 4081 3328 
L 3675 3328 
L 3675 4153 
L 4094 4153 
Q 4100 4666 4100 5309 
L 4844 5309 
L 4834 4153 
L 6038 4153 
L 6003 1713 
L 5969 263 
Q 5956 -166 5792 -394 
Q 5628 -622 5383 -683 
Q 5138 -744 4438 -753 
z
M 4397 128 
Q 4581 116 4872 116 
Q 5013 116 5092 197 
Q 5172 278 5195 422 
Q 5219 566 5244 1344 
Q 5269 2122 5269 3328 
L 4825 3328 
Q 4819 1216 4397 128 
z
M 2031 34 
Q 2131 31 2313 22 
Q 2563 16 2606 202 
Q 2650 388 2688 1784 
L 2338 1784 
Q 2263 781 2031 34 
z
" transform="scale(0.015625)"/>
     <path id="MicrosoftYaHei-Bold-5206" d="M 6350 3028 
Q 6088 2703 5750 2228 
Q 5519 2409 5303 2603 
Q 5219 606 5172 190 
Q 5125 -225 4862 -451 
Q 4600 -678 4128 -678 
Q 3484 -678 2913 -659 
Q 2856 -141 2781 284 
Q 3594 216 3956 216 
Q 4172 216 4230 408 
Q 4288 600 4325 1978 
L 2781 1978 
Q 2728 1100 2529 631 
Q 2331 163 1907 -215 
Q 1484 -594 844 -872 
Q 456 -353 194 -78 
Q 750 144 1111 414 
Q 1472 684 1630 989 
Q 1788 1294 1841 1978 
L 950 1978 
L 950 2475 
Q 794 2356 631 2247 
Q 344 2653 63 2953 
Q 1475 3947 2194 5316 
L 3031 4953 
Q 2378 3722 1391 2841 
L 5047 2841 
Q 4088 3766 3463 4903 
L 4238 5303 
Q 5038 3922 6350 3028 
z
" transform="scale(0.015625)"/>
     <path id="MicrosoftYaHei-Bold-5e03" d="M 3919 -834 
L 3050 -834 
L 3050 2034 
L 2063 2034 
L 2063 -359 
L 1200 -359 
L 1200 1641 
Q 825 1238 400 866 
Q 244 1403 113 1741 
Q 1128 2669 1731 3709 
L 200 3709 
L 200 4541 
L 2141 4541 
Q 2294 4916 2400 5303 
L 3275 5203 
Q 3169 4866 3038 4541 
L 6250 4541 
L 6250 3709 
L 2659 3709 
Q 2406 3222 2094 2766 
L 3050 2766 
L 3050 3566 
L 3919 3566 
L 3919 2766 
L 5800 2766 
L 5800 741 
Q 5800 338 5628 112 
Q 5456 -113 5178 -164 
Q 4900 -216 4306 -216 
Q 4225 291 4156 609 
Q 4456 584 4544 584 
Q 4950 584 4950 1034 
L 4950 2034 
L 3919 2034 
L 3919 -834 
z
" transform="scale(0.015625)"/>
     <path id="MicrosoftYaHei-Bold-3a" d="M 313 2969 
Q 313 3200 491 3350 
Q 669 3500 916 3500 
Q 1166 3500 1337 3350 
Q 1509 3200 1509 2969 
Q 1509 2728 1337 2579 
Q 1166 2431 903 2431 
Q 653 2431 483 2584 
Q 313 2738 313 2969 
z
M 313 453 
Q 313 688 491 838 
Q 669 988 916 988 
Q 1166 988 1337 834 
Q 1509 681 1509 453 
Q 1509 213 1337 64 
Q 1166 -84 903 -84 
Q 659 -84 486 69 
Q 313 222 313 453 
z
" transform="scale(0.015625)"/>
     <path id="MicrosoftYaHei-Bold-20" transform="scale(0.015625)"/>
     <path id="MicrosoftYaHei-Bold-68" d="M 3725 0 
L 2719 0 
L 2719 1969 
Q 2719 2766 2138 2766 
Q 1847 2766 1658 2544 
Q 1469 2322 1469 1969 
L 1469 0 
L 459 0 
L 459 5116 
L 1469 5116 
L 1469 2938 
L 1481 2938 
Q 1878 3541 2550 3541 
Q 3725 3541 3725 2122 
L 3725 0 
z
" transform="scale(0.015625)"/>
     <path id="MicrosoftYaHei-Bold-70" d="M 1469 416 
L 1469 -1591 
L 459 -1591 
L 459 3456 
L 1469 3456 
L 1469 2928 
L 1481 2928 
Q 1878 3541 2603 3541 
Q 3263 3541 3634 3080 
Q 4006 2619 4006 1825 
Q 4006 959 3575 437 
Q 3144 -84 2444 -84 
Q 1809 -84 1481 416 
L 1469 416 
z
M 1453 1528 
Q 1453 1159 1653 925 
Q 1853 691 2172 691 
Q 2550 691 2761 984 
Q 2972 1278 2972 1816 
Q 2972 2766 2231 2766 
Q 1888 2766 1670 2503 
Q 1453 2241 1453 1828 
L 1453 1528 
z
" transform="scale(0.015625)"/>
     <path id="MicrosoftYaHei-Bold-6f" d="M 253 1713 
Q 253 2566 764 3053 
Q 1275 3541 2138 3541 
Q 2972 3541 3462 3061 
Q 3953 2581 3953 1772 
Q 3953 922 3450 419 
Q 2947 -84 2088 -84 
Q 1244 -84 748 398 
Q 253 881 253 1713 
z
M 1275 1725 
Q 1275 691 2119 691 
Q 2928 691 2928 1753 
Q 2928 2766 2113 2766 
Q 1716 2766 1495 2494 
Q 1275 2222 1275 1725 
z
" transform="scale(0.015625)"/>
     <path id="MicrosoftYaHei-Bold-5f" d="M 2869 -1675 
L 0 -1675 
L 0 -1272 
L 2869 -1272 
L 2869 -1675 
z
" transform="scale(0.015625)"/>
     <path id="MicrosoftYaHei-Bold-61" d="M 544 3247 
Q 778 3378 1170 3459 
Q 1563 3541 1841 3541 
Q 3291 3541 3291 2088 
L 3291 0 
L 2331 0 
L 2331 503 
L 2319 503 
Q 1966 -84 1284 -84 
Q 794 -84 498 195 
Q 203 475 203 956 
Q 203 1950 1388 2113 
L 2338 2241 
Q 2338 2844 1709 2844 
Q 1091 2844 544 2469 
L 544 3247 
z
M 1684 1566 
Q 1138 1494 1138 1072 
Q 1138 878 1270 759 
Q 1403 641 1628 641 
Q 1938 641 2138 859 
Q 2338 1078 2338 1403 
L 2338 1650 
L 1684 1566 
z
" transform="scale(0.015625)"/>
     <path id="MicrosoftYaHei-Bold-72" d="M 2663 2541 
Q 2478 2647 2216 2647 
Q 1872 2647 1670 2384 
Q 1469 2122 1469 1663 
L 1469 0 
L 459 0 
L 459 3456 
L 1469 3456 
L 1469 2806 
L 1481 2806 
Q 1731 3516 2391 3516 
Q 2569 3516 2663 3475 
L 2663 2541 
z
" transform="scale(0.015625)"/>
     <path id="MicrosoftYaHei-Bold-6d" d="M 5881 0 
L 4875 0 
L 4875 1972 
Q 4875 2766 4297 2766 
Q 4028 2766 3850 2525 
Q 3672 2284 3672 1938 
L 3672 0 
L 2666 0 
L 2666 1997 
Q 2666 2766 2094 2766 
Q 1809 2766 1639 2536 
Q 1469 2306 1469 1928 
L 1469 0 
L 459 0 
L 459 3456 
L 1469 3456 
L 1469 2916 
L 1481 2916 
Q 1663 3213 1963 3377 
Q 2263 3541 2594 3541 
Q 3322 3541 3591 2888 
Q 3991 3541 4753 3541 
Q 5881 3541 5881 2147 
L 5881 0 
z
" transform="scale(0.015625)"/>
     <path id="MicrosoftYaHei-Bold-73" d="M 369 928 
Q 888 613 1384 613 
Q 2009 613 2009 947 
Q 2009 1184 1494 1344 
Q 850 1544 609 1789 
Q 369 2034 369 2453 
Q 369 2963 781 3252 
Q 1194 3541 1863 3541 
Q 2338 3541 2778 3400 
L 2778 2606 
Q 2375 2844 1891 2844 
Q 1650 2844 1503 2758 
Q 1356 2672 1356 2531 
Q 1356 2294 1794 2147 
Q 2263 1991 2498 1862 
Q 2734 1734 2857 1525 
Q 2981 1316 2981 1041 
Q 2981 506 2553 211 
Q 2125 -84 1409 -84 
Q 847 -84 369 94 
L 369 928 
z
" transform="scale(0.015625)"/>
     <path id="MicrosoftYaHei-Bold-2d" d="M 2328 1497 
L 481 1497 
L 481 2209 
L 2328 2209 
L 2328 1497 
z
" transform="scale(0.015625)"/>
     <path id="MicrosoftYaHei-Bold-50" d="M 1591 1688 
L 1591 0 
L 559 0 
L 559 4841 
L 2225 4841 
Q 4031 4841 4031 3309 
Q 4031 2566 3486 2117 
Q 2941 1669 2122 1688 
L 1591 1688 
z
M 1591 4041 
L 1591 2478 
L 2038 2478 
Q 2947 2478 2947 3269 
Q 2947 4041 2047 4041 
L 1591 4041 
z
" transform="scale(0.015625)"/>
     <path id="MicrosoftYaHei-Bold-4f" d="M 256 2356 
Q 256 3494 920 4208 
Q 1584 4922 2675 4922 
Q 3713 4922 4345 4231 
Q 4978 3541 4978 2456 
Q 4978 1325 4320 620 
Q 3663 -84 2597 -84 
Q 1556 -84 906 598 
Q 256 1281 256 2356 
z
M 1341 2413 
Q 1341 1706 1681 1257 
Q 2022 809 2616 809 
Q 3222 809 3559 1239 
Q 3897 1669 3897 2394 
Q 3897 3150 3569 3589 
Q 3241 4028 2644 4028 
Q 2038 4028 1689 3578 
Q 1341 3128 1341 2413 
z
" transform="scale(0.015625)"/>
     <path id="MicrosoftYaHei-Bold-521d" d="M 1288 5359 
Q 1619 4997 2031 4453 
L 1516 4109 
L 2294 4109 
L 2294 3378 
Q 2019 2847 1700 2369 
L 1700 2256 
Q 1809 2175 1909 2097 
Q 2209 2516 2419 2878 
L 2994 2516 
Q 2716 2138 2381 1734 
Q 2619 1544 2813 1378 
L 2363 834 
Q 2016 1166 1700 1441 
L 1700 -866 
L 913 -866 
L 913 1338 
Q 641 1025 344 741 
Q 231 1228 94 1678 
Q 831 2278 1363 3303 
L 156 3303 
L 156 4109 
L 1231 4109 
Q 981 4472 613 4928 
L 1288 5359 
z
M 3919 -697 
Q 3838 -266 3700 253 
Q 4153 209 4563 209 
Q 5006 209 5040 675 
Q 5075 1141 5113 4159 
L 4097 4159 
Q 4050 2622 3984 1959 
Q 3919 1297 3595 525 
Q 3272 -247 2644 -859 
Q 2369 -578 1925 -216 
Q 2450 234 2734 806 
Q 3019 1378 3105 1972 
Q 3191 2566 3219 4159 
L 2488 4159 
L 2488 4947 
L 6013 4947 
L 5938 1331 
L 5906 491 
Q 5906 -44 5686 -328 
Q 5466 -613 5067 -647 
Q 4669 -681 3919 -697 
z
" transform="scale(0.015625)"/>
     <path id="MicrosoftYaHei-Bold-59cb" d="M 2863 -853 
L 2863 356 
L 2256 -291 
Q 2000 -25 1744 225 
Q 1309 -381 638 -847 
Q 350 -466 69 -153 
Q 706 259 1119 816 
Q 669 1228 225 1597 
Q 441 2363 616 3359 
L 119 3359 
L 119 4134 
L 741 4134 
Q 825 4706 900 5347 
L 1731 5259 
L 1550 4134 
L 2669 4134 
Q 2663 3728 2638 3363 
Q 3213 3972 3875 5359 
L 4800 5097 
Q 4225 4159 3594 3378 
Q 4328 3422 5075 3484 
Q 4847 3944 4619 4359 
L 5294 4634 
Q 5831 3747 6369 2659 
L 5613 2341 
L 5391 2828 
Q 3522 2697 2863 2578 
L 2625 3169 
Q 2519 1791 2156 953 
L 2863 394 
L 2863 2116 
L 5981 2116 
L 5981 -828 
L 5144 -828 
L 5144 -472 
L 3700 -472 
L 3700 -853 
L 2863 -853 
z
M 1088 1797 
L 1503 1469 
Q 1809 2241 1863 3359 
L 1413 3359 
Q 1259 2541 1088 1797 
z
M 5144 1328 
L 3700 1328 
L 3700 316 
L 5144 316 
L 5144 1328 
z
" transform="scale(0.015625)"/>
     <path id="MicrosoftYaHei-Bold-28" d="M 1606 -1100 
Q 525 97 525 1853 
Q 525 3550 1606 4841 
L 2431 4841 
Q 1406 3497 1406 1853 
Q 1406 216 2438 -1100 
L 1606 -1100 
z
" transform="scale(0.015625)"/>
     <path id="MicrosoftYaHei-Bold-6cca" d="M 3475 5372 
L 4494 5241 
L 4256 4616 
L 6025 4616 
L 6025 -784 
L 5150 -784 
L 5150 -403 
L 2950 -403 
L 2950 -784 
L 2075 -784 
L 2075 4616 
L 3309 4616 
Q 3400 4978 3475 5372 
z
M 5150 3853 
L 2950 3853 
L 2950 2516 
L 5150 2516 
L 5150 3853 
z
M 2950 359 
L 5150 359 
L 5150 1753 
L 2950 1753 
L 2950 359 
z
M 844 5309 
Q 1488 4847 1969 4453 
L 1400 3797 
Q 894 4259 319 4734 
L 844 5309 
z
M 619 3653 
Q 1294 3184 1769 2834 
L 1206 2159 
Q 731 2566 131 3016 
L 619 3653 
z
M 1056 1853 
Q 1488 1628 1850 1478 
L 1019 -866 
Q 700 -697 219 -478 
Q 600 434 1056 1853 
z
" transform="scale(0.015625)"/>
     <path id="MicrosoftYaHei-Bold-677e" d="M 81 1584 
Q 656 2503 894 3359 
L 138 3359 
L 138 4191 
L 888 4191 
L 888 5309 
L 1706 5309 
L 1706 4191 
L 2463 4191 
L 2463 3359 
L 1706 3359 
L 1706 2753 
Q 2044 2559 2538 2259 
L 2131 1553 
Q 1906 1716 1706 1853 
L 1706 -822 
L 888 -822 
L 888 1453 
Q 669 947 369 478 
Q 219 1084 81 1584 
z
M 5206 1747 
Q 5831 434 6225 -547 
L 5481 -891 
Q 5381 -641 5294 -409 
Q 3344 -516 2744 -616 
L 2381 184 
Q 3031 722 3788 2991 
L 4675 2678 
Q 4163 1441 3525 247 
Q 4163 284 4981 334 
Q 4713 972 4475 1428 
L 5206 1747 
z
M 5081 5316 
Q 5556 3891 6375 2928 
Q 6138 2566 5850 2066 
Q 4825 3141 4344 5103 
L 5081 5316 
z
M 3319 5297 
L 4138 5066 
Q 3713 3297 2688 2009 
Q 2544 2416 2213 2878 
Q 2981 3784 3319 5297 
z
" transform="scale(0.015625)"/>
     <path id="MicrosoftYaHei-Bold-4f4e" d="M 1331 5322 
L 2119 5072 
Q 1894 4341 1594 3669 
L 1594 -784 
L 788 -784 
L 788 2178 
Q 547 1806 281 1459 
Q 206 2009 81 2616 
Q 856 3759 1331 5322 
z
M 3000 741 
Q 3263 853 3975 1284 
Q 4013 903 4075 466 
Q 3969 409 3763 291 
Q 4022 -66 4281 -441 
L 3563 -859 
Q 3328 -416 3103 -88 
Q 2606 -366 2363 -572 
L 1919 147 
Q 2194 391 2194 884 
L 2194 4784 
Q 3606 4872 5850 5141 
Q 5950 4766 6044 4366 
Q 5503 4297 4759 4225 
Q 4759 3728 4800 3028 
L 6225 3028 
L 6225 2253 
L 4847 2253 
Q 4938 1047 5098 634 
Q 5259 222 5403 222 
Q 5469 222 5523 361 
Q 5578 500 5656 1366 
Q 5969 1184 6300 1041 
Q 6191 -94 6023 -412 
Q 5856 -731 5447 -731 
Q 4206 -731 4041 2253 
L 3000 2253 
L 3000 741 
z
M 3000 4072 
L 3000 3028 
L 4000 3028 
L 3956 4150 
L 3000 4072 
z
" transform="scale(0.015625)"/>
     <path id="MicrosoftYaHei-Bold-5747" d="M 250 -397 
L 88 547 
Q 425 628 794 725 
L 794 2847 
L 213 2847 
L 213 3703 
L 794 3703 
L 794 5322 
L 1638 5322 
L 1638 3703 
L 2156 3703 
L 2156 3269 
Q 2794 4313 3075 5366 
L 3925 5266 
Q 3809 4866 3669 4491 
L 6069 4491 
L 6016 1816 
L 5966 303 
Q 5944 -194 5730 -450 
Q 5516 -706 5167 -745 
Q 4819 -784 3775 -797 
Q 3700 -397 3556 153 
Q 4178 103 4625 103 
Q 4819 103 4955 208 
Q 5091 313 5105 575 
Q 5119 838 5141 1619 
L 5181 3703 
L 3341 3703 
Q 3059 3088 2706 2541 
Q 2463 2763 2156 3003 
L 2156 2847 
L 1638 2847 
L 1638 959 
L 2288 1153 
Q 2275 878 2269 253 
Q 963 -134 250 -397 
z
M 3556 3353 
Q 4106 2922 4588 2466 
L 4006 1891 
Q 3500 2403 3019 2822 
L 3556 3353 
z
M 2719 209 
L 2500 1128 
Q 3650 1534 4938 2059 
Q 4956 1566 5000 1153 
Q 3894 728 2719 209 
z
" transform="scale(0.015625)"/>
     <path id="MicrosoftYaHei-Bold-503c" d="M 1638 3 
L 2100 3 
L 2100 3728 
L 3556 3728 
L 3556 4097 
L 1950 4097 
L 1950 4797 
L 3556 4797 
L 3556 5266 
L 4381 5266 
L 4381 4797 
L 6175 4797 
L 6175 4097 
L 4381 4097 
L 4381 3728 
L 5888 3728 
L 5888 3 
L 6325 3 
L 6325 -697 
L 1638 -697 
L 1638 3 
z
M 1125 5347 
L 1950 5128 
Q 1713 4378 1419 3666 
L 1419 -853 
L 625 -853 
L 625 2022 
Q 456 1716 275 1422 
Q 200 1916 69 2591 
Q 675 3803 1125 5347 
z
M 2888 1853 
L 5100 1853 
L 5100 2178 
L 2888 2178 
L 2888 1853 
z
M 2888 928 
L 5100 928 
L 5100 1253 
L 2888 1253 
L 2888 928 
z
M 5100 3103 
L 2888 3103 
L 2888 2778 
L 5100 2778 
L 5100 3103 
z
M 2888 3 
L 5100 3 
L 5100 328 
L 2888 328 
L 2888 3 
z
" transform="scale(0.015625)"/>
     <path id="MicrosoftYaHei-Bold-2c" d="M 1419 841 
L 916 -859 
L 134 -859 
L 484 841 
L 1419 841 
z
" transform="scale(0.015625)"/>
     <path id="MicrosoftYaHei-Bold-3bb" d="M 3675 0 
L 2616 0 
L 1916 2434 
L 1097 0 
L 9 0 
L 1519 3428 
L 1381 3822 
Q 1228 4259 866 4259 
Q 631 4259 400 4144 
L 400 5016 
Q 656 5100 1041 5100 
Q 1541 5100 1844 4828 
Q 2147 4556 2372 3888 
L 3675 0 
z
" transform="scale(0.015625)"/>
     <path id="MicrosoftYaHei-Bold-35" d="M 541 125 
L 541 997 
Q 1044 691 1613 691 
Q 2041 691 2283 902 
Q 2525 1113 2525 1472 
Q 2525 2225 1494 2225 
Q 1113 2225 616 2169 
L 797 4841 
L 3359 4841 
L 3359 4009 
L 1613 4009 
L 1544 2991 
Q 1803 3013 2022 3013 
Q 2731 3013 3142 2625 
Q 3553 2238 3553 1575 
Q 3553 844 3056 380 
Q 2559 -84 1706 -84 
Q 1016 -84 541 125 
z
" transform="scale(0.015625)"/>
     <path id="MicrosoftYaHei-Bold-29" d="M 59 -1100 
Q 1097 216 1097 1853 
Q 1097 3484 59 4841 
L 888 4841 
Q 1978 3544 1978 1853 
Q 1978 113 881 -1100 
L 59 -1100 
z
" transform="scale(0.015625)"/>
    </defs>
    <use xlink:href="#MicrosoftYaHei-Bold-8bad"/>
    <use xlink:href="#MicrosoftYaHei-Bold-7ec3" transform="translate(100 0)"/>
    <use xlink:href="#MicrosoftYaHei-Bold-9636" transform="translate(200 0)"/>
    <use xlink:href="#MicrosoftYaHei-Bold-6bb5" transform="translate(300 0)"/>
    <use xlink:href="#MicrosoftYaHei-Bold-5956" transform="translate(400 0)"/>
    <use xlink:href="#MicrosoftYaHei-Bold-52b1" transform="translate(500 0)"/>
    <use xlink:href="#MicrosoftYaHei-Bold-5206" transform="translate(600 0)"/>
    <use xlink:href="#MicrosoftYaHei-Bold-5e03" transform="translate(700 0)"/>
    <use xlink:href="#MicrosoftYaHei-Bold-3a" transform="translate(800 0)"/>
    <use xlink:href="#MicrosoftYaHei-Bold-20" transform="translate(828.564453 0)"/>
    <use xlink:href="#MicrosoftYaHei-Bold-68" transform="translate(858.349609 0)"/>
    <use xlink:href="#MicrosoftYaHei-Bold-70" transform="translate(922.900391 0)"/>
    <use xlink:href="#MicrosoftYaHei-Bold-6f" transform="translate(989.501953 0)"/>
    <use xlink:href="#MicrosoftYaHei-Bold-5f" transform="translate(1055.224609 0)"/>
    <use xlink:href="#MicrosoftYaHei-Bold-70" transform="translate(1100.048828 0)"/>
    <use xlink:href="#MicrosoftYaHei-Bold-61" transform="translate(1165.525391 0)"/>
    <use xlink:href="#MicrosoftYaHei-Bold-72" transform="translate(1223.289062 0)"/>
    <use xlink:href="#MicrosoftYaHei-Bold-61" transform="translate(1265.671875 0)"/>
    <use xlink:href="#MicrosoftYaHei-Bold-6d" transform="translate(1323.435547 0)"/>
    <use xlink:href="#MicrosoftYaHei-Bold-73" transform="translate(1421.628906 0)"/>
    <use xlink:href="#MicrosoftYaHei-Bold-20" transform="translate(1470.994141 0)"/>
    <use xlink:href="#MicrosoftYaHei-Bold-2d" transform="translate(1500.779297 0)"/>
    <use xlink:href="#MicrosoftYaHei-Bold-20" transform="translate(1544.431641 0)"/>
    <use xlink:href="#MicrosoftYaHei-Bold-50" transform="translate(1574.216797 0)"/>
    <use xlink:href="#MicrosoftYaHei-Bold-50" transform="translate(1639.939453 0)"/>
    <use xlink:href="#MicrosoftYaHei-Bold-4f" transform="translate(1705.662109 0)"/>
    <use xlink:href="#MicrosoftYaHei-Bold-20" transform="translate(1787.498047 0)"/>
    <use xlink:href="#MicrosoftYaHei-Bold-2d" transform="translate(1817.283203 0)"/>
    <use xlink:href="#MicrosoftYaHei-Bold-20" transform="translate(1860.935547 0)"/>
    <use xlink:href="#MicrosoftYaHei-Bold-521d" transform="translate(1890.720703 0)"/>
    <use xlink:href="#MicrosoftYaHei-Bold-59cb" transform="translate(1990.720703 0)"/>
    <use xlink:href="#MicrosoftYaHei-Bold-8bad" transform="translate(2090.720703 0)"/>
    <use xlink:href="#MicrosoftYaHei-Bold-7ec3" transform="translate(2190.720703 0)"/>
    <use xlink:href="#MicrosoftYaHei-Bold-20" transform="translate(2290.720703 0)"/>
    <use xlink:href="#MicrosoftYaHei-Bold-28" transform="translate(2320.505859 0)"/>
    <use xlink:href="#MicrosoftYaHei-Bold-6cca" transform="translate(2359.470703 0)"/>
    <use xlink:href="#MicrosoftYaHei-Bold-677e" transform="translate(2459.470703 0)"/>
    <use xlink:href="#MicrosoftYaHei-Bold-5206" transform="translate(2559.470703 0)"/>
    <use xlink:href="#MicrosoftYaHei-Bold-5e03" transform="translate(2659.470703 0)"/>
    <use xlink:href="#MicrosoftYaHei-Bold-28" transform="translate(2759.470703 0)"/>
    <use xlink:href="#MicrosoftYaHei-Bold-4f4e" transform="translate(2798.435547 0)"/>
    <use xlink:href="#MicrosoftYaHei-Bold-5747" transform="translate(2898.435547 0)"/>
    <use xlink:href="#MicrosoftYaHei-Bold-503c" transform="translate(2998.435547 0)"/>
    <use xlink:href="#MicrosoftYaHei-Bold-2c" transform="translate(3098.435547 0)"/>
    <use xlink:href="#MicrosoftYaHei-Bold-3bb" transform="translate(3127 0)"/>
    <use xlink:href="#MicrosoftYaHei-Bold-35" transform="translate(3185.642578 0)"/>
    <use xlink:href="#MicrosoftYaHei-Bold-29" transform="translate(3247.3125 0)"/>
    <use xlink:href="#MicrosoftYaHei-Bold-29" transform="translate(3286.277344 0)"/>
   </g>
   <!-- (环境: 泊松分布(低均值,λ5 | 复杂度: 0.01) -->
   <g style="fill: #262626" transform="translate(276.922812 40.9335) scale(0.16 -0.16)">
    <defs>
     <path id="MicrosoftYaHei-Bold-73af" d="M 5163 2916 
Q 5825 1797 6300 878 
L 5544 472 
Q 5081 1400 4550 2413 
L 4550 -834 
L 3706 -834 
L 3706 2013 
Q 3272 1200 2700 484 
Q 2525 641 2378 766 
Q 2347 503 2331 9 
L 175 -328 
L 81 522 
L 863 613 
L 863 2003 
L 213 2003 
L 213 2834 
L 863 2834 
L 863 4066 
L 175 4066 
L 175 4897 
L 2375 4897 
L 2375 4066 
L 1694 4066 
L 1694 2834 
L 2356 2834 
L 2356 2003 
L 1694 2003 
L 1694 728 
L 2306 825 
Q 2134 972 2000 1072 
Q 3194 2478 3675 4084 
L 2606 4084 
L 2606 4916 
L 6075 4916 
L 6075 4084 
L 4556 4084 
Q 4400 3559 4200 3066 
L 4550 3066 
L 4550 2591 
L 5163 2916 
z
" transform="scale(0.015625)"/>
     <path id="MicrosoftYaHei-Bold-5883" d="M 6044 4241 
L 5000 4241 
L 5563 4103 
Q 5450 3944 5322 3778 
L 6231 3778 
L 6231 3153 
L 2113 3153 
L 2113 3778 
L 2863 3778 
L 2638 4109 
L 3228 4241 
L 2256 4241 
L 2256 4866 
L 3591 4866 
Q 3506 5028 3400 5209 
L 4438 5353 
Q 4509 5125 4575 4866 
L 6044 4866 
L 6044 4241 
z
M 3853 3778 
L 4350 3778 
Q 4506 4009 4625 4241 
L 3503 4241 
Q 3681 4041 3853 3778 
z
M 263 -328 
L 100 603 
L 706 775 
L 706 2997 
L 175 2997 
L 175 3853 
L 706 3853 
L 706 5328 
L 1544 5328 
L 1544 3853 
L 1981 3853 
L 1981 2997 
L 1544 2997 
L 1544 1025 
L 2094 1197 
Q 2081 981 2081 759 
Q 2081 538 2094 309 
Q 1213 16 263 -328 
z
M 2244 2878 
L 5894 2878 
L 5894 603 
L 5038 603 
L 5038 141 
Q 5038 -91 5269 -91 
Q 5441 -91 5512 7 
Q 5584 106 5619 584 
Q 5956 428 6319 322 
Q 6284 66 6212 -223 
Q 6141 -513 5908 -652 
Q 5675 -791 5281 -791 
L 5006 -791 
Q 4238 -791 4238 -97 
L 4238 603 
L 3841 603 
Q 3647 -478 2331 -909 
Q 2125 -622 1763 -178 
Q 2781 88 2994 603 
L 2244 603 
L 2244 2878 
z
M 5094 2291 
L 3044 2291 
L 3044 2009 
L 5094 2009 
L 5094 2291 
z
M 5094 1191 
L 5094 1472 
L 3044 1472 
L 3044 1191 
L 5094 1191 
z
" transform="scale(0.015625)"/>
     <path id="MicrosoftYaHei-Bold-7c" d="M 1500 -1622 
L 691 -1622 
L 691 5288 
L 1500 5288 
L 1500 -1622 
z
" transform="scale(0.015625)"/>
     <path id="MicrosoftYaHei-Bold-590d" d="M 5738 1528 
L 5738 1003 
Q 5091 600 4322 259 
Q 5197 78 6306 -16 
Q 6000 -428 5819 -791 
Q 4391 -569 3278 -153 
Q 2125 -559 744 -853 
Q 550 -541 275 -178 
Q 1394 3 2341 256 
Q 1872 500 1478 788 
Q 1069 416 581 116 
Q 363 391 75 691 
Q 925 1194 1459 1816 
L 844 1816 
L 844 3406 
Q 600 3128 325 2872 
Q 238 3266 94 3759 
Q 831 4484 1188 5334 
L 2063 5334 
Q 1978 5144 1888 4959 
L 6181 4959 
L 6181 4334 
L 1538 4334 
Q 1434 4172 1325 4016 
L 5738 4016 
L 5738 1816 
L 2372 1816 
Q 2272 1666 2163 1528 
L 5738 1528 
z
M 4906 3478 
L 1675 3478 
L 1675 3141 
L 4906 3141 
L 4906 3478 
z
M 4906 2353 
L 4906 2691 
L 1675 2691 
L 1675 2353 
L 4906 2353 
z
M 3269 541 
Q 3897 753 4438 1009 
L 2231 1009 
Q 2669 744 3269 541 
z
" transform="scale(0.015625)"/>
     <path id="MicrosoftYaHei-Bold-6742" d="M 5500 4203 
Q 5919 4078 6338 3978 
Q 6269 3328 6188 2984 
Q 6063 2453 5400 2453 
L 4600 2453 
Q 3900 2453 3900 3153 
L 3900 3997 
L 2781 3997 
Q 2588 2603 613 2141 
Q 419 2466 106 2884 
Q 1644 3172 1869 3997 
L 456 3997 
L 456 4753 
L 1981 4753 
Q 2006 5053 2006 5328 
L 2894 5328 
Q 2894 5084 2869 4753 
L 4800 4753 
L 4800 3459 
Q 4800 3203 5056 3203 
L 5206 3203 
Q 5394 3203 5431 3466 
Q 5469 3816 5500 4203 
z
M 188 2072 
L 2800 2072 
L 2800 2666 
L 3706 2666 
L 3706 2072 
L 6175 2072 
L 6175 1309 
L 3706 1309 
L 3706 159 
Q 3706 -684 2900 -766 
Q 2613 -797 2000 -803 
Q 1906 -334 1794 72 
Q 2200 41 2456 41 
Q 2800 41 2800 403 
L 2800 1309 
L 188 1309 
L 188 2072 
z
M 4000 597 
L 4519 1172 
Q 5425 628 6263 34 
L 5725 -634 
Q 4956 -34 4000 597 
z
M 1675 1166 
L 2263 559 
Q 1406 -84 538 -634 
Q 288 -247 63 66 
Q 963 566 1675 1166 
z
" transform="scale(0.015625)"/>
     <path id="MicrosoftYaHei-Bold-5ea6" d="M 5656 1697 
L 5656 1022 
Q 5156 447 4656 97 
Q 5344 -34 6306 -66 
Q 6119 -428 5938 -822 
Q 4556 -653 3719 -353 
Q 2825 -653 1494 -872 
Q 1338 -522 1088 -178 
Q 2100 -128 2888 78 
Q 2369 453 1938 1022 
L 1538 1022 
L 1538 1697 
L 5656 1697 
z
M 1325 2478 
Q 1338 134 700 -884 
Q 356 -553 19 -297 
Q 550 697 525 2591 
L 525 4772 
L 3013 4772 
Q 2944 4953 2831 5209 
L 3869 5359 
Q 3981 5072 4094 4772 
L 6256 4772 
L 6256 4072 
L 1325 4072 
L 1325 2478 
z
M 1463 3684 
L 2144 3684 
L 2144 3947 
L 2944 3947 
L 2944 3684 
L 4494 3684 
L 4494 3947 
L 5294 3947 
L 5294 3684 
L 6144 3684 
L 6144 3009 
L 5294 3009 
L 5294 1991 
L 2144 1991 
L 2144 3009 
L 1463 3009 
L 1463 3684 
z
M 3756 378 
Q 4325 641 4725 1022 
L 2825 1022 
Q 3225 622 3756 378 
z
M 4494 2628 
L 4494 3009 
L 2944 3009 
L 2944 2628 
L 4494 2628 
z
" transform="scale(0.015625)"/>
     <path id="MicrosoftYaHei-Bold-30" d="M 244 2341 
Q 244 3597 706 4259 
Q 1169 4922 2044 4922 
Q 3713 4922 3713 2453 
Q 3713 1238 3259 577 
Q 2806 -84 1950 -84 
Q 244 -84 244 2341 
z
M 1266 2366 
Q 1266 691 1981 691 
Q 2684 691 2684 2416 
Q 2684 4147 2000 4147 
Q 1266 4147 1266 2366 
z
" transform="scale(0.015625)"/>
     <path id="MicrosoftYaHei-Bold-2e" d="M 313 453 
Q 313 688 491 838 
Q 669 988 916 988 
Q 1166 988 1337 834 
Q 1509 681 1509 453 
Q 1509 213 1337 64 
Q 1166 -84 903 -84 
Q 659 -84 486 69 
Q 313 222 313 453 
z
" transform="scale(0.015625)"/>
     <path id="MicrosoftYaHei-Bold-31" d="M 2716 4947 
L 2716 0 
L 1700 0 
L 1700 3809 
Q 1513 3647 1188 3517 
Q 863 3388 591 3356 
L 591 4222 
Q 1447 4472 2072 4947 
L 2716 4947 
z
" transform="scale(0.015625)"/>
    </defs>
    <use xlink:href="#MicrosoftYaHei-Bold-28"/>
    <use xlink:href="#MicrosoftYaHei-Bold-73af" transform="translate(38.964844 0)"/>
    <use xlink:href="#MicrosoftYaHei-Bold-5883" transform="translate(138.964844 0)"/>
    <use xlink:href="#MicrosoftYaHei-Bold-3a" transform="translate(238.964844 0)"/>
    <use xlink:href="#MicrosoftYaHei-Bold-20" transform="translate(267.529297 0)"/>
    <use xlink:href="#MicrosoftYaHei-Bold-6cca" transform="translate(297.314453 0)"/>
    <use xlink:href="#MicrosoftYaHei-Bold-677e" transform="translate(397.314453 0)"/>
    <use xlink:href="#MicrosoftYaHei-Bold-5206" transform="translate(497.314453 0)"/>
    <use xlink:href="#MicrosoftYaHei-Bold-5e03" transform="translate(597.314453 0)"/>
    <use xlink:href="#MicrosoftYaHei-Bold-28" transform="translate(697.314453 0)"/>
    <use xlink:href="#MicrosoftYaHei-Bold-4f4e" transform="translate(736.279297 0)"/>
    <use xlink:href="#MicrosoftYaHei-Bold-5747" transform="translate(836.279297 0)"/>
    <use xlink:href="#MicrosoftYaHei-Bold-503c" transform="translate(936.279297 0)"/>
    <use xlink:href="#MicrosoftYaHei-Bold-2c" transform="translate(1036.279297 0)"/>
    <use xlink:href="#MicrosoftYaHei-Bold-3bb" transform="translate(1064.84375 0)"/>
    <use xlink:href="#MicrosoftYaHei-Bold-35" transform="translate(1123.486328 0)"/>
    <use xlink:href="#MicrosoftYaHei-Bold-20" transform="translate(1185.15625 0)"/>
    <use xlink:href="#MicrosoftYaHei-Bold-7c" transform="translate(1214.941406 0)"/>
    <use xlink:href="#MicrosoftYaHei-Bold-20" transform="translate(1249.072266 0)"/>
    <use xlink:href="#MicrosoftYaHei-Bold-590d" transform="translate(1278.857422 0)"/>
    <use xlink:href="#MicrosoftYaHei-Bold-6742" transform="translate(1378.857422 0)"/>
    <use xlink:href="#MicrosoftYaHei-Bold-5ea6" transform="translate(1478.857422 0)"/>
    <use xlink:href="#MicrosoftYaHei-Bold-3a" transform="translate(1578.857422 0)"/>
    <use xlink:href="#MicrosoftYaHei-Bold-20" transform="translate(1607.421875 0)"/>
    <use xlink:href="#MicrosoftYaHei-Bold-30" transform="translate(1637.207031 0)"/>
    <use xlink:href="#MicrosoftYaHei-Bold-2e" transform="translate(1698.876953 0)"/>
    <use xlink:href="#MicrosoftYaHei-Bold-30" transform="translate(1727.441406 0)"/>
    <use xlink:href="#MicrosoftYaHei-Bold-31" transform="translate(1789.111328 0)"/>
    <use xlink:href="#MicrosoftYaHei-Bold-29" transform="translate(1850.78125 0)"/>
   </g>
  </g>
 </g>
 <defs>
  <clipPath id="p8b582a5ae9">
   <rect x="39.801563" y="82.655625" width="809.5" height="376.8175"/>
  </clipPath>
 </defs>
</svg>
