<?xml version="1.0" encoding="utf-8" standalone="no"?>
<!DOCTYPE svg PUBLIC "-//W3C//DTD SVG 1.1//EN"
  "http://www.w3.org/Graphics/SVG/1.1/DTD/svg11.dtd">
<svg xmlns:xlink="http://www.w3.org/1999/xlink" width="856.501562pt" height="497.537187pt" viewBox="0 0 856.501562 497.537187" xmlns="http://www.w3.org/2000/svg" version="1.1">
 <metadata>
  <rdf:RDF xmlns:dc="http://purl.org/dc/elements/1.1/" xmlns:cc="http://creativecommons.org/ns#" xmlns:rdf="http://www.w3.org/1999/02/22-rdf-syntax-ns#">
   <cc:Work>
    <dc:type rdf:resource="http://purl.org/dc/dcmitype/StillImage"/>
    <dc:date>2025-07-07T17:59:00.750555</dc:date>
    <dc:format>image/svg+xml</dc:format>
    <dc:creator>
     <cc:Agent>
      <dc:title>Matplotlib v3.10.3, https://matplotlib.org/</dc:title>
     </cc:Agent>
    </dc:creator>
   </cc:Work>
  </rdf:RDF>
 </metadata>
 <defs>
  <style type="text/css">*{stroke-linejoin: round; stroke-linecap: butt}</style>
 </defs>
 <g id="figure_1">
  <g id="patch_1">
   <path d="M 0 497.537187 
L 856.501562 497.537187 
L 856.501562 0 
L 0 0 
z
" style="fill: #ffffff"/>
  </g>
  <g id="axes_1">
   <g id="patch_2">
    <path d="M 39.801563 459.473125 
L 849.301563 459.473125 
L 849.301563 82.655625 
L 39.801563 82.655625 
z
" style="fill: #ffffff"/>
   </g>
   <g id="matplotlib.axis_1">
    <g id="xtick_1">
     <g id="line2d_1">
      <path d="M 140.989062 459.473125 
L 140.989062 82.655625 
" clip-path="url(#p74a257226e)" style="fill: none; stroke-dasharray: 2.96,1.28; stroke-dashoffset: 0; stroke: #cccccc; stroke-opacity: 0.6; stroke-width: 0.8"/>
     </g>
     <g id="text_1">
      <!-- Stage 1 -->
      <g style="fill: #262626" transform="translate(123.753906 473.752812) scale(0.1 -0.1)">
       <defs>
        <path id="ArialMT-53" d="M 288 1472 
L 859 1522 
Q 900 1178 1048 958 
Q 1197 738 1509 602 
Q 1822 466 2213 466 
Q 2559 466 2825 569 
Q 3091 672 3220 851 
Q 3350 1031 3350 1244 
Q 3350 1459 3225 1620 
Q 3100 1781 2813 1891 
Q 2628 1963 1997 2114 
Q 1366 2266 1113 2400 
Q 784 2572 623 2826 
Q 463 3081 463 3397 
Q 463 3744 659 4045 
Q 856 4347 1234 4503 
Q 1613 4659 2075 4659 
Q 2584 4659 2973 4495 
Q 3363 4331 3572 4012 
Q 3781 3694 3797 3291 
L 3216 3247 
Q 3169 3681 2898 3903 
Q 2628 4125 2100 4125 
Q 1550 4125 1298 3923 
Q 1047 3722 1047 3438 
Q 1047 3191 1225 3031 
Q 1400 2872 2139 2705 
Q 2878 2538 3153 2413 
Q 3553 2228 3743 1945 
Q 3934 1663 3934 1294 
Q 3934 928 3725 604 
Q 3516 281 3123 101 
Q 2731 -78 2241 -78 
Q 1619 -78 1198 103 
Q 778 284 539 648 
Q 300 1013 288 1472 
z
" transform="scale(0.015625)"/>
        <path id="ArialMT-74" d="M 1650 503 
L 1731 6 
Q 1494 -44 1306 -44 
Q 1000 -44 831 53 
Q 663 150 594 308 
Q 525 466 525 972 
L 525 2881 
L 113 2881 
L 113 3319 
L 525 3319 
L 525 4141 
L 1084 4478 
L 1084 3319 
L 1650 3319 
L 1650 2881 
L 1084 2881 
L 1084 941 
Q 1084 700 1114 631 
Q 1144 563 1211 522 
Q 1278 481 1403 481 
Q 1497 481 1650 503 
z
" transform="scale(0.015625)"/>
        <path id="ArialMT-61" d="M 2588 409 
Q 2275 144 1986 34 
Q 1697 -75 1366 -75 
Q 819 -75 525 192 
Q 231 459 231 875 
Q 231 1119 342 1320 
Q 453 1522 633 1644 
Q 813 1766 1038 1828 
Q 1203 1872 1538 1913 
Q 2219 1994 2541 2106 
Q 2544 2222 2544 2253 
Q 2544 2597 2384 2738 
Q 2169 2928 1744 2928 
Q 1347 2928 1158 2789 
Q 969 2650 878 2297 
L 328 2372 
Q 403 2725 575 2942 
Q 747 3159 1072 3276 
Q 1397 3394 1825 3394 
Q 2250 3394 2515 3294 
Q 2781 3194 2906 3042 
Q 3031 2891 3081 2659 
Q 3109 2516 3109 2141 
L 3109 1391 
Q 3109 606 3145 398 
Q 3181 191 3288 0 
L 2700 0 
Q 2613 175 2588 409 
z
M 2541 1666 
Q 2234 1541 1622 1453 
Q 1275 1403 1131 1340 
Q 988 1278 909 1158 
Q 831 1038 831 891 
Q 831 666 1001 516 
Q 1172 366 1500 366 
Q 1825 366 2078 508 
Q 2331 650 2450 897 
Q 2541 1088 2541 1459 
L 2541 1666 
z
" transform="scale(0.015625)"/>
        <path id="ArialMT-67" d="M 319 -275 
L 866 -356 
Q 900 -609 1056 -725 
Q 1266 -881 1628 -881 
Q 2019 -881 2231 -725 
Q 2444 -569 2519 -288 
Q 2563 -116 2559 434 
Q 2191 0 1641 0 
Q 956 0 581 494 
Q 206 988 206 1678 
Q 206 2153 378 2554 
Q 550 2956 876 3175 
Q 1203 3394 1644 3394 
Q 2231 3394 2613 2919 
L 2613 3319 
L 3131 3319 
L 3131 450 
Q 3131 -325 2973 -648 
Q 2816 -972 2473 -1159 
Q 2131 -1347 1631 -1347 
Q 1038 -1347 672 -1080 
Q 306 -813 319 -275 
z
M 784 1719 
Q 784 1066 1043 766 
Q 1303 466 1694 466 
Q 2081 466 2343 764 
Q 2606 1063 2606 1700 
Q 2606 2309 2336 2618 
Q 2066 2928 1684 2928 
Q 1309 2928 1046 2623 
Q 784 2319 784 1719 
z
" transform="scale(0.015625)"/>
        <path id="ArialMT-65" d="M 2694 1069 
L 3275 997 
Q 3138 488 2766 206 
Q 2394 -75 1816 -75 
Q 1088 -75 661 373 
Q 234 822 234 1631 
Q 234 2469 665 2931 
Q 1097 3394 1784 3394 
Q 2450 3394 2872 2941 
Q 3294 2488 3294 1666 
Q 3294 1616 3291 1516 
L 816 1516 
Q 847 969 1125 678 
Q 1403 388 1819 388 
Q 2128 388 2347 550 
Q 2566 713 2694 1069 
z
M 847 1978 
L 2700 1978 
Q 2663 2397 2488 2606 
Q 2219 2931 1791 2931 
Q 1403 2931 1139 2672 
Q 875 2413 847 1978 
z
" transform="scale(0.015625)"/>
        <path id="ArialMT-20" transform="scale(0.015625)"/>
        <path id="ArialMT-31" d="M 2384 0 
L 1822 0 
L 1822 3584 
Q 1619 3391 1289 3197 
Q 959 3003 697 2906 
L 697 3450 
Q 1169 3672 1522 3987 
Q 1875 4303 2022 4600 
L 2384 4600 
L 2384 0 
z
" transform="scale(0.015625)"/>
       </defs>
       <use xlink:href="#ArialMT-53"/>
       <use xlink:href="#ArialMT-74" transform="translate(66.699219 0)"/>
       <use xlink:href="#ArialMT-61" transform="translate(94.482422 0)"/>
       <use xlink:href="#ArialMT-67" transform="translate(150.097656 0)"/>
       <use xlink:href="#ArialMT-65" transform="translate(205.712891 0)"/>
       <use xlink:href="#ArialMT-20" transform="translate(261.328125 0)"/>
       <use xlink:href="#ArialMT-31" transform="translate(289.111328 0)"/>
      </g>
     </g>
    </g>
    <g id="xtick_2">
     <g id="line2d_2">
      <path d="M 343.364062 459.473125 
L 343.364062 82.655625 
" clip-path="url(#p74a257226e)" style="fill: none; stroke-dasharray: 2.96,1.28; stroke-dashoffset: 0; stroke: #cccccc; stroke-opacity: 0.6; stroke-width: 0.8"/>
     </g>
     <g id="text_2">
      <!-- Stage 2 -->
      <g style="fill: #262626" transform="translate(326.128906 473.752812) scale(0.1 -0.1)">
       <defs>
        <path id="ArialMT-32" d="M 3222 541 
L 3222 0 
L 194 0 
Q 188 203 259 391 
Q 375 700 629 1000 
Q 884 1300 1366 1694 
Q 2113 2306 2375 2664 
Q 2638 3022 2638 3341 
Q 2638 3675 2398 3904 
Q 2159 4134 1775 4134 
Q 1369 4134 1125 3890 
Q 881 3647 878 3216 
L 300 3275 
Q 359 3922 746 4261 
Q 1134 4600 1788 4600 
Q 2447 4600 2831 4234 
Q 3216 3869 3216 3328 
Q 3216 3053 3103 2787 
Q 2991 2522 2730 2228 
Q 2469 1934 1863 1422 
Q 1356 997 1212 845 
Q 1069 694 975 541 
L 3222 541 
z
" transform="scale(0.015625)"/>
       </defs>
       <use xlink:href="#ArialMT-53"/>
       <use xlink:href="#ArialMT-74" transform="translate(66.699219 0)"/>
       <use xlink:href="#ArialMT-61" transform="translate(94.482422 0)"/>
       <use xlink:href="#ArialMT-67" transform="translate(150.097656 0)"/>
       <use xlink:href="#ArialMT-65" transform="translate(205.712891 0)"/>
       <use xlink:href="#ArialMT-20" transform="translate(261.328125 0)"/>
       <use xlink:href="#ArialMT-32" transform="translate(289.111328 0)"/>
      </g>
     </g>
    </g>
    <g id="xtick_3">
     <g id="line2d_3">
      <path d="M 545.739063 459.473125 
L 545.739063 82.655625 
" clip-path="url(#p74a257226e)" style="fill: none; stroke-dasharray: 2.96,1.28; stroke-dashoffset: 0; stroke: #cccccc; stroke-opacity: 0.6; stroke-width: 0.8"/>
     </g>
     <g id="text_3">
      <!-- Stage 3 -->
      <g style="fill: #262626" transform="translate(528.503906 473.752812) scale(0.1 -0.1)">
       <defs>
        <path id="ArialMT-33" d="M 269 1209 
L 831 1284 
Q 928 806 1161 595 
Q 1394 384 1728 384 
Q 2125 384 2398 659 
Q 2672 934 2672 1341 
Q 2672 1728 2419 1979 
Q 2166 2231 1775 2231 
Q 1616 2231 1378 2169 
L 1441 2663 
Q 1497 2656 1531 2656 
Q 1891 2656 2178 2843 
Q 2466 3031 2466 3422 
Q 2466 3731 2256 3934 
Q 2047 4138 1716 4138 
Q 1388 4138 1169 3931 
Q 950 3725 888 3313 
L 325 3413 
Q 428 3978 793 4289 
Q 1159 4600 1703 4600 
Q 2078 4600 2393 4439 
Q 2709 4278 2876 4000 
Q 3044 3722 3044 3409 
Q 3044 3113 2884 2869 
Q 2725 2625 2413 2481 
Q 2819 2388 3044 2092 
Q 3269 1797 3269 1353 
Q 3269 753 2831 336 
Q 2394 -81 1725 -81 
Q 1122 -81 723 278 
Q 325 638 269 1209 
z
" transform="scale(0.015625)"/>
       </defs>
       <use xlink:href="#ArialMT-53"/>
       <use xlink:href="#ArialMT-74" transform="translate(66.699219 0)"/>
       <use xlink:href="#ArialMT-61" transform="translate(94.482422 0)"/>
       <use xlink:href="#ArialMT-67" transform="translate(150.097656 0)"/>
       <use xlink:href="#ArialMT-65" transform="translate(205.712891 0)"/>
       <use xlink:href="#ArialMT-20" transform="translate(261.328125 0)"/>
       <use xlink:href="#ArialMT-33" transform="translate(289.111328 0)"/>
      </g>
     </g>
    </g>
    <g id="xtick_4">
     <g id="line2d_4">
      <path d="M 748.114063 459.473125 
L 748.114063 82.655625 
" clip-path="url(#p74a257226e)" style="fill: none; stroke-dasharray: 2.96,1.28; stroke-dashoffset: 0; stroke: #cccccc; stroke-opacity: 0.6; stroke-width: 0.8"/>
     </g>
     <g id="text_4">
      <!-- Stage 4 -->
      <g style="fill: #262626" transform="translate(730.878906 473.752812) scale(0.1 -0.1)">
       <defs>
        <path id="ArialMT-34" d="M 2069 0 
L 2069 1097 
L 81 1097 
L 81 1613 
L 2172 4581 
L 2631 4581 
L 2631 1613 
L 3250 1613 
L 3250 1097 
L 2631 1097 
L 2631 0 
L 2069 0 
z
M 2069 1613 
L 2069 3678 
L 634 1613 
L 2069 1613 
z
" transform="scale(0.015625)"/>
       </defs>
       <use xlink:href="#ArialMT-53"/>
       <use xlink:href="#ArialMT-74" transform="translate(66.699219 0)"/>
       <use xlink:href="#ArialMT-61" transform="translate(94.482422 0)"/>
       <use xlink:href="#ArialMT-67" transform="translate(150.097656 0)"/>
       <use xlink:href="#ArialMT-65" transform="translate(205.712891 0)"/>
       <use xlink:href="#ArialMT-20" transform="translate(261.328125 0)"/>
       <use xlink:href="#ArialMT-34" transform="translate(289.111328 0)"/>
      </g>
     </g>
    </g>
    <g id="text_5">
     <!-- 训练阶段 -->
     <g style="fill: #262626" transform="translate(424.551562 487.85125) scale(0.1 -0.1)">
      <defs>
       <path id="MicrosoftYaHei-8bad" d="M 2581 5178 
L 3056 5178 
L 3056 2722 
Q 3056 1272 2831 466 
Q 2613 -297 1981 -872 
Q 1769 -678 1550 -534 
Q 2156 -66 2375 647 
Q 2581 1353 2581 2678 
L 2581 5178 
z
M 5506 5184 
L 5981 5184 
L 5981 -772 
L 5506 -772 
L 5506 5184 
z
M 4038 4953 
L 4513 4953 
L 4513 -403 
L 4038 -403 
L 4038 4953 
z
M 2025 1372 
Q 2025 1059 2069 784 
Q 1438 247 913 -284 
L 625 116 
Q 838 316 838 691 
L 838 2803 
L 81 2803 
L 81 3253 
L 1313 3253 
L 1313 709 
Q 1650 1009 2025 1372 
z
M 875 5191 
Q 1438 4628 1850 4166 
L 1413 3797 
Q 1031 4303 500 4872 
L 875 5191 
z
" transform="scale(0.015625)"/>
       <path id="MicrosoftYaHei-7ec3" d="M 2363 3403 
L 3059 3403 
Q 3203 3781 3344 4197 
L 2213 4197 
L 2213 4622 
L 3488 4622 
Q 3603 4975 3719 5353 
L 4219 5253 
Q 4109 4931 4000 4622 
L 6000 4622 
L 6000 4197 
L 3847 4197 
Q 3700 3791 3553 3403 
L 4763 3403 
L 4763 2016 
L 6025 2016 
L 6025 1591 
L 4763 1591 
L 4763 3 
Q 4763 -734 4056 -734 
Q 3788 -734 3369 -728 
Q 3331 -516 3263 -241 
Q 3638 -284 3931 -284 
Q 4300 -284 4300 109 
L 4300 1591 
L 2475 1591 
L 2475 1997 
Q 2688 2450 2897 2978 
L 2363 2978 
L 2363 3403 
z
M 888 1566 
Q 1531 1659 2219 1778 
Q 2181 1547 2163 1297 
Q 1600 1216 319 1003 
L 219 1472 
Q 669 1969 1175 2794 
Q 666 2763 219 2722 
L 100 3147 
Q 700 3966 1294 5366 
L 1750 5178 
Q 1088 3878 644 3184 
Q 1078 3194 1419 3203 
Q 1669 3638 1931 4147 
L 2388 3916 
Q 1656 2659 888 1566 
z
M 3013 2016 
L 4300 2016 
L 4300 2978 
L 3394 2978 
Q 3203 2484 3013 2016 
z
M 94 122 
Q 1031 291 2219 559 
Q 2200 316 2206 78 
Q 1231 -103 219 -353 
L 94 122 
z
M 3194 1272 
L 3638 1066 
Q 3194 203 2700 -547 
Q 2500 -397 2275 -278 
Q 2813 459 3194 1272 
z
M 5094 1041 
L 5500 1278 
Q 5963 578 6381 -122 
L 5950 -391 
Q 5544 366 5094 1041 
z
" transform="scale(0.015625)"/>
       <path id="MicrosoftYaHei-9636" d="M 2213 1816 
Q 2388 616 1644 484 
Q 1406 441 1031 478 
Q 981 734 913 991 
Q 1206 916 1475 941 
Q 1894 991 1744 1797 
Q 1669 2222 1188 2853 
Q 1419 3616 1688 4578 
L 863 4578 
L 863 -853 
L 400 -853 
L 400 5016 
L 2194 5016 
L 2194 4578 
Q 1906 3672 1663 2934 
Q 2144 2284 2213 1816 
z
M 3469 2834 
L 3469 1841 
Q 3469 78 2450 -897 
Q 2269 -734 2031 -572 
Q 2994 297 2994 1859 
L 2994 2834 
L 3469 2834 
z
M 4806 2834 
L 5281 2834 
L 5281 -822 
L 4806 -822 
L 4806 2834 
z
M 4475 5278 
L 4388 5078 
Q 5169 3653 6338 3134 
Q 6175 2947 5994 2697 
Q 4856 3384 4144 4634 
Q 3494 3472 2356 2609 
Q 2206 2828 2031 3003 
Q 3244 3809 3981 5278 
L 4475 5278 
z
" transform="scale(0.015625)"/>
       <path id="MicrosoftYaHei-6bb5" d="M 2844 1978 
L 2844 2422 
L 5763 2422 
L 5763 1953 
Q 5397 1069 4731 416 
Q 5378 -63 6338 -266 
Q 6144 -516 6019 -747 
Q 5031 -456 4359 88 
Q 3638 -488 2631 -853 
Q 2450 -559 2331 -422 
Q 3313 -75 3997 428 
Q 3400 1069 3138 1978 
L 2844 1978 
z
M 88 722 
Q 325 744 569 769 
L 569 4897 
Q 1931 4972 2719 5116 
L 2888 4653 
Q 2175 4559 1031 4484 
L 1031 3616 
L 2613 3616 
L 2613 3203 
L 1031 3203 
L 1031 2259 
L 2594 2259 
L 2594 1847 
L 1031 1847 
L 1031 819 
Q 1891 916 2838 1041 
Q 2831 916 2831 591 
Q 1894 484 1031 366 
L 1031 -816 
L 569 -816 
L 569 303 
Q 381 275 200 247 
L 88 722 
z
M 5738 3209 
Q 5981 3209 6306 3228 
L 6219 2759 
Q 5906 2747 5625 2747 
Q 4988 2747 4988 3459 
L 4988 4553 
L 3831 4553 
L 3831 4216 
Q 3831 3053 2938 2522 
Q 2781 2709 2600 2909 
Q 3363 3272 3363 4241 
L 3363 4997 
L 5456 4997 
L 5456 3497 
Q 5456 3209 5738 3209 
z
M 5256 1978 
L 3613 1978 
Q 3863 1241 4363 731 
Q 4956 1275 5256 1978 
z
" transform="scale(0.015625)"/>
      </defs>
      <use xlink:href="#MicrosoftYaHei-8bad"/>
      <use xlink:href="#MicrosoftYaHei-7ec3" transform="translate(100 0)"/>
      <use xlink:href="#MicrosoftYaHei-9636" transform="translate(200 0)"/>
      <use xlink:href="#MicrosoftYaHei-6bb5" transform="translate(300 0)"/>
     </g>
    </g>
   </g>
   <g id="matplotlib.axis_2">
    <g id="ytick_1">
     <g id="line2d_5">
      <path d="M 39.801563 383.436447 
L 849.301563 383.436447 
" clip-path="url(#p74a257226e)" style="fill: none; stroke-dasharray: 2.96,1.28; stroke-dashoffset: 0; stroke: #cccccc; stroke-opacity: 0.6; stroke-width: 0.8"/>
     </g>
     <g id="text_6">
      <!-- 20 -->
      <g style="fill: #262626" transform="translate(21.679688 387.015353) scale(0.1 -0.1)">
       <defs>
        <path id="ArialMT-30" d="M 266 2259 
Q 266 3072 433 3567 
Q 600 4063 929 4331 
Q 1259 4600 1759 4600 
Q 2128 4600 2406 4451 
Q 2684 4303 2865 4023 
Q 3047 3744 3150 3342 
Q 3253 2941 3253 2259 
Q 3253 1453 3087 958 
Q 2922 463 2592 192 
Q 2263 -78 1759 -78 
Q 1097 -78 719 397 
Q 266 969 266 2259 
z
M 844 2259 
Q 844 1131 1108 757 
Q 1372 384 1759 384 
Q 2147 384 2411 759 
Q 2675 1134 2675 2259 
Q 2675 3391 2411 3762 
Q 2147 4134 1753 4134 
Q 1366 4134 1134 3806 
Q 844 3388 844 2259 
z
" transform="scale(0.015625)"/>
       </defs>
       <use xlink:href="#ArialMT-32"/>
       <use xlink:href="#ArialMT-30" transform="translate(55.615234 0)"/>
      </g>
     </g>
    </g>
    <g id="ytick_2">
     <g id="line2d_6">
      <path d="M 39.801563 300.197875 
L 849.301563 300.197875 
" clip-path="url(#p74a257226e)" style="fill: none; stroke-dasharray: 2.96,1.28; stroke-dashoffset: 0; stroke: #cccccc; stroke-opacity: 0.6; stroke-width: 0.8"/>
     </g>
     <g id="text_7">
      <!-- 30 -->
      <g style="fill: #262626" transform="translate(21.679688 303.776781) scale(0.1 -0.1)">
       <use xlink:href="#ArialMT-33"/>
       <use xlink:href="#ArialMT-30" transform="translate(55.615234 0)"/>
      </g>
     </g>
    </g>
    <g id="ytick_3">
     <g id="line2d_7">
      <path d="M 39.801563 216.959303 
L 849.301563 216.959303 
" clip-path="url(#p74a257226e)" style="fill: none; stroke-dasharray: 2.96,1.28; stroke-dashoffset: 0; stroke: #cccccc; stroke-opacity: 0.6; stroke-width: 0.8"/>
     </g>
     <g id="text_8">
      <!-- 40 -->
      <g style="fill: #262626" transform="translate(21.679688 220.53821) scale(0.1 -0.1)">
       <use xlink:href="#ArialMT-34"/>
       <use xlink:href="#ArialMT-30" transform="translate(55.615234 0)"/>
      </g>
     </g>
    </g>
    <g id="ytick_4">
     <g id="line2d_8">
      <path d="M 39.801563 133.720731 
L 849.301563 133.720731 
" clip-path="url(#p74a257226e)" style="fill: none; stroke-dasharray: 2.96,1.28; stroke-dashoffset: 0; stroke: #cccccc; stroke-opacity: 0.6; stroke-width: 0.8"/>
     </g>
     <g id="text_9">
      <!-- 50 -->
      <g style="fill: #262626" transform="translate(21.679688 137.299638) scale(0.1 -0.1)">
       <defs>
        <path id="ArialMT-35" d="M 266 1200 
L 856 1250 
Q 922 819 1161 601 
Q 1400 384 1738 384 
Q 2144 384 2425 690 
Q 2706 997 2706 1503 
Q 2706 1984 2436 2262 
Q 2166 2541 1728 2541 
Q 1456 2541 1237 2417 
Q 1019 2294 894 2097 
L 366 2166 
L 809 4519 
L 3088 4519 
L 3088 3981 
L 1259 3981 
L 1013 2750 
Q 1425 3038 1878 3038 
Q 2478 3038 2890 2622 
Q 3303 2206 3303 1553 
Q 3303 931 2941 478 
Q 2500 -78 1738 -78 
Q 1113 -78 717 272 
Q 322 622 266 1200 
z
" transform="scale(0.015625)"/>
       </defs>
       <use xlink:href="#ArialMT-35"/>
       <use xlink:href="#ArialMT-30" transform="translate(55.615234 0)"/>
      </g>
     </g>
    </g>
    <g id="text_10">
     <!-- 奖励 -->
     <g style="fill: #262626" transform="translate(15.19375 281.064375) rotate(-90) scale(0.1 -0.1)">
      <defs>
       <path id="MicrosoftYaHei-5956" d="M 6306 -284 
Q 6119 -528 5944 -803 
Q 4031 -491 3197 859 
Q 2550 -472 406 -878 
Q 281 -666 100 -403 
Q 2175 -84 2709 972 
L 225 972 
L 225 1403 
L 2900 1403 
Q 2969 1600 3019 1822 
L 3531 1822 
Q 3484 1603 3422 1403 
L 6200 1403 
L 6200 972 
L 3647 972 
Q 4472 -169 6306 -284 
z
M 2388 3553 
Q 3181 4228 3588 5334 
L 4056 5241 
Q 3941 4938 3803 4666 
L 5988 4666 
L 5988 4278 
Q 5181 2359 2788 1853 
Q 2706 2072 2531 2316 
Q 3434 2463 4094 2831 
Q 3688 3222 3288 3516 
L 3588 3822 
Q 4056 3481 4491 3084 
Q 5116 3550 5463 4266 
L 3588 4266 
Q 3228 3666 2763 3234 
Q 2588 3428 2388 3553 
z
M 1744 5291 
L 2231 5291 
L 2231 1728 
L 1744 1728 
L 1744 2925 
Q 1231 2694 256 2253 
L 94 2747 
Q 991 3088 1744 3425 
L 1744 5291 
z
M 281 4584 
L 588 4891 
Q 1088 4503 1513 4072 
L 1169 3741 
Q 700 4253 281 4584 
z
" transform="scale(0.015625)"/>
       <path id="MicrosoftYaHei-52b1" d="M 3756 3997 
L 4303 3997 
Q 4316 4669 4319 5297 
L 4775 5297 
Q 4763 4559 4750 3997 
L 6031 3997 
Q 5963 1203 5925 278 
Q 5888 -678 5169 -678 
Q 4969 -678 4444 -666 
Q 4406 -378 4350 -134 
Q 4856 -178 5081 -178 
Q 5425 -178 5456 272 
Q 5513 1266 5563 3528 
L 4741 3528 
Q 4731 3028 4725 2716 
Q 4688 334 3600 -859 
Q 3469 -666 3281 -447 
Q 4238 634 4275 2634 
Q 4288 3091 4297 3528 
L 3756 3528 
L 3756 3997 
z
M 1225 3728 
L 3563 3728 
L 3563 3291 
L 2194 3291 
Q 2184 2784 2172 2372 
L 3375 2372 
Q 3319 766 3275 91 
Q 3206 -628 2581 -628 
Q 2406 -628 2050 -622 
Q 2013 -416 1956 -159 
Q 2306 -197 2475 -197 
Q 2819 -203 2850 216 
Q 2894 797 2931 1959 
L 2153 1959 
Q 2125 1378 2081 1034 
Q 1969 -3 1300 -828 
Q 1175 -659 981 -453 
Q 1531 209 1644 1097 
Q 1728 1641 1756 3291 
L 1225 3291 
L 1225 3728 
z
M 1044 4472 
L 1044 2166 
Q 1044 147 475 -809 
Q 306 -647 94 -478 
Q 588 341 588 2184 
L 588 4909 
L 3663 4909 
L 3663 4472 
L 1044 4472 
z
" transform="scale(0.015625)"/>
      </defs>
      <use xlink:href="#MicrosoftYaHei-5956"/>
      <use xlink:href="#MicrosoftYaHei-52b1" transform="translate(100 0)"/>
     </g>
    </g>
   </g>
   <g id="FillBetweenPolyCollection_1">
    <defs>
     <path id="m464ba926cf" d="M 141.041357 -55.192131 
L 140.936768 -55.192131 
L 140.910771 -58.652346 
L 140.876391 -62.112562 
L 140.83314 -65.572778 
L 140.78149 -69.032994 
L 140.723098 -72.49321 
L 140.660859 -75.953425 
L 140.598689 -79.413641 
L 140.541066 -82.873857 
L 140.492367 -86.334073 
L 140.45615 -89.794289 
L 140.434532 -93.254504 
L 140.427793 -96.71472 
L 140.434276 -100.174936 
L 140.450557 -103.635152 
L 140.471802 -107.095368 
L 140.492208 -110.555583 
L 140.505429 -114.015799 
L 140.504991 -117.476015 
L 140.484709 -120.936231 
L 140.43919 -124.396447 
L 140.364432 -127.856662 
L 140.258484 -131.316878 
L 140.122046 -134.777094 
L 139.958806 -138.23731 
L 139.775359 -141.697526 
L 139.580607 -145.157741 
L 139.384679 -148.617957 
L 139.197578 -152.078173 
L 139.02783 -155.538389 
L 138.881466 -158.998605 
L 138.761552 -162.45882 
L 138.668377 -165.919036 
L 138.600174 -169.379252 
L 138.554152 -172.839468 
L 138.527528 -176.299683 
L 138.51826 -179.759899 
L 138.525323 -183.220115 
L 138.548453 -186.680331 
L 138.587491 -190.140547 
L 138.641481 -193.600762 
L 138.707781 -197.060978 
L 138.781412 -200.521194 
L 138.854812 -203.98141 
L 138.918123 -207.441626 
L 138.960012 -210.901841 
L 138.96895 -214.362057 
L 138.934756 -217.822273 
L 138.850153 -221.282489 
L 138.712003 -224.742705 
L 138.52194 -228.20292 
L 138.286149 -231.663136 
L 138.014192 -235.123352 
L 137.716972 -238.583568 
L 137.404114 -242.043784 
L 137.08124 -245.503999 
L 136.747723 -248.964215 
L 136.395499 -252.424431 
L 136.009332 -255.884647 
L 135.568652 -259.344863 
L 135.050667 -262.805078 
L 134.434117 -266.265294 
L 133.702854 -269.72551 
L 132.848478 -273.185726 
L 131.871544 -276.645942 
L 130.781286 -280.106157 
L 129.594203 -283.566373 
L 128.332092 -287.026589 
L 127.02011 -290.486805 
L 125.685256 -293.94702 
L 124.355337 -297.407236 
L 123.058341 -300.867452 
L 121.82199 -304.327668 
L 120.673444 -307.787884 
L 119.63921 -311.248099 
L 118.745449 -314.708315 
L 118.018726 -318.168531 
L 117.486976 -321.628747 
L 117.180113 -325.088963 
L 117.129519 -328.549178 
L 117.365754 -332.009394 
L 117.914326 -335.46961 
L 118.790028 -338.929826 
L 119.991068 -342.390042 
L 121.494553 -345.850257 
L 123.25481 -349.310473 
L 125.205382 -352.770689 
L 127.264684 -356.230905 
L 129.344346 -359.691121 
L 131.358648 -363.151336 
L 133.233267 -366.611552 
L 134.911828 -370.071768 
L 136.359353 -373.531984 
L 137.562431 -376.9922 
L 138.526635 -380.452415 
L 139.272059 -383.912631 
L 139.828074 -387.372847 
L 140.228253 -390.833063 
L 140.506159 -394.293279 
L 140.692355 -397.753494 
L 141.28577 -397.753494 
L 141.28577 -397.753494 
L 141.471966 -394.293279 
L 141.749872 -390.833063 
L 142.150051 -387.372847 
L 142.706066 -383.912631 
L 143.45149 -380.452415 
L 144.415694 -376.9922 
L 145.618772 -373.531984 
L 147.066297 -370.071768 
L 148.744858 -366.611552 
L 150.619477 -363.151336 
L 152.633779 -359.691121 
L 154.713441 -356.230905 
L 156.772743 -352.770689 
L 158.723315 -349.310473 
L 160.483572 -345.850257 
L 161.987057 -342.390042 
L 163.188097 -338.929826 
L 164.063799 -335.46961 
L 164.612371 -332.009394 
L 164.848606 -328.549178 
L 164.798012 -325.088963 
L 164.491149 -321.628747 
L 163.959399 -318.168531 
L 163.232676 -314.708315 
L 162.338915 -311.248099 
L 161.304681 -307.787884 
L 160.156135 -304.327668 
L 158.919784 -300.867452 
L 157.622788 -297.407236 
L 156.292869 -293.94702 
L 154.958015 -290.486805 
L 153.646033 -287.026589 
L 152.383922 -283.566373 
L 151.196839 -280.106157 
L 150.106581 -276.645942 
L 149.129647 -273.185726 
L 148.275271 -269.72551 
L 147.544008 -266.265294 
L 146.927458 -262.805078 
L 146.409473 -259.344863 
L 145.968793 -255.884647 
L 145.582626 -252.424431 
L 145.230402 -248.964215 
L 144.896885 -245.503999 
L 144.574011 -242.043784 
L 144.261153 -238.583568 
L 143.963933 -235.123352 
L 143.691976 -231.663136 
L 143.456185 -228.20292 
L 143.266122 -224.742705 
L 143.127972 -221.282489 
L 143.043369 -217.822273 
L 143.009175 -214.362057 
L 143.018113 -210.901841 
L 143.060002 -207.441626 
L 143.123313 -203.98141 
L 143.196713 -200.521194 
L 143.270344 -197.060978 
L 143.336644 -193.600762 
L 143.390634 -190.140547 
L 143.429672 -186.680331 
L 143.452802 -183.220115 
L 143.459865 -179.759899 
L 143.450597 -176.299683 
L 143.423973 -172.839468 
L 143.377951 -169.379252 
L 143.309748 -165.919036 
L 143.216573 -162.45882 
L 143.096659 -158.998605 
L 142.950295 -155.538389 
L 142.780547 -152.078173 
L 142.593446 -148.617957 
L 142.397518 -145.157741 
L 142.202766 -141.697526 
L 142.019319 -138.23731 
L 141.856079 -134.777094 
L 141.719641 -131.316878 
L 141.613693 -127.856662 
L 141.538935 -124.396447 
L 141.493416 -120.936231 
L 141.473134 -117.476015 
L 141.472696 -114.015799 
L 141.485917 -110.555583 
L 141.506323 -107.095368 
L 141.527568 -103.635152 
L 141.543849 -100.174936 
L 141.550332 -96.71472 
L 141.543593 -93.254504 
L 141.521975 -89.794289 
L 141.485758 -86.334073 
L 141.437059 -82.873857 
L 141.379436 -79.413641 
L 141.317266 -75.953425 
L 141.255027 -72.49321 
L 141.196635 -69.032994 
L 141.144985 -65.572778 
L 141.101734 -62.112562 
L 141.067354 -58.652346 
L 141.041357 -55.192131 
z
" style="stroke: #3f3f3f; stroke-width: 1.25"/>
    </defs>
    <g clip-path="url(#p74a257226e)">
     <use xlink:href="#m464ba926cf" x="0" y="497.537187" style="fill: #3274a1; stroke: #3f3f3f; stroke-width: 1.25"/>
    </g>
   </g>
   <g id="FillBetweenPolyCollection_2">
    <defs>
     <path id="m504473ae58" d="M 343.4597 -291.657041 
L 343.268425 -291.657041 
L 343.223846 -292.467396 
L 343.166516 -293.277751 
L 343.096532 -294.088106 
L 343.01563 -294.898461 
L 342.92731 -295.708815 
L 342.836555 -296.51917 
L 342.749062 -297.329525 
L 342.670087 -298.13988 
L 342.603131 -298.950235 
L 342.548815 -299.76059 
L 342.504334 -300.570944 
L 342.463744 -301.381299 
L 342.419126 -302.191654 
L 342.362387 -303.002009 
L 342.287191 -303.812364 
L 342.190361 -304.622719 
L 342.072173 -305.433074 
L 341.93522 -306.243428 
L 341.781964 -307.053783 
L 341.611597 -307.864138 
L 341.417259 -308.674493 
L 341.184771 -309.484848 
L 340.893845 -310.295203 
L 340.522116 -311.105557 
L 340.051435 -311.915912 
L 339.474925 -312.726267 
L 338.802617 -313.536622 
L 338.063387 -314.346977 
L 337.301582 -315.157332 
L 336.568095 -315.967687 
L 335.907478 -316.778041 
L 335.34432 -317.588396 
L 334.873058 -318.398751 
L 334.455069 -319.209106 
L 334.025219 -320.019461 
L 333.507363 -320.829816 
L 332.835249 -321.64017 
L 331.973018 -322.450525 
L 330.928646 -323.26088 
L 329.754996 -324.071235 
L 328.536359 -324.88159 
L 327.362776 -325.691945 
L 326.298783 -326.502299 
L 325.356029 -327.312654 
L 324.479369 -328.123009 
L 323.553038 -328.933364 
L 322.427938 -329.743719 
L 320.964336 -330.554074 
L 319.078403 -331.364429 
L 316.778088 -332.174783 
L 314.175167 -332.985138 
L 311.46612 -333.795493 
L 308.88351 -334.605848 
L 306.62932 -335.416203 
L 304.809047 -336.226558 
L 303.387647 -337.036912 
L 302.184157 -337.847267 
L 300.9116 -338.657622 
L 299.255281 -339.467977 
L 296.969691 -340.278332 
L 293.966265 -341.088687 
L 290.364167 -341.899042 
L 286.484954 -342.709396 
L 282.787438 -343.519751 
L 279.757071 -344.330106 
L 277.779139 -345.140461 
L 277.032024 -345.950816 
L 277.432903 -346.761171 
L 278.654151 -347.571525 
L 280.208264 -348.38188 
L 281.578646 -349.192235 
L 282.35941 -350.00259 
L 282.36411 -350.812945 
L 281.672049 -351.6233 
L 280.599047 -352.433654 
L 279.601695 -353.244009 
L 279.143494 -354.054364 
L 279.562086 -354.864719 
L 280.975824 -355.675074 
L 283.255622 -356.485429 
L 286.068322 -357.295784 
L 288.976866 -358.106138 
L 291.566599 -358.916493 
L 293.560835 -359.726848 
L 294.893601 -360.537203 
L 295.721392 -361.347558 
L 296.374081 -362.157913 
L 297.262172 -362.968267 
L 298.768437 -363.778622 
L 301.153909 -364.588977 
L 304.501389 -365.399332 
L 308.706899 -366.209687 
L 313.515316 -367.020042 
L 318.58518 -367.830396 
L 323.562366 -368.640751 
L 328.143626 -369.451106 
L 332.117395 -370.261461 
L 335.377785 -371.071816 
L 337.915345 -371.882171 
L 348.81278 -371.882171 
L 348.81278 -371.882171 
L 351.35034 -371.071816 
L 354.61073 -370.261461 
L 358.584499 -369.451106 
L 363.165759 -368.640751 
L 368.142945 -367.830396 
L 373.212809 -367.020042 
L 378.021226 -366.209687 
L 382.226736 -365.399332 
L 385.574216 -364.588977 
L 387.959688 -363.778622 
L 389.465953 -362.968267 
L 390.354044 -362.157913 
L 391.006733 -361.347558 
L 391.834524 -360.537203 
L 393.16729 -359.726848 
L 395.161526 -358.916493 
L 397.751259 -358.106138 
L 400.659803 -357.295784 
L 403.472503 -356.485429 
L 405.752301 -355.675074 
L 407.166039 -354.864719 
L 407.584631 -354.054364 
L 407.12643 -353.244009 
L 406.129078 -352.433654 
L 405.056076 -351.6233 
L 404.364015 -350.812945 
L 404.368715 -350.00259 
L 405.149479 -349.192235 
L 406.519861 -348.38188 
L 408.073974 -347.571525 
L 409.295222 -346.761171 
L 409.696101 -345.950816 
L 408.948986 -345.140461 
L 406.971054 -344.330106 
L 403.940687 -343.519751 
L 400.243171 -342.709396 
L 396.363958 -341.899042 
L 392.76186 -341.088687 
L 389.758434 -340.278332 
L 387.472844 -339.467977 
L 385.816525 -338.657622 
L 384.543968 -337.847267 
L 383.340478 -337.036912 
L 381.919078 -336.226558 
L 380.098805 -335.416203 
L 377.844615 -334.605848 
L 375.262005 -333.795493 
L 372.552958 -332.985138 
L 369.950037 -332.174783 
L 367.649722 -331.364429 
L 365.763789 -330.554074 
L 364.300187 -329.743719 
L 363.175087 -328.933364 
L 362.248756 -328.123009 
L 361.372096 -327.312654 
L 360.429342 -326.502299 
L 359.365349 -325.691945 
L 358.191766 -324.88159 
L 356.973129 -324.071235 
L 355.799479 -323.26088 
L 354.755107 -322.450525 
L 353.892876 -321.64017 
L 353.220762 -320.829816 
L 352.702906 -320.019461 
L 352.273056 -319.209106 
L 351.855067 -318.398751 
L 351.383805 -317.588396 
L 350.820647 -316.778041 
L 350.16003 -315.967687 
L 349.426543 -315.157332 
L 348.664738 -314.346977 
L 347.925508 -313.536622 
L 347.2532 -312.726267 
L 346.67669 -311.915912 
L 346.206009 -311.105557 
L 345.83428 -310.295203 
L 345.543354 -309.484848 
L 345.310866 -308.674493 
L 345.116528 -307.864138 
L 344.946161 -307.053783 
L 344.792905 -306.243428 
L 344.655952 -305.433074 
L 344.537764 -304.622719 
L 344.440934 -303.812364 
L 344.365738 -303.002009 
L 344.308999 -302.191654 
L 344.264381 -301.381299 
L 344.223791 -300.570944 
L 344.17931 -299.76059 
L 344.124994 -298.950235 
L 344.058038 -298.13988 
L 343.979063 -297.329525 
L 343.89157 -296.51917 
L 343.800815 -295.708815 
L 343.712495 -294.898461 
L 343.631593 -294.088106 
L 343.561609 -293.277751 
L 343.504279 -292.467396 
L 343.4597 -291.657041 
z
" style="stroke: #3f3f3f; stroke-width: 1.25"/>
    </defs>
    <g clip-path="url(#p74a257226e)">
     <use xlink:href="#m504473ae58" x="0" y="497.537187" style="fill: #3274a1; stroke: #3f3f3f; stroke-width: 1.25"/>
    </g>
   </g>
   <g id="FillBetweenPolyCollection_3">
    <defs>
     <path id="m38a4edad65" d="M 545.840678 -301.279972 
L 545.637447 -301.279972 
L 545.593846 -301.988411 
L 545.538457 -302.696851 
L 545.471058 -303.40529 
L 545.392537 -304.11373 
L 545.304942 -304.822169 
L 545.21121 -305.530609 
L 545.114535 -306.239048 
L 545.017383 -306.947488 
L 544.920318 -307.655927 
L 544.820876 -308.364367 
L 544.712838 -309.072806 
L 544.586226 -309.781246 
L 544.428273 -310.489685 
L 544.225422 -311.198125 
L 543.966135 -311.906564 
L 543.644004 -312.615004 
L 543.260427 -313.323443 
L 542.826014 -314.031883 
L 542.359996 -314.740322 
L 541.887269 -315.448762 
L 541.433235 -316.157201 
L 541.017275 -316.865641 
L 540.646217 -317.57408 
L 540.309516 -318.28252 
L 539.977767 -318.99096 
L 539.605667 -319.699399 
L 539.13959 -320.407839 
L 538.528798 -321.116278 
L 537.738164 -321.824718 
L 536.759519 -322.533157 
L 535.618504 -323.241597 
L 534.374416 -323.950036 
L 533.111863 -324.658476 
L 531.92491 -325.366915 
L 530.896468 -326.075355 
L 530.077269 -326.783794 
L 529.469597 -327.492234 
L 529.020431 -328.200673 
L 528.62697 -328.909113 
L 528.154754 -329.617552 
L 527.465523 -330.325992 
L 526.449146 -331.034431 
L 525.05228 -331.742871 
L 523.296334 -332.45131 
L 521.279052 -333.15975 
L 519.157414 -333.868189 
L 517.113874 -334.576629 
L 515.312358 -335.285068 
L 513.853767 -335.993508 
L 512.742006 -336.701947 
L 511.870267 -337.410387 
L 511.033394 -338.118826 
L 509.966413 -338.827266 
L 508.402893 -339.535705 
L 506.141259 -340.244145 
L 503.10397 -340.952584 
L 499.374556 -341.661024 
L 495.201293 -342.369463 
L 490.963229 -343.077903 
L 487.1029 -343.786342 
L 484.038579 -344.494782 
L 482.074912 -345.203221 
L 481.332676 -345.911661 
L 481.715201 -346.6201 
L 482.92127 -347.32854 
L 484.503703 -348.036979 
L 485.961981 -348.745419 
L 486.848823 -349.453858 
L 486.866813 -350.162298 
L 485.932934 -350.870737 
L 484.195844 -351.579177 
L 482.001365 -352.287616 
L 479.813532 -352.996056 
L 478.108819 -353.704495 
L 477.26756 -354.412935 
L 477.487405 -355.121374 
L 478.738699 -355.829814 
L 480.772009 -356.538253 
L 483.175975 -357.246693 
L 485.472048 -357.955132 
L 487.224387 -358.663572 
L 488.13998 -359.372011 
L 488.136722 -360.080451 
L 487.364873 -360.78889 
L 486.17812 -361.49733 
L 485.061846 -362.205769 
L 484.535503 -362.914209 
L 485.051047 -363.622648 
L 486.909179 -364.331088 
L 490.209884 -365.039527 
L 494.844887 -365.747967 
L 500.529691 -366.456406 
L 506.864292 -367.164846 
L 513.406683 -367.873285 
L 519.742707 -368.581725 
L 525.539261 -369.290164 
L 530.573853 -369.998604 
L 534.739972 -370.707043 
L 538.032973 -371.415483 
L 553.445152 -371.415483 
L 553.445152 -371.415483 
L 556.738153 -370.707043 
L 560.904272 -369.998604 
L 565.938864 -369.290164 
L 571.735418 -368.581725 
L 578.071442 -367.873285 
L 584.613833 -367.164846 
L 590.948434 -366.456406 
L 596.633238 -365.747967 
L 601.268241 -365.039527 
L 604.568946 -364.331088 
L 606.427078 -363.622648 
L 606.942622 -362.914209 
L 606.416279 -362.205769 
L 605.300005 -361.49733 
L 604.113252 -360.78889 
L 603.341403 -360.080451 
L 603.338145 -359.372011 
L 604.253738 -358.663572 
L 606.006077 -357.955132 
L 608.30215 -357.246693 
L 610.706116 -356.538253 
L 612.739426 -355.829814 
L 613.99072 -355.121374 
L 614.210565 -354.412935 
L 613.369306 -353.704495 
L 611.664593 -352.996056 
L 609.47676 -352.287616 
L 607.282281 -351.579177 
L 605.545191 -350.870737 
L 604.611312 -350.162298 
L 604.629302 -349.453858 
L 605.516144 -348.745419 
L 606.974422 -348.036979 
L 608.556855 -347.32854 
L 609.762924 -346.6201 
L 610.145449 -345.911661 
L 609.403213 -345.203221 
L 607.439546 -344.494782 
L 604.375225 -343.786342 
L 600.514896 -343.077903 
L 596.276832 -342.369463 
L 592.103569 -341.661024 
L 588.374155 -340.952584 
L 585.336866 -340.244145 
L 583.075232 -339.535705 
L 581.511712 -338.827266 
L 580.444731 -338.118826 
L 579.607858 -337.410387 
L 578.736119 -336.701947 
L 577.624358 -335.993508 
L 576.165767 -335.285068 
L 574.364251 -334.576629 
L 572.320711 -333.868189 
L 570.199073 -333.15975 
L 568.181791 -332.45131 
L 566.425845 -331.742871 
L 565.028979 -331.034431 
L 564.012602 -330.325992 
L 563.323371 -329.617552 
L 562.851155 -328.909113 
L 562.457694 -328.200673 
L 562.008528 -327.492234 
L 561.400856 -326.783794 
L 560.581657 -326.075355 
L 559.553215 -325.366915 
L 558.366262 -324.658476 
L 557.103709 -323.950036 
L 555.859621 -323.241597 
L 554.718606 -322.533157 
L 553.739961 -321.824718 
L 552.949327 -321.116278 
L 552.338535 -320.407839 
L 551.872458 -319.699399 
L 551.500358 -318.99096 
L 551.168609 -318.28252 
L 550.831908 -317.57408 
L 550.46085 -316.865641 
L 550.04489 -316.157201 
L 549.590856 -315.448762 
L 549.118129 -314.740322 
L 548.652111 -314.031883 
L 548.217698 -313.323443 
L 547.834121 -312.615004 
L 547.51199 -311.906564 
L 547.252703 -311.198125 
L 547.049852 -310.489685 
L 546.891899 -309.781246 
L 546.765287 -309.072806 
L 546.657249 -308.364367 
L 546.557807 -307.655927 
L 546.460742 -306.947488 
L 546.36359 -306.239048 
L 546.266915 -305.530609 
L 546.173183 -304.822169 
L 546.085588 -304.11373 
L 546.007067 -303.40529 
L 545.939668 -302.696851 
L 545.884279 -301.988411 
L 545.840678 -301.279972 
z
" style="stroke: #3f3f3f; stroke-width: 1.25"/>
    </defs>
    <g clip-path="url(#p74a257226e)">
     <use xlink:href="#m38a4edad65" x="0" y="497.537187" style="fill: #3274a1; stroke: #3f3f3f; stroke-width: 1.25"/>
    </g>
   </g>
   <g id="FillBetweenPolyCollection_4">
    <defs>
     <path id="mc1262b8902" d="M 748.218317 -301.474625 
L 748.009808 -301.474625 
L 747.96405 -302.179132 
L 747.905711 -302.883639 
L 747.834603 -303.588146 
L 747.751789 -304.292653 
L 747.659615 -304.997161 
L 747.561357 -305.701668 
L 747.460432 -306.406175 
L 747.359186 -307.110682 
L 747.257464 -307.815189 
L 747.151266 -308.519696 
L 747.031907 -309.224203 
L 746.886114 -309.92871 
L 746.697358 -310.633218 
L 746.448483 -311.337725 
L 746.125375 -312.042232 
L 745.72099 -312.746739 
L 745.238796 -313.451246 
L 744.694531 -314.155753 
L 744.115303 -314.86026 
L 743.535558 -315.564767 
L 742.990122 -316.269275 
L 742.505431 -316.973782 
L 742.090793 -317.678289 
L 741.731973 -318.382796 
L 741.38927 -319.087303 
L 741.001562 -319.79181 
L 740.496529 -320.496317 
L 739.805728 -321.200824 
L 738.881721 -321.905331 
L 737.71338 -322.609839 
L 736.335274 -323.314346 
L 734.82776 -324.018853 
L 733.306184 -324.72336 
L 731.900063 -325.427867 
L 730.725827 -326.132374 
L 729.858828 -326.836881 
L 729.311377 -327.541388 
L 729.022907 -328.245896 
L 728.866105 -328.950403 
L 728.669311 -329.65491 
L 728.251541 -330.359417 
L 727.462999 -331.063924 
L 726.221878 -331.768431 
L 724.538224 -332.472938 
L 722.517792 -333.177445 
L 720.342917 -333.881952 
L 718.232691 -334.58646 
L 716.39001 -335.290967 
L 714.94709 -335.995474 
L 713.922721 -336.699981 
L 713.203064 -337.404488 
L 712.553361 -338.108995 
L 711.661153 -338.813502 
L 710.204057 -339.518009 
L 707.928461 -340.222517 
L 704.721431 -340.927024 
L 700.657865 -341.631531 
L 696.008894 -342.336038 
L 691.205426 -343.040545 
L 686.760854 -343.745052 
L 683.167308 -344.449559 
L 680.787583 -345.154066 
L 679.767934 -345.858574 
L 679.993821 -346.563081 
L 681.101934 -347.267588 
L 682.54909 -347.972095 
L 683.725125 -348.676602 
L 684.085963 -349.381109 
L 683.277375 -350.085616 
L 681.221133 -350.790123 
L 678.142999 -351.49463 
L 674.534742 -352.199138 
L 671.05724 -352.903645 
L 668.40532 -353.608152 
L 667.164062 -354.312659 
L 667.688533 -355.017166 
L 670.033534 -355.721673 
L 673.948186 -356.42618 
L 678.934929 -357.130687 
L 684.35773 -357.835195 
L 689.5737 -358.539702 
L 694.05834 -359.244209 
L 697.497946 -359.948716 
L 699.831855 -360.653223 
L 701.23959 -361.35773 
L 702.080377 -362.062237 
L 702.802128 -362.766744 
L 703.841931 -363.471251 
L 705.539675 -364.175759 
L 708.081289 -364.880266 
L 711.479677 -365.584773 
L 715.592216 -366.28928 
L 720.165784 -366.993787 
L 724.89558 -367.698294 
L 729.483246 -368.402801 
L 733.68265 -369.107308 
L 737.326749 -369.811816 
L 740.334591 -370.516323 
L 742.702039 -371.22083 
L 753.526086 -371.22083 
L 753.526086 -371.22083 
L 755.893534 -370.516323 
L 758.901376 -369.811816 
L 762.545475 -369.107308 
L 766.744879 -368.402801 
L 771.332545 -367.698294 
L 776.062341 -366.993787 
L 780.635909 -366.28928 
L 784.748448 -365.584773 
L 788.146836 -364.880266 
L 790.68845 -364.175759 
L 792.386194 -363.471251 
L 793.425997 -362.766744 
L 794.147748 -362.062237 
L 794.988535 -361.35773 
L 796.39627 -360.653223 
L 798.730179 -359.948716 
L 802.169785 -359.244209 
L 806.654425 -358.539702 
L 811.870395 -357.835195 
L 817.293196 -357.130687 
L 822.279939 -356.42618 
L 826.194591 -355.721673 
L 828.539592 -355.017166 
L 829.064062 -354.312659 
L 827.822805 -353.608152 
L 825.170885 -352.903645 
L 821.693383 -352.199138 
L 818.085126 -351.49463 
L 815.006992 -350.790123 
L 812.95075 -350.085616 
L 812.142162 -349.381109 
L 812.503 -348.676602 
L 813.679035 -347.972095 
L 815.126191 -347.267588 
L 816.234304 -346.563081 
L 816.460191 -345.858574 
L 815.440542 -345.154066 
L 813.060817 -344.449559 
L 809.467271 -343.745052 
L 805.022699 -343.040545 
L 800.219231 -342.336038 
L 795.57026 -341.631531 
L 791.506694 -340.927024 
L 788.299664 -340.222517 
L 786.024068 -339.518009 
L 784.566972 -338.813502 
L 783.674764 -338.108995 
L 783.025061 -337.404488 
L 782.305404 -336.699981 
L 781.281035 -335.995474 
L 779.838115 -335.290967 
L 777.995434 -334.58646 
L 775.885208 -333.881952 
L 773.710333 -333.177445 
L 771.689901 -332.472938 
L 770.006247 -331.768431 
L 768.765126 -331.063924 
L 767.976584 -330.359417 
L 767.558814 -329.65491 
L 767.36202 -328.950403 
L 767.205218 -328.245896 
L 766.916748 -327.541388 
L 766.369297 -326.836881 
L 765.502298 -326.132374 
L 764.328062 -325.427867 
L 762.921941 -324.72336 
L 761.400365 -324.018853 
L 759.892851 -323.314346 
L 758.514745 -322.609839 
L 757.346404 -321.905331 
L 756.422397 -321.200824 
L 755.731596 -320.496317 
L 755.226563 -319.79181 
L 754.838855 -319.087303 
L 754.496152 -318.382796 
L 754.137332 -317.678289 
L 753.722694 -316.973782 
L 753.238003 -316.269275 
L 752.692567 -315.564767 
L 752.112822 -314.86026 
L 751.533594 -314.155753 
L 750.989329 -313.451246 
L 750.507135 -312.746739 
L 750.10275 -312.042232 
L 749.779642 -311.337725 
L 749.530767 -310.633218 
L 749.342011 -309.92871 
L 749.196218 -309.224203 
L 749.076859 -308.519696 
L 748.970661 -307.815189 
L 748.868939 -307.110682 
L 748.767693 -306.406175 
L 748.666768 -305.701668 
L 748.56851 -304.997161 
L 748.476336 -304.292653 
L 748.393522 -303.588146 
L 748.322414 -302.883639 
L 748.264075 -302.179132 
L 748.218317 -301.474625 
z
" style="stroke: #3f3f3f; stroke-width: 1.25"/>
    </defs>
    <g clip-path="url(#p74a257226e)">
     <use xlink:href="#mc1262b8902" x="0" y="497.537187" style="fill: #3274a1; stroke: #3f3f3f; stroke-width: 1.25"/>
    </g>
   </g>
   <g id="line2d_9">
    <path d="M 126.989361 206.970675 
L 154.988764 206.970675 
" clip-path="url(#p74a257226e)" style="fill: none; stroke-dasharray: 1.5625,0.9375; stroke-dashoffset: 0; stroke: #3f3f3f; stroke-width: 1.25"/>
   </g>
   <g id="line2d_10">
    <path d="M 118.04672 179.501946 
L 163.931405 179.501946 
" clip-path="url(#p74a257226e)" style="fill: none; stroke-dasharray: 3.125,1.25; stroke-dashoffset: 0; stroke: #3f3f3f; stroke-width: 1.25"/>
   </g>
   <g id="line2d_11">
    <path d="M 118.136558 161.18946 
L 163.841567 161.18946 
" clip-path="url(#p74a257226e)" style="fill: none; stroke-dasharray: 1.5625,0.9375; stroke-dashoffset: 0; stroke: #3f3f3f; stroke-width: 1.25"/>
   </g>
   <g id="line2d_12">
    <path d="M 304.596509 161.18946 
L 382.131616 161.18946 
" clip-path="url(#p74a257226e)" style="fill: none; stroke-dasharray: 1.5625,0.9375; stroke-dashoffset: 0; stroke: #3f3f3f; stroke-width: 1.25"/>
   </g>
   <g id="line2d_13">
    <path d="M 277.443998 152.033217 
L 409.284127 152.033217 
" clip-path="url(#p74a257226e)" style="fill: none; stroke-dasharray: 3.125,1.25; stroke-dashoffset: 0; stroke: #3f3f3f; stroke-width: 1.25"/>
   </g>
   <g id="line2d_14">
    <path d="M 279.456448 142.876974 
L 407.271677 142.876974 
" clip-path="url(#p74a257226e)" style="fill: none; stroke-dasharray: 1.5625,0.9375; stroke-dashoffset: 0; stroke: #3f3f3f; stroke-width: 1.25"/>
   </g>
   <g id="line2d_15">
    <path d="M 481.759815 152.033217 
L 609.71831 152.033217 
" clip-path="url(#p74a257226e)" style="fill: none; stroke-dasharray: 1.5625,0.9375; stroke-dashoffset: 0; stroke: #3f3f3f; stroke-width: 1.25"/>
   </g>
   <g id="line2d_16">
    <path d="M 477.344296 142.876974 
L 614.133829 142.876974 
" clip-path="url(#p74a257226e)" style="fill: none; stroke-dasharray: 3.125,1.25; stroke-dashoffset: 0; stroke: #3f3f3f; stroke-width: 1.25"/>
   </g>
   <g id="line2d_17">
    <path d="M 486.130747 136.009792 
L 605.347378 136.009792 
" clip-path="url(#p74a257226e)" style="fill: none; stroke-dasharray: 1.5625,0.9375; stroke-dashoffset: 0; stroke: #3f3f3f; stroke-width: 1.25"/>
   </g>
   <g id="line2d_18">
    <path d="M 680.281159 152.033217 
L 815.946966 152.033217 
" clip-path="url(#p74a257226e)" style="fill: none; stroke-dasharray: 1.5625,0.9375; stroke-dashoffset: 0; stroke: #3f3f3f; stroke-width: 1.25"/>
   </g>
   <g id="line2d_19">
    <path d="M 683.28142 147.455096 
L 812.946705 147.455096 
" clip-path="url(#p74a257226e)" style="fill: none; stroke-dasharray: 3.125,1.25; stroke-dashoffset: 0; stroke: #3f3f3f; stroke-width: 1.25"/>
   </g>
   <g id="line2d_20">
    <path d="M 667.422799 142.876974 
L 828.805326 142.876974 
" clip-path="url(#p74a257226e)" style="fill: none; stroke-dasharray: 1.5625,0.9375; stroke-dashoffset: 0; stroke: #3f3f3f; stroke-width: 1.25"/>
   </g>
   <g id="patch_3">
    <path d="M 39.801563 459.473125 
L 39.801563 82.655625 
" style="fill: none; stroke: #cccccc; stroke-width: 0.8; stroke-linejoin: miter; stroke-linecap: square"/>
   </g>
   <g id="patch_4">
    <path d="M 849.301563 459.473125 
L 849.301563 82.655625 
" style="fill: none; stroke: #cccccc; stroke-width: 0.8; stroke-linejoin: miter; stroke-linecap: square"/>
   </g>
   <g id="patch_5">
    <path d="M 39.801562 459.473125 
L 849.301563 459.473125 
" style="fill: none; stroke: #cccccc; stroke-width: 0.8; stroke-linejoin: miter; stroke-linecap: square"/>
   </g>
   <g id="patch_6">
    <path d="M 39.801562 82.655625 
L 849.301563 82.655625 
" style="fill: none; stroke: #cccccc; stroke-width: 0.8; stroke-linejoin: miter; stroke-linecap: square"/>
   </g>
  </g>
  <g id="text_11">
   <!-- 训练阶段奖励分布: default_params - PPO - 初始训练 (泊松分布(低均值,λ5)) -->
   <g style="fill: #262626" transform="translate(149.131562 20.63) scale(0.16 -0.16)">
    <defs>
     <path id="MicrosoftYaHei-Bold-8bad" d="M 956 5259 
Q 1475 4753 1925 4234 
L 1263 3684 
Q 769 4328 356 4747 
L 956 5259 
z
M 2450 5184 
L 3281 5184 
L 3281 2066 
Q 3281 209 2275 -884 
Q 1844 -528 1519 -328 
Q 2450 659 2450 2134 
L 2450 5184 
z
M 5238 5184 
L 6069 5184 
L 6069 -784 
L 5238 -784 
L 5238 5184 
z
M 3856 4953 
L 4663 4953 
L 4663 -416 
L 3856 -416 
L 3856 4953 
z
M 2019 1772 
Q 2050 1466 2175 916 
Q 1556 353 925 -341 
L 488 266 
Q 650 447 650 772 
L 650 2422 
L 125 2422 
L 125 3266 
L 1475 3266 
L 1475 1297 
Q 1769 1541 2019 1772 
z
" transform="scale(0.015625)"/>
     <path id="MicrosoftYaHei-Bold-7ec3" d="M 2400 3516 
L 2984 3516 
L 3159 4028 
L 2263 4028 
L 2263 4753 
L 3394 4753 
L 3575 5347 
L 4413 5291 
L 4238 4753 
L 6000 4753 
L 6000 4028 
L 3994 4028 
L 3809 3516 
L 4969 3516 
L 4969 2191 
L 6025 2191 
L 6025 1484 
L 4969 1484 
L 4969 297 
Q 4969 -131 4831 -397 
Q 4694 -663 4444 -758 
Q 4194 -853 3394 -853 
Q 3294 -309 3225 -34 
Q 3525 -72 3756 -72 
Q 4125 -72 4125 491 
L 4125 1484 
L 2513 1484 
L 2513 2291 
Q 2613 2525 2716 2791 
L 2400 2791 
L 2400 3516 
z
M 3306 2191 
L 4125 2191 
L 4125 2791 
L 3541 2791 
L 3306 2191 
z
M 1013 3372 
L 1419 3388 
L 1744 3966 
L 2413 3659 
L 1356 1797 
Q 1894 1872 2294 1941 
Q 2263 1684 2231 1159 
Q 931 984 475 866 
L 244 1566 
Q 531 1816 1009 2653 
L 306 2584 
L 75 3297 
Q 575 3966 1219 5341 
L 2000 5028 
Q 1450 4053 1013 3372 
z
M 75 372 
Q 1100 478 2288 672 
Q 2275 350 2272 116 
Q 2722 741 3000 1309 
L 3706 1003 
Q 3294 197 2738 -597 
Q 2469 -409 2078 -191 
L 238 -503 
L 75 372 
z
M 5000 978 
L 5619 1278 
Q 5994 584 6369 -197 
L 5713 -534 
Q 5356 316 5000 978 
z
" transform="scale(0.015625)"/>
     <path id="MicrosoftYaHei-Bold-9636" d="M 4638 2678 
L 5488 2678 
L 5488 -753 
L 4638 -753 
L 4638 2678 
z
M 6338 3297 
Q 6138 2947 5925 2434 
Q 4825 3197 4256 4297 
Q 3631 3259 2663 2384 
Q 2425 2784 2163 3147 
Q 3269 4053 3856 5253 
L 4756 5253 
L 4675 5047 
Q 5288 3966 6338 3297 
z
M 3006 2672 
L 3863 2672 
Q 3863 1284 3781 872 
Q 3625 -128 2763 -872 
Q 2531 -609 2113 -241 
Q 2775 328 2925 1041 
Q 3006 1322 3006 2672 
z
M 1988 2791 
Q 2525 2003 2525 1209 
Q 2525 747 2288 509 
Q 2019 241 1319 222 
Q 1288 609 1163 1066 
Q 1344 1034 1450 1034 
Q 1719 1034 1719 1297 
Q 1719 1941 1194 2672 
L 1725 4328 
L 1119 4328 
L 1119 -872 
L 331 -872 
L 331 5053 
L 2581 5053 
L 2581 4341 
L 1988 2791 
z
" transform="scale(0.015625)"/>
     <path id="MicrosoftYaHei-Bold-6bb5" d="M 113 22 
L 94 859 
L 525 897 
L 525 4947 
Q 1238 4978 2713 5228 
L 2988 4447 
Q 2094 4303 1356 4241 
L 1356 3716 
L 2625 3716 
L 2625 2953 
L 1356 2953 
L 1356 2397 
L 2625 2397 
L 2625 1634 
L 1356 1634 
L 1356 981 
L 2775 1141 
Q 2750 766 2750 347 
L 1356 178 
L 1356 -822 
L 525 -822 
L 525 75 
L 113 22 
z
M 5900 3816 
L 6319 3816 
Q 6231 3422 6169 3047 
L 5519 3047 
Q 4844 3047 4844 3734 
L 4844 4303 
L 3956 4303 
Q 3956 3672 3806 3372 
Q 3656 3072 3319 2791 
Q 3038 3047 2688 3322 
Q 3181 3628 3181 4278 
L 3181 5078 
L 5638 5078 
L 5638 4109 
Q 5638 3816 5900 3816 
z
M 6038 2728 
L 6038 1978 
Q 5703 1163 5119 541 
Q 5684 209 6356 16 
Q 6138 -378 5906 -816 
Q 5088 -503 4438 -53 
Q 3775 -538 2894 -853 
Q 2731 -578 2350 -66 
Q 3138 163 3731 525 
Q 3284 959 2950 1484 
L 3581 1941 
Q 3953 1431 4413 1041 
Q 4834 1447 5100 1959 
L 2788 1959 
L 2788 2728 
L 6038 2728 
z
" transform="scale(0.015625)"/>
     <path id="MicrosoftYaHei-Bold-5956" d="M 2475 3678 
Q 3206 4403 3625 5366 
L 4438 5209 
Q 4294 4925 4141 4666 
L 6156 4666 
L 6156 4053 
Q 5606 2531 3719 1856 
Q 3688 1706 3647 1566 
L 6225 1566 
L 6225 828 
L 3922 828 
Q 4569 141 6300 34 
Q 6150 -234 5875 -866 
Q 3972 -681 3147 538 
Q 2319 -541 400 -859 
Q 269 -434 100 -16 
Q 1706 197 2306 828 
L 200 828 
L 200 1566 
L 2756 1566 
Q 2856 1853 2888 2191 
L 3328 2191 
Q 3228 2331 3100 2491 
Q 3638 2666 4056 2881 
Q 3747 3163 3444 3397 
L 3944 3884 
Q 4234 3663 4684 3275 
Q 5106 3606 5319 4003 
L 3716 4003 
Q 3388 3534 3019 3153 
Q 2794 3391 2475 3678 
z
M 381 2166 
L 125 2972 
Q 950 3263 1600 3534 
L 1600 4184 
L 1075 3678 
Q 556 4222 213 4553 
L 706 5016 
Q 984 4775 1600 4206 
L 1600 5328 
L 2406 5328 
L 2406 1766 
L 1600 1766 
L 1600 2691 
Q 956 2431 381 2166 
z
" transform="scale(0.015625)"/>
     <path id="MicrosoftYaHei-Bold-52b1" d="M 4438 -753 
Q 4394 -381 4328 -47 
Q 4109 -556 3794 -909 
Q 3709 -813 3231 -403 
Q 3113 -634 2897 -721 
Q 2681 -809 2069 -809 
Q 2025 -506 1959 -175 
Q 1806 -600 1600 -934 
Q 1369 -484 1106 -66 
Q 1300 266 1423 697 
Q 1547 1128 1592 1590 
Q 1638 2053 1647 3153 
L 1263 3153 
L 1263 2878 
Q 1263 556 613 -878 
Q 381 -441 75 22 
Q 469 1078 475 2991 
L 475 5103 
L 3688 5103 
L 3688 4328 
L 1263 4328 
L 1263 3903 
L 3463 3903 
L 3463 3153 
L 2391 3153 
Q 2388 2753 2375 2509 
L 3444 2509 
Q 3406 603 3344 -50 
Q 4075 953 4081 3328 
L 3675 3328 
L 3675 4153 
L 4094 4153 
Q 4100 4666 4100 5309 
L 4844 5309 
L 4834 4153 
L 6038 4153 
L 6003 1713 
L 5969 263 
Q 5956 -166 5792 -394 
Q 5628 -622 5383 -683 
Q 5138 -744 4438 -753 
z
M 4397 128 
Q 4581 116 4872 116 
Q 5013 116 5092 197 
Q 5172 278 5195 422 
Q 5219 566 5244 1344 
Q 5269 2122 5269 3328 
L 4825 3328 
Q 4819 1216 4397 128 
z
M 2031 34 
Q 2131 31 2313 22 
Q 2563 16 2606 202 
Q 2650 388 2688 1784 
L 2338 1784 
Q 2263 781 2031 34 
z
" transform="scale(0.015625)"/>
     <path id="MicrosoftYaHei-Bold-5206" d="M 6350 3028 
Q 6088 2703 5750 2228 
Q 5519 2409 5303 2603 
Q 5219 606 5172 190 
Q 5125 -225 4862 -451 
Q 4600 -678 4128 -678 
Q 3484 -678 2913 -659 
Q 2856 -141 2781 284 
Q 3594 216 3956 216 
Q 4172 216 4230 408 
Q 4288 600 4325 1978 
L 2781 1978 
Q 2728 1100 2529 631 
Q 2331 163 1907 -215 
Q 1484 -594 844 -872 
Q 456 -353 194 -78 
Q 750 144 1111 414 
Q 1472 684 1630 989 
Q 1788 1294 1841 1978 
L 950 1978 
L 950 2475 
Q 794 2356 631 2247 
Q 344 2653 63 2953 
Q 1475 3947 2194 5316 
L 3031 4953 
Q 2378 3722 1391 2841 
L 5047 2841 
Q 4088 3766 3463 4903 
L 4238 5303 
Q 5038 3922 6350 3028 
z
" transform="scale(0.015625)"/>
     <path id="MicrosoftYaHei-Bold-5e03" d="M 3919 -834 
L 3050 -834 
L 3050 2034 
L 2063 2034 
L 2063 -359 
L 1200 -359 
L 1200 1641 
Q 825 1238 400 866 
Q 244 1403 113 1741 
Q 1128 2669 1731 3709 
L 200 3709 
L 200 4541 
L 2141 4541 
Q 2294 4916 2400 5303 
L 3275 5203 
Q 3169 4866 3038 4541 
L 6250 4541 
L 6250 3709 
L 2659 3709 
Q 2406 3222 2094 2766 
L 3050 2766 
L 3050 3566 
L 3919 3566 
L 3919 2766 
L 5800 2766 
L 5800 741 
Q 5800 338 5628 112 
Q 5456 -113 5178 -164 
Q 4900 -216 4306 -216 
Q 4225 291 4156 609 
Q 4456 584 4544 584 
Q 4950 584 4950 1034 
L 4950 2034 
L 3919 2034 
L 3919 -834 
z
" transform="scale(0.015625)"/>
     <path id="MicrosoftYaHei-Bold-3a" d="M 313 2969 
Q 313 3200 491 3350 
Q 669 3500 916 3500 
Q 1166 3500 1337 3350 
Q 1509 3200 1509 2969 
Q 1509 2728 1337 2579 
Q 1166 2431 903 2431 
Q 653 2431 483 2584 
Q 313 2738 313 2969 
z
M 313 453 
Q 313 688 491 838 
Q 669 988 916 988 
Q 1166 988 1337 834 
Q 1509 681 1509 453 
Q 1509 213 1337 64 
Q 1166 -84 903 -84 
Q 659 -84 486 69 
Q 313 222 313 453 
z
" transform="scale(0.015625)"/>
     <path id="MicrosoftYaHei-Bold-20" transform="scale(0.015625)"/>
     <path id="MicrosoftYaHei-Bold-64" d="M 3794 0 
L 2788 0 
L 2788 488 
L 2772 488 
Q 2406 -84 1691 -84 
Q 1031 -84 642 381 
Q 253 847 253 1650 
Q 253 2500 689 3020 
Q 1125 3541 1828 3541 
Q 2503 3541 2772 3053 
L 2788 3053 
L 2788 5116 
L 3794 5116 
L 3794 0 
z
M 2803 1956 
Q 2803 2306 2592 2536 
Q 2381 2766 2066 2766 
Q 1697 2766 1486 2473 
Q 1275 2181 1275 1681 
Q 1275 1206 1478 948 
Q 1681 691 2038 691 
Q 2372 691 2587 962 
Q 2803 1234 2803 1669 
L 2803 1956 
z
" transform="scale(0.015625)"/>
     <path id="MicrosoftYaHei-Bold-65" d="M 3528 1444 
L 1253 1444 
Q 1306 641 2222 641 
Q 2794 641 3231 922 
L 3231 181 
Q 2759 -84 1994 -84 
Q 1169 -84 711 381 
Q 253 847 253 1678 
Q 253 2506 740 3023 
Q 1228 3541 1966 3541 
Q 2700 3541 3114 3095 
Q 3528 2650 3528 1872 
L 3528 1444 
z
M 2588 2075 
Q 2588 2850 1959 2850 
Q 1700 2850 1500 2637 
Q 1300 2425 1250 2075 
L 2588 2075 
z
" transform="scale(0.015625)"/>
     <path id="MicrosoftYaHei-Bold-66" d="M 2653 4338 
Q 2447 4419 2263 4419 
Q 1744 4419 1744 3844 
L 1744 3456 
L 2531 3456 
L 2531 2703 
L 1744 2703 
L 1744 0 
L 734 0 
L 734 2703 
L 156 2703 
L 156 3456 
L 734 3456 
L 734 3900 
Q 734 4491 1118 4844 
Q 1503 5197 2128 5197 
Q 2447 5197 2653 5131 
L 2653 4338 
z
" transform="scale(0.015625)"/>
     <path id="MicrosoftYaHei-Bold-61" d="M 544 3247 
Q 778 3378 1170 3459 
Q 1563 3541 1841 3541 
Q 3291 3541 3291 2088 
L 3291 0 
L 2331 0 
L 2331 503 
L 2319 503 
Q 1966 -84 1284 -84 
Q 794 -84 498 195 
Q 203 475 203 956 
Q 203 1950 1388 2113 
L 2338 2241 
Q 2338 2844 1709 2844 
Q 1091 2844 544 2469 
L 544 3247 
z
M 1684 1566 
Q 1138 1494 1138 1072 
Q 1138 878 1270 759 
Q 1403 641 1628 641 
Q 1938 641 2138 859 
Q 2338 1078 2338 1403 
L 2338 1650 
L 1684 1566 
z
" transform="scale(0.015625)"/>
     <path id="MicrosoftYaHei-Bold-75" d="M 3691 0 
L 2688 0 
L 2688 528 
L 2672 528 
Q 2284 -84 1613 -84 
Q 406 -84 406 1372 
L 406 3456 
L 1416 3456 
L 1416 1466 
Q 1416 691 2022 691 
Q 2325 691 2506 903 
Q 2688 1116 2688 1478 
L 2688 3456 
L 3691 3456 
L 3691 0 
z
" transform="scale(0.015625)"/>
     <path id="MicrosoftYaHei-Bold-6c" d="M 444 0 
L 444 5116 
L 1450 5116 
L 1450 0 
L 444 0 
z
" transform="scale(0.015625)"/>
     <path id="MicrosoftYaHei-Bold-74" d="M 2494 41 
Q 2266 -84 1803 -84 
Q 703 -84 703 1072 
L 703 2703 
L 134 2703 
L 134 3456 
L 703 3456 
L 703 4216 
L 1706 4503 
L 1706 3456 
L 2494 3456 
L 2494 2703 
L 1706 2703 
L 1706 1247 
Q 1706 694 2144 694 
Q 2313 694 2494 794 
L 2494 41 
z
" transform="scale(0.015625)"/>
     <path id="MicrosoftYaHei-Bold-5f" d="M 2869 -1675 
L 0 -1675 
L 0 -1272 
L 2869 -1272 
L 2869 -1675 
z
" transform="scale(0.015625)"/>
     <path id="MicrosoftYaHei-Bold-70" d="M 1469 416 
L 1469 -1591 
L 459 -1591 
L 459 3456 
L 1469 3456 
L 1469 2928 
L 1481 2928 
Q 1878 3541 2603 3541 
Q 3263 3541 3634 3080 
Q 4006 2619 4006 1825 
Q 4006 959 3575 437 
Q 3144 -84 2444 -84 
Q 1809 -84 1481 416 
L 1469 416 
z
M 1453 1528 
Q 1453 1159 1653 925 
Q 1853 691 2172 691 
Q 2550 691 2761 984 
Q 2972 1278 2972 1816 
Q 2972 2766 2231 2766 
Q 1888 2766 1670 2503 
Q 1453 2241 1453 1828 
L 1453 1528 
z
" transform="scale(0.015625)"/>
     <path id="MicrosoftYaHei-Bold-72" d="M 2663 2541 
Q 2478 2647 2216 2647 
Q 1872 2647 1670 2384 
Q 1469 2122 1469 1663 
L 1469 0 
L 459 0 
L 459 3456 
L 1469 3456 
L 1469 2806 
L 1481 2806 
Q 1731 3516 2391 3516 
Q 2569 3516 2663 3475 
L 2663 2541 
z
" transform="scale(0.015625)"/>
     <path id="MicrosoftYaHei-Bold-6d" d="M 5881 0 
L 4875 0 
L 4875 1972 
Q 4875 2766 4297 2766 
Q 4028 2766 3850 2525 
Q 3672 2284 3672 1938 
L 3672 0 
L 2666 0 
L 2666 1997 
Q 2666 2766 2094 2766 
Q 1809 2766 1639 2536 
Q 1469 2306 1469 1928 
L 1469 0 
L 459 0 
L 459 3456 
L 1469 3456 
L 1469 2916 
L 1481 2916 
Q 1663 3213 1963 3377 
Q 2263 3541 2594 3541 
Q 3322 3541 3591 2888 
Q 3991 3541 4753 3541 
Q 5881 3541 5881 2147 
L 5881 0 
z
" transform="scale(0.015625)"/>
     <path id="MicrosoftYaHei-Bold-73" d="M 369 928 
Q 888 613 1384 613 
Q 2009 613 2009 947 
Q 2009 1184 1494 1344 
Q 850 1544 609 1789 
Q 369 2034 369 2453 
Q 369 2963 781 3252 
Q 1194 3541 1863 3541 
Q 2338 3541 2778 3400 
L 2778 2606 
Q 2375 2844 1891 2844 
Q 1650 2844 1503 2758 
Q 1356 2672 1356 2531 
Q 1356 2294 1794 2147 
Q 2263 1991 2498 1862 
Q 2734 1734 2857 1525 
Q 2981 1316 2981 1041 
Q 2981 506 2553 211 
Q 2125 -84 1409 -84 
Q 847 -84 369 94 
L 369 928 
z
" transform="scale(0.015625)"/>
     <path id="MicrosoftYaHei-Bold-2d" d="M 2328 1497 
L 481 1497 
L 481 2209 
L 2328 2209 
L 2328 1497 
z
" transform="scale(0.015625)"/>
     <path id="MicrosoftYaHei-Bold-50" d="M 1591 1688 
L 1591 0 
L 559 0 
L 559 4841 
L 2225 4841 
Q 4031 4841 4031 3309 
Q 4031 2566 3486 2117 
Q 2941 1669 2122 1688 
L 1591 1688 
z
M 1591 4041 
L 1591 2478 
L 2038 2478 
Q 2947 2478 2947 3269 
Q 2947 4041 2047 4041 
L 1591 4041 
z
" transform="scale(0.015625)"/>
     <path id="MicrosoftYaHei-Bold-4f" d="M 256 2356 
Q 256 3494 920 4208 
Q 1584 4922 2675 4922 
Q 3713 4922 4345 4231 
Q 4978 3541 4978 2456 
Q 4978 1325 4320 620 
Q 3663 -84 2597 -84 
Q 1556 -84 906 598 
Q 256 1281 256 2356 
z
M 1341 2413 
Q 1341 1706 1681 1257 
Q 2022 809 2616 809 
Q 3222 809 3559 1239 
Q 3897 1669 3897 2394 
Q 3897 3150 3569 3589 
Q 3241 4028 2644 4028 
Q 2038 4028 1689 3578 
Q 1341 3128 1341 2413 
z
" transform="scale(0.015625)"/>
     <path id="MicrosoftYaHei-Bold-521d" d="M 1288 5359 
Q 1619 4997 2031 4453 
L 1516 4109 
L 2294 4109 
L 2294 3378 
Q 2019 2847 1700 2369 
L 1700 2256 
Q 1809 2175 1909 2097 
Q 2209 2516 2419 2878 
L 2994 2516 
Q 2716 2138 2381 1734 
Q 2619 1544 2813 1378 
L 2363 834 
Q 2016 1166 1700 1441 
L 1700 -866 
L 913 -866 
L 913 1338 
Q 641 1025 344 741 
Q 231 1228 94 1678 
Q 831 2278 1363 3303 
L 156 3303 
L 156 4109 
L 1231 4109 
Q 981 4472 613 4928 
L 1288 5359 
z
M 3919 -697 
Q 3838 -266 3700 253 
Q 4153 209 4563 209 
Q 5006 209 5040 675 
Q 5075 1141 5113 4159 
L 4097 4159 
Q 4050 2622 3984 1959 
Q 3919 1297 3595 525 
Q 3272 -247 2644 -859 
Q 2369 -578 1925 -216 
Q 2450 234 2734 806 
Q 3019 1378 3105 1972 
Q 3191 2566 3219 4159 
L 2488 4159 
L 2488 4947 
L 6013 4947 
L 5938 1331 
L 5906 491 
Q 5906 -44 5686 -328 
Q 5466 -613 5067 -647 
Q 4669 -681 3919 -697 
z
" transform="scale(0.015625)"/>
     <path id="MicrosoftYaHei-Bold-59cb" d="M 2863 -853 
L 2863 356 
L 2256 -291 
Q 2000 -25 1744 225 
Q 1309 -381 638 -847 
Q 350 -466 69 -153 
Q 706 259 1119 816 
Q 669 1228 225 1597 
Q 441 2363 616 3359 
L 119 3359 
L 119 4134 
L 741 4134 
Q 825 4706 900 5347 
L 1731 5259 
L 1550 4134 
L 2669 4134 
Q 2663 3728 2638 3363 
Q 3213 3972 3875 5359 
L 4800 5097 
Q 4225 4159 3594 3378 
Q 4328 3422 5075 3484 
Q 4847 3944 4619 4359 
L 5294 4634 
Q 5831 3747 6369 2659 
L 5613 2341 
L 5391 2828 
Q 3522 2697 2863 2578 
L 2625 3169 
Q 2519 1791 2156 953 
L 2863 394 
L 2863 2116 
L 5981 2116 
L 5981 -828 
L 5144 -828 
L 5144 -472 
L 3700 -472 
L 3700 -853 
L 2863 -853 
z
M 1088 1797 
L 1503 1469 
Q 1809 2241 1863 3359 
L 1413 3359 
Q 1259 2541 1088 1797 
z
M 5144 1328 
L 3700 1328 
L 3700 316 
L 5144 316 
L 5144 1328 
z
" transform="scale(0.015625)"/>
     <path id="MicrosoftYaHei-Bold-28" d="M 1606 -1100 
Q 525 97 525 1853 
Q 525 3550 1606 4841 
L 2431 4841 
Q 1406 3497 1406 1853 
Q 1406 216 2438 -1100 
L 1606 -1100 
z
" transform="scale(0.015625)"/>
     <path id="MicrosoftYaHei-Bold-6cca" d="M 3475 5372 
L 4494 5241 
L 4256 4616 
L 6025 4616 
L 6025 -784 
L 5150 -784 
L 5150 -403 
L 2950 -403 
L 2950 -784 
L 2075 -784 
L 2075 4616 
L 3309 4616 
Q 3400 4978 3475 5372 
z
M 5150 3853 
L 2950 3853 
L 2950 2516 
L 5150 2516 
L 5150 3853 
z
M 2950 359 
L 5150 359 
L 5150 1753 
L 2950 1753 
L 2950 359 
z
M 844 5309 
Q 1488 4847 1969 4453 
L 1400 3797 
Q 894 4259 319 4734 
L 844 5309 
z
M 619 3653 
Q 1294 3184 1769 2834 
L 1206 2159 
Q 731 2566 131 3016 
L 619 3653 
z
M 1056 1853 
Q 1488 1628 1850 1478 
L 1019 -866 
Q 700 -697 219 -478 
Q 600 434 1056 1853 
z
" transform="scale(0.015625)"/>
     <path id="MicrosoftYaHei-Bold-677e" d="M 81 1584 
Q 656 2503 894 3359 
L 138 3359 
L 138 4191 
L 888 4191 
L 888 5309 
L 1706 5309 
L 1706 4191 
L 2463 4191 
L 2463 3359 
L 1706 3359 
L 1706 2753 
Q 2044 2559 2538 2259 
L 2131 1553 
Q 1906 1716 1706 1853 
L 1706 -822 
L 888 -822 
L 888 1453 
Q 669 947 369 478 
Q 219 1084 81 1584 
z
M 5206 1747 
Q 5831 434 6225 -547 
L 5481 -891 
Q 5381 -641 5294 -409 
Q 3344 -516 2744 -616 
L 2381 184 
Q 3031 722 3788 2991 
L 4675 2678 
Q 4163 1441 3525 247 
Q 4163 284 4981 334 
Q 4713 972 4475 1428 
L 5206 1747 
z
M 5081 5316 
Q 5556 3891 6375 2928 
Q 6138 2566 5850 2066 
Q 4825 3141 4344 5103 
L 5081 5316 
z
M 3319 5297 
L 4138 5066 
Q 3713 3297 2688 2009 
Q 2544 2416 2213 2878 
Q 2981 3784 3319 5297 
z
" transform="scale(0.015625)"/>
     <path id="MicrosoftYaHei-Bold-4f4e" d="M 1331 5322 
L 2119 5072 
Q 1894 4341 1594 3669 
L 1594 -784 
L 788 -784 
L 788 2178 
Q 547 1806 281 1459 
Q 206 2009 81 2616 
Q 856 3759 1331 5322 
z
M 3000 741 
Q 3263 853 3975 1284 
Q 4013 903 4075 466 
Q 3969 409 3763 291 
Q 4022 -66 4281 -441 
L 3563 -859 
Q 3328 -416 3103 -88 
Q 2606 -366 2363 -572 
L 1919 147 
Q 2194 391 2194 884 
L 2194 4784 
Q 3606 4872 5850 5141 
Q 5950 4766 6044 4366 
Q 5503 4297 4759 4225 
Q 4759 3728 4800 3028 
L 6225 3028 
L 6225 2253 
L 4847 2253 
Q 4938 1047 5098 634 
Q 5259 222 5403 222 
Q 5469 222 5523 361 
Q 5578 500 5656 1366 
Q 5969 1184 6300 1041 
Q 6191 -94 6023 -412 
Q 5856 -731 5447 -731 
Q 4206 -731 4041 2253 
L 3000 2253 
L 3000 741 
z
M 3000 4072 
L 3000 3028 
L 4000 3028 
L 3956 4150 
L 3000 4072 
z
" transform="scale(0.015625)"/>
     <path id="MicrosoftYaHei-Bold-5747" d="M 250 -397 
L 88 547 
Q 425 628 794 725 
L 794 2847 
L 213 2847 
L 213 3703 
L 794 3703 
L 794 5322 
L 1638 5322 
L 1638 3703 
L 2156 3703 
L 2156 3269 
Q 2794 4313 3075 5366 
L 3925 5266 
Q 3809 4866 3669 4491 
L 6069 4491 
L 6016 1816 
L 5966 303 
Q 5944 -194 5730 -450 
Q 5516 -706 5167 -745 
Q 4819 -784 3775 -797 
Q 3700 -397 3556 153 
Q 4178 103 4625 103 
Q 4819 103 4955 208 
Q 5091 313 5105 575 
Q 5119 838 5141 1619 
L 5181 3703 
L 3341 3703 
Q 3059 3088 2706 2541 
Q 2463 2763 2156 3003 
L 2156 2847 
L 1638 2847 
L 1638 959 
L 2288 1153 
Q 2275 878 2269 253 
Q 963 -134 250 -397 
z
M 3556 3353 
Q 4106 2922 4588 2466 
L 4006 1891 
Q 3500 2403 3019 2822 
L 3556 3353 
z
M 2719 209 
L 2500 1128 
Q 3650 1534 4938 2059 
Q 4956 1566 5000 1153 
Q 3894 728 2719 209 
z
" transform="scale(0.015625)"/>
     <path id="MicrosoftYaHei-Bold-503c" d="M 1638 3 
L 2100 3 
L 2100 3728 
L 3556 3728 
L 3556 4097 
L 1950 4097 
L 1950 4797 
L 3556 4797 
L 3556 5266 
L 4381 5266 
L 4381 4797 
L 6175 4797 
L 6175 4097 
L 4381 4097 
L 4381 3728 
L 5888 3728 
L 5888 3 
L 6325 3 
L 6325 -697 
L 1638 -697 
L 1638 3 
z
M 1125 5347 
L 1950 5128 
Q 1713 4378 1419 3666 
L 1419 -853 
L 625 -853 
L 625 2022 
Q 456 1716 275 1422 
Q 200 1916 69 2591 
Q 675 3803 1125 5347 
z
M 2888 1853 
L 5100 1853 
L 5100 2178 
L 2888 2178 
L 2888 1853 
z
M 2888 928 
L 5100 928 
L 5100 1253 
L 2888 1253 
L 2888 928 
z
M 5100 3103 
L 2888 3103 
L 2888 2778 
L 5100 2778 
L 5100 3103 
z
M 2888 3 
L 5100 3 
L 5100 328 
L 2888 328 
L 2888 3 
z
" transform="scale(0.015625)"/>
     <path id="MicrosoftYaHei-Bold-2c" d="M 1419 841 
L 916 -859 
L 134 -859 
L 484 841 
L 1419 841 
z
" transform="scale(0.015625)"/>
     <path id="MicrosoftYaHei-Bold-3bb" d="M 3675 0 
L 2616 0 
L 1916 2434 
L 1097 0 
L 9 0 
L 1519 3428 
L 1381 3822 
Q 1228 4259 866 4259 
Q 631 4259 400 4144 
L 400 5016 
Q 656 5100 1041 5100 
Q 1541 5100 1844 4828 
Q 2147 4556 2372 3888 
L 3675 0 
z
" transform="scale(0.015625)"/>
     <path id="MicrosoftYaHei-Bold-35" d="M 541 125 
L 541 997 
Q 1044 691 1613 691 
Q 2041 691 2283 902 
Q 2525 1113 2525 1472 
Q 2525 2225 1494 2225 
Q 1113 2225 616 2169 
L 797 4841 
L 3359 4841 
L 3359 4009 
L 1613 4009 
L 1544 2991 
Q 1803 3013 2022 3013 
Q 2731 3013 3142 2625 
Q 3553 2238 3553 1575 
Q 3553 844 3056 380 
Q 2559 -84 1706 -84 
Q 1016 -84 541 125 
z
" transform="scale(0.015625)"/>
     <path id="MicrosoftYaHei-Bold-29" d="M 59 -1100 
Q 1097 216 1097 1853 
Q 1097 3484 59 4841 
L 888 4841 
Q 1978 3544 1978 1853 
Q 1978 113 881 -1100 
L 59 -1100 
z
" transform="scale(0.015625)"/>
    </defs>
    <use xlink:href="#MicrosoftYaHei-Bold-8bad"/>
    <use xlink:href="#MicrosoftYaHei-Bold-7ec3" transform="translate(100 0)"/>
    <use xlink:href="#MicrosoftYaHei-Bold-9636" transform="translate(200 0)"/>
    <use xlink:href="#MicrosoftYaHei-Bold-6bb5" transform="translate(300 0)"/>
    <use xlink:href="#MicrosoftYaHei-Bold-5956" transform="translate(400 0)"/>
    <use xlink:href="#MicrosoftYaHei-Bold-52b1" transform="translate(500 0)"/>
    <use xlink:href="#MicrosoftYaHei-Bold-5206" transform="translate(600 0)"/>
    <use xlink:href="#MicrosoftYaHei-Bold-5e03" transform="translate(700 0)"/>
    <use xlink:href="#MicrosoftYaHei-Bold-3a" transform="translate(800 0)"/>
    <use xlink:href="#MicrosoftYaHei-Bold-20" transform="translate(828.564453 0)"/>
    <use xlink:href="#MicrosoftYaHei-Bold-64" transform="translate(858.349609 0)"/>
    <use xlink:href="#MicrosoftYaHei-Bold-65" transform="translate(924.804688 0)"/>
    <use xlink:href="#MicrosoftYaHei-Bold-66" transform="translate(983.007812 0)"/>
    <use xlink:href="#MicrosoftYaHei-Bold-61" transform="translate(1023.535156 0)"/>
    <use xlink:href="#MicrosoftYaHei-Bold-75" transform="translate(1081.298828 0)"/>
    <use xlink:href="#MicrosoftYaHei-Bold-6c" transform="translate(1146.09375 0)"/>
    <use xlink:href="#MicrosoftYaHei-Bold-74" transform="translate(1175.683594 0)"/>
    <use xlink:href="#MicrosoftYaHei-Bold-5f" transform="translate(1217.089844 0)"/>
    <use xlink:href="#MicrosoftYaHei-Bold-70" transform="translate(1261.914062 0)"/>
    <use xlink:href="#MicrosoftYaHei-Bold-61" transform="translate(1327.390625 0)"/>
    <use xlink:href="#MicrosoftYaHei-Bold-72" transform="translate(1385.154297 0)"/>
    <use xlink:href="#MicrosoftYaHei-Bold-61" transform="translate(1427.537109 0)"/>
    <use xlink:href="#MicrosoftYaHei-Bold-6d" transform="translate(1485.300781 0)"/>
    <use xlink:href="#MicrosoftYaHei-Bold-73" transform="translate(1583.494141 0)"/>
    <use xlink:href="#MicrosoftYaHei-Bold-20" transform="translate(1632.859375 0)"/>
    <use xlink:href="#MicrosoftYaHei-Bold-2d" transform="translate(1662.644531 0)"/>
    <use xlink:href="#MicrosoftYaHei-Bold-20" transform="translate(1706.296875 0)"/>
    <use xlink:href="#MicrosoftYaHei-Bold-50" transform="translate(1736.082031 0)"/>
    <use xlink:href="#MicrosoftYaHei-Bold-50" transform="translate(1801.804688 0)"/>
    <use xlink:href="#MicrosoftYaHei-Bold-4f" transform="translate(1867.527344 0)"/>
    <use xlink:href="#MicrosoftYaHei-Bold-20" transform="translate(1949.363281 0)"/>
    <use xlink:href="#MicrosoftYaHei-Bold-2d" transform="translate(1979.148438 0)"/>
    <use xlink:href="#MicrosoftYaHei-Bold-20" transform="translate(2022.800781 0)"/>
    <use xlink:href="#MicrosoftYaHei-Bold-521d" transform="translate(2052.585938 0)"/>
    <use xlink:href="#MicrosoftYaHei-Bold-59cb" transform="translate(2152.585938 0)"/>
    <use xlink:href="#MicrosoftYaHei-Bold-8bad" transform="translate(2252.585938 0)"/>
    <use xlink:href="#MicrosoftYaHei-Bold-7ec3" transform="translate(2352.585938 0)"/>
    <use xlink:href="#MicrosoftYaHei-Bold-20" transform="translate(2452.585938 0)"/>
    <use xlink:href="#MicrosoftYaHei-Bold-28" transform="translate(2482.371094 0)"/>
    <use xlink:href="#MicrosoftYaHei-Bold-6cca" transform="translate(2521.335938 0)"/>
    <use xlink:href="#MicrosoftYaHei-Bold-677e" transform="translate(2621.335938 0)"/>
    <use xlink:href="#MicrosoftYaHei-Bold-5206" transform="translate(2721.335938 0)"/>
    <use xlink:href="#MicrosoftYaHei-Bold-5e03" transform="translate(2821.335938 0)"/>
    <use xlink:href="#MicrosoftYaHei-Bold-28" transform="translate(2921.335938 0)"/>
    <use xlink:href="#MicrosoftYaHei-Bold-4f4e" transform="translate(2960.300781 0)"/>
    <use xlink:href="#MicrosoftYaHei-Bold-5747" transform="translate(3060.300781 0)"/>
    <use xlink:href="#MicrosoftYaHei-Bold-503c" transform="translate(3160.300781 0)"/>
    <use xlink:href="#MicrosoftYaHei-Bold-2c" transform="translate(3260.300781 0)"/>
    <use xlink:href="#MicrosoftYaHei-Bold-3bb" transform="translate(3288.865234 0)"/>
    <use xlink:href="#MicrosoftYaHei-Bold-35" transform="translate(3347.507812 0)"/>
    <use xlink:href="#MicrosoftYaHei-Bold-29" transform="translate(3409.177734 0)"/>
    <use xlink:href="#MicrosoftYaHei-Bold-29" transform="translate(3448.142578 0)"/>
   </g>
   <!-- (环境: 泊松分布(低均值,λ5 | 复杂度: 0.01) -->
   <g style="fill: #262626" transform="translate(276.922812 40.9335) scale(0.16 -0.16)">
    <defs>
     <path id="MicrosoftYaHei-Bold-73af" d="M 5163 2916 
Q 5825 1797 6300 878 
L 5544 472 
Q 5081 1400 4550 2413 
L 4550 -834 
L 3706 -834 
L 3706 2013 
Q 3272 1200 2700 484 
Q 2525 641 2378 766 
Q 2347 503 2331 9 
L 175 -328 
L 81 522 
L 863 613 
L 863 2003 
L 213 2003 
L 213 2834 
L 863 2834 
L 863 4066 
L 175 4066 
L 175 4897 
L 2375 4897 
L 2375 4066 
L 1694 4066 
L 1694 2834 
L 2356 2834 
L 2356 2003 
L 1694 2003 
L 1694 728 
L 2306 825 
Q 2134 972 2000 1072 
Q 3194 2478 3675 4084 
L 2606 4084 
L 2606 4916 
L 6075 4916 
L 6075 4084 
L 4556 4084 
Q 4400 3559 4200 3066 
L 4550 3066 
L 4550 2591 
L 5163 2916 
z
" transform="scale(0.015625)"/>
     <path id="MicrosoftYaHei-Bold-5883" d="M 6044 4241 
L 5000 4241 
L 5563 4103 
Q 5450 3944 5322 3778 
L 6231 3778 
L 6231 3153 
L 2113 3153 
L 2113 3778 
L 2863 3778 
L 2638 4109 
L 3228 4241 
L 2256 4241 
L 2256 4866 
L 3591 4866 
Q 3506 5028 3400 5209 
L 4438 5353 
Q 4509 5125 4575 4866 
L 6044 4866 
L 6044 4241 
z
M 3853 3778 
L 4350 3778 
Q 4506 4009 4625 4241 
L 3503 4241 
Q 3681 4041 3853 3778 
z
M 263 -328 
L 100 603 
L 706 775 
L 706 2997 
L 175 2997 
L 175 3853 
L 706 3853 
L 706 5328 
L 1544 5328 
L 1544 3853 
L 1981 3853 
L 1981 2997 
L 1544 2997 
L 1544 1025 
L 2094 1197 
Q 2081 981 2081 759 
Q 2081 538 2094 309 
Q 1213 16 263 -328 
z
M 2244 2878 
L 5894 2878 
L 5894 603 
L 5038 603 
L 5038 141 
Q 5038 -91 5269 -91 
Q 5441 -91 5512 7 
Q 5584 106 5619 584 
Q 5956 428 6319 322 
Q 6284 66 6212 -223 
Q 6141 -513 5908 -652 
Q 5675 -791 5281 -791 
L 5006 -791 
Q 4238 -791 4238 -97 
L 4238 603 
L 3841 603 
Q 3647 -478 2331 -909 
Q 2125 -622 1763 -178 
Q 2781 88 2994 603 
L 2244 603 
L 2244 2878 
z
M 5094 2291 
L 3044 2291 
L 3044 2009 
L 5094 2009 
L 5094 2291 
z
M 5094 1191 
L 5094 1472 
L 3044 1472 
L 3044 1191 
L 5094 1191 
z
" transform="scale(0.015625)"/>
     <path id="MicrosoftYaHei-Bold-7c" d="M 1500 -1622 
L 691 -1622 
L 691 5288 
L 1500 5288 
L 1500 -1622 
z
" transform="scale(0.015625)"/>
     <path id="MicrosoftYaHei-Bold-590d" d="M 5738 1528 
L 5738 1003 
Q 5091 600 4322 259 
Q 5197 78 6306 -16 
Q 6000 -428 5819 -791 
Q 4391 -569 3278 -153 
Q 2125 -559 744 -853 
Q 550 -541 275 -178 
Q 1394 3 2341 256 
Q 1872 500 1478 788 
Q 1069 416 581 116 
Q 363 391 75 691 
Q 925 1194 1459 1816 
L 844 1816 
L 844 3406 
Q 600 3128 325 2872 
Q 238 3266 94 3759 
Q 831 4484 1188 5334 
L 2063 5334 
Q 1978 5144 1888 4959 
L 6181 4959 
L 6181 4334 
L 1538 4334 
Q 1434 4172 1325 4016 
L 5738 4016 
L 5738 1816 
L 2372 1816 
Q 2272 1666 2163 1528 
L 5738 1528 
z
M 4906 3478 
L 1675 3478 
L 1675 3141 
L 4906 3141 
L 4906 3478 
z
M 4906 2353 
L 4906 2691 
L 1675 2691 
L 1675 2353 
L 4906 2353 
z
M 3269 541 
Q 3897 753 4438 1009 
L 2231 1009 
Q 2669 744 3269 541 
z
" transform="scale(0.015625)"/>
     <path id="MicrosoftYaHei-Bold-6742" d="M 5500 4203 
Q 5919 4078 6338 3978 
Q 6269 3328 6188 2984 
Q 6063 2453 5400 2453 
L 4600 2453 
Q 3900 2453 3900 3153 
L 3900 3997 
L 2781 3997 
Q 2588 2603 613 2141 
Q 419 2466 106 2884 
Q 1644 3172 1869 3997 
L 456 3997 
L 456 4753 
L 1981 4753 
Q 2006 5053 2006 5328 
L 2894 5328 
Q 2894 5084 2869 4753 
L 4800 4753 
L 4800 3459 
Q 4800 3203 5056 3203 
L 5206 3203 
Q 5394 3203 5431 3466 
Q 5469 3816 5500 4203 
z
M 188 2072 
L 2800 2072 
L 2800 2666 
L 3706 2666 
L 3706 2072 
L 6175 2072 
L 6175 1309 
L 3706 1309 
L 3706 159 
Q 3706 -684 2900 -766 
Q 2613 -797 2000 -803 
Q 1906 -334 1794 72 
Q 2200 41 2456 41 
Q 2800 41 2800 403 
L 2800 1309 
L 188 1309 
L 188 2072 
z
M 4000 597 
L 4519 1172 
Q 5425 628 6263 34 
L 5725 -634 
Q 4956 -34 4000 597 
z
M 1675 1166 
L 2263 559 
Q 1406 -84 538 -634 
Q 288 -247 63 66 
Q 963 566 1675 1166 
z
" transform="scale(0.015625)"/>
     <path id="MicrosoftYaHei-Bold-5ea6" d="M 5656 1697 
L 5656 1022 
Q 5156 447 4656 97 
Q 5344 -34 6306 -66 
Q 6119 -428 5938 -822 
Q 4556 -653 3719 -353 
Q 2825 -653 1494 -872 
Q 1338 -522 1088 -178 
Q 2100 -128 2888 78 
Q 2369 453 1938 1022 
L 1538 1022 
L 1538 1697 
L 5656 1697 
z
M 1325 2478 
Q 1338 134 700 -884 
Q 356 -553 19 -297 
Q 550 697 525 2591 
L 525 4772 
L 3013 4772 
Q 2944 4953 2831 5209 
L 3869 5359 
Q 3981 5072 4094 4772 
L 6256 4772 
L 6256 4072 
L 1325 4072 
L 1325 2478 
z
M 1463 3684 
L 2144 3684 
L 2144 3947 
L 2944 3947 
L 2944 3684 
L 4494 3684 
L 4494 3947 
L 5294 3947 
L 5294 3684 
L 6144 3684 
L 6144 3009 
L 5294 3009 
L 5294 1991 
L 2144 1991 
L 2144 3009 
L 1463 3009 
L 1463 3684 
z
M 3756 378 
Q 4325 641 4725 1022 
L 2825 1022 
Q 3225 622 3756 378 
z
M 4494 2628 
L 4494 3009 
L 2944 3009 
L 2944 2628 
L 4494 2628 
z
" transform="scale(0.015625)"/>
     <path id="MicrosoftYaHei-Bold-30" d="M 244 2341 
Q 244 3597 706 4259 
Q 1169 4922 2044 4922 
Q 3713 4922 3713 2453 
Q 3713 1238 3259 577 
Q 2806 -84 1950 -84 
Q 244 -84 244 2341 
z
M 1266 2366 
Q 1266 691 1981 691 
Q 2684 691 2684 2416 
Q 2684 4147 2000 4147 
Q 1266 4147 1266 2366 
z
" transform="scale(0.015625)"/>
     <path id="MicrosoftYaHei-Bold-2e" d="M 313 453 
Q 313 688 491 838 
Q 669 988 916 988 
Q 1166 988 1337 834 
Q 1509 681 1509 453 
Q 1509 213 1337 64 
Q 1166 -84 903 -84 
Q 659 -84 486 69 
Q 313 222 313 453 
z
" transform="scale(0.015625)"/>
     <path id="MicrosoftYaHei-Bold-31" d="M 2716 4947 
L 2716 0 
L 1700 0 
L 1700 3809 
Q 1513 3647 1188 3517 
Q 863 3388 591 3356 
L 591 4222 
Q 1447 4472 2072 4947 
L 2716 4947 
z
" transform="scale(0.015625)"/>
    </defs>
    <use xlink:href="#MicrosoftYaHei-Bold-28"/>
    <use xlink:href="#MicrosoftYaHei-Bold-73af" transform="translate(38.964844 0)"/>
    <use xlink:href="#MicrosoftYaHei-Bold-5883" transform="translate(138.964844 0)"/>
    <use xlink:href="#MicrosoftYaHei-Bold-3a" transform="translate(238.964844 0)"/>
    <use xlink:href="#MicrosoftYaHei-Bold-20" transform="translate(267.529297 0)"/>
    <use xlink:href="#MicrosoftYaHei-Bold-6cca" transform="translate(297.314453 0)"/>
    <use xlink:href="#MicrosoftYaHei-Bold-677e" transform="translate(397.314453 0)"/>
    <use xlink:href="#MicrosoftYaHei-Bold-5206" transform="translate(497.314453 0)"/>
    <use xlink:href="#MicrosoftYaHei-Bold-5e03" transform="translate(597.314453 0)"/>
    <use xlink:href="#MicrosoftYaHei-Bold-28" transform="translate(697.314453 0)"/>
    <use xlink:href="#MicrosoftYaHei-Bold-4f4e" transform="translate(736.279297 0)"/>
    <use xlink:href="#MicrosoftYaHei-Bold-5747" transform="translate(836.279297 0)"/>
    <use xlink:href="#MicrosoftYaHei-Bold-503c" transform="translate(936.279297 0)"/>
    <use xlink:href="#MicrosoftYaHei-Bold-2c" transform="translate(1036.279297 0)"/>
    <use xlink:href="#MicrosoftYaHei-Bold-3bb" transform="translate(1064.84375 0)"/>
    <use xlink:href="#MicrosoftYaHei-Bold-35" transform="translate(1123.486328 0)"/>
    <use xlink:href="#MicrosoftYaHei-Bold-20" transform="translate(1185.15625 0)"/>
    <use xlink:href="#MicrosoftYaHei-Bold-7c" transform="translate(1214.941406 0)"/>
    <use xlink:href="#MicrosoftYaHei-Bold-20" transform="translate(1249.072266 0)"/>
    <use xlink:href="#MicrosoftYaHei-Bold-590d" transform="translate(1278.857422 0)"/>
    <use xlink:href="#MicrosoftYaHei-Bold-6742" transform="translate(1378.857422 0)"/>
    <use xlink:href="#MicrosoftYaHei-Bold-5ea6" transform="translate(1478.857422 0)"/>
    <use xlink:href="#MicrosoftYaHei-Bold-3a" transform="translate(1578.857422 0)"/>
    <use xlink:href="#MicrosoftYaHei-Bold-20" transform="translate(1607.421875 0)"/>
    <use xlink:href="#MicrosoftYaHei-Bold-30" transform="translate(1637.207031 0)"/>
    <use xlink:href="#MicrosoftYaHei-Bold-2e" transform="translate(1698.876953 0)"/>
    <use xlink:href="#MicrosoftYaHei-Bold-30" transform="translate(1727.441406 0)"/>
    <use xlink:href="#MicrosoftYaHei-Bold-31" transform="translate(1789.111328 0)"/>
    <use xlink:href="#MicrosoftYaHei-Bold-29" transform="translate(1850.78125 0)"/>
   </g>
  </g>
 </g>
 <defs>
  <clipPath id="p74a257226e">
   <rect x="39.801563" y="82.655625" width="809.5" height="376.8175"/>
  </clipPath>
 </defs>
</svg>
