<?xml version="1.0" encoding="utf-8" standalone="no"?>
<!DOCTYPE svg PUBLIC "-//W3C//DTD SVG 1.1//EN"
  "http://www.w3.org/Graphics/SVG/1.1/DTD/svg11.dtd">
<svg xmlns:xlink="http://www.w3.org/1999/xlink" width="856.501562pt" height="497.537187pt" viewBox="0 0 856.501562 497.537187" xmlns="http://www.w3.org/2000/svg" version="1.1">
 <metadata>
  <rdf:RDF xmlns:dc="http://purl.org/dc/elements/1.1/" xmlns:cc="http://creativecommons.org/ns#" xmlns:rdf="http://www.w3.org/1999/02/22-rdf-syntax-ns#">
   <cc:Work>
    <dc:type rdf:resource="http://purl.org/dc/dcmitype/StillImage"/>
    <dc:date>2025-07-07T17:25:21.495634</dc:date>
    <dc:format>image/svg+xml</dc:format>
    <dc:creator>
     <cc:Agent>
      <dc:title>Matplotlib v3.10.3, https://matplotlib.org/</dc:title>
     </cc:Agent>
    </dc:creator>
   </cc:Work>
  </rdf:RDF>
 </metadata>
 <defs>
  <style type="text/css">*{stroke-linejoin: round; stroke-linecap: butt}</style>
 </defs>
 <g id="figure_1">
  <g id="patch_1">
   <path d="M 0 497.537187 
L 856.501562 497.537187 
L 856.501562 0 
L 0 0 
z
" style="fill: #ffffff"/>
  </g>
  <g id="axes_1">
   <g id="patch_2">
    <path d="M 39.801563 459.473125 
L 849.301563 459.473125 
L 849.301563 82.790625 
L 39.801563 82.790625 
z
" style="fill: #ffffff"/>
   </g>
   <g id="matplotlib.axis_1">
    <g id="xtick_1">
     <g id="line2d_1">
      <path d="M 140.989062 459.473125 
L 140.989062 82.790625 
" clip-path="url(#pb417b99a54)" style="fill: none; stroke-dasharray: 2.96,1.28; stroke-dashoffset: 0; stroke: #cccccc; stroke-opacity: 0.6; stroke-width: 0.8"/>
     </g>
     <g id="text_1">
      <!-- Stage 1 -->
      <g style="fill: #262626" transform="translate(123.753906 473.752812) scale(0.1 -0.1)">
       <defs>
        <path id="ArialMT-53" d="M 288 1472 
L 859 1522 
Q 900 1178 1048 958 
Q 1197 738 1509 602 
Q 1822 466 2213 466 
Q 2559 466 2825 569 
Q 3091 672 3220 851 
Q 3350 1031 3350 1244 
Q 3350 1459 3225 1620 
Q 3100 1781 2813 1891 
Q 2628 1963 1997 2114 
Q 1366 2266 1113 2400 
Q 784 2572 623 2826 
Q 463 3081 463 3397 
Q 463 3744 659 4045 
Q 856 4347 1234 4503 
Q 1613 4659 2075 4659 
Q 2584 4659 2973 4495 
Q 3363 4331 3572 4012 
Q 3781 3694 3797 3291 
L 3216 3247 
Q 3169 3681 2898 3903 
Q 2628 4125 2100 4125 
Q 1550 4125 1298 3923 
Q 1047 3722 1047 3438 
Q 1047 3191 1225 3031 
Q 1400 2872 2139 2705 
Q 2878 2538 3153 2413 
Q 3553 2228 3743 1945 
Q 3934 1663 3934 1294 
Q 3934 928 3725 604 
Q 3516 281 3123 101 
Q 2731 -78 2241 -78 
Q 1619 -78 1198 103 
Q 778 284 539 648 
Q 300 1013 288 1472 
z
" transform="scale(0.015625)"/>
        <path id="ArialMT-74" d="M 1650 503 
L 1731 6 
Q 1494 -44 1306 -44 
Q 1000 -44 831 53 
Q 663 150 594 308 
Q 525 466 525 972 
L 525 2881 
L 113 2881 
L 113 3319 
L 525 3319 
L 525 4141 
L 1084 4478 
L 1084 3319 
L 1650 3319 
L 1650 2881 
L 1084 2881 
L 1084 941 
Q 1084 700 1114 631 
Q 1144 563 1211 522 
Q 1278 481 1403 481 
Q 1497 481 1650 503 
z
" transform="scale(0.015625)"/>
        <path id="ArialMT-61" d="M 2588 409 
Q 2275 144 1986 34 
Q 1697 -75 1366 -75 
Q 819 -75 525 192 
Q 231 459 231 875 
Q 231 1119 342 1320 
Q 453 1522 633 1644 
Q 813 1766 1038 1828 
Q 1203 1872 1538 1913 
Q 2219 1994 2541 2106 
Q 2544 2222 2544 2253 
Q 2544 2597 2384 2738 
Q 2169 2928 1744 2928 
Q 1347 2928 1158 2789 
Q 969 2650 878 2297 
L 328 2372 
Q 403 2725 575 2942 
Q 747 3159 1072 3276 
Q 1397 3394 1825 3394 
Q 2250 3394 2515 3294 
Q 2781 3194 2906 3042 
Q 3031 2891 3081 2659 
Q 3109 2516 3109 2141 
L 3109 1391 
Q 3109 606 3145 398 
Q 3181 191 3288 0 
L 2700 0 
Q 2613 175 2588 409 
z
M 2541 1666 
Q 2234 1541 1622 1453 
Q 1275 1403 1131 1340 
Q 988 1278 909 1158 
Q 831 1038 831 891 
Q 831 666 1001 516 
Q 1172 366 1500 366 
Q 1825 366 2078 508 
Q 2331 650 2450 897 
Q 2541 1088 2541 1459 
L 2541 1666 
z
" transform="scale(0.015625)"/>
        <path id="ArialMT-67" d="M 319 -275 
L 866 -356 
Q 900 -609 1056 -725 
Q 1266 -881 1628 -881 
Q 2019 -881 2231 -725 
Q 2444 -569 2519 -288 
Q 2563 -116 2559 434 
Q 2191 0 1641 0 
Q 956 0 581 494 
Q 206 988 206 1678 
Q 206 2153 378 2554 
Q 550 2956 876 3175 
Q 1203 3394 1644 3394 
Q 2231 3394 2613 2919 
L 2613 3319 
L 3131 3319 
L 3131 450 
Q 3131 -325 2973 -648 
Q 2816 -972 2473 -1159 
Q 2131 -1347 1631 -1347 
Q 1038 -1347 672 -1080 
Q 306 -813 319 -275 
z
M 784 1719 
Q 784 1066 1043 766 
Q 1303 466 1694 466 
Q 2081 466 2343 764 
Q 2606 1063 2606 1700 
Q 2606 2309 2336 2618 
Q 2066 2928 1684 2928 
Q 1309 2928 1046 2623 
Q 784 2319 784 1719 
z
" transform="scale(0.015625)"/>
        <path id="ArialMT-65" d="M 2694 1069 
L 3275 997 
Q 3138 488 2766 206 
Q 2394 -75 1816 -75 
Q 1088 -75 661 373 
Q 234 822 234 1631 
Q 234 2469 665 2931 
Q 1097 3394 1784 3394 
Q 2450 3394 2872 2941 
Q 3294 2488 3294 1666 
Q 3294 1616 3291 1516 
L 816 1516 
Q 847 969 1125 678 
Q 1403 388 1819 388 
Q 2128 388 2347 550 
Q 2566 713 2694 1069 
z
M 847 1978 
L 2700 1978 
Q 2663 2397 2488 2606 
Q 2219 2931 1791 2931 
Q 1403 2931 1139 2672 
Q 875 2413 847 1978 
z
" transform="scale(0.015625)"/>
        <path id="ArialMT-20" transform="scale(0.015625)"/>
        <path id="ArialMT-31" d="M 2384 0 
L 1822 0 
L 1822 3584 
Q 1619 3391 1289 3197 
Q 959 3003 697 2906 
L 697 3450 
Q 1169 3672 1522 3987 
Q 1875 4303 2022 4600 
L 2384 4600 
L 2384 0 
z
" transform="scale(0.015625)"/>
       </defs>
       <use xlink:href="#ArialMT-53"/>
       <use xlink:href="#ArialMT-74" transform="translate(66.699219 0)"/>
       <use xlink:href="#ArialMT-61" transform="translate(94.482422 0)"/>
       <use xlink:href="#ArialMT-67" transform="translate(150.097656 0)"/>
       <use xlink:href="#ArialMT-65" transform="translate(205.712891 0)"/>
       <use xlink:href="#ArialMT-20" transform="translate(261.328125 0)"/>
       <use xlink:href="#ArialMT-31" transform="translate(289.111328 0)"/>
      </g>
     </g>
    </g>
    <g id="xtick_2">
     <g id="line2d_2">
      <path d="M 343.364062 459.473125 
L 343.364062 82.790625 
" clip-path="url(#pb417b99a54)" style="fill: none; stroke-dasharray: 2.96,1.28; stroke-dashoffset: 0; stroke: #cccccc; stroke-opacity: 0.6; stroke-width: 0.8"/>
     </g>
     <g id="text_2">
      <!-- Stage 2 -->
      <g style="fill: #262626" transform="translate(326.128906 473.752812) scale(0.1 -0.1)">
       <defs>
        <path id="ArialMT-32" d="M 3222 541 
L 3222 0 
L 194 0 
Q 188 203 259 391 
Q 375 700 629 1000 
Q 884 1300 1366 1694 
Q 2113 2306 2375 2664 
Q 2638 3022 2638 3341 
Q 2638 3675 2398 3904 
Q 2159 4134 1775 4134 
Q 1369 4134 1125 3890 
Q 881 3647 878 3216 
L 300 3275 
Q 359 3922 746 4261 
Q 1134 4600 1788 4600 
Q 2447 4600 2831 4234 
Q 3216 3869 3216 3328 
Q 3216 3053 3103 2787 
Q 2991 2522 2730 2228 
Q 2469 1934 1863 1422 
Q 1356 997 1212 845 
Q 1069 694 975 541 
L 3222 541 
z
" transform="scale(0.015625)"/>
       </defs>
       <use xlink:href="#ArialMT-53"/>
       <use xlink:href="#ArialMT-74" transform="translate(66.699219 0)"/>
       <use xlink:href="#ArialMT-61" transform="translate(94.482422 0)"/>
       <use xlink:href="#ArialMT-67" transform="translate(150.097656 0)"/>
       <use xlink:href="#ArialMT-65" transform="translate(205.712891 0)"/>
       <use xlink:href="#ArialMT-20" transform="translate(261.328125 0)"/>
       <use xlink:href="#ArialMT-32" transform="translate(289.111328 0)"/>
      </g>
     </g>
    </g>
    <g id="xtick_3">
     <g id="line2d_3">
      <path d="M 545.739063 459.473125 
L 545.739063 82.790625 
" clip-path="url(#pb417b99a54)" style="fill: none; stroke-dasharray: 2.96,1.28; stroke-dashoffset: 0; stroke: #cccccc; stroke-opacity: 0.6; stroke-width: 0.8"/>
     </g>
     <g id="text_3">
      <!-- Stage 3 -->
      <g style="fill: #262626" transform="translate(528.503906 473.752812) scale(0.1 -0.1)">
       <defs>
        <path id="ArialMT-33" d="M 269 1209 
L 831 1284 
Q 928 806 1161 595 
Q 1394 384 1728 384 
Q 2125 384 2398 659 
Q 2672 934 2672 1341 
Q 2672 1728 2419 1979 
Q 2166 2231 1775 2231 
Q 1616 2231 1378 2169 
L 1441 2663 
Q 1497 2656 1531 2656 
Q 1891 2656 2178 2843 
Q 2466 3031 2466 3422 
Q 2466 3731 2256 3934 
Q 2047 4138 1716 4138 
Q 1388 4138 1169 3931 
Q 950 3725 888 3313 
L 325 3413 
Q 428 3978 793 4289 
Q 1159 4600 1703 4600 
Q 2078 4600 2393 4439 
Q 2709 4278 2876 4000 
Q 3044 3722 3044 3409 
Q 3044 3113 2884 2869 
Q 2725 2625 2413 2481 
Q 2819 2388 3044 2092 
Q 3269 1797 3269 1353 
Q 3269 753 2831 336 
Q 2394 -81 1725 -81 
Q 1122 -81 723 278 
Q 325 638 269 1209 
z
" transform="scale(0.015625)"/>
       </defs>
       <use xlink:href="#ArialMT-53"/>
       <use xlink:href="#ArialMT-74" transform="translate(66.699219 0)"/>
       <use xlink:href="#ArialMT-61" transform="translate(94.482422 0)"/>
       <use xlink:href="#ArialMT-67" transform="translate(150.097656 0)"/>
       <use xlink:href="#ArialMT-65" transform="translate(205.712891 0)"/>
       <use xlink:href="#ArialMT-20" transform="translate(261.328125 0)"/>
       <use xlink:href="#ArialMT-33" transform="translate(289.111328 0)"/>
      </g>
     </g>
    </g>
    <g id="xtick_4">
     <g id="line2d_4">
      <path d="M 748.114063 459.473125 
L 748.114063 82.790625 
" clip-path="url(#pb417b99a54)" style="fill: none; stroke-dasharray: 2.96,1.28; stroke-dashoffset: 0; stroke: #cccccc; stroke-opacity: 0.6; stroke-width: 0.8"/>
     </g>
     <g id="text_4">
      <!-- Stage 4 -->
      <g style="fill: #262626" transform="translate(730.878906 473.752812) scale(0.1 -0.1)">
       <defs>
        <path id="ArialMT-34" d="M 2069 0 
L 2069 1097 
L 81 1097 
L 81 1613 
L 2172 4581 
L 2631 4581 
L 2631 1613 
L 3250 1613 
L 3250 1097 
L 2631 1097 
L 2631 0 
L 2069 0 
z
M 2069 1613 
L 2069 3678 
L 634 1613 
L 2069 1613 
z
" transform="scale(0.015625)"/>
       </defs>
       <use xlink:href="#ArialMT-53"/>
       <use xlink:href="#ArialMT-74" transform="translate(66.699219 0)"/>
       <use xlink:href="#ArialMT-61" transform="translate(94.482422 0)"/>
       <use xlink:href="#ArialMT-67" transform="translate(150.097656 0)"/>
       <use xlink:href="#ArialMT-65" transform="translate(205.712891 0)"/>
       <use xlink:href="#ArialMT-20" transform="translate(261.328125 0)"/>
       <use xlink:href="#ArialMT-34" transform="translate(289.111328 0)"/>
      </g>
     </g>
    </g>
    <g id="text_5">
     <!-- 训练阶段 -->
     <g style="fill: #262626" transform="translate(424.551562 487.85125) scale(0.1 -0.1)">
      <defs>
       <path id="MicrosoftYaHei-8bad" d="M 2581 5178 
L 3056 5178 
L 3056 2722 
Q 3056 1272 2831 466 
Q 2613 -297 1981 -872 
Q 1769 -678 1550 -534 
Q 2156 -66 2375 647 
Q 2581 1353 2581 2678 
L 2581 5178 
z
M 5506 5184 
L 5981 5184 
L 5981 -772 
L 5506 -772 
L 5506 5184 
z
M 4038 4953 
L 4513 4953 
L 4513 -403 
L 4038 -403 
L 4038 4953 
z
M 2025 1372 
Q 2025 1059 2069 784 
Q 1438 247 913 -284 
L 625 116 
Q 838 316 838 691 
L 838 2803 
L 81 2803 
L 81 3253 
L 1313 3253 
L 1313 709 
Q 1650 1009 2025 1372 
z
M 875 5191 
Q 1438 4628 1850 4166 
L 1413 3797 
Q 1031 4303 500 4872 
L 875 5191 
z
" transform="scale(0.015625)"/>
       <path id="MicrosoftYaHei-7ec3" d="M 2363 3403 
L 3059 3403 
Q 3203 3781 3344 4197 
L 2213 4197 
L 2213 4622 
L 3488 4622 
Q 3603 4975 3719 5353 
L 4219 5253 
Q 4109 4931 4000 4622 
L 6000 4622 
L 6000 4197 
L 3847 4197 
Q 3700 3791 3553 3403 
L 4763 3403 
L 4763 2016 
L 6025 2016 
L 6025 1591 
L 4763 1591 
L 4763 3 
Q 4763 -734 4056 -734 
Q 3788 -734 3369 -728 
Q 3331 -516 3263 -241 
Q 3638 -284 3931 -284 
Q 4300 -284 4300 109 
L 4300 1591 
L 2475 1591 
L 2475 1997 
Q 2688 2450 2897 2978 
L 2363 2978 
L 2363 3403 
z
M 888 1566 
Q 1531 1659 2219 1778 
Q 2181 1547 2163 1297 
Q 1600 1216 319 1003 
L 219 1472 
Q 669 1969 1175 2794 
Q 666 2763 219 2722 
L 100 3147 
Q 700 3966 1294 5366 
L 1750 5178 
Q 1088 3878 644 3184 
Q 1078 3194 1419 3203 
Q 1669 3638 1931 4147 
L 2388 3916 
Q 1656 2659 888 1566 
z
M 3013 2016 
L 4300 2016 
L 4300 2978 
L 3394 2978 
Q 3203 2484 3013 2016 
z
M 94 122 
Q 1031 291 2219 559 
Q 2200 316 2206 78 
Q 1231 -103 219 -353 
L 94 122 
z
M 3194 1272 
L 3638 1066 
Q 3194 203 2700 -547 
Q 2500 -397 2275 -278 
Q 2813 459 3194 1272 
z
M 5094 1041 
L 5500 1278 
Q 5963 578 6381 -122 
L 5950 -391 
Q 5544 366 5094 1041 
z
" transform="scale(0.015625)"/>
       <path id="MicrosoftYaHei-9636" d="M 2213 1816 
Q 2388 616 1644 484 
Q 1406 441 1031 478 
Q 981 734 913 991 
Q 1206 916 1475 941 
Q 1894 991 1744 1797 
Q 1669 2222 1188 2853 
Q 1419 3616 1688 4578 
L 863 4578 
L 863 -853 
L 400 -853 
L 400 5016 
L 2194 5016 
L 2194 4578 
Q 1906 3672 1663 2934 
Q 2144 2284 2213 1816 
z
M 3469 2834 
L 3469 1841 
Q 3469 78 2450 -897 
Q 2269 -734 2031 -572 
Q 2994 297 2994 1859 
L 2994 2834 
L 3469 2834 
z
M 4806 2834 
L 5281 2834 
L 5281 -822 
L 4806 -822 
L 4806 2834 
z
M 4475 5278 
L 4388 5078 
Q 5169 3653 6338 3134 
Q 6175 2947 5994 2697 
Q 4856 3384 4144 4634 
Q 3494 3472 2356 2609 
Q 2206 2828 2031 3003 
Q 3244 3809 3981 5278 
L 4475 5278 
z
" transform="scale(0.015625)"/>
       <path id="MicrosoftYaHei-6bb5" d="M 2844 1978 
L 2844 2422 
L 5763 2422 
L 5763 1953 
Q 5397 1069 4731 416 
Q 5378 -63 6338 -266 
Q 6144 -516 6019 -747 
Q 5031 -456 4359 88 
Q 3638 -488 2631 -853 
Q 2450 -559 2331 -422 
Q 3313 -75 3997 428 
Q 3400 1069 3138 1978 
L 2844 1978 
z
M 88 722 
Q 325 744 569 769 
L 569 4897 
Q 1931 4972 2719 5116 
L 2888 4653 
Q 2175 4559 1031 4484 
L 1031 3616 
L 2613 3616 
L 2613 3203 
L 1031 3203 
L 1031 2259 
L 2594 2259 
L 2594 1847 
L 1031 1847 
L 1031 819 
Q 1891 916 2838 1041 
Q 2831 916 2831 591 
Q 1894 484 1031 366 
L 1031 -816 
L 569 -816 
L 569 303 
Q 381 275 200 247 
L 88 722 
z
M 5738 3209 
Q 5981 3209 6306 3228 
L 6219 2759 
Q 5906 2747 5625 2747 
Q 4988 2747 4988 3459 
L 4988 4553 
L 3831 4553 
L 3831 4216 
Q 3831 3053 2938 2522 
Q 2781 2709 2600 2909 
Q 3363 3272 3363 4241 
L 3363 4997 
L 5456 4997 
L 5456 3497 
Q 5456 3209 5738 3209 
z
M 5256 1978 
L 3613 1978 
Q 3863 1241 4363 731 
Q 4956 1275 5256 1978 
z
" transform="scale(0.015625)"/>
      </defs>
      <use xlink:href="#MicrosoftYaHei-8bad"/>
      <use xlink:href="#MicrosoftYaHei-7ec3" transform="translate(100 0)"/>
      <use xlink:href="#MicrosoftYaHei-9636" transform="translate(200 0)"/>
      <use xlink:href="#MicrosoftYaHei-6bb5" transform="translate(300 0)"/>
     </g>
    </g>
   </g>
   <g id="matplotlib.axis_2">
    <g id="ytick_1">
     <g id="line2d_5">
      <path d="M 39.801563 416.795337 
L 849.301563 416.795337 
" clip-path="url(#pb417b99a54)" style="fill: none; stroke-dasharray: 2.96,1.28; stroke-dashoffset: 0; stroke: #cccccc; stroke-opacity: 0.6; stroke-width: 0.8"/>
     </g>
     <g id="text_6">
      <!-- 38 -->
      <g style="fill: #262626" transform="translate(21.679688 420.374243) scale(0.1 -0.1)">
       <defs>
        <path id="ArialMT-38" d="M 1131 2484 
Q 781 2613 612 2850 
Q 444 3088 444 3419 
Q 444 3919 803 4259 
Q 1163 4600 1759 4600 
Q 2359 4600 2725 4251 
Q 3091 3903 3091 3403 
Q 3091 3084 2923 2848 
Q 2756 2613 2416 2484 
Q 2838 2347 3058 2040 
Q 3278 1734 3278 1309 
Q 3278 722 2862 322 
Q 2447 -78 1769 -78 
Q 1091 -78 675 323 
Q 259 725 259 1325 
Q 259 1772 486 2073 
Q 713 2375 1131 2484 
z
M 1019 3438 
Q 1019 3113 1228 2906 
Q 1438 2700 1772 2700 
Q 2097 2700 2305 2904 
Q 2513 3109 2513 3406 
Q 2513 3716 2298 3927 
Q 2084 4138 1766 4138 
Q 1444 4138 1231 3931 
Q 1019 3725 1019 3438 
z
M 838 1322 
Q 838 1081 952 856 
Q 1066 631 1291 507 
Q 1516 384 1775 384 
Q 2178 384 2440 643 
Q 2703 903 2703 1303 
Q 2703 1709 2433 1975 
Q 2163 2241 1756 2241 
Q 1359 2241 1098 1978 
Q 838 1716 838 1322 
z
" transform="scale(0.015625)"/>
       </defs>
       <use xlink:href="#ArialMT-33"/>
       <use xlink:href="#ArialMT-38" transform="translate(55.615234 0)"/>
      </g>
     </g>
    </g>
    <g id="ytick_2">
     <g id="line2d_6">
      <path d="M 39.801563 367.832829 
L 849.301563 367.832829 
" clip-path="url(#pb417b99a54)" style="fill: none; stroke-dasharray: 2.96,1.28; stroke-dashoffset: 0; stroke: #cccccc; stroke-opacity: 0.6; stroke-width: 0.8"/>
     </g>
     <g id="text_7">
      <!-- 40 -->
      <g style="fill: #262626" transform="translate(21.679688 371.411735) scale(0.1 -0.1)">
       <defs>
        <path id="ArialMT-30" d="M 266 2259 
Q 266 3072 433 3567 
Q 600 4063 929 4331 
Q 1259 4600 1759 4600 
Q 2128 4600 2406 4451 
Q 2684 4303 2865 4023 
Q 3047 3744 3150 3342 
Q 3253 2941 3253 2259 
Q 3253 1453 3087 958 
Q 2922 463 2592 192 
Q 2263 -78 1759 -78 
Q 1097 -78 719 397 
Q 266 969 266 2259 
z
M 844 2259 
Q 844 1131 1108 757 
Q 1372 384 1759 384 
Q 2147 384 2411 759 
Q 2675 1134 2675 2259 
Q 2675 3391 2411 3762 
Q 2147 4134 1753 4134 
Q 1366 4134 1134 3806 
Q 844 3388 844 2259 
z
" transform="scale(0.015625)"/>
       </defs>
       <use xlink:href="#ArialMT-34"/>
       <use xlink:href="#ArialMT-30" transform="translate(55.615234 0)"/>
      </g>
     </g>
    </g>
    <g id="ytick_3">
     <g id="line2d_7">
      <path d="M 39.801563 318.87032 
L 849.301563 318.87032 
" clip-path="url(#pb417b99a54)" style="fill: none; stroke-dasharray: 2.96,1.28; stroke-dashoffset: 0; stroke: #cccccc; stroke-opacity: 0.6; stroke-width: 0.8"/>
     </g>
     <g id="text_8">
      <!-- 42 -->
      <g style="fill: #262626" transform="translate(21.679688 322.449227) scale(0.1 -0.1)">
       <use xlink:href="#ArialMT-34"/>
       <use xlink:href="#ArialMT-32" transform="translate(55.615234 0)"/>
      </g>
     </g>
    </g>
    <g id="ytick_4">
     <g id="line2d_8">
      <path d="M 39.801563 269.907812 
L 849.301563 269.907812 
" clip-path="url(#pb417b99a54)" style="fill: none; stroke-dasharray: 2.96,1.28; stroke-dashoffset: 0; stroke: #cccccc; stroke-opacity: 0.6; stroke-width: 0.8"/>
     </g>
     <g id="text_9">
      <!-- 44 -->
      <g style="fill: #262626" transform="translate(21.679688 273.486719) scale(0.1 -0.1)">
       <use xlink:href="#ArialMT-34"/>
       <use xlink:href="#ArialMT-34" transform="translate(55.615234 0)"/>
      </g>
     </g>
    </g>
    <g id="ytick_5">
     <g id="line2d_9">
      <path d="M 39.801563 220.945304 
L 849.301563 220.945304 
" clip-path="url(#pb417b99a54)" style="fill: none; stroke-dasharray: 2.96,1.28; stroke-dashoffset: 0; stroke: #cccccc; stroke-opacity: 0.6; stroke-width: 0.8"/>
     </g>
     <g id="text_10">
      <!-- 46 -->
      <g style="fill: #262626" transform="translate(21.679688 224.52421) scale(0.1 -0.1)">
       <defs>
        <path id="ArialMT-36" d="M 3184 3459 
L 2625 3416 
Q 2550 3747 2413 3897 
Q 2184 4138 1850 4138 
Q 1581 4138 1378 3988 
Q 1113 3794 959 3422 
Q 806 3050 800 2363 
Q 1003 2672 1297 2822 
Q 1591 2972 1913 2972 
Q 2475 2972 2870 2558 
Q 3266 2144 3266 1488 
Q 3266 1056 3080 686 
Q 2894 316 2569 119 
Q 2244 -78 1831 -78 
Q 1128 -78 684 439 
Q 241 956 241 2144 
Q 241 3472 731 4075 
Q 1159 4600 1884 4600 
Q 2425 4600 2770 4297 
Q 3116 3994 3184 3459 
z
M 888 1484 
Q 888 1194 1011 928 
Q 1134 663 1356 523 
Q 1578 384 1822 384 
Q 2178 384 2434 671 
Q 2691 959 2691 1453 
Q 2691 1928 2437 2201 
Q 2184 2475 1800 2475 
Q 1419 2475 1153 2201 
Q 888 1928 888 1484 
z
" transform="scale(0.015625)"/>
       </defs>
       <use xlink:href="#ArialMT-34"/>
       <use xlink:href="#ArialMT-36" transform="translate(55.615234 0)"/>
      </g>
     </g>
    </g>
    <g id="ytick_6">
     <g id="line2d_10">
      <path d="M 39.801563 171.982796 
L 849.301563 171.982796 
" clip-path="url(#pb417b99a54)" style="fill: none; stroke-dasharray: 2.96,1.28; stroke-dashoffset: 0; stroke: #cccccc; stroke-opacity: 0.6; stroke-width: 0.8"/>
     </g>
     <g id="text_11">
      <!-- 48 -->
      <g style="fill: #262626" transform="translate(21.679688 175.561702) scale(0.1 -0.1)">
       <use xlink:href="#ArialMT-34"/>
       <use xlink:href="#ArialMT-38" transform="translate(55.615234 0)"/>
      </g>
     </g>
    </g>
    <g id="ytick_7">
     <g id="line2d_11">
      <path d="M 39.801563 123.020288 
L 849.301563 123.020288 
" clip-path="url(#pb417b99a54)" style="fill: none; stroke-dasharray: 2.96,1.28; stroke-dashoffset: 0; stroke: #cccccc; stroke-opacity: 0.6; stroke-width: 0.8"/>
     </g>
     <g id="text_12">
      <!-- 50 -->
      <g style="fill: #262626" transform="translate(21.679688 126.599194) scale(0.1 -0.1)">
       <defs>
        <path id="ArialMT-35" d="M 266 1200 
L 856 1250 
Q 922 819 1161 601 
Q 1400 384 1738 384 
Q 2144 384 2425 690 
Q 2706 997 2706 1503 
Q 2706 1984 2436 2262 
Q 2166 2541 1728 2541 
Q 1456 2541 1237 2417 
Q 1019 2294 894 2097 
L 366 2166 
L 809 4519 
L 3088 4519 
L 3088 3981 
L 1259 3981 
L 1013 2750 
Q 1425 3038 1878 3038 
Q 2478 3038 2890 2622 
Q 3303 2206 3303 1553 
Q 3303 931 2941 478 
Q 2500 -78 1738 -78 
Q 1113 -78 717 272 
Q 322 622 266 1200 
z
" transform="scale(0.015625)"/>
       </defs>
       <use xlink:href="#ArialMT-35"/>
       <use xlink:href="#ArialMT-30" transform="translate(55.615234 0)"/>
      </g>
     </g>
    </g>
    <g id="text_13">
     <!-- 奖励 -->
     <g style="fill: #262626" transform="translate(15.19375 281.131875) rotate(-90) scale(0.1 -0.1)">
      <defs>
       <path id="MicrosoftYaHei-5956" d="M 6306 -284 
Q 6119 -528 5944 -803 
Q 4031 -491 3197 859 
Q 2550 -472 406 -878 
Q 281 -666 100 -403 
Q 2175 -84 2709 972 
L 225 972 
L 225 1403 
L 2900 1403 
Q 2969 1600 3019 1822 
L 3531 1822 
Q 3484 1603 3422 1403 
L 6200 1403 
L 6200 972 
L 3647 972 
Q 4472 -169 6306 -284 
z
M 2388 3553 
Q 3181 4228 3588 5334 
L 4056 5241 
Q 3941 4938 3803 4666 
L 5988 4666 
L 5988 4278 
Q 5181 2359 2788 1853 
Q 2706 2072 2531 2316 
Q 3434 2463 4094 2831 
Q 3688 3222 3288 3516 
L 3588 3822 
Q 4056 3481 4491 3084 
Q 5116 3550 5463 4266 
L 3588 4266 
Q 3228 3666 2763 3234 
Q 2588 3428 2388 3553 
z
M 1744 5291 
L 2231 5291 
L 2231 1728 
L 1744 1728 
L 1744 2925 
Q 1231 2694 256 2253 
L 94 2747 
Q 991 3088 1744 3425 
L 1744 5291 
z
M 281 4584 
L 588 4891 
Q 1088 4503 1513 4072 
L 1169 3741 
Q 700 4253 281 4584 
z
" transform="scale(0.015625)"/>
       <path id="MicrosoftYaHei-52b1" d="M 3756 3997 
L 4303 3997 
Q 4316 4669 4319 5297 
L 4775 5297 
Q 4763 4559 4750 3997 
L 6031 3997 
Q 5963 1203 5925 278 
Q 5888 -678 5169 -678 
Q 4969 -678 4444 -666 
Q 4406 -378 4350 -134 
Q 4856 -178 5081 -178 
Q 5425 -178 5456 272 
Q 5513 1266 5563 3528 
L 4741 3528 
Q 4731 3028 4725 2716 
Q 4688 334 3600 -859 
Q 3469 -666 3281 -447 
Q 4238 634 4275 2634 
Q 4288 3091 4297 3528 
L 3756 3528 
L 3756 3997 
z
M 1225 3728 
L 3563 3728 
L 3563 3291 
L 2194 3291 
Q 2184 2784 2172 2372 
L 3375 2372 
Q 3319 766 3275 91 
Q 3206 -628 2581 -628 
Q 2406 -628 2050 -622 
Q 2013 -416 1956 -159 
Q 2306 -197 2475 -197 
Q 2819 -203 2850 216 
Q 2894 797 2931 1959 
L 2153 1959 
Q 2125 1378 2081 1034 
Q 1969 -3 1300 -828 
Q 1175 -659 981 -453 
Q 1531 209 1644 1097 
Q 1728 1641 1756 3291 
L 1225 3291 
L 1225 3728 
z
M 1044 4472 
L 1044 2166 
Q 1044 147 475 -809 
Q 306 -647 94 -478 
Q 588 341 588 2184 
L 588 4909 
L 3663 4909 
L 3663 4472 
L 1044 4472 
z
" transform="scale(0.015625)"/>
      </defs>
      <use xlink:href="#MicrosoftYaHei-5956"/>
      <use xlink:href="#MicrosoftYaHei-52b1" transform="translate(100 0)"/>
     </g>
    </g>
   </g>
   <g id="FillBetweenPolyCollection_1">
    <defs>
     <path id="m821b4289a1" d="M 141.061063 -55.185994 
L 140.917062 -55.185994 
L 140.863774 -58.64497 
L 140.789738 -62.103947 
L 140.699138 -65.562923 
L 140.603509 -69.021899 
L 140.520292 -72.480875 
L 140.467974 -75.939851 
L 140.459475 -79.398827 
L 140.496978 -82.857803 
L 140.571024 -86.316779 
L 140.664372 -89.775756 
L 140.758496 -93.234732 
L 140.83937 -96.693708 
L 140.900208 -100.152684 
L 140.940842 -103.61166 
L 140.965137 -107.070636 
L 140.978209 -110.529612 
L 140.984561 -113.988588 
L 140.987356 -117.447565 
L 140.988471 -120.906541 
L 140.988874 -124.365517 
L 140.989005 -127.824493 
L 140.989034 -131.283469 
L 140.989003 -134.742445 
L 140.988858 -138.201421 
L 140.98839 -141.660397 
L 140.987035 -145.119374 
L 140.98347 -148.57835 
L 140.974956 -152.037326 
L 140.956534 -155.496302 
L 140.920484 -158.955278 
L 140.856874 -162.414254 
L 140.756106 -165.87323 
L 140.613718 -169.332206 
L 140.436144 -172.791183 
L 140.244386 -176.250159 
L 140.072104 -179.709135 
L 139.956754 -183.168111 
L 139.926502 -186.627087 
L 139.98904 -190.086063 
L 140.128291 -193.545039 
L 140.310741 -197.004015 
L 140.497656 -200.462992 
L 140.656459 -203.921968 
L 140.766069 -207.380944 
L 140.815335 -210.83992 
L 140.797863 -214.298896 
L 140.708132 -217.757872 
L 140.542354 -221.216848 
L 140.303926 -224.675824 
L 140.009229 -228.134801 
L 139.687092 -231.593777 
L 139.367072 -235.052753 
L 139.0585 -238.511729 
L 138.73136 -241.970705 
L 138.314947 -245.429681 
L 137.724851 -248.888657 
L 136.912335 -252.347633 
L 135.910813 -255.80661 
L 134.845564 -259.265586 
L 133.886354 -262.724562 
L 133.156186 -266.183538 
L 132.6447 -269.642514 
L 132.185538 -273.10149 
L 131.528224 -276.560466 
L 130.477164 -280.019442 
L 129.017719 -283.478419 
L 127.340202 -286.937395 
L 125.723445 -290.396371 
L 124.32879 -293.855347 
L 123.030059 -297.314323 
L 121.409936 -300.773299 
L 118.968328 -304.232275 
L 115.451341 -307.691251 
L 111.102972 -311.150228 
L 106.646627 -314.609204 
L 102.943619 -318.06818 
L 100.485134 -321.527156 
L 99.021986 -324.986132 
L 97.605917 -328.445108 
L 95.093447 -331.904084 
L 90.8675 -335.36306 
L 85.35205 -338.822037 
L 79.96788 -342.281013 
L 76.488485 -345.739989 
L 76.127072 -349.198965 
L 78.879165 -352.657941 
L 83.517523 -356.116917 
L 88.252625 -359.575893 
L 91.675558 -363.034869 
L 93.444863 -366.493846 
L 94.353964 -369.952822 
L 95.794102 -373.411798 
L 98.964376 -376.870774 
L 104.278178 -380.32975 
L 111.243143 -383.788726 
L 118.788715 -387.247702 
L 125.783604 -390.706678 
L 131.449385 -394.165655 
L 135.511938 -397.624631 
L 146.466187 -397.624631 
L 146.466187 -397.624631 
L 150.52874 -394.165655 
L 156.194521 -390.706678 
L 163.18941 -387.247702 
L 170.734982 -383.788726 
L 177.699947 -380.32975 
L 183.013749 -376.870774 
L 186.184023 -373.411798 
L 187.624161 -369.952822 
L 188.533262 -366.493846 
L 190.302567 -363.034869 
L 193.7255 -359.575893 
L 198.460602 -356.116917 
L 203.09896 -352.657941 
L 205.851053 -349.198965 
L 205.48964 -345.739989 
L 202.010245 -342.281013 
L 196.626075 -338.822037 
L 191.110625 -335.36306 
L 186.884678 -331.904084 
L 184.372208 -328.445108 
L 182.956139 -324.986132 
L 181.492991 -321.527156 
L 179.034506 -318.06818 
L 175.331498 -314.609204 
L 170.875153 -311.150228 
L 166.526784 -307.691251 
L 163.009797 -304.232275 
L 160.568189 -300.773299 
L 158.948066 -297.314323 
L 157.649335 -293.855347 
L 156.25468 -290.396371 
L 154.637923 -286.937395 
L 152.960406 -283.478419 
L 151.500961 -280.019442 
L 150.449901 -276.560466 
L 149.792587 -273.10149 
L 149.333425 -269.642514 
L 148.821939 -266.183538 
L 148.091771 -262.724562 
L 147.132561 -259.265586 
L 146.067312 -255.80661 
L 145.06579 -252.347633 
L 144.253274 -248.888657 
L 143.663178 -245.429681 
L 143.246765 -241.970705 
L 142.919625 -238.511729 
L 142.611053 -235.052753 
L 142.291033 -231.593777 
L 141.968896 -228.134801 
L 141.674199 -224.675824 
L 141.435771 -221.216848 
L 141.269993 -217.757872 
L 141.180262 -214.298896 
L 141.16279 -210.83992 
L 141.212056 -207.380944 
L 141.321666 -203.921968 
L 141.480469 -200.462992 
L 141.667384 -197.004015 
L 141.849834 -193.545039 
L 141.989085 -190.086063 
L 142.051623 -186.627087 
L 142.021371 -183.168111 
L 141.906021 -179.709135 
L 141.733739 -176.250159 
L 141.541981 -172.791183 
L 141.364407 -169.332206 
L 141.222019 -165.87323 
L 141.121251 -162.414254 
L 141.057641 -158.955278 
L 141.021591 -155.496302 
L 141.003169 -152.037326 
L 140.994655 -148.57835 
L 140.99109 -145.119374 
L 140.989735 -141.660397 
L 140.989267 -138.201421 
L 140.989122 -134.742445 
L 140.989091 -131.283469 
L 140.98912 -127.824493 
L 140.989251 -124.365517 
L 140.989654 -120.906541 
L 140.990769 -117.447565 
L 140.993564 -113.988588 
L 140.999916 -110.529612 
L 141.012988 -107.070636 
L 141.037283 -103.61166 
L 141.077917 -100.152684 
L 141.138755 -96.693708 
L 141.219629 -93.234732 
L 141.313753 -89.775756 
L 141.407101 -86.316779 
L 141.481147 -82.857803 
L 141.51865 -79.398827 
L 141.510151 -75.939851 
L 141.457833 -72.480875 
L 141.374616 -69.021899 
L 141.278987 -65.562923 
L 141.188387 -62.103947 
L 141.114351 -58.64497 
L 141.061063 -55.185994 
z
" style="stroke: #3f3f3f; stroke-width: 1.25"/>
    </defs>
    <g clip-path="url(#pb417b99a54)">
     <use xlink:href="#m821b4289a1" x="0" y="497.537187" style="fill: #3274a1; stroke: #3f3f3f; stroke-width: 1.25"/>
    </g>
   </g>
   <g id="FillBetweenPolyCollection_2">
    <defs>
     <path id="m736173cdb4" d="M 344.036252 -249.472604 
L 342.691873 -249.472604 
L 342.439995 -250.910695 
L 342.128236 -252.348787 
L 341.756165 -253.786879 
L 341.328819 -255.22497 
L 340.857677 -256.663062 
L 340.360895 -258.101154 
L 339.862538 -259.539245 
L 339.390716 -260.977337 
L 338.974675 -262.415429 
L 338.641145 -263.85352 
L 338.410411 -265.291612 
L 338.292702 -266.729704 
L 338.285457 -268.167795 
L 338.371981 -269.605887 
L 338.521755 -271.043979 
L 338.69249 -272.48207 
L 338.833749 -273.920162 
L 338.89183 -275.358254 
L 338.815451 -276.796345 
L 338.561731 -278.234437 
L 338.101904 -279.672528 
L 337.426146 -281.11062 
L 336.546897 -282.548712 
L 335.500038 -283.986803 
L 334.343371 -285.424895 
L 333.15211 -286.862987 
L 332.011404 -288.301078 
L 331.006404 -289.73917 
L 330.210872 -291.177262 
L 329.6757 -292.615353 
L 329.418915 -294.053445 
L 329.418696 -295.491537 
L 329.610568 -296.929628 
L 329.889521 -298.36772 
L 330.117159 -299.805812 
L 330.133515 -301.243903 
L 329.772711 -302.681995 
L 328.881264 -304.120087 
L 327.337562 -305.558178 
L 325.070683 -306.99627 
L 322.076402 -308.434362 
L 318.427987 -309.872453 
L 314.279374 -311.310545 
L 309.858747 -312.748637 
L 305.451526 -314.186728 
L 301.373299 -315.62482 
L 297.935042 -317.062912 
L 295.404715 -318.501003 
L 293.970538 -319.939095 
L 293.711555 -321.377186 
L 294.580304 -322.815278 
L 296.400689 -324.25337 
L 298.881851 -325.691461 
L 301.646446 -327.129553 
L 304.269833 -328.567645 
L 306.325501 -330.005736 
L 307.431702 -331.443828 
L 307.294532 -332.88192 
L 305.743325 -334.320011 
L 302.754886 -335.758103 
L 298.463803 -337.196195 
L 293.156809 -338.634286 
L 287.250275 -340.072378 
L 281.251497 -341.51047 
L 275.706542 -342.948561 
L 271.139771 -344.386653 
L 267.992196 -345.824745 
L 266.566943 -347.262836 
L 266.989826 -348.700928 
L 269.191148 -350.13902 
L 272.91173 -351.577111 
L 277.732364 -353.015203 
L 283.12235 -354.453295 
L 288.500178 -355.891386 
L 293.298271 -357.329478 
L 297.023991 -358.76757 
L 299.310493 -360.205661 
L 299.952895 -361.643753 
L 298.927173 -363.081845 
L 296.390781 -364.519936 
L 292.665315 -365.958028 
L 288.202738 -367.396119 
L 283.537964 -368.834211 
L 279.232148 -370.272303 
L 275.812533 -371.710394 
L 273.715878 -373.148486 
L 273.242758 -374.586578 
L 274.529022 -376.024669 
L 277.538395 -377.462761 
L 282.07689 -378.900853 
L 287.826123 -380.338944 
L 294.389536 -381.777036 
L 301.343698 -383.215128 
L 308.286624 -384.653219 
L 314.876446 -386.091311 
L 320.856231 -387.529403 
L 326.06375 -388.967494 
L 330.427673 -390.405586 
L 333.953648 -391.843678 
L 352.774477 -391.843678 
L 352.774477 -391.843678 
L 356.300452 -390.405586 
L 360.664375 -388.967494 
L 365.871894 -387.529403 
L 371.851679 -386.091311 
L 378.441501 -384.653219 
L 385.384427 -383.215128 
L 392.338589 -381.777036 
L 398.902002 -380.338944 
L 404.651235 -378.900853 
L 409.18973 -377.462761 
L 412.199103 -376.024669 
L 413.485367 -374.586578 
L 413.012247 -373.148486 
L 410.915592 -371.710394 
L 407.495977 -370.272303 
L 403.190161 -368.834211 
L 398.525387 -367.396119 
L 394.06281 -365.958028 
L 390.337344 -364.519936 
L 387.800952 -363.081845 
L 386.77523 -361.643753 
L 387.417632 -360.205661 
L 389.704134 -358.76757 
L 393.429854 -357.329478 
L 398.227947 -355.891386 
L 403.605775 -354.453295 
L 408.995761 -353.015203 
L 413.816395 -351.577111 
L 417.536977 -350.13902 
L 419.738299 -348.700928 
L 420.161182 -347.262836 
L 418.735929 -345.824745 
L 415.588354 -344.386653 
L 411.021583 -342.948561 
L 405.476628 -341.51047 
L 399.47785 -340.072378 
L 393.571316 -338.634286 
L 388.264322 -337.196195 
L 383.973239 -335.758103 
L 380.9848 -334.320011 
L 379.433593 -332.88192 
L 379.296423 -331.443828 
L 380.402624 -330.005736 
L 382.458292 -328.567645 
L 385.081679 -327.129553 
L 387.846274 -325.691461 
L 390.327436 -324.25337 
L 392.147821 -322.815278 
L 393.01657 -321.377186 
L 392.757587 -319.939095 
L 391.32341 -318.501003 
L 388.793083 -317.062912 
L 385.354826 -315.62482 
L 381.276599 -314.186728 
L 376.869378 -312.748637 
L 372.448751 -311.310545 
L 368.300138 -309.872453 
L 364.651723 -308.434362 
L 361.657442 -306.99627 
L 359.390563 -305.558178 
L 357.846861 -304.120087 
L 356.955414 -302.681995 
L 356.59461 -301.243903 
L 356.610966 -299.805812 
L 356.838604 -298.36772 
L 357.117557 -296.929628 
L 357.309429 -295.491537 
L 357.30921 -294.053445 
L 357.052425 -292.615353 
L 356.517253 -291.177262 
L 355.721721 -289.73917 
L 354.716721 -288.301078 
L 353.576015 -286.862987 
L 352.384754 -285.424895 
L 351.228087 -283.986803 
L 350.181228 -282.548712 
L 349.301979 -281.11062 
L 348.626221 -279.672528 
L 348.166394 -278.234437 
L 347.912674 -276.796345 
L 347.836295 -275.358254 
L 347.894376 -273.920162 
L 348.035635 -272.48207 
L 348.20637 -271.043979 
L 348.356144 -269.605887 
L 348.442668 -268.167795 
L 348.435423 -266.729704 
L 348.317714 -265.291612 
L 348.08698 -263.85352 
L 347.75345 -262.415429 
L 347.337409 -260.977337 
L 346.865587 -259.539245 
L 346.36723 -258.101154 
L 345.870448 -256.663062 
L 345.399306 -255.22497 
L 344.97196 -253.786879 
L 344.599889 -252.348787 
L 344.28813 -250.910695 
L 344.036252 -249.472604 
z
" style="stroke: #3f3f3f; stroke-width: 1.25"/>
    </defs>
    <g clip-path="url(#pb417b99a54)">
     <use xlink:href="#m736173cdb4" x="0" y="497.537187" style="fill: #3274a1; stroke: #3f3f3f; stroke-width: 1.25"/>
    </g>
   </g>
   <g id="FillBetweenPolyCollection_3">
    <defs>
     <path id="m6e4f35c79e" d="M 545.834051 -222.353271 
L 545.644074 -222.353271 
L 545.601227 -224.067214 
L 545.546559 -225.781157 
L 545.480285 -227.4951 
L 545.404208 -229.209043 
L 545.321914 -230.922986 
L 545.238635 -232.636929 
L 545.160686 -234.350872 
L 545.094499 -236.064815 
L 545.045368 -237.778758 
L 545.016137 -239.492701 
L 545.006085 -241.206644 
L 545.010281 -242.920587 
L 545.019588 -244.63453 
L 545.021408 -246.348473 
L 545.001138 -248.062416 
L 544.944214 -249.776359 
L 544.838519 -251.490302 
L 544.676842 -253.204245 
L 544.459002 -254.918188 
L 544.193156 -256.632131 
L 543.895812 -258.346074 
L 543.590178 -260.060017 
L 543.302707 -261.77396 
L 543.058073 -263.487903 
L 542.873193 -265.201847 
L 542.751288 -266.91579 
L 542.677096 -268.629733 
L 542.614354 -270.343676 
L 542.506449 -272.057619 
L 542.280791 -273.771562 
L 541.857053 -275.485505 
L 541.158922 -277.199448 
L 540.128355 -278.913391 
L 538.740524 -280.627334 
L 537.016815 -282.341277 
L 535.03259 -284.05522 
L 532.916511 -285.769163 
L 530.839152 -287.483106 
L 528.990727 -289.197049 
L 527.550402 -290.910992 
L 526.652298 -292.624935 
L 526.354928 -294.338878 
L 526.620824 -296.052821 
L 527.311417 -297.766764 
L 528.199283 -299.480707 
L 528.996579 -301.19465 
L 529.395722 -302.908593 
L 529.116598 -304.622536 
L 527.953752 -306.336479 
L 525.816868 -308.050422 
L 522.75796 -309.764365 
L 518.979309 -311.478309 
L 514.817726 -313.192252 
L 510.703686 -314.906195 
L 507.098452 -316.620138 
L 504.417596 -318.334081 
L 502.953847 -320.048024 
L 502.814286 -321.761967 
L 503.885348 -323.47591 
L 505.83418 -325.189853 
L 508.147814 -326.903796 
L 510.204595 -328.617739 
L 511.366953 -330.331682 
L 511.081889 -332.045625 
L 508.97499 -333.759568 
L 504.924601 -335.473511 
L 499.104207 -337.187454 
L 491.983387 -338.901397 
L 484.281678 -340.61534 
L 476.876333 -342.329283 
L 470.6739 -344.043226 
L 466.465067 -345.757169 
L 464.789062 -347.471112 
L 465.835125 -349.185055 
L 469.402523 -350.898998 
L 474.928482 -352.612941 
L 481.578591 -354.326884 
L 488.381253 -356.040827 
L 494.380201 -357.754771 
L 498.778324 -359.468714 
L 501.050829 -361.182657 
L 501.013549 -362.8966 
L 498.84004 -364.610543 
L 495.027753 -366.324486 
L 490.318977 -368.038429 
L 485.587218 -369.752372 
L 481.704808 -371.466315 
L 479.411887 -373.180258 
L 479.208772 -374.894201 
L 481.291125 -376.608144 
L 485.539575 -378.322087 
L 491.56396 -380.03603 
L 498.790208 -381.749973 
L 506.568858 -383.463916 
L 514.281116 -385.177859 
L 521.421804 -386.891802 
L 527.646922 -388.605745 
L 532.783801 -390.319688 
L 536.810579 -392.033631 
L 554.667546 -392.033631 
L 554.667546 -392.033631 
L 558.694324 -390.319688 
L 563.831203 -388.605745 
L 570.056321 -386.891802 
L 577.197009 -385.177859 
L 584.909267 -383.463916 
L 592.687917 -381.749973 
L 599.914165 -380.03603 
L 605.93855 -378.322087 
L 610.187 -376.608144 
L 612.269353 -374.894201 
L 612.066238 -373.180258 
L 609.773317 -371.466315 
L 605.890907 -369.752372 
L 601.159148 -368.038429 
L 596.450372 -366.324486 
L 592.638085 -364.610543 
L 590.464576 -362.8966 
L 590.427296 -361.182657 
L 592.699801 -359.468714 
L 597.097924 -357.754771 
L 603.096872 -356.040827 
L 609.899534 -354.326884 
L 616.549643 -352.612941 
L 622.075602 -350.898998 
L 625.643 -349.185055 
L 626.689062 -347.471112 
L 625.013058 -345.757169 
L 620.804225 -344.043226 
L 614.601792 -342.329283 
L 607.196447 -340.61534 
L 599.494738 -338.901397 
L 592.373918 -337.187454 
L 586.553524 -335.473511 
L 582.503135 -333.759568 
L 580.396236 -332.045625 
L 580.111172 -330.331682 
L 581.27353 -328.617739 
L 583.330311 -326.903796 
L 585.643945 -325.189853 
L 587.592777 -323.47591 
L 588.663839 -321.761967 
L 588.524278 -320.048024 
L 587.060529 -318.334081 
L 584.379673 -316.620138 
L 580.774439 -314.906195 
L 576.660399 -313.192252 
L 572.498816 -311.478309 
L 568.720165 -309.764365 
L 565.661257 -308.050422 
L 563.524373 -306.336479 
L 562.361527 -304.622536 
L 562.082403 -302.908593 
L 562.481546 -301.19465 
L 563.278842 -299.480707 
L 564.166708 -297.766764 
L 564.857301 -296.052821 
L 565.123197 -294.338878 
L 564.825827 -292.624935 
L 563.927723 -290.910992 
L 562.487398 -289.197049 
L 560.638973 -287.483106 
L 558.561614 -285.769163 
L 556.445535 -284.05522 
L 554.46131 -282.341277 
L 552.737601 -280.627334 
L 551.34977 -278.913391 
L 550.319203 -277.199448 
L 549.621072 -275.485505 
L 549.197334 -273.771562 
L 548.971676 -272.057619 
L 548.863771 -270.343676 
L 548.801029 -268.629733 
L 548.726837 -266.91579 
L 548.604932 -265.201847 
L 548.420052 -263.487903 
L 548.175418 -261.77396 
L 547.887947 -260.060017 
L 547.582313 -258.346074 
L 547.284969 -256.632131 
L 547.019123 -254.918188 
L 546.801283 -253.204245 
L 546.639606 -251.490302 
L 546.533911 -249.776359 
L 546.476987 -248.062416 
L 546.456717 -246.348473 
L 546.458537 -244.63453 
L 546.467844 -242.920587 
L 546.47204 -241.206644 
L 546.461988 -239.492701 
L 546.432757 -237.778758 
L 546.383626 -236.064815 
L 546.317439 -234.350872 
L 546.23949 -232.636929 
L 546.156211 -230.922986 
L 546.073917 -229.209043 
L 545.99784 -227.4951 
L 545.931566 -225.781157 
L 545.876898 -224.067214 
L 545.834051 -222.353271 
z
" style="stroke: #3f3f3f; stroke-width: 1.25"/>
    </defs>
    <g clip-path="url(#pb417b99a54)">
     <use xlink:href="#m6e4f35c79e" x="0" y="497.537187" style="fill: #3274a1; stroke: #3f3f3f; stroke-width: 1.25"/>
    </g>
   </g>
   <g id="FillBetweenPolyCollection_4">
    <defs>
     <path id="m4db98f2dac" d="M 748.204548 -221.474082 
L 748.023577 -221.474082 
L 747.984476 -223.205786 
L 747.934894 -224.937491 
L 747.874863 -226.669195 
L 747.805603 -228.4009 
L 747.729633 -230.132604 
L 747.65058 -231.864308 
L 747.572616 -233.596013 
L 747.499485 -235.327717 
L 747.433208 -237.059422 
L 747.372614 -238.791126 
L 747.311953 -240.522831 
L 747.239907 -242.254535 
L 747.139332 -243.986239 
L 746.988041 -245.717944 
L 746.76084 -247.449648 
L 746.432891 -249.181353 
L 745.984179 -250.913057 
L 745.404594 -252.644761 
L 744.698751 -254.376466 
L 743.889452 -256.10817 
L 743.018592 -257.839875 
L 742.14461 -259.571579 
L 741.336144 -261.303284 
L 740.662406 -263.034988 
L 740.181695 -264.766692 
L 739.930155 -266.498397 
L 739.913119 -268.230101 
L 740.10105 -269.961806 
L 740.431276 -271.69351 
L 740.815586 -273.425215 
L 741.152644 -275.156919 
L 741.343302 -276.888623 
L 741.306422 -278.620328 
L 740.992685 -280.352032 
L 740.394121 -282.083737 
L 739.547562 -283.815441 
L 738.530886 -285.547146 
L 737.451906 -287.27885 
L 736.430848 -289.010554 
L 735.578608 -290.742259 
L 734.974048 -292.473963 
L 734.64421 -294.205668 
L 734.551312 -295.937372 
L 734.589594 -297.669077 
L 734.593722 -299.400781 
L 734.358719 -301.132485 
L 733.669586 -302.86419 
L 732.337148 -304.595894 
L 730.235231 -306.327599 
L 727.333259 -308.059303 
L 723.717928 -309.791008 
L 719.598086 -311.522712 
L 715.288732 -313.254416 
L 711.173302 -314.986121 
L 707.647686 -316.717825 
L 705.053997 -318.44953 
L 703.615584 -320.181234 
L 703.386072 -321.912939 
L 704.223594 -323.644643 
L 705.797139 -325.376347 
L 707.626074 -327.108052 
L 709.147818 -328.839756 
L 709.803751 -330.571461 
L 709.130372 -332.303165 
L 706.841704 -334.03487 
L 702.889692 -335.766574 
L 697.491601 -337.498278 
L 691.117213 -339.229983 
L 684.434038 -340.961687 
L 678.215548 -342.693392 
L 673.224894 -344.425096 
L 670.092825 -346.156801 
L 669.211773 -347.888505 
L 670.666642 -349.620209 
L 674.216488 -351.351914 
L 679.33129 -353.083618 
L 685.276917 -354.815323 
L 691.232176 -356.547027 
L 696.4166 -358.278732 
L 700.20725 -360.010436 
L 702.22652 -361.74214 
L 702.389188 -363.473845 
L 700.903947 -365.205549 
L 698.231384 -366.937254 
L 695.006112 -368.668958 
L 691.935541 -370.400663 
L 689.691182 -372.132367 
L 688.809799 -373.864071 
L 689.620476 -375.595776 
L 692.209184 -377.32748 
L 696.425309 -379.059185 
L 701.926187 -380.790889 
L 708.248192 -382.522593 
L 714.888355 -384.254298 
L 721.379995 -385.986002 
L 727.349329 -387.717707 
L 732.54613 -389.449411 
L 736.848237 -391.181116 
L 740.245172 -392.91282 
L 755.982953 -392.91282 
L 755.982953 -392.91282 
L 759.379888 -391.181116 
L 763.681995 -389.449411 
L 768.878796 -387.717707 
L 774.84813 -385.986002 
L 781.33977 -384.254298 
L 787.979933 -382.522593 
L 794.301938 -380.790889 
L 799.802816 -379.059185 
L 804.018941 -377.32748 
L 806.607649 -375.595776 
L 807.418326 -373.864071 
L 806.536943 -372.132367 
L 804.292584 -370.400663 
L 801.222013 -368.668958 
L 797.996741 -366.937254 
L 795.324178 -365.205549 
L 793.838937 -363.473845 
L 794.001605 -361.74214 
L 796.020875 -360.010436 
L 799.811525 -358.278732 
L 804.995949 -356.547027 
L 810.951208 -354.815323 
L 816.896835 -353.083618 
L 822.011637 -351.351914 
L 825.561483 -349.620209 
L 827.016352 -347.888505 
L 826.1353 -346.156801 
L 823.003231 -344.425096 
L 818.012577 -342.693392 
L 811.794087 -340.961687 
L 805.110912 -339.229983 
L 798.736524 -337.498278 
L 793.338433 -335.766574 
L 789.386421 -334.03487 
L 787.097753 -332.303165 
L 786.424374 -330.571461 
L 787.080307 -328.839756 
L 788.602051 -327.108052 
L 790.430986 -325.376347 
L 792.004531 -323.644643 
L 792.842053 -321.912939 
L 792.612541 -320.181234 
L 791.174128 -318.44953 
L 788.580439 -316.717825 
L 785.054823 -314.986121 
L 780.939393 -313.254416 
L 776.630039 -311.522712 
L 772.510197 -309.791008 
L 768.894866 -308.059303 
L 765.992894 -306.327599 
L 763.890977 -304.595894 
L 762.558539 -302.86419 
L 761.869406 -301.132485 
L 761.634403 -299.400781 
L 761.638531 -297.669077 
L 761.676813 -295.937372 
L 761.583915 -294.205668 
L 761.254077 -292.473963 
L 760.649517 -290.742259 
L 759.797277 -289.010554 
L 758.776219 -287.27885 
L 757.697239 -285.547146 
L 756.680563 -283.815441 
L 755.834004 -282.083737 
L 755.23544 -280.352032 
L 754.921703 -278.620328 
L 754.884823 -276.888623 
L 755.075481 -275.156919 
L 755.412539 -273.425215 
L 755.796849 -271.69351 
L 756.127075 -269.961806 
L 756.315006 -268.230101 
L 756.29797 -266.498397 
L 756.04643 -264.766692 
L 755.565719 -263.034988 
L 754.891981 -261.303284 
L 754.083515 -259.571579 
L 753.209533 -257.839875 
L 752.338673 -256.10817 
L 751.529374 -254.376466 
L 750.823531 -252.644761 
L 750.243946 -250.913057 
L 749.795234 -249.181353 
L 749.467285 -247.449648 
L 749.240084 -245.717944 
L 749.088793 -243.986239 
L 748.988218 -242.254535 
L 748.916172 -240.522831 
L 748.855511 -238.791126 
L 748.794917 -237.059422 
L 748.72864 -235.327717 
L 748.655509 -233.596013 
L 748.577545 -231.864308 
L 748.498492 -230.132604 
L 748.422522 -228.4009 
L 748.353262 -226.669195 
L 748.293231 -224.937491 
L 748.243649 -223.205786 
L 748.204548 -221.474082 
z
" style="stroke: #3f3f3f; stroke-width: 1.25"/>
    </defs>
    <g clip-path="url(#pb417b99a54)">
     <use xlink:href="#m4db98f2dac" x="0" y="497.537187" style="fill: #3274a1; stroke: #3f3f3f; stroke-width: 1.25"/>
    </g>
   </g>
   <g id="line2d_12">
    <path d="M 101.102791 176.879047 
L 180.875334 176.879047 
" clip-path="url(#pb417b99a54)" style="fill: none; stroke-dasharray: 1.5625,0.9375; stroke-dashoffset: 0; stroke: #3f3f3f; stroke-width: 1.25"/>
   </g>
   <g id="line2d_13">
    <path d="M 76.295445 149.949667 
L 205.68268 149.949667 
" clip-path="url(#pb417b99a54)" style="fill: none; stroke-dasharray: 3.125,1.25; stroke-dashoffset: 0; stroke: #3f3f3f; stroke-width: 1.25"/>
   </g>
   <g id="line2d_14">
    <path d="M 96.806967 123.020288 
L 185.171158 123.020288 
" clip-path="url(#pb417b99a54)" style="fill: none; stroke-dasharray: 1.5625,0.9375; stroke-dashoffset: 0; stroke: #3f3f3f; stroke-width: 1.25"/>
   </g>
   <g id="line2d_15">
    <path d="M 293.841046 176.879047 
L 392.887079 176.879047 
" clip-path="url(#pb417b99a54)" style="fill: none; stroke-dasharray: 1.5625,0.9375; stroke-dashoffset: 0; stroke: #3f3f3f; stroke-width: 1.25"/>
   </g>
   <g id="line2d_16">
    <path d="M 266.662419 149.949667 
L 420.065706 149.949667 
" clip-path="url(#pb417b99a54)" style="fill: none; stroke-dasharray: 3.125,1.25; stroke-dashoffset: 0; stroke: #3f3f3f; stroke-width: 1.25"/>
   </g>
   <g id="line2d_17">
    <path d="M 273.265681 123.020288 
L 413.462444 123.020288 
" clip-path="url(#pb417b99a54)" style="fill: none; stroke-dasharray: 1.5625,0.9375; stroke-dashoffset: 0; stroke: #3f3f3f; stroke-width: 1.25"/>
   </g>
   <g id="line2d_18">
    <path d="M 502.904167 176.879047 
L 588.573958 176.879047 
" clip-path="url(#pb417b99a54)" style="fill: none; stroke-dasharray: 1.5625,0.9375; stroke-dashoffset: 0; stroke: #3f3f3f; stroke-width: 1.25"/>
   </g>
   <g id="line2d_19">
    <path d="M 464.860109 149.949667 
L 626.618016 149.949667 
" clip-path="url(#pb417b99a54)" style="fill: none; stroke-dasharray: 3.125,1.25; stroke-dashoffset: 0; stroke: #3f3f3f; stroke-width: 1.25"/>
   </g>
   <g id="line2d_20">
    <path d="M 479.253485 123.020288 
L 612.22464 123.020288 
" clip-path="url(#pb417b99a54)" style="fill: none; stroke-dasharray: 1.5625,0.9375; stroke-dashoffset: 0; stroke: #3f3f3f; stroke-width: 1.25"/>
   </g>
   <g id="line2d_21">
    <path d="M 703.552377 176.879047 
L 792.675748 176.879047 
" clip-path="url(#pb417b99a54)" style="fill: none; stroke-dasharray: 1.5625,0.9375; stroke-dashoffset: 0; stroke: #3f3f3f; stroke-width: 1.25"/>
   </g>
   <g id="line2d_22">
    <path d="M 669.364907 149.949667 
L 826.863218 149.949667 
" clip-path="url(#pb417b99a54)" style="fill: none; stroke-dasharray: 3.125,1.25; stroke-dashoffset: 0; stroke: #3f3f3f; stroke-width: 1.25"/>
   </g>
   <g id="line2d_23">
    <path d="M 689.115413 123.020288 
L 807.112712 123.020288 
" clip-path="url(#pb417b99a54)" style="fill: none; stroke-dasharray: 1.5625,0.9375; stroke-dashoffset: 0; stroke: #3f3f3f; stroke-width: 1.25"/>
   </g>
   <g id="patch_3">
    <path d="M 39.801563 459.473125 
L 39.801563 82.790625 
" style="fill: none; stroke: #cccccc; stroke-width: 0.8; stroke-linejoin: miter; stroke-linecap: square"/>
   </g>
   <g id="patch_4">
    <path d="M 849.301563 459.473125 
L 849.301563 82.790625 
" style="fill: none; stroke: #cccccc; stroke-width: 0.8; stroke-linejoin: miter; stroke-linecap: square"/>
   </g>
   <g id="patch_5">
    <path d="M 39.801562 459.473125 
L 849.301563 459.473125 
" style="fill: none; stroke: #cccccc; stroke-width: 0.8; stroke-linejoin: miter; stroke-linecap: square"/>
   </g>
   <g id="patch_6">
    <path d="M 39.801562 82.790625 
L 849.301563 82.790625 
" style="fill: none; stroke: #cccccc; stroke-width: 0.8; stroke-linejoin: miter; stroke-linecap: square"/>
   </g>
  </g>
  <g id="text_14">
   <!-- 训练阶段奖励分布: default_params - A2C - 初始训练 (正态-大幅均值改变(μ14,σ2)) -->
   <g style="fill: #262626" transform="translate(122.564062 20.615) scale(0.16 -0.16)">
    <defs>
     <path id="MicrosoftYaHei-Bold-8bad" d="M 956 5259 
Q 1475 4753 1925 4234 
L 1263 3684 
Q 769 4328 356 4747 
L 956 5259 
z
M 2450 5184 
L 3281 5184 
L 3281 2066 
Q 3281 209 2275 -884 
Q 1844 -528 1519 -328 
Q 2450 659 2450 2134 
L 2450 5184 
z
M 5238 5184 
L 6069 5184 
L 6069 -784 
L 5238 -784 
L 5238 5184 
z
M 3856 4953 
L 4663 4953 
L 4663 -416 
L 3856 -416 
L 3856 4953 
z
M 2019 1772 
Q 2050 1466 2175 916 
Q 1556 353 925 -341 
L 488 266 
Q 650 447 650 772 
L 650 2422 
L 125 2422 
L 125 3266 
L 1475 3266 
L 1475 1297 
Q 1769 1541 2019 1772 
z
" transform="scale(0.015625)"/>
     <path id="MicrosoftYaHei-Bold-7ec3" d="M 2400 3516 
L 2984 3516 
L 3159 4028 
L 2263 4028 
L 2263 4753 
L 3394 4753 
L 3575 5347 
L 4413 5291 
L 4238 4753 
L 6000 4753 
L 6000 4028 
L 3994 4028 
L 3809 3516 
L 4969 3516 
L 4969 2191 
L 6025 2191 
L 6025 1484 
L 4969 1484 
L 4969 297 
Q 4969 -131 4831 -397 
Q 4694 -663 4444 -758 
Q 4194 -853 3394 -853 
Q 3294 -309 3225 -34 
Q 3525 -72 3756 -72 
Q 4125 -72 4125 491 
L 4125 1484 
L 2513 1484 
L 2513 2291 
Q 2613 2525 2716 2791 
L 2400 2791 
L 2400 3516 
z
M 3306 2191 
L 4125 2191 
L 4125 2791 
L 3541 2791 
L 3306 2191 
z
M 1013 3372 
L 1419 3388 
L 1744 3966 
L 2413 3659 
L 1356 1797 
Q 1894 1872 2294 1941 
Q 2263 1684 2231 1159 
Q 931 984 475 866 
L 244 1566 
Q 531 1816 1009 2653 
L 306 2584 
L 75 3297 
Q 575 3966 1219 5341 
L 2000 5028 
Q 1450 4053 1013 3372 
z
M 75 372 
Q 1100 478 2288 672 
Q 2275 350 2272 116 
Q 2722 741 3000 1309 
L 3706 1003 
Q 3294 197 2738 -597 
Q 2469 -409 2078 -191 
L 238 -503 
L 75 372 
z
M 5000 978 
L 5619 1278 
Q 5994 584 6369 -197 
L 5713 -534 
Q 5356 316 5000 978 
z
" transform="scale(0.015625)"/>
     <path id="MicrosoftYaHei-Bold-9636" d="M 4638 2678 
L 5488 2678 
L 5488 -753 
L 4638 -753 
L 4638 2678 
z
M 6338 3297 
Q 6138 2947 5925 2434 
Q 4825 3197 4256 4297 
Q 3631 3259 2663 2384 
Q 2425 2784 2163 3147 
Q 3269 4053 3856 5253 
L 4756 5253 
L 4675 5047 
Q 5288 3966 6338 3297 
z
M 3006 2672 
L 3863 2672 
Q 3863 1284 3781 872 
Q 3625 -128 2763 -872 
Q 2531 -609 2113 -241 
Q 2775 328 2925 1041 
Q 3006 1322 3006 2672 
z
M 1988 2791 
Q 2525 2003 2525 1209 
Q 2525 747 2288 509 
Q 2019 241 1319 222 
Q 1288 609 1163 1066 
Q 1344 1034 1450 1034 
Q 1719 1034 1719 1297 
Q 1719 1941 1194 2672 
L 1725 4328 
L 1119 4328 
L 1119 -872 
L 331 -872 
L 331 5053 
L 2581 5053 
L 2581 4341 
L 1988 2791 
z
" transform="scale(0.015625)"/>
     <path id="MicrosoftYaHei-Bold-6bb5" d="M 113 22 
L 94 859 
L 525 897 
L 525 4947 
Q 1238 4978 2713 5228 
L 2988 4447 
Q 2094 4303 1356 4241 
L 1356 3716 
L 2625 3716 
L 2625 2953 
L 1356 2953 
L 1356 2397 
L 2625 2397 
L 2625 1634 
L 1356 1634 
L 1356 981 
L 2775 1141 
Q 2750 766 2750 347 
L 1356 178 
L 1356 -822 
L 525 -822 
L 525 75 
L 113 22 
z
M 5900 3816 
L 6319 3816 
Q 6231 3422 6169 3047 
L 5519 3047 
Q 4844 3047 4844 3734 
L 4844 4303 
L 3956 4303 
Q 3956 3672 3806 3372 
Q 3656 3072 3319 2791 
Q 3038 3047 2688 3322 
Q 3181 3628 3181 4278 
L 3181 5078 
L 5638 5078 
L 5638 4109 
Q 5638 3816 5900 3816 
z
M 6038 2728 
L 6038 1978 
Q 5703 1163 5119 541 
Q 5684 209 6356 16 
Q 6138 -378 5906 -816 
Q 5088 -503 4438 -53 
Q 3775 -538 2894 -853 
Q 2731 -578 2350 -66 
Q 3138 163 3731 525 
Q 3284 959 2950 1484 
L 3581 1941 
Q 3953 1431 4413 1041 
Q 4834 1447 5100 1959 
L 2788 1959 
L 2788 2728 
L 6038 2728 
z
" transform="scale(0.015625)"/>
     <path id="MicrosoftYaHei-Bold-5956" d="M 2475 3678 
Q 3206 4403 3625 5366 
L 4438 5209 
Q 4294 4925 4141 4666 
L 6156 4666 
L 6156 4053 
Q 5606 2531 3719 1856 
Q 3688 1706 3647 1566 
L 6225 1566 
L 6225 828 
L 3922 828 
Q 4569 141 6300 34 
Q 6150 -234 5875 -866 
Q 3972 -681 3147 538 
Q 2319 -541 400 -859 
Q 269 -434 100 -16 
Q 1706 197 2306 828 
L 200 828 
L 200 1566 
L 2756 1566 
Q 2856 1853 2888 2191 
L 3328 2191 
Q 3228 2331 3100 2491 
Q 3638 2666 4056 2881 
Q 3747 3163 3444 3397 
L 3944 3884 
Q 4234 3663 4684 3275 
Q 5106 3606 5319 4003 
L 3716 4003 
Q 3388 3534 3019 3153 
Q 2794 3391 2475 3678 
z
M 381 2166 
L 125 2972 
Q 950 3263 1600 3534 
L 1600 4184 
L 1075 3678 
Q 556 4222 213 4553 
L 706 5016 
Q 984 4775 1600 4206 
L 1600 5328 
L 2406 5328 
L 2406 1766 
L 1600 1766 
L 1600 2691 
Q 956 2431 381 2166 
z
" transform="scale(0.015625)"/>
     <path id="MicrosoftYaHei-Bold-52b1" d="M 4438 -753 
Q 4394 -381 4328 -47 
Q 4109 -556 3794 -909 
Q 3709 -813 3231 -403 
Q 3113 -634 2897 -721 
Q 2681 -809 2069 -809 
Q 2025 -506 1959 -175 
Q 1806 -600 1600 -934 
Q 1369 -484 1106 -66 
Q 1300 266 1423 697 
Q 1547 1128 1592 1590 
Q 1638 2053 1647 3153 
L 1263 3153 
L 1263 2878 
Q 1263 556 613 -878 
Q 381 -441 75 22 
Q 469 1078 475 2991 
L 475 5103 
L 3688 5103 
L 3688 4328 
L 1263 4328 
L 1263 3903 
L 3463 3903 
L 3463 3153 
L 2391 3153 
Q 2388 2753 2375 2509 
L 3444 2509 
Q 3406 603 3344 -50 
Q 4075 953 4081 3328 
L 3675 3328 
L 3675 4153 
L 4094 4153 
Q 4100 4666 4100 5309 
L 4844 5309 
L 4834 4153 
L 6038 4153 
L 6003 1713 
L 5969 263 
Q 5956 -166 5792 -394 
Q 5628 -622 5383 -683 
Q 5138 -744 4438 -753 
z
M 4397 128 
Q 4581 116 4872 116 
Q 5013 116 5092 197 
Q 5172 278 5195 422 
Q 5219 566 5244 1344 
Q 5269 2122 5269 3328 
L 4825 3328 
Q 4819 1216 4397 128 
z
M 2031 34 
Q 2131 31 2313 22 
Q 2563 16 2606 202 
Q 2650 388 2688 1784 
L 2338 1784 
Q 2263 781 2031 34 
z
" transform="scale(0.015625)"/>
     <path id="MicrosoftYaHei-Bold-5206" d="M 6350 3028 
Q 6088 2703 5750 2228 
Q 5519 2409 5303 2603 
Q 5219 606 5172 190 
Q 5125 -225 4862 -451 
Q 4600 -678 4128 -678 
Q 3484 -678 2913 -659 
Q 2856 -141 2781 284 
Q 3594 216 3956 216 
Q 4172 216 4230 408 
Q 4288 600 4325 1978 
L 2781 1978 
Q 2728 1100 2529 631 
Q 2331 163 1907 -215 
Q 1484 -594 844 -872 
Q 456 -353 194 -78 
Q 750 144 1111 414 
Q 1472 684 1630 989 
Q 1788 1294 1841 1978 
L 950 1978 
L 950 2475 
Q 794 2356 631 2247 
Q 344 2653 63 2953 
Q 1475 3947 2194 5316 
L 3031 4953 
Q 2378 3722 1391 2841 
L 5047 2841 
Q 4088 3766 3463 4903 
L 4238 5303 
Q 5038 3922 6350 3028 
z
" transform="scale(0.015625)"/>
     <path id="MicrosoftYaHei-Bold-5e03" d="M 3919 -834 
L 3050 -834 
L 3050 2034 
L 2063 2034 
L 2063 -359 
L 1200 -359 
L 1200 1641 
Q 825 1238 400 866 
Q 244 1403 113 1741 
Q 1128 2669 1731 3709 
L 200 3709 
L 200 4541 
L 2141 4541 
Q 2294 4916 2400 5303 
L 3275 5203 
Q 3169 4866 3038 4541 
L 6250 4541 
L 6250 3709 
L 2659 3709 
Q 2406 3222 2094 2766 
L 3050 2766 
L 3050 3566 
L 3919 3566 
L 3919 2766 
L 5800 2766 
L 5800 741 
Q 5800 338 5628 112 
Q 5456 -113 5178 -164 
Q 4900 -216 4306 -216 
Q 4225 291 4156 609 
Q 4456 584 4544 584 
Q 4950 584 4950 1034 
L 4950 2034 
L 3919 2034 
L 3919 -834 
z
" transform="scale(0.015625)"/>
     <path id="MicrosoftYaHei-Bold-3a" d="M 313 2969 
Q 313 3200 491 3350 
Q 669 3500 916 3500 
Q 1166 3500 1337 3350 
Q 1509 3200 1509 2969 
Q 1509 2728 1337 2579 
Q 1166 2431 903 2431 
Q 653 2431 483 2584 
Q 313 2738 313 2969 
z
M 313 453 
Q 313 688 491 838 
Q 669 988 916 988 
Q 1166 988 1337 834 
Q 1509 681 1509 453 
Q 1509 213 1337 64 
Q 1166 -84 903 -84 
Q 659 -84 486 69 
Q 313 222 313 453 
z
" transform="scale(0.015625)"/>
     <path id="MicrosoftYaHei-Bold-20" transform="scale(0.015625)"/>
     <path id="MicrosoftYaHei-Bold-64" d="M 3794 0 
L 2788 0 
L 2788 488 
L 2772 488 
Q 2406 -84 1691 -84 
Q 1031 -84 642 381 
Q 253 847 253 1650 
Q 253 2500 689 3020 
Q 1125 3541 1828 3541 
Q 2503 3541 2772 3053 
L 2788 3053 
L 2788 5116 
L 3794 5116 
L 3794 0 
z
M 2803 1956 
Q 2803 2306 2592 2536 
Q 2381 2766 2066 2766 
Q 1697 2766 1486 2473 
Q 1275 2181 1275 1681 
Q 1275 1206 1478 948 
Q 1681 691 2038 691 
Q 2372 691 2587 962 
Q 2803 1234 2803 1669 
L 2803 1956 
z
" transform="scale(0.015625)"/>
     <path id="MicrosoftYaHei-Bold-65" d="M 3528 1444 
L 1253 1444 
Q 1306 641 2222 641 
Q 2794 641 3231 922 
L 3231 181 
Q 2759 -84 1994 -84 
Q 1169 -84 711 381 
Q 253 847 253 1678 
Q 253 2506 740 3023 
Q 1228 3541 1966 3541 
Q 2700 3541 3114 3095 
Q 3528 2650 3528 1872 
L 3528 1444 
z
M 2588 2075 
Q 2588 2850 1959 2850 
Q 1700 2850 1500 2637 
Q 1300 2425 1250 2075 
L 2588 2075 
z
" transform="scale(0.015625)"/>
     <path id="MicrosoftYaHei-Bold-66" d="M 2653 4338 
Q 2447 4419 2263 4419 
Q 1744 4419 1744 3844 
L 1744 3456 
L 2531 3456 
L 2531 2703 
L 1744 2703 
L 1744 0 
L 734 0 
L 734 2703 
L 156 2703 
L 156 3456 
L 734 3456 
L 734 3900 
Q 734 4491 1118 4844 
Q 1503 5197 2128 5197 
Q 2447 5197 2653 5131 
L 2653 4338 
z
" transform="scale(0.015625)"/>
     <path id="MicrosoftYaHei-Bold-61" d="M 544 3247 
Q 778 3378 1170 3459 
Q 1563 3541 1841 3541 
Q 3291 3541 3291 2088 
L 3291 0 
L 2331 0 
L 2331 503 
L 2319 503 
Q 1966 -84 1284 -84 
Q 794 -84 498 195 
Q 203 475 203 956 
Q 203 1950 1388 2113 
L 2338 2241 
Q 2338 2844 1709 2844 
Q 1091 2844 544 2469 
L 544 3247 
z
M 1684 1566 
Q 1138 1494 1138 1072 
Q 1138 878 1270 759 
Q 1403 641 1628 641 
Q 1938 641 2138 859 
Q 2338 1078 2338 1403 
L 2338 1650 
L 1684 1566 
z
" transform="scale(0.015625)"/>
     <path id="MicrosoftYaHei-Bold-75" d="M 3691 0 
L 2688 0 
L 2688 528 
L 2672 528 
Q 2284 -84 1613 -84 
Q 406 -84 406 1372 
L 406 3456 
L 1416 3456 
L 1416 1466 
Q 1416 691 2022 691 
Q 2325 691 2506 903 
Q 2688 1116 2688 1478 
L 2688 3456 
L 3691 3456 
L 3691 0 
z
" transform="scale(0.015625)"/>
     <path id="MicrosoftYaHei-Bold-6c" d="M 444 0 
L 444 5116 
L 1450 5116 
L 1450 0 
L 444 0 
z
" transform="scale(0.015625)"/>
     <path id="MicrosoftYaHei-Bold-74" d="M 2494 41 
Q 2266 -84 1803 -84 
Q 703 -84 703 1072 
L 703 2703 
L 134 2703 
L 134 3456 
L 703 3456 
L 703 4216 
L 1706 4503 
L 1706 3456 
L 2494 3456 
L 2494 2703 
L 1706 2703 
L 1706 1247 
Q 1706 694 2144 694 
Q 2313 694 2494 794 
L 2494 41 
z
" transform="scale(0.015625)"/>
     <path id="MicrosoftYaHei-Bold-5f" d="M 2869 -1675 
L 0 -1675 
L 0 -1272 
L 2869 -1272 
L 2869 -1675 
z
" transform="scale(0.015625)"/>
     <path id="MicrosoftYaHei-Bold-70" d="M 1469 416 
L 1469 -1591 
L 459 -1591 
L 459 3456 
L 1469 3456 
L 1469 2928 
L 1481 2928 
Q 1878 3541 2603 3541 
Q 3263 3541 3634 3080 
Q 4006 2619 4006 1825 
Q 4006 959 3575 437 
Q 3144 -84 2444 -84 
Q 1809 -84 1481 416 
L 1469 416 
z
M 1453 1528 
Q 1453 1159 1653 925 
Q 1853 691 2172 691 
Q 2550 691 2761 984 
Q 2972 1278 2972 1816 
Q 2972 2766 2231 2766 
Q 1888 2766 1670 2503 
Q 1453 2241 1453 1828 
L 1453 1528 
z
" transform="scale(0.015625)"/>
     <path id="MicrosoftYaHei-Bold-72" d="M 2663 2541 
Q 2478 2647 2216 2647 
Q 1872 2647 1670 2384 
Q 1469 2122 1469 1663 
L 1469 0 
L 459 0 
L 459 3456 
L 1469 3456 
L 1469 2806 
L 1481 2806 
Q 1731 3516 2391 3516 
Q 2569 3516 2663 3475 
L 2663 2541 
z
" transform="scale(0.015625)"/>
     <path id="MicrosoftYaHei-Bold-6d" d="M 5881 0 
L 4875 0 
L 4875 1972 
Q 4875 2766 4297 2766 
Q 4028 2766 3850 2525 
Q 3672 2284 3672 1938 
L 3672 0 
L 2666 0 
L 2666 1997 
Q 2666 2766 2094 2766 
Q 1809 2766 1639 2536 
Q 1469 2306 1469 1928 
L 1469 0 
L 459 0 
L 459 3456 
L 1469 3456 
L 1469 2916 
L 1481 2916 
Q 1663 3213 1963 3377 
Q 2263 3541 2594 3541 
Q 3322 3541 3591 2888 
Q 3991 3541 4753 3541 
Q 5881 3541 5881 2147 
L 5881 0 
z
" transform="scale(0.015625)"/>
     <path id="MicrosoftYaHei-Bold-73" d="M 369 928 
Q 888 613 1384 613 
Q 2009 613 2009 947 
Q 2009 1184 1494 1344 
Q 850 1544 609 1789 
Q 369 2034 369 2453 
Q 369 2963 781 3252 
Q 1194 3541 1863 3541 
Q 2338 3541 2778 3400 
L 2778 2606 
Q 2375 2844 1891 2844 
Q 1650 2844 1503 2758 
Q 1356 2672 1356 2531 
Q 1356 2294 1794 2147 
Q 2263 1991 2498 1862 
Q 2734 1734 2857 1525 
Q 2981 1316 2981 1041 
Q 2981 506 2553 211 
Q 2125 -84 1409 -84 
Q 847 -84 369 94 
L 369 928 
z
" transform="scale(0.015625)"/>
     <path id="MicrosoftYaHei-Bold-2d" d="M 2328 1497 
L 481 1497 
L 481 2209 
L 2328 2209 
L 2328 1497 
z
" transform="scale(0.015625)"/>
     <path id="MicrosoftYaHei-Bold-41" d="M 4759 0 
L 3634 0 
L 3272 1109 
L 1513 1109 
L 1156 0 
L 38 0 
L 1809 4841 
L 3022 4841 
L 4759 0 
z
M 3028 1906 
L 2478 3584 
Q 2425 3744 2403 4006 
L 2375 4006 
Q 2356 3794 2291 3597 
L 1738 1906 
L 3028 1906 
z
" transform="scale(0.015625)"/>
     <path id="MicrosoftYaHei-Bold-32" d="M 1500 841 
L 3553 841 
L 3553 0 
L 334 0 
L 334 359 
Q 334 738 473 1050 
Q 613 1363 856 1633 
Q 1100 1903 1613 2266 
Q 2081 2616 2268 2886 
Q 2456 3156 2456 3459 
Q 2456 4113 1744 4113 
Q 1119 4113 550 3613 
L 550 4513 
Q 1184 4922 1975 4922 
Q 2700 4922 3122 4551 
Q 3544 4181 3544 3531 
Q 3544 3169 3422 2876 
Q 3300 2584 3069 2328 
Q 2838 2072 2328 1713 
Q 1838 1363 1669 1172 
Q 1500 981 1500 841 
z
" transform="scale(0.015625)"/>
     <path id="MicrosoftYaHei-Bold-43" d="M 4013 175 
Q 3484 -84 2634 -84 
Q 1541 -84 898 570 
Q 256 1225 256 2316 
Q 256 3463 973 4192 
Q 1691 4922 2825 4922 
Q 3534 4922 4013 4738 
L 4013 3741 
Q 3522 4028 2900 4028 
Q 2191 4028 1766 3575 
Q 1341 3122 1341 2391 
Q 1341 1678 1744 1243 
Q 2147 809 2834 809 
Q 3481 809 4013 1122 
L 4013 175 
z
" transform="scale(0.015625)"/>
     <path id="MicrosoftYaHei-Bold-521d" d="M 1288 5359 
Q 1619 4997 2031 4453 
L 1516 4109 
L 2294 4109 
L 2294 3378 
Q 2019 2847 1700 2369 
L 1700 2256 
Q 1809 2175 1909 2097 
Q 2209 2516 2419 2878 
L 2994 2516 
Q 2716 2138 2381 1734 
Q 2619 1544 2813 1378 
L 2363 834 
Q 2016 1166 1700 1441 
L 1700 -866 
L 913 -866 
L 913 1338 
Q 641 1025 344 741 
Q 231 1228 94 1678 
Q 831 2278 1363 3303 
L 156 3303 
L 156 4109 
L 1231 4109 
Q 981 4472 613 4928 
L 1288 5359 
z
M 3919 -697 
Q 3838 -266 3700 253 
Q 4153 209 4563 209 
Q 5006 209 5040 675 
Q 5075 1141 5113 4159 
L 4097 4159 
Q 4050 2622 3984 1959 
Q 3919 1297 3595 525 
Q 3272 -247 2644 -859 
Q 2369 -578 1925 -216 
Q 2450 234 2734 806 
Q 3019 1378 3105 1972 
Q 3191 2566 3219 4159 
L 2488 4159 
L 2488 4947 
L 6013 4947 
L 5938 1331 
L 5906 491 
Q 5906 -44 5686 -328 
Q 5466 -613 5067 -647 
Q 4669 -681 3919 -697 
z
" transform="scale(0.015625)"/>
     <path id="MicrosoftYaHei-Bold-59cb" d="M 2863 -853 
L 2863 356 
L 2256 -291 
Q 2000 -25 1744 225 
Q 1309 -381 638 -847 
Q 350 -466 69 -153 
Q 706 259 1119 816 
Q 669 1228 225 1597 
Q 441 2363 616 3359 
L 119 3359 
L 119 4134 
L 741 4134 
Q 825 4706 900 5347 
L 1731 5259 
L 1550 4134 
L 2669 4134 
Q 2663 3728 2638 3363 
Q 3213 3972 3875 5359 
L 4800 5097 
Q 4225 4159 3594 3378 
Q 4328 3422 5075 3484 
Q 4847 3944 4619 4359 
L 5294 4634 
Q 5831 3747 6369 2659 
L 5613 2341 
L 5391 2828 
Q 3522 2697 2863 2578 
L 2625 3169 
Q 2519 1791 2156 953 
L 2863 394 
L 2863 2116 
L 5981 2116 
L 5981 -828 
L 5144 -828 
L 5144 -472 
L 3700 -472 
L 3700 -853 
L 2863 -853 
z
M 1088 1797 
L 1503 1469 
Q 1809 2241 1863 3359 
L 1413 3359 
Q 1259 2541 1088 1797 
z
M 5144 1328 
L 3700 1328 
L 3700 316 
L 5144 316 
L 5144 1328 
z
" transform="scale(0.015625)"/>
     <path id="MicrosoftYaHei-Bold-28" d="M 1606 -1100 
Q 525 97 525 1853 
Q 525 3550 1606 4841 
L 2431 4841 
Q 1406 3497 1406 1853 
Q 1406 216 2438 -1100 
L 1606 -1100 
z
" transform="scale(0.015625)"/>
     <path id="MicrosoftYaHei-Bold-6b63" d="M 138 303 
L 1050 303 
L 1050 3397 
L 1975 3397 
L 1975 303 
L 3056 303 
L 3056 4078 
L 388 4078 
L 388 4934 
L 6056 4934 
L 6056 4078 
L 4000 4078 
L 4000 2709 
L 5838 2709 
L 5838 1859 
L 4000 1859 
L 4000 303 
L 6263 303 
L 6263 -553 
L 138 -553 
L 138 303 
z
" transform="scale(0.015625)"/>
     <path id="MicrosoftYaHei-Bold-6001" d="M 300 4628 
L 2656 4628 
Q 2719 4953 2700 5334 
L 3625 5334 
Q 3613 4947 3584 4628 
L 6100 4628 
L 6100 3878 
L 3981 3878 
Q 4788 3000 6313 2703 
Q 6063 2228 5869 1784 
Q 4159 2303 3206 3700 
Q 2500 2331 588 1703 
Q 356 2197 88 2616 
Q 1869 3028 2369 3878 
L 300 3878 
L 300 4628 
z
M 2919 3022 
Q 3356 2753 3950 2347 
L 3388 1784 
Q 2863 2222 2406 2528 
L 2919 3022 
z
M 2975 1941 
Q 3619 1559 4163 1166 
L 3644 566 
Q 3119 997 2506 1372 
L 2975 1941 
z
M 5494 1709 
Q 5969 997 6331 278 
L 5588 -128 
Q 5244 603 4775 1353 
L 5494 1709 
z
M 4350 872 
Q 4813 647 5213 497 
Q 5022 -278 4744 -509 
Q 4466 -741 3913 -741 
L 2500 -741 
Q 1563 -741 1563 184 
L 1563 1491 
L 2388 1491 
L 2388 391 
Q 2388 9 2775 9 
L 3713 9 
Q 4019 9 4147 143 
Q 4275 278 4350 872 
z
M 663 1466 
L 1438 1203 
Q 1119 253 863 -353 
L 81 -53 
Q 413 659 663 1466 
z
" transform="scale(0.015625)"/>
     <path id="MicrosoftYaHei-Bold-5927" d="M 213 3728 
L 2681 3728 
Q 2725 4409 2719 5303 
L 3669 5303 
Q 3650 4375 3619 3728 
L 6200 3728 
L 6200 2866 
L 3691 2866 
Q 4228 778 6288 59 
Q 5844 -447 5575 -803 
Q 3872 -3 3203 1775 
Q 2684 147 806 -847 
Q 556 -528 100 -47 
Q 2375 984 2591 2866 
L 213 2866 
L 213 3728 
z
" transform="scale(0.015625)"/>
     <path id="MicrosoftYaHei-Bold-5e45" d="M 850 447 
L 319 447 
L 319 4278 
L 1088 4278 
L 1088 5328 
L 1763 5328 
L 1763 4278 
L 2525 4278 
L 2525 1153 
Q 2525 959 2456 723 
Q 2388 488 1844 503 
Q 1822 784 1763 1116 
L 1763 -847 
L 1088 -847 
L 1088 3528 
L 850 3528 
L 850 447 
z
M 2000 1403 
L 2000 3528 
L 1763 3528 
L 1763 1188 
Q 2000 1141 2000 1403 
z
M 2606 5016 
L 6169 5016 
L 6169 4366 
L 2606 4366 
L 2606 5016 
z
M 2919 4072 
L 5856 4072 
L 5856 2484 
L 2919 2484 
L 2919 4072 
z
M 5056 3447 
L 3719 3447 
L 3719 3109 
L 5056 3109 
L 5056 3447 
z
M 2688 2191 
L 6088 2191 
L 6088 -809 
L 5338 -809 
L 5338 -484 
L 3438 -484 
L 3438 -809 
L 2688 -809 
L 2688 2191 
z
M 3438 1141 
L 4038 1141 
L 4038 1591 
L 3438 1591 
L 3438 1141 
z
M 5338 1591 
L 4738 1591 
L 4738 1141 
L 5338 1141 
L 5338 1591 
z
M 3438 116 
L 4038 116 
L 4038 566 
L 3438 566 
L 3438 116 
z
M 4738 116 
L 5338 116 
L 5338 566 
L 4738 566 
L 4738 116 
z
" transform="scale(0.015625)"/>
     <path id="MicrosoftYaHei-Bold-5747" d="M 250 -397 
L 88 547 
Q 425 628 794 725 
L 794 2847 
L 213 2847 
L 213 3703 
L 794 3703 
L 794 5322 
L 1638 5322 
L 1638 3703 
L 2156 3703 
L 2156 3269 
Q 2794 4313 3075 5366 
L 3925 5266 
Q 3809 4866 3669 4491 
L 6069 4491 
L 6016 1816 
L 5966 303 
Q 5944 -194 5730 -450 
Q 5516 -706 5167 -745 
Q 4819 -784 3775 -797 
Q 3700 -397 3556 153 
Q 4178 103 4625 103 
Q 4819 103 4955 208 
Q 5091 313 5105 575 
Q 5119 838 5141 1619 
L 5181 3703 
L 3341 3703 
Q 3059 3088 2706 2541 
Q 2463 2763 2156 3003 
L 2156 2847 
L 1638 2847 
L 1638 959 
L 2288 1153 
Q 2275 878 2269 253 
Q 963 -134 250 -397 
z
M 3556 3353 
Q 4106 2922 4588 2466 
L 4006 1891 
Q 3500 2403 3019 2822 
L 3556 3353 
z
M 2719 209 
L 2500 1128 
Q 3650 1534 4938 2059 
Q 4956 1566 5000 1153 
Q 3894 728 2719 209 
z
" transform="scale(0.015625)"/>
     <path id="MicrosoftYaHei-Bold-503c" d="M 1638 3 
L 2100 3 
L 2100 3728 
L 3556 3728 
L 3556 4097 
L 1950 4097 
L 1950 4797 
L 3556 4797 
L 3556 5266 
L 4381 5266 
L 4381 4797 
L 6175 4797 
L 6175 4097 
L 4381 4097 
L 4381 3728 
L 5888 3728 
L 5888 3 
L 6325 3 
L 6325 -697 
L 1638 -697 
L 1638 3 
z
M 1125 5347 
L 1950 5128 
Q 1713 4378 1419 3666 
L 1419 -853 
L 625 -853 
L 625 2022 
Q 456 1716 275 1422 
Q 200 1916 69 2591 
Q 675 3803 1125 5347 
z
M 2888 1853 
L 5100 1853 
L 5100 2178 
L 2888 2178 
L 2888 1853 
z
M 2888 928 
L 5100 928 
L 5100 1253 
L 2888 1253 
L 2888 928 
z
M 5100 3103 
L 2888 3103 
L 2888 2778 
L 5100 2778 
L 5100 3103 
z
M 2888 3 
L 5100 3 
L 5100 328 
L 2888 328 
L 2888 3 
z
" transform="scale(0.015625)"/>
     <path id="MicrosoftYaHei-Bold-6539" d="M 3475 5347 
L 4294 5184 
Q 4206 4753 4106 4366 
L 6250 4366 
L 6250 3534 
L 5822 3534 
Q 5650 1950 4966 941 
Q 5528 356 6325 -34 
L 5775 -841 
Q 4969 -359 4400 259 
Q 3772 -378 2931 -847 
Q 2769 -559 2419 -41 
Q 3259 375 3853 969 
Q 3472 1563 3266 2259 
Q 3166 2103 3063 1966 
Q 2834 2322 2650 2559 
L 2650 2078 
L 1225 2078 
L 1225 491 
Q 1781 791 2550 1172 
Q 2569 897 2656 322 
Q 1069 -472 700 -822 
L 238 -209 
Q 406 -3 400 316 
L 400 2878 
L 1825 2878 
L 1825 4091 
L 250 4091 
L 250 4891 
L 2650 4891 
L 2650 2897 
Q 3234 3900 3475 5347 
z
M 4403 1666 
Q 4819 2391 5000 3534 
L 3856 3534 
Q 3813 3409 3766 3291 
Q 3959 2375 4403 1666 
z
" transform="scale(0.015625)"/>
     <path id="MicrosoftYaHei-Bold-53d8" d="M 231 4616 
L 2734 4616 
L 2525 5128 
L 3425 5353 
L 3741 4616 
L 6175 4616 
L 6175 3878 
L 4350 3878 
L 4350 2434 
L 3550 2434 
L 3550 3878 
L 2850 3878 
L 2850 2434 
L 2050 2434 
L 2050 3878 
L 231 3878 
L 231 4616 
z
M 1488 3778 
L 2019 3228 
Q 1338 2684 550 2184 
Q 325 2541 88 2828 
Q 844 3272 1488 3778 
z
M 4881 3728 
Q 5538 3328 6306 2778 
L 5769 2159 
Q 5119 2666 4406 3178 
L 4881 3728 
z
M 5300 2272 
L 5300 1566 
Q 4847 913 4144 422 
Q 5063 147 6288 84 
Q 6194 -84 5825 -822 
Q 4297 -663 3200 -116 
Q 2088 -634 544 -884 
Q 363 -497 94 -66 
Q 1359 84 2338 425 
Q 1741 894 1331 1534 
L 900 1534 
L 900 2272 
L 5300 2272 
z
M 3213 794 
Q 3834 1113 4300 1534 
L 2238 1534 
Q 2631 1100 3213 794 
z
" transform="scale(0.015625)"/>
     <path id="MicrosoftYaHei-Bold-3bc" d="M 2747 550 
Q 2528 -78 1938 -78 
Q 1647 -78 1484 97 
L 1469 97 
L 1469 -1366 
L 459 -1366 
L 459 3456 
L 1469 3456 
L 1469 1456 
Q 1469 728 2069 728 
Q 2713 728 2713 1613 
L 2713 3456 
L 3731 3456 
L 3728 1328 
Q 3728 1047 3795 906 
Q 3863 766 4041 766 
Q 4125 766 4222 797 
L 4222 28 
Q 3944 -50 3631 -50 
Q 2897 -50 2759 550 
L 2747 550 
z
" transform="scale(0.015625)"/>
     <path id="MicrosoftYaHei-Bold-31" d="M 2716 4947 
L 2716 0 
L 1700 0 
L 1700 3809 
Q 1513 3647 1188 3517 
Q 863 3388 591 3356 
L 591 4222 
Q 1447 4472 2072 4947 
L 2716 4947 
z
" transform="scale(0.015625)"/>
     <path id="MicrosoftYaHei-Bold-34" d="M 3184 4841 
L 3184 1766 
L 3869 1766 
L 3869 1031 
L 3184 1031 
L 3184 0 
L 2266 0 
L 2266 1031 
L 103 1031 
L 103 1772 
Q 775 2522 1362 3359 
Q 1950 4197 2250 4841 
L 3184 4841 
z
M 997 1766 
L 2266 1766 
L 2266 3541 
Q 2116 3259 1836 2859 
Q 1556 2459 997 1766 
z
" transform="scale(0.015625)"/>
     <path id="MicrosoftYaHei-Bold-2c" d="M 1419 841 
L 916 -859 
L 134 -859 
L 484 841 
L 1419 841 
z
" transform="scale(0.015625)"/>
     <path id="MicrosoftYaHei-Bold-3c3" d="M 4147 2725 
L 3375 2725 
Q 3753 2244 3753 1616 
Q 3753 838 3286 377 
Q 2819 -84 2031 -84 
Q 1219 -84 736 405 
Q 253 894 253 1719 
Q 253 2572 720 3014 
Q 1188 3456 2097 3456 
L 4147 3456 
L 4147 2725 
z
M 2188 2725 
Q 1284 2725 1284 1678 
Q 1284 1244 1478 969 
Q 1672 694 2025 694 
Q 2356 694 2540 966 
Q 2725 1238 2725 1722 
Q 2725 2288 2447 2725 
L 2188 2725 
z
" transform="scale(0.015625)"/>
     <path id="MicrosoftYaHei-Bold-29" d="M 59 -1100 
Q 1097 216 1097 1853 
Q 1097 3484 59 4841 
L 888 4841 
Q 1978 3544 1978 1853 
Q 1978 113 881 -1100 
L 59 -1100 
z
" transform="scale(0.015625)"/>
    </defs>
    <use xlink:href="#MicrosoftYaHei-Bold-8bad"/>
    <use xlink:href="#MicrosoftYaHei-Bold-7ec3" transform="translate(100 0)"/>
    <use xlink:href="#MicrosoftYaHei-Bold-9636" transform="translate(200 0)"/>
    <use xlink:href="#MicrosoftYaHei-Bold-6bb5" transform="translate(300 0)"/>
    <use xlink:href="#MicrosoftYaHei-Bold-5956" transform="translate(400 0)"/>
    <use xlink:href="#MicrosoftYaHei-Bold-52b1" transform="translate(500 0)"/>
    <use xlink:href="#MicrosoftYaHei-Bold-5206" transform="translate(600 0)"/>
    <use xlink:href="#MicrosoftYaHei-Bold-5e03" transform="translate(700 0)"/>
    <use xlink:href="#MicrosoftYaHei-Bold-3a" transform="translate(800 0)"/>
    <use xlink:href="#MicrosoftYaHei-Bold-20" transform="translate(828.564453 0)"/>
    <use xlink:href="#MicrosoftYaHei-Bold-64" transform="translate(858.349609 0)"/>
    <use xlink:href="#MicrosoftYaHei-Bold-65" transform="translate(924.804688 0)"/>
    <use xlink:href="#MicrosoftYaHei-Bold-66" transform="translate(983.007812 0)"/>
    <use xlink:href="#MicrosoftYaHei-Bold-61" transform="translate(1023.535156 0)"/>
    <use xlink:href="#MicrosoftYaHei-Bold-75" transform="translate(1081.298828 0)"/>
    <use xlink:href="#MicrosoftYaHei-Bold-6c" transform="translate(1146.09375 0)"/>
    <use xlink:href="#MicrosoftYaHei-Bold-74" transform="translate(1175.683594 0)"/>
    <use xlink:href="#MicrosoftYaHei-Bold-5f" transform="translate(1217.089844 0)"/>
    <use xlink:href="#MicrosoftYaHei-Bold-70" transform="translate(1261.914062 0)"/>
    <use xlink:href="#MicrosoftYaHei-Bold-61" transform="translate(1327.390625 0)"/>
    <use xlink:href="#MicrosoftYaHei-Bold-72" transform="translate(1385.154297 0)"/>
    <use xlink:href="#MicrosoftYaHei-Bold-61" transform="translate(1427.537109 0)"/>
    <use xlink:href="#MicrosoftYaHei-Bold-6d" transform="translate(1485.300781 0)"/>
    <use xlink:href="#MicrosoftYaHei-Bold-73" transform="translate(1583.494141 0)"/>
    <use xlink:href="#MicrosoftYaHei-Bold-20" transform="translate(1632.859375 0)"/>
    <use xlink:href="#MicrosoftYaHei-Bold-2d" transform="translate(1662.644531 0)"/>
    <use xlink:href="#MicrosoftYaHei-Bold-20" transform="translate(1706.296875 0)"/>
    <use xlink:href="#MicrosoftYaHei-Bold-41" transform="translate(1736.082031 0)"/>
    <use xlink:href="#MicrosoftYaHei-Bold-32" transform="translate(1811.277344 0)"/>
    <use xlink:href="#MicrosoftYaHei-Bold-43" transform="translate(1872.947266 0)"/>
    <use xlink:href="#MicrosoftYaHei-Bold-20" transform="translate(1940.28125 0)"/>
    <use xlink:href="#MicrosoftYaHei-Bold-2d" transform="translate(1970.066406 0)"/>
    <use xlink:href="#MicrosoftYaHei-Bold-20" transform="translate(2013.71875 0)"/>
    <use xlink:href="#MicrosoftYaHei-Bold-521d" transform="translate(2043.503906 0)"/>
    <use xlink:href="#MicrosoftYaHei-Bold-59cb" transform="translate(2143.503906 0)"/>
    <use xlink:href="#MicrosoftYaHei-Bold-8bad" transform="translate(2243.503906 0)"/>
    <use xlink:href="#MicrosoftYaHei-Bold-7ec3" transform="translate(2343.503906 0)"/>
    <use xlink:href="#MicrosoftYaHei-Bold-20" transform="translate(2443.503906 0)"/>
    <use xlink:href="#MicrosoftYaHei-Bold-28" transform="translate(2473.289062 0)"/>
    <use xlink:href="#MicrosoftYaHei-Bold-6b63" transform="translate(2512.253906 0)"/>
    <use xlink:href="#MicrosoftYaHei-Bold-6001" transform="translate(2612.253906 0)"/>
    <use xlink:href="#MicrosoftYaHei-Bold-2d" transform="translate(2712.253906 0)"/>
    <use xlink:href="#MicrosoftYaHei-Bold-5927" transform="translate(2755.90625 0)"/>
    <use xlink:href="#MicrosoftYaHei-Bold-5e45" transform="translate(2855.90625 0)"/>
    <use xlink:href="#MicrosoftYaHei-Bold-5747" transform="translate(2955.90625 0)"/>
    <use xlink:href="#MicrosoftYaHei-Bold-503c" transform="translate(3055.90625 0)"/>
    <use xlink:href="#MicrosoftYaHei-Bold-6539" transform="translate(3155.90625 0)"/>
    <use xlink:href="#MicrosoftYaHei-Bold-53d8" transform="translate(3255.90625 0)"/>
    <use xlink:href="#MicrosoftYaHei-Bold-28" transform="translate(3355.90625 0)"/>
    <use xlink:href="#MicrosoftYaHei-Bold-3bc" transform="translate(3394.871094 0)"/>
    <use xlink:href="#MicrosoftYaHei-Bold-31" transform="translate(3461.960938 0)"/>
    <use xlink:href="#MicrosoftYaHei-Bold-34" transform="translate(3523.630859 0)"/>
    <use xlink:href="#MicrosoftYaHei-Bold-2c" transform="translate(3585.300781 0)"/>
    <use xlink:href="#MicrosoftYaHei-Bold-3c3" transform="translate(3613.865234 0)"/>
    <use xlink:href="#MicrosoftYaHei-Bold-32" transform="translate(3679.587891 0)"/>
    <use xlink:href="#MicrosoftYaHei-Bold-29" transform="translate(3741.257812 0)"/>
    <use xlink:href="#MicrosoftYaHei-Bold-29" transform="translate(3780.222656 0)"/>
   </g>
   <!-- (环境: 正态-大幅均值改变(μ14,σ2 | 复杂度: 0.02) -->
   <g style="fill: #262626" transform="translate(249.629063 40.9005) scale(0.16 -0.16)">
    <defs>
     <path id="MicrosoftYaHei-Bold-73af" d="M 5163 2916 
Q 5825 1797 6300 878 
L 5544 472 
Q 5081 1400 4550 2413 
L 4550 -834 
L 3706 -834 
L 3706 2013 
Q 3272 1200 2700 484 
Q 2525 641 2378 766 
Q 2347 503 2331 9 
L 175 -328 
L 81 522 
L 863 613 
L 863 2003 
L 213 2003 
L 213 2834 
L 863 2834 
L 863 4066 
L 175 4066 
L 175 4897 
L 2375 4897 
L 2375 4066 
L 1694 4066 
L 1694 2834 
L 2356 2834 
L 2356 2003 
L 1694 2003 
L 1694 728 
L 2306 825 
Q 2134 972 2000 1072 
Q 3194 2478 3675 4084 
L 2606 4084 
L 2606 4916 
L 6075 4916 
L 6075 4084 
L 4556 4084 
Q 4400 3559 4200 3066 
L 4550 3066 
L 4550 2591 
L 5163 2916 
z
" transform="scale(0.015625)"/>
     <path id="MicrosoftYaHei-Bold-5883" d="M 6044 4241 
L 5000 4241 
L 5563 4103 
Q 5450 3944 5322 3778 
L 6231 3778 
L 6231 3153 
L 2113 3153 
L 2113 3778 
L 2863 3778 
L 2638 4109 
L 3228 4241 
L 2256 4241 
L 2256 4866 
L 3591 4866 
Q 3506 5028 3400 5209 
L 4438 5353 
Q 4509 5125 4575 4866 
L 6044 4866 
L 6044 4241 
z
M 3853 3778 
L 4350 3778 
Q 4506 4009 4625 4241 
L 3503 4241 
Q 3681 4041 3853 3778 
z
M 263 -328 
L 100 603 
L 706 775 
L 706 2997 
L 175 2997 
L 175 3853 
L 706 3853 
L 706 5328 
L 1544 5328 
L 1544 3853 
L 1981 3853 
L 1981 2997 
L 1544 2997 
L 1544 1025 
L 2094 1197 
Q 2081 981 2081 759 
Q 2081 538 2094 309 
Q 1213 16 263 -328 
z
M 2244 2878 
L 5894 2878 
L 5894 603 
L 5038 603 
L 5038 141 
Q 5038 -91 5269 -91 
Q 5441 -91 5512 7 
Q 5584 106 5619 584 
Q 5956 428 6319 322 
Q 6284 66 6212 -223 
Q 6141 -513 5908 -652 
Q 5675 -791 5281 -791 
L 5006 -791 
Q 4238 -791 4238 -97 
L 4238 603 
L 3841 603 
Q 3647 -478 2331 -909 
Q 2125 -622 1763 -178 
Q 2781 88 2994 603 
L 2244 603 
L 2244 2878 
z
M 5094 2291 
L 3044 2291 
L 3044 2009 
L 5094 2009 
L 5094 2291 
z
M 5094 1191 
L 5094 1472 
L 3044 1472 
L 3044 1191 
L 5094 1191 
z
" transform="scale(0.015625)"/>
     <path id="MicrosoftYaHei-Bold-7c" d="M 1500 -1622 
L 691 -1622 
L 691 5288 
L 1500 5288 
L 1500 -1622 
z
" transform="scale(0.015625)"/>
     <path id="MicrosoftYaHei-Bold-590d" d="M 5738 1528 
L 5738 1003 
Q 5091 600 4322 259 
Q 5197 78 6306 -16 
Q 6000 -428 5819 -791 
Q 4391 -569 3278 -153 
Q 2125 -559 744 -853 
Q 550 -541 275 -178 
Q 1394 3 2341 256 
Q 1872 500 1478 788 
Q 1069 416 581 116 
Q 363 391 75 691 
Q 925 1194 1459 1816 
L 844 1816 
L 844 3406 
Q 600 3128 325 2872 
Q 238 3266 94 3759 
Q 831 4484 1188 5334 
L 2063 5334 
Q 1978 5144 1888 4959 
L 6181 4959 
L 6181 4334 
L 1538 4334 
Q 1434 4172 1325 4016 
L 5738 4016 
L 5738 1816 
L 2372 1816 
Q 2272 1666 2163 1528 
L 5738 1528 
z
M 4906 3478 
L 1675 3478 
L 1675 3141 
L 4906 3141 
L 4906 3478 
z
M 4906 2353 
L 4906 2691 
L 1675 2691 
L 1675 2353 
L 4906 2353 
z
M 3269 541 
Q 3897 753 4438 1009 
L 2231 1009 
Q 2669 744 3269 541 
z
" transform="scale(0.015625)"/>
     <path id="MicrosoftYaHei-Bold-6742" d="M 5500 4203 
Q 5919 4078 6338 3978 
Q 6269 3328 6188 2984 
Q 6063 2453 5400 2453 
L 4600 2453 
Q 3900 2453 3900 3153 
L 3900 3997 
L 2781 3997 
Q 2588 2603 613 2141 
Q 419 2466 106 2884 
Q 1644 3172 1869 3997 
L 456 3997 
L 456 4753 
L 1981 4753 
Q 2006 5053 2006 5328 
L 2894 5328 
Q 2894 5084 2869 4753 
L 4800 4753 
L 4800 3459 
Q 4800 3203 5056 3203 
L 5206 3203 
Q 5394 3203 5431 3466 
Q 5469 3816 5500 4203 
z
M 188 2072 
L 2800 2072 
L 2800 2666 
L 3706 2666 
L 3706 2072 
L 6175 2072 
L 6175 1309 
L 3706 1309 
L 3706 159 
Q 3706 -684 2900 -766 
Q 2613 -797 2000 -803 
Q 1906 -334 1794 72 
Q 2200 41 2456 41 
Q 2800 41 2800 403 
L 2800 1309 
L 188 1309 
L 188 2072 
z
M 4000 597 
L 4519 1172 
Q 5425 628 6263 34 
L 5725 -634 
Q 4956 -34 4000 597 
z
M 1675 1166 
L 2263 559 
Q 1406 -84 538 -634 
Q 288 -247 63 66 
Q 963 566 1675 1166 
z
" transform="scale(0.015625)"/>
     <path id="MicrosoftYaHei-Bold-5ea6" d="M 5656 1697 
L 5656 1022 
Q 5156 447 4656 97 
Q 5344 -34 6306 -66 
Q 6119 -428 5938 -822 
Q 4556 -653 3719 -353 
Q 2825 -653 1494 -872 
Q 1338 -522 1088 -178 
Q 2100 -128 2888 78 
Q 2369 453 1938 1022 
L 1538 1022 
L 1538 1697 
L 5656 1697 
z
M 1325 2478 
Q 1338 134 700 -884 
Q 356 -553 19 -297 
Q 550 697 525 2591 
L 525 4772 
L 3013 4772 
Q 2944 4953 2831 5209 
L 3869 5359 
Q 3981 5072 4094 4772 
L 6256 4772 
L 6256 4072 
L 1325 4072 
L 1325 2478 
z
M 1463 3684 
L 2144 3684 
L 2144 3947 
L 2944 3947 
L 2944 3684 
L 4494 3684 
L 4494 3947 
L 5294 3947 
L 5294 3684 
L 6144 3684 
L 6144 3009 
L 5294 3009 
L 5294 1991 
L 2144 1991 
L 2144 3009 
L 1463 3009 
L 1463 3684 
z
M 3756 378 
Q 4325 641 4725 1022 
L 2825 1022 
Q 3225 622 3756 378 
z
M 4494 2628 
L 4494 3009 
L 2944 3009 
L 2944 2628 
L 4494 2628 
z
" transform="scale(0.015625)"/>
     <path id="MicrosoftYaHei-Bold-30" d="M 244 2341 
Q 244 3597 706 4259 
Q 1169 4922 2044 4922 
Q 3713 4922 3713 2453 
Q 3713 1238 3259 577 
Q 2806 -84 1950 -84 
Q 244 -84 244 2341 
z
M 1266 2366 
Q 1266 691 1981 691 
Q 2684 691 2684 2416 
Q 2684 4147 2000 4147 
Q 1266 4147 1266 2366 
z
" transform="scale(0.015625)"/>
     <path id="MicrosoftYaHei-Bold-2e" d="M 313 453 
Q 313 688 491 838 
Q 669 988 916 988 
Q 1166 988 1337 834 
Q 1509 681 1509 453 
Q 1509 213 1337 64 
Q 1166 -84 903 -84 
Q 659 -84 486 69 
Q 313 222 313 453 
z
" transform="scale(0.015625)"/>
    </defs>
    <use xlink:href="#MicrosoftYaHei-Bold-28"/>
    <use xlink:href="#MicrosoftYaHei-Bold-73af" transform="translate(38.964844 0)"/>
    <use xlink:href="#MicrosoftYaHei-Bold-5883" transform="translate(138.964844 0)"/>
    <use xlink:href="#MicrosoftYaHei-Bold-3a" transform="translate(238.964844 0)"/>
    <use xlink:href="#MicrosoftYaHei-Bold-20" transform="translate(267.529297 0)"/>
    <use xlink:href="#MicrosoftYaHei-Bold-6b63" transform="translate(297.314453 0)"/>
    <use xlink:href="#MicrosoftYaHei-Bold-6001" transform="translate(397.314453 0)"/>
    <use xlink:href="#MicrosoftYaHei-Bold-2d" transform="translate(497.314453 0)"/>
    <use xlink:href="#MicrosoftYaHei-Bold-5927" transform="translate(540.966797 0)"/>
    <use xlink:href="#MicrosoftYaHei-Bold-5e45" transform="translate(640.966797 0)"/>
    <use xlink:href="#MicrosoftYaHei-Bold-5747" transform="translate(740.966797 0)"/>
    <use xlink:href="#MicrosoftYaHei-Bold-503c" transform="translate(840.966797 0)"/>
    <use xlink:href="#MicrosoftYaHei-Bold-6539" transform="translate(940.966797 0)"/>
    <use xlink:href="#MicrosoftYaHei-Bold-53d8" transform="translate(1040.966797 0)"/>
    <use xlink:href="#MicrosoftYaHei-Bold-28" transform="translate(1140.966797 0)"/>
    <use xlink:href="#MicrosoftYaHei-Bold-3bc" transform="translate(1179.931641 0)"/>
    <use xlink:href="#MicrosoftYaHei-Bold-31" transform="translate(1247.021484 0)"/>
    <use xlink:href="#MicrosoftYaHei-Bold-34" transform="translate(1308.691406 0)"/>
    <use xlink:href="#MicrosoftYaHei-Bold-2c" transform="translate(1370.361328 0)"/>
    <use xlink:href="#MicrosoftYaHei-Bold-3c3" transform="translate(1398.925781 0)"/>
    <use xlink:href="#MicrosoftYaHei-Bold-32" transform="translate(1464.648438 0)"/>
    <use xlink:href="#MicrosoftYaHei-Bold-20" transform="translate(1526.318359 0)"/>
    <use xlink:href="#MicrosoftYaHei-Bold-7c" transform="translate(1556.103516 0)"/>
    <use xlink:href="#MicrosoftYaHei-Bold-20" transform="translate(1590.234375 0)"/>
    <use xlink:href="#MicrosoftYaHei-Bold-590d" transform="translate(1620.019531 0)"/>
    <use xlink:href="#MicrosoftYaHei-Bold-6742" transform="translate(1720.019531 0)"/>
    <use xlink:href="#MicrosoftYaHei-Bold-5ea6" transform="translate(1820.019531 0)"/>
    <use xlink:href="#MicrosoftYaHei-Bold-3a" transform="translate(1920.019531 0)"/>
    <use xlink:href="#MicrosoftYaHei-Bold-20" transform="translate(1948.583984 0)"/>
    <use xlink:href="#MicrosoftYaHei-Bold-30" transform="translate(1978.369141 0)"/>
    <use xlink:href="#MicrosoftYaHei-Bold-2e" transform="translate(2040.039062 0)"/>
    <use xlink:href="#MicrosoftYaHei-Bold-30" transform="translate(2068.603516 0)"/>
    <use xlink:href="#MicrosoftYaHei-Bold-32" transform="translate(2130.273438 0)"/>
    <use xlink:href="#MicrosoftYaHei-Bold-29" transform="translate(2191.943359 0)"/>
   </g>
  </g>
 </g>
 <defs>
  <clipPath id="pb417b99a54">
   <rect x="39.801563" y="82.790625" width="809.5" height="376.6825"/>
  </clipPath>
 </defs>
</svg>
