<?xml version="1.0" encoding="utf-8" standalone="no"?>
<!DOCTYPE svg PUBLIC "-//W3C//DTD SVG 1.1//EN"
  "http://www.w3.org/Graphics/SVG/1.1/DTD/svg11.dtd">
<svg xmlns:xlink="http://www.w3.org/1999/xlink" width="856.501562pt" height="497.641875pt" viewBox="0 0 856.501562 497.641875" xmlns="http://www.w3.org/2000/svg" version="1.1">
 <metadata>
  <rdf:RDF xmlns:dc="http://purl.org/dc/elements/1.1/" xmlns:cc="http://creativecommons.org/ns#" xmlns:rdf="http://www.w3.org/1999/02/22-rdf-syntax-ns#">
   <cc:Work>
    <dc:type rdf:resource="http://purl.org/dc/dcmitype/StillImage"/>
    <dc:date>2025-07-07T17:08:29.018313</dc:date>
    <dc:format>image/svg+xml</dc:format>
    <dc:creator>
     <cc:Agent>
      <dc:title>Matplotlib v3.10.3, https://matplotlib.org/</dc:title>
     </cc:Agent>
    </dc:creator>
   </cc:Work>
  </rdf:RDF>
 </metadata>
 <defs>
  <style type="text/css">*{stroke-linejoin: round; stroke-linecap: butt}</style>
 </defs>
 <g id="figure_1">
  <g id="patch_1">
   <path d="M 0 497.641875 
L 856.501562 497.641875 
L 856.501562 0 
L 0 0 
z
" style="fill: #ffffff"/>
  </g>
  <g id="axes_1">
   <g id="patch_2">
    <path d="M 39.801563 459.42625 
L 849.301563 459.42625 
L 849.301563 82.790625 
L 39.801563 82.790625 
z
" style="fill: #ffffff"/>
   </g>
   <g id="matplotlib.axis_1">
    <g id="xtick_1">
     <g id="line2d_1">
      <path d="M 76.597017 459.42625 
L 76.597017 82.790625 
" clip-path="url(#pc59b226fdb)" style="fill: none; stroke-dasharray: 2.96,1.28; stroke-dashoffset: 0; stroke: #cccccc; stroke-opacity: 0.6; stroke-width: 0.8"/>
     </g>
     <g id="text_1">
      <!-- 0 -->
      <g style="fill: #262626" transform="translate(73.816548 473.584062) scale(0.1 -0.1)">
       <defs>
        <path id="ArialMT-30" d="M 266 2259 
Q 266 3072 433 3567 
Q 600 4063 929 4331 
Q 1259 4600 1759 4600 
Q 2128 4600 2406 4451 
Q 2684 4303 2865 4023 
Q 3047 3744 3150 3342 
Q 3253 2941 3253 2259 
Q 3253 1453 3087 958 
Q 2922 463 2592 192 
Q 2263 -78 1759 -78 
Q 1097 -78 719 397 
Q 266 969 266 2259 
z
M 844 2259 
Q 844 1131 1108 757 
Q 1372 384 1759 384 
Q 2147 384 2411 759 
Q 2675 1134 2675 2259 
Q 2675 3391 2411 3762 
Q 2147 4134 1753 4134 
Q 1366 4134 1134 3806 
Q 844 3388 844 2259 
z
" transform="scale(0.015625)"/>
       </defs>
       <use xlink:href="#ArialMT-30"/>
      </g>
     </g>
    </g>
    <g id="xtick_2">
     <g id="line2d_2">
      <path d="M 199.350827 459.42625 
L 199.350827 82.790625 
" clip-path="url(#pc59b226fdb)" style="fill: none; stroke-dasharray: 2.96,1.28; stroke-dashoffset: 0; stroke: #cccccc; stroke-opacity: 0.6; stroke-width: 0.8"/>
     </g>
     <g id="text_2">
      <!-- 200 -->
      <g style="fill: #262626" transform="translate(191.009421 473.584062) scale(0.1 -0.1)">
       <defs>
        <path id="ArialMT-32" d="M 3222 541 
L 3222 0 
L 194 0 
Q 188 203 259 391 
Q 375 700 629 1000 
Q 884 1300 1366 1694 
Q 2113 2306 2375 2664 
Q 2638 3022 2638 3341 
Q 2638 3675 2398 3904 
Q 2159 4134 1775 4134 
Q 1369 4134 1125 3890 
Q 881 3647 878 3216 
L 300 3275 
Q 359 3922 746 4261 
Q 1134 4600 1788 4600 
Q 2447 4600 2831 4234 
Q 3216 3869 3216 3328 
Q 3216 3053 3103 2787 
Q 2991 2522 2730 2228 
Q 2469 1934 1863 1422 
Q 1356 997 1212 845 
Q 1069 694 975 541 
L 3222 541 
z
" transform="scale(0.015625)"/>
       </defs>
       <use xlink:href="#ArialMT-32"/>
       <use xlink:href="#ArialMT-30" transform="translate(55.615234 0)"/>
       <use xlink:href="#ArialMT-30" transform="translate(111.230469 0)"/>
      </g>
     </g>
    </g>
    <g id="xtick_3">
     <g id="line2d_3">
      <path d="M 322.104637 459.42625 
L 322.104637 82.790625 
" clip-path="url(#pc59b226fdb)" style="fill: none; stroke-dasharray: 2.96,1.28; stroke-dashoffset: 0; stroke: #cccccc; stroke-opacity: 0.6; stroke-width: 0.8"/>
     </g>
     <g id="text_3">
      <!-- 400 -->
      <g style="fill: #262626" transform="translate(313.763231 473.584062) scale(0.1 -0.1)">
       <defs>
        <path id="ArialMT-34" d="M 2069 0 
L 2069 1097 
L 81 1097 
L 81 1613 
L 2172 4581 
L 2631 4581 
L 2631 1613 
L 3250 1613 
L 3250 1097 
L 2631 1097 
L 2631 0 
L 2069 0 
z
M 2069 1613 
L 2069 3678 
L 634 1613 
L 2069 1613 
z
" transform="scale(0.015625)"/>
       </defs>
       <use xlink:href="#ArialMT-34"/>
       <use xlink:href="#ArialMT-30" transform="translate(55.615234 0)"/>
       <use xlink:href="#ArialMT-30" transform="translate(111.230469 0)"/>
      </g>
     </g>
    </g>
    <g id="xtick_4">
     <g id="line2d_4">
      <path d="M 444.858447 459.42625 
L 444.858447 82.790625 
" clip-path="url(#pc59b226fdb)" style="fill: none; stroke-dasharray: 2.96,1.28; stroke-dashoffset: 0; stroke: #cccccc; stroke-opacity: 0.6; stroke-width: 0.8"/>
     </g>
     <g id="text_4">
      <!-- 600 -->
      <g style="fill: #262626" transform="translate(436.517041 473.584062) scale(0.1 -0.1)">
       <defs>
        <path id="ArialMT-36" d="M 3184 3459 
L 2625 3416 
Q 2550 3747 2413 3897 
Q 2184 4138 1850 4138 
Q 1581 4138 1378 3988 
Q 1113 3794 959 3422 
Q 806 3050 800 2363 
Q 1003 2672 1297 2822 
Q 1591 2972 1913 2972 
Q 2475 2972 2870 2558 
Q 3266 2144 3266 1488 
Q 3266 1056 3080 686 
Q 2894 316 2569 119 
Q 2244 -78 1831 -78 
Q 1128 -78 684 439 
Q 241 956 241 2144 
Q 241 3472 731 4075 
Q 1159 4600 1884 4600 
Q 2425 4600 2770 4297 
Q 3116 3994 3184 3459 
z
M 888 1484 
Q 888 1194 1011 928 
Q 1134 663 1356 523 
Q 1578 384 1822 384 
Q 2178 384 2434 671 
Q 2691 959 2691 1453 
Q 2691 1928 2437 2201 
Q 2184 2475 1800 2475 
Q 1419 2475 1153 2201 
Q 888 1928 888 1484 
z
" transform="scale(0.015625)"/>
       </defs>
       <use xlink:href="#ArialMT-36"/>
       <use xlink:href="#ArialMT-30" transform="translate(55.615234 0)"/>
       <use xlink:href="#ArialMT-30" transform="translate(111.230469 0)"/>
      </g>
     </g>
    </g>
    <g id="xtick_5">
     <g id="line2d_5">
      <path d="M 567.612257 459.42625 
L 567.612257 82.790625 
" clip-path="url(#pc59b226fdb)" style="fill: none; stroke-dasharray: 2.96,1.28; stroke-dashoffset: 0; stroke: #cccccc; stroke-opacity: 0.6; stroke-width: 0.8"/>
     </g>
     <g id="text_5">
      <!-- 800 -->
      <g style="fill: #262626" transform="translate(559.270851 473.584062) scale(0.1 -0.1)">
       <defs>
        <path id="ArialMT-38" d="M 1131 2484 
Q 781 2613 612 2850 
Q 444 3088 444 3419 
Q 444 3919 803 4259 
Q 1163 4600 1759 4600 
Q 2359 4600 2725 4251 
Q 3091 3903 3091 3403 
Q 3091 3084 2923 2848 
Q 2756 2613 2416 2484 
Q 2838 2347 3058 2040 
Q 3278 1734 3278 1309 
Q 3278 722 2862 322 
Q 2447 -78 1769 -78 
Q 1091 -78 675 323 
Q 259 725 259 1325 
Q 259 1772 486 2073 
Q 713 2375 1131 2484 
z
M 1019 3438 
Q 1019 3113 1228 2906 
Q 1438 2700 1772 2700 
Q 2097 2700 2305 2904 
Q 2513 3109 2513 3406 
Q 2513 3716 2298 3927 
Q 2084 4138 1766 4138 
Q 1444 4138 1231 3931 
Q 1019 3725 1019 3438 
z
M 838 1322 
Q 838 1081 952 856 
Q 1066 631 1291 507 
Q 1516 384 1775 384 
Q 2178 384 2440 643 
Q 2703 903 2703 1303 
Q 2703 1709 2433 1975 
Q 2163 2241 1756 2241 
Q 1359 2241 1098 1978 
Q 838 1716 838 1322 
z
" transform="scale(0.015625)"/>
       </defs>
       <use xlink:href="#ArialMT-38"/>
       <use xlink:href="#ArialMT-30" transform="translate(55.615234 0)"/>
       <use xlink:href="#ArialMT-30" transform="translate(111.230469 0)"/>
      </g>
     </g>
    </g>
    <g id="xtick_6">
     <g id="line2d_6">
      <path d="M 690.366067 459.42625 
L 690.366067 82.790625 
" clip-path="url(#pc59b226fdb)" style="fill: none; stroke-dasharray: 2.96,1.28; stroke-dashoffset: 0; stroke: #cccccc; stroke-opacity: 0.6; stroke-width: 0.8"/>
     </g>
     <g id="text_6">
      <!-- 1000 -->
      <g style="fill: #262626" transform="translate(679.244192 473.584062) scale(0.1 -0.1)">
       <defs>
        <path id="ArialMT-31" d="M 2384 0 
L 1822 0 
L 1822 3584 
Q 1619 3391 1289 3197 
Q 959 3003 697 2906 
L 697 3450 
Q 1169 3672 1522 3987 
Q 1875 4303 2022 4600 
L 2384 4600 
L 2384 0 
z
" transform="scale(0.015625)"/>
       </defs>
       <use xlink:href="#ArialMT-31"/>
       <use xlink:href="#ArialMT-30" transform="translate(55.615234 0)"/>
       <use xlink:href="#ArialMT-30" transform="translate(111.230469 0)"/>
       <use xlink:href="#ArialMT-30" transform="translate(166.845703 0)"/>
      </g>
     </g>
    </g>
    <g id="xtick_7">
     <g id="line2d_7">
      <path d="M 813.119877 459.42625 
L 813.119877 82.790625 
" clip-path="url(#pc59b226fdb)" style="fill: none; stroke-dasharray: 2.96,1.28; stroke-dashoffset: 0; stroke: #cccccc; stroke-opacity: 0.6; stroke-width: 0.8"/>
     </g>
     <g id="text_7">
      <!-- 1200 -->
      <g style="fill: #262626" transform="translate(801.998002 473.584062) scale(0.1 -0.1)">
       <use xlink:href="#ArialMT-31"/>
       <use xlink:href="#ArialMT-32" transform="translate(55.615234 0)"/>
       <use xlink:href="#ArialMT-30" transform="translate(111.230469 0)"/>
       <use xlink:href="#ArialMT-30" transform="translate(166.845703 0)"/>
      </g>
     </g>
    </g>
    <g id="text_8">
     <!-- 训练轮数 (Episodes) -->
     <g style="fill: #262626" transform="translate(398.614062 487.955937) scale(0.1 -0.1)">
      <defs>
       <path id="MicrosoftYaHei-8bad" d="M 2581 5178 
L 3056 5178 
L 3056 2722 
Q 3056 1272 2831 466 
Q 2613 -297 1981 -872 
Q 1769 -678 1550 -534 
Q 2156 -66 2375 647 
Q 2581 1353 2581 2678 
L 2581 5178 
z
M 5506 5184 
L 5981 5184 
L 5981 -772 
L 5506 -772 
L 5506 5184 
z
M 4038 4953 
L 4513 4953 
L 4513 -403 
L 4038 -403 
L 4038 4953 
z
M 2025 1372 
Q 2025 1059 2069 784 
Q 1438 247 913 -284 
L 625 116 
Q 838 316 838 691 
L 838 2803 
L 81 2803 
L 81 3253 
L 1313 3253 
L 1313 709 
Q 1650 1009 2025 1372 
z
M 875 5191 
Q 1438 4628 1850 4166 
L 1413 3797 
Q 1031 4303 500 4872 
L 875 5191 
z
" transform="scale(0.015625)"/>
       <path id="MicrosoftYaHei-7ec3" d="M 2363 3403 
L 3059 3403 
Q 3203 3781 3344 4197 
L 2213 4197 
L 2213 4622 
L 3488 4622 
Q 3603 4975 3719 5353 
L 4219 5253 
Q 4109 4931 4000 4622 
L 6000 4622 
L 6000 4197 
L 3847 4197 
Q 3700 3791 3553 3403 
L 4763 3403 
L 4763 2016 
L 6025 2016 
L 6025 1591 
L 4763 1591 
L 4763 3 
Q 4763 -734 4056 -734 
Q 3788 -734 3369 -728 
Q 3331 -516 3263 -241 
Q 3638 -284 3931 -284 
Q 4300 -284 4300 109 
L 4300 1591 
L 2475 1591 
L 2475 1997 
Q 2688 2450 2897 2978 
L 2363 2978 
L 2363 3403 
z
M 888 1566 
Q 1531 1659 2219 1778 
Q 2181 1547 2163 1297 
Q 1600 1216 319 1003 
L 219 1472 
Q 669 1969 1175 2794 
Q 666 2763 219 2722 
L 100 3147 
Q 700 3966 1294 5366 
L 1750 5178 
Q 1088 3878 644 3184 
Q 1078 3194 1419 3203 
Q 1669 3638 1931 4147 
L 2388 3916 
Q 1656 2659 888 1566 
z
M 3013 2016 
L 4300 2016 
L 4300 2978 
L 3394 2978 
Q 3203 2484 3013 2016 
z
M 94 122 
Q 1031 291 2219 559 
Q 2200 316 2206 78 
Q 1231 -103 219 -353 
L 94 122 
z
M 3194 1272 
L 3638 1066 
Q 3194 203 2700 -547 
Q 2500 -397 2275 -278 
Q 2813 459 3194 1272 
z
M 5094 1041 
L 5500 1278 
Q 5963 578 6381 -122 
L 5950 -391 
Q 5544 366 5094 1041 
z
" transform="scale(0.015625)"/>
       <path id="MicrosoftYaHei-8f6e" d="M 688 2228 
L 1438 2228 
L 1438 3597 
L 1888 3597 
L 1888 2228 
L 2688 2228 
L 2688 1803 
L 1888 1803 
L 1888 959 
Q 2344 1016 2763 1078 
Q 2756 922 2744 616 
Q 2313 566 1888 516 
L 1888 -866 
L 1438 -866 
L 1438 466 
Q 781 384 138 303 
L 88 772 
Q 794 834 1438 909 
L 1438 1803 
L 225 1803 
L 225 2197 
Q 550 3116 800 3916 
L 156 3916 
L 156 4341 
L 925 4341 
Q 1081 4859 1194 5322 
L 1675 5216 
Q 1538 4766 1400 4341 
L 2781 4341 
L 2781 3916 
L 1263 3916 
Q 975 3028 688 2228 
z
M 3163 2891 
L 3638 2891 
L 3638 1509 
Q 4456 1984 5150 2653 
L 5544 2359 
Q 4588 1484 3638 997 
L 3638 191 
Q 3638 -197 4075 -197 
L 4925 -197 
Q 5363 -197 5425 178 
Q 5494 584 5525 1097 
Q 5575 1078 5994 916 
Q 5956 441 5881 28 
Q 5775 -653 5013 -653 
L 3925 -653 
Q 3163 -653 3163 72 
L 3163 2891 
z
M 4656 5259 
L 4544 5072 
Q 5244 3722 6313 3178 
Q 6113 2953 5975 2766 
Q 4975 3359 4250 4622 
Q 3531 3422 2625 2697 
Q 2475 2891 2288 3059 
Q 3406 3897 4044 5259 
L 4656 5259 
z
" transform="scale(0.015625)"/>
       <path id="MicrosoftYaHei-6570" d="M 4175 5303 
L 4675 5228 
Q 4544 4622 4369 4097 
L 6281 4097 
L 6281 3672 
L 5888 3672 
Q 5731 1834 5088 753 
Q 5594 66 6375 -372 
Q 6175 -647 6038 -866 
Q 5275 -372 4769 309 
Q 4194 -403 3400 -928 
Q 3263 -747 3044 -534 
Q 3919 41 4463 772 
Q 3956 1647 3794 2791 
Q 3663 2559 3519 2359 
Q 3394 2541 3206 2759 
Q 3931 3803 4175 5303 
z
M 150 1697 
L 1100 1697 
Q 1238 1934 1369 2184 
L 1819 2041 
Q 1719 1866 1619 1697 
L 3150 1697 
L 3150 1291 
Q 2913 678 2431 216 
Q 2775 53 3131 -109 
L 2856 -541 
Q 2469 -322 2050 -103 
Q 1344 -609 269 -903 
Q 169 -703 56 -466 
Q 969 -259 1600 128 
Q 1063 403 475 691 
Q 675 978 863 1284 
L 150 1284 
L 150 1697 
z
M 219 3847 
L 1656 3847 
L 1656 5247 
L 2119 5247 
L 2119 3847 
L 3319 3847 
L 3319 3434 
L 2119 3434 
L 2119 3053 
L 2306 3266 
Q 2888 2841 3281 2516 
L 2981 2166 
Q 2638 2491 2119 2897 
L 2119 2184 
L 1656 2184 
L 1656 3059 
Q 1088 2466 331 2016 
Q 213 2197 63 2397 
Q 850 2822 1506 3434 
L 219 3434 
L 219 3847 
z
M 5388 3672 
L 4219 3672 
Q 4188 3591 4150 3516 
Q 4263 2191 4775 1247 
Q 5275 2159 5388 3672 
z
M 1088 834 
Q 1531 634 2000 416 
Q 2431 784 2675 1284 
L 1375 1284 
Q 1231 1053 1088 834 
z
M 3038 5091 
L 3425 4834 
Q 3081 4384 2738 4003 
Q 2594 4128 2400 4266 
Q 2725 4647 3038 5091 
z
M 381 4816 
L 738 5059 
Q 1019 4716 1319 4322 
L 931 4047 
Q 656 4453 381 4816 
z
" transform="scale(0.015625)"/>
       <path id="MicrosoftYaHei-20" transform="scale(0.015625)"/>
       <path id="MicrosoftYaHei-28" d="M 1531 -1100 
Q 478 100 478 1847 
Q 478 3594 1531 4841 
L 2072 4841 
Q 1016 3544 1016 1853 
Q 1016 166 2066 -1100 
L 1531 -1100 
z
" transform="scale(0.015625)"/>
       <path id="MicrosoftYaHei-45" d="M 3228 0 
L 625 0 
L 625 4841 
L 3119 4841 
L 3119 4284 
L 1250 4284 
L 1250 2734 
L 2981 2734 
L 2981 2181 
L 1250 2181 
L 1250 553 
L 3228 553 
L 3228 0 
z
" transform="scale(0.015625)"/>
       <path id="MicrosoftYaHei-70" d="M 1159 488 
L 1159 -1591 
L 547 -1591 
L 547 3456 
L 1159 3456 
L 1159 2859 
L 1172 2859 
Q 1578 3538 2359 3538 
Q 3022 3538 3398 3073 
Q 3775 2609 3775 1828 
Q 3775 966 3348 442 
Q 2922 -81 2200 -81 
Q 1534 -81 1172 488 
L 1159 488 
z
M 1156 1425 
Q 1156 1003 1428 714 
Q 1700 425 2109 425 
Q 2597 425 2872 800 
Q 3147 1175 3147 1838 
Q 3147 2397 2890 2714 
Q 2634 3031 2191 3031 
Q 1738 3031 1447 2709 
Q 1156 2388 1156 1884 
L 1156 1425 
z
" transform="scale(0.015625)"/>
       <path id="MicrosoftYaHei-69" d="M 472 4675 
Q 472 4838 583 4948 
Q 694 5059 856 5059 
Q 1022 5059 1136 4950 
Q 1250 4841 1250 4675 
Q 1250 4513 1136 4405 
Q 1022 4297 856 4297 
Q 691 4297 581 4405 
Q 472 4513 472 4675 
z
M 544 0 
L 544 3456 
L 1156 3456 
L 1156 0 
L 544 0 
z
" transform="scale(0.015625)"/>
       <path id="MicrosoftYaHei-73" d="M 353 747 
Q 816 413 1350 413 
Q 2066 413 2066 881 
Q 2066 1081 1909 1211 
Q 1753 1341 1275 1519 
Q 700 1750 528 1976 
Q 356 2203 356 2525 
Q 356 2984 745 3261 
Q 1134 3538 1703 3538 
Q 2144 3538 2522 3384 
L 2522 2794 
Q 2134 3044 1644 3044 
Q 1350 3044 1165 2916 
Q 981 2788 981 2578 
Q 981 2372 1114 2256 
Q 1247 2141 1703 1959 
Q 2281 1744 2484 1512 
Q 2688 1281 2688 941 
Q 2688 466 2298 192 
Q 1909 -81 1291 -81 
Q 753 -81 353 122 
L 353 747 
z
" transform="scale(0.015625)"/>
       <path id="MicrosoftYaHei-6f" d="M 316 1691 
Q 316 2547 794 3042 
Q 1272 3538 2091 3538 
Q 2869 3538 3311 3061 
Q 3753 2584 3753 1744 
Q 3753 925 3281 422 
Q 2809 -81 2016 -81 
Q 1241 -81 778 406 
Q 316 894 316 1691 
z
M 941 1709 
Q 941 1113 1242 769 
Q 1544 425 2053 425 
Q 2578 425 2853 761 
Q 3128 1097 3128 1725 
Q 3128 2356 2853 2693 
Q 2578 3031 2053 3031 
Q 1538 3031 1239 2678 
Q 941 2325 941 1709 
z
" transform="scale(0.015625)"/>
       <path id="MicrosoftYaHei-64" d="M 3547 0 
L 2934 0 
L 2934 575 
L 2922 575 
Q 2544 -81 1747 -81 
Q 1091 -81 703 386 
Q 316 853 316 1647 
Q 316 2503 753 3020 
Q 1191 3538 1897 3538 
Q 2603 3538 2922 2988 
L 2934 2988 
L 2934 5116 
L 3547 5116 
L 3547 0 
z
M 2938 2056 
Q 2938 2472 2664 2751 
Q 2391 3031 1991 3031 
Q 1503 3031 1222 2667 
Q 941 2303 941 1675 
Q 941 1097 1211 761 
Q 1481 425 1931 425 
Q 2375 425 2656 754 
Q 2938 1084 2938 1575 
L 2938 2056 
z
" transform="scale(0.015625)"/>
       <path id="MicrosoftYaHei-65" d="M 3363 1572 
L 944 1572 
Q 959 1019 1246 717 
Q 1534 416 2050 416 
Q 2631 416 3116 788 
L 3116 241 
Q 2659 -81 1906 -81 
Q 1156 -81 736 394 
Q 316 869 316 1713 
Q 316 2506 777 3022 
Q 1238 3538 1922 3538 
Q 2600 3538 2981 3102 
Q 3363 2666 3363 1881 
L 3363 1572 
z
M 2750 2063 
Q 2747 2531 2528 2787 
Q 2309 3044 1913 3044 
Q 1547 3044 1280 2772 
Q 1013 2500 944 2063 
L 2750 2063 
z
" transform="scale(0.015625)"/>
       <path id="MicrosoftYaHei-29" d="M 78 -1100 
Q 1131 163 1131 1853 
Q 1131 3547 72 4841 
L 616 4841 
Q 1672 3603 1672 1847 
Q 1672 91 616 -1100 
L 78 -1100 
z
" transform="scale(0.015625)"/>
      </defs>
      <use xlink:href="#MicrosoftYaHei-8bad"/>
      <use xlink:href="#MicrosoftYaHei-7ec3" transform="translate(100 0)"/>
      <use xlink:href="#MicrosoftYaHei-8f6e" transform="translate(200 0)"/>
      <use xlink:href="#MicrosoftYaHei-6570" transform="translate(300 0)"/>
      <use xlink:href="#MicrosoftYaHei-20" transform="translate(400 0)"/>
      <use xlink:href="#MicrosoftYaHei-28" transform="translate(429.589844 0)"/>
      <use xlink:href="#MicrosoftYaHei-45" transform="translate(462.988281 0)"/>
      <use xlink:href="#MicrosoftYaHei-70" transform="translate(517.96875 0)"/>
      <use xlink:href="#MicrosoftYaHei-69" transform="translate(581.835938 0)"/>
      <use xlink:href="#MicrosoftYaHei-73" transform="translate(608.447266 0)"/>
      <use xlink:href="#MicrosoftYaHei-6f" transform="translate(654.736328 0)"/>
      <use xlink:href="#MicrosoftYaHei-64" transform="translate(718.310547 0)"/>
      <use xlink:href="#MicrosoftYaHei-65" transform="translate(782.275391 0)"/>
      <use xlink:href="#MicrosoftYaHei-73" transform="translate(839.013672 0)"/>
      <use xlink:href="#MicrosoftYaHei-29" transform="translate(885.302734 0)"/>
     </g>
    </g>
   </g>
   <g id="matplotlib.axis_2">
    <g id="ytick_1">
     <g id="line2d_8">
      <path d="M 39.801563 445.83025 
L 849.301563 445.83025 
" clip-path="url(#pc59b226fdb)" style="fill: none; stroke-dasharray: 2.96,1.28; stroke-dashoffset: 0; stroke: #cccccc; stroke-opacity: 0.6; stroke-width: 0.8"/>
     </g>
     <g id="text_9">
      <!-- 20 -->
      <g style="fill: #1f77b4" transform="translate(21.679688 449.409156) scale(0.1 -0.1)">
       <use xlink:href="#ArialMT-32"/>
       <use xlink:href="#ArialMT-30" transform="translate(55.615234 0)"/>
      </g>
     </g>
    </g>
    <g id="ytick_2">
     <g id="line2d_9">
      <path d="M 39.801563 387.100229 
L 849.301563 387.100229 
" clip-path="url(#pc59b226fdb)" style="fill: none; stroke-dasharray: 2.96,1.28; stroke-dashoffset: 0; stroke: #cccccc; stroke-opacity: 0.6; stroke-width: 0.8"/>
     </g>
     <g id="text_10">
      <!-- 25 -->
      <g style="fill: #1f77b4" transform="translate(21.679688 390.679135) scale(0.1 -0.1)">
       <defs>
        <path id="ArialMT-35" d="M 266 1200 
L 856 1250 
Q 922 819 1161 601 
Q 1400 384 1738 384 
Q 2144 384 2425 690 
Q 2706 997 2706 1503 
Q 2706 1984 2436 2262 
Q 2166 2541 1728 2541 
Q 1456 2541 1237 2417 
Q 1019 2294 894 2097 
L 366 2166 
L 809 4519 
L 3088 4519 
L 3088 3981 
L 1259 3981 
L 1013 2750 
Q 1425 3038 1878 3038 
Q 2478 3038 2890 2622 
Q 3303 2206 3303 1553 
Q 3303 931 2941 478 
Q 2500 -78 1738 -78 
Q 1113 -78 717 272 
Q 322 622 266 1200 
z
" transform="scale(0.015625)"/>
       </defs>
       <use xlink:href="#ArialMT-32"/>
       <use xlink:href="#ArialMT-35" transform="translate(55.615234 0)"/>
      </g>
     </g>
    </g>
    <g id="ytick_3">
     <g id="line2d_10">
      <path d="M 39.801563 328.370208 
L 849.301563 328.370208 
" clip-path="url(#pc59b226fdb)" style="fill: none; stroke-dasharray: 2.96,1.28; stroke-dashoffset: 0; stroke: #cccccc; stroke-opacity: 0.6; stroke-width: 0.8"/>
     </g>
     <g id="text_11">
      <!-- 30 -->
      <g style="fill: #1f77b4" transform="translate(21.679688 331.949114) scale(0.1 -0.1)">
       <defs>
        <path id="ArialMT-33" d="M 269 1209 
L 831 1284 
Q 928 806 1161 595 
Q 1394 384 1728 384 
Q 2125 384 2398 659 
Q 2672 934 2672 1341 
Q 2672 1728 2419 1979 
Q 2166 2231 1775 2231 
Q 1616 2231 1378 2169 
L 1441 2663 
Q 1497 2656 1531 2656 
Q 1891 2656 2178 2843 
Q 2466 3031 2466 3422 
Q 2466 3731 2256 3934 
Q 2047 4138 1716 4138 
Q 1388 4138 1169 3931 
Q 950 3725 888 3313 
L 325 3413 
Q 428 3978 793 4289 
Q 1159 4600 1703 4600 
Q 2078 4600 2393 4439 
Q 2709 4278 2876 4000 
Q 3044 3722 3044 3409 
Q 3044 3113 2884 2869 
Q 2725 2625 2413 2481 
Q 2819 2388 3044 2092 
Q 3269 1797 3269 1353 
Q 3269 753 2831 336 
Q 2394 -81 1725 -81 
Q 1122 -81 723 278 
Q 325 638 269 1209 
z
" transform="scale(0.015625)"/>
       </defs>
       <use xlink:href="#ArialMT-33"/>
       <use xlink:href="#ArialMT-30" transform="translate(55.615234 0)"/>
      </g>
     </g>
    </g>
    <g id="ytick_4">
     <g id="line2d_11">
      <path d="M 39.801563 269.640187 
L 849.301563 269.640187 
" clip-path="url(#pc59b226fdb)" style="fill: none; stroke-dasharray: 2.96,1.28; stroke-dashoffset: 0; stroke: #cccccc; stroke-opacity: 0.6; stroke-width: 0.8"/>
     </g>
     <g id="text_12">
      <!-- 35 -->
      <g style="fill: #1f77b4" transform="translate(21.679688 273.219093) scale(0.1 -0.1)">
       <use xlink:href="#ArialMT-33"/>
       <use xlink:href="#ArialMT-35" transform="translate(55.615234 0)"/>
      </g>
     </g>
    </g>
    <g id="ytick_5">
     <g id="line2d_12">
      <path d="M 39.801563 210.910166 
L 849.301563 210.910166 
" clip-path="url(#pc59b226fdb)" style="fill: none; stroke-dasharray: 2.96,1.28; stroke-dashoffset: 0; stroke: #cccccc; stroke-opacity: 0.6; stroke-width: 0.8"/>
     </g>
     <g id="text_13">
      <!-- 40 -->
      <g style="fill: #1f77b4" transform="translate(21.679688 214.489072) scale(0.1 -0.1)">
       <use xlink:href="#ArialMT-34"/>
       <use xlink:href="#ArialMT-30" transform="translate(55.615234 0)"/>
      </g>
     </g>
    </g>
    <g id="ytick_6">
     <g id="line2d_13">
      <path d="M 39.801563 152.180145 
L 849.301563 152.180145 
" clip-path="url(#pc59b226fdb)" style="fill: none; stroke-dasharray: 2.96,1.28; stroke-dashoffset: 0; stroke: #cccccc; stroke-opacity: 0.6; stroke-width: 0.8"/>
     </g>
     <g id="text_14">
      <!-- 45 -->
      <g style="fill: #1f77b4" transform="translate(21.679688 155.759051) scale(0.1 -0.1)">
       <use xlink:href="#ArialMT-34"/>
       <use xlink:href="#ArialMT-35" transform="translate(55.615234 0)"/>
      </g>
     </g>
    </g>
    <g id="ytick_7">
     <g id="line2d_14">
      <path d="M 39.801563 93.450124 
L 849.301563 93.450124 
" clip-path="url(#pc59b226fdb)" style="fill: none; stroke-dasharray: 2.96,1.28; stroke-dashoffset: 0; stroke: #cccccc; stroke-opacity: 0.6; stroke-width: 0.8"/>
     </g>
     <g id="text_15">
      <!-- 50 -->
      <g style="fill: #1f77b4" transform="translate(21.679688 97.02903) scale(0.1 -0.1)">
       <use xlink:href="#ArialMT-35"/>
       <use xlink:href="#ArialMT-30" transform="translate(55.615234 0)"/>
      </g>
     </g>
    </g>
    <g id="text_16">
     <!-- 总奖励 (平滑后) -->
     <g style="fill: #1f77b4" transform="translate(15.19375 305.92875) rotate(-90) scale(0.1 -0.1)">
      <defs>
       <path id="MicrosoftYaHei-603b" d="M 900 4253 
L 3631 4253 
Q 4022 4822 4331 5353 
L 4813 5103 
Q 4500 4675 4175 4253 
L 5500 4253 
L 5500 1703 
L 5000 1703 
L 5000 1978 
L 1400 1978 
L 1400 1703 
L 900 1703 
L 900 4253 
z
M 5000 3803 
L 1400 3803 
L 1400 2428 
L 5000 2428 
L 5000 3803 
z
M 1694 1378 
L 2181 1378 
L 2181 284 
Q 2181 -203 2619 -203 
L 3875 -203 
Q 4244 -203 4338 172 
Q 4394 366 4450 872 
Q 4631 791 4931 684 
Q 4850 209 4750 -97 
Q 4556 -641 3900 -641 
L 2519 -641 
Q 1694 -641 1694 197 
L 1694 1378 
z
M 719 1422 
L 1188 1272 
Q 931 491 538 -334 
Q 338 -247 81 -134 
Q 444 597 719 1422 
z
M 4881 1203 
L 5238 1478 
Q 5813 841 6319 197 
L 5900 -134 
Q 5456 491 4881 1203 
z
M 2663 1591 
L 3044 1841 
Q 3488 1372 3863 841 
L 3444 547 
Q 3069 1109 2663 1591 
z
M 1594 5109 
L 1975 5353 
Q 2350 4959 2650 4541 
L 2225 4266 
Q 1956 4653 1594 5109 
z
" transform="scale(0.015625)"/>
       <path id="MicrosoftYaHei-5956" d="M 6306 -284 
Q 6119 -528 5944 -803 
Q 4031 -491 3197 859 
Q 2550 -472 406 -878 
Q 281 -666 100 -403 
Q 2175 -84 2709 972 
L 225 972 
L 225 1403 
L 2900 1403 
Q 2969 1600 3019 1822 
L 3531 1822 
Q 3484 1603 3422 1403 
L 6200 1403 
L 6200 972 
L 3647 972 
Q 4472 -169 6306 -284 
z
M 2388 3553 
Q 3181 4228 3588 5334 
L 4056 5241 
Q 3941 4938 3803 4666 
L 5988 4666 
L 5988 4278 
Q 5181 2359 2788 1853 
Q 2706 2072 2531 2316 
Q 3434 2463 4094 2831 
Q 3688 3222 3288 3516 
L 3588 3822 
Q 4056 3481 4491 3084 
Q 5116 3550 5463 4266 
L 3588 4266 
Q 3228 3666 2763 3234 
Q 2588 3428 2388 3553 
z
M 1744 5291 
L 2231 5291 
L 2231 1728 
L 1744 1728 
L 1744 2925 
Q 1231 2694 256 2253 
L 94 2747 
Q 991 3088 1744 3425 
L 1744 5291 
z
M 281 4584 
L 588 4891 
Q 1088 4503 1513 4072 
L 1169 3741 
Q 700 4253 281 4584 
z
" transform="scale(0.015625)"/>
       <path id="MicrosoftYaHei-52b1" d="M 3756 3997 
L 4303 3997 
Q 4316 4669 4319 5297 
L 4775 5297 
Q 4763 4559 4750 3997 
L 6031 3997 
Q 5963 1203 5925 278 
Q 5888 -678 5169 -678 
Q 4969 -678 4444 -666 
Q 4406 -378 4350 -134 
Q 4856 -178 5081 -178 
Q 5425 -178 5456 272 
Q 5513 1266 5563 3528 
L 4741 3528 
Q 4731 3028 4725 2716 
Q 4688 334 3600 -859 
Q 3469 -666 3281 -447 
Q 4238 634 4275 2634 
Q 4288 3091 4297 3528 
L 3756 3528 
L 3756 3997 
z
M 1225 3728 
L 3563 3728 
L 3563 3291 
L 2194 3291 
Q 2184 2784 2172 2372 
L 3375 2372 
Q 3319 766 3275 91 
Q 3206 -628 2581 -628 
Q 2406 -628 2050 -622 
Q 2013 -416 1956 -159 
Q 2306 -197 2475 -197 
Q 2819 -203 2850 216 
Q 2894 797 2931 1959 
L 2153 1959 
Q 2125 1378 2081 1034 
Q 1969 -3 1300 -828 
Q 1175 -659 981 -453 
Q 1531 209 1644 1097 
Q 1728 1641 1756 3291 
L 1225 3291 
L 1225 3728 
z
M 1044 4472 
L 1044 2166 
Q 1044 147 475 -809 
Q 306 -647 94 -478 
Q 588 341 588 2184 
L 588 4909 
L 3663 4909 
L 3663 4472 
L 1044 4472 
z
" transform="scale(0.015625)"/>
       <path id="MicrosoftYaHei-5e73" d="M 169 1934 
L 2938 1934 
L 2938 4547 
L 450 4547 
L 450 5028 
L 5975 5028 
L 5975 4547 
L 3463 4547 
L 3463 1934 
L 6250 1934 
L 6250 1453 
L 3463 1453 
L 3463 -847 
L 2938 -847 
L 2938 1453 
L 169 1453 
L 169 1934 
z
M 3950 2559 
Q 4638 3284 5188 4159 
L 5656 3859 
Q 4950 2891 4338 2234 
L 3950 2559 
z
M 769 3859 
L 1163 4134 
Q 1863 3316 2369 2553 
L 1925 2222 
Q 1444 3003 769 3859 
z
" transform="scale(0.015625)"/>
       <path id="MicrosoftYaHei-6ed1" d="M 2738 -791 
L 2263 -791 
L 2263 2378 
L 5494 2378 
L 5494 -22 
Q 5494 -728 4813 -734 
Q 4456 -741 4025 -734 
Q 3994 -534 3931 -272 
Q 4294 -316 4619 -316 
Q 5019 -316 5019 9 
L 5019 303 
L 2738 303 
L 2738 -791 
z
M 1713 3253 
L 2306 3253 
L 2306 5078 
L 5475 5078 
L 5475 3253 
L 6063 3253 
L 6063 2297 
L 5594 2297 
L 5594 2853 
L 2181 2853 
L 2181 2284 
L 1713 2284 
L 1713 3253 
z
M 5025 4678 
L 2756 4678 
L 2756 4178 
L 4238 4178 
L 4238 3253 
L 5025 3253 
L 5025 4678 
z
M 850 1816 
Q 1106 1716 1363 1628 
Q 1100 541 788 -784 
L 238 -622 
Q 588 541 850 1816 
z
M 2738 691 
L 5019 691 
L 5019 1141 
L 2738 1141 
L 2738 691 
z
M 5019 1978 
L 2738 1978 
L 2738 1528 
L 5019 1528 
L 5019 1978 
z
M 719 5241 
Q 1256 4822 1738 4378 
L 1381 4003 
Q 931 4453 394 4909 
L 719 5241 
z
M 388 3697 
Q 988 3247 1400 2891 
L 1056 2497 
Q 581 2941 81 3328 
L 388 3697 
z
M 3794 3791 
L 2756 3791 
L 2756 3253 
L 3794 3253 
L 3794 3791 
z
" transform="scale(0.015625)"/>
       <path id="MicrosoftYaHei-540e" d="M 1888 1984 
L 5688 1984 
L 5688 -828 
L 5188 -828 
L 5188 -403 
L 2388 -403 
L 2388 -828 
L 1888 -828 
L 1888 1984 
z
M 1313 2991 
Q 1313 1272 1138 672 
Q 963 -16 394 -847 
Q 250 -634 50 -409 
Q 494 222 650 859 
Q 806 1472 806 2659 
L 806 4766 
Q 3544 4853 5631 5141 
L 5931 4622 
Q 3344 4359 1313 4284 
L 1313 3459 
L 6263 3459 
L 6263 2991 
L 1313 2991 
z
M 5188 1528 
L 2388 1528 
L 2388 41 
L 5188 41 
L 5188 1528 
z
" transform="scale(0.015625)"/>
      </defs>
      <use xlink:href="#MicrosoftYaHei-603b"/>
      <use xlink:href="#MicrosoftYaHei-5956" transform="translate(100 0)"/>
      <use xlink:href="#MicrosoftYaHei-52b1" transform="translate(200 0)"/>
      <use xlink:href="#MicrosoftYaHei-20" transform="translate(300 0)"/>
      <use xlink:href="#MicrosoftYaHei-28" transform="translate(329.589844 0)"/>
      <use xlink:href="#MicrosoftYaHei-5e73" transform="translate(362.988281 0)"/>
      <use xlink:href="#MicrosoftYaHei-6ed1" transform="translate(462.988281 0)"/>
      <use xlink:href="#MicrosoftYaHei-540e" transform="translate(562.988281 0)"/>
      <use xlink:href="#MicrosoftYaHei-29" transform="translate(662.988281 0)"/>
     </g>
    </g>
   </g>
   <g id="line2d_15">
    <path d="M 76.597017 429.385844 
L 77.210786 442.306449 
L 77.824555 390.62403 
L 78.438324 351.862216 
L 79.052093 328.605128 
L 79.665862 317.407271 
L 80.279631 314.946203 
L 80.8934 305.025025 
L 81.507169 293.001684 
L 82.120938 287.259193 
L 84.576015 246.651579 
L 86.417322 223.416206 
L 87.031091 217.631491 
L 87.64486 214.495788 
L 88.258629 209.735566 
L 88.872398 196.168931 
L 89.486167 179.372145 
L 90.099936 170.973752 
L 90.713705 166.45154 
L 91.941243 153.530935 
L 92.555012 145.132542 
L 94.396319 127.043696 
L 95.010089 123.167514 
L 95.623858 121.229424 
L 96.237627 120.583394 
L 96.851396 121.875454 
L 97.465165 119.937363 
L 98.078934 123.167514 
L 98.692703 123.167514 
L 99.306472 125.751635 
L 99.920241 123.167514 
L 100.53401 123.167514 
L 101.147779 121.875454 
L 101.761548 121.229424 
L 102.375317 121.229424 
L 102.989086 119.291333 
L 103.602855 119.291333 
L 104.216624 117.999273 
L 104.830393 117.353242 
L 106.057931 117.353242 
L 106.6717 119.291333 
L 107.899239 120.583394 
L 108.513008 120.583394 
L 109.126777 117.999273 
L 109.740546 118.645303 
L 110.354315 114.769121 
L 110.968084 115.415152 
L 111.581853 112.831031 
L 112.809391 112.831031 
L 113.42316 110.89294 
L 114.036929 110.89294 
L 114.650698 110.24691 
L 116.492005 112.185001 
L 117.105774 112.185001 
L 117.719543 111.53897 
L 118.333312 112.185001 
L 118.947081 110.24691 
L 119.560851 110.24691 
L 120.788389 111.53897 
L 121.402158 112.831031 
L 122.015927 112.831031 
L 123.243465 115.415152 
L 123.857234 114.123091 
L 124.471003 114.123091 
L 125.084772 112.831031 
L 125.698541 114.769121 
L 126.31231 114.769121 
L 126.926079 116.061182 
L 127.539848 115.415152 
L 128.153617 115.415152 
L 128.767386 114.123091 
L 131.222462 114.123091 
L 131.836232 114.769121 
L 132.450001 114.769121 
L 133.06377 112.831031 
L 133.677539 111.53897 
L 134.291308 112.185001 
L 134.905077 110.24691 
L 135.518846 109.60088 
L 136.132615 110.24691 
L 136.746384 109.60088 
L 137.360153 111.53897 
L 137.973922 110.24691 
L 138.587691 109.60088 
L 139.20146 109.60088 
L 139.815229 111.53897 
L 140.428998 110.89294 
L 141.042767 112.185001 
L 141.656536 111.53897 
L 142.884074 112.831031 
L 143.497843 114.769121 
L 144.111613 114.769121 
L 144.725382 117.353242 
L 145.339151 117.999273 
L 145.95292 117.353242 
L 146.566689 118.645303 
L 147.180458 119.291333 
L 148.407996 117.999273 
L 149.021765 119.291333 
L 150.249303 117.999273 
L 150.863072 119.937363 
L 152.09061 116.061182 
L 153.318148 114.769121 
L 153.931917 115.415152 
L 155.159455 112.831031 
L 156.386994 111.53897 
L 157.000763 107.662789 
L 157.614532 108.308819 
L 158.228301 108.308819 
L 158.84207 105.724698 
L 159.455839 106.370728 
L 160.069608 105.724698 
L 161.297146 105.724698 
L 161.910915 104.432638 
L 162.524684 106.370728 
L 163.138453 105.724698 
L 163.752222 106.370728 
L 164.365991 106.370728 
L 164.97976 107.016759 
L 165.593529 108.308819 
L 166.207298 108.308819 
L 166.821067 108.954849 
L 167.434836 108.954849 
L 168.048605 107.662789 
L 168.662375 107.662789 
L 169.276144 108.308819 
L 169.889913 107.662789 
L 170.503682 107.662789 
L 171.117451 108.308819 
L 171.73122 108.308819 
L 172.344989 109.60088 
L 172.958758 109.60088 
L 173.572527 108.954849 
L 174.186296 108.954849 
L 174.800065 107.016759 
L 175.413834 107.662789 
L 176.027603 107.662789 
L 176.641372 107.016759 
L 177.255141 107.662789 
L 177.86891 105.724698 
L 178.482679 105.078668 
L 179.710217 106.370728 
L 180.323986 107.662789 
L 180.937756 107.662789 
L 181.551525 108.308819 
L 182.165294 107.662789 
L 182.779063 107.662789 
L 183.392832 108.308819 
L 184.62037 107.016759 
L 185.234139 108.308819 
L 185.847908 108.308819 
L 187.075446 109.60088 
L 188.302984 108.308819 
L 188.916753 108.308819 
L 189.530522 107.662789 
L 190.144291 108.954849 
L 190.75806 109.60088 
L 191.371829 109.60088 
L 192.599367 108.308819 
L 193.213137 108.954849 
L 193.826906 107.662789 
L 195.668213 107.662789 
L 196.895751 108.954849 
L 197.50952 108.308819 
L 198.123289 108.954849 
L 199.350827 108.954849 
L 199.964596 108.308819 
L 200.578365 108.954849 
L 201.192134 108.954849 
L 203.64721 106.370728 
L 204.260979 108.954849 
L 204.874748 109.60088 
L 205.488518 109.60088 
L 206.102287 110.24691 
L 207.943594 110.24691 
L 209.171132 108.954849 
L 209.784901 109.60088 
L 211.012439 108.308819 
L 211.626208 108.954849 
L 212.239977 108.308819 
L 212.853746 108.954849 
L 213.467515 110.89294 
L 214.081284 111.53897 
L 215.308822 111.53897 
L 215.922591 112.185001 
L 216.53636 110.24691 
L 217.150129 110.89294 
L 217.763899 110.24691 
L 218.377668 110.89294 
L 219.605206 110.89294 
L 220.218975 110.24691 
L 220.832744 110.24691 
L 221.446513 110.89294 
L 222.674051 109.60088 
L 223.28782 109.60088 
L 223.901589 108.954849 
L 224.515358 109.60088 
L 225.129127 109.60088 
L 225.742896 108.308819 
L 226.970434 107.016759 
L 227.584203 107.662789 
L 228.197972 107.016759 
L 228.811741 107.016759 
L 231.266818 104.432638 
L 231.880587 104.432638 
L 232.494356 103.786608 
L 234.335663 103.786608 
L 236.17697 105.724698 
L 236.790739 105.078668 
L 237.404508 105.724698 
L 238.018277 105.078668 
L 239.245815 106.370728 
L 239.859584 106.370728 
L 241.087122 105.078668 
L 241.700891 103.786608 
L 242.314661 104.432638 
L 242.92843 103.786608 
L 243.542199 103.786608 
L 244.155968 104.432638 
L 244.769737 105.724698 
L 245.383506 105.078668 
L 245.997275 105.078668 
L 247.224813 103.786608 
L 247.838582 104.432638 
L 248.452351 103.786608 
L 249.06612 105.078668 
L 249.679889 103.786608 
L 250.293658 104.432638 
L 250.907427 104.432638 
L 252.134965 103.140577 
L 252.748734 103.786608 
L 253.362503 105.078668 
L 253.976272 105.724698 
L 254.590042 105.078668 
L 256.431349 107.016759 
L 257.045118 106.370728 
L 257.658887 107.662789 
L 258.272656 107.016759 
L 258.886425 107.662789 
L 259.500194 110.24691 
L 260.113963 109.60088 
L 260.727732 109.60088 
L 261.341501 108.308819 
L 262.569039 108.308819 
L 263.182808 107.662789 
L 263.796577 107.662789 
L 266.251653 105.078668 
L 267.479192 106.370728 
L 268.092961 106.370728 
L 269.320499 105.078668 
L 269.934268 103.786608 
L 270.548037 103.140577 
L 271.161806 103.140577 
L 271.775575 101.202487 
L 272.389344 100.556456 
L 273.616882 100.556456 
L 274.230651 99.910426 
L 274.84442 99.910426 
L 275.458189 101.848517 
L 276.071958 101.848517 
L 276.685727 102.494547 
L 277.299496 105.724698 
L 277.913265 105.724698 
L 278.527034 107.016759 
L 279.140804 107.662789 
L 279.754573 107.662789 
L 281.59588 109.60088 
L 282.209649 110.89294 
L 282.823418 113.477061 
L 283.437187 112.831031 
L 284.050956 112.831031 
L 284.664725 113.477061 
L 285.278494 113.477061 
L 285.892263 114.769121 
L 286.506032 115.415152 
L 288.347339 115.415152 
L 288.961108 116.707212 
L 289.574877 113.477061 
L 290.802415 112.185001 
L 291.416185 112.831031 
L 292.029954 112.831031 
L 293.257492 111.53897 
L 293.871261 111.53897 
L 294.48503 110.24691 
L 295.098799 109.60088 
L 295.712568 110.89294 
L 296.326337 110.24691 
L 296.940106 110.89294 
L 297.553875 110.24691 
L 299.395182 110.24691 
L 300.008951 109.60088 
L 300.62272 109.60088 
L 301.236489 108.954849 
L 301.850258 108.954849 
L 302.464027 109.60088 
L 303.077796 108.954849 
L 304.305335 108.954849 
L 304.919104 109.60088 
L 305.532873 109.60088 
L 306.146642 110.24691 
L 306.760411 111.53897 
L 307.37418 109.60088 
L 307.987949 109.60088 
L 308.601718 110.89294 
L 309.215487 110.24691 
L 309.829256 110.24691 
L 310.443025 108.954849 
L 312.284332 107.016759 
L 312.898101 107.016759 
L 314.125639 109.60088 
L 314.739408 110.24691 
L 315.353177 112.831031 
L 315.966947 110.89294 
L 316.580716 110.24691 
L 317.808254 111.53897 
L 318.422023 112.831031 
L 319.035792 112.185001 
L 319.649561 113.477061 
L 320.26333 114.123091 
L 320.877099 112.831031 
L 321.490868 114.123091 
L 322.718406 117.999273 
L 323.332175 118.645303 
L 323.945944 118.645303 
L 324.559713 119.291333 
L 325.173482 120.583394 
L 325.787251 119.291333 
L 326.40102 119.291333 
L 327.628558 117.999273 
L 328.242328 118.645303 
L 328.856097 118.645303 
L 330.083635 117.353242 
L 330.697404 114.769121 
L 332.538711 112.831031 
L 333.15248 113.477061 
L 333.766249 111.53897 
L 334.380018 110.24691 
L 334.993787 108.308819 
L 335.607556 108.308819 
L 336.221325 109.60088 
L 337.448863 108.308819 
L 338.062632 107.016759 
L 338.676401 106.370728 
L 341.131478 106.370728 
L 341.745247 105.078668 
L 342.359016 104.432638 
L 342.972785 104.432638 
L 343.586554 105.724698 
L 344.814092 107.016759 
L 345.427861 107.016759 
L 346.04163 108.308819 
L 346.655399 107.662789 
L 347.269168 108.308819 
L 347.882937 107.662789 
L 348.496706 106.370728 
L 349.110475 107.016759 
L 349.724244 107.016759 
L 350.338013 107.662789 
L 350.951782 107.662789 
L 351.565551 107.016759 
L 352.17932 105.078668 
L 353.406859 103.786608 
L 355.248166 107.662789 
L 356.475704 105.078668 
L 357.089473 105.078668 
L 357.703242 105.724698 
L 358.317011 104.432638 
L 358.93078 105.078668 
L 359.544549 105.078668 
L 360.158318 106.370728 
L 360.772087 106.370728 
L 361.999625 107.662789 
L 362.613394 107.662789 
L 363.227163 107.016759 
L 363.840932 107.016759 
L 365.068471 110.89294 
L 365.68224 111.53897 
L 366.296009 110.24691 
L 366.909778 110.24691 
L 367.523547 108.954849 
L 368.137316 108.954849 
L 368.751085 110.24691 
L 369.364854 108.954849 
L 371.81993 108.954849 
L 372.433699 107.662789 
L 373.047468 108.308819 
L 373.661237 107.016759 
L 374.275006 107.662789 
L 374.888775 107.662789 
L 375.502544 108.308819 
L 376.116313 109.60088 
L 377.343852 105.724698 
L 377.957621 105.078668 
L 378.57139 105.724698 
L 379.185159 104.432638 
L 379.798928 105.078668 
L 380.412697 105.078668 
L 381.026466 107.016759 
L 381.640235 107.662789 
L 382.867773 107.662789 
L 384.095311 106.370728 
L 385.322849 107.662789 
L 385.936618 108.954849 
L 386.550387 107.016759 
L 387.164156 106.370728 
L 387.777925 108.308819 
L 388.391694 107.016759 
L 389.005463 108.308819 
L 389.619233 108.308819 
L 390.233002 108.954849 
L 390.846771 108.954849 
L 391.46054 109.60088 
L 392.074309 108.954849 
L 392.688078 109.60088 
L 393.915616 109.60088 
L 394.529385 108.954849 
L 395.143154 111.53897 
L 396.370692 111.53897 
L 396.984461 110.89294 
L 397.59823 110.89294 
L 398.211999 108.954849 
L 398.825768 109.60088 
L 399.439537 112.185001 
L 400.053306 109.60088 
L 400.667075 109.60088 
L 401.280844 108.954849 
L 401.894614 111.53897 
L 403.122152 110.24691 
L 404.34969 110.24691 
L 404.963459 110.89294 
L 405.577228 107.662789 
L 406.190997 106.370728 
L 406.804766 107.016759 
L 407.418535 104.432638 
L 408.032304 105.078668 
L 409.873611 105.078668 
L 410.48738 105.724698 
L 411.101149 107.016759 
L 411.714918 105.078668 
L 412.942456 106.370728 
L 413.556225 106.370728 
L 414.169995 104.432638 
L 414.783764 105.078668 
L 415.397533 107.016759 
L 416.625071 108.308819 
L 417.23884 107.662789 
L 417.852609 107.662789 
L 418.466378 108.308819 
L 419.080147 107.016759 
L 419.693916 107.662789 
L 421.535223 107.662789 
L 422.148992 106.370728 
L 422.762761 107.016759 
L 423.37653 106.370728 
L 423.990299 107.016759 
L 424.604068 106.370728 
L 426.445376 106.370728 
L 427.059145 107.016759 
L 427.672914 105.078668 
L 429.514221 105.078668 
L 430.12799 105.724698 
L 430.741759 105.078668 
L 431.355528 105.724698 
L 432.583066 104.432638 
L 433.196835 105.078668 
L 433.810604 105.078668 
L 434.424373 105.724698 
L 435.651911 104.432638 
L 436.26568 103.140577 
L 436.879449 103.140577 
L 438.106987 104.432638 
L 438.720757 103.786608 
L 439.334526 104.432638 
L 439.948295 104.432638 
L 440.562064 103.140577 
L 441.789602 101.848517 
L 442.403371 102.494547 
L 443.01714 103.786608 
L 443.630909 103.140577 
L 444.244678 103.786608 
L 445.472216 103.786608 
L 446.085985 105.078668 
L 446.699754 105.724698 
L 447.313523 105.078668 
L 447.927292 105.724698 
L 448.541061 105.724698 
L 449.15483 107.016759 
L 450.382368 104.432638 
L 450.996138 105.078668 
L 451.609907 103.786608 
L 452.223676 104.432638 
L 452.837445 104.432638 
L 454.064983 105.724698 
L 455.292521 103.140577 
L 455.90629 103.140577 
L 456.520059 102.494547 
L 457.133828 102.494547 
L 457.747597 103.140577 
L 458.361366 102.494547 
L 458.975135 102.494547 
L 459.588904 103.140577 
L 460.202673 102.494547 
L 460.816442 104.432638 
L 463.271519 104.432638 
L 463.885288 105.078668 
L 464.499057 104.432638 
L 465.112826 105.724698 
L 465.726595 105.724698 
L 467.567902 107.662789 
L 468.181671 109.60088 
L 468.79544 110.89294 
L 469.409209 111.53897 
L 471.250516 109.60088 
L 472.478054 109.60088 
L 473.091823 107.662789 
L 473.705592 106.370728 
L 474.319361 108.954849 
L 474.93313 108.954849 
L 475.5469 109.60088 
L 476.160669 108.954849 
L 476.774438 109.60088 
L 477.388207 109.60088 
L 478.001976 108.954849 
L 479.229514 108.954849 
L 479.843283 108.308819 
L 481.070821 105.724698 
L 481.68459 105.724698 
L 482.298359 105.078668 
L 483.525897 107.662789 
L 484.753435 108.954849 
L 485.980973 108.954849 
L 486.594742 107.662789 
L 487.208511 108.308819 
L 487.822281 107.662789 
L 489.049819 108.954849 
L 489.663588 108.954849 
L 490.277357 110.24691 
L 490.891126 109.60088 
L 492.118664 110.89294 
L 492.732433 110.24691 
L 493.346202 110.89294 
L 494.57374 110.89294 
L 495.187509 110.24691 
L 496.415047 107.662789 
L 497.028816 107.016759 
L 497.642585 107.662789 
L 498.256354 108.954849 
L 498.870123 107.662789 
L 499.483892 107.662789 
L 500.097662 108.308819 
L 500.711431 108.308819 
L 501.3252 107.016759 
L 501.938969 106.370728 
L 502.552738 107.016759 
L 503.166507 106.370728 
L 503.780276 106.370728 
L 505.007814 107.662789 
L 507.46289 107.662789 
L 508.076659 107.016759 
L 509.304197 108.308819 
L 509.917966 108.308819 
L 510.531735 109.60088 
L 511.759273 109.60088 
L 512.373043 108.308819 
L 512.986812 108.308819 
L 513.600581 109.60088 
L 514.828119 108.308819 
L 515.441888 110.24691 
L 516.055657 108.954849 
L 516.669426 108.308819 
L 517.283195 109.60088 
L 518.510733 109.60088 
L 519.124502 110.89294 
L 519.738271 110.89294 
L 520.35204 111.53897 
L 520.965809 111.53897 
L 521.579578 110.24691 
L 522.193347 110.24691 
L 522.807116 109.60088 
L 523.420885 110.24691 
L 524.034654 110.24691 
L 524.648424 110.89294 
L 525.875962 109.60088 
L 526.489731 110.24691 
L 527.717269 107.662789 
L 528.331038 107.662789 
L 528.944807 107.016759 
L 529.558576 105.078668 
L 530.786114 105.078668 
L 531.399883 103.786608 
L 533.24119 105.724698 
L 533.854959 107.016759 
L 534.468728 107.016759 
L 535.082497 105.724698 
L 535.696266 107.016759 
L 536.310035 106.370728 
L 537.537574 106.370728 
L 538.151343 107.016759 
L 538.765112 106.370728 
L 539.378881 107.016759 
L 539.99265 106.370728 
L 541.220188 108.954849 
L 541.833957 111.53897 
L 542.447726 112.831031 
L 543.675264 116.707212 
L 544.289033 116.061182 
L 544.902802 116.061182 
L 545.516571 115.415152 
L 546.13034 116.061182 
L 547.357878 114.769121 
L 547.971647 113.477061 
L 548.585416 113.477061 
L 549.199186 112.831031 
L 549.812955 113.477061 
L 550.426724 112.831031 
L 551.654262 114.123091 
L 552.268031 115.415152 
L 552.8818 114.123091 
L 553.495569 114.769121 
L 554.109338 112.185001 
L 554.723107 110.89294 
L 555.336876 108.954849 
L 556.564414 107.662789 
L 557.791952 107.662789 
L 558.405721 107.016759 
L 559.01949 107.662789 
L 559.633259 110.24691 
L 560.247028 111.53897 
L 560.860797 112.185001 
L 562.702105 112.185001 
L 563.315874 111.53897 
L 564.543412 108.954849 
L 565.157181 109.60088 
L 565.77095 108.308819 
L 566.384719 108.308819 
L 566.998488 107.662789 
L 567.612257 108.308819 
L 568.226026 107.016759 
L 568.839795 107.016759 
L 569.453564 105.724698 
L 570.067333 105.724698 
L 570.681102 105.078668 
L 571.294871 105.724698 
L 572.522409 101.848517 
L 573.136178 101.848517 
L 573.749948 102.494547 
L 574.363717 102.494547 
L 574.977486 101.848517 
L 575.591255 101.848517 
L 576.205024 102.494547 
L 576.818793 102.494547 
L 577.432562 103.786608 
L 578.6601 103.786608 
L 579.273869 105.078668 
L 579.887638 104.432638 
L 580.501407 105.724698 
L 581.115176 105.724698 
L 581.728945 107.016759 
L 582.956483 105.724698 
L 583.570252 104.432638 
L 584.184021 103.786608 
L 585.411559 103.786608 
L 586.025329 105.078668 
L 586.639098 105.724698 
L 587.252867 105.724698 
L 589.094174 107.662789 
L 589.707943 105.724698 
L 590.321712 105.724698 
L 590.935481 107.662789 
L 591.54925 106.370728 
L 592.163019 105.724698 
L 592.776788 104.432638 
L 593.390557 107.016759 
L 594.004326 107.016759 
L 594.618095 107.662789 
L 596.459402 107.662789 
L 597.073171 108.308819 
L 597.68694 107.662789 
L 598.30071 105.724698 
L 598.914479 104.432638 
L 599.528248 105.078668 
L 600.142017 104.432638 
L 600.755786 105.078668 
L 601.369555 104.432638 
L 601.983324 105.078668 
L 602.597093 105.078668 
L 603.210862 104.432638 
L 603.824631 104.432638 
L 604.4384 105.724698 
L 605.052169 106.370728 
L 606.279707 103.786608 
L 606.893476 103.140577 
L 607.507245 103.140577 
L 608.121014 104.432638 
L 608.734783 105.078668 
L 609.348552 104.432638 
L 609.962321 106.370728 
L 610.576091 107.662789 
L 611.803629 108.954849 
L 612.417398 110.24691 
L 613.031167 109.60088 
L 613.644936 110.24691 
L 614.258705 111.53897 
L 614.872474 111.53897 
L 615.486243 112.185001 
L 616.713781 112.185001 
L 617.32755 111.53897 
L 617.941319 110.24691 
L 619.168857 112.831031 
L 620.396395 114.123091 
L 621.010164 114.123091 
L 621.623933 114.769121 
L 622.237702 112.831031 
L 624.07901 110.89294 
L 625.306548 108.308819 
L 625.920317 108.308819 
L 626.534086 106.370728 
L 627.147855 105.724698 
L 627.761624 103.786608 
L 628.375393 104.432638 
L 628.989162 103.786608 
L 630.2167 105.078668 
L 630.830469 105.078668 
L 632.058007 103.786608 
L 632.671776 102.494547 
L 633.285545 101.848517 
L 633.899314 101.848517 
L 634.513083 102.494547 
L 635.740622 101.202487 
L 636.354391 101.202487 
L 637.581929 102.494547 
L 638.195698 102.494547 
L 638.809467 103.140577 
L 639.423236 104.432638 
L 640.037005 107.016759 
L 640.650774 107.016759 
L 641.264543 106.370728 
L 641.878312 106.370728 
L 643.10585 105.078668 
L 644.333388 106.370728 
L 644.947157 106.370728 
L 645.560926 107.662789 
L 646.174695 107.662789 
L 646.788464 108.954849 
L 648.016003 108.954849 
L 648.629772 109.60088 
L 649.85731 109.60088 
L 650.471079 110.24691 
L 651.698617 108.954849 
L 652.312386 107.016759 
L 652.926155 106.370728 
L 653.539924 108.308819 
L 654.153693 108.308819 
L 654.767462 109.60088 
L 655.995 108.308819 
L 656.608769 108.954849 
L 657.222538 108.954849 
L 657.836307 107.662789 
L 658.450076 107.016759 
L 659.063845 105.078668 
L 659.677615 106.370728 
L 660.291384 106.370728 
L 660.905153 105.724698 
L 662.74646 105.724698 
L 663.360229 106.370728 
L 663.973998 105.724698 
L 665.201536 107.016759 
L 665.815305 105.078668 
L 666.429074 106.370728 
L 667.656612 107.662789 
L 668.270381 107.662789 
L 668.88415 106.370728 
L 669.497919 105.724698 
L 670.111688 107.662789 
L 671.339226 107.662789 
L 671.952996 108.308819 
L 672.566765 109.60088 
L 673.180534 109.60088 
L 674.408072 108.308819 
L 675.021841 107.016759 
L 676.249379 108.308819 
L 676.863148 107.662789 
L 677.476917 107.662789 
L 678.090686 108.308819 
L 678.704455 107.016759 
L 679.931993 105.724698 
L 680.545762 107.662789 
L 681.159531 108.308819 
L 681.7733 108.308819 
L 682.387069 109.60088 
L 683.000838 111.53897 
L 683.614607 111.53897 
L 684.228377 109.60088 
L 685.455915 108.308819 
L 686.069684 109.60088 
L 686.683453 110.24691 
L 687.297222 111.53897 
L 688.52476 111.53897 
L 689.138529 113.477061 
L 689.752298 112.831031 
L 690.366067 112.831031 
L 690.979836 114.123091 
L 691.593605 112.831031 
L 692.207374 112.831031 
L 692.821143 110.89294 
L 693.434912 111.53897 
L 694.048681 111.53897 
L 694.66245 108.954849 
L 695.889988 108.954849 
L 696.503758 109.60088 
L 697.117527 108.954849 
L 697.731296 108.954849 
L 698.345065 108.308819 
L 699.572603 109.60088 
L 700.186372 108.308819 
L 700.800141 108.308819 
L 701.41391 105.724698 
L 702.027679 106.370728 
L 703.255217 106.370728 
L 703.868986 107.016759 
L 704.482755 107.016759 
L 705.710293 105.724698 
L 706.937831 105.724698 
L 707.5516 105.078668 
L 708.165369 105.078668 
L 708.779139 104.432638 
L 710.006677 107.016759 
L 710.620446 106.370728 
L 711.234215 105.078668 
L 711.847984 104.432638 
L 712.461753 105.078668 
L 713.075522 104.432638 
L 714.30306 105.724698 
L 714.916829 105.724698 
L 715.530598 104.432638 
L 716.144367 105.078668 
L 717.371905 107.662789 
L 718.599443 108.954849 
L 719.213212 108.308819 
L 719.826981 107.016759 
L 720.44075 107.016759 
L 721.668289 108.308819 
L 722.282058 107.662789 
L 723.509596 108.954849 
L 724.123365 108.308819 
L 724.737134 108.308819 
L 725.964672 109.60088 
L 726.578441 109.60088 
L 727.19221 110.89294 
L 728.419748 110.89294 
L 729.033517 110.24691 
L 729.647286 110.24691 
L 730.261055 108.954849 
L 730.874824 108.308819 
L 731.488593 108.954849 
L 732.102362 110.24691 
L 732.716131 112.185001 
L 733.329901 111.53897 
L 733.94367 109.60088 
L 734.557439 112.185001 
L 735.171208 111.53897 
L 735.784977 111.53897 
L 736.398746 110.89294 
L 737.012515 110.89294 
L 738.853822 108.954849 
L 739.467591 107.662789 
L 740.695129 106.370728 
L 741.308898 107.016759 
L 741.922667 105.724698 
L 742.536436 106.370728 
L 743.763974 106.370728 
L 744.377743 105.078668 
L 744.991512 104.432638 
L 746.219051 105.724698 
L 746.83282 107.016759 
L 747.446589 107.662789 
L 748.060358 107.662789 
L 750.515434 110.24691 
L 751.129203 109.60088 
L 752.356741 112.185001 
L 752.97051 112.185001 
L 753.584279 111.53897 
L 754.811817 112.831031 
L 755.425586 112.831031 
L 756.039355 112.185001 
L 756.653124 112.831031 
L 757.266893 111.53897 
L 757.880663 111.53897 
L 758.494432 110.89294 
L 759.108201 107.016759 
L 759.72197 106.370728 
L 760.335739 106.370728 
L 761.563277 105.078668 
L 762.177046 105.078668 
L 762.790815 104.432638 
L 763.404584 104.432638 
L 764.018353 103.140577 
L 764.632122 102.494547 
L 766.473429 102.494547 
L 767.087198 101.848517 
L 767.700967 104.432638 
L 768.314736 105.078668 
L 768.928505 105.078668 
L 769.542274 105.724698 
L 770.156044 105.078668 
L 770.769813 105.724698 
L 771.383582 105.078668 
L 772.61112 105.078668 
L 773.224889 105.724698 
L 775.066196 105.724698 
L 775.679965 108.954849 
L 776.293734 110.24691 
L 778.135041 108.308819 
L 778.74881 108.308819 
L 779.362579 107.662789 
L 779.976348 105.078668 
L 780.590117 106.370728 
L 781.203886 106.370728 
L 781.817655 105.724698 
L 782.431425 105.724698 
L 783.045194 105.078668 
L 783.658963 107.016759 
L 784.272732 109.60088 
L 784.886501 108.954849 
L 785.50027 110.89294 
L 786.114039 111.53897 
L 786.727808 110.89294 
L 787.341577 110.89294 
L 788.569115 107.016759 
L 789.182884 107.016759 
L 789.796653 107.662789 
L 790.410422 107.662789 
L 791.024191 107.016759 
L 791.63796 108.308819 
L 792.251729 108.308819 
L 792.865498 107.016759 
L 793.479267 106.370728 
L 794.093036 106.370728 
L 794.706806 107.662789 
L 795.320575 108.308819 
L 795.934344 107.662789 
L 796.548113 106.370728 
L 797.161882 107.016759 
L 797.775651 105.078668 
L 798.38942 105.724698 
L 799.003189 107.016759 
L 799.616958 107.016759 
L 800.230727 107.662789 
L 801.458265 107.662789 
L 802.072034 108.308819 
L 802.685803 109.60088 
L 803.913341 109.60088 
L 804.52711 110.24691 
L 805.140879 110.24691 
L 805.754648 111.53897 
L 806.368417 111.53897 
L 806.982187 110.24691 
L 807.595956 109.60088 
L 808.823494 107.016759 
L 809.437263 107.662789 
L 810.051032 107.016759 
L 810.664801 105.724698 
L 811.892339 107.016759 
L 812.506108 105.724698 
L 812.506108 105.724698 
" clip-path="url(#pc59b226fdb)" style="fill: none; stroke: #1f77b4; stroke-width: 1.5; stroke-linecap: round"/>
   </g>
   <g id="patch_3">
    <path d="M 39.801563 459.42625 
L 39.801563 82.790625 
" style="fill: none; stroke: #cccccc; stroke-width: 0.8; stroke-linejoin: miter; stroke-linecap: square"/>
   </g>
   <g id="patch_4">
    <path d="M 849.301563 459.42625 
L 849.301563 82.790625 
" style="fill: none; stroke: #cccccc; stroke-width: 0.8; stroke-linejoin: miter; stroke-linecap: square"/>
   </g>
   <g id="patch_5">
    <path d="M 39.801563 459.42625 
L 849.301563 459.42625 
" style="fill: none; stroke: #cccccc; stroke-width: 0.8; stroke-linejoin: miter; stroke-linecap: square"/>
   </g>
   <g id="patch_6">
    <path d="M 39.801563 82.790625 
L 849.301563 82.790625 
" style="fill: none; stroke: #cccccc; stroke-width: 0.8; stroke-linejoin: miter; stroke-linecap: square"/>
   </g>
   <g id="legend_1">
    <g id="patch_7">
     <path d="M 770.301563 454.42625 
L 842.301563 454.42625 
Q 844.301563 454.42625 844.301563 452.42625 
L 844.301563 437.946562 
Q 844.301563 435.946562 842.301563 435.946562 
L 770.301563 435.946562 
Q 768.301563 435.946562 768.301563 437.946562 
L 768.301563 452.42625 
Q 768.301563 454.42625 770.301563 454.42625 
z
" style="fill: #ffffff; opacity: 0.8; stroke: #cccccc; stroke-linejoin: miter"/>
    </g>
    <g id="line2d_16">
     <path d="M 772.301563 444.440312 
L 782.301563 444.440312 
L 792.301563 444.440312 
" style="fill: none; stroke: #1f77b4; stroke-width: 1.5; stroke-linecap: round"/>
    </g>
    <g id="text_17">
     <!-- 平滑奖励 -->
     <g style="fill: #262626" transform="translate(800.301563 447.940312) scale(0.1 -0.1)">
      <use xlink:href="#MicrosoftYaHei-5e73"/>
      <use xlink:href="#MicrosoftYaHei-6ed1" transform="translate(100 0)"/>
      <use xlink:href="#MicrosoftYaHei-5956" transform="translate(200 0)"/>
      <use xlink:href="#MicrosoftYaHei-52b1" transform="translate(300 0)"/>
     </g>
    </g>
   </g>
  </g>
  <g id="text_18">
   <!-- hpo_params - PPO - 初始训练 (正态-大幅均值改变(μ14,σ2)) -->
   <g style="fill: #262626" transform="translate(203.455312 20.615) scale(0.16 -0.16)">
    <defs>
     <path id="MicrosoftYaHei-Bold-68" d="M 3725 0 
L 2719 0 
L 2719 1969 
Q 2719 2766 2138 2766 
Q 1847 2766 1658 2544 
Q 1469 2322 1469 1969 
L 1469 0 
L 459 0 
L 459 5116 
L 1469 5116 
L 1469 2938 
L 1481 2938 
Q 1878 3541 2550 3541 
Q 3725 3541 3725 2122 
L 3725 0 
z
" transform="scale(0.015625)"/>
     <path id="MicrosoftYaHei-Bold-70" d="M 1469 416 
L 1469 -1591 
L 459 -1591 
L 459 3456 
L 1469 3456 
L 1469 2928 
L 1481 2928 
Q 1878 3541 2603 3541 
Q 3263 3541 3634 3080 
Q 4006 2619 4006 1825 
Q 4006 959 3575 437 
Q 3144 -84 2444 -84 
Q 1809 -84 1481 416 
L 1469 416 
z
M 1453 1528 
Q 1453 1159 1653 925 
Q 1853 691 2172 691 
Q 2550 691 2761 984 
Q 2972 1278 2972 1816 
Q 2972 2766 2231 2766 
Q 1888 2766 1670 2503 
Q 1453 2241 1453 1828 
L 1453 1528 
z
" transform="scale(0.015625)"/>
     <path id="MicrosoftYaHei-Bold-6f" d="M 253 1713 
Q 253 2566 764 3053 
Q 1275 3541 2138 3541 
Q 2972 3541 3462 3061 
Q 3953 2581 3953 1772 
Q 3953 922 3450 419 
Q 2947 -84 2088 -84 
Q 1244 -84 748 398 
Q 253 881 253 1713 
z
M 1275 1725 
Q 1275 691 2119 691 
Q 2928 691 2928 1753 
Q 2928 2766 2113 2766 
Q 1716 2766 1495 2494 
Q 1275 2222 1275 1725 
z
" transform="scale(0.015625)"/>
     <path id="MicrosoftYaHei-Bold-5f" d="M 2869 -1675 
L 0 -1675 
L 0 -1272 
L 2869 -1272 
L 2869 -1675 
z
" transform="scale(0.015625)"/>
     <path id="MicrosoftYaHei-Bold-61" d="M 544 3247 
Q 778 3378 1170 3459 
Q 1563 3541 1841 3541 
Q 3291 3541 3291 2088 
L 3291 0 
L 2331 0 
L 2331 503 
L 2319 503 
Q 1966 -84 1284 -84 
Q 794 -84 498 195 
Q 203 475 203 956 
Q 203 1950 1388 2113 
L 2338 2241 
Q 2338 2844 1709 2844 
Q 1091 2844 544 2469 
L 544 3247 
z
M 1684 1566 
Q 1138 1494 1138 1072 
Q 1138 878 1270 759 
Q 1403 641 1628 641 
Q 1938 641 2138 859 
Q 2338 1078 2338 1403 
L 2338 1650 
L 1684 1566 
z
" transform="scale(0.015625)"/>
     <path id="MicrosoftYaHei-Bold-72" d="M 2663 2541 
Q 2478 2647 2216 2647 
Q 1872 2647 1670 2384 
Q 1469 2122 1469 1663 
L 1469 0 
L 459 0 
L 459 3456 
L 1469 3456 
L 1469 2806 
L 1481 2806 
Q 1731 3516 2391 3516 
Q 2569 3516 2663 3475 
L 2663 2541 
z
" transform="scale(0.015625)"/>
     <path id="MicrosoftYaHei-Bold-6d" d="M 5881 0 
L 4875 0 
L 4875 1972 
Q 4875 2766 4297 2766 
Q 4028 2766 3850 2525 
Q 3672 2284 3672 1938 
L 3672 0 
L 2666 0 
L 2666 1997 
Q 2666 2766 2094 2766 
Q 1809 2766 1639 2536 
Q 1469 2306 1469 1928 
L 1469 0 
L 459 0 
L 459 3456 
L 1469 3456 
L 1469 2916 
L 1481 2916 
Q 1663 3213 1963 3377 
Q 2263 3541 2594 3541 
Q 3322 3541 3591 2888 
Q 3991 3541 4753 3541 
Q 5881 3541 5881 2147 
L 5881 0 
z
" transform="scale(0.015625)"/>
     <path id="MicrosoftYaHei-Bold-73" d="M 369 928 
Q 888 613 1384 613 
Q 2009 613 2009 947 
Q 2009 1184 1494 1344 
Q 850 1544 609 1789 
Q 369 2034 369 2453 
Q 369 2963 781 3252 
Q 1194 3541 1863 3541 
Q 2338 3541 2778 3400 
L 2778 2606 
Q 2375 2844 1891 2844 
Q 1650 2844 1503 2758 
Q 1356 2672 1356 2531 
Q 1356 2294 1794 2147 
Q 2263 1991 2498 1862 
Q 2734 1734 2857 1525 
Q 2981 1316 2981 1041 
Q 2981 506 2553 211 
Q 2125 -84 1409 -84 
Q 847 -84 369 94 
L 369 928 
z
" transform="scale(0.015625)"/>
     <path id="MicrosoftYaHei-Bold-20" transform="scale(0.015625)"/>
     <path id="MicrosoftYaHei-Bold-2d" d="M 2328 1497 
L 481 1497 
L 481 2209 
L 2328 2209 
L 2328 1497 
z
" transform="scale(0.015625)"/>
     <path id="MicrosoftYaHei-Bold-50" d="M 1591 1688 
L 1591 0 
L 559 0 
L 559 4841 
L 2225 4841 
Q 4031 4841 4031 3309 
Q 4031 2566 3486 2117 
Q 2941 1669 2122 1688 
L 1591 1688 
z
M 1591 4041 
L 1591 2478 
L 2038 2478 
Q 2947 2478 2947 3269 
Q 2947 4041 2047 4041 
L 1591 4041 
z
" transform="scale(0.015625)"/>
     <path id="MicrosoftYaHei-Bold-4f" d="M 256 2356 
Q 256 3494 920 4208 
Q 1584 4922 2675 4922 
Q 3713 4922 4345 4231 
Q 4978 3541 4978 2456 
Q 4978 1325 4320 620 
Q 3663 -84 2597 -84 
Q 1556 -84 906 598 
Q 256 1281 256 2356 
z
M 1341 2413 
Q 1341 1706 1681 1257 
Q 2022 809 2616 809 
Q 3222 809 3559 1239 
Q 3897 1669 3897 2394 
Q 3897 3150 3569 3589 
Q 3241 4028 2644 4028 
Q 2038 4028 1689 3578 
Q 1341 3128 1341 2413 
z
" transform="scale(0.015625)"/>
     <path id="MicrosoftYaHei-Bold-521d" d="M 1288 5359 
Q 1619 4997 2031 4453 
L 1516 4109 
L 2294 4109 
L 2294 3378 
Q 2019 2847 1700 2369 
L 1700 2256 
Q 1809 2175 1909 2097 
Q 2209 2516 2419 2878 
L 2994 2516 
Q 2716 2138 2381 1734 
Q 2619 1544 2813 1378 
L 2363 834 
Q 2016 1166 1700 1441 
L 1700 -866 
L 913 -866 
L 913 1338 
Q 641 1025 344 741 
Q 231 1228 94 1678 
Q 831 2278 1363 3303 
L 156 3303 
L 156 4109 
L 1231 4109 
Q 981 4472 613 4928 
L 1288 5359 
z
M 3919 -697 
Q 3838 -266 3700 253 
Q 4153 209 4563 209 
Q 5006 209 5040 675 
Q 5075 1141 5113 4159 
L 4097 4159 
Q 4050 2622 3984 1959 
Q 3919 1297 3595 525 
Q 3272 -247 2644 -859 
Q 2369 -578 1925 -216 
Q 2450 234 2734 806 
Q 3019 1378 3105 1972 
Q 3191 2566 3219 4159 
L 2488 4159 
L 2488 4947 
L 6013 4947 
L 5938 1331 
L 5906 491 
Q 5906 -44 5686 -328 
Q 5466 -613 5067 -647 
Q 4669 -681 3919 -697 
z
" transform="scale(0.015625)"/>
     <path id="MicrosoftYaHei-Bold-59cb" d="M 2863 -853 
L 2863 356 
L 2256 -291 
Q 2000 -25 1744 225 
Q 1309 -381 638 -847 
Q 350 -466 69 -153 
Q 706 259 1119 816 
Q 669 1228 225 1597 
Q 441 2363 616 3359 
L 119 3359 
L 119 4134 
L 741 4134 
Q 825 4706 900 5347 
L 1731 5259 
L 1550 4134 
L 2669 4134 
Q 2663 3728 2638 3363 
Q 3213 3972 3875 5359 
L 4800 5097 
Q 4225 4159 3594 3378 
Q 4328 3422 5075 3484 
Q 4847 3944 4619 4359 
L 5294 4634 
Q 5831 3747 6369 2659 
L 5613 2341 
L 5391 2828 
Q 3522 2697 2863 2578 
L 2625 3169 
Q 2519 1791 2156 953 
L 2863 394 
L 2863 2116 
L 5981 2116 
L 5981 -828 
L 5144 -828 
L 5144 -472 
L 3700 -472 
L 3700 -853 
L 2863 -853 
z
M 1088 1797 
L 1503 1469 
Q 1809 2241 1863 3359 
L 1413 3359 
Q 1259 2541 1088 1797 
z
M 5144 1328 
L 3700 1328 
L 3700 316 
L 5144 316 
L 5144 1328 
z
" transform="scale(0.015625)"/>
     <path id="MicrosoftYaHei-Bold-8bad" d="M 956 5259 
Q 1475 4753 1925 4234 
L 1263 3684 
Q 769 4328 356 4747 
L 956 5259 
z
M 2450 5184 
L 3281 5184 
L 3281 2066 
Q 3281 209 2275 -884 
Q 1844 -528 1519 -328 
Q 2450 659 2450 2134 
L 2450 5184 
z
M 5238 5184 
L 6069 5184 
L 6069 -784 
L 5238 -784 
L 5238 5184 
z
M 3856 4953 
L 4663 4953 
L 4663 -416 
L 3856 -416 
L 3856 4953 
z
M 2019 1772 
Q 2050 1466 2175 916 
Q 1556 353 925 -341 
L 488 266 
Q 650 447 650 772 
L 650 2422 
L 125 2422 
L 125 3266 
L 1475 3266 
L 1475 1297 
Q 1769 1541 2019 1772 
z
" transform="scale(0.015625)"/>
     <path id="MicrosoftYaHei-Bold-7ec3" d="M 2400 3516 
L 2984 3516 
L 3159 4028 
L 2263 4028 
L 2263 4753 
L 3394 4753 
L 3575 5347 
L 4413 5291 
L 4238 4753 
L 6000 4753 
L 6000 4028 
L 3994 4028 
L 3809 3516 
L 4969 3516 
L 4969 2191 
L 6025 2191 
L 6025 1484 
L 4969 1484 
L 4969 297 
Q 4969 -131 4831 -397 
Q 4694 -663 4444 -758 
Q 4194 -853 3394 -853 
Q 3294 -309 3225 -34 
Q 3525 -72 3756 -72 
Q 4125 -72 4125 491 
L 4125 1484 
L 2513 1484 
L 2513 2291 
Q 2613 2525 2716 2791 
L 2400 2791 
L 2400 3516 
z
M 3306 2191 
L 4125 2191 
L 4125 2791 
L 3541 2791 
L 3306 2191 
z
M 1013 3372 
L 1419 3388 
L 1744 3966 
L 2413 3659 
L 1356 1797 
Q 1894 1872 2294 1941 
Q 2263 1684 2231 1159 
Q 931 984 475 866 
L 244 1566 
Q 531 1816 1009 2653 
L 306 2584 
L 75 3297 
Q 575 3966 1219 5341 
L 2000 5028 
Q 1450 4053 1013 3372 
z
M 75 372 
Q 1100 478 2288 672 
Q 2275 350 2272 116 
Q 2722 741 3000 1309 
L 3706 1003 
Q 3294 197 2738 -597 
Q 2469 -409 2078 -191 
L 238 -503 
L 75 372 
z
M 5000 978 
L 5619 1278 
Q 5994 584 6369 -197 
L 5713 -534 
Q 5356 316 5000 978 
z
" transform="scale(0.015625)"/>
     <path id="MicrosoftYaHei-Bold-28" d="M 1606 -1100 
Q 525 97 525 1853 
Q 525 3550 1606 4841 
L 2431 4841 
Q 1406 3497 1406 1853 
Q 1406 216 2438 -1100 
L 1606 -1100 
z
" transform="scale(0.015625)"/>
     <path id="MicrosoftYaHei-Bold-6b63" d="M 138 303 
L 1050 303 
L 1050 3397 
L 1975 3397 
L 1975 303 
L 3056 303 
L 3056 4078 
L 388 4078 
L 388 4934 
L 6056 4934 
L 6056 4078 
L 4000 4078 
L 4000 2709 
L 5838 2709 
L 5838 1859 
L 4000 1859 
L 4000 303 
L 6263 303 
L 6263 -553 
L 138 -553 
L 138 303 
z
" transform="scale(0.015625)"/>
     <path id="MicrosoftYaHei-Bold-6001" d="M 300 4628 
L 2656 4628 
Q 2719 4953 2700 5334 
L 3625 5334 
Q 3613 4947 3584 4628 
L 6100 4628 
L 6100 3878 
L 3981 3878 
Q 4788 3000 6313 2703 
Q 6063 2228 5869 1784 
Q 4159 2303 3206 3700 
Q 2500 2331 588 1703 
Q 356 2197 88 2616 
Q 1869 3028 2369 3878 
L 300 3878 
L 300 4628 
z
M 2919 3022 
Q 3356 2753 3950 2347 
L 3388 1784 
Q 2863 2222 2406 2528 
L 2919 3022 
z
M 2975 1941 
Q 3619 1559 4163 1166 
L 3644 566 
Q 3119 997 2506 1372 
L 2975 1941 
z
M 5494 1709 
Q 5969 997 6331 278 
L 5588 -128 
Q 5244 603 4775 1353 
L 5494 1709 
z
M 4350 872 
Q 4813 647 5213 497 
Q 5022 -278 4744 -509 
Q 4466 -741 3913 -741 
L 2500 -741 
Q 1563 -741 1563 184 
L 1563 1491 
L 2388 1491 
L 2388 391 
Q 2388 9 2775 9 
L 3713 9 
Q 4019 9 4147 143 
Q 4275 278 4350 872 
z
M 663 1466 
L 1438 1203 
Q 1119 253 863 -353 
L 81 -53 
Q 413 659 663 1466 
z
" transform="scale(0.015625)"/>
     <path id="MicrosoftYaHei-Bold-5927" d="M 213 3728 
L 2681 3728 
Q 2725 4409 2719 5303 
L 3669 5303 
Q 3650 4375 3619 3728 
L 6200 3728 
L 6200 2866 
L 3691 2866 
Q 4228 778 6288 59 
Q 5844 -447 5575 -803 
Q 3872 -3 3203 1775 
Q 2684 147 806 -847 
Q 556 -528 100 -47 
Q 2375 984 2591 2866 
L 213 2866 
L 213 3728 
z
" transform="scale(0.015625)"/>
     <path id="MicrosoftYaHei-Bold-5e45" d="M 850 447 
L 319 447 
L 319 4278 
L 1088 4278 
L 1088 5328 
L 1763 5328 
L 1763 4278 
L 2525 4278 
L 2525 1153 
Q 2525 959 2456 723 
Q 2388 488 1844 503 
Q 1822 784 1763 1116 
L 1763 -847 
L 1088 -847 
L 1088 3528 
L 850 3528 
L 850 447 
z
M 2000 1403 
L 2000 3528 
L 1763 3528 
L 1763 1188 
Q 2000 1141 2000 1403 
z
M 2606 5016 
L 6169 5016 
L 6169 4366 
L 2606 4366 
L 2606 5016 
z
M 2919 4072 
L 5856 4072 
L 5856 2484 
L 2919 2484 
L 2919 4072 
z
M 5056 3447 
L 3719 3447 
L 3719 3109 
L 5056 3109 
L 5056 3447 
z
M 2688 2191 
L 6088 2191 
L 6088 -809 
L 5338 -809 
L 5338 -484 
L 3438 -484 
L 3438 -809 
L 2688 -809 
L 2688 2191 
z
M 3438 1141 
L 4038 1141 
L 4038 1591 
L 3438 1591 
L 3438 1141 
z
M 5338 1591 
L 4738 1591 
L 4738 1141 
L 5338 1141 
L 5338 1591 
z
M 3438 116 
L 4038 116 
L 4038 566 
L 3438 566 
L 3438 116 
z
M 4738 116 
L 5338 116 
L 5338 566 
L 4738 566 
L 4738 116 
z
" transform="scale(0.015625)"/>
     <path id="MicrosoftYaHei-Bold-5747" d="M 250 -397 
L 88 547 
Q 425 628 794 725 
L 794 2847 
L 213 2847 
L 213 3703 
L 794 3703 
L 794 5322 
L 1638 5322 
L 1638 3703 
L 2156 3703 
L 2156 3269 
Q 2794 4313 3075 5366 
L 3925 5266 
Q 3809 4866 3669 4491 
L 6069 4491 
L 6016 1816 
L 5966 303 
Q 5944 -194 5730 -450 
Q 5516 -706 5167 -745 
Q 4819 -784 3775 -797 
Q 3700 -397 3556 153 
Q 4178 103 4625 103 
Q 4819 103 4955 208 
Q 5091 313 5105 575 
Q 5119 838 5141 1619 
L 5181 3703 
L 3341 3703 
Q 3059 3088 2706 2541 
Q 2463 2763 2156 3003 
L 2156 2847 
L 1638 2847 
L 1638 959 
L 2288 1153 
Q 2275 878 2269 253 
Q 963 -134 250 -397 
z
M 3556 3353 
Q 4106 2922 4588 2466 
L 4006 1891 
Q 3500 2403 3019 2822 
L 3556 3353 
z
M 2719 209 
L 2500 1128 
Q 3650 1534 4938 2059 
Q 4956 1566 5000 1153 
Q 3894 728 2719 209 
z
" transform="scale(0.015625)"/>
     <path id="MicrosoftYaHei-Bold-503c" d="M 1638 3 
L 2100 3 
L 2100 3728 
L 3556 3728 
L 3556 4097 
L 1950 4097 
L 1950 4797 
L 3556 4797 
L 3556 5266 
L 4381 5266 
L 4381 4797 
L 6175 4797 
L 6175 4097 
L 4381 4097 
L 4381 3728 
L 5888 3728 
L 5888 3 
L 6325 3 
L 6325 -697 
L 1638 -697 
L 1638 3 
z
M 1125 5347 
L 1950 5128 
Q 1713 4378 1419 3666 
L 1419 -853 
L 625 -853 
L 625 2022 
Q 456 1716 275 1422 
Q 200 1916 69 2591 
Q 675 3803 1125 5347 
z
M 2888 1853 
L 5100 1853 
L 5100 2178 
L 2888 2178 
L 2888 1853 
z
M 2888 928 
L 5100 928 
L 5100 1253 
L 2888 1253 
L 2888 928 
z
M 5100 3103 
L 2888 3103 
L 2888 2778 
L 5100 2778 
L 5100 3103 
z
M 2888 3 
L 5100 3 
L 5100 328 
L 2888 328 
L 2888 3 
z
" transform="scale(0.015625)"/>
     <path id="MicrosoftYaHei-Bold-6539" d="M 3475 5347 
L 4294 5184 
Q 4206 4753 4106 4366 
L 6250 4366 
L 6250 3534 
L 5822 3534 
Q 5650 1950 4966 941 
Q 5528 356 6325 -34 
L 5775 -841 
Q 4969 -359 4400 259 
Q 3772 -378 2931 -847 
Q 2769 -559 2419 -41 
Q 3259 375 3853 969 
Q 3472 1563 3266 2259 
Q 3166 2103 3063 1966 
Q 2834 2322 2650 2559 
L 2650 2078 
L 1225 2078 
L 1225 491 
Q 1781 791 2550 1172 
Q 2569 897 2656 322 
Q 1069 -472 700 -822 
L 238 -209 
Q 406 -3 400 316 
L 400 2878 
L 1825 2878 
L 1825 4091 
L 250 4091 
L 250 4891 
L 2650 4891 
L 2650 2897 
Q 3234 3900 3475 5347 
z
M 4403 1666 
Q 4819 2391 5000 3534 
L 3856 3534 
Q 3813 3409 3766 3291 
Q 3959 2375 4403 1666 
z
" transform="scale(0.015625)"/>
     <path id="MicrosoftYaHei-Bold-53d8" d="M 231 4616 
L 2734 4616 
L 2525 5128 
L 3425 5353 
L 3741 4616 
L 6175 4616 
L 6175 3878 
L 4350 3878 
L 4350 2434 
L 3550 2434 
L 3550 3878 
L 2850 3878 
L 2850 2434 
L 2050 2434 
L 2050 3878 
L 231 3878 
L 231 4616 
z
M 1488 3778 
L 2019 3228 
Q 1338 2684 550 2184 
Q 325 2541 88 2828 
Q 844 3272 1488 3778 
z
M 4881 3728 
Q 5538 3328 6306 2778 
L 5769 2159 
Q 5119 2666 4406 3178 
L 4881 3728 
z
M 5300 2272 
L 5300 1566 
Q 4847 913 4144 422 
Q 5063 147 6288 84 
Q 6194 -84 5825 -822 
Q 4297 -663 3200 -116 
Q 2088 -634 544 -884 
Q 363 -497 94 -66 
Q 1359 84 2338 425 
Q 1741 894 1331 1534 
L 900 1534 
L 900 2272 
L 5300 2272 
z
M 3213 794 
Q 3834 1113 4300 1534 
L 2238 1534 
Q 2631 1100 3213 794 
z
" transform="scale(0.015625)"/>
     <path id="MicrosoftYaHei-Bold-3bc" d="M 2747 550 
Q 2528 -78 1938 -78 
Q 1647 -78 1484 97 
L 1469 97 
L 1469 -1366 
L 459 -1366 
L 459 3456 
L 1469 3456 
L 1469 1456 
Q 1469 728 2069 728 
Q 2713 728 2713 1613 
L 2713 3456 
L 3731 3456 
L 3728 1328 
Q 3728 1047 3795 906 
Q 3863 766 4041 766 
Q 4125 766 4222 797 
L 4222 28 
Q 3944 -50 3631 -50 
Q 2897 -50 2759 550 
L 2747 550 
z
" transform="scale(0.015625)"/>
     <path id="MicrosoftYaHei-Bold-31" d="M 2716 4947 
L 2716 0 
L 1700 0 
L 1700 3809 
Q 1513 3647 1188 3517 
Q 863 3388 591 3356 
L 591 4222 
Q 1447 4472 2072 4947 
L 2716 4947 
z
" transform="scale(0.015625)"/>
     <path id="MicrosoftYaHei-Bold-34" d="M 3184 4841 
L 3184 1766 
L 3869 1766 
L 3869 1031 
L 3184 1031 
L 3184 0 
L 2266 0 
L 2266 1031 
L 103 1031 
L 103 1772 
Q 775 2522 1362 3359 
Q 1950 4197 2250 4841 
L 3184 4841 
z
M 997 1766 
L 2266 1766 
L 2266 3541 
Q 2116 3259 1836 2859 
Q 1556 2459 997 1766 
z
" transform="scale(0.015625)"/>
     <path id="MicrosoftYaHei-Bold-2c" d="M 1419 841 
L 916 -859 
L 134 -859 
L 484 841 
L 1419 841 
z
" transform="scale(0.015625)"/>
     <path id="MicrosoftYaHei-Bold-3c3" d="M 4147 2725 
L 3375 2725 
Q 3753 2244 3753 1616 
Q 3753 838 3286 377 
Q 2819 -84 2031 -84 
Q 1219 -84 736 405 
Q 253 894 253 1719 
Q 253 2572 720 3014 
Q 1188 3456 2097 3456 
L 4147 3456 
L 4147 2725 
z
M 2188 2725 
Q 1284 2725 1284 1678 
Q 1284 1244 1478 969 
Q 1672 694 2025 694 
Q 2356 694 2540 966 
Q 2725 1238 2725 1722 
Q 2725 2288 2447 2725 
L 2188 2725 
z
" transform="scale(0.015625)"/>
     <path id="MicrosoftYaHei-Bold-32" d="M 1500 841 
L 3553 841 
L 3553 0 
L 334 0 
L 334 359 
Q 334 738 473 1050 
Q 613 1363 856 1633 
Q 1100 1903 1613 2266 
Q 2081 2616 2268 2886 
Q 2456 3156 2456 3459 
Q 2456 4113 1744 4113 
Q 1119 4113 550 3613 
L 550 4513 
Q 1184 4922 1975 4922 
Q 2700 4922 3122 4551 
Q 3544 4181 3544 3531 
Q 3544 3169 3422 2876 
Q 3300 2584 3069 2328 
Q 2838 2072 2328 1713 
Q 1838 1363 1669 1172 
Q 1500 981 1500 841 
z
" transform="scale(0.015625)"/>
     <path id="MicrosoftYaHei-Bold-29" d="M 59 -1100 
Q 1097 216 1097 1853 
Q 1097 3484 59 4841 
L 888 4841 
Q 1978 3544 1978 1853 
Q 1978 113 881 -1100 
L 59 -1100 
z
" transform="scale(0.015625)"/>
    </defs>
    <use xlink:href="#MicrosoftYaHei-Bold-68"/>
    <use xlink:href="#MicrosoftYaHei-Bold-70" transform="translate(64.550781 0)"/>
    <use xlink:href="#MicrosoftYaHei-Bold-6f" transform="translate(131.152344 0)"/>
    <use xlink:href="#MicrosoftYaHei-Bold-5f" transform="translate(196.875 0)"/>
    <use xlink:href="#MicrosoftYaHei-Bold-70" transform="translate(241.699219 0)"/>
    <use xlink:href="#MicrosoftYaHei-Bold-61" transform="translate(307.175781 0)"/>
    <use xlink:href="#MicrosoftYaHei-Bold-72" transform="translate(364.939453 0)"/>
    <use xlink:href="#MicrosoftYaHei-Bold-61" transform="translate(407.322266 0)"/>
    <use xlink:href="#MicrosoftYaHei-Bold-6d" transform="translate(465.085938 0)"/>
    <use xlink:href="#MicrosoftYaHei-Bold-73" transform="translate(563.279297 0)"/>
    <use xlink:href="#MicrosoftYaHei-Bold-20" transform="translate(612.644531 0)"/>
    <use xlink:href="#MicrosoftYaHei-Bold-2d" transform="translate(642.429688 0)"/>
    <use xlink:href="#MicrosoftYaHei-Bold-20" transform="translate(686.082031 0)"/>
    <use xlink:href="#MicrosoftYaHei-Bold-50" transform="translate(715.867188 0)"/>
    <use xlink:href="#MicrosoftYaHei-Bold-50" transform="translate(781.589844 0)"/>
    <use xlink:href="#MicrosoftYaHei-Bold-4f" transform="translate(847.3125 0)"/>
    <use xlink:href="#MicrosoftYaHei-Bold-20" transform="translate(929.148438 0)"/>
    <use xlink:href="#MicrosoftYaHei-Bold-2d" transform="translate(958.933594 0)"/>
    <use xlink:href="#MicrosoftYaHei-Bold-20" transform="translate(1002.585938 0)"/>
    <use xlink:href="#MicrosoftYaHei-Bold-521d" transform="translate(1032.371094 0)"/>
    <use xlink:href="#MicrosoftYaHei-Bold-59cb" transform="translate(1132.371094 0)"/>
    <use xlink:href="#MicrosoftYaHei-Bold-8bad" transform="translate(1232.371094 0)"/>
    <use xlink:href="#MicrosoftYaHei-Bold-7ec3" transform="translate(1332.371094 0)"/>
    <use xlink:href="#MicrosoftYaHei-Bold-20" transform="translate(1432.371094 0)"/>
    <use xlink:href="#MicrosoftYaHei-Bold-28" transform="translate(1462.15625 0)"/>
    <use xlink:href="#MicrosoftYaHei-Bold-6b63" transform="translate(1501.121094 0)"/>
    <use xlink:href="#MicrosoftYaHei-Bold-6001" transform="translate(1601.121094 0)"/>
    <use xlink:href="#MicrosoftYaHei-Bold-2d" transform="translate(1701.121094 0)"/>
    <use xlink:href="#MicrosoftYaHei-Bold-5927" transform="translate(1744.773438 0)"/>
    <use xlink:href="#MicrosoftYaHei-Bold-5e45" transform="translate(1844.773438 0)"/>
    <use xlink:href="#MicrosoftYaHei-Bold-5747" transform="translate(1944.773438 0)"/>
    <use xlink:href="#MicrosoftYaHei-Bold-503c" transform="translate(2044.773438 0)"/>
    <use xlink:href="#MicrosoftYaHei-Bold-6539" transform="translate(2144.773438 0)"/>
    <use xlink:href="#MicrosoftYaHei-Bold-53d8" transform="translate(2244.773438 0)"/>
    <use xlink:href="#MicrosoftYaHei-Bold-28" transform="translate(2344.773438 0)"/>
    <use xlink:href="#MicrosoftYaHei-Bold-3bc" transform="translate(2383.738281 0)"/>
    <use xlink:href="#MicrosoftYaHei-Bold-31" transform="translate(2450.828125 0)"/>
    <use xlink:href="#MicrosoftYaHei-Bold-34" transform="translate(2512.498047 0)"/>
    <use xlink:href="#MicrosoftYaHei-Bold-2c" transform="translate(2574.167969 0)"/>
    <use xlink:href="#MicrosoftYaHei-Bold-3c3" transform="translate(2602.732422 0)"/>
    <use xlink:href="#MicrosoftYaHei-Bold-32" transform="translate(2668.455078 0)"/>
    <use xlink:href="#MicrosoftYaHei-Bold-29" transform="translate(2730.125 0)"/>
    <use xlink:href="#MicrosoftYaHei-Bold-29" transform="translate(2769.089844 0)"/>
   </g>
   <!-- (环境: 正态-大幅均值改变(μ14,σ2 | 复杂度: 0.02) -->
   <g style="fill: #262626" transform="translate(249.629063 40.9005) scale(0.16 -0.16)">
    <defs>
     <path id="MicrosoftYaHei-Bold-73af" d="M 5163 2916 
Q 5825 1797 6300 878 
L 5544 472 
Q 5081 1400 4550 2413 
L 4550 -834 
L 3706 -834 
L 3706 2013 
Q 3272 1200 2700 484 
Q 2525 641 2378 766 
Q 2347 503 2331 9 
L 175 -328 
L 81 522 
L 863 613 
L 863 2003 
L 213 2003 
L 213 2834 
L 863 2834 
L 863 4066 
L 175 4066 
L 175 4897 
L 2375 4897 
L 2375 4066 
L 1694 4066 
L 1694 2834 
L 2356 2834 
L 2356 2003 
L 1694 2003 
L 1694 728 
L 2306 825 
Q 2134 972 2000 1072 
Q 3194 2478 3675 4084 
L 2606 4084 
L 2606 4916 
L 6075 4916 
L 6075 4084 
L 4556 4084 
Q 4400 3559 4200 3066 
L 4550 3066 
L 4550 2591 
L 5163 2916 
z
" transform="scale(0.015625)"/>
     <path id="MicrosoftYaHei-Bold-5883" d="M 6044 4241 
L 5000 4241 
L 5563 4103 
Q 5450 3944 5322 3778 
L 6231 3778 
L 6231 3153 
L 2113 3153 
L 2113 3778 
L 2863 3778 
L 2638 4109 
L 3228 4241 
L 2256 4241 
L 2256 4866 
L 3591 4866 
Q 3506 5028 3400 5209 
L 4438 5353 
Q 4509 5125 4575 4866 
L 6044 4866 
L 6044 4241 
z
M 3853 3778 
L 4350 3778 
Q 4506 4009 4625 4241 
L 3503 4241 
Q 3681 4041 3853 3778 
z
M 263 -328 
L 100 603 
L 706 775 
L 706 2997 
L 175 2997 
L 175 3853 
L 706 3853 
L 706 5328 
L 1544 5328 
L 1544 3853 
L 1981 3853 
L 1981 2997 
L 1544 2997 
L 1544 1025 
L 2094 1197 
Q 2081 981 2081 759 
Q 2081 538 2094 309 
Q 1213 16 263 -328 
z
M 2244 2878 
L 5894 2878 
L 5894 603 
L 5038 603 
L 5038 141 
Q 5038 -91 5269 -91 
Q 5441 -91 5512 7 
Q 5584 106 5619 584 
Q 5956 428 6319 322 
Q 6284 66 6212 -223 
Q 6141 -513 5908 -652 
Q 5675 -791 5281 -791 
L 5006 -791 
Q 4238 -791 4238 -97 
L 4238 603 
L 3841 603 
Q 3647 -478 2331 -909 
Q 2125 -622 1763 -178 
Q 2781 88 2994 603 
L 2244 603 
L 2244 2878 
z
M 5094 2291 
L 3044 2291 
L 3044 2009 
L 5094 2009 
L 5094 2291 
z
M 5094 1191 
L 5094 1472 
L 3044 1472 
L 3044 1191 
L 5094 1191 
z
" transform="scale(0.015625)"/>
     <path id="MicrosoftYaHei-Bold-3a" d="M 313 2969 
Q 313 3200 491 3350 
Q 669 3500 916 3500 
Q 1166 3500 1337 3350 
Q 1509 3200 1509 2969 
Q 1509 2728 1337 2579 
Q 1166 2431 903 2431 
Q 653 2431 483 2584 
Q 313 2738 313 2969 
z
M 313 453 
Q 313 688 491 838 
Q 669 988 916 988 
Q 1166 988 1337 834 
Q 1509 681 1509 453 
Q 1509 213 1337 64 
Q 1166 -84 903 -84 
Q 659 -84 486 69 
Q 313 222 313 453 
z
" transform="scale(0.015625)"/>
     <path id="MicrosoftYaHei-Bold-7c" d="M 1500 -1622 
L 691 -1622 
L 691 5288 
L 1500 5288 
L 1500 -1622 
z
" transform="scale(0.015625)"/>
     <path id="MicrosoftYaHei-Bold-590d" d="M 5738 1528 
L 5738 1003 
Q 5091 600 4322 259 
Q 5197 78 6306 -16 
Q 6000 -428 5819 -791 
Q 4391 -569 3278 -153 
Q 2125 -559 744 -853 
Q 550 -541 275 -178 
Q 1394 3 2341 256 
Q 1872 500 1478 788 
Q 1069 416 581 116 
Q 363 391 75 691 
Q 925 1194 1459 1816 
L 844 1816 
L 844 3406 
Q 600 3128 325 2872 
Q 238 3266 94 3759 
Q 831 4484 1188 5334 
L 2063 5334 
Q 1978 5144 1888 4959 
L 6181 4959 
L 6181 4334 
L 1538 4334 
Q 1434 4172 1325 4016 
L 5738 4016 
L 5738 1816 
L 2372 1816 
Q 2272 1666 2163 1528 
L 5738 1528 
z
M 4906 3478 
L 1675 3478 
L 1675 3141 
L 4906 3141 
L 4906 3478 
z
M 4906 2353 
L 4906 2691 
L 1675 2691 
L 1675 2353 
L 4906 2353 
z
M 3269 541 
Q 3897 753 4438 1009 
L 2231 1009 
Q 2669 744 3269 541 
z
" transform="scale(0.015625)"/>
     <path id="MicrosoftYaHei-Bold-6742" d="M 5500 4203 
Q 5919 4078 6338 3978 
Q 6269 3328 6188 2984 
Q 6063 2453 5400 2453 
L 4600 2453 
Q 3900 2453 3900 3153 
L 3900 3997 
L 2781 3997 
Q 2588 2603 613 2141 
Q 419 2466 106 2884 
Q 1644 3172 1869 3997 
L 456 3997 
L 456 4753 
L 1981 4753 
Q 2006 5053 2006 5328 
L 2894 5328 
Q 2894 5084 2869 4753 
L 4800 4753 
L 4800 3459 
Q 4800 3203 5056 3203 
L 5206 3203 
Q 5394 3203 5431 3466 
Q 5469 3816 5500 4203 
z
M 188 2072 
L 2800 2072 
L 2800 2666 
L 3706 2666 
L 3706 2072 
L 6175 2072 
L 6175 1309 
L 3706 1309 
L 3706 159 
Q 3706 -684 2900 -766 
Q 2613 -797 2000 -803 
Q 1906 -334 1794 72 
Q 2200 41 2456 41 
Q 2800 41 2800 403 
L 2800 1309 
L 188 1309 
L 188 2072 
z
M 4000 597 
L 4519 1172 
Q 5425 628 6263 34 
L 5725 -634 
Q 4956 -34 4000 597 
z
M 1675 1166 
L 2263 559 
Q 1406 -84 538 -634 
Q 288 -247 63 66 
Q 963 566 1675 1166 
z
" transform="scale(0.015625)"/>
     <path id="MicrosoftYaHei-Bold-5ea6" d="M 5656 1697 
L 5656 1022 
Q 5156 447 4656 97 
Q 5344 -34 6306 -66 
Q 6119 -428 5938 -822 
Q 4556 -653 3719 -353 
Q 2825 -653 1494 -872 
Q 1338 -522 1088 -178 
Q 2100 -128 2888 78 
Q 2369 453 1938 1022 
L 1538 1022 
L 1538 1697 
L 5656 1697 
z
M 1325 2478 
Q 1338 134 700 -884 
Q 356 -553 19 -297 
Q 550 697 525 2591 
L 525 4772 
L 3013 4772 
Q 2944 4953 2831 5209 
L 3869 5359 
Q 3981 5072 4094 4772 
L 6256 4772 
L 6256 4072 
L 1325 4072 
L 1325 2478 
z
M 1463 3684 
L 2144 3684 
L 2144 3947 
L 2944 3947 
L 2944 3684 
L 4494 3684 
L 4494 3947 
L 5294 3947 
L 5294 3684 
L 6144 3684 
L 6144 3009 
L 5294 3009 
L 5294 1991 
L 2144 1991 
L 2144 3009 
L 1463 3009 
L 1463 3684 
z
M 3756 378 
Q 4325 641 4725 1022 
L 2825 1022 
Q 3225 622 3756 378 
z
M 4494 2628 
L 4494 3009 
L 2944 3009 
L 2944 2628 
L 4494 2628 
z
" transform="scale(0.015625)"/>
     <path id="MicrosoftYaHei-Bold-30" d="M 244 2341 
Q 244 3597 706 4259 
Q 1169 4922 2044 4922 
Q 3713 4922 3713 2453 
Q 3713 1238 3259 577 
Q 2806 -84 1950 -84 
Q 244 -84 244 2341 
z
M 1266 2366 
Q 1266 691 1981 691 
Q 2684 691 2684 2416 
Q 2684 4147 2000 4147 
Q 1266 4147 1266 2366 
z
" transform="scale(0.015625)"/>
     <path id="MicrosoftYaHei-Bold-2e" d="M 313 453 
Q 313 688 491 838 
Q 669 988 916 988 
Q 1166 988 1337 834 
Q 1509 681 1509 453 
Q 1509 213 1337 64 
Q 1166 -84 903 -84 
Q 659 -84 486 69 
Q 313 222 313 453 
z
" transform="scale(0.015625)"/>
    </defs>
    <use xlink:href="#MicrosoftYaHei-Bold-28"/>
    <use xlink:href="#MicrosoftYaHei-Bold-73af" transform="translate(38.964844 0)"/>
    <use xlink:href="#MicrosoftYaHei-Bold-5883" transform="translate(138.964844 0)"/>
    <use xlink:href="#MicrosoftYaHei-Bold-3a" transform="translate(238.964844 0)"/>
    <use xlink:href="#MicrosoftYaHei-Bold-20" transform="translate(267.529297 0)"/>
    <use xlink:href="#MicrosoftYaHei-Bold-6b63" transform="translate(297.314453 0)"/>
    <use xlink:href="#MicrosoftYaHei-Bold-6001" transform="translate(397.314453 0)"/>
    <use xlink:href="#MicrosoftYaHei-Bold-2d" transform="translate(497.314453 0)"/>
    <use xlink:href="#MicrosoftYaHei-Bold-5927" transform="translate(540.966797 0)"/>
    <use xlink:href="#MicrosoftYaHei-Bold-5e45" transform="translate(640.966797 0)"/>
    <use xlink:href="#MicrosoftYaHei-Bold-5747" transform="translate(740.966797 0)"/>
    <use xlink:href="#MicrosoftYaHei-Bold-503c" transform="translate(840.966797 0)"/>
    <use xlink:href="#MicrosoftYaHei-Bold-6539" transform="translate(940.966797 0)"/>
    <use xlink:href="#MicrosoftYaHei-Bold-53d8" transform="translate(1040.966797 0)"/>
    <use xlink:href="#MicrosoftYaHei-Bold-28" transform="translate(1140.966797 0)"/>
    <use xlink:href="#MicrosoftYaHei-Bold-3bc" transform="translate(1179.931641 0)"/>
    <use xlink:href="#MicrosoftYaHei-Bold-31" transform="translate(1247.021484 0)"/>
    <use xlink:href="#MicrosoftYaHei-Bold-34" transform="translate(1308.691406 0)"/>
    <use xlink:href="#MicrosoftYaHei-Bold-2c" transform="translate(1370.361328 0)"/>
    <use xlink:href="#MicrosoftYaHei-Bold-3c3" transform="translate(1398.925781 0)"/>
    <use xlink:href="#MicrosoftYaHei-Bold-32" transform="translate(1464.648438 0)"/>
    <use xlink:href="#MicrosoftYaHei-Bold-20" transform="translate(1526.318359 0)"/>
    <use xlink:href="#MicrosoftYaHei-Bold-7c" transform="translate(1556.103516 0)"/>
    <use xlink:href="#MicrosoftYaHei-Bold-20" transform="translate(1590.234375 0)"/>
    <use xlink:href="#MicrosoftYaHei-Bold-590d" transform="translate(1620.019531 0)"/>
    <use xlink:href="#MicrosoftYaHei-Bold-6742" transform="translate(1720.019531 0)"/>
    <use xlink:href="#MicrosoftYaHei-Bold-5ea6" transform="translate(1820.019531 0)"/>
    <use xlink:href="#MicrosoftYaHei-Bold-3a" transform="translate(1920.019531 0)"/>
    <use xlink:href="#MicrosoftYaHei-Bold-20" transform="translate(1948.583984 0)"/>
    <use xlink:href="#MicrosoftYaHei-Bold-30" transform="translate(1978.369141 0)"/>
    <use xlink:href="#MicrosoftYaHei-Bold-2e" transform="translate(2040.039062 0)"/>
    <use xlink:href="#MicrosoftYaHei-Bold-30" transform="translate(2068.603516 0)"/>
    <use xlink:href="#MicrosoftYaHei-Bold-32" transform="translate(2130.273438 0)"/>
    <use xlink:href="#MicrosoftYaHei-Bold-29" transform="translate(2191.943359 0)"/>
   </g>
  </g>
 </g>
 <defs>
  <clipPath id="pc59b226fdb">
   <rect x="39.801563" y="82.790625" width="809.5" height="376.635625"/>
  </clipPath>
 </defs>
</svg>
