<?xml version="1.0" encoding="utf-8" standalone="no"?>
<!DOCTYPE svg PUBLIC "-//W3C//DTD SVG 1.1//EN"
  "http://www.w3.org/Graphics/SVG/1.1/DTD/svg11.dtd">
<svg xmlns:xlink="http://www.w3.org/1999/xlink" width="856.501562pt" height="497.537187pt" viewBox="0 0 856.501562 497.537187" xmlns="http://www.w3.org/2000/svg" version="1.1">
 <metadata>
  <rdf:RDF xmlns:dc="http://purl.org/dc/elements/1.1/" xmlns:cc="http://creativecommons.org/ns#" xmlns:rdf="http://www.w3.org/1999/02/22-rdf-syntax-ns#">
   <cc:Work>
    <dc:type rdf:resource="http://purl.org/dc/dcmitype/StillImage"/>
    <dc:date>2025-07-07T17:08:29.230868</dc:date>
    <dc:format>image/svg+xml</dc:format>
    <dc:creator>
     <cc:Agent>
      <dc:title>Matplotlib v3.10.3, https://matplotlib.org/</dc:title>
     </cc:Agent>
    </dc:creator>
   </cc:Work>
  </rdf:RDF>
 </metadata>
 <defs>
  <style type="text/css">*{stroke-linejoin: round; stroke-linecap: butt}</style>
 </defs>
 <g id="figure_1">
  <g id="patch_1">
   <path d="M 0 497.537187 
L 856.501562 497.537187 
L 856.501562 0 
L 0 0 
z
" style="fill: #ffffff"/>
  </g>
  <g id="axes_1">
   <g id="patch_2">
    <path d="M 39.801563 459.473125 
L 849.301563 459.473125 
L 849.301563 82.790625 
L 39.801563 82.790625 
z
" style="fill: #ffffff"/>
   </g>
   <g id="matplotlib.axis_1">
    <g id="xtick_1">
     <g id="line2d_1">
      <path d="M 140.989062 459.473125 
L 140.989062 82.790625 
" clip-path="url(#p72bf724ae1)" style="fill: none; stroke-dasharray: 2.96,1.28; stroke-dashoffset: 0; stroke: #cccccc; stroke-opacity: 0.6; stroke-width: 0.8"/>
     </g>
     <g id="text_1">
      <!-- Stage 1 -->
      <g style="fill: #262626" transform="translate(123.753906 473.752812) scale(0.1 -0.1)">
       <defs>
        <path id="ArialMT-53" d="M 288 1472 
L 859 1522 
Q 900 1178 1048 958 
Q 1197 738 1509 602 
Q 1822 466 2213 466 
Q 2559 466 2825 569 
Q 3091 672 3220 851 
Q 3350 1031 3350 1244 
Q 3350 1459 3225 1620 
Q 3100 1781 2813 1891 
Q 2628 1963 1997 2114 
Q 1366 2266 1113 2400 
Q 784 2572 623 2826 
Q 463 3081 463 3397 
Q 463 3744 659 4045 
Q 856 4347 1234 4503 
Q 1613 4659 2075 4659 
Q 2584 4659 2973 4495 
Q 3363 4331 3572 4012 
Q 3781 3694 3797 3291 
L 3216 3247 
Q 3169 3681 2898 3903 
Q 2628 4125 2100 4125 
Q 1550 4125 1298 3923 
Q 1047 3722 1047 3438 
Q 1047 3191 1225 3031 
Q 1400 2872 2139 2705 
Q 2878 2538 3153 2413 
Q 3553 2228 3743 1945 
Q 3934 1663 3934 1294 
Q 3934 928 3725 604 
Q 3516 281 3123 101 
Q 2731 -78 2241 -78 
Q 1619 -78 1198 103 
Q 778 284 539 648 
Q 300 1013 288 1472 
z
" transform="scale(0.015625)"/>
        <path id="ArialMT-74" d="M 1650 503 
L 1731 6 
Q 1494 -44 1306 -44 
Q 1000 -44 831 53 
Q 663 150 594 308 
Q 525 466 525 972 
L 525 2881 
L 113 2881 
L 113 3319 
L 525 3319 
L 525 4141 
L 1084 4478 
L 1084 3319 
L 1650 3319 
L 1650 2881 
L 1084 2881 
L 1084 941 
Q 1084 700 1114 631 
Q 1144 563 1211 522 
Q 1278 481 1403 481 
Q 1497 481 1650 503 
z
" transform="scale(0.015625)"/>
        <path id="ArialMT-61" d="M 2588 409 
Q 2275 144 1986 34 
Q 1697 -75 1366 -75 
Q 819 -75 525 192 
Q 231 459 231 875 
Q 231 1119 342 1320 
Q 453 1522 633 1644 
Q 813 1766 1038 1828 
Q 1203 1872 1538 1913 
Q 2219 1994 2541 2106 
Q 2544 2222 2544 2253 
Q 2544 2597 2384 2738 
Q 2169 2928 1744 2928 
Q 1347 2928 1158 2789 
Q 969 2650 878 2297 
L 328 2372 
Q 403 2725 575 2942 
Q 747 3159 1072 3276 
Q 1397 3394 1825 3394 
Q 2250 3394 2515 3294 
Q 2781 3194 2906 3042 
Q 3031 2891 3081 2659 
Q 3109 2516 3109 2141 
L 3109 1391 
Q 3109 606 3145 398 
Q 3181 191 3288 0 
L 2700 0 
Q 2613 175 2588 409 
z
M 2541 1666 
Q 2234 1541 1622 1453 
Q 1275 1403 1131 1340 
Q 988 1278 909 1158 
Q 831 1038 831 891 
Q 831 666 1001 516 
Q 1172 366 1500 366 
Q 1825 366 2078 508 
Q 2331 650 2450 897 
Q 2541 1088 2541 1459 
L 2541 1666 
z
" transform="scale(0.015625)"/>
        <path id="ArialMT-67" d="M 319 -275 
L 866 -356 
Q 900 -609 1056 -725 
Q 1266 -881 1628 -881 
Q 2019 -881 2231 -725 
Q 2444 -569 2519 -288 
Q 2563 -116 2559 434 
Q 2191 0 1641 0 
Q 956 0 581 494 
Q 206 988 206 1678 
Q 206 2153 378 2554 
Q 550 2956 876 3175 
Q 1203 3394 1644 3394 
Q 2231 3394 2613 2919 
L 2613 3319 
L 3131 3319 
L 3131 450 
Q 3131 -325 2973 -648 
Q 2816 -972 2473 -1159 
Q 2131 -1347 1631 -1347 
Q 1038 -1347 672 -1080 
Q 306 -813 319 -275 
z
M 784 1719 
Q 784 1066 1043 766 
Q 1303 466 1694 466 
Q 2081 466 2343 764 
Q 2606 1063 2606 1700 
Q 2606 2309 2336 2618 
Q 2066 2928 1684 2928 
Q 1309 2928 1046 2623 
Q 784 2319 784 1719 
z
" transform="scale(0.015625)"/>
        <path id="ArialMT-65" d="M 2694 1069 
L 3275 997 
Q 3138 488 2766 206 
Q 2394 -75 1816 -75 
Q 1088 -75 661 373 
Q 234 822 234 1631 
Q 234 2469 665 2931 
Q 1097 3394 1784 3394 
Q 2450 3394 2872 2941 
Q 3294 2488 3294 1666 
Q 3294 1616 3291 1516 
L 816 1516 
Q 847 969 1125 678 
Q 1403 388 1819 388 
Q 2128 388 2347 550 
Q 2566 713 2694 1069 
z
M 847 1978 
L 2700 1978 
Q 2663 2397 2488 2606 
Q 2219 2931 1791 2931 
Q 1403 2931 1139 2672 
Q 875 2413 847 1978 
z
" transform="scale(0.015625)"/>
        <path id="ArialMT-20" transform="scale(0.015625)"/>
        <path id="ArialMT-31" d="M 2384 0 
L 1822 0 
L 1822 3584 
Q 1619 3391 1289 3197 
Q 959 3003 697 2906 
L 697 3450 
Q 1169 3672 1522 3987 
Q 1875 4303 2022 4600 
L 2384 4600 
L 2384 0 
z
" transform="scale(0.015625)"/>
       </defs>
       <use xlink:href="#ArialMT-53"/>
       <use xlink:href="#ArialMT-74" transform="translate(66.699219 0)"/>
       <use xlink:href="#ArialMT-61" transform="translate(94.482422 0)"/>
       <use xlink:href="#ArialMT-67" transform="translate(150.097656 0)"/>
       <use xlink:href="#ArialMT-65" transform="translate(205.712891 0)"/>
       <use xlink:href="#ArialMT-20" transform="translate(261.328125 0)"/>
       <use xlink:href="#ArialMT-31" transform="translate(289.111328 0)"/>
      </g>
     </g>
    </g>
    <g id="xtick_2">
     <g id="line2d_2">
      <path d="M 343.364062 459.473125 
L 343.364062 82.790625 
" clip-path="url(#p72bf724ae1)" style="fill: none; stroke-dasharray: 2.96,1.28; stroke-dashoffset: 0; stroke: #cccccc; stroke-opacity: 0.6; stroke-width: 0.8"/>
     </g>
     <g id="text_2">
      <!-- Stage 2 -->
      <g style="fill: #262626" transform="translate(326.128906 473.752812) scale(0.1 -0.1)">
       <defs>
        <path id="ArialMT-32" d="M 3222 541 
L 3222 0 
L 194 0 
Q 188 203 259 391 
Q 375 700 629 1000 
Q 884 1300 1366 1694 
Q 2113 2306 2375 2664 
Q 2638 3022 2638 3341 
Q 2638 3675 2398 3904 
Q 2159 4134 1775 4134 
Q 1369 4134 1125 3890 
Q 881 3647 878 3216 
L 300 3275 
Q 359 3922 746 4261 
Q 1134 4600 1788 4600 
Q 2447 4600 2831 4234 
Q 3216 3869 3216 3328 
Q 3216 3053 3103 2787 
Q 2991 2522 2730 2228 
Q 2469 1934 1863 1422 
Q 1356 997 1212 845 
Q 1069 694 975 541 
L 3222 541 
z
" transform="scale(0.015625)"/>
       </defs>
       <use xlink:href="#ArialMT-53"/>
       <use xlink:href="#ArialMT-74" transform="translate(66.699219 0)"/>
       <use xlink:href="#ArialMT-61" transform="translate(94.482422 0)"/>
       <use xlink:href="#ArialMT-67" transform="translate(150.097656 0)"/>
       <use xlink:href="#ArialMT-65" transform="translate(205.712891 0)"/>
       <use xlink:href="#ArialMT-20" transform="translate(261.328125 0)"/>
       <use xlink:href="#ArialMT-32" transform="translate(289.111328 0)"/>
      </g>
     </g>
    </g>
    <g id="xtick_3">
     <g id="line2d_3">
      <path d="M 545.739063 459.473125 
L 545.739063 82.790625 
" clip-path="url(#p72bf724ae1)" style="fill: none; stroke-dasharray: 2.96,1.28; stroke-dashoffset: 0; stroke: #cccccc; stroke-opacity: 0.6; stroke-width: 0.8"/>
     </g>
     <g id="text_3">
      <!-- Stage 3 -->
      <g style="fill: #262626" transform="translate(528.503906 473.752812) scale(0.1 -0.1)">
       <defs>
        <path id="ArialMT-33" d="M 269 1209 
L 831 1284 
Q 928 806 1161 595 
Q 1394 384 1728 384 
Q 2125 384 2398 659 
Q 2672 934 2672 1341 
Q 2672 1728 2419 1979 
Q 2166 2231 1775 2231 
Q 1616 2231 1378 2169 
L 1441 2663 
Q 1497 2656 1531 2656 
Q 1891 2656 2178 2843 
Q 2466 3031 2466 3422 
Q 2466 3731 2256 3934 
Q 2047 4138 1716 4138 
Q 1388 4138 1169 3931 
Q 950 3725 888 3313 
L 325 3413 
Q 428 3978 793 4289 
Q 1159 4600 1703 4600 
Q 2078 4600 2393 4439 
Q 2709 4278 2876 4000 
Q 3044 3722 3044 3409 
Q 3044 3113 2884 2869 
Q 2725 2625 2413 2481 
Q 2819 2388 3044 2092 
Q 3269 1797 3269 1353 
Q 3269 753 2831 336 
Q 2394 -81 1725 -81 
Q 1122 -81 723 278 
Q 325 638 269 1209 
z
" transform="scale(0.015625)"/>
       </defs>
       <use xlink:href="#ArialMT-53"/>
       <use xlink:href="#ArialMT-74" transform="translate(66.699219 0)"/>
       <use xlink:href="#ArialMT-61" transform="translate(94.482422 0)"/>
       <use xlink:href="#ArialMT-67" transform="translate(150.097656 0)"/>
       <use xlink:href="#ArialMT-65" transform="translate(205.712891 0)"/>
       <use xlink:href="#ArialMT-20" transform="translate(261.328125 0)"/>
       <use xlink:href="#ArialMT-33" transform="translate(289.111328 0)"/>
      </g>
     </g>
    </g>
    <g id="xtick_4">
     <g id="line2d_4">
      <path d="M 748.114063 459.473125 
L 748.114063 82.790625 
" clip-path="url(#p72bf724ae1)" style="fill: none; stroke-dasharray: 2.96,1.28; stroke-dashoffset: 0; stroke: #cccccc; stroke-opacity: 0.6; stroke-width: 0.8"/>
     </g>
     <g id="text_4">
      <!-- Stage 4 -->
      <g style="fill: #262626" transform="translate(730.878906 473.752812) scale(0.1 -0.1)">
       <defs>
        <path id="ArialMT-34" d="M 2069 0 
L 2069 1097 
L 81 1097 
L 81 1613 
L 2172 4581 
L 2631 4581 
L 2631 1613 
L 3250 1613 
L 3250 1097 
L 2631 1097 
L 2631 0 
L 2069 0 
z
M 2069 1613 
L 2069 3678 
L 634 1613 
L 2069 1613 
z
" transform="scale(0.015625)"/>
       </defs>
       <use xlink:href="#ArialMT-53"/>
       <use xlink:href="#ArialMT-74" transform="translate(66.699219 0)"/>
       <use xlink:href="#ArialMT-61" transform="translate(94.482422 0)"/>
       <use xlink:href="#ArialMT-67" transform="translate(150.097656 0)"/>
       <use xlink:href="#ArialMT-65" transform="translate(205.712891 0)"/>
       <use xlink:href="#ArialMT-20" transform="translate(261.328125 0)"/>
       <use xlink:href="#ArialMT-34" transform="translate(289.111328 0)"/>
      </g>
     </g>
    </g>
    <g id="text_5">
     <!-- 训练阶段 -->
     <g style="fill: #262626" transform="translate(424.551562 487.85125) scale(0.1 -0.1)">
      <defs>
       <path id="MicrosoftYaHei-8bad" d="M 2581 5178 
L 3056 5178 
L 3056 2722 
Q 3056 1272 2831 466 
Q 2613 -297 1981 -872 
Q 1769 -678 1550 -534 
Q 2156 -66 2375 647 
Q 2581 1353 2581 2678 
L 2581 5178 
z
M 5506 5184 
L 5981 5184 
L 5981 -772 
L 5506 -772 
L 5506 5184 
z
M 4038 4953 
L 4513 4953 
L 4513 -403 
L 4038 -403 
L 4038 4953 
z
M 2025 1372 
Q 2025 1059 2069 784 
Q 1438 247 913 -284 
L 625 116 
Q 838 316 838 691 
L 838 2803 
L 81 2803 
L 81 3253 
L 1313 3253 
L 1313 709 
Q 1650 1009 2025 1372 
z
M 875 5191 
Q 1438 4628 1850 4166 
L 1413 3797 
Q 1031 4303 500 4872 
L 875 5191 
z
" transform="scale(0.015625)"/>
       <path id="MicrosoftYaHei-7ec3" d="M 2363 3403 
L 3059 3403 
Q 3203 3781 3344 4197 
L 2213 4197 
L 2213 4622 
L 3488 4622 
Q 3603 4975 3719 5353 
L 4219 5253 
Q 4109 4931 4000 4622 
L 6000 4622 
L 6000 4197 
L 3847 4197 
Q 3700 3791 3553 3403 
L 4763 3403 
L 4763 2016 
L 6025 2016 
L 6025 1591 
L 4763 1591 
L 4763 3 
Q 4763 -734 4056 -734 
Q 3788 -734 3369 -728 
Q 3331 -516 3263 -241 
Q 3638 -284 3931 -284 
Q 4300 -284 4300 109 
L 4300 1591 
L 2475 1591 
L 2475 1997 
Q 2688 2450 2897 2978 
L 2363 2978 
L 2363 3403 
z
M 888 1566 
Q 1531 1659 2219 1778 
Q 2181 1547 2163 1297 
Q 1600 1216 319 1003 
L 219 1472 
Q 669 1969 1175 2794 
Q 666 2763 219 2722 
L 100 3147 
Q 700 3966 1294 5366 
L 1750 5178 
Q 1088 3878 644 3184 
Q 1078 3194 1419 3203 
Q 1669 3638 1931 4147 
L 2388 3916 
Q 1656 2659 888 1566 
z
M 3013 2016 
L 4300 2016 
L 4300 2978 
L 3394 2978 
Q 3203 2484 3013 2016 
z
M 94 122 
Q 1031 291 2219 559 
Q 2200 316 2206 78 
Q 1231 -103 219 -353 
L 94 122 
z
M 3194 1272 
L 3638 1066 
Q 3194 203 2700 -547 
Q 2500 -397 2275 -278 
Q 2813 459 3194 1272 
z
M 5094 1041 
L 5500 1278 
Q 5963 578 6381 -122 
L 5950 -391 
Q 5544 366 5094 1041 
z
" transform="scale(0.015625)"/>
       <path id="MicrosoftYaHei-9636" d="M 2213 1816 
Q 2388 616 1644 484 
Q 1406 441 1031 478 
Q 981 734 913 991 
Q 1206 916 1475 941 
Q 1894 991 1744 1797 
Q 1669 2222 1188 2853 
Q 1419 3616 1688 4578 
L 863 4578 
L 863 -853 
L 400 -853 
L 400 5016 
L 2194 5016 
L 2194 4578 
Q 1906 3672 1663 2934 
Q 2144 2284 2213 1816 
z
M 3469 2834 
L 3469 1841 
Q 3469 78 2450 -897 
Q 2269 -734 2031 -572 
Q 2994 297 2994 1859 
L 2994 2834 
L 3469 2834 
z
M 4806 2834 
L 5281 2834 
L 5281 -822 
L 4806 -822 
L 4806 2834 
z
M 4475 5278 
L 4388 5078 
Q 5169 3653 6338 3134 
Q 6175 2947 5994 2697 
Q 4856 3384 4144 4634 
Q 3494 3472 2356 2609 
Q 2206 2828 2031 3003 
Q 3244 3809 3981 5278 
L 4475 5278 
z
" transform="scale(0.015625)"/>
       <path id="MicrosoftYaHei-6bb5" d="M 2844 1978 
L 2844 2422 
L 5763 2422 
L 5763 1953 
Q 5397 1069 4731 416 
Q 5378 -63 6338 -266 
Q 6144 -516 6019 -747 
Q 5031 -456 4359 88 
Q 3638 -488 2631 -853 
Q 2450 -559 2331 -422 
Q 3313 -75 3997 428 
Q 3400 1069 3138 1978 
L 2844 1978 
z
M 88 722 
Q 325 744 569 769 
L 569 4897 
Q 1931 4972 2719 5116 
L 2888 4653 
Q 2175 4559 1031 4484 
L 1031 3616 
L 2613 3616 
L 2613 3203 
L 1031 3203 
L 1031 2259 
L 2594 2259 
L 2594 1847 
L 1031 1847 
L 1031 819 
Q 1891 916 2838 1041 
Q 2831 916 2831 591 
Q 1894 484 1031 366 
L 1031 -816 
L 569 -816 
L 569 303 
Q 381 275 200 247 
L 88 722 
z
M 5738 3209 
Q 5981 3209 6306 3228 
L 6219 2759 
Q 5906 2747 5625 2747 
Q 4988 2747 4988 3459 
L 4988 4553 
L 3831 4553 
L 3831 4216 
Q 3831 3053 2938 2522 
Q 2781 2709 2600 2909 
Q 3363 3272 3363 4241 
L 3363 4997 
L 5456 4997 
L 5456 3497 
Q 5456 3209 5738 3209 
z
M 5256 1978 
L 3613 1978 
Q 3863 1241 4363 731 
Q 4956 1275 5256 1978 
z
" transform="scale(0.015625)"/>
      </defs>
      <use xlink:href="#MicrosoftYaHei-8bad"/>
      <use xlink:href="#MicrosoftYaHei-7ec3" transform="translate(100 0)"/>
      <use xlink:href="#MicrosoftYaHei-9636" transform="translate(200 0)"/>
      <use xlink:href="#MicrosoftYaHei-6bb5" transform="translate(300 0)"/>
     </g>
    </g>
   </g>
   <g id="matplotlib.axis_2">
    <g id="ytick_1">
     <g id="line2d_5">
      <path d="M 39.801563 414.106455 
L 849.301563 414.106455 
" clip-path="url(#p72bf724ae1)" style="fill: none; stroke-dasharray: 2.96,1.28; stroke-dashoffset: 0; stroke: #cccccc; stroke-opacity: 0.6; stroke-width: 0.8"/>
     </g>
     <g id="text_6">
      <!-- 20 -->
      <g style="fill: #262626" transform="translate(21.679688 417.685362) scale(0.1 -0.1)">
       <defs>
        <path id="ArialMT-30" d="M 266 2259 
Q 266 3072 433 3567 
Q 600 4063 929 4331 
Q 1259 4600 1759 4600 
Q 2128 4600 2406 4451 
Q 2684 4303 2865 4023 
Q 3047 3744 3150 3342 
Q 3253 2941 3253 2259 
Q 3253 1453 3087 958 
Q 2922 463 2592 192 
Q 2263 -78 1759 -78 
Q 1097 -78 719 397 
Q 266 969 266 2259 
z
M 844 2259 
Q 844 1131 1108 757 
Q 1372 384 1759 384 
Q 2147 384 2411 759 
Q 2675 1134 2675 2259 
Q 2675 3391 2411 3762 
Q 2147 4134 1753 4134 
Q 1366 4134 1134 3806 
Q 844 3388 844 2259 
z
" transform="scale(0.015625)"/>
       </defs>
       <use xlink:href="#ArialMT-32"/>
       <use xlink:href="#ArialMT-30" transform="translate(55.615234 0)"/>
      </g>
     </g>
    </g>
    <g id="ytick_2">
     <g id="line2d_6">
      <path d="M 39.801563 365.142558 
L 849.301563 365.142558 
" clip-path="url(#p72bf724ae1)" style="fill: none; stroke-dasharray: 2.96,1.28; stroke-dashoffset: 0; stroke: #cccccc; stroke-opacity: 0.6; stroke-width: 0.8"/>
     </g>
     <g id="text_7">
      <!-- 25 -->
      <g style="fill: #262626" transform="translate(21.679688 368.721464) scale(0.1 -0.1)">
       <defs>
        <path id="ArialMT-35" d="M 266 1200 
L 856 1250 
Q 922 819 1161 601 
Q 1400 384 1738 384 
Q 2144 384 2425 690 
Q 2706 997 2706 1503 
Q 2706 1984 2436 2262 
Q 2166 2541 1728 2541 
Q 1456 2541 1237 2417 
Q 1019 2294 894 2097 
L 366 2166 
L 809 4519 
L 3088 4519 
L 3088 3981 
L 1259 3981 
L 1013 2750 
Q 1425 3038 1878 3038 
Q 2478 3038 2890 2622 
Q 3303 2206 3303 1553 
Q 3303 931 2941 478 
Q 2500 -78 1738 -78 
Q 1113 -78 717 272 
Q 322 622 266 1200 
z
" transform="scale(0.015625)"/>
       </defs>
       <use xlink:href="#ArialMT-32"/>
       <use xlink:href="#ArialMT-35" transform="translate(55.615234 0)"/>
      </g>
     </g>
    </g>
    <g id="ytick_3">
     <g id="line2d_7">
      <path d="M 39.801563 316.178661 
L 849.301563 316.178661 
" clip-path="url(#p72bf724ae1)" style="fill: none; stroke-dasharray: 2.96,1.28; stroke-dashoffset: 0; stroke: #cccccc; stroke-opacity: 0.6; stroke-width: 0.8"/>
     </g>
     <g id="text_8">
      <!-- 30 -->
      <g style="fill: #262626" transform="translate(21.679688 319.757567) scale(0.1 -0.1)">
       <use xlink:href="#ArialMT-33"/>
       <use xlink:href="#ArialMT-30" transform="translate(55.615234 0)"/>
      </g>
     </g>
    </g>
    <g id="ytick_4">
     <g id="line2d_8">
      <path d="M 39.801563 267.214763 
L 849.301563 267.214763 
" clip-path="url(#p72bf724ae1)" style="fill: none; stroke-dasharray: 2.96,1.28; stroke-dashoffset: 0; stroke: #cccccc; stroke-opacity: 0.6; stroke-width: 0.8"/>
     </g>
     <g id="text_9">
      <!-- 35 -->
      <g style="fill: #262626" transform="translate(21.679688 270.793669) scale(0.1 -0.1)">
       <use xlink:href="#ArialMT-33"/>
       <use xlink:href="#ArialMT-35" transform="translate(55.615234 0)"/>
      </g>
     </g>
    </g>
    <g id="ytick_5">
     <g id="line2d_9">
      <path d="M 39.801563 218.250866 
L 849.301563 218.250866 
" clip-path="url(#p72bf724ae1)" style="fill: none; stroke-dasharray: 2.96,1.28; stroke-dashoffset: 0; stroke: #cccccc; stroke-opacity: 0.6; stroke-width: 0.8"/>
     </g>
     <g id="text_10">
      <!-- 40 -->
      <g style="fill: #262626" transform="translate(21.679688 221.829772) scale(0.1 -0.1)">
       <use xlink:href="#ArialMT-34"/>
       <use xlink:href="#ArialMT-30" transform="translate(55.615234 0)"/>
      </g>
     </g>
    </g>
    <g id="ytick_6">
     <g id="line2d_10">
      <path d="M 39.801563 169.286968 
L 849.301563 169.286968 
" clip-path="url(#p72bf724ae1)" style="fill: none; stroke-dasharray: 2.96,1.28; stroke-dashoffset: 0; stroke: #cccccc; stroke-opacity: 0.6; stroke-width: 0.8"/>
     </g>
     <g id="text_11">
      <!-- 45 -->
      <g style="fill: #262626" transform="translate(21.679688 172.865875) scale(0.1 -0.1)">
       <use xlink:href="#ArialMT-34"/>
       <use xlink:href="#ArialMT-35" transform="translate(55.615234 0)"/>
      </g>
     </g>
    </g>
    <g id="ytick_7">
     <g id="line2d_11">
      <path d="M 39.801563 120.323071 
L 849.301563 120.323071 
" clip-path="url(#p72bf724ae1)" style="fill: none; stroke-dasharray: 2.96,1.28; stroke-dashoffset: 0; stroke: #cccccc; stroke-opacity: 0.6; stroke-width: 0.8"/>
     </g>
     <g id="text_12">
      <!-- 50 -->
      <g style="fill: #262626" transform="translate(21.679688 123.901977) scale(0.1 -0.1)">
       <use xlink:href="#ArialMT-35"/>
       <use xlink:href="#ArialMT-30" transform="translate(55.615234 0)"/>
      </g>
     </g>
    </g>
    <g id="text_13">
     <!-- 奖励 -->
     <g style="fill: #262626" transform="translate(15.19375 281.131875) rotate(-90) scale(0.1 -0.1)">
      <defs>
       <path id="MicrosoftYaHei-5956" d="M 6306 -284 
Q 6119 -528 5944 -803 
Q 4031 -491 3197 859 
Q 2550 -472 406 -878 
Q 281 -666 100 -403 
Q 2175 -84 2709 972 
L 225 972 
L 225 1403 
L 2900 1403 
Q 2969 1600 3019 1822 
L 3531 1822 
Q 3484 1603 3422 1403 
L 6200 1403 
L 6200 972 
L 3647 972 
Q 4472 -169 6306 -284 
z
M 2388 3553 
Q 3181 4228 3588 5334 
L 4056 5241 
Q 3941 4938 3803 4666 
L 5988 4666 
L 5988 4278 
Q 5181 2359 2788 1853 
Q 2706 2072 2531 2316 
Q 3434 2463 4094 2831 
Q 3688 3222 3288 3516 
L 3588 3822 
Q 4056 3481 4491 3084 
Q 5116 3550 5463 4266 
L 3588 4266 
Q 3228 3666 2763 3234 
Q 2588 3428 2388 3553 
z
M 1744 5291 
L 2231 5291 
L 2231 1728 
L 1744 1728 
L 1744 2925 
Q 1231 2694 256 2253 
L 94 2747 
Q 991 3088 1744 3425 
L 1744 5291 
z
M 281 4584 
L 588 4891 
Q 1088 4503 1513 4072 
L 1169 3741 
Q 700 4253 281 4584 
z
" transform="scale(0.015625)"/>
       <path id="MicrosoftYaHei-52b1" d="M 3756 3997 
L 4303 3997 
Q 4316 4669 4319 5297 
L 4775 5297 
Q 4763 4559 4750 3997 
L 6031 3997 
Q 5963 1203 5925 278 
Q 5888 -678 5169 -678 
Q 4969 -678 4444 -666 
Q 4406 -378 4350 -134 
Q 4856 -178 5081 -178 
Q 5425 -178 5456 272 
Q 5513 1266 5563 3528 
L 4741 3528 
Q 4731 3028 4725 2716 
Q 4688 334 3600 -859 
Q 3469 -666 3281 -447 
Q 4238 634 4275 2634 
Q 4288 3091 4297 3528 
L 3756 3528 
L 3756 3997 
z
M 1225 3728 
L 3563 3728 
L 3563 3291 
L 2194 3291 
Q 2184 2784 2172 2372 
L 3375 2372 
Q 3319 766 3275 91 
Q 3206 -628 2581 -628 
Q 2406 -628 2050 -622 
Q 2013 -416 1956 -159 
Q 2306 -197 2475 -197 
Q 2819 -203 2850 216 
Q 2894 797 2931 1959 
L 2153 1959 
Q 2125 1378 2081 1034 
Q 1969 -3 1300 -828 
Q 1175 -659 981 -453 
Q 1531 209 1644 1097 
Q 1728 1641 1756 3291 
L 1225 3291 
L 1225 3728 
z
M 1044 4472 
L 1044 2166 
Q 1044 147 475 -809 
Q 306 -647 94 -478 
Q 588 341 588 2184 
L 588 4909 
L 3663 4909 
L 3663 4472 
L 1044 4472 
z
" transform="scale(0.015625)"/>
      </defs>
      <use xlink:href="#MicrosoftYaHei-5956"/>
      <use xlink:href="#MicrosoftYaHei-52b1" transform="translate(100 0)"/>
     </g>
    </g>
   </g>
   <g id="FillBetweenPolyCollection_1">
    <defs>
     <path id="m0eb1ceb4df" d="M 141.022473 -55.185994 
L 140.955652 -55.185994 
L 140.926825 -58.64497 
L 140.88553 -62.103947 
L 140.834993 -65.562923 
L 140.783234 -69.021899 
L 140.740501 -72.480875 
L 140.714232 -75.939851 
L 140.70472 -79.398827 
L 140.705136 -82.857803 
L 140.706652 -86.316779 
L 140.705203 -89.775756 
L 140.704635 -93.234732 
L 140.713723 -96.693708 
L 140.739453 -100.152684 
L 140.781774 -103.61166 
L 140.833411 -107.070636 
L 140.884122 -110.529612 
L 140.925765 -113.988588 
L 140.954967 -117.447565 
L 140.972676 -120.906541 
L 140.982039 -124.365517 
L 140.986378 -127.824493 
L 140.988148 -131.283469 
L 140.988785 -134.742445 
L 140.988987 -138.201421 
L 140.989044 -141.660397 
L 140.989059 -145.119374 
L 140.989062 -148.57835 
L 140.989062 -152.037326 
L 140.98906 -155.496302 
L 140.989052 -158.955278 
L 140.989019 -162.414254 
L 140.988894 -165.87323 
L 140.988479 -169.332206 
L 140.987258 -172.791183 
L 140.984077 -176.250159 
L 140.976736 -179.709135 
L 140.961758 -183.168111 
L 140.934768 -186.627087 
L 140.891895 -190.086063 
L 140.832059 -193.545039 
L 140.759116 -197.004015 
L 140.682408 -200.462992 
L 140.61481 -203.921968 
L 140.568757 -207.380944 
L 140.551869 -210.83992 
L 140.563905 -214.298896 
L 140.596314 -217.757872 
L 140.634899 -221.216848 
L 140.66501 -224.675824 
L 140.676867 -228.134801 
L 140.667508 -231.593777 
L 140.637486 -235.052753 
L 140.58487 -238.511729 
L 140.502824 -241.970705 
L 140.385572 -245.429681 
L 140.240367 -248.888657 
L 140.09561 -252.347633 
L 139.995202 -255.80661 
L 139.978833 -259.265586 
L 140.059969 -262.724562 
L 140.21678 -266.183538 
L 140.402175 -269.642514 
L 140.565476 -273.10149 
L 140.671814 -276.560466 
L 140.709836 -280.019442 
L 140.687567 -283.478419 
L 140.622114 -286.937395 
L 140.529389 -290.396371 
L 140.417848 -293.855347 
L 140.287875 -297.314323 
L 140.135909 -300.773299 
L 139.959698 -304.232275 
L 139.759675 -307.691251 
L 139.533372 -311.150228 
L 139.264199 -314.609204 
L 138.909521 -318.06818 
L 138.392804 -321.527156 
L 137.601482 -324.986132 
L 136.389867 -328.445108 
L 134.587839 -331.904084 
L 132.01976 -335.36306 
L 128.540143 -338.822037 
L 124.088202 -342.281013 
L 118.751028 -345.739989 
L 112.810558 -349.198965 
L 106.746474 -352.657941 
L 101.183656 -356.116917 
L 96.797187 -359.575893 
L 94.199402 -363.034869 
L 93.829134 -366.493846 
L 95.85874 -369.952822 
L 100.136254 -373.411798 
L 106.180356 -376.870774 
L 113.242084 -380.32975 
L 120.439897 -383.788726 
L 126.951599 -387.247702 
L 132.205006 -390.706678 
L 135.984834 -394.165655 
L 138.406983 -397.624631 
L 143.571142 -397.624631 
L 143.571142 -397.624631 
L 145.993291 -394.165655 
L 149.773119 -390.706678 
L 155.026526 -387.247702 
L 161.538228 -383.788726 
L 168.736041 -380.32975 
L 175.797769 -376.870774 
L 181.841871 -373.411798 
L 186.119385 -369.952822 
L 188.148991 -366.493846 
L 187.778723 -363.034869 
L 185.180938 -359.575893 
L 180.794469 -356.116917 
L 175.231651 -352.657941 
L 169.167567 -349.198965 
L 163.227097 -345.739989 
L 157.889923 -342.281013 
L 153.437982 -338.822037 
L 149.958365 -335.36306 
L 147.390286 -331.904084 
L 145.588258 -328.445108 
L 144.376643 -324.986132 
L 143.585321 -321.527156 
L 143.068604 -318.06818 
L 142.713926 -314.609204 
L 142.444753 -311.150228 
L 142.21845 -307.691251 
L 142.018427 -304.232275 
L 141.842216 -300.773299 
L 141.69025 -297.314323 
L 141.560277 -293.855347 
L 141.448736 -290.396371 
L 141.356011 -286.937395 
L 141.290558 -283.478419 
L 141.268289 -280.019442 
L 141.306311 -276.560466 
L 141.412649 -273.10149 
L 141.57595 -269.642514 
L 141.761345 -266.183538 
L 141.918156 -262.724562 
L 141.999292 -259.265586 
L 141.982923 -255.80661 
L 141.882515 -252.347633 
L 141.737758 -248.888657 
L 141.592553 -245.429681 
L 141.475301 -241.970705 
L 141.393255 -238.511729 
L 141.340639 -235.052753 
L 141.310617 -231.593777 
L 141.301258 -228.134801 
L 141.313115 -224.675824 
L 141.343226 -221.216848 
L 141.381811 -217.757872 
L 141.41422 -214.298896 
L 141.426256 -210.83992 
L 141.409368 -207.380944 
L 141.363315 -203.921968 
L 141.295717 -200.462992 
L 141.219009 -197.004015 
L 141.146066 -193.545039 
L 141.08623 -190.086063 
L 141.043357 -186.627087 
L 141.016367 -183.168111 
L 141.001389 -179.709135 
L 140.994048 -176.250159 
L 140.990867 -172.791183 
L 140.989646 -169.332206 
L 140.989231 -165.87323 
L 140.989106 -162.414254 
L 140.989073 -158.955278 
L 140.989065 -155.496302 
L 140.989063 -152.037326 
L 140.989063 -148.57835 
L 140.989066 -145.119374 
L 140.989081 -141.660397 
L 140.989138 -138.201421 
L 140.98934 -134.742445 
L 140.989977 -131.283469 
L 140.991747 -127.824493 
L 140.996086 -124.365517 
L 141.005449 -120.906541 
L 141.023158 -117.447565 
L 141.05236 -113.988588 
L 141.094003 -110.529612 
L 141.144714 -107.070636 
L 141.196351 -103.61166 
L 141.238672 -100.152684 
L 141.264402 -96.693708 
L 141.27349 -93.234732 
L 141.272922 -89.775756 
L 141.271473 -86.316779 
L 141.272989 -82.857803 
L 141.273405 -79.398827 
L 141.263893 -75.939851 
L 141.237624 -72.480875 
L 141.194891 -69.021899 
L 141.143132 -65.562923 
L 141.092595 -62.103947 
L 141.0513 -58.64497 
L 141.022473 -55.185994 
z
" style="stroke: #3f3f3f; stroke-width: 1.25"/>
    </defs>
    <g clip-path="url(#p72bf724ae1)">
     <use xlink:href="#m0eb1ceb4df" x="0" y="497.537187" style="fill: #3274a1; stroke: #3f3f3f; stroke-width: 1.25"/>
    </g>
   </g>
   <g id="FillBetweenPolyCollection_2">
    <defs>
     <path id="me3aeb484b6" d="M 343.629331 -315.652348 
L 343.098794 -315.652348 
L 342.988756 -316.351977 
L 342.850269 -317.051605 
L 342.683424 -317.751234 
L 342.491467 -318.450863 
L 342.281269 -319.150492 
L 342.063206 -319.850121 
L 341.85032 -320.549749 
L 341.656708 -321.249378 
L 341.495311 -321.949007 
L 341.375416 -322.648636 
L 341.30034 -323.348265 
L 341.265793 -324.047893 
L 341.259342 -324.747522 
L 341.261266 -325.447151 
L 341.246815 -326.14678 
L 341.189676 -326.846408 
L 341.066195 -327.546037 
L 340.859704 -328.245666 
L 340.564244 -328.945295 
L 340.186914 -329.644924 
L 339.748244 -330.344552 
L 339.280194 -331.044181 
L 338.821766 -331.74381 
L 338.412671 -332.443439 
L 338.085915 -333.143068 
L 337.860541 -333.842696 
L 337.735895 -334.542325 
L 337.688684 -335.241954 
L 337.673726 -335.941583 
L 337.628721 -336.641212 
L 337.482715 -337.34084 
L 337.167247 -338.040469 
L 336.628614 -338.740098 
L 335.839281 -339.439727 
L 334.806333 -340.139355 
L 333.574988 -340.838984 
L 332.225754 -341.538613 
L 330.864687 -342.238242 
L 329.607437 -342.937871 
L 328.559066 -343.637499 
L 327.792788 -344.337128 
L 327.331476 -345.036757 
L 327.135756 -345.736386 
L 327.10175 -346.436015 
L 327.070099 -347.135643 
L 326.846062 -347.835272 
L 326.22856 -348.534901 
L 325.044294 -349.23453 
L 323.181787 -349.934159 
L 320.619527 -350.633787 
L 317.442533 -351.333416 
L 313.842769 -352.033045 
L 310.101004 -352.732674 
L 306.550757 -353.432302 
L 303.528524 -354.131931 
L 301.317771 -354.83156 
L 300.09641 -355.531189 
L 299.897853 -356.230818 
L 300.594016 -356.930446 
L 301.905007 -357.630075 
L 303.43549 -358.329704 
L 304.732872 -359.029333 
L 305.358465 -359.728962 
L 304.960355 -360.42859 
L 303.336125 -361.128219 
L 300.474704 -361.827848 
L 296.569418 -362.527477 
L 291.998313 -363.227105 
L 287.272849 -363.926734 
L 282.961433 -364.626363 
L 279.599201 -365.325992 
L 277.598861 -366.025621 
L 277.178343 -366.725249 
L 278.318808 -367.424878 
L 280.76151 -368.124507 
L 284.045022 -368.824136 
L 287.576959 -369.523765 
L 290.728206 -370.223393 
L 292.933953 -370.923022 
L 293.785024 -371.622651 
L 293.09499 -372.32228 
L 290.932586 -373.021909 
L 287.614429 -373.721537 
L 283.659082 -374.421166 
L 279.70955 -375.120795 
L 276.436521 -375.820424 
L 274.438212 -376.520052 
L 274.153614 -377.219681 
L 275.803735 -377.91931 
L 279.370171 -378.618939 
L 284.612957 -379.318568 
L 291.121866 -380.018196 
L 298.389106 -380.717825 
L 305.8881 -381.417454 
L 313.143648 -382.117083 
L 319.782469 -382.816712 
L 325.558873 -383.51634 
L 330.356194 -384.215969 
L 334.16925 -384.915598 
L 352.558875 -384.915598 
L 352.558875 -384.915598 
L 356.371931 -384.215969 
L 361.169252 -383.51634 
L 366.945656 -382.816712 
L 373.584477 -382.117083 
L 380.840025 -381.417454 
L 388.339019 -380.717825 
L 395.606259 -380.018196 
L 402.115168 -379.318568 
L 407.357954 -378.618939 
L 410.92439 -377.91931 
L 412.574511 -377.219681 
L 412.289913 -376.520052 
L 410.291604 -375.820424 
L 407.018575 -375.120795 
L 403.069043 -374.421166 
L 399.113696 -373.721537 
L 395.795539 -373.021909 
L 393.633135 -372.32228 
L 392.943101 -371.622651 
L 393.794172 -370.923022 
L 395.999919 -370.223393 
L 399.151166 -369.523765 
L 402.683103 -368.824136 
L 405.966615 -368.124507 
L 408.409317 -367.424878 
L 409.549782 -366.725249 
L 409.129264 -366.025621 
L 407.128924 -365.325992 
L 403.766692 -364.626363 
L 399.455276 -363.926734 
L 394.729812 -363.227105 
L 390.158707 -362.527477 
L 386.253421 -361.827848 
L 383.392 -361.128219 
L 381.76777 -360.42859 
L 381.36966 -359.728962 
L 381.995253 -359.029333 
L 383.292635 -358.329704 
L 384.823118 -357.630075 
L 386.134109 -356.930446 
L 386.830272 -356.230818 
L 386.631715 -355.531189 
L 385.410354 -354.83156 
L 383.199601 -354.131931 
L 380.177368 -353.432302 
L 376.627121 -352.732674 
L 372.885356 -352.033045 
L 369.285592 -351.333416 
L 366.108598 -350.633787 
L 363.546338 -349.934159 
L 361.683831 -349.23453 
L 360.499565 -348.534901 
L 359.882063 -347.835272 
L 359.658026 -347.135643 
L 359.626375 -346.436015 
L 359.592369 -345.736386 
L 359.396649 -345.036757 
L 358.935337 -344.337128 
L 358.169059 -343.637499 
L 357.120688 -342.937871 
L 355.863438 -342.238242 
L 354.502371 -341.538613 
L 353.153137 -340.838984 
L 351.921792 -340.139355 
L 350.888844 -339.439727 
L 350.099511 -338.740098 
L 349.560878 -338.040469 
L 349.24541 -337.34084 
L 349.099404 -336.641212 
L 349.054399 -335.941583 
L 349.039441 -335.241954 
L 348.99223 -334.542325 
L 348.867584 -333.842696 
L 348.64221 -333.143068 
L 348.315454 -332.443439 
L 347.906359 -331.74381 
L 347.447931 -331.044181 
L 346.979881 -330.344552 
L 346.541211 -329.644924 
L 346.163881 -328.945295 
L 345.868421 -328.245666 
L 345.66193 -327.546037 
L 345.538449 -326.846408 
L 345.48131 -326.14678 
L 345.466859 -325.447151 
L 345.468783 -324.747522 
L 345.462332 -324.047893 
L 345.427785 -323.348265 
L 345.352709 -322.648636 
L 345.232814 -321.949007 
L 345.071417 -321.249378 
L 344.877805 -320.549749 
L 344.664919 -319.850121 
L 344.446856 -319.150492 
L 344.236658 -318.450863 
L 344.044701 -317.751234 
L 343.877856 -317.051605 
L 343.739369 -316.351977 
L 343.629331 -315.652348 
z
" style="stroke: #3f3f3f; stroke-width: 1.25"/>
    </defs>
    <g clip-path="url(#p72bf724ae1)">
     <use xlink:href="#me3aeb484b6" x="0" y="497.537187" style="fill: #3274a1; stroke: #3f3f3f; stroke-width: 1.25"/>
    </g>
   </g>
   <g id="FillBetweenPolyCollection_3">
    <defs>
     <path id="mc60e80578e" d="M 546.326967 -327.176856 
L 545.151158 -327.176856 
L 544.931339 -327.752475 
L 544.659343 -328.328094 
L 544.334764 -328.903713 
L 543.961923 -329.479332 
L 543.550701 -330.054951 
L 543.116717 -330.63057 
L 542.680652 -331.206189 
L 542.266578 -331.781809 
L 541.899378 -332.357428 
L 541.601481 -332.933047 
L 541.389322 -333.508666 
L 541.270035 -334.084285 
L 541.238894 -334.659904 
L 541.277955 -335.235523 
L 541.356199 -335.811142 
L 541.431292 -336.386761 
L 541.452913 -336.962381 
L 541.367416 -337.538 
L 541.123501 -338.113619 
L 540.678411 -338.689238 
L 540.004108 -339.264857 
L 539.092742 -339.840476 
L 537.960628 -340.416095 
L 536.64995 -340.991714 
L 535.227446 -341.567333 
L 533.779651 -342.142953 
L 532.404671 -342.718572 
L 531.201057 -343.294191 
L 530.254915 -343.86981 
L 529.626875 -344.445429 
L 529.34076 -345.021048 
L 529.375724 -345.596667 
L 529.663215 -346.172286 
L 530.089533 -346.747905 
L 530.504052 -347.323525 
L 530.732529 -347.899144 
L 530.594427 -348.474763 
L 529.922791 -349.050382 
L 528.584951 -349.626001 
L 526.502085 -350.20162 
L 523.665439 -350.777239 
L 520.14685 -351.352858 
L 516.101295 -351.928477 
L 511.759662 -352.504097 
L 507.410924 -353.079716 
L 503.374372 -353.655335 
L 499.964335 -354.230954 
L 497.451509 -354.806573 
L 496.026153 -355.382192 
L 495.768686 -355.957811 
L 496.632471 -356.53343 
L 498.441802 -357.109049 
L 500.905882 -357.684668 
L 503.647208 -358.260288 
L 506.240889 -358.835907 
L 508.260241 -359.411526 
L 509.323622 -359.987145 
L 509.137732 -360.562764 
L 507.533173 -361.138383 
L 504.48876 -361.714002 
L 500.141761 -362.289621 
L 494.782028 -362.86524 
L 488.829138 -363.44086 
L 482.79325 -364.016479 
L 477.222543 -364.592098 
L 472.642412 -365.167717 
L 469.493649 -365.743336 
L 468.077878 -366.318955 
L 468.518243 -366.894574 
L 470.741441 -367.470193 
L 474.484037 -368.045812 
L 479.322252 -368.621432 
L 484.720858 -369.197051 
L 490.094257 -369.77267 
L 494.871648 -370.348289 
L 498.558465 -370.923908 
L 500.78762 -371.499527 
L 501.355959 -372.075146 
L 500.243242 -372.650765 
L 497.612597 -373.226384 
L 493.792744 -373.802004 
L 489.243521 -374.377623 
L 484.507628 -374.953242 
L 480.153033 -375.528861 
L 476.712059 -376.10448 
L 474.624281 -376.680099 
L 474.190597 -377.255718 
L 475.544792 -377.831337 
L 478.646515 -378.406956 
L 483.29627 -378.982576 
L 489.169387 -379.558195 
L 495.862904 -380.133814 
L 502.947411 -380.709433 
L 510.015797 -381.285052 
L 516.722169 -381.860671 
L 522.806776 -382.43629 
L 528.10575 -383.011909 
L 532.547186 -383.587528 
L 536.137033 -384.163148 
L 555.341092 -384.163148 
L 555.341092 -384.163148 
L 558.930939 -383.587528 
L 563.372375 -383.011909 
L 568.671349 -382.43629 
L 574.755956 -381.860671 
L 581.462328 -381.285052 
L 588.530714 -380.709433 
L 595.615221 -380.133814 
L 602.308738 -379.558195 
L 608.181855 -378.982576 
L 612.83161 -378.406956 
L 615.933333 -377.831337 
L 617.287528 -377.255718 
L 616.853844 -376.680099 
L 614.766066 -376.10448 
L 611.325092 -375.528861 
L 606.970497 -374.953242 
L 602.234604 -374.377623 
L 597.685381 -373.802004 
L 593.865528 -373.226384 
L 591.234883 -372.650765 
L 590.122166 -372.075146 
L 590.690505 -371.499527 
L 592.91966 -370.923908 
L 596.606477 -370.348289 
L 601.383868 -369.77267 
L 606.757267 -369.197051 
L 612.155873 -368.621432 
L 616.994088 -368.045812 
L 620.736684 -367.470193 
L 622.959882 -366.894574 
L 623.400247 -366.318955 
L 621.984476 -365.743336 
L 618.835713 -365.167717 
L 614.255582 -364.592098 
L 608.684875 -364.016479 
L 602.648987 -363.44086 
L 596.696097 -362.86524 
L 591.336364 -362.289621 
L 586.989365 -361.714002 
L 583.944952 -361.138383 
L 582.340393 -360.562764 
L 582.154503 -359.987145 
L 583.217884 -359.411526 
L 585.237236 -358.835907 
L 587.830917 -358.260288 
L 590.572243 -357.684668 
L 593.036323 -357.109049 
L 594.845654 -356.53343 
L 595.709439 -355.957811 
L 595.451972 -355.382192 
L 594.026616 -354.806573 
L 591.51379 -354.230954 
L 588.103753 -353.655335 
L 584.067201 -353.079716 
L 579.718463 -352.504097 
L 575.37683 -351.928477 
L 571.331275 -351.352858 
L 567.812686 -350.777239 
L 564.97604 -350.20162 
L 562.893174 -349.626001 
L 561.555334 -349.050382 
L 560.883698 -348.474763 
L 560.745596 -347.899144 
L 560.974073 -347.323525 
L 561.388592 -346.747905 
L 561.81491 -346.172286 
L 562.102401 -345.596667 
L 562.137365 -345.021048 
L 561.85125 -344.445429 
L 561.22321 -343.86981 
L 560.277068 -343.294191 
L 559.073454 -342.718572 
L 557.698474 -342.142953 
L 556.250679 -341.567333 
L 554.828175 -340.991714 
L 553.517497 -340.416095 
L 552.385383 -339.840476 
L 551.474017 -339.264857 
L 550.799714 -338.689238 
L 550.354624 -338.113619 
L 550.110709 -337.538 
L 550.025212 -336.962381 
L 550.046833 -336.386761 
L 550.121926 -335.811142 
L 550.20017 -335.235523 
L 550.239231 -334.659904 
L 550.20809 -334.084285 
L 550.088803 -333.508666 
L 549.876644 -332.933047 
L 549.578747 -332.357428 
L 549.211547 -331.781809 
L 548.797473 -331.206189 
L 548.361408 -330.63057 
L 547.927424 -330.054951 
L 547.516202 -329.479332 
L 547.143361 -328.903713 
L 546.818782 -328.328094 
L 546.546786 -327.752475 
L 546.326967 -327.176856 
z
" style="stroke: #3f3f3f; stroke-width: 1.25"/>
    </defs>
    <g clip-path="url(#p72bf724ae1)">
     <use xlink:href="#mc60e80578e" x="0" y="497.537187" style="fill: #3274a1; stroke: #3f3f3f; stroke-width: 1.25"/>
    </g>
   </g>
   <g id="FillBetweenPolyCollection_4">
    <defs>
     <path id="m3c25869275" d="M 748.203276 -294.178026 
L 748.024849 -294.178026 
L 747.973977 -295.093862 
L 747.90641 -296.009698 
L 747.823485 -296.925534 
L 747.730204 -297.84137 
L 747.635363 -298.757206 
L 747.550506 -299.673043 
L 747.487745 -300.588879 
L 747.456958 -301.504715 
L 747.463247 -302.420551 
L 747.505557 -303.336387 
L 747.57696 -304.252223 
L 747.666509 -305.16806 
L 747.761964 -306.083896 
L 747.852455 -306.999732 
L 747.930265 -307.915568 
L 747.991382 -308.831404 
L 748.034877 -309.74724 
L 748.061546 -310.663076 
L 748.072267 -311.578913 
L 748.066508 -312.494749 
L 748.041247 -313.410585 
L 747.990571 -314.326421 
L 747.906217 -315.242257 
L 747.779281 -316.158093 
L 747.603147 -317.07393 
L 747.377186 -317.989766 
L 747.110206 -318.905602 
L 746.822118 -319.821438 
L 746.54237 -320.737274 
L 746.304498 -321.65311 
L 746.137536 -322.568947 
L 746.056602 -323.484783 
L 746.055769 -324.400619 
L 746.106131 -325.316455 
L 746.160532 -326.232291 
L 746.164405 -327.148127 
L 746.070219 -328.063963 
L 745.8517 -328.9798 
L 745.513623 -329.895636 
L 745.093607 -330.811472 
L 744.654004 -331.727308 
L 744.264556 -332.643144 
L 743.979474 -333.55898 
L 743.815096 -334.474817 
L 743.73531 -335.390653 
L 743.650759 -336.306489 
L 743.434693 -337.222325 
L 742.953894 -338.138161 
L 742.108414 -339.053997 
L 740.869992 -339.969834 
L 739.306997 -340.88567 
L 737.584696 -341.801506 
L 735.934707 -342.717342 
L 734.596365 -343.633178 
L 733.74317 -344.549014 
L 733.41566 -345.46485 
L 733.483822 -346.380687 
L 733.656003 -347.296523 
L 733.538683 -348.212359 
L 732.736498 -349.128195 
L 730.968868 -350.044031 
L 728.171529 -350.959867 
L 724.550359 -351.875704 
L 720.562534 -352.79154 
L 716.816965 -353.707376 
L 713.910038 -354.623212 
L 712.237288 -355.539048 
L 711.837221 -356.454884 
L 712.321893 -357.370721 
L 712.928132 -358.286557 
L 712.689709 -359.202393 
L 710.69489 -360.118229 
L 706.365825 -361.034065 
L 699.682699 -361.949901 
L 691.280167 -362.865738 
L 682.368604 -363.781574 
L 674.477479 -364.69741 
L 669.074522 -365.613246 
L 667.164062 -366.529082 
L 668.98849 -367.444918 
L 673.933449 -368.360754 
L 680.67445 -369.276591 
L 687.524104 -370.192427 
L 692.876445 -371.108263 
L 695.620032 -372.024099 
L 695.408263 -372.939935 
L 692.721384 -373.855771 
L 688.712722 -374.771608 
L 684.88718 -375.687444 
L 682.702588 -376.60328 
L 683.204546 -377.519116 
L 686.794741 -378.434952 
L 693.190223 -379.350788 
L 701.568549 -380.266625 
L 710.834306 -381.182461 
L 719.910536 -382.098297 
L 727.965462 -383.014133 
L 734.523596 -383.929969 
L 739.459606 -384.845805 
L 756.768519 -384.845805 
L 756.768519 -384.845805 
L 761.704529 -383.929969 
L 768.262663 -383.014133 
L 776.317589 -382.098297 
L 785.393819 -381.182461 
L 794.659576 -380.266625 
L 803.037902 -379.350788 
L 809.433384 -378.434952 
L 813.023579 -377.519116 
L 813.525537 -376.60328 
L 811.340945 -375.687444 
L 807.515403 -374.771608 
L 803.506741 -373.855771 
L 800.819862 -372.939935 
L 800.608093 -372.024099 
L 803.35168 -371.108263 
L 808.704021 -370.192427 
L 815.553675 -369.276591 
L 822.294676 -368.360754 
L 827.239635 -367.444918 
L 829.064062 -366.529082 
L 827.153603 -365.613246 
L 821.750646 -364.69741 
L 813.859521 -363.781574 
L 804.947958 -362.865738 
L 796.545426 -361.949901 
L 789.8623 -361.034065 
L 785.533235 -360.118229 
L 783.538416 -359.202393 
L 783.299993 -358.286557 
L 783.906232 -357.370721 
L 784.390904 -356.454884 
L 783.990837 -355.539048 
L 782.318087 -354.623212 
L 779.41116 -353.707376 
L 775.665591 -352.79154 
L 771.677766 -351.875704 
L 768.056596 -350.959867 
L 765.259257 -350.044031 
L 763.491627 -349.128195 
L 762.689442 -348.212359 
L 762.572122 -347.296523 
L 762.744303 -346.380687 
L 762.812465 -345.46485 
L 762.484955 -344.549014 
L 761.63176 -343.633178 
L 760.293418 -342.717342 
L 758.643429 -341.801506 
L 756.921128 -340.88567 
L 755.358133 -339.969834 
L 754.119711 -339.053997 
L 753.274231 -338.138161 
L 752.793432 -337.222325 
L 752.577366 -336.306489 
L 752.492815 -335.390653 
L 752.413029 -334.474817 
L 752.248651 -333.55898 
L 751.963569 -332.643144 
L 751.574121 -331.727308 
L 751.134518 -330.811472 
L 750.714502 -329.895636 
L 750.376425 -328.9798 
L 750.157906 -328.063963 
L 750.06372 -327.148127 
L 750.067593 -326.232291 
L 750.121994 -325.316455 
L 750.172356 -324.400619 
L 750.171523 -323.484783 
L 750.090589 -322.568947 
L 749.923627 -321.65311 
L 749.685755 -320.737274 
L 749.406007 -319.821438 
L 749.117919 -318.905602 
L 748.850939 -317.989766 
L 748.624978 -317.07393 
L 748.448844 -316.158093 
L 748.321908 -315.242257 
L 748.237554 -314.326421 
L 748.186878 -313.410585 
L 748.161617 -312.494749 
L 748.155858 -311.578913 
L 748.166579 -310.663076 
L 748.193248 -309.74724 
L 748.236743 -308.831404 
L 748.29786 -307.915568 
L 748.37567 -306.999732 
L 748.466161 -306.083896 
L 748.561616 -305.16806 
L 748.651165 -304.252223 
L 748.722568 -303.336387 
L 748.764878 -302.420551 
L 748.771167 -301.504715 
L 748.74038 -300.588879 
L 748.677619 -299.673043 
L 748.592762 -298.757206 
L 748.497921 -297.84137 
L 748.40464 -296.925534 
L 748.321715 -296.009698 
L 748.254148 -295.093862 
L 748.203276 -294.178026 
z
" style="stroke: #3f3f3f; stroke-width: 1.25"/>
    </defs>
    <g clip-path="url(#p72bf724ae1)">
     <use xlink:href="#m3c25869275" x="0" y="497.537187" style="fill: #3274a1; stroke: #3f3f3f; stroke-width: 1.25"/>
    </g>
   </g>
   <g id="line2d_12">
    <path d="M 101.902398 141.867186 
L 180.075727 141.867186 
" clip-path="url(#p72bf724ae1)" style="fill: none; stroke-dasharray: 1.5625,0.9375; stroke-dashoffset: 0; stroke: #3f3f3f; stroke-width: 1.25"/>
   </g>
   <g id="line2d_13">
    <path d="M 93.834678 131.095128 
L 188.143447 131.095128 
" clip-path="url(#p72bf724ae1)" style="fill: none; stroke-dasharray: 3.125,1.25; stroke-dashoffset: 0; stroke: #3f3f3f; stroke-width: 1.25"/>
   </g>
   <g id="line2d_14">
    <path d="M 93.834678 131.095128 
L 188.143447 131.095128 
" clip-path="url(#p72bf724ae1)" style="fill: none; stroke-dasharray: 1.5625,0.9375; stroke-dashoffset: 0; stroke: #3f3f3f; stroke-width: 1.25"/>
   </g>
   <g id="line2d_15">
    <path d="M 300.057014 141.867186 
L 386.671111 141.867186 
" clip-path="url(#p72bf724ae1)" style="fill: none; stroke-dasharray: 1.5625,0.9375; stroke-dashoffset: 0; stroke: #3f3f3f; stroke-width: 1.25"/>
   </g>
   <g id="line2d_16">
    <path d="M 277.348557 131.095128 
L 409.379568 131.095128 
" clip-path="url(#p72bf724ae1)" style="fill: none; stroke-dasharray: 3.125,1.25; stroke-dashoffset: 0; stroke: #3f3f3f; stroke-width: 1.25"/>
   </g>
   <g id="line2d_17">
    <path d="M 274.155877 120.323071 
L 412.572248 120.323071 
" clip-path="url(#p72bf724ae1)" style="fill: none; stroke-dasharray: 1.5625,0.9375; stroke-dashoffset: 0; stroke: #3f3f3f; stroke-width: 1.25"/>
   </g>
   <g id="line2d_18">
    <path d="M 495.897419 141.867186 
L 595.580706 141.867186 
" clip-path="url(#p72bf724ae1)" style="fill: none; stroke-dasharray: 1.5625,0.9375; stroke-dashoffset: 0; stroke: #3f3f3f; stroke-width: 1.25"/>
   </g>
   <g id="line2d_19">
    <path d="M 468.172056 131.095128 
L 623.306069 131.095128 
" clip-path="url(#p72bf724ae1)" style="fill: none; stroke-dasharray: 3.125,1.25; stroke-dashoffset: 0; stroke: #3f3f3f; stroke-width: 1.25"/>
   </g>
   <g id="line2d_20">
    <path d="M 474.22194 120.323071 
L 617.256185 120.323071 
" clip-path="url(#p72bf724ae1)" style="fill: none; stroke-dasharray: 1.5625,0.9375; stroke-dashoffset: 0; stroke: #3f3f3f; stroke-width: 1.25"/>
   </g>
   <g id="line2d_21">
    <path d="M 712.180083 141.867186 
L 784.048042 141.867186 
" clip-path="url(#p72bf724ae1)" style="fill: none; stroke-dasharray: 1.5625,0.9375; stroke-dashoffset: 0; stroke: #3f3f3f; stroke-width: 1.25"/>
   </g>
   <g id="line2d_22">
    <path d="M 667.345595 131.095128 
L 828.88253 131.095128 
" clip-path="url(#p72bf724ae1)" style="fill: none; stroke-dasharray: 3.125,1.25; stroke-dashoffset: 0; stroke: #3f3f3f; stroke-width: 1.25"/>
   </g>
   <g id="line2d_23">
    <path d="M 683.03738 120.323071 
L 813.190745 120.323071 
" clip-path="url(#p72bf724ae1)" style="fill: none; stroke-dasharray: 1.5625,0.9375; stroke-dashoffset: 0; stroke: #3f3f3f; stroke-width: 1.25"/>
   </g>
   <g id="patch_3">
    <path d="M 39.801563 459.473125 
L 39.801563 82.790625 
" style="fill: none; stroke: #cccccc; stroke-width: 0.8; stroke-linejoin: miter; stroke-linecap: square"/>
   </g>
   <g id="patch_4">
    <path d="M 849.301563 459.473125 
L 849.301563 82.790625 
" style="fill: none; stroke: #cccccc; stroke-width: 0.8; stroke-linejoin: miter; stroke-linecap: square"/>
   </g>
   <g id="patch_5">
    <path d="M 39.801562 459.473125 
L 849.301563 459.473125 
" style="fill: none; stroke: #cccccc; stroke-width: 0.8; stroke-linejoin: miter; stroke-linecap: square"/>
   </g>
   <g id="patch_6">
    <path d="M 39.801562 82.790625 
L 849.301563 82.790625 
" style="fill: none; stroke: #cccccc; stroke-width: 0.8; stroke-linejoin: miter; stroke-linecap: square"/>
   </g>
  </g>
  <g id="text_14">
   <!-- 训练阶段奖励分布: hpo_params - PPO - 初始训练 (正态-大幅均值改变(μ14,σ2)) -->
   <g style="fill: #262626" transform="translate(134.787812 20.615) scale(0.16 -0.16)">
    <defs>
     <path id="MicrosoftYaHei-Bold-8bad" d="M 956 5259 
Q 1475 4753 1925 4234 
L 1263 3684 
Q 769 4328 356 4747 
L 956 5259 
z
M 2450 5184 
L 3281 5184 
L 3281 2066 
Q 3281 209 2275 -884 
Q 1844 -528 1519 -328 
Q 2450 659 2450 2134 
L 2450 5184 
z
M 5238 5184 
L 6069 5184 
L 6069 -784 
L 5238 -784 
L 5238 5184 
z
M 3856 4953 
L 4663 4953 
L 4663 -416 
L 3856 -416 
L 3856 4953 
z
M 2019 1772 
Q 2050 1466 2175 916 
Q 1556 353 925 -341 
L 488 266 
Q 650 447 650 772 
L 650 2422 
L 125 2422 
L 125 3266 
L 1475 3266 
L 1475 1297 
Q 1769 1541 2019 1772 
z
" transform="scale(0.015625)"/>
     <path id="MicrosoftYaHei-Bold-7ec3" d="M 2400 3516 
L 2984 3516 
L 3159 4028 
L 2263 4028 
L 2263 4753 
L 3394 4753 
L 3575 5347 
L 4413 5291 
L 4238 4753 
L 6000 4753 
L 6000 4028 
L 3994 4028 
L 3809 3516 
L 4969 3516 
L 4969 2191 
L 6025 2191 
L 6025 1484 
L 4969 1484 
L 4969 297 
Q 4969 -131 4831 -397 
Q 4694 -663 4444 -758 
Q 4194 -853 3394 -853 
Q 3294 -309 3225 -34 
Q 3525 -72 3756 -72 
Q 4125 -72 4125 491 
L 4125 1484 
L 2513 1484 
L 2513 2291 
Q 2613 2525 2716 2791 
L 2400 2791 
L 2400 3516 
z
M 3306 2191 
L 4125 2191 
L 4125 2791 
L 3541 2791 
L 3306 2191 
z
M 1013 3372 
L 1419 3388 
L 1744 3966 
L 2413 3659 
L 1356 1797 
Q 1894 1872 2294 1941 
Q 2263 1684 2231 1159 
Q 931 984 475 866 
L 244 1566 
Q 531 1816 1009 2653 
L 306 2584 
L 75 3297 
Q 575 3966 1219 5341 
L 2000 5028 
Q 1450 4053 1013 3372 
z
M 75 372 
Q 1100 478 2288 672 
Q 2275 350 2272 116 
Q 2722 741 3000 1309 
L 3706 1003 
Q 3294 197 2738 -597 
Q 2469 -409 2078 -191 
L 238 -503 
L 75 372 
z
M 5000 978 
L 5619 1278 
Q 5994 584 6369 -197 
L 5713 -534 
Q 5356 316 5000 978 
z
" transform="scale(0.015625)"/>
     <path id="MicrosoftYaHei-Bold-9636" d="M 4638 2678 
L 5488 2678 
L 5488 -753 
L 4638 -753 
L 4638 2678 
z
M 6338 3297 
Q 6138 2947 5925 2434 
Q 4825 3197 4256 4297 
Q 3631 3259 2663 2384 
Q 2425 2784 2163 3147 
Q 3269 4053 3856 5253 
L 4756 5253 
L 4675 5047 
Q 5288 3966 6338 3297 
z
M 3006 2672 
L 3863 2672 
Q 3863 1284 3781 872 
Q 3625 -128 2763 -872 
Q 2531 -609 2113 -241 
Q 2775 328 2925 1041 
Q 3006 1322 3006 2672 
z
M 1988 2791 
Q 2525 2003 2525 1209 
Q 2525 747 2288 509 
Q 2019 241 1319 222 
Q 1288 609 1163 1066 
Q 1344 1034 1450 1034 
Q 1719 1034 1719 1297 
Q 1719 1941 1194 2672 
L 1725 4328 
L 1119 4328 
L 1119 -872 
L 331 -872 
L 331 5053 
L 2581 5053 
L 2581 4341 
L 1988 2791 
z
" transform="scale(0.015625)"/>
     <path id="MicrosoftYaHei-Bold-6bb5" d="M 113 22 
L 94 859 
L 525 897 
L 525 4947 
Q 1238 4978 2713 5228 
L 2988 4447 
Q 2094 4303 1356 4241 
L 1356 3716 
L 2625 3716 
L 2625 2953 
L 1356 2953 
L 1356 2397 
L 2625 2397 
L 2625 1634 
L 1356 1634 
L 1356 981 
L 2775 1141 
Q 2750 766 2750 347 
L 1356 178 
L 1356 -822 
L 525 -822 
L 525 75 
L 113 22 
z
M 5900 3816 
L 6319 3816 
Q 6231 3422 6169 3047 
L 5519 3047 
Q 4844 3047 4844 3734 
L 4844 4303 
L 3956 4303 
Q 3956 3672 3806 3372 
Q 3656 3072 3319 2791 
Q 3038 3047 2688 3322 
Q 3181 3628 3181 4278 
L 3181 5078 
L 5638 5078 
L 5638 4109 
Q 5638 3816 5900 3816 
z
M 6038 2728 
L 6038 1978 
Q 5703 1163 5119 541 
Q 5684 209 6356 16 
Q 6138 -378 5906 -816 
Q 5088 -503 4438 -53 
Q 3775 -538 2894 -853 
Q 2731 -578 2350 -66 
Q 3138 163 3731 525 
Q 3284 959 2950 1484 
L 3581 1941 
Q 3953 1431 4413 1041 
Q 4834 1447 5100 1959 
L 2788 1959 
L 2788 2728 
L 6038 2728 
z
" transform="scale(0.015625)"/>
     <path id="MicrosoftYaHei-Bold-5956" d="M 2475 3678 
Q 3206 4403 3625 5366 
L 4438 5209 
Q 4294 4925 4141 4666 
L 6156 4666 
L 6156 4053 
Q 5606 2531 3719 1856 
Q 3688 1706 3647 1566 
L 6225 1566 
L 6225 828 
L 3922 828 
Q 4569 141 6300 34 
Q 6150 -234 5875 -866 
Q 3972 -681 3147 538 
Q 2319 -541 400 -859 
Q 269 -434 100 -16 
Q 1706 197 2306 828 
L 200 828 
L 200 1566 
L 2756 1566 
Q 2856 1853 2888 2191 
L 3328 2191 
Q 3228 2331 3100 2491 
Q 3638 2666 4056 2881 
Q 3747 3163 3444 3397 
L 3944 3884 
Q 4234 3663 4684 3275 
Q 5106 3606 5319 4003 
L 3716 4003 
Q 3388 3534 3019 3153 
Q 2794 3391 2475 3678 
z
M 381 2166 
L 125 2972 
Q 950 3263 1600 3534 
L 1600 4184 
L 1075 3678 
Q 556 4222 213 4553 
L 706 5016 
Q 984 4775 1600 4206 
L 1600 5328 
L 2406 5328 
L 2406 1766 
L 1600 1766 
L 1600 2691 
Q 956 2431 381 2166 
z
" transform="scale(0.015625)"/>
     <path id="MicrosoftYaHei-Bold-52b1" d="M 4438 -753 
Q 4394 -381 4328 -47 
Q 4109 -556 3794 -909 
Q 3709 -813 3231 -403 
Q 3113 -634 2897 -721 
Q 2681 -809 2069 -809 
Q 2025 -506 1959 -175 
Q 1806 -600 1600 -934 
Q 1369 -484 1106 -66 
Q 1300 266 1423 697 
Q 1547 1128 1592 1590 
Q 1638 2053 1647 3153 
L 1263 3153 
L 1263 2878 
Q 1263 556 613 -878 
Q 381 -441 75 22 
Q 469 1078 475 2991 
L 475 5103 
L 3688 5103 
L 3688 4328 
L 1263 4328 
L 1263 3903 
L 3463 3903 
L 3463 3153 
L 2391 3153 
Q 2388 2753 2375 2509 
L 3444 2509 
Q 3406 603 3344 -50 
Q 4075 953 4081 3328 
L 3675 3328 
L 3675 4153 
L 4094 4153 
Q 4100 4666 4100 5309 
L 4844 5309 
L 4834 4153 
L 6038 4153 
L 6003 1713 
L 5969 263 
Q 5956 -166 5792 -394 
Q 5628 -622 5383 -683 
Q 5138 -744 4438 -753 
z
M 4397 128 
Q 4581 116 4872 116 
Q 5013 116 5092 197 
Q 5172 278 5195 422 
Q 5219 566 5244 1344 
Q 5269 2122 5269 3328 
L 4825 3328 
Q 4819 1216 4397 128 
z
M 2031 34 
Q 2131 31 2313 22 
Q 2563 16 2606 202 
Q 2650 388 2688 1784 
L 2338 1784 
Q 2263 781 2031 34 
z
" transform="scale(0.015625)"/>
     <path id="MicrosoftYaHei-Bold-5206" d="M 6350 3028 
Q 6088 2703 5750 2228 
Q 5519 2409 5303 2603 
Q 5219 606 5172 190 
Q 5125 -225 4862 -451 
Q 4600 -678 4128 -678 
Q 3484 -678 2913 -659 
Q 2856 -141 2781 284 
Q 3594 216 3956 216 
Q 4172 216 4230 408 
Q 4288 600 4325 1978 
L 2781 1978 
Q 2728 1100 2529 631 
Q 2331 163 1907 -215 
Q 1484 -594 844 -872 
Q 456 -353 194 -78 
Q 750 144 1111 414 
Q 1472 684 1630 989 
Q 1788 1294 1841 1978 
L 950 1978 
L 950 2475 
Q 794 2356 631 2247 
Q 344 2653 63 2953 
Q 1475 3947 2194 5316 
L 3031 4953 
Q 2378 3722 1391 2841 
L 5047 2841 
Q 4088 3766 3463 4903 
L 4238 5303 
Q 5038 3922 6350 3028 
z
" transform="scale(0.015625)"/>
     <path id="MicrosoftYaHei-Bold-5e03" d="M 3919 -834 
L 3050 -834 
L 3050 2034 
L 2063 2034 
L 2063 -359 
L 1200 -359 
L 1200 1641 
Q 825 1238 400 866 
Q 244 1403 113 1741 
Q 1128 2669 1731 3709 
L 200 3709 
L 200 4541 
L 2141 4541 
Q 2294 4916 2400 5303 
L 3275 5203 
Q 3169 4866 3038 4541 
L 6250 4541 
L 6250 3709 
L 2659 3709 
Q 2406 3222 2094 2766 
L 3050 2766 
L 3050 3566 
L 3919 3566 
L 3919 2766 
L 5800 2766 
L 5800 741 
Q 5800 338 5628 112 
Q 5456 -113 5178 -164 
Q 4900 -216 4306 -216 
Q 4225 291 4156 609 
Q 4456 584 4544 584 
Q 4950 584 4950 1034 
L 4950 2034 
L 3919 2034 
L 3919 -834 
z
" transform="scale(0.015625)"/>
     <path id="MicrosoftYaHei-Bold-3a" d="M 313 2969 
Q 313 3200 491 3350 
Q 669 3500 916 3500 
Q 1166 3500 1337 3350 
Q 1509 3200 1509 2969 
Q 1509 2728 1337 2579 
Q 1166 2431 903 2431 
Q 653 2431 483 2584 
Q 313 2738 313 2969 
z
M 313 453 
Q 313 688 491 838 
Q 669 988 916 988 
Q 1166 988 1337 834 
Q 1509 681 1509 453 
Q 1509 213 1337 64 
Q 1166 -84 903 -84 
Q 659 -84 486 69 
Q 313 222 313 453 
z
" transform="scale(0.015625)"/>
     <path id="MicrosoftYaHei-Bold-20" transform="scale(0.015625)"/>
     <path id="MicrosoftYaHei-Bold-68" d="M 3725 0 
L 2719 0 
L 2719 1969 
Q 2719 2766 2138 2766 
Q 1847 2766 1658 2544 
Q 1469 2322 1469 1969 
L 1469 0 
L 459 0 
L 459 5116 
L 1469 5116 
L 1469 2938 
L 1481 2938 
Q 1878 3541 2550 3541 
Q 3725 3541 3725 2122 
L 3725 0 
z
" transform="scale(0.015625)"/>
     <path id="MicrosoftYaHei-Bold-70" d="M 1469 416 
L 1469 -1591 
L 459 -1591 
L 459 3456 
L 1469 3456 
L 1469 2928 
L 1481 2928 
Q 1878 3541 2603 3541 
Q 3263 3541 3634 3080 
Q 4006 2619 4006 1825 
Q 4006 959 3575 437 
Q 3144 -84 2444 -84 
Q 1809 -84 1481 416 
L 1469 416 
z
M 1453 1528 
Q 1453 1159 1653 925 
Q 1853 691 2172 691 
Q 2550 691 2761 984 
Q 2972 1278 2972 1816 
Q 2972 2766 2231 2766 
Q 1888 2766 1670 2503 
Q 1453 2241 1453 1828 
L 1453 1528 
z
" transform="scale(0.015625)"/>
     <path id="MicrosoftYaHei-Bold-6f" d="M 253 1713 
Q 253 2566 764 3053 
Q 1275 3541 2138 3541 
Q 2972 3541 3462 3061 
Q 3953 2581 3953 1772 
Q 3953 922 3450 419 
Q 2947 -84 2088 -84 
Q 1244 -84 748 398 
Q 253 881 253 1713 
z
M 1275 1725 
Q 1275 691 2119 691 
Q 2928 691 2928 1753 
Q 2928 2766 2113 2766 
Q 1716 2766 1495 2494 
Q 1275 2222 1275 1725 
z
" transform="scale(0.015625)"/>
     <path id="MicrosoftYaHei-Bold-5f" d="M 2869 -1675 
L 0 -1675 
L 0 -1272 
L 2869 -1272 
L 2869 -1675 
z
" transform="scale(0.015625)"/>
     <path id="MicrosoftYaHei-Bold-61" d="M 544 3247 
Q 778 3378 1170 3459 
Q 1563 3541 1841 3541 
Q 3291 3541 3291 2088 
L 3291 0 
L 2331 0 
L 2331 503 
L 2319 503 
Q 1966 -84 1284 -84 
Q 794 -84 498 195 
Q 203 475 203 956 
Q 203 1950 1388 2113 
L 2338 2241 
Q 2338 2844 1709 2844 
Q 1091 2844 544 2469 
L 544 3247 
z
M 1684 1566 
Q 1138 1494 1138 1072 
Q 1138 878 1270 759 
Q 1403 641 1628 641 
Q 1938 641 2138 859 
Q 2338 1078 2338 1403 
L 2338 1650 
L 1684 1566 
z
" transform="scale(0.015625)"/>
     <path id="MicrosoftYaHei-Bold-72" d="M 2663 2541 
Q 2478 2647 2216 2647 
Q 1872 2647 1670 2384 
Q 1469 2122 1469 1663 
L 1469 0 
L 459 0 
L 459 3456 
L 1469 3456 
L 1469 2806 
L 1481 2806 
Q 1731 3516 2391 3516 
Q 2569 3516 2663 3475 
L 2663 2541 
z
" transform="scale(0.015625)"/>
     <path id="MicrosoftYaHei-Bold-6d" d="M 5881 0 
L 4875 0 
L 4875 1972 
Q 4875 2766 4297 2766 
Q 4028 2766 3850 2525 
Q 3672 2284 3672 1938 
L 3672 0 
L 2666 0 
L 2666 1997 
Q 2666 2766 2094 2766 
Q 1809 2766 1639 2536 
Q 1469 2306 1469 1928 
L 1469 0 
L 459 0 
L 459 3456 
L 1469 3456 
L 1469 2916 
L 1481 2916 
Q 1663 3213 1963 3377 
Q 2263 3541 2594 3541 
Q 3322 3541 3591 2888 
Q 3991 3541 4753 3541 
Q 5881 3541 5881 2147 
L 5881 0 
z
" transform="scale(0.015625)"/>
     <path id="MicrosoftYaHei-Bold-73" d="M 369 928 
Q 888 613 1384 613 
Q 2009 613 2009 947 
Q 2009 1184 1494 1344 
Q 850 1544 609 1789 
Q 369 2034 369 2453 
Q 369 2963 781 3252 
Q 1194 3541 1863 3541 
Q 2338 3541 2778 3400 
L 2778 2606 
Q 2375 2844 1891 2844 
Q 1650 2844 1503 2758 
Q 1356 2672 1356 2531 
Q 1356 2294 1794 2147 
Q 2263 1991 2498 1862 
Q 2734 1734 2857 1525 
Q 2981 1316 2981 1041 
Q 2981 506 2553 211 
Q 2125 -84 1409 -84 
Q 847 -84 369 94 
L 369 928 
z
" transform="scale(0.015625)"/>
     <path id="MicrosoftYaHei-Bold-2d" d="M 2328 1497 
L 481 1497 
L 481 2209 
L 2328 2209 
L 2328 1497 
z
" transform="scale(0.015625)"/>
     <path id="MicrosoftYaHei-Bold-50" d="M 1591 1688 
L 1591 0 
L 559 0 
L 559 4841 
L 2225 4841 
Q 4031 4841 4031 3309 
Q 4031 2566 3486 2117 
Q 2941 1669 2122 1688 
L 1591 1688 
z
M 1591 4041 
L 1591 2478 
L 2038 2478 
Q 2947 2478 2947 3269 
Q 2947 4041 2047 4041 
L 1591 4041 
z
" transform="scale(0.015625)"/>
     <path id="MicrosoftYaHei-Bold-4f" d="M 256 2356 
Q 256 3494 920 4208 
Q 1584 4922 2675 4922 
Q 3713 4922 4345 4231 
Q 4978 3541 4978 2456 
Q 4978 1325 4320 620 
Q 3663 -84 2597 -84 
Q 1556 -84 906 598 
Q 256 1281 256 2356 
z
M 1341 2413 
Q 1341 1706 1681 1257 
Q 2022 809 2616 809 
Q 3222 809 3559 1239 
Q 3897 1669 3897 2394 
Q 3897 3150 3569 3589 
Q 3241 4028 2644 4028 
Q 2038 4028 1689 3578 
Q 1341 3128 1341 2413 
z
" transform="scale(0.015625)"/>
     <path id="MicrosoftYaHei-Bold-521d" d="M 1288 5359 
Q 1619 4997 2031 4453 
L 1516 4109 
L 2294 4109 
L 2294 3378 
Q 2019 2847 1700 2369 
L 1700 2256 
Q 1809 2175 1909 2097 
Q 2209 2516 2419 2878 
L 2994 2516 
Q 2716 2138 2381 1734 
Q 2619 1544 2813 1378 
L 2363 834 
Q 2016 1166 1700 1441 
L 1700 -866 
L 913 -866 
L 913 1338 
Q 641 1025 344 741 
Q 231 1228 94 1678 
Q 831 2278 1363 3303 
L 156 3303 
L 156 4109 
L 1231 4109 
Q 981 4472 613 4928 
L 1288 5359 
z
M 3919 -697 
Q 3838 -266 3700 253 
Q 4153 209 4563 209 
Q 5006 209 5040 675 
Q 5075 1141 5113 4159 
L 4097 4159 
Q 4050 2622 3984 1959 
Q 3919 1297 3595 525 
Q 3272 -247 2644 -859 
Q 2369 -578 1925 -216 
Q 2450 234 2734 806 
Q 3019 1378 3105 1972 
Q 3191 2566 3219 4159 
L 2488 4159 
L 2488 4947 
L 6013 4947 
L 5938 1331 
L 5906 491 
Q 5906 -44 5686 -328 
Q 5466 -613 5067 -647 
Q 4669 -681 3919 -697 
z
" transform="scale(0.015625)"/>
     <path id="MicrosoftYaHei-Bold-59cb" d="M 2863 -853 
L 2863 356 
L 2256 -291 
Q 2000 -25 1744 225 
Q 1309 -381 638 -847 
Q 350 -466 69 -153 
Q 706 259 1119 816 
Q 669 1228 225 1597 
Q 441 2363 616 3359 
L 119 3359 
L 119 4134 
L 741 4134 
Q 825 4706 900 5347 
L 1731 5259 
L 1550 4134 
L 2669 4134 
Q 2663 3728 2638 3363 
Q 3213 3972 3875 5359 
L 4800 5097 
Q 4225 4159 3594 3378 
Q 4328 3422 5075 3484 
Q 4847 3944 4619 4359 
L 5294 4634 
Q 5831 3747 6369 2659 
L 5613 2341 
L 5391 2828 
Q 3522 2697 2863 2578 
L 2625 3169 
Q 2519 1791 2156 953 
L 2863 394 
L 2863 2116 
L 5981 2116 
L 5981 -828 
L 5144 -828 
L 5144 -472 
L 3700 -472 
L 3700 -853 
L 2863 -853 
z
M 1088 1797 
L 1503 1469 
Q 1809 2241 1863 3359 
L 1413 3359 
Q 1259 2541 1088 1797 
z
M 5144 1328 
L 3700 1328 
L 3700 316 
L 5144 316 
L 5144 1328 
z
" transform="scale(0.015625)"/>
     <path id="MicrosoftYaHei-Bold-28" d="M 1606 -1100 
Q 525 97 525 1853 
Q 525 3550 1606 4841 
L 2431 4841 
Q 1406 3497 1406 1853 
Q 1406 216 2438 -1100 
L 1606 -1100 
z
" transform="scale(0.015625)"/>
     <path id="MicrosoftYaHei-Bold-6b63" d="M 138 303 
L 1050 303 
L 1050 3397 
L 1975 3397 
L 1975 303 
L 3056 303 
L 3056 4078 
L 388 4078 
L 388 4934 
L 6056 4934 
L 6056 4078 
L 4000 4078 
L 4000 2709 
L 5838 2709 
L 5838 1859 
L 4000 1859 
L 4000 303 
L 6263 303 
L 6263 -553 
L 138 -553 
L 138 303 
z
" transform="scale(0.015625)"/>
     <path id="MicrosoftYaHei-Bold-6001" d="M 300 4628 
L 2656 4628 
Q 2719 4953 2700 5334 
L 3625 5334 
Q 3613 4947 3584 4628 
L 6100 4628 
L 6100 3878 
L 3981 3878 
Q 4788 3000 6313 2703 
Q 6063 2228 5869 1784 
Q 4159 2303 3206 3700 
Q 2500 2331 588 1703 
Q 356 2197 88 2616 
Q 1869 3028 2369 3878 
L 300 3878 
L 300 4628 
z
M 2919 3022 
Q 3356 2753 3950 2347 
L 3388 1784 
Q 2863 2222 2406 2528 
L 2919 3022 
z
M 2975 1941 
Q 3619 1559 4163 1166 
L 3644 566 
Q 3119 997 2506 1372 
L 2975 1941 
z
M 5494 1709 
Q 5969 997 6331 278 
L 5588 -128 
Q 5244 603 4775 1353 
L 5494 1709 
z
M 4350 872 
Q 4813 647 5213 497 
Q 5022 -278 4744 -509 
Q 4466 -741 3913 -741 
L 2500 -741 
Q 1563 -741 1563 184 
L 1563 1491 
L 2388 1491 
L 2388 391 
Q 2388 9 2775 9 
L 3713 9 
Q 4019 9 4147 143 
Q 4275 278 4350 872 
z
M 663 1466 
L 1438 1203 
Q 1119 253 863 -353 
L 81 -53 
Q 413 659 663 1466 
z
" transform="scale(0.015625)"/>
     <path id="MicrosoftYaHei-Bold-5927" d="M 213 3728 
L 2681 3728 
Q 2725 4409 2719 5303 
L 3669 5303 
Q 3650 4375 3619 3728 
L 6200 3728 
L 6200 2866 
L 3691 2866 
Q 4228 778 6288 59 
Q 5844 -447 5575 -803 
Q 3872 -3 3203 1775 
Q 2684 147 806 -847 
Q 556 -528 100 -47 
Q 2375 984 2591 2866 
L 213 2866 
L 213 3728 
z
" transform="scale(0.015625)"/>
     <path id="MicrosoftYaHei-Bold-5e45" d="M 850 447 
L 319 447 
L 319 4278 
L 1088 4278 
L 1088 5328 
L 1763 5328 
L 1763 4278 
L 2525 4278 
L 2525 1153 
Q 2525 959 2456 723 
Q 2388 488 1844 503 
Q 1822 784 1763 1116 
L 1763 -847 
L 1088 -847 
L 1088 3528 
L 850 3528 
L 850 447 
z
M 2000 1403 
L 2000 3528 
L 1763 3528 
L 1763 1188 
Q 2000 1141 2000 1403 
z
M 2606 5016 
L 6169 5016 
L 6169 4366 
L 2606 4366 
L 2606 5016 
z
M 2919 4072 
L 5856 4072 
L 5856 2484 
L 2919 2484 
L 2919 4072 
z
M 5056 3447 
L 3719 3447 
L 3719 3109 
L 5056 3109 
L 5056 3447 
z
M 2688 2191 
L 6088 2191 
L 6088 -809 
L 5338 -809 
L 5338 -484 
L 3438 -484 
L 3438 -809 
L 2688 -809 
L 2688 2191 
z
M 3438 1141 
L 4038 1141 
L 4038 1591 
L 3438 1591 
L 3438 1141 
z
M 5338 1591 
L 4738 1591 
L 4738 1141 
L 5338 1141 
L 5338 1591 
z
M 3438 116 
L 4038 116 
L 4038 566 
L 3438 566 
L 3438 116 
z
M 4738 116 
L 5338 116 
L 5338 566 
L 4738 566 
L 4738 116 
z
" transform="scale(0.015625)"/>
     <path id="MicrosoftYaHei-Bold-5747" d="M 250 -397 
L 88 547 
Q 425 628 794 725 
L 794 2847 
L 213 2847 
L 213 3703 
L 794 3703 
L 794 5322 
L 1638 5322 
L 1638 3703 
L 2156 3703 
L 2156 3269 
Q 2794 4313 3075 5366 
L 3925 5266 
Q 3809 4866 3669 4491 
L 6069 4491 
L 6016 1816 
L 5966 303 
Q 5944 -194 5730 -450 
Q 5516 -706 5167 -745 
Q 4819 -784 3775 -797 
Q 3700 -397 3556 153 
Q 4178 103 4625 103 
Q 4819 103 4955 208 
Q 5091 313 5105 575 
Q 5119 838 5141 1619 
L 5181 3703 
L 3341 3703 
Q 3059 3088 2706 2541 
Q 2463 2763 2156 3003 
L 2156 2847 
L 1638 2847 
L 1638 959 
L 2288 1153 
Q 2275 878 2269 253 
Q 963 -134 250 -397 
z
M 3556 3353 
Q 4106 2922 4588 2466 
L 4006 1891 
Q 3500 2403 3019 2822 
L 3556 3353 
z
M 2719 209 
L 2500 1128 
Q 3650 1534 4938 2059 
Q 4956 1566 5000 1153 
Q 3894 728 2719 209 
z
" transform="scale(0.015625)"/>
     <path id="MicrosoftYaHei-Bold-503c" d="M 1638 3 
L 2100 3 
L 2100 3728 
L 3556 3728 
L 3556 4097 
L 1950 4097 
L 1950 4797 
L 3556 4797 
L 3556 5266 
L 4381 5266 
L 4381 4797 
L 6175 4797 
L 6175 4097 
L 4381 4097 
L 4381 3728 
L 5888 3728 
L 5888 3 
L 6325 3 
L 6325 -697 
L 1638 -697 
L 1638 3 
z
M 1125 5347 
L 1950 5128 
Q 1713 4378 1419 3666 
L 1419 -853 
L 625 -853 
L 625 2022 
Q 456 1716 275 1422 
Q 200 1916 69 2591 
Q 675 3803 1125 5347 
z
M 2888 1853 
L 5100 1853 
L 5100 2178 
L 2888 2178 
L 2888 1853 
z
M 2888 928 
L 5100 928 
L 5100 1253 
L 2888 1253 
L 2888 928 
z
M 5100 3103 
L 2888 3103 
L 2888 2778 
L 5100 2778 
L 5100 3103 
z
M 2888 3 
L 5100 3 
L 5100 328 
L 2888 328 
L 2888 3 
z
" transform="scale(0.015625)"/>
     <path id="MicrosoftYaHei-Bold-6539" d="M 3475 5347 
L 4294 5184 
Q 4206 4753 4106 4366 
L 6250 4366 
L 6250 3534 
L 5822 3534 
Q 5650 1950 4966 941 
Q 5528 356 6325 -34 
L 5775 -841 
Q 4969 -359 4400 259 
Q 3772 -378 2931 -847 
Q 2769 -559 2419 -41 
Q 3259 375 3853 969 
Q 3472 1563 3266 2259 
Q 3166 2103 3063 1966 
Q 2834 2322 2650 2559 
L 2650 2078 
L 1225 2078 
L 1225 491 
Q 1781 791 2550 1172 
Q 2569 897 2656 322 
Q 1069 -472 700 -822 
L 238 -209 
Q 406 -3 400 316 
L 400 2878 
L 1825 2878 
L 1825 4091 
L 250 4091 
L 250 4891 
L 2650 4891 
L 2650 2897 
Q 3234 3900 3475 5347 
z
M 4403 1666 
Q 4819 2391 5000 3534 
L 3856 3534 
Q 3813 3409 3766 3291 
Q 3959 2375 4403 1666 
z
" transform="scale(0.015625)"/>
     <path id="MicrosoftYaHei-Bold-53d8" d="M 231 4616 
L 2734 4616 
L 2525 5128 
L 3425 5353 
L 3741 4616 
L 6175 4616 
L 6175 3878 
L 4350 3878 
L 4350 2434 
L 3550 2434 
L 3550 3878 
L 2850 3878 
L 2850 2434 
L 2050 2434 
L 2050 3878 
L 231 3878 
L 231 4616 
z
M 1488 3778 
L 2019 3228 
Q 1338 2684 550 2184 
Q 325 2541 88 2828 
Q 844 3272 1488 3778 
z
M 4881 3728 
Q 5538 3328 6306 2778 
L 5769 2159 
Q 5119 2666 4406 3178 
L 4881 3728 
z
M 5300 2272 
L 5300 1566 
Q 4847 913 4144 422 
Q 5063 147 6288 84 
Q 6194 -84 5825 -822 
Q 4297 -663 3200 -116 
Q 2088 -634 544 -884 
Q 363 -497 94 -66 
Q 1359 84 2338 425 
Q 1741 894 1331 1534 
L 900 1534 
L 900 2272 
L 5300 2272 
z
M 3213 794 
Q 3834 1113 4300 1534 
L 2238 1534 
Q 2631 1100 3213 794 
z
" transform="scale(0.015625)"/>
     <path id="MicrosoftYaHei-Bold-3bc" d="M 2747 550 
Q 2528 -78 1938 -78 
Q 1647 -78 1484 97 
L 1469 97 
L 1469 -1366 
L 459 -1366 
L 459 3456 
L 1469 3456 
L 1469 1456 
Q 1469 728 2069 728 
Q 2713 728 2713 1613 
L 2713 3456 
L 3731 3456 
L 3728 1328 
Q 3728 1047 3795 906 
Q 3863 766 4041 766 
Q 4125 766 4222 797 
L 4222 28 
Q 3944 -50 3631 -50 
Q 2897 -50 2759 550 
L 2747 550 
z
" transform="scale(0.015625)"/>
     <path id="MicrosoftYaHei-Bold-31" d="M 2716 4947 
L 2716 0 
L 1700 0 
L 1700 3809 
Q 1513 3647 1188 3517 
Q 863 3388 591 3356 
L 591 4222 
Q 1447 4472 2072 4947 
L 2716 4947 
z
" transform="scale(0.015625)"/>
     <path id="MicrosoftYaHei-Bold-34" d="M 3184 4841 
L 3184 1766 
L 3869 1766 
L 3869 1031 
L 3184 1031 
L 3184 0 
L 2266 0 
L 2266 1031 
L 103 1031 
L 103 1772 
Q 775 2522 1362 3359 
Q 1950 4197 2250 4841 
L 3184 4841 
z
M 997 1766 
L 2266 1766 
L 2266 3541 
Q 2116 3259 1836 2859 
Q 1556 2459 997 1766 
z
" transform="scale(0.015625)"/>
     <path id="MicrosoftYaHei-Bold-2c" d="M 1419 841 
L 916 -859 
L 134 -859 
L 484 841 
L 1419 841 
z
" transform="scale(0.015625)"/>
     <path id="MicrosoftYaHei-Bold-3c3" d="M 4147 2725 
L 3375 2725 
Q 3753 2244 3753 1616 
Q 3753 838 3286 377 
Q 2819 -84 2031 -84 
Q 1219 -84 736 405 
Q 253 894 253 1719 
Q 253 2572 720 3014 
Q 1188 3456 2097 3456 
L 4147 3456 
L 4147 2725 
z
M 2188 2725 
Q 1284 2725 1284 1678 
Q 1284 1244 1478 969 
Q 1672 694 2025 694 
Q 2356 694 2540 966 
Q 2725 1238 2725 1722 
Q 2725 2288 2447 2725 
L 2188 2725 
z
" transform="scale(0.015625)"/>
     <path id="MicrosoftYaHei-Bold-32" d="M 1500 841 
L 3553 841 
L 3553 0 
L 334 0 
L 334 359 
Q 334 738 473 1050 
Q 613 1363 856 1633 
Q 1100 1903 1613 2266 
Q 2081 2616 2268 2886 
Q 2456 3156 2456 3459 
Q 2456 4113 1744 4113 
Q 1119 4113 550 3613 
L 550 4513 
Q 1184 4922 1975 4922 
Q 2700 4922 3122 4551 
Q 3544 4181 3544 3531 
Q 3544 3169 3422 2876 
Q 3300 2584 3069 2328 
Q 2838 2072 2328 1713 
Q 1838 1363 1669 1172 
Q 1500 981 1500 841 
z
" transform="scale(0.015625)"/>
     <path id="MicrosoftYaHei-Bold-29" d="M 59 -1100 
Q 1097 216 1097 1853 
Q 1097 3484 59 4841 
L 888 4841 
Q 1978 3544 1978 1853 
Q 1978 113 881 -1100 
L 59 -1100 
z
" transform="scale(0.015625)"/>
    </defs>
    <use xlink:href="#MicrosoftYaHei-Bold-8bad"/>
    <use xlink:href="#MicrosoftYaHei-Bold-7ec3" transform="translate(100 0)"/>
    <use xlink:href="#MicrosoftYaHei-Bold-9636" transform="translate(200 0)"/>
    <use xlink:href="#MicrosoftYaHei-Bold-6bb5" transform="translate(300 0)"/>
    <use xlink:href="#MicrosoftYaHei-Bold-5956" transform="translate(400 0)"/>
    <use xlink:href="#MicrosoftYaHei-Bold-52b1" transform="translate(500 0)"/>
    <use xlink:href="#MicrosoftYaHei-Bold-5206" transform="translate(600 0)"/>
    <use xlink:href="#MicrosoftYaHei-Bold-5e03" transform="translate(700 0)"/>
    <use xlink:href="#MicrosoftYaHei-Bold-3a" transform="translate(800 0)"/>
    <use xlink:href="#MicrosoftYaHei-Bold-20" transform="translate(828.564453 0)"/>
    <use xlink:href="#MicrosoftYaHei-Bold-68" transform="translate(858.349609 0)"/>
    <use xlink:href="#MicrosoftYaHei-Bold-70" transform="translate(922.900391 0)"/>
    <use xlink:href="#MicrosoftYaHei-Bold-6f" transform="translate(989.501953 0)"/>
    <use xlink:href="#MicrosoftYaHei-Bold-5f" transform="translate(1055.224609 0)"/>
    <use xlink:href="#MicrosoftYaHei-Bold-70" transform="translate(1100.048828 0)"/>
    <use xlink:href="#MicrosoftYaHei-Bold-61" transform="translate(1165.525391 0)"/>
    <use xlink:href="#MicrosoftYaHei-Bold-72" transform="translate(1223.289062 0)"/>
    <use xlink:href="#MicrosoftYaHei-Bold-61" transform="translate(1265.671875 0)"/>
    <use xlink:href="#MicrosoftYaHei-Bold-6d" transform="translate(1323.435547 0)"/>
    <use xlink:href="#MicrosoftYaHei-Bold-73" transform="translate(1421.628906 0)"/>
    <use xlink:href="#MicrosoftYaHei-Bold-20" transform="translate(1470.994141 0)"/>
    <use xlink:href="#MicrosoftYaHei-Bold-2d" transform="translate(1500.779297 0)"/>
    <use xlink:href="#MicrosoftYaHei-Bold-20" transform="translate(1544.431641 0)"/>
    <use xlink:href="#MicrosoftYaHei-Bold-50" transform="translate(1574.216797 0)"/>
    <use xlink:href="#MicrosoftYaHei-Bold-50" transform="translate(1639.939453 0)"/>
    <use xlink:href="#MicrosoftYaHei-Bold-4f" transform="translate(1705.662109 0)"/>
    <use xlink:href="#MicrosoftYaHei-Bold-20" transform="translate(1787.498047 0)"/>
    <use xlink:href="#MicrosoftYaHei-Bold-2d" transform="translate(1817.283203 0)"/>
    <use xlink:href="#MicrosoftYaHei-Bold-20" transform="translate(1860.935547 0)"/>
    <use xlink:href="#MicrosoftYaHei-Bold-521d" transform="translate(1890.720703 0)"/>
    <use xlink:href="#MicrosoftYaHei-Bold-59cb" transform="translate(1990.720703 0)"/>
    <use xlink:href="#MicrosoftYaHei-Bold-8bad" transform="translate(2090.720703 0)"/>
    <use xlink:href="#MicrosoftYaHei-Bold-7ec3" transform="translate(2190.720703 0)"/>
    <use xlink:href="#MicrosoftYaHei-Bold-20" transform="translate(2290.720703 0)"/>
    <use xlink:href="#MicrosoftYaHei-Bold-28" transform="translate(2320.505859 0)"/>
    <use xlink:href="#MicrosoftYaHei-Bold-6b63" transform="translate(2359.470703 0)"/>
    <use xlink:href="#MicrosoftYaHei-Bold-6001" transform="translate(2459.470703 0)"/>
    <use xlink:href="#MicrosoftYaHei-Bold-2d" transform="translate(2559.470703 0)"/>
    <use xlink:href="#MicrosoftYaHei-Bold-5927" transform="translate(2603.123047 0)"/>
    <use xlink:href="#MicrosoftYaHei-Bold-5e45" transform="translate(2703.123047 0)"/>
    <use xlink:href="#MicrosoftYaHei-Bold-5747" transform="translate(2803.123047 0)"/>
    <use xlink:href="#MicrosoftYaHei-Bold-503c" transform="translate(2903.123047 0)"/>
    <use xlink:href="#MicrosoftYaHei-Bold-6539" transform="translate(3003.123047 0)"/>
    <use xlink:href="#MicrosoftYaHei-Bold-53d8" transform="translate(3103.123047 0)"/>
    <use xlink:href="#MicrosoftYaHei-Bold-28" transform="translate(3203.123047 0)"/>
    <use xlink:href="#MicrosoftYaHei-Bold-3bc" transform="translate(3242.087891 0)"/>
    <use xlink:href="#MicrosoftYaHei-Bold-31" transform="translate(3309.177734 0)"/>
    <use xlink:href="#MicrosoftYaHei-Bold-34" transform="translate(3370.847656 0)"/>
    <use xlink:href="#MicrosoftYaHei-Bold-2c" transform="translate(3432.517578 0)"/>
    <use xlink:href="#MicrosoftYaHei-Bold-3c3" transform="translate(3461.082031 0)"/>
    <use xlink:href="#MicrosoftYaHei-Bold-32" transform="translate(3526.804688 0)"/>
    <use xlink:href="#MicrosoftYaHei-Bold-29" transform="translate(3588.474609 0)"/>
    <use xlink:href="#MicrosoftYaHei-Bold-29" transform="translate(3627.439453 0)"/>
   </g>
   <!-- (环境: 正态-大幅均值改变(μ14,σ2 | 复杂度: 0.02) -->
   <g style="fill: #262626" transform="translate(249.629063 40.9005) scale(0.16 -0.16)">
    <defs>
     <path id="MicrosoftYaHei-Bold-73af" d="M 5163 2916 
Q 5825 1797 6300 878 
L 5544 472 
Q 5081 1400 4550 2413 
L 4550 -834 
L 3706 -834 
L 3706 2013 
Q 3272 1200 2700 484 
Q 2525 641 2378 766 
Q 2347 503 2331 9 
L 175 -328 
L 81 522 
L 863 613 
L 863 2003 
L 213 2003 
L 213 2834 
L 863 2834 
L 863 4066 
L 175 4066 
L 175 4897 
L 2375 4897 
L 2375 4066 
L 1694 4066 
L 1694 2834 
L 2356 2834 
L 2356 2003 
L 1694 2003 
L 1694 728 
L 2306 825 
Q 2134 972 2000 1072 
Q 3194 2478 3675 4084 
L 2606 4084 
L 2606 4916 
L 6075 4916 
L 6075 4084 
L 4556 4084 
Q 4400 3559 4200 3066 
L 4550 3066 
L 4550 2591 
L 5163 2916 
z
" transform="scale(0.015625)"/>
     <path id="MicrosoftYaHei-Bold-5883" d="M 6044 4241 
L 5000 4241 
L 5563 4103 
Q 5450 3944 5322 3778 
L 6231 3778 
L 6231 3153 
L 2113 3153 
L 2113 3778 
L 2863 3778 
L 2638 4109 
L 3228 4241 
L 2256 4241 
L 2256 4866 
L 3591 4866 
Q 3506 5028 3400 5209 
L 4438 5353 
Q 4509 5125 4575 4866 
L 6044 4866 
L 6044 4241 
z
M 3853 3778 
L 4350 3778 
Q 4506 4009 4625 4241 
L 3503 4241 
Q 3681 4041 3853 3778 
z
M 263 -328 
L 100 603 
L 706 775 
L 706 2997 
L 175 2997 
L 175 3853 
L 706 3853 
L 706 5328 
L 1544 5328 
L 1544 3853 
L 1981 3853 
L 1981 2997 
L 1544 2997 
L 1544 1025 
L 2094 1197 
Q 2081 981 2081 759 
Q 2081 538 2094 309 
Q 1213 16 263 -328 
z
M 2244 2878 
L 5894 2878 
L 5894 603 
L 5038 603 
L 5038 141 
Q 5038 -91 5269 -91 
Q 5441 -91 5512 7 
Q 5584 106 5619 584 
Q 5956 428 6319 322 
Q 6284 66 6212 -223 
Q 6141 -513 5908 -652 
Q 5675 -791 5281 -791 
L 5006 -791 
Q 4238 -791 4238 -97 
L 4238 603 
L 3841 603 
Q 3647 -478 2331 -909 
Q 2125 -622 1763 -178 
Q 2781 88 2994 603 
L 2244 603 
L 2244 2878 
z
M 5094 2291 
L 3044 2291 
L 3044 2009 
L 5094 2009 
L 5094 2291 
z
M 5094 1191 
L 5094 1472 
L 3044 1472 
L 3044 1191 
L 5094 1191 
z
" transform="scale(0.015625)"/>
     <path id="MicrosoftYaHei-Bold-7c" d="M 1500 -1622 
L 691 -1622 
L 691 5288 
L 1500 5288 
L 1500 -1622 
z
" transform="scale(0.015625)"/>
     <path id="MicrosoftYaHei-Bold-590d" d="M 5738 1528 
L 5738 1003 
Q 5091 600 4322 259 
Q 5197 78 6306 -16 
Q 6000 -428 5819 -791 
Q 4391 -569 3278 -153 
Q 2125 -559 744 -853 
Q 550 -541 275 -178 
Q 1394 3 2341 256 
Q 1872 500 1478 788 
Q 1069 416 581 116 
Q 363 391 75 691 
Q 925 1194 1459 1816 
L 844 1816 
L 844 3406 
Q 600 3128 325 2872 
Q 238 3266 94 3759 
Q 831 4484 1188 5334 
L 2063 5334 
Q 1978 5144 1888 4959 
L 6181 4959 
L 6181 4334 
L 1538 4334 
Q 1434 4172 1325 4016 
L 5738 4016 
L 5738 1816 
L 2372 1816 
Q 2272 1666 2163 1528 
L 5738 1528 
z
M 4906 3478 
L 1675 3478 
L 1675 3141 
L 4906 3141 
L 4906 3478 
z
M 4906 2353 
L 4906 2691 
L 1675 2691 
L 1675 2353 
L 4906 2353 
z
M 3269 541 
Q 3897 753 4438 1009 
L 2231 1009 
Q 2669 744 3269 541 
z
" transform="scale(0.015625)"/>
     <path id="MicrosoftYaHei-Bold-6742" d="M 5500 4203 
Q 5919 4078 6338 3978 
Q 6269 3328 6188 2984 
Q 6063 2453 5400 2453 
L 4600 2453 
Q 3900 2453 3900 3153 
L 3900 3997 
L 2781 3997 
Q 2588 2603 613 2141 
Q 419 2466 106 2884 
Q 1644 3172 1869 3997 
L 456 3997 
L 456 4753 
L 1981 4753 
Q 2006 5053 2006 5328 
L 2894 5328 
Q 2894 5084 2869 4753 
L 4800 4753 
L 4800 3459 
Q 4800 3203 5056 3203 
L 5206 3203 
Q 5394 3203 5431 3466 
Q 5469 3816 5500 4203 
z
M 188 2072 
L 2800 2072 
L 2800 2666 
L 3706 2666 
L 3706 2072 
L 6175 2072 
L 6175 1309 
L 3706 1309 
L 3706 159 
Q 3706 -684 2900 -766 
Q 2613 -797 2000 -803 
Q 1906 -334 1794 72 
Q 2200 41 2456 41 
Q 2800 41 2800 403 
L 2800 1309 
L 188 1309 
L 188 2072 
z
M 4000 597 
L 4519 1172 
Q 5425 628 6263 34 
L 5725 -634 
Q 4956 -34 4000 597 
z
M 1675 1166 
L 2263 559 
Q 1406 -84 538 -634 
Q 288 -247 63 66 
Q 963 566 1675 1166 
z
" transform="scale(0.015625)"/>
     <path id="MicrosoftYaHei-Bold-5ea6" d="M 5656 1697 
L 5656 1022 
Q 5156 447 4656 97 
Q 5344 -34 6306 -66 
Q 6119 -428 5938 -822 
Q 4556 -653 3719 -353 
Q 2825 -653 1494 -872 
Q 1338 -522 1088 -178 
Q 2100 -128 2888 78 
Q 2369 453 1938 1022 
L 1538 1022 
L 1538 1697 
L 5656 1697 
z
M 1325 2478 
Q 1338 134 700 -884 
Q 356 -553 19 -297 
Q 550 697 525 2591 
L 525 4772 
L 3013 4772 
Q 2944 4953 2831 5209 
L 3869 5359 
Q 3981 5072 4094 4772 
L 6256 4772 
L 6256 4072 
L 1325 4072 
L 1325 2478 
z
M 1463 3684 
L 2144 3684 
L 2144 3947 
L 2944 3947 
L 2944 3684 
L 4494 3684 
L 4494 3947 
L 5294 3947 
L 5294 3684 
L 6144 3684 
L 6144 3009 
L 5294 3009 
L 5294 1991 
L 2144 1991 
L 2144 3009 
L 1463 3009 
L 1463 3684 
z
M 3756 378 
Q 4325 641 4725 1022 
L 2825 1022 
Q 3225 622 3756 378 
z
M 4494 2628 
L 4494 3009 
L 2944 3009 
L 2944 2628 
L 4494 2628 
z
" transform="scale(0.015625)"/>
     <path id="MicrosoftYaHei-Bold-30" d="M 244 2341 
Q 244 3597 706 4259 
Q 1169 4922 2044 4922 
Q 3713 4922 3713 2453 
Q 3713 1238 3259 577 
Q 2806 -84 1950 -84 
Q 244 -84 244 2341 
z
M 1266 2366 
Q 1266 691 1981 691 
Q 2684 691 2684 2416 
Q 2684 4147 2000 4147 
Q 1266 4147 1266 2366 
z
" transform="scale(0.015625)"/>
     <path id="MicrosoftYaHei-Bold-2e" d="M 313 453 
Q 313 688 491 838 
Q 669 988 916 988 
Q 1166 988 1337 834 
Q 1509 681 1509 453 
Q 1509 213 1337 64 
Q 1166 -84 903 -84 
Q 659 -84 486 69 
Q 313 222 313 453 
z
" transform="scale(0.015625)"/>
    </defs>
    <use xlink:href="#MicrosoftYaHei-Bold-28"/>
    <use xlink:href="#MicrosoftYaHei-Bold-73af" transform="translate(38.964844 0)"/>
    <use xlink:href="#MicrosoftYaHei-Bold-5883" transform="translate(138.964844 0)"/>
    <use xlink:href="#MicrosoftYaHei-Bold-3a" transform="translate(238.964844 0)"/>
    <use xlink:href="#MicrosoftYaHei-Bold-20" transform="translate(267.529297 0)"/>
    <use xlink:href="#MicrosoftYaHei-Bold-6b63" transform="translate(297.314453 0)"/>
    <use xlink:href="#MicrosoftYaHei-Bold-6001" transform="translate(397.314453 0)"/>
    <use xlink:href="#MicrosoftYaHei-Bold-2d" transform="translate(497.314453 0)"/>
    <use xlink:href="#MicrosoftYaHei-Bold-5927" transform="translate(540.966797 0)"/>
    <use xlink:href="#MicrosoftYaHei-Bold-5e45" transform="translate(640.966797 0)"/>
    <use xlink:href="#MicrosoftYaHei-Bold-5747" transform="translate(740.966797 0)"/>
    <use xlink:href="#MicrosoftYaHei-Bold-503c" transform="translate(840.966797 0)"/>
    <use xlink:href="#MicrosoftYaHei-Bold-6539" transform="translate(940.966797 0)"/>
    <use xlink:href="#MicrosoftYaHei-Bold-53d8" transform="translate(1040.966797 0)"/>
    <use xlink:href="#MicrosoftYaHei-Bold-28" transform="translate(1140.966797 0)"/>
    <use xlink:href="#MicrosoftYaHei-Bold-3bc" transform="translate(1179.931641 0)"/>
    <use xlink:href="#MicrosoftYaHei-Bold-31" transform="translate(1247.021484 0)"/>
    <use xlink:href="#MicrosoftYaHei-Bold-34" transform="translate(1308.691406 0)"/>
    <use xlink:href="#MicrosoftYaHei-Bold-2c" transform="translate(1370.361328 0)"/>
    <use xlink:href="#MicrosoftYaHei-Bold-3c3" transform="translate(1398.925781 0)"/>
    <use xlink:href="#MicrosoftYaHei-Bold-32" transform="translate(1464.648438 0)"/>
    <use xlink:href="#MicrosoftYaHei-Bold-20" transform="translate(1526.318359 0)"/>
    <use xlink:href="#MicrosoftYaHei-Bold-7c" transform="translate(1556.103516 0)"/>
    <use xlink:href="#MicrosoftYaHei-Bold-20" transform="translate(1590.234375 0)"/>
    <use xlink:href="#MicrosoftYaHei-Bold-590d" transform="translate(1620.019531 0)"/>
    <use xlink:href="#MicrosoftYaHei-Bold-6742" transform="translate(1720.019531 0)"/>
    <use xlink:href="#MicrosoftYaHei-Bold-5ea6" transform="translate(1820.019531 0)"/>
    <use xlink:href="#MicrosoftYaHei-Bold-3a" transform="translate(1920.019531 0)"/>
    <use xlink:href="#MicrosoftYaHei-Bold-20" transform="translate(1948.583984 0)"/>
    <use xlink:href="#MicrosoftYaHei-Bold-30" transform="translate(1978.369141 0)"/>
    <use xlink:href="#MicrosoftYaHei-Bold-2e" transform="translate(2040.039062 0)"/>
    <use xlink:href="#MicrosoftYaHei-Bold-30" transform="translate(2068.603516 0)"/>
    <use xlink:href="#MicrosoftYaHei-Bold-32" transform="translate(2130.273438 0)"/>
    <use xlink:href="#MicrosoftYaHei-Bold-29" transform="translate(2191.943359 0)"/>
   </g>
  </g>
 </g>
 <defs>
  <clipPath id="p72bf724ae1">
   <rect x="39.801563" y="82.790625" width="809.5" height="376.6825"/>
  </clipPath>
 </defs>
</svg>
