<?xml version="1.0" encoding="utf-8" standalone="no"?>
<!DOCTYPE svg PUBLIC "-//W3C//DTD SVG 1.1//EN"
  "http://www.w3.org/Graphics/SVG/1.1/DTD/svg11.dtd">
<svg xmlns:xlink="http://www.w3.org/1999/xlink" width="856.501562pt" height="497.537187pt" viewBox="0 0 856.501562 497.537187" xmlns="http://www.w3.org/2000/svg" version="1.1">
 <metadata>
  <rdf:RDF xmlns:dc="http://purl.org/dc/elements/1.1/" xmlns:cc="http://creativecommons.org/ns#" xmlns:rdf="http://www.w3.org/1999/02/22-rdf-syntax-ns#">
   <cc:Work>
    <dc:type rdf:resource="http://purl.org/dc/dcmitype/StillImage"/>
    <dc:date>2025-07-07T17:08:27.451896</dc:date>
    <dc:format>image/svg+xml</dc:format>
    <dc:creator>
     <cc:Agent>
      <dc:title>Matplotlib v3.10.3, https://matplotlib.org/</dc:title>
     </cc:Agent>
    </dc:creator>
   </cc:Work>
  </rdf:RDF>
 </metadata>
 <defs>
  <style type="text/css">*{stroke-linejoin: round; stroke-linecap: butt}</style>
 </defs>
 <g id="figure_1">
  <g id="patch_1">
   <path d="M 0 497.537187 
L 856.501562 497.537187 
L 856.501562 0 
L 0 0 
z
" style="fill: #ffffff"/>
  </g>
  <g id="axes_1">
   <g id="patch_2">
    <path d="M 39.801563 459.473125 
L 849.301563 459.473125 
L 849.301563 82.790625 
L 39.801563 82.790625 
z
" style="fill: #ffffff"/>
   </g>
   <g id="matplotlib.axis_1">
    <g id="xtick_1">
     <g id="line2d_1">
      <path d="M 140.989062 459.473125 
L 140.989062 82.790625 
" clip-path="url(#p1c8ad1a1ba)" style="fill: none; stroke-dasharray: 2.96,1.28; stroke-dashoffset: 0; stroke: #cccccc; stroke-opacity: 0.6; stroke-width: 0.8"/>
     </g>
     <g id="text_1">
      <!-- Stage 1 -->
      <g style="fill: #262626" transform="translate(123.753906 473.752812) scale(0.1 -0.1)">
       <defs>
        <path id="ArialMT-53" d="M 288 1472 
L 859 1522 
Q 900 1178 1048 958 
Q 1197 738 1509 602 
Q 1822 466 2213 466 
Q 2559 466 2825 569 
Q 3091 672 3220 851 
Q 3350 1031 3350 1244 
Q 3350 1459 3225 1620 
Q 3100 1781 2813 1891 
Q 2628 1963 1997 2114 
Q 1366 2266 1113 2400 
Q 784 2572 623 2826 
Q 463 3081 463 3397 
Q 463 3744 659 4045 
Q 856 4347 1234 4503 
Q 1613 4659 2075 4659 
Q 2584 4659 2973 4495 
Q 3363 4331 3572 4012 
Q 3781 3694 3797 3291 
L 3216 3247 
Q 3169 3681 2898 3903 
Q 2628 4125 2100 4125 
Q 1550 4125 1298 3923 
Q 1047 3722 1047 3438 
Q 1047 3191 1225 3031 
Q 1400 2872 2139 2705 
Q 2878 2538 3153 2413 
Q 3553 2228 3743 1945 
Q 3934 1663 3934 1294 
Q 3934 928 3725 604 
Q 3516 281 3123 101 
Q 2731 -78 2241 -78 
Q 1619 -78 1198 103 
Q 778 284 539 648 
Q 300 1013 288 1472 
z
" transform="scale(0.015625)"/>
        <path id="ArialMT-74" d="M 1650 503 
L 1731 6 
Q 1494 -44 1306 -44 
Q 1000 -44 831 53 
Q 663 150 594 308 
Q 525 466 525 972 
L 525 2881 
L 113 2881 
L 113 3319 
L 525 3319 
L 525 4141 
L 1084 4478 
L 1084 3319 
L 1650 3319 
L 1650 2881 
L 1084 2881 
L 1084 941 
Q 1084 700 1114 631 
Q 1144 563 1211 522 
Q 1278 481 1403 481 
Q 1497 481 1650 503 
z
" transform="scale(0.015625)"/>
        <path id="ArialMT-61" d="M 2588 409 
Q 2275 144 1986 34 
Q 1697 -75 1366 -75 
Q 819 -75 525 192 
Q 231 459 231 875 
Q 231 1119 342 1320 
Q 453 1522 633 1644 
Q 813 1766 1038 1828 
Q 1203 1872 1538 1913 
Q 2219 1994 2541 2106 
Q 2544 2222 2544 2253 
Q 2544 2597 2384 2738 
Q 2169 2928 1744 2928 
Q 1347 2928 1158 2789 
Q 969 2650 878 2297 
L 328 2372 
Q 403 2725 575 2942 
Q 747 3159 1072 3276 
Q 1397 3394 1825 3394 
Q 2250 3394 2515 3294 
Q 2781 3194 2906 3042 
Q 3031 2891 3081 2659 
Q 3109 2516 3109 2141 
L 3109 1391 
Q 3109 606 3145 398 
Q 3181 191 3288 0 
L 2700 0 
Q 2613 175 2588 409 
z
M 2541 1666 
Q 2234 1541 1622 1453 
Q 1275 1403 1131 1340 
Q 988 1278 909 1158 
Q 831 1038 831 891 
Q 831 666 1001 516 
Q 1172 366 1500 366 
Q 1825 366 2078 508 
Q 2331 650 2450 897 
Q 2541 1088 2541 1459 
L 2541 1666 
z
" transform="scale(0.015625)"/>
        <path id="ArialMT-67" d="M 319 -275 
L 866 -356 
Q 900 -609 1056 -725 
Q 1266 -881 1628 -881 
Q 2019 -881 2231 -725 
Q 2444 -569 2519 -288 
Q 2563 -116 2559 434 
Q 2191 0 1641 0 
Q 956 0 581 494 
Q 206 988 206 1678 
Q 206 2153 378 2554 
Q 550 2956 876 3175 
Q 1203 3394 1644 3394 
Q 2231 3394 2613 2919 
L 2613 3319 
L 3131 3319 
L 3131 450 
Q 3131 -325 2973 -648 
Q 2816 -972 2473 -1159 
Q 2131 -1347 1631 -1347 
Q 1038 -1347 672 -1080 
Q 306 -813 319 -275 
z
M 784 1719 
Q 784 1066 1043 766 
Q 1303 466 1694 466 
Q 2081 466 2343 764 
Q 2606 1063 2606 1700 
Q 2606 2309 2336 2618 
Q 2066 2928 1684 2928 
Q 1309 2928 1046 2623 
Q 784 2319 784 1719 
z
" transform="scale(0.015625)"/>
        <path id="ArialMT-65" d="M 2694 1069 
L 3275 997 
Q 3138 488 2766 206 
Q 2394 -75 1816 -75 
Q 1088 -75 661 373 
Q 234 822 234 1631 
Q 234 2469 665 2931 
Q 1097 3394 1784 3394 
Q 2450 3394 2872 2941 
Q 3294 2488 3294 1666 
Q 3294 1616 3291 1516 
L 816 1516 
Q 847 969 1125 678 
Q 1403 388 1819 388 
Q 2128 388 2347 550 
Q 2566 713 2694 1069 
z
M 847 1978 
L 2700 1978 
Q 2663 2397 2488 2606 
Q 2219 2931 1791 2931 
Q 1403 2931 1139 2672 
Q 875 2413 847 1978 
z
" transform="scale(0.015625)"/>
        <path id="ArialMT-20" transform="scale(0.015625)"/>
        <path id="ArialMT-31" d="M 2384 0 
L 1822 0 
L 1822 3584 
Q 1619 3391 1289 3197 
Q 959 3003 697 2906 
L 697 3450 
Q 1169 3672 1522 3987 
Q 1875 4303 2022 4600 
L 2384 4600 
L 2384 0 
z
" transform="scale(0.015625)"/>
       </defs>
       <use xlink:href="#ArialMT-53"/>
       <use xlink:href="#ArialMT-74" transform="translate(66.699219 0)"/>
       <use xlink:href="#ArialMT-61" transform="translate(94.482422 0)"/>
       <use xlink:href="#ArialMT-67" transform="translate(150.097656 0)"/>
       <use xlink:href="#ArialMT-65" transform="translate(205.712891 0)"/>
       <use xlink:href="#ArialMT-20" transform="translate(261.328125 0)"/>
       <use xlink:href="#ArialMT-31" transform="translate(289.111328 0)"/>
      </g>
     </g>
    </g>
    <g id="xtick_2">
     <g id="line2d_2">
      <path d="M 343.364062 459.473125 
L 343.364062 82.790625 
" clip-path="url(#p1c8ad1a1ba)" style="fill: none; stroke-dasharray: 2.96,1.28; stroke-dashoffset: 0; stroke: #cccccc; stroke-opacity: 0.6; stroke-width: 0.8"/>
     </g>
     <g id="text_2">
      <!-- Stage 2 -->
      <g style="fill: #262626" transform="translate(326.128906 473.752812) scale(0.1 -0.1)">
       <defs>
        <path id="ArialMT-32" d="M 3222 541 
L 3222 0 
L 194 0 
Q 188 203 259 391 
Q 375 700 629 1000 
Q 884 1300 1366 1694 
Q 2113 2306 2375 2664 
Q 2638 3022 2638 3341 
Q 2638 3675 2398 3904 
Q 2159 4134 1775 4134 
Q 1369 4134 1125 3890 
Q 881 3647 878 3216 
L 300 3275 
Q 359 3922 746 4261 
Q 1134 4600 1788 4600 
Q 2447 4600 2831 4234 
Q 3216 3869 3216 3328 
Q 3216 3053 3103 2787 
Q 2991 2522 2730 2228 
Q 2469 1934 1863 1422 
Q 1356 997 1212 845 
Q 1069 694 975 541 
L 3222 541 
z
" transform="scale(0.015625)"/>
       </defs>
       <use xlink:href="#ArialMT-53"/>
       <use xlink:href="#ArialMT-74" transform="translate(66.699219 0)"/>
       <use xlink:href="#ArialMT-61" transform="translate(94.482422 0)"/>
       <use xlink:href="#ArialMT-67" transform="translate(150.097656 0)"/>
       <use xlink:href="#ArialMT-65" transform="translate(205.712891 0)"/>
       <use xlink:href="#ArialMT-20" transform="translate(261.328125 0)"/>
       <use xlink:href="#ArialMT-32" transform="translate(289.111328 0)"/>
      </g>
     </g>
    </g>
    <g id="xtick_3">
     <g id="line2d_3">
      <path d="M 545.739063 459.473125 
L 545.739063 82.790625 
" clip-path="url(#p1c8ad1a1ba)" style="fill: none; stroke-dasharray: 2.96,1.28; stroke-dashoffset: 0; stroke: #cccccc; stroke-opacity: 0.6; stroke-width: 0.8"/>
     </g>
     <g id="text_3">
      <!-- Stage 3 -->
      <g style="fill: #262626" transform="translate(528.503906 473.752812) scale(0.1 -0.1)">
       <defs>
        <path id="ArialMT-33" d="M 269 1209 
L 831 1284 
Q 928 806 1161 595 
Q 1394 384 1728 384 
Q 2125 384 2398 659 
Q 2672 934 2672 1341 
Q 2672 1728 2419 1979 
Q 2166 2231 1775 2231 
Q 1616 2231 1378 2169 
L 1441 2663 
Q 1497 2656 1531 2656 
Q 1891 2656 2178 2843 
Q 2466 3031 2466 3422 
Q 2466 3731 2256 3934 
Q 2047 4138 1716 4138 
Q 1388 4138 1169 3931 
Q 950 3725 888 3313 
L 325 3413 
Q 428 3978 793 4289 
Q 1159 4600 1703 4600 
Q 2078 4600 2393 4439 
Q 2709 4278 2876 4000 
Q 3044 3722 3044 3409 
Q 3044 3113 2884 2869 
Q 2725 2625 2413 2481 
Q 2819 2388 3044 2092 
Q 3269 1797 3269 1353 
Q 3269 753 2831 336 
Q 2394 -81 1725 -81 
Q 1122 -81 723 278 
Q 325 638 269 1209 
z
" transform="scale(0.015625)"/>
       </defs>
       <use xlink:href="#ArialMT-53"/>
       <use xlink:href="#ArialMT-74" transform="translate(66.699219 0)"/>
       <use xlink:href="#ArialMT-61" transform="translate(94.482422 0)"/>
       <use xlink:href="#ArialMT-67" transform="translate(150.097656 0)"/>
       <use xlink:href="#ArialMT-65" transform="translate(205.712891 0)"/>
       <use xlink:href="#ArialMT-20" transform="translate(261.328125 0)"/>
       <use xlink:href="#ArialMT-33" transform="translate(289.111328 0)"/>
      </g>
     </g>
    </g>
    <g id="xtick_4">
     <g id="line2d_4">
      <path d="M 748.114063 459.473125 
L 748.114063 82.790625 
" clip-path="url(#p1c8ad1a1ba)" style="fill: none; stroke-dasharray: 2.96,1.28; stroke-dashoffset: 0; stroke: #cccccc; stroke-opacity: 0.6; stroke-width: 0.8"/>
     </g>
     <g id="text_4">
      <!-- Stage 4 -->
      <g style="fill: #262626" transform="translate(730.878906 473.752812) scale(0.1 -0.1)">
       <defs>
        <path id="ArialMT-34" d="M 2069 0 
L 2069 1097 
L 81 1097 
L 81 1613 
L 2172 4581 
L 2631 4581 
L 2631 1613 
L 3250 1613 
L 3250 1097 
L 2631 1097 
L 2631 0 
L 2069 0 
z
M 2069 1613 
L 2069 3678 
L 634 1613 
L 2069 1613 
z
" transform="scale(0.015625)"/>
       </defs>
       <use xlink:href="#ArialMT-53"/>
       <use xlink:href="#ArialMT-74" transform="translate(66.699219 0)"/>
       <use xlink:href="#ArialMT-61" transform="translate(94.482422 0)"/>
       <use xlink:href="#ArialMT-67" transform="translate(150.097656 0)"/>
       <use xlink:href="#ArialMT-65" transform="translate(205.712891 0)"/>
       <use xlink:href="#ArialMT-20" transform="translate(261.328125 0)"/>
       <use xlink:href="#ArialMT-34" transform="translate(289.111328 0)"/>
      </g>
     </g>
    </g>
    <g id="text_5">
     <!-- 训练阶段 -->
     <g style="fill: #262626" transform="translate(424.551562 487.85125) scale(0.1 -0.1)">
      <defs>
       <path id="MicrosoftYaHei-8bad" d="M 2581 5178 
L 3056 5178 
L 3056 2722 
Q 3056 1272 2831 466 
Q 2613 -297 1981 -872 
Q 1769 -678 1550 -534 
Q 2156 -66 2375 647 
Q 2581 1353 2581 2678 
L 2581 5178 
z
M 5506 5184 
L 5981 5184 
L 5981 -772 
L 5506 -772 
L 5506 5184 
z
M 4038 4953 
L 4513 4953 
L 4513 -403 
L 4038 -403 
L 4038 4953 
z
M 2025 1372 
Q 2025 1059 2069 784 
Q 1438 247 913 -284 
L 625 116 
Q 838 316 838 691 
L 838 2803 
L 81 2803 
L 81 3253 
L 1313 3253 
L 1313 709 
Q 1650 1009 2025 1372 
z
M 875 5191 
Q 1438 4628 1850 4166 
L 1413 3797 
Q 1031 4303 500 4872 
L 875 5191 
z
" transform="scale(0.015625)"/>
       <path id="MicrosoftYaHei-7ec3" d="M 2363 3403 
L 3059 3403 
Q 3203 3781 3344 4197 
L 2213 4197 
L 2213 4622 
L 3488 4622 
Q 3603 4975 3719 5353 
L 4219 5253 
Q 4109 4931 4000 4622 
L 6000 4622 
L 6000 4197 
L 3847 4197 
Q 3700 3791 3553 3403 
L 4763 3403 
L 4763 2016 
L 6025 2016 
L 6025 1591 
L 4763 1591 
L 4763 3 
Q 4763 -734 4056 -734 
Q 3788 -734 3369 -728 
Q 3331 -516 3263 -241 
Q 3638 -284 3931 -284 
Q 4300 -284 4300 109 
L 4300 1591 
L 2475 1591 
L 2475 1997 
Q 2688 2450 2897 2978 
L 2363 2978 
L 2363 3403 
z
M 888 1566 
Q 1531 1659 2219 1778 
Q 2181 1547 2163 1297 
Q 1600 1216 319 1003 
L 219 1472 
Q 669 1969 1175 2794 
Q 666 2763 219 2722 
L 100 3147 
Q 700 3966 1294 5366 
L 1750 5178 
Q 1088 3878 644 3184 
Q 1078 3194 1419 3203 
Q 1669 3638 1931 4147 
L 2388 3916 
Q 1656 2659 888 1566 
z
M 3013 2016 
L 4300 2016 
L 4300 2978 
L 3394 2978 
Q 3203 2484 3013 2016 
z
M 94 122 
Q 1031 291 2219 559 
Q 2200 316 2206 78 
Q 1231 -103 219 -353 
L 94 122 
z
M 3194 1272 
L 3638 1066 
Q 3194 203 2700 -547 
Q 2500 -397 2275 -278 
Q 2813 459 3194 1272 
z
M 5094 1041 
L 5500 1278 
Q 5963 578 6381 -122 
L 5950 -391 
Q 5544 366 5094 1041 
z
" transform="scale(0.015625)"/>
       <path id="MicrosoftYaHei-9636" d="M 2213 1816 
Q 2388 616 1644 484 
Q 1406 441 1031 478 
Q 981 734 913 991 
Q 1206 916 1475 941 
Q 1894 991 1744 1797 
Q 1669 2222 1188 2853 
Q 1419 3616 1688 4578 
L 863 4578 
L 863 -853 
L 400 -853 
L 400 5016 
L 2194 5016 
L 2194 4578 
Q 1906 3672 1663 2934 
Q 2144 2284 2213 1816 
z
M 3469 2834 
L 3469 1841 
Q 3469 78 2450 -897 
Q 2269 -734 2031 -572 
Q 2994 297 2994 1859 
L 2994 2834 
L 3469 2834 
z
M 4806 2834 
L 5281 2834 
L 5281 -822 
L 4806 -822 
L 4806 2834 
z
M 4475 5278 
L 4388 5078 
Q 5169 3653 6338 3134 
Q 6175 2947 5994 2697 
Q 4856 3384 4144 4634 
Q 3494 3472 2356 2609 
Q 2206 2828 2031 3003 
Q 3244 3809 3981 5278 
L 4475 5278 
z
" transform="scale(0.015625)"/>
       <path id="MicrosoftYaHei-6bb5" d="M 2844 1978 
L 2844 2422 
L 5763 2422 
L 5763 1953 
Q 5397 1069 4731 416 
Q 5378 -63 6338 -266 
Q 6144 -516 6019 -747 
Q 5031 -456 4359 88 
Q 3638 -488 2631 -853 
Q 2450 -559 2331 -422 
Q 3313 -75 3997 428 
Q 3400 1069 3138 1978 
L 2844 1978 
z
M 88 722 
Q 325 744 569 769 
L 569 4897 
Q 1931 4972 2719 5116 
L 2888 4653 
Q 2175 4559 1031 4484 
L 1031 3616 
L 2613 3616 
L 2613 3203 
L 1031 3203 
L 1031 2259 
L 2594 2259 
L 2594 1847 
L 1031 1847 
L 1031 819 
Q 1891 916 2838 1041 
Q 2831 916 2831 591 
Q 1894 484 1031 366 
L 1031 -816 
L 569 -816 
L 569 303 
Q 381 275 200 247 
L 88 722 
z
M 5738 3209 
Q 5981 3209 6306 3228 
L 6219 2759 
Q 5906 2747 5625 2747 
Q 4988 2747 4988 3459 
L 4988 4553 
L 3831 4553 
L 3831 4216 
Q 3831 3053 2938 2522 
Q 2781 2709 2600 2909 
Q 3363 3272 3363 4241 
L 3363 4997 
L 5456 4997 
L 5456 3497 
Q 5456 3209 5738 3209 
z
M 5256 1978 
L 3613 1978 
Q 3863 1241 4363 731 
Q 4956 1275 5256 1978 
z
" transform="scale(0.015625)"/>
      </defs>
      <use xlink:href="#MicrosoftYaHei-8bad"/>
      <use xlink:href="#MicrosoftYaHei-7ec3" transform="translate(100 0)"/>
      <use xlink:href="#MicrosoftYaHei-9636" transform="translate(200 0)"/>
      <use xlink:href="#MicrosoftYaHei-6bb5" transform="translate(300 0)"/>
     </g>
    </g>
   </g>
   <g id="matplotlib.axis_2">
    <g id="ytick_1">
     <g id="line2d_5">
      <path d="M 39.801563 437.432512 
L 849.301563 437.432512 
" clip-path="url(#p1c8ad1a1ba)" style="fill: none; stroke-dasharray: 2.96,1.28; stroke-dashoffset: 0; stroke: #cccccc; stroke-opacity: 0.6; stroke-width: 0.8"/>
     </g>
     <g id="text_6">
      <!-- 10 -->
      <g style="fill: #262626" transform="translate(21.679688 441.011418) scale(0.1 -0.1)">
       <defs>
        <path id="ArialMT-30" d="M 266 2259 
Q 266 3072 433 3567 
Q 600 4063 929 4331 
Q 1259 4600 1759 4600 
Q 2128 4600 2406 4451 
Q 2684 4303 2865 4023 
Q 3047 3744 3150 3342 
Q 3253 2941 3253 2259 
Q 3253 1453 3087 958 
Q 2922 463 2592 192 
Q 2263 -78 1759 -78 
Q 1097 -78 719 397 
Q 266 969 266 2259 
z
M 844 2259 
Q 844 1131 1108 757 
Q 1372 384 1759 384 
Q 2147 384 2411 759 
Q 2675 1134 2675 2259 
Q 2675 3391 2411 3762 
Q 2147 4134 1753 4134 
Q 1366 4134 1134 3806 
Q 844 3388 844 2259 
z
" transform="scale(0.015625)"/>
       </defs>
       <use xlink:href="#ArialMT-31"/>
       <use xlink:href="#ArialMT-30" transform="translate(55.615234 0)"/>
      </g>
     </g>
    </g>
    <g id="ytick_2">
     <g id="line2d_6">
      <path d="M 39.801563 361.32238 
L 849.301563 361.32238 
" clip-path="url(#p1c8ad1a1ba)" style="fill: none; stroke-dasharray: 2.96,1.28; stroke-dashoffset: 0; stroke: #cccccc; stroke-opacity: 0.6; stroke-width: 0.8"/>
     </g>
     <g id="text_7">
      <!-- 20 -->
      <g style="fill: #262626" transform="translate(21.679688 364.901287) scale(0.1 -0.1)">
       <use xlink:href="#ArialMT-32"/>
       <use xlink:href="#ArialMT-30" transform="translate(55.615234 0)"/>
      </g>
     </g>
    </g>
    <g id="ytick_3">
     <g id="line2d_7">
      <path d="M 39.801563 285.212249 
L 849.301563 285.212249 
" clip-path="url(#p1c8ad1a1ba)" style="fill: none; stroke-dasharray: 2.96,1.28; stroke-dashoffset: 0; stroke: #cccccc; stroke-opacity: 0.6; stroke-width: 0.8"/>
     </g>
     <g id="text_8">
      <!-- 30 -->
      <g style="fill: #262626" transform="translate(21.679688 288.791156) scale(0.1 -0.1)">
       <use xlink:href="#ArialMT-33"/>
       <use xlink:href="#ArialMT-30" transform="translate(55.615234 0)"/>
      </g>
     </g>
    </g>
    <g id="ytick_4">
     <g id="line2d_8">
      <path d="M 39.801563 209.102118 
L 849.301563 209.102118 
" clip-path="url(#p1c8ad1a1ba)" style="fill: none; stroke-dasharray: 2.96,1.28; stroke-dashoffset: 0; stroke: #cccccc; stroke-opacity: 0.6; stroke-width: 0.8"/>
     </g>
     <g id="text_9">
      <!-- 40 -->
      <g style="fill: #262626" transform="translate(21.679688 212.681024) scale(0.1 -0.1)">
       <use xlink:href="#ArialMT-34"/>
       <use xlink:href="#ArialMT-30" transform="translate(55.615234 0)"/>
      </g>
     </g>
    </g>
    <g id="ytick_5">
     <g id="line2d_9">
      <path d="M 39.801563 132.991987 
L 849.301563 132.991987 
" clip-path="url(#p1c8ad1a1ba)" style="fill: none; stroke-dasharray: 2.96,1.28; stroke-dashoffset: 0; stroke: #cccccc; stroke-opacity: 0.6; stroke-width: 0.8"/>
     </g>
     <g id="text_10">
      <!-- 50 -->
      <g style="fill: #262626" transform="translate(21.679688 136.570893) scale(0.1 -0.1)">
       <defs>
        <path id="ArialMT-35" d="M 266 1200 
L 856 1250 
Q 922 819 1161 601 
Q 1400 384 1738 384 
Q 2144 384 2425 690 
Q 2706 997 2706 1503 
Q 2706 1984 2436 2262 
Q 2166 2541 1728 2541 
Q 1456 2541 1237 2417 
Q 1019 2294 894 2097 
L 366 2166 
L 809 4519 
L 3088 4519 
L 3088 3981 
L 1259 3981 
L 1013 2750 
Q 1425 3038 1878 3038 
Q 2478 3038 2890 2622 
Q 3303 2206 3303 1553 
Q 3303 931 2941 478 
Q 2500 -78 1738 -78 
Q 1113 -78 717 272 
Q 322 622 266 1200 
z
" transform="scale(0.015625)"/>
       </defs>
       <use xlink:href="#ArialMT-35"/>
       <use xlink:href="#ArialMT-30" transform="translate(55.615234 0)"/>
      </g>
     </g>
    </g>
    <g id="text_11">
     <!-- 奖励 -->
     <g style="fill: #262626" transform="translate(15.19375 281.131875) rotate(-90) scale(0.1 -0.1)">
      <defs>
       <path id="MicrosoftYaHei-5956" d="M 6306 -284 
Q 6119 -528 5944 -803 
Q 4031 -491 3197 859 
Q 2550 -472 406 -878 
Q 281 -666 100 -403 
Q 2175 -84 2709 972 
L 225 972 
L 225 1403 
L 2900 1403 
Q 2969 1600 3019 1822 
L 3531 1822 
Q 3484 1603 3422 1403 
L 6200 1403 
L 6200 972 
L 3647 972 
Q 4472 -169 6306 -284 
z
M 2388 3553 
Q 3181 4228 3588 5334 
L 4056 5241 
Q 3941 4938 3803 4666 
L 5988 4666 
L 5988 4278 
Q 5181 2359 2788 1853 
Q 2706 2072 2531 2316 
Q 3434 2463 4094 2831 
Q 3688 3222 3288 3516 
L 3588 3822 
Q 4056 3481 4491 3084 
Q 5116 3550 5463 4266 
L 3588 4266 
Q 3228 3666 2763 3234 
Q 2588 3428 2388 3553 
z
M 1744 5291 
L 2231 5291 
L 2231 1728 
L 1744 1728 
L 1744 2925 
Q 1231 2694 256 2253 
L 94 2747 
Q 991 3088 1744 3425 
L 1744 5291 
z
M 281 4584 
L 588 4891 
Q 1088 4503 1513 4072 
L 1169 3741 
Q 700 4253 281 4584 
z
" transform="scale(0.015625)"/>
       <path id="MicrosoftYaHei-52b1" d="M 3756 3997 
L 4303 3997 
Q 4316 4669 4319 5297 
L 4775 5297 
Q 4763 4559 4750 3997 
L 6031 3997 
Q 5963 1203 5925 278 
Q 5888 -678 5169 -678 
Q 4969 -678 4444 -666 
Q 4406 -378 4350 -134 
Q 4856 -178 5081 -178 
Q 5425 -178 5456 272 
Q 5513 1266 5563 3528 
L 4741 3528 
Q 4731 3028 4725 2716 
Q 4688 334 3600 -859 
Q 3469 -666 3281 -447 
Q 4238 634 4275 2634 
Q 4288 3091 4297 3528 
L 3756 3528 
L 3756 3997 
z
M 1225 3728 
L 3563 3728 
L 3563 3291 
L 2194 3291 
Q 2184 2784 2172 2372 
L 3375 2372 
Q 3319 766 3275 91 
Q 3206 -628 2581 -628 
Q 2406 -628 2050 -622 
Q 2013 -416 1956 -159 
Q 2306 -197 2475 -197 
Q 2819 -203 2850 216 
Q 2894 797 2931 1959 
L 2153 1959 
Q 2125 1378 2081 1034 
Q 1969 -3 1300 -828 
Q 1175 -659 981 -453 
Q 1531 209 1644 1097 
Q 1728 1641 1756 3291 
L 1225 3291 
L 1225 3728 
z
M 1044 4472 
L 1044 2166 
Q 1044 147 475 -809 
Q 306 -647 94 -478 
Q 588 341 588 2184 
L 588 4909 
L 3663 4909 
L 3663 4472 
L 1044 4472 
z
" transform="scale(0.015625)"/>
      </defs>
      <use xlink:href="#MicrosoftYaHei-5956"/>
      <use xlink:href="#MicrosoftYaHei-52b1" transform="translate(100 0)"/>
     </g>
    </g>
   </g>
   <g id="FillBetweenPolyCollection_1">
    <defs>
     <path id="mc05692b664" d="M 141.003109 -55.185994 
L 140.975016 -55.185994 
L 140.968032 -58.64497 
L 140.958833 -62.103947 
L 140.947295 -65.562923 
L 140.933496 -69.021899 
L 140.917713 -72.480875 
L 140.90035 -75.939851 
L 140.881804 -79.398827 
L 140.862285 -82.857803 
L 140.841655 -86.316779 
L 140.819358 -89.775756 
L 140.794482 -93.234732 
L 140.765986 -96.693708 
L 140.733051 -100.152684 
L 140.695473 -103.61166 
L 140.65398 -107.070636 
L 140.610358 -110.529612 
L 140.56729 -113.988588 
L 140.52792 -117.447565 
L 140.495198 -120.906541 
L 140.471172 -124.365517 
L 140.456406 -127.824493 
L 140.449711 -131.283469 
L 140.448308 -134.742445 
L 140.448389 -138.201421 
L 140.445973 -141.660397 
L 140.437798 -145.119374 
L 140.421998 -148.57835 
L 140.398366 -152.037326 
L 140.36811 -155.496302 
L 140.333206 -158.955278 
L 140.29554 -162.414254 
L 140.256116 -165.87323 
L 140.214584 -169.332206 
L 140.169212 -172.791183 
L 140.117313 -176.250159 
L 140.055997 -179.709135 
L 139.98303 -183.168111 
L 139.897584 -186.627087 
L 139.800673 -190.086063 
L 139.695192 -193.545039 
L 139.585539 -197.004015 
L 139.476907 -200.462992 
L 139.374408 -203.921968 
L 139.282227 -207.380944 
L 139.202978 -210.83992 
L 139.137397 -214.298896 
L 139.084437 -217.757872 
L 139.041691 -221.216848 
L 139.006019 -224.675824 
L 138.974203 -228.134801 
L 138.943469 -231.593777 
L 138.911759 -235.052753 
L 138.877754 -238.511729 
L 138.840704 -241.970705 
L 138.800169 -245.429681 
L 138.755759 -248.888657 
L 138.70691 -252.347633 
L 138.652649 -255.80661 
L 138.591261 -259.265586 
L 138.519773 -262.724562 
L 138.433264 -266.183538 
L 138.324119 -269.642514 
L 138.181477 -273.10149 
L 137.991143 -276.560466 
L 137.736187 -280.019442 
L 137.398267 -283.478419 
L 136.959517 -286.937395 
L 136.404631 -290.396371 
L 135.722764 -293.855347 
L 134.908934 -297.314323 
L 133.964857 -300.773299 
L 132.899404 -304.232275 
L 131.729025 -307.691251 
L 130.478471 -311.150228 
L 129.18189 -314.609204 
L 127.884021 -318.06818 
L 126.640752 -321.527156 
L 125.518163 -324.986132 
L 124.589193 -328.445108 
L 123.927598 -331.904084 
L 123.59957 -335.36306 
L 123.654223 -338.822037 
L 124.11479 -342.281013 
L 124.972563 -345.739989 
L 126.185227 -349.198965 
L 127.680381 -352.657941 
L 129.363845 -356.116917 
L 131.131264 -359.575893 
L 132.880769 -363.034869 
L 134.524318 -366.493846 
L 135.995797 -369.952822 
L 137.254846 -373.411798 
L 138.286404 -376.870774 
L 139.096829 -380.32975 
L 139.707969 -383.788726 
L 140.150662 -387.247702 
L 140.458867 -390.706678 
L 140.665179 -394.165655 
L 140.798004 -397.624631 
L 141.180121 -397.624631 
L 141.180121 -397.624631 
L 141.312946 -394.165655 
L 141.519258 -390.706678 
L 141.827463 -387.247702 
L 142.270156 -383.788726 
L 142.881296 -380.32975 
L 143.691721 -376.870774 
L 144.723279 -373.411798 
L 145.982328 -369.952822 
L 147.453807 -366.493846 
L 149.097356 -363.034869 
L 150.846861 -359.575893 
L 152.61428 -356.116917 
L 154.297744 -352.657941 
L 155.792898 -349.198965 
L 157.005562 -345.739989 
L 157.863335 -342.281013 
L 158.323902 -338.822037 
L 158.378555 -335.36306 
L 158.050527 -331.904084 
L 157.388932 -328.445108 
L 156.459962 -324.986132 
L 155.337373 -321.527156 
L 154.094104 -318.06818 
L 152.796235 -314.609204 
L 151.499654 -311.150228 
L 150.2491 -307.691251 
L 149.078721 -304.232275 
L 148.013268 -300.773299 
L 147.069191 -297.314323 
L 146.255361 -293.855347 
L 145.573494 -290.396371 
L 145.018608 -286.937395 
L 144.579858 -283.478419 
L 144.241938 -280.019442 
L 143.986982 -276.560466 
L 143.796648 -273.10149 
L 143.654006 -269.642514 
L 143.544861 -266.183538 
L 143.458352 -262.724562 
L 143.386864 -259.265586 
L 143.325476 -255.80661 
L 143.271215 -252.347633 
L 143.222366 -248.888657 
L 143.177956 -245.429681 
L 143.137421 -241.970705 
L 143.100371 -238.511729 
L 143.066366 -235.052753 
L 143.034656 -231.593777 
L 143.003922 -228.134801 
L 142.972106 -224.675824 
L 142.936434 -221.216848 
L 142.893688 -217.757872 
L 142.840728 -214.298896 
L 142.775147 -210.83992 
L 142.695898 -207.380944 
L 142.603717 -203.921968 
L 142.501218 -200.462992 
L 142.392586 -197.004015 
L 142.282933 -193.545039 
L 142.177452 -190.086063 
L 142.080541 -186.627087 
L 141.995095 -183.168111 
L 141.922128 -179.709135 
L 141.860812 -176.250159 
L 141.808913 -172.791183 
L 141.763541 -169.332206 
L 141.722009 -165.87323 
L 141.682585 -162.414254 
L 141.644919 -158.955278 
L 141.610015 -155.496302 
L 141.579759 -152.037326 
L 141.556127 -148.57835 
L 141.540327 -145.119374 
L 141.532152 -141.660397 
L 141.529736 -138.201421 
L 141.529817 -134.742445 
L 141.528414 -131.283469 
L 141.521719 -127.824493 
L 141.506953 -124.365517 
L 141.482927 -120.906541 
L 141.450205 -117.447565 
L 141.410835 -113.988588 
L 141.367767 -110.529612 
L 141.324145 -107.070636 
L 141.282652 -103.61166 
L 141.245074 -100.152684 
L 141.212139 -96.693708 
L 141.183643 -93.234732 
L 141.158767 -89.775756 
L 141.13647 -86.316779 
L 141.11584 -82.857803 
L 141.096321 -79.398827 
L 141.077775 -75.939851 
L 141.060412 -72.480875 
L 141.044629 -69.021899 
L 141.03083 -65.562923 
L 141.019292 -62.103947 
L 141.010093 -58.64497 
L 141.003109 -55.185994 
z
" style="stroke: #3f3f3f; stroke-width: 1.25"/>
    </defs>
    <g clip-path="url(#p1c8ad1a1ba)">
     <use xlink:href="#mc05692b664" x="0" y="497.537187" style="fill: #3274a1; stroke: #3f3f3f; stroke-width: 1.25"/>
    </g>
   </g>
   <g id="FillBetweenPolyCollection_2">
    <defs>
     <path id="m63e2fd9efe" d="M 343.659997 -306.578807 
L 343.068128 -306.578807 
L 342.952477 -307.242445 
L 342.807908 -307.906082 
L 342.633728 -308.569719 
L 342.431654 -309.233357 
L 342.206111 -309.896994 
L 341.964101 -310.560631 
L 341.714512 -311.224269 
L 341.466885 -311.887906 
L 341.229759 -312.551544 
L 341.008896 -313.215181 
L 340.805757 -313.878818 
L 340.616642 -314.542456 
L 340.432842 -315.206093 
L 340.24193 -315.86973 
L 340.03009 -316.533368 
L 339.785078 -317.197005 
L 339.499199 -317.860643 
L 339.171556 -318.52428 
L 338.808924 -319.187917 
L 338.424825 -319.851555 
L 338.036812 -320.515192 
L 337.662387 -321.178829 
L 337.314426 -321.842467 
L 336.997193 -322.506104 
L 336.70403 -323.169742 
L 336.417508 -323.833379 
L 336.112291 -324.497016 
L 335.760282 -325.160654 
L 335.336997 -325.824291 
L 334.827635 -326.487928 
L 334.231234 -327.151566 
L 333.561601 -327.815203 
L 332.844364 -328.478841 
L 332.11049 -329.142478 
L 331.38753 -329.806115 
L 330.690649 -330.469753 
L 330.015834 -331.13339 
L 329.337395 -331.797027 
L 328.611044 -332.460665 
L 327.782549 -333.124302 
L 326.800508 -333.78794 
L 325.630517 -334.451577 
L 324.267295 -335.115214 
L 322.741403 -335.778852 
L 321.118146 -336.442489 
L 319.487931 -337.106126 
L 317.949441 -337.769764 
L 316.588923 -338.433401 
L 315.460239 -339.097039 
L 314.570643 -339.760676 
L 313.876275 -340.424313 
L 313.289387 -341.087951 
L 312.696574 -341.751588 
L 311.984557 -342.415225 
L 311.067919 -343.078863 
L 309.912356 -343.7425 
L 308.547612 -344.406138 
L 307.066422 -345.069775 
L 305.608899 -345.733412 
L 304.335279 -346.39705 
L 303.392819 -347.060687 
L 302.884258 -347.724324 
L 302.845152 -348.387962 
L 303.235478 -349.051599 
L 303.947651 -349.715237 
L 304.829304 -350.378874 
L 305.715676 -351.042511 
L 306.464205 -351.706149 
L 306.983423 -352.369786 
L 307.24964 -353.033423 
L 307.307818 -353.697061 
L 307.256833 -354.360698 
L 307.222926 -355.024336 
L 307.327877 -355.687973 
L 307.659527 -356.35161 
L 308.251509 -357.015248 
L 309.076738 -357.678885 
L 310.055826 -358.342522 
L 311.078032 -359.00616 
L 312.029516 -359.669797 
L 312.822064 -360.333435 
L 313.415615 -360.997072 
L 313.829527 -361.660709 
L 314.140342 -362.324347 
L 314.466945 -362.987984 
L 314.946796 -363.651621 
L 315.708732 -364.315259 
L 316.848215 -364.978896 
L 318.40998 -365.642534 
L 320.381021 -366.306171 
L 322.694424 -366.969808 
L 325.242203 -367.633446 
L 327.893686 -368.297083 
L 330.515351 -368.96072 
L 332.988309 -369.624358 
L 335.220778 -370.287995 
L 337.154331 -370.951633 
L 338.764129 -371.61527 
L 340.054468 -372.278907 
L 346.673657 -372.278907 
L 346.673657 -372.278907 
L 347.963996 -371.61527 
L 349.573794 -370.951633 
L 351.507347 -370.287995 
L 353.739816 -369.624358 
L 356.212774 -368.96072 
L 358.834439 -368.297083 
L 361.485922 -367.633446 
L 364.033701 -366.969808 
L 366.347104 -366.306171 
L 368.318145 -365.642534 
L 369.87991 -364.978896 
L 371.019393 -364.315259 
L 371.781329 -363.651621 
L 372.26118 -362.987984 
L 372.587783 -362.324347 
L 372.898598 -361.660709 
L 373.31251 -360.997072 
L 373.906061 -360.333435 
L 374.698609 -359.669797 
L 375.650093 -359.00616 
L 376.672299 -358.342522 
L 377.651387 -357.678885 
L 378.476616 -357.015248 
L 379.068598 -356.35161 
L 379.400248 -355.687973 
L 379.505199 -355.024336 
L 379.471292 -354.360698 
L 379.420307 -353.697061 
L 379.478485 -353.033423 
L 379.744702 -352.369786 
L 380.26392 -351.706149 
L 381.012449 -351.042511 
L 381.898821 -350.378874 
L 382.780474 -349.715237 
L 383.492647 -349.051599 
L 383.882973 -348.387962 
L 383.843867 -347.724324 
L 383.335306 -347.060687 
L 382.392846 -346.39705 
L 381.119226 -345.733412 
L 379.661703 -345.069775 
L 378.180513 -344.406138 
L 376.815769 -343.7425 
L 375.660206 -343.078863 
L 374.743568 -342.415225 
L 374.031551 -341.751588 
L 373.438738 -341.087951 
L 372.85185 -340.424313 
L 372.157482 -339.760676 
L 371.267886 -339.097039 
L 370.139202 -338.433401 
L 368.778684 -337.769764 
L 367.240194 -337.106126 
L 365.609979 -336.442489 
L 363.986722 -335.778852 
L 362.46083 -335.115214 
L 361.097608 -334.451577 
L 359.927617 -333.78794 
L 358.945576 -333.124302 
L 358.117081 -332.460665 
L 357.39073 -331.797027 
L 356.712291 -331.13339 
L 356.037476 -330.469753 
L 355.340595 -329.806115 
L 354.617635 -329.142478 
L 353.883761 -328.478841 
L 353.166524 -327.815203 
L 352.496891 -327.151566 
L 351.90049 -326.487928 
L 351.391128 -325.824291 
L 350.967843 -325.160654 
L 350.615834 -324.497016 
L 350.310617 -323.833379 
L 350.024095 -323.169742 
L 349.730932 -322.506104 
L 349.413699 -321.842467 
L 349.065738 -321.178829 
L 348.691313 -320.515192 
L 348.3033 -319.851555 
L 347.919201 -319.187917 
L 347.556569 -318.52428 
L 347.228926 -317.860643 
L 346.943047 -317.197005 
L 346.698035 -316.533368 
L 346.486195 -315.86973 
L 346.295283 -315.206093 
L 346.111483 -314.542456 
L 345.922368 -313.878818 
L 345.719229 -313.215181 
L 345.498366 -312.551544 
L 345.26124 -311.887906 
L 345.013613 -311.224269 
L 344.764024 -310.560631 
L 344.522014 -309.896994 
L 344.296471 -309.233357 
L 344.094397 -308.569719 
L 343.920217 -307.906082 
L 343.775648 -307.242445 
L 343.659997 -306.578807 
z
" style="stroke: #3f3f3f; stroke-width: 1.25"/>
    </defs>
    <g clip-path="url(#p1c8ad1a1ba)">
     <use xlink:href="#m63e2fd9efe" x="0" y="497.537187" style="fill: #3274a1; stroke: #3f3f3f; stroke-width: 1.25"/>
    </g>
   </g>
   <g id="FillBetweenPolyCollection_3">
    <defs>
     <path id="mefe6d8d5a9" d="M 546.039447 -316.606633 
L 545.438678 -316.606633 
L 545.315736 -317.152254 
L 545.161358 -317.697876 
L 544.975597 -318.243498 
L 544.761912 -318.78912 
L 544.527695 -319.334742 
L 544.284192 -319.880364 
L 544.045683 -320.425986 
L 543.827859 -320.971607 
L 543.645569 -321.517229 
L 543.510242 -322.062851 
L 543.427475 -322.608473 
L 543.395269 -323.154095 
L 543.40337 -323.699717 
L 543.433965 -324.245339 
L 543.463782 -324.79096 
L 543.467347 -325.336582 
L 543.420946 -325.882204 
L 543.306674 -326.427826 
L 543.115859 -326.973448 
L 542.851212 -327.51907 
L 542.52716 -328.064692 
L 542.168079 -328.610313 
L 541.804436 -329.155935 
L 541.467263 -329.701557 
L 541.181715 -330.247179 
L 540.960753 -330.792801 
L 540.800148 -331.338423 
L 540.6759 -331.884045 
L 540.544927 -332.429666 
L 540.349402 -332.975288 
L 540.024544 -333.52091 
L 539.50904 -334.066532 
L 538.756706 -334.612154 
L 537.74751 -335.157776 
L 536.49586 -335.703398 
L 535.054133 -336.249019 
L 533.509938 -336.794641 
L 531.976491 -337.340263 
L 530.576739 -337.885885 
L 529.423249 -338.431507 
L 528.597015 -338.977129 
L 528.129084 -339.522751 
L 527.988794 -340.068372 
L 528.081607 -340.613994 
L 528.257999 -341.159616 
L 528.332959 -341.705238 
L 528.113748 -342.25086 
L 527.431932 -342.796482 
L 526.174634 -343.342104 
L 524.309631 -343.887725 
L 521.899336 -344.433347 
L 519.100049 -344.978969 
L 516.144922 -345.524591 
L 513.311798 -346.070213 
L 510.87997 -346.615835 
L 509.082478 -347.161457 
L 508.06214 -347.707078 
L 507.839649 -348.2527 
L 508.300472 -348.798322 
L 509.204307 -349.343944 
L 510.216931 -349.889566 
L 510.96028 -350.435188 
L 511.073285 -350.980809 
L 510.273848 -351.526431 
L 508.411769 -352.072053 
L 505.503356 -352.617675 
L 501.740859 -353.163297 
L 497.473491 -353.708919 
L 493.161284 -354.254541 
L 489.307789 -354.800162 
L 486.381901 -355.345784 
L 484.74182 -355.891406 
L 484.574642 -356.437028 
L 485.862858 -356.98265 
L 488.384351 -357.528272 
L 491.746362 -358.073894 
L 495.447596 -358.619515 
L 498.95762 -359.165137 
L 501.799936 -359.710759 
L 503.624989 -360.256381 
L 504.261612 -360.802003 
L 503.739408 -361.347625 
L 502.279439 -361.893247 
L 500.255606 -362.438868 
L 498.133608 -362.98449 
L 496.397756 -363.530112 
L 495.477761 -364.075734 
L 495.687422 -364.621356 
L 497.184846 -365.166978 
L 499.95974 -365.7126 
L 503.84803 -366.258221 
L 508.568997 -366.803843 
L 513.77617 -367.349465 
L 519.111478 -367.895087 
L 524.25284 -368.440709 
L 528.948098 -368.986331 
L 533.032011 -369.531953 
L 536.426979 -370.077574 
L 539.131075 -370.623196 
L 552.34705 -370.623196 
L 552.34705 -370.623196 
L 555.051146 -370.077574 
L 558.446114 -369.531953 
L 562.530027 -368.986331 
L 567.225285 -368.440709 
L 572.366647 -367.895087 
L 577.701955 -367.349465 
L 582.909128 -366.803843 
L 587.630095 -366.258221 
L 591.518385 -365.7126 
L 594.293279 -365.166978 
L 595.790703 -364.621356 
L 596.000364 -364.075734 
L 595.080369 -363.530112 
L 593.344517 -362.98449 
L 591.222519 -362.438868 
L 589.198686 -361.893247 
L 587.738717 -361.347625 
L 587.216513 -360.802003 
L 587.853136 -360.256381 
L 589.678189 -359.710759 
L 592.520505 -359.165137 
L 596.030529 -358.619515 
L 599.731763 -358.073894 
L 603.093774 -357.528272 
L 605.615267 -356.98265 
L 606.903483 -356.437028 
L 606.736305 -355.891406 
L 605.096224 -355.345784 
L 602.170336 -354.800162 
L 598.316841 -354.254541 
L 594.004634 -353.708919 
L 589.737266 -353.163297 
L 585.974769 -352.617675 
L 583.066356 -352.072053 
L 581.204277 -351.526431 
L 580.40484 -350.980809 
L 580.517845 -350.435188 
L 581.261194 -349.889566 
L 582.273818 -349.343944 
L 583.177653 -348.798322 
L 583.638476 -348.2527 
L 583.415985 -347.707078 
L 582.395647 -347.161457 
L 580.598155 -346.615835 
L 578.166327 -346.070213 
L 575.333203 -345.524591 
L 572.378076 -344.978969 
L 569.578789 -344.433347 
L 567.168494 -343.887725 
L 565.303491 -343.342104 
L 564.046193 -342.796482 
L 563.364377 -342.25086 
L 563.145166 -341.705238 
L 563.220126 -341.159616 
L 563.396518 -340.613994 
L 563.489331 -340.068372 
L 563.349041 -339.522751 
L 562.88111 -338.977129 
L 562.054876 -338.431507 
L 560.901386 -337.885885 
L 559.501634 -337.340263 
L 557.968187 -336.794641 
L 556.423992 -336.249019 
L 554.982265 -335.703398 
L 553.730615 -335.157776 
L 552.721419 -334.612154 
L 551.969085 -334.066532 
L 551.453581 -333.52091 
L 551.128723 -332.975288 
L 550.933198 -332.429666 
L 550.802225 -331.884045 
L 550.677977 -331.338423 
L 550.517372 -330.792801 
L 550.29641 -330.247179 
L 550.010862 -329.701557 
L 549.673689 -329.155935 
L 549.310046 -328.610313 
L 548.950965 -328.064692 
L 548.626913 -327.51907 
L 548.362266 -326.973448 
L 548.171451 -326.427826 
L 548.057179 -325.882204 
L 548.010778 -325.336582 
L 548.014343 -324.79096 
L 548.04416 -324.245339 
L 548.074755 -323.699717 
L 548.082856 -323.154095 
L 548.05065 -322.608473 
L 547.967883 -322.062851 
L 547.832556 -321.517229 
L 547.650266 -320.971607 
L 547.432442 -320.425986 
L 547.193933 -319.880364 
L 546.95043 -319.334742 
L 546.716213 -318.78912 
L 546.502528 -318.243498 
L 546.316767 -317.697876 
L 546.162389 -317.152254 
L 546.039447 -316.606633 
z
" style="stroke: #3f3f3f; stroke-width: 1.25"/>
    </defs>
    <g clip-path="url(#p1c8ad1a1ba)">
     <use xlink:href="#mefe6d8d5a9" x="0" y="497.537187" style="fill: #3274a1; stroke: #3f3f3f; stroke-width: 1.25"/>
    </g>
   </g>
   <g id="FillBetweenPolyCollection_4">
    <defs>
     <path id="mcdd5afcb12" d="M 748.469212 -325.916693 
L 747.758913 -325.916693 
L 747.620414 -326.3588 
L 747.447895 -326.800907 
L 747.241259 -327.243013 
L 747.003787 -327.68512 
L 746.742703 -328.127227 
L 746.46923 -328.569333 
L 746.197964 -329.01144 
L 745.945497 -329.453546 
L 745.728356 -329.895653 
L 745.560466 -330.33776 
L 745.450464 -330.779866 
L 745.399255 -331.221973 
L 745.398169 -331.66408 
L 745.428051 -332.106186 
L 745.459452 -332.548293 
L 745.454031 -332.990399 
L 745.367166 -333.432506 
L 745.151709 -333.874613 
L 744.762762 -334.316719 
L 744.163265 -334.758826 
L 743.329976 -335.200933 
L 742.259252 -335.643039 
L 740.971721 -336.085146 
L 739.51482 -336.527253 
L 737.962142 -336.969359 
L 736.408854 -337.411466 
L 734.962993 -337.853572 
L 733.733257 -338.295679 
L 732.814667 -338.737786 
L 732.274156 -339.179892 
L 732.138329 -339.621999 
L 732.385472 -340.064106 
L 732.943202 -340.506212 
L 733.69228 -340.948319 
L 734.476214 -341.390425 
L 735.115557 -341.832532 
L 735.425449 -342.274639 
L 735.234866 -342.716745 
L 734.406073 -343.158852 
L 732.852821 -343.600959 
L 730.555648 -344.043065 
L 727.572373 -344.485172 
L 724.041657 -344.927279 
L 720.177585 -345.369385 
L 716.253958 -345.811492 
L 712.578365 -346.253598 
L 709.457972 -346.695705 
L 707.160969 -347.137812 
L 705.879039 -347.579918 
L 705.696756 -348.022025 
L 706.573022 -348.464132 
L 708.337825 -348.906238 
L 710.705074 -349.348345 
L 713.299758 -349.790452 
L 715.695805 -350.232558 
L 717.460085 -350.674665 
L 718.198007 -351.116771 
L 717.596753 -351.558878 
L 715.462813 -352.000985 
L 711.750848 -352.443091 
L 706.580842 -352.885198 
L 700.240367 -353.327305 
L 693.169124 -353.769411 
L 685.924207 -354.211518 
L 679.127059 -354.653624 
L 673.396517 -355.095731 
L 669.275825 -355.537838 
L 667.164062 -355.979944 
L 667.262995 -356.422051 
L 669.548528 -356.864158 
L 673.771883 -357.306264 
L 679.490325 -357.748371 
L 686.122075 -358.190478 
L 693.016201 -358.632584 
L 699.526728 -359.074691 
L 705.08095 -359.516797 
L 709.234424 -359.958904 
L 711.708395 -360.401011 
L 712.408356 -360.843117 
L 711.424502 -361.285224 
L 709.0158 -361.727331 
L 705.579745 -362.169437 
L 701.610046 -362.611544 
L 697.645212 -363.05365 
L 694.212192 -363.495757 
L 691.770719 -363.937864 
L 690.66506 -364.37997 
L 691.089877 -364.822077 
L 693.075391 -365.264184 
L 696.494139 -365.70629 
L 701.087893 -366.148397 
L 706.509735 -366.590504 
L 712.373694 -367.03261 
L 718.303534 -367.474717 
L 723.973217 -367.916823 
L 729.13402 -368.35893 
L 733.626415 -368.801037 
L 737.377846 -369.243143 
L 740.389829 -369.68525 
L 755.838296 -369.68525 
L 755.838296 -369.68525 
L 758.850279 -369.243143 
L 762.60171 -368.801037 
L 767.094105 -368.35893 
L 772.254908 -367.916823 
L 777.924591 -367.474717 
L 783.854431 -367.03261 
L 789.71839 -366.590504 
L 795.140232 -366.148397 
L 799.733986 -365.70629 
L 803.152734 -365.264184 
L 805.138248 -364.822077 
L 805.563065 -364.37997 
L 804.457406 -363.937864 
L 802.015933 -363.495757 
L 798.582913 -363.05365 
L 794.618079 -362.611544 
L 790.64838 -362.169437 
L 787.212325 -361.727331 
L 784.803623 -361.285224 
L 783.819769 -360.843117 
L 784.51973 -360.401011 
L 786.993701 -359.958904 
L 791.147175 -359.516797 
L 796.701397 -359.074691 
L 803.211924 -358.632584 
L 810.10605 -358.190478 
L 816.7378 -357.748371 
L 822.456242 -357.306264 
L 826.679597 -356.864158 
L 828.96513 -356.422051 
L 829.064062 -355.979944 
L 826.9523 -355.537838 
L 822.831608 -355.095731 
L 817.101066 -354.653624 
L 810.303918 -354.211518 
L 803.059001 -353.769411 
L 795.987758 -353.327305 
L 789.647283 -352.885198 
L 784.477277 -352.443091 
L 780.765312 -352.000985 
L 778.631372 -351.558878 
L 778.030118 -351.116771 
L 778.76804 -350.674665 
L 780.53232 -350.232558 
L 782.928367 -349.790452 
L 785.523051 -349.348345 
L 787.8903 -348.906238 
L 789.655103 -348.464132 
L 790.531369 -348.022025 
L 790.349086 -347.579918 
L 789.067156 -347.137812 
L 786.770153 -346.695705 
L 783.64976 -346.253598 
L 779.974167 -345.811492 
L 776.05054 -345.369385 
L 772.186468 -344.927279 
L 768.655752 -344.485172 
L 765.672477 -344.043065 
L 763.375304 -343.600959 
L 761.822052 -343.158852 
L 760.993259 -342.716745 
L 760.802676 -342.274639 
L 761.112568 -341.832532 
L 761.751911 -341.390425 
L 762.535845 -340.948319 
L 763.284923 -340.506212 
L 763.842653 -340.064106 
L 764.089796 -339.621999 
L 763.953969 -339.179892 
L 763.413458 -338.737786 
L 762.494868 -338.295679 
L 761.265132 -337.853572 
L 759.819271 -337.411466 
L 758.265983 -336.969359 
L 756.713305 -336.527253 
L 755.256404 -336.085146 
L 753.968873 -335.643039 
L 752.898149 -335.200933 
L 752.06486 -334.758826 
L 751.465363 -334.316719 
L 751.076416 -333.874613 
L 750.860959 -333.432506 
L 750.774094 -332.990399 
L 750.768673 -332.548293 
L 750.800074 -332.106186 
L 750.829956 -331.66408 
L 750.82887 -331.221973 
L 750.777661 -330.779866 
L 750.667659 -330.33776 
L 750.499769 -329.895653 
L 750.282628 -329.453546 
L 750.030161 -329.01144 
L 749.758895 -328.569333 
L 749.485422 -328.127227 
L 749.224338 -327.68512 
L 748.986866 -327.243013 
L 748.78023 -326.800907 
L 748.607711 -326.3588 
L 748.469212 -325.916693 
z
" style="stroke: #3f3f3f; stroke-width: 1.25"/>
    </defs>
    <g clip-path="url(#p1c8ad1a1ba)">
     <use xlink:href="#mcdd5afcb12" x="0" y="497.537187" style="fill: #3274a1; stroke: #3f3f3f; stroke-width: 1.25"/>
    </g>
   </g>
   <g id="line2d_10">
    <path d="M 132.321443 191.596788 
L 149.656682 191.596788 
" clip-path="url(#p1c8ad1a1ba)" style="fill: none; stroke-dasharray: 1.5625,0.9375; stroke-dashoffset: 0; stroke: #3f3f3f; stroke-width: 1.25"/>
   </g>
   <g id="line2d_11">
    <path d="M 124.089669 166.480445 
L 157.888456 166.480445 
" clip-path="url(#p1c8ad1a1ba)" style="fill: none; stroke-dasharray: 3.125,1.25; stroke-dashoffset: 0; stroke: #3f3f3f; stroke-width: 1.25"/>
   </g>
   <g id="line2d_12">
    <path d="M 123.735022 158.10833 
L 158.243103 158.10833 
" clip-path="url(#p1c8ad1a1ba)" style="fill: none; stroke-dasharray: 1.5625,0.9375; stroke-dashoffset: 0; stroke: #3f3f3f; stroke-width: 1.25"/>
   </g>
   <g id="line2d_13">
    <path d="M 315.015441 158.10833 
L 371.712684 158.10833 
" clip-path="url(#p1c8ad1a1ba)" style="fill: none; stroke-dasharray: 1.5625,0.9375; stroke-dashoffset: 0; stroke: #3f3f3f; stroke-width: 1.25"/>
   </g>
   <g id="line2d_14">
    <path d="M 302.879741 149.736216 
L 383.848384 149.736216 
" clip-path="url(#p1c8ad1a1ba)" style="fill: none; stroke-dasharray: 3.125,1.25; stroke-dashoffset: 0; stroke: #3f3f3f; stroke-width: 1.25"/>
   </g>
   <g id="line2d_15">
    <path d="M 307.57031 141.364101 
L 379.157815 141.364101 
" clip-path="url(#p1c8ad1a1ba)" style="fill: none; stroke-dasharray: 1.5625,0.9375; stroke-dashoffset: 0; stroke: #3f3f3f; stroke-width: 1.25"/>
   </g>
   <g id="line2d_16">
    <path d="M 508.023853 149.736216 
L 583.454272 149.736216 
" clip-path="url(#p1c8ad1a1ba)" style="fill: none; stroke-dasharray: 1.5625,0.9375; stroke-dashoffset: 0; stroke: #3f3f3f; stroke-width: 1.25"/>
   </g>
   <g id="line2d_17">
    <path d="M 484.655514 141.364101 
L 606.822611 141.364101 
" clip-path="url(#p1c8ad1a1ba)" style="fill: none; stroke-dasharray: 3.125,1.25; stroke-dashoffset: 0; stroke: #3f3f3f; stroke-width: 1.25"/>
   </g>
   <g id="line2d_18">
    <path d="M 495.658158 132.991987 
L 595.819967 132.991987 
" clip-path="url(#p1c8ad1a1ba)" style="fill: none; stroke-dasharray: 1.5625,0.9375; stroke-dashoffset: 0; stroke: #3f3f3f; stroke-width: 1.25"/>
   </g>
   <g id="line2d_19">
    <path d="M 705.787898 149.736216 
L 790.440227 149.736216 
" clip-path="url(#p1c8ad1a1ba)" style="fill: none; stroke-dasharray: 1.5625,0.9375; stroke-dashoffset: 0; stroke: #3f3f3f; stroke-width: 1.25"/>
   </g>
   <g id="line2d_20">
    <path d="M 667.207283 141.364101 
L 829.020842 141.364101 
" clip-path="url(#p1c8ad1a1ba)" style="fill: none; stroke-dasharray: 3.125,1.25; stroke-dashoffset: 0; stroke: #3f3f3f; stroke-width: 1.25"/>
   </g>
   <g id="line2d_21">
    <path d="M 690.823829 132.991987 
L 805.404296 132.991987 
" clip-path="url(#p1c8ad1a1ba)" style="fill: none; stroke-dasharray: 1.5625,0.9375; stroke-dashoffset: 0; stroke: #3f3f3f; stroke-width: 1.25"/>
   </g>
   <g id="patch_3">
    <path d="M 39.801563 459.473125 
L 39.801563 82.790625 
" style="fill: none; stroke: #cccccc; stroke-width: 0.8; stroke-linejoin: miter; stroke-linecap: square"/>
   </g>
   <g id="patch_4">
    <path d="M 849.301563 459.473125 
L 849.301563 82.790625 
" style="fill: none; stroke: #cccccc; stroke-width: 0.8; stroke-linejoin: miter; stroke-linecap: square"/>
   </g>
   <g id="patch_5">
    <path d="M 39.801562 459.473125 
L 849.301563 459.473125 
" style="fill: none; stroke: #cccccc; stroke-width: 0.8; stroke-linejoin: miter; stroke-linecap: square"/>
   </g>
   <g id="patch_6">
    <path d="M 39.801562 82.790625 
L 849.301563 82.790625 
" style="fill: none; stroke: #cccccc; stroke-width: 0.8; stroke-linejoin: miter; stroke-linecap: square"/>
   </g>
  </g>
  <g id="text_12">
   <!-- 训练阶段奖励分布: default_params - PPO - 初始训练 (正态-大幅均值改变(μ14,σ2)) -->
   <g style="fill: #262626" transform="translate(121.837812 20.615) scale(0.16 -0.16)">
    <defs>
     <path id="MicrosoftYaHei-Bold-8bad" d="M 956 5259 
Q 1475 4753 1925 4234 
L 1263 3684 
Q 769 4328 356 4747 
L 956 5259 
z
M 2450 5184 
L 3281 5184 
L 3281 2066 
Q 3281 209 2275 -884 
Q 1844 -528 1519 -328 
Q 2450 659 2450 2134 
L 2450 5184 
z
M 5238 5184 
L 6069 5184 
L 6069 -784 
L 5238 -784 
L 5238 5184 
z
M 3856 4953 
L 4663 4953 
L 4663 -416 
L 3856 -416 
L 3856 4953 
z
M 2019 1772 
Q 2050 1466 2175 916 
Q 1556 353 925 -341 
L 488 266 
Q 650 447 650 772 
L 650 2422 
L 125 2422 
L 125 3266 
L 1475 3266 
L 1475 1297 
Q 1769 1541 2019 1772 
z
" transform="scale(0.015625)"/>
     <path id="MicrosoftYaHei-Bold-7ec3" d="M 2400 3516 
L 2984 3516 
L 3159 4028 
L 2263 4028 
L 2263 4753 
L 3394 4753 
L 3575 5347 
L 4413 5291 
L 4238 4753 
L 6000 4753 
L 6000 4028 
L 3994 4028 
L 3809 3516 
L 4969 3516 
L 4969 2191 
L 6025 2191 
L 6025 1484 
L 4969 1484 
L 4969 297 
Q 4969 -131 4831 -397 
Q 4694 -663 4444 -758 
Q 4194 -853 3394 -853 
Q 3294 -309 3225 -34 
Q 3525 -72 3756 -72 
Q 4125 -72 4125 491 
L 4125 1484 
L 2513 1484 
L 2513 2291 
Q 2613 2525 2716 2791 
L 2400 2791 
L 2400 3516 
z
M 3306 2191 
L 4125 2191 
L 4125 2791 
L 3541 2791 
L 3306 2191 
z
M 1013 3372 
L 1419 3388 
L 1744 3966 
L 2413 3659 
L 1356 1797 
Q 1894 1872 2294 1941 
Q 2263 1684 2231 1159 
Q 931 984 475 866 
L 244 1566 
Q 531 1816 1009 2653 
L 306 2584 
L 75 3297 
Q 575 3966 1219 5341 
L 2000 5028 
Q 1450 4053 1013 3372 
z
M 75 372 
Q 1100 478 2288 672 
Q 2275 350 2272 116 
Q 2722 741 3000 1309 
L 3706 1003 
Q 3294 197 2738 -597 
Q 2469 -409 2078 -191 
L 238 -503 
L 75 372 
z
M 5000 978 
L 5619 1278 
Q 5994 584 6369 -197 
L 5713 -534 
Q 5356 316 5000 978 
z
" transform="scale(0.015625)"/>
     <path id="MicrosoftYaHei-Bold-9636" d="M 4638 2678 
L 5488 2678 
L 5488 -753 
L 4638 -753 
L 4638 2678 
z
M 6338 3297 
Q 6138 2947 5925 2434 
Q 4825 3197 4256 4297 
Q 3631 3259 2663 2384 
Q 2425 2784 2163 3147 
Q 3269 4053 3856 5253 
L 4756 5253 
L 4675 5047 
Q 5288 3966 6338 3297 
z
M 3006 2672 
L 3863 2672 
Q 3863 1284 3781 872 
Q 3625 -128 2763 -872 
Q 2531 -609 2113 -241 
Q 2775 328 2925 1041 
Q 3006 1322 3006 2672 
z
M 1988 2791 
Q 2525 2003 2525 1209 
Q 2525 747 2288 509 
Q 2019 241 1319 222 
Q 1288 609 1163 1066 
Q 1344 1034 1450 1034 
Q 1719 1034 1719 1297 
Q 1719 1941 1194 2672 
L 1725 4328 
L 1119 4328 
L 1119 -872 
L 331 -872 
L 331 5053 
L 2581 5053 
L 2581 4341 
L 1988 2791 
z
" transform="scale(0.015625)"/>
     <path id="MicrosoftYaHei-Bold-6bb5" d="M 113 22 
L 94 859 
L 525 897 
L 525 4947 
Q 1238 4978 2713 5228 
L 2988 4447 
Q 2094 4303 1356 4241 
L 1356 3716 
L 2625 3716 
L 2625 2953 
L 1356 2953 
L 1356 2397 
L 2625 2397 
L 2625 1634 
L 1356 1634 
L 1356 981 
L 2775 1141 
Q 2750 766 2750 347 
L 1356 178 
L 1356 -822 
L 525 -822 
L 525 75 
L 113 22 
z
M 5900 3816 
L 6319 3816 
Q 6231 3422 6169 3047 
L 5519 3047 
Q 4844 3047 4844 3734 
L 4844 4303 
L 3956 4303 
Q 3956 3672 3806 3372 
Q 3656 3072 3319 2791 
Q 3038 3047 2688 3322 
Q 3181 3628 3181 4278 
L 3181 5078 
L 5638 5078 
L 5638 4109 
Q 5638 3816 5900 3816 
z
M 6038 2728 
L 6038 1978 
Q 5703 1163 5119 541 
Q 5684 209 6356 16 
Q 6138 -378 5906 -816 
Q 5088 -503 4438 -53 
Q 3775 -538 2894 -853 
Q 2731 -578 2350 -66 
Q 3138 163 3731 525 
Q 3284 959 2950 1484 
L 3581 1941 
Q 3953 1431 4413 1041 
Q 4834 1447 5100 1959 
L 2788 1959 
L 2788 2728 
L 6038 2728 
z
" transform="scale(0.015625)"/>
     <path id="MicrosoftYaHei-Bold-5956" d="M 2475 3678 
Q 3206 4403 3625 5366 
L 4438 5209 
Q 4294 4925 4141 4666 
L 6156 4666 
L 6156 4053 
Q 5606 2531 3719 1856 
Q 3688 1706 3647 1566 
L 6225 1566 
L 6225 828 
L 3922 828 
Q 4569 141 6300 34 
Q 6150 -234 5875 -866 
Q 3972 -681 3147 538 
Q 2319 -541 400 -859 
Q 269 -434 100 -16 
Q 1706 197 2306 828 
L 200 828 
L 200 1566 
L 2756 1566 
Q 2856 1853 2888 2191 
L 3328 2191 
Q 3228 2331 3100 2491 
Q 3638 2666 4056 2881 
Q 3747 3163 3444 3397 
L 3944 3884 
Q 4234 3663 4684 3275 
Q 5106 3606 5319 4003 
L 3716 4003 
Q 3388 3534 3019 3153 
Q 2794 3391 2475 3678 
z
M 381 2166 
L 125 2972 
Q 950 3263 1600 3534 
L 1600 4184 
L 1075 3678 
Q 556 4222 213 4553 
L 706 5016 
Q 984 4775 1600 4206 
L 1600 5328 
L 2406 5328 
L 2406 1766 
L 1600 1766 
L 1600 2691 
Q 956 2431 381 2166 
z
" transform="scale(0.015625)"/>
     <path id="MicrosoftYaHei-Bold-52b1" d="M 4438 -753 
Q 4394 -381 4328 -47 
Q 4109 -556 3794 -909 
Q 3709 -813 3231 -403 
Q 3113 -634 2897 -721 
Q 2681 -809 2069 -809 
Q 2025 -506 1959 -175 
Q 1806 -600 1600 -934 
Q 1369 -484 1106 -66 
Q 1300 266 1423 697 
Q 1547 1128 1592 1590 
Q 1638 2053 1647 3153 
L 1263 3153 
L 1263 2878 
Q 1263 556 613 -878 
Q 381 -441 75 22 
Q 469 1078 475 2991 
L 475 5103 
L 3688 5103 
L 3688 4328 
L 1263 4328 
L 1263 3903 
L 3463 3903 
L 3463 3153 
L 2391 3153 
Q 2388 2753 2375 2509 
L 3444 2509 
Q 3406 603 3344 -50 
Q 4075 953 4081 3328 
L 3675 3328 
L 3675 4153 
L 4094 4153 
Q 4100 4666 4100 5309 
L 4844 5309 
L 4834 4153 
L 6038 4153 
L 6003 1713 
L 5969 263 
Q 5956 -166 5792 -394 
Q 5628 -622 5383 -683 
Q 5138 -744 4438 -753 
z
M 4397 128 
Q 4581 116 4872 116 
Q 5013 116 5092 197 
Q 5172 278 5195 422 
Q 5219 566 5244 1344 
Q 5269 2122 5269 3328 
L 4825 3328 
Q 4819 1216 4397 128 
z
M 2031 34 
Q 2131 31 2313 22 
Q 2563 16 2606 202 
Q 2650 388 2688 1784 
L 2338 1784 
Q 2263 781 2031 34 
z
" transform="scale(0.015625)"/>
     <path id="MicrosoftYaHei-Bold-5206" d="M 6350 3028 
Q 6088 2703 5750 2228 
Q 5519 2409 5303 2603 
Q 5219 606 5172 190 
Q 5125 -225 4862 -451 
Q 4600 -678 4128 -678 
Q 3484 -678 2913 -659 
Q 2856 -141 2781 284 
Q 3594 216 3956 216 
Q 4172 216 4230 408 
Q 4288 600 4325 1978 
L 2781 1978 
Q 2728 1100 2529 631 
Q 2331 163 1907 -215 
Q 1484 -594 844 -872 
Q 456 -353 194 -78 
Q 750 144 1111 414 
Q 1472 684 1630 989 
Q 1788 1294 1841 1978 
L 950 1978 
L 950 2475 
Q 794 2356 631 2247 
Q 344 2653 63 2953 
Q 1475 3947 2194 5316 
L 3031 4953 
Q 2378 3722 1391 2841 
L 5047 2841 
Q 4088 3766 3463 4903 
L 4238 5303 
Q 5038 3922 6350 3028 
z
" transform="scale(0.015625)"/>
     <path id="MicrosoftYaHei-Bold-5e03" d="M 3919 -834 
L 3050 -834 
L 3050 2034 
L 2063 2034 
L 2063 -359 
L 1200 -359 
L 1200 1641 
Q 825 1238 400 866 
Q 244 1403 113 1741 
Q 1128 2669 1731 3709 
L 200 3709 
L 200 4541 
L 2141 4541 
Q 2294 4916 2400 5303 
L 3275 5203 
Q 3169 4866 3038 4541 
L 6250 4541 
L 6250 3709 
L 2659 3709 
Q 2406 3222 2094 2766 
L 3050 2766 
L 3050 3566 
L 3919 3566 
L 3919 2766 
L 5800 2766 
L 5800 741 
Q 5800 338 5628 112 
Q 5456 -113 5178 -164 
Q 4900 -216 4306 -216 
Q 4225 291 4156 609 
Q 4456 584 4544 584 
Q 4950 584 4950 1034 
L 4950 2034 
L 3919 2034 
L 3919 -834 
z
" transform="scale(0.015625)"/>
     <path id="MicrosoftYaHei-Bold-3a" d="M 313 2969 
Q 313 3200 491 3350 
Q 669 3500 916 3500 
Q 1166 3500 1337 3350 
Q 1509 3200 1509 2969 
Q 1509 2728 1337 2579 
Q 1166 2431 903 2431 
Q 653 2431 483 2584 
Q 313 2738 313 2969 
z
M 313 453 
Q 313 688 491 838 
Q 669 988 916 988 
Q 1166 988 1337 834 
Q 1509 681 1509 453 
Q 1509 213 1337 64 
Q 1166 -84 903 -84 
Q 659 -84 486 69 
Q 313 222 313 453 
z
" transform="scale(0.015625)"/>
     <path id="MicrosoftYaHei-Bold-20" transform="scale(0.015625)"/>
     <path id="MicrosoftYaHei-Bold-64" d="M 3794 0 
L 2788 0 
L 2788 488 
L 2772 488 
Q 2406 -84 1691 -84 
Q 1031 -84 642 381 
Q 253 847 253 1650 
Q 253 2500 689 3020 
Q 1125 3541 1828 3541 
Q 2503 3541 2772 3053 
L 2788 3053 
L 2788 5116 
L 3794 5116 
L 3794 0 
z
M 2803 1956 
Q 2803 2306 2592 2536 
Q 2381 2766 2066 2766 
Q 1697 2766 1486 2473 
Q 1275 2181 1275 1681 
Q 1275 1206 1478 948 
Q 1681 691 2038 691 
Q 2372 691 2587 962 
Q 2803 1234 2803 1669 
L 2803 1956 
z
" transform="scale(0.015625)"/>
     <path id="MicrosoftYaHei-Bold-65" d="M 3528 1444 
L 1253 1444 
Q 1306 641 2222 641 
Q 2794 641 3231 922 
L 3231 181 
Q 2759 -84 1994 -84 
Q 1169 -84 711 381 
Q 253 847 253 1678 
Q 253 2506 740 3023 
Q 1228 3541 1966 3541 
Q 2700 3541 3114 3095 
Q 3528 2650 3528 1872 
L 3528 1444 
z
M 2588 2075 
Q 2588 2850 1959 2850 
Q 1700 2850 1500 2637 
Q 1300 2425 1250 2075 
L 2588 2075 
z
" transform="scale(0.015625)"/>
     <path id="MicrosoftYaHei-Bold-66" d="M 2653 4338 
Q 2447 4419 2263 4419 
Q 1744 4419 1744 3844 
L 1744 3456 
L 2531 3456 
L 2531 2703 
L 1744 2703 
L 1744 0 
L 734 0 
L 734 2703 
L 156 2703 
L 156 3456 
L 734 3456 
L 734 3900 
Q 734 4491 1118 4844 
Q 1503 5197 2128 5197 
Q 2447 5197 2653 5131 
L 2653 4338 
z
" transform="scale(0.015625)"/>
     <path id="MicrosoftYaHei-Bold-61" d="M 544 3247 
Q 778 3378 1170 3459 
Q 1563 3541 1841 3541 
Q 3291 3541 3291 2088 
L 3291 0 
L 2331 0 
L 2331 503 
L 2319 503 
Q 1966 -84 1284 -84 
Q 794 -84 498 195 
Q 203 475 203 956 
Q 203 1950 1388 2113 
L 2338 2241 
Q 2338 2844 1709 2844 
Q 1091 2844 544 2469 
L 544 3247 
z
M 1684 1566 
Q 1138 1494 1138 1072 
Q 1138 878 1270 759 
Q 1403 641 1628 641 
Q 1938 641 2138 859 
Q 2338 1078 2338 1403 
L 2338 1650 
L 1684 1566 
z
" transform="scale(0.015625)"/>
     <path id="MicrosoftYaHei-Bold-75" d="M 3691 0 
L 2688 0 
L 2688 528 
L 2672 528 
Q 2284 -84 1613 -84 
Q 406 -84 406 1372 
L 406 3456 
L 1416 3456 
L 1416 1466 
Q 1416 691 2022 691 
Q 2325 691 2506 903 
Q 2688 1116 2688 1478 
L 2688 3456 
L 3691 3456 
L 3691 0 
z
" transform="scale(0.015625)"/>
     <path id="MicrosoftYaHei-Bold-6c" d="M 444 0 
L 444 5116 
L 1450 5116 
L 1450 0 
L 444 0 
z
" transform="scale(0.015625)"/>
     <path id="MicrosoftYaHei-Bold-74" d="M 2494 41 
Q 2266 -84 1803 -84 
Q 703 -84 703 1072 
L 703 2703 
L 134 2703 
L 134 3456 
L 703 3456 
L 703 4216 
L 1706 4503 
L 1706 3456 
L 2494 3456 
L 2494 2703 
L 1706 2703 
L 1706 1247 
Q 1706 694 2144 694 
Q 2313 694 2494 794 
L 2494 41 
z
" transform="scale(0.015625)"/>
     <path id="MicrosoftYaHei-Bold-5f" d="M 2869 -1675 
L 0 -1675 
L 0 -1272 
L 2869 -1272 
L 2869 -1675 
z
" transform="scale(0.015625)"/>
     <path id="MicrosoftYaHei-Bold-70" d="M 1469 416 
L 1469 -1591 
L 459 -1591 
L 459 3456 
L 1469 3456 
L 1469 2928 
L 1481 2928 
Q 1878 3541 2603 3541 
Q 3263 3541 3634 3080 
Q 4006 2619 4006 1825 
Q 4006 959 3575 437 
Q 3144 -84 2444 -84 
Q 1809 -84 1481 416 
L 1469 416 
z
M 1453 1528 
Q 1453 1159 1653 925 
Q 1853 691 2172 691 
Q 2550 691 2761 984 
Q 2972 1278 2972 1816 
Q 2972 2766 2231 2766 
Q 1888 2766 1670 2503 
Q 1453 2241 1453 1828 
L 1453 1528 
z
" transform="scale(0.015625)"/>
     <path id="MicrosoftYaHei-Bold-72" d="M 2663 2541 
Q 2478 2647 2216 2647 
Q 1872 2647 1670 2384 
Q 1469 2122 1469 1663 
L 1469 0 
L 459 0 
L 459 3456 
L 1469 3456 
L 1469 2806 
L 1481 2806 
Q 1731 3516 2391 3516 
Q 2569 3516 2663 3475 
L 2663 2541 
z
" transform="scale(0.015625)"/>
     <path id="MicrosoftYaHei-Bold-6d" d="M 5881 0 
L 4875 0 
L 4875 1972 
Q 4875 2766 4297 2766 
Q 4028 2766 3850 2525 
Q 3672 2284 3672 1938 
L 3672 0 
L 2666 0 
L 2666 1997 
Q 2666 2766 2094 2766 
Q 1809 2766 1639 2536 
Q 1469 2306 1469 1928 
L 1469 0 
L 459 0 
L 459 3456 
L 1469 3456 
L 1469 2916 
L 1481 2916 
Q 1663 3213 1963 3377 
Q 2263 3541 2594 3541 
Q 3322 3541 3591 2888 
Q 3991 3541 4753 3541 
Q 5881 3541 5881 2147 
L 5881 0 
z
" transform="scale(0.015625)"/>
     <path id="MicrosoftYaHei-Bold-73" d="M 369 928 
Q 888 613 1384 613 
Q 2009 613 2009 947 
Q 2009 1184 1494 1344 
Q 850 1544 609 1789 
Q 369 2034 369 2453 
Q 369 2963 781 3252 
Q 1194 3541 1863 3541 
Q 2338 3541 2778 3400 
L 2778 2606 
Q 2375 2844 1891 2844 
Q 1650 2844 1503 2758 
Q 1356 2672 1356 2531 
Q 1356 2294 1794 2147 
Q 2263 1991 2498 1862 
Q 2734 1734 2857 1525 
Q 2981 1316 2981 1041 
Q 2981 506 2553 211 
Q 2125 -84 1409 -84 
Q 847 -84 369 94 
L 369 928 
z
" transform="scale(0.015625)"/>
     <path id="MicrosoftYaHei-Bold-2d" d="M 2328 1497 
L 481 1497 
L 481 2209 
L 2328 2209 
L 2328 1497 
z
" transform="scale(0.015625)"/>
     <path id="MicrosoftYaHei-Bold-50" d="M 1591 1688 
L 1591 0 
L 559 0 
L 559 4841 
L 2225 4841 
Q 4031 4841 4031 3309 
Q 4031 2566 3486 2117 
Q 2941 1669 2122 1688 
L 1591 1688 
z
M 1591 4041 
L 1591 2478 
L 2038 2478 
Q 2947 2478 2947 3269 
Q 2947 4041 2047 4041 
L 1591 4041 
z
" transform="scale(0.015625)"/>
     <path id="MicrosoftYaHei-Bold-4f" d="M 256 2356 
Q 256 3494 920 4208 
Q 1584 4922 2675 4922 
Q 3713 4922 4345 4231 
Q 4978 3541 4978 2456 
Q 4978 1325 4320 620 
Q 3663 -84 2597 -84 
Q 1556 -84 906 598 
Q 256 1281 256 2356 
z
M 1341 2413 
Q 1341 1706 1681 1257 
Q 2022 809 2616 809 
Q 3222 809 3559 1239 
Q 3897 1669 3897 2394 
Q 3897 3150 3569 3589 
Q 3241 4028 2644 4028 
Q 2038 4028 1689 3578 
Q 1341 3128 1341 2413 
z
" transform="scale(0.015625)"/>
     <path id="MicrosoftYaHei-Bold-521d" d="M 1288 5359 
Q 1619 4997 2031 4453 
L 1516 4109 
L 2294 4109 
L 2294 3378 
Q 2019 2847 1700 2369 
L 1700 2256 
Q 1809 2175 1909 2097 
Q 2209 2516 2419 2878 
L 2994 2516 
Q 2716 2138 2381 1734 
Q 2619 1544 2813 1378 
L 2363 834 
Q 2016 1166 1700 1441 
L 1700 -866 
L 913 -866 
L 913 1338 
Q 641 1025 344 741 
Q 231 1228 94 1678 
Q 831 2278 1363 3303 
L 156 3303 
L 156 4109 
L 1231 4109 
Q 981 4472 613 4928 
L 1288 5359 
z
M 3919 -697 
Q 3838 -266 3700 253 
Q 4153 209 4563 209 
Q 5006 209 5040 675 
Q 5075 1141 5113 4159 
L 4097 4159 
Q 4050 2622 3984 1959 
Q 3919 1297 3595 525 
Q 3272 -247 2644 -859 
Q 2369 -578 1925 -216 
Q 2450 234 2734 806 
Q 3019 1378 3105 1972 
Q 3191 2566 3219 4159 
L 2488 4159 
L 2488 4947 
L 6013 4947 
L 5938 1331 
L 5906 491 
Q 5906 -44 5686 -328 
Q 5466 -613 5067 -647 
Q 4669 -681 3919 -697 
z
" transform="scale(0.015625)"/>
     <path id="MicrosoftYaHei-Bold-59cb" d="M 2863 -853 
L 2863 356 
L 2256 -291 
Q 2000 -25 1744 225 
Q 1309 -381 638 -847 
Q 350 -466 69 -153 
Q 706 259 1119 816 
Q 669 1228 225 1597 
Q 441 2363 616 3359 
L 119 3359 
L 119 4134 
L 741 4134 
Q 825 4706 900 5347 
L 1731 5259 
L 1550 4134 
L 2669 4134 
Q 2663 3728 2638 3363 
Q 3213 3972 3875 5359 
L 4800 5097 
Q 4225 4159 3594 3378 
Q 4328 3422 5075 3484 
Q 4847 3944 4619 4359 
L 5294 4634 
Q 5831 3747 6369 2659 
L 5613 2341 
L 5391 2828 
Q 3522 2697 2863 2578 
L 2625 3169 
Q 2519 1791 2156 953 
L 2863 394 
L 2863 2116 
L 5981 2116 
L 5981 -828 
L 5144 -828 
L 5144 -472 
L 3700 -472 
L 3700 -853 
L 2863 -853 
z
M 1088 1797 
L 1503 1469 
Q 1809 2241 1863 3359 
L 1413 3359 
Q 1259 2541 1088 1797 
z
M 5144 1328 
L 3700 1328 
L 3700 316 
L 5144 316 
L 5144 1328 
z
" transform="scale(0.015625)"/>
     <path id="MicrosoftYaHei-Bold-28" d="M 1606 -1100 
Q 525 97 525 1853 
Q 525 3550 1606 4841 
L 2431 4841 
Q 1406 3497 1406 1853 
Q 1406 216 2438 -1100 
L 1606 -1100 
z
" transform="scale(0.015625)"/>
     <path id="MicrosoftYaHei-Bold-6b63" d="M 138 303 
L 1050 303 
L 1050 3397 
L 1975 3397 
L 1975 303 
L 3056 303 
L 3056 4078 
L 388 4078 
L 388 4934 
L 6056 4934 
L 6056 4078 
L 4000 4078 
L 4000 2709 
L 5838 2709 
L 5838 1859 
L 4000 1859 
L 4000 303 
L 6263 303 
L 6263 -553 
L 138 -553 
L 138 303 
z
" transform="scale(0.015625)"/>
     <path id="MicrosoftYaHei-Bold-6001" d="M 300 4628 
L 2656 4628 
Q 2719 4953 2700 5334 
L 3625 5334 
Q 3613 4947 3584 4628 
L 6100 4628 
L 6100 3878 
L 3981 3878 
Q 4788 3000 6313 2703 
Q 6063 2228 5869 1784 
Q 4159 2303 3206 3700 
Q 2500 2331 588 1703 
Q 356 2197 88 2616 
Q 1869 3028 2369 3878 
L 300 3878 
L 300 4628 
z
M 2919 3022 
Q 3356 2753 3950 2347 
L 3388 1784 
Q 2863 2222 2406 2528 
L 2919 3022 
z
M 2975 1941 
Q 3619 1559 4163 1166 
L 3644 566 
Q 3119 997 2506 1372 
L 2975 1941 
z
M 5494 1709 
Q 5969 997 6331 278 
L 5588 -128 
Q 5244 603 4775 1353 
L 5494 1709 
z
M 4350 872 
Q 4813 647 5213 497 
Q 5022 -278 4744 -509 
Q 4466 -741 3913 -741 
L 2500 -741 
Q 1563 -741 1563 184 
L 1563 1491 
L 2388 1491 
L 2388 391 
Q 2388 9 2775 9 
L 3713 9 
Q 4019 9 4147 143 
Q 4275 278 4350 872 
z
M 663 1466 
L 1438 1203 
Q 1119 253 863 -353 
L 81 -53 
Q 413 659 663 1466 
z
" transform="scale(0.015625)"/>
     <path id="MicrosoftYaHei-Bold-5927" d="M 213 3728 
L 2681 3728 
Q 2725 4409 2719 5303 
L 3669 5303 
Q 3650 4375 3619 3728 
L 6200 3728 
L 6200 2866 
L 3691 2866 
Q 4228 778 6288 59 
Q 5844 -447 5575 -803 
Q 3872 -3 3203 1775 
Q 2684 147 806 -847 
Q 556 -528 100 -47 
Q 2375 984 2591 2866 
L 213 2866 
L 213 3728 
z
" transform="scale(0.015625)"/>
     <path id="MicrosoftYaHei-Bold-5e45" d="M 850 447 
L 319 447 
L 319 4278 
L 1088 4278 
L 1088 5328 
L 1763 5328 
L 1763 4278 
L 2525 4278 
L 2525 1153 
Q 2525 959 2456 723 
Q 2388 488 1844 503 
Q 1822 784 1763 1116 
L 1763 -847 
L 1088 -847 
L 1088 3528 
L 850 3528 
L 850 447 
z
M 2000 1403 
L 2000 3528 
L 1763 3528 
L 1763 1188 
Q 2000 1141 2000 1403 
z
M 2606 5016 
L 6169 5016 
L 6169 4366 
L 2606 4366 
L 2606 5016 
z
M 2919 4072 
L 5856 4072 
L 5856 2484 
L 2919 2484 
L 2919 4072 
z
M 5056 3447 
L 3719 3447 
L 3719 3109 
L 5056 3109 
L 5056 3447 
z
M 2688 2191 
L 6088 2191 
L 6088 -809 
L 5338 -809 
L 5338 -484 
L 3438 -484 
L 3438 -809 
L 2688 -809 
L 2688 2191 
z
M 3438 1141 
L 4038 1141 
L 4038 1591 
L 3438 1591 
L 3438 1141 
z
M 5338 1591 
L 4738 1591 
L 4738 1141 
L 5338 1141 
L 5338 1591 
z
M 3438 116 
L 4038 116 
L 4038 566 
L 3438 566 
L 3438 116 
z
M 4738 116 
L 5338 116 
L 5338 566 
L 4738 566 
L 4738 116 
z
" transform="scale(0.015625)"/>
     <path id="MicrosoftYaHei-Bold-5747" d="M 250 -397 
L 88 547 
Q 425 628 794 725 
L 794 2847 
L 213 2847 
L 213 3703 
L 794 3703 
L 794 5322 
L 1638 5322 
L 1638 3703 
L 2156 3703 
L 2156 3269 
Q 2794 4313 3075 5366 
L 3925 5266 
Q 3809 4866 3669 4491 
L 6069 4491 
L 6016 1816 
L 5966 303 
Q 5944 -194 5730 -450 
Q 5516 -706 5167 -745 
Q 4819 -784 3775 -797 
Q 3700 -397 3556 153 
Q 4178 103 4625 103 
Q 4819 103 4955 208 
Q 5091 313 5105 575 
Q 5119 838 5141 1619 
L 5181 3703 
L 3341 3703 
Q 3059 3088 2706 2541 
Q 2463 2763 2156 3003 
L 2156 2847 
L 1638 2847 
L 1638 959 
L 2288 1153 
Q 2275 878 2269 253 
Q 963 -134 250 -397 
z
M 3556 3353 
Q 4106 2922 4588 2466 
L 4006 1891 
Q 3500 2403 3019 2822 
L 3556 3353 
z
M 2719 209 
L 2500 1128 
Q 3650 1534 4938 2059 
Q 4956 1566 5000 1153 
Q 3894 728 2719 209 
z
" transform="scale(0.015625)"/>
     <path id="MicrosoftYaHei-Bold-503c" d="M 1638 3 
L 2100 3 
L 2100 3728 
L 3556 3728 
L 3556 4097 
L 1950 4097 
L 1950 4797 
L 3556 4797 
L 3556 5266 
L 4381 5266 
L 4381 4797 
L 6175 4797 
L 6175 4097 
L 4381 4097 
L 4381 3728 
L 5888 3728 
L 5888 3 
L 6325 3 
L 6325 -697 
L 1638 -697 
L 1638 3 
z
M 1125 5347 
L 1950 5128 
Q 1713 4378 1419 3666 
L 1419 -853 
L 625 -853 
L 625 2022 
Q 456 1716 275 1422 
Q 200 1916 69 2591 
Q 675 3803 1125 5347 
z
M 2888 1853 
L 5100 1853 
L 5100 2178 
L 2888 2178 
L 2888 1853 
z
M 2888 928 
L 5100 928 
L 5100 1253 
L 2888 1253 
L 2888 928 
z
M 5100 3103 
L 2888 3103 
L 2888 2778 
L 5100 2778 
L 5100 3103 
z
M 2888 3 
L 5100 3 
L 5100 328 
L 2888 328 
L 2888 3 
z
" transform="scale(0.015625)"/>
     <path id="MicrosoftYaHei-Bold-6539" d="M 3475 5347 
L 4294 5184 
Q 4206 4753 4106 4366 
L 6250 4366 
L 6250 3534 
L 5822 3534 
Q 5650 1950 4966 941 
Q 5528 356 6325 -34 
L 5775 -841 
Q 4969 -359 4400 259 
Q 3772 -378 2931 -847 
Q 2769 -559 2419 -41 
Q 3259 375 3853 969 
Q 3472 1563 3266 2259 
Q 3166 2103 3063 1966 
Q 2834 2322 2650 2559 
L 2650 2078 
L 1225 2078 
L 1225 491 
Q 1781 791 2550 1172 
Q 2569 897 2656 322 
Q 1069 -472 700 -822 
L 238 -209 
Q 406 -3 400 316 
L 400 2878 
L 1825 2878 
L 1825 4091 
L 250 4091 
L 250 4891 
L 2650 4891 
L 2650 2897 
Q 3234 3900 3475 5347 
z
M 4403 1666 
Q 4819 2391 5000 3534 
L 3856 3534 
Q 3813 3409 3766 3291 
Q 3959 2375 4403 1666 
z
" transform="scale(0.015625)"/>
     <path id="MicrosoftYaHei-Bold-53d8" d="M 231 4616 
L 2734 4616 
L 2525 5128 
L 3425 5353 
L 3741 4616 
L 6175 4616 
L 6175 3878 
L 4350 3878 
L 4350 2434 
L 3550 2434 
L 3550 3878 
L 2850 3878 
L 2850 2434 
L 2050 2434 
L 2050 3878 
L 231 3878 
L 231 4616 
z
M 1488 3778 
L 2019 3228 
Q 1338 2684 550 2184 
Q 325 2541 88 2828 
Q 844 3272 1488 3778 
z
M 4881 3728 
Q 5538 3328 6306 2778 
L 5769 2159 
Q 5119 2666 4406 3178 
L 4881 3728 
z
M 5300 2272 
L 5300 1566 
Q 4847 913 4144 422 
Q 5063 147 6288 84 
Q 6194 -84 5825 -822 
Q 4297 -663 3200 -116 
Q 2088 -634 544 -884 
Q 363 -497 94 -66 
Q 1359 84 2338 425 
Q 1741 894 1331 1534 
L 900 1534 
L 900 2272 
L 5300 2272 
z
M 3213 794 
Q 3834 1113 4300 1534 
L 2238 1534 
Q 2631 1100 3213 794 
z
" transform="scale(0.015625)"/>
     <path id="MicrosoftYaHei-Bold-3bc" d="M 2747 550 
Q 2528 -78 1938 -78 
Q 1647 -78 1484 97 
L 1469 97 
L 1469 -1366 
L 459 -1366 
L 459 3456 
L 1469 3456 
L 1469 1456 
Q 1469 728 2069 728 
Q 2713 728 2713 1613 
L 2713 3456 
L 3731 3456 
L 3728 1328 
Q 3728 1047 3795 906 
Q 3863 766 4041 766 
Q 4125 766 4222 797 
L 4222 28 
Q 3944 -50 3631 -50 
Q 2897 -50 2759 550 
L 2747 550 
z
" transform="scale(0.015625)"/>
     <path id="MicrosoftYaHei-Bold-31" d="M 2716 4947 
L 2716 0 
L 1700 0 
L 1700 3809 
Q 1513 3647 1188 3517 
Q 863 3388 591 3356 
L 591 4222 
Q 1447 4472 2072 4947 
L 2716 4947 
z
" transform="scale(0.015625)"/>
     <path id="MicrosoftYaHei-Bold-34" d="M 3184 4841 
L 3184 1766 
L 3869 1766 
L 3869 1031 
L 3184 1031 
L 3184 0 
L 2266 0 
L 2266 1031 
L 103 1031 
L 103 1772 
Q 775 2522 1362 3359 
Q 1950 4197 2250 4841 
L 3184 4841 
z
M 997 1766 
L 2266 1766 
L 2266 3541 
Q 2116 3259 1836 2859 
Q 1556 2459 997 1766 
z
" transform="scale(0.015625)"/>
     <path id="MicrosoftYaHei-Bold-2c" d="M 1419 841 
L 916 -859 
L 134 -859 
L 484 841 
L 1419 841 
z
" transform="scale(0.015625)"/>
     <path id="MicrosoftYaHei-Bold-3c3" d="M 4147 2725 
L 3375 2725 
Q 3753 2244 3753 1616 
Q 3753 838 3286 377 
Q 2819 -84 2031 -84 
Q 1219 -84 736 405 
Q 253 894 253 1719 
Q 253 2572 720 3014 
Q 1188 3456 2097 3456 
L 4147 3456 
L 4147 2725 
z
M 2188 2725 
Q 1284 2725 1284 1678 
Q 1284 1244 1478 969 
Q 1672 694 2025 694 
Q 2356 694 2540 966 
Q 2725 1238 2725 1722 
Q 2725 2288 2447 2725 
L 2188 2725 
z
" transform="scale(0.015625)"/>
     <path id="MicrosoftYaHei-Bold-32" d="M 1500 841 
L 3553 841 
L 3553 0 
L 334 0 
L 334 359 
Q 334 738 473 1050 
Q 613 1363 856 1633 
Q 1100 1903 1613 2266 
Q 2081 2616 2268 2886 
Q 2456 3156 2456 3459 
Q 2456 4113 1744 4113 
Q 1119 4113 550 3613 
L 550 4513 
Q 1184 4922 1975 4922 
Q 2700 4922 3122 4551 
Q 3544 4181 3544 3531 
Q 3544 3169 3422 2876 
Q 3300 2584 3069 2328 
Q 2838 2072 2328 1713 
Q 1838 1363 1669 1172 
Q 1500 981 1500 841 
z
" transform="scale(0.015625)"/>
     <path id="MicrosoftYaHei-Bold-29" d="M 59 -1100 
Q 1097 216 1097 1853 
Q 1097 3484 59 4841 
L 888 4841 
Q 1978 3544 1978 1853 
Q 1978 113 881 -1100 
L 59 -1100 
z
" transform="scale(0.015625)"/>
    </defs>
    <use xlink:href="#MicrosoftYaHei-Bold-8bad"/>
    <use xlink:href="#MicrosoftYaHei-Bold-7ec3" transform="translate(100 0)"/>
    <use xlink:href="#MicrosoftYaHei-Bold-9636" transform="translate(200 0)"/>
    <use xlink:href="#MicrosoftYaHei-Bold-6bb5" transform="translate(300 0)"/>
    <use xlink:href="#MicrosoftYaHei-Bold-5956" transform="translate(400 0)"/>
    <use xlink:href="#MicrosoftYaHei-Bold-52b1" transform="translate(500 0)"/>
    <use xlink:href="#MicrosoftYaHei-Bold-5206" transform="translate(600 0)"/>
    <use xlink:href="#MicrosoftYaHei-Bold-5e03" transform="translate(700 0)"/>
    <use xlink:href="#MicrosoftYaHei-Bold-3a" transform="translate(800 0)"/>
    <use xlink:href="#MicrosoftYaHei-Bold-20" transform="translate(828.564453 0)"/>
    <use xlink:href="#MicrosoftYaHei-Bold-64" transform="translate(858.349609 0)"/>
    <use xlink:href="#MicrosoftYaHei-Bold-65" transform="translate(924.804688 0)"/>
    <use xlink:href="#MicrosoftYaHei-Bold-66" transform="translate(983.007812 0)"/>
    <use xlink:href="#MicrosoftYaHei-Bold-61" transform="translate(1023.535156 0)"/>
    <use xlink:href="#MicrosoftYaHei-Bold-75" transform="translate(1081.298828 0)"/>
    <use xlink:href="#MicrosoftYaHei-Bold-6c" transform="translate(1146.09375 0)"/>
    <use xlink:href="#MicrosoftYaHei-Bold-74" transform="translate(1175.683594 0)"/>
    <use xlink:href="#MicrosoftYaHei-Bold-5f" transform="translate(1217.089844 0)"/>
    <use xlink:href="#MicrosoftYaHei-Bold-70" transform="translate(1261.914062 0)"/>
    <use xlink:href="#MicrosoftYaHei-Bold-61" transform="translate(1327.390625 0)"/>
    <use xlink:href="#MicrosoftYaHei-Bold-72" transform="translate(1385.154297 0)"/>
    <use xlink:href="#MicrosoftYaHei-Bold-61" transform="translate(1427.537109 0)"/>
    <use xlink:href="#MicrosoftYaHei-Bold-6d" transform="translate(1485.300781 0)"/>
    <use xlink:href="#MicrosoftYaHei-Bold-73" transform="translate(1583.494141 0)"/>
    <use xlink:href="#MicrosoftYaHei-Bold-20" transform="translate(1632.859375 0)"/>
    <use xlink:href="#MicrosoftYaHei-Bold-2d" transform="translate(1662.644531 0)"/>
    <use xlink:href="#MicrosoftYaHei-Bold-20" transform="translate(1706.296875 0)"/>
    <use xlink:href="#MicrosoftYaHei-Bold-50" transform="translate(1736.082031 0)"/>
    <use xlink:href="#MicrosoftYaHei-Bold-50" transform="translate(1801.804688 0)"/>
    <use xlink:href="#MicrosoftYaHei-Bold-4f" transform="translate(1867.527344 0)"/>
    <use xlink:href="#MicrosoftYaHei-Bold-20" transform="translate(1949.363281 0)"/>
    <use xlink:href="#MicrosoftYaHei-Bold-2d" transform="translate(1979.148438 0)"/>
    <use xlink:href="#MicrosoftYaHei-Bold-20" transform="translate(2022.800781 0)"/>
    <use xlink:href="#MicrosoftYaHei-Bold-521d" transform="translate(2052.585938 0)"/>
    <use xlink:href="#MicrosoftYaHei-Bold-59cb" transform="translate(2152.585938 0)"/>
    <use xlink:href="#MicrosoftYaHei-Bold-8bad" transform="translate(2252.585938 0)"/>
    <use xlink:href="#MicrosoftYaHei-Bold-7ec3" transform="translate(2352.585938 0)"/>
    <use xlink:href="#MicrosoftYaHei-Bold-20" transform="translate(2452.585938 0)"/>
    <use xlink:href="#MicrosoftYaHei-Bold-28" transform="translate(2482.371094 0)"/>
    <use xlink:href="#MicrosoftYaHei-Bold-6b63" transform="translate(2521.335938 0)"/>
    <use xlink:href="#MicrosoftYaHei-Bold-6001" transform="translate(2621.335938 0)"/>
    <use xlink:href="#MicrosoftYaHei-Bold-2d" transform="translate(2721.335938 0)"/>
    <use xlink:href="#MicrosoftYaHei-Bold-5927" transform="translate(2764.988281 0)"/>
    <use xlink:href="#MicrosoftYaHei-Bold-5e45" transform="translate(2864.988281 0)"/>
    <use xlink:href="#MicrosoftYaHei-Bold-5747" transform="translate(2964.988281 0)"/>
    <use xlink:href="#MicrosoftYaHei-Bold-503c" transform="translate(3064.988281 0)"/>
    <use xlink:href="#MicrosoftYaHei-Bold-6539" transform="translate(3164.988281 0)"/>
    <use xlink:href="#MicrosoftYaHei-Bold-53d8" transform="translate(3264.988281 0)"/>
    <use xlink:href="#MicrosoftYaHei-Bold-28" transform="translate(3364.988281 0)"/>
    <use xlink:href="#MicrosoftYaHei-Bold-3bc" transform="translate(3403.953125 0)"/>
    <use xlink:href="#MicrosoftYaHei-Bold-31" transform="translate(3471.042969 0)"/>
    <use xlink:href="#MicrosoftYaHei-Bold-34" transform="translate(3532.712891 0)"/>
    <use xlink:href="#MicrosoftYaHei-Bold-2c" transform="translate(3594.382812 0)"/>
    <use xlink:href="#MicrosoftYaHei-Bold-3c3" transform="translate(3622.947266 0)"/>
    <use xlink:href="#MicrosoftYaHei-Bold-32" transform="translate(3688.669922 0)"/>
    <use xlink:href="#MicrosoftYaHei-Bold-29" transform="translate(3750.339844 0)"/>
    <use xlink:href="#MicrosoftYaHei-Bold-29" transform="translate(3789.304688 0)"/>
   </g>
   <!-- (环境: 正态-大幅均值改变(μ14,σ2 | 复杂度: 0.02) -->
   <g style="fill: #262626" transform="translate(249.629063 40.9005) scale(0.16 -0.16)">
    <defs>
     <path id="MicrosoftYaHei-Bold-73af" d="M 5163 2916 
Q 5825 1797 6300 878 
L 5544 472 
Q 5081 1400 4550 2413 
L 4550 -834 
L 3706 -834 
L 3706 2013 
Q 3272 1200 2700 484 
Q 2525 641 2378 766 
Q 2347 503 2331 9 
L 175 -328 
L 81 522 
L 863 613 
L 863 2003 
L 213 2003 
L 213 2834 
L 863 2834 
L 863 4066 
L 175 4066 
L 175 4897 
L 2375 4897 
L 2375 4066 
L 1694 4066 
L 1694 2834 
L 2356 2834 
L 2356 2003 
L 1694 2003 
L 1694 728 
L 2306 825 
Q 2134 972 2000 1072 
Q 3194 2478 3675 4084 
L 2606 4084 
L 2606 4916 
L 6075 4916 
L 6075 4084 
L 4556 4084 
Q 4400 3559 4200 3066 
L 4550 3066 
L 4550 2591 
L 5163 2916 
z
" transform="scale(0.015625)"/>
     <path id="MicrosoftYaHei-Bold-5883" d="M 6044 4241 
L 5000 4241 
L 5563 4103 
Q 5450 3944 5322 3778 
L 6231 3778 
L 6231 3153 
L 2113 3153 
L 2113 3778 
L 2863 3778 
L 2638 4109 
L 3228 4241 
L 2256 4241 
L 2256 4866 
L 3591 4866 
Q 3506 5028 3400 5209 
L 4438 5353 
Q 4509 5125 4575 4866 
L 6044 4866 
L 6044 4241 
z
M 3853 3778 
L 4350 3778 
Q 4506 4009 4625 4241 
L 3503 4241 
Q 3681 4041 3853 3778 
z
M 263 -328 
L 100 603 
L 706 775 
L 706 2997 
L 175 2997 
L 175 3853 
L 706 3853 
L 706 5328 
L 1544 5328 
L 1544 3853 
L 1981 3853 
L 1981 2997 
L 1544 2997 
L 1544 1025 
L 2094 1197 
Q 2081 981 2081 759 
Q 2081 538 2094 309 
Q 1213 16 263 -328 
z
M 2244 2878 
L 5894 2878 
L 5894 603 
L 5038 603 
L 5038 141 
Q 5038 -91 5269 -91 
Q 5441 -91 5512 7 
Q 5584 106 5619 584 
Q 5956 428 6319 322 
Q 6284 66 6212 -223 
Q 6141 -513 5908 -652 
Q 5675 -791 5281 -791 
L 5006 -791 
Q 4238 -791 4238 -97 
L 4238 603 
L 3841 603 
Q 3647 -478 2331 -909 
Q 2125 -622 1763 -178 
Q 2781 88 2994 603 
L 2244 603 
L 2244 2878 
z
M 5094 2291 
L 3044 2291 
L 3044 2009 
L 5094 2009 
L 5094 2291 
z
M 5094 1191 
L 5094 1472 
L 3044 1472 
L 3044 1191 
L 5094 1191 
z
" transform="scale(0.015625)"/>
     <path id="MicrosoftYaHei-Bold-7c" d="M 1500 -1622 
L 691 -1622 
L 691 5288 
L 1500 5288 
L 1500 -1622 
z
" transform="scale(0.015625)"/>
     <path id="MicrosoftYaHei-Bold-590d" d="M 5738 1528 
L 5738 1003 
Q 5091 600 4322 259 
Q 5197 78 6306 -16 
Q 6000 -428 5819 -791 
Q 4391 -569 3278 -153 
Q 2125 -559 744 -853 
Q 550 -541 275 -178 
Q 1394 3 2341 256 
Q 1872 500 1478 788 
Q 1069 416 581 116 
Q 363 391 75 691 
Q 925 1194 1459 1816 
L 844 1816 
L 844 3406 
Q 600 3128 325 2872 
Q 238 3266 94 3759 
Q 831 4484 1188 5334 
L 2063 5334 
Q 1978 5144 1888 4959 
L 6181 4959 
L 6181 4334 
L 1538 4334 
Q 1434 4172 1325 4016 
L 5738 4016 
L 5738 1816 
L 2372 1816 
Q 2272 1666 2163 1528 
L 5738 1528 
z
M 4906 3478 
L 1675 3478 
L 1675 3141 
L 4906 3141 
L 4906 3478 
z
M 4906 2353 
L 4906 2691 
L 1675 2691 
L 1675 2353 
L 4906 2353 
z
M 3269 541 
Q 3897 753 4438 1009 
L 2231 1009 
Q 2669 744 3269 541 
z
" transform="scale(0.015625)"/>
     <path id="MicrosoftYaHei-Bold-6742" d="M 5500 4203 
Q 5919 4078 6338 3978 
Q 6269 3328 6188 2984 
Q 6063 2453 5400 2453 
L 4600 2453 
Q 3900 2453 3900 3153 
L 3900 3997 
L 2781 3997 
Q 2588 2603 613 2141 
Q 419 2466 106 2884 
Q 1644 3172 1869 3997 
L 456 3997 
L 456 4753 
L 1981 4753 
Q 2006 5053 2006 5328 
L 2894 5328 
Q 2894 5084 2869 4753 
L 4800 4753 
L 4800 3459 
Q 4800 3203 5056 3203 
L 5206 3203 
Q 5394 3203 5431 3466 
Q 5469 3816 5500 4203 
z
M 188 2072 
L 2800 2072 
L 2800 2666 
L 3706 2666 
L 3706 2072 
L 6175 2072 
L 6175 1309 
L 3706 1309 
L 3706 159 
Q 3706 -684 2900 -766 
Q 2613 -797 2000 -803 
Q 1906 -334 1794 72 
Q 2200 41 2456 41 
Q 2800 41 2800 403 
L 2800 1309 
L 188 1309 
L 188 2072 
z
M 4000 597 
L 4519 1172 
Q 5425 628 6263 34 
L 5725 -634 
Q 4956 -34 4000 597 
z
M 1675 1166 
L 2263 559 
Q 1406 -84 538 -634 
Q 288 -247 63 66 
Q 963 566 1675 1166 
z
" transform="scale(0.015625)"/>
     <path id="MicrosoftYaHei-Bold-5ea6" d="M 5656 1697 
L 5656 1022 
Q 5156 447 4656 97 
Q 5344 -34 6306 -66 
Q 6119 -428 5938 -822 
Q 4556 -653 3719 -353 
Q 2825 -653 1494 -872 
Q 1338 -522 1088 -178 
Q 2100 -128 2888 78 
Q 2369 453 1938 1022 
L 1538 1022 
L 1538 1697 
L 5656 1697 
z
M 1325 2478 
Q 1338 134 700 -884 
Q 356 -553 19 -297 
Q 550 697 525 2591 
L 525 4772 
L 3013 4772 
Q 2944 4953 2831 5209 
L 3869 5359 
Q 3981 5072 4094 4772 
L 6256 4772 
L 6256 4072 
L 1325 4072 
L 1325 2478 
z
M 1463 3684 
L 2144 3684 
L 2144 3947 
L 2944 3947 
L 2944 3684 
L 4494 3684 
L 4494 3947 
L 5294 3947 
L 5294 3684 
L 6144 3684 
L 6144 3009 
L 5294 3009 
L 5294 1991 
L 2144 1991 
L 2144 3009 
L 1463 3009 
L 1463 3684 
z
M 3756 378 
Q 4325 641 4725 1022 
L 2825 1022 
Q 3225 622 3756 378 
z
M 4494 2628 
L 4494 3009 
L 2944 3009 
L 2944 2628 
L 4494 2628 
z
" transform="scale(0.015625)"/>
     <path id="MicrosoftYaHei-Bold-30" d="M 244 2341 
Q 244 3597 706 4259 
Q 1169 4922 2044 4922 
Q 3713 4922 3713 2453 
Q 3713 1238 3259 577 
Q 2806 -84 1950 -84 
Q 244 -84 244 2341 
z
M 1266 2366 
Q 1266 691 1981 691 
Q 2684 691 2684 2416 
Q 2684 4147 2000 4147 
Q 1266 4147 1266 2366 
z
" transform="scale(0.015625)"/>
     <path id="MicrosoftYaHei-Bold-2e" d="M 313 453 
Q 313 688 491 838 
Q 669 988 916 988 
Q 1166 988 1337 834 
Q 1509 681 1509 453 
Q 1509 213 1337 64 
Q 1166 -84 903 -84 
Q 659 -84 486 69 
Q 313 222 313 453 
z
" transform="scale(0.015625)"/>
    </defs>
    <use xlink:href="#MicrosoftYaHei-Bold-28"/>
    <use xlink:href="#MicrosoftYaHei-Bold-73af" transform="translate(38.964844 0)"/>
    <use xlink:href="#MicrosoftYaHei-Bold-5883" transform="translate(138.964844 0)"/>
    <use xlink:href="#MicrosoftYaHei-Bold-3a" transform="translate(238.964844 0)"/>
    <use xlink:href="#MicrosoftYaHei-Bold-20" transform="translate(267.529297 0)"/>
    <use xlink:href="#MicrosoftYaHei-Bold-6b63" transform="translate(297.314453 0)"/>
    <use xlink:href="#MicrosoftYaHei-Bold-6001" transform="translate(397.314453 0)"/>
    <use xlink:href="#MicrosoftYaHei-Bold-2d" transform="translate(497.314453 0)"/>
    <use xlink:href="#MicrosoftYaHei-Bold-5927" transform="translate(540.966797 0)"/>
    <use xlink:href="#MicrosoftYaHei-Bold-5e45" transform="translate(640.966797 0)"/>
    <use xlink:href="#MicrosoftYaHei-Bold-5747" transform="translate(740.966797 0)"/>
    <use xlink:href="#MicrosoftYaHei-Bold-503c" transform="translate(840.966797 0)"/>
    <use xlink:href="#MicrosoftYaHei-Bold-6539" transform="translate(940.966797 0)"/>
    <use xlink:href="#MicrosoftYaHei-Bold-53d8" transform="translate(1040.966797 0)"/>
    <use xlink:href="#MicrosoftYaHei-Bold-28" transform="translate(1140.966797 0)"/>
    <use xlink:href="#MicrosoftYaHei-Bold-3bc" transform="translate(1179.931641 0)"/>
    <use xlink:href="#MicrosoftYaHei-Bold-31" transform="translate(1247.021484 0)"/>
    <use xlink:href="#MicrosoftYaHei-Bold-34" transform="translate(1308.691406 0)"/>
    <use xlink:href="#MicrosoftYaHei-Bold-2c" transform="translate(1370.361328 0)"/>
    <use xlink:href="#MicrosoftYaHei-Bold-3c3" transform="translate(1398.925781 0)"/>
    <use xlink:href="#MicrosoftYaHei-Bold-32" transform="translate(1464.648438 0)"/>
    <use xlink:href="#MicrosoftYaHei-Bold-20" transform="translate(1526.318359 0)"/>
    <use xlink:href="#MicrosoftYaHei-Bold-7c" transform="translate(1556.103516 0)"/>
    <use xlink:href="#MicrosoftYaHei-Bold-20" transform="translate(1590.234375 0)"/>
    <use xlink:href="#MicrosoftYaHei-Bold-590d" transform="translate(1620.019531 0)"/>
    <use xlink:href="#MicrosoftYaHei-Bold-6742" transform="translate(1720.019531 0)"/>
    <use xlink:href="#MicrosoftYaHei-Bold-5ea6" transform="translate(1820.019531 0)"/>
    <use xlink:href="#MicrosoftYaHei-Bold-3a" transform="translate(1920.019531 0)"/>
    <use xlink:href="#MicrosoftYaHei-Bold-20" transform="translate(1948.583984 0)"/>
    <use xlink:href="#MicrosoftYaHei-Bold-30" transform="translate(1978.369141 0)"/>
    <use xlink:href="#MicrosoftYaHei-Bold-2e" transform="translate(2040.039062 0)"/>
    <use xlink:href="#MicrosoftYaHei-Bold-30" transform="translate(2068.603516 0)"/>
    <use xlink:href="#MicrosoftYaHei-Bold-32" transform="translate(2130.273438 0)"/>
    <use xlink:href="#MicrosoftYaHei-Bold-29" transform="translate(2191.943359 0)"/>
   </g>
  </g>
 </g>
 <defs>
  <clipPath id="p1c8ad1a1ba">
   <rect x="39.801563" y="82.790625" width="809.5" height="376.6825"/>
  </clipPath>
 </defs>
</svg>
