<?xml version="1.0" encoding="utf-8" standalone="no"?>
<!DOCTYPE svg PUBLIC "-//W3C//DTD SVG 1.1//EN"
  "http://www.w3.org/Graphics/SVG/1.1/DTD/svg11.dtd">
<svg xmlns:xlink="http://www.w3.org/1999/xlink" width="702.684pt" height="671.96pt" viewBox="0 0 702.684 671.96" xmlns="http://www.w3.org/2000/svg" version="1.1">
 <metadata>
  <rdf:RDF xmlns:dc="http://purl.org/dc/elements/1.1/" xmlns:cc="http://creativecommons.org/ns#" xmlns:rdf="http://www.w3.org/1999/02/22-rdf-syntax-ns#">
   <cc:Work>
    <dc:type rdf:resource="http://purl.org/dc/dcmitype/StillImage"/>
    <dc:date>2025-07-07T17:08:30.922004</dc:date>
    <dc:format>image/svg+xml</dc:format>
    <dc:creator>
     <cc:Agent>
      <dc:title>Matplotlib v3.10.3, https://matplotlib.org/</dc:title>
     </cc:Agent>
    </dc:creator>
   </cc:Work>
  </rdf:RDF>
 </metadata>
 <defs>
  <style type="text/css">*{stroke-linejoin: round; stroke-linecap: butt}</style>
 </defs>
 <g id="figure_1">
  <g id="patch_1">
   <path d="M 0 671.96 
L 702.684 671.96 
L 702.684 0 
L 0 0 
z
" style="fill: #ffffff"/>
  </g>
  <g id="axes_1">
   <g id="patch_2">
    <path d="M 547.88 410.42 
C 547.88 377.020377 541.301003 343.945524 528.51952 313.088296 
C 515.738038 282.231068 497.002638 254.191561 473.385539 230.574461 
C 449.768439 206.957362 421.728932 188.221962 390.871704 175.44048 
C 360.014476 162.658997 326.939623 156.08 293.54 156.08 
C 260.140377 156.08 227.065524 162.658997 196.208296 175.44048 
C 165.351068 188.221962 137.311561 206.957362 113.694461 230.574461 
C 90.077362 254.191561 71.341962 282.231068 58.56048 313.088296 
C 45.778997 343.945524 39.2 377.020377 39.2 410.42 
C 39.2 443.819623 45.778997 476.894476 58.56048 507.751704 
C 71.341962 538.608932 90.077362 566.648439 113.694461 590.265539 
C 137.311561 613.882638 165.351068 632.618038 196.208296 645.39952 
C 227.065524 658.181003 260.140377 664.76 293.54 664.76 
C 326.939623 664.76 360.014476 658.181003 390.871704 645.39952 
C 421.728932 632.618038 449.768439 613.882638 473.385539 590.265539 
C 497.002638 566.648439 515.738038 538.608932 528.51952 507.751704 
C 541.301003 476.894476 547.88 443.819623 547.88 410.42 
M 293.54 410.42 
C 293.54 410.42 293.54 410.42 293.54 410.42 
C 293.54 410.42 293.54 410.42 293.54 410.42 
C 293.54 410.42 293.54 410.42 293.54 410.42 
C 293.54 410.42 293.54 410.42 293.54 410.42 
C 293.54 410.42 293.54 410.42 293.54 410.42 
C 293.54 410.42 293.54 410.42 293.54 410.42 
C 293.54 410.42 293.54 410.42 293.54 410.42 
C 293.54 410.42 293.54 410.42 293.54 410.42 
C 293.54 410.42 293.54 410.42 293.54 410.42 
C 293.54 410.42 293.54 410.42 293.54 410.42 
C 293.54 410.42 293.54 410.42 293.54 410.42 
C 293.54 410.42 293.54 410.42 293.54 410.42 
C 293.54 410.42 293.54 410.42 293.54 410.42 
C 293.54 410.42 293.54 410.42 293.54 410.42 
C 293.54 410.42 293.54 410.42 293.54 410.42 
C 293.54 410.42 293.54 410.42 293.54 410.42 
z
" style="fill: #ffffff"/>
   </g>
   <g id="matplotlib.axis_1">
    <g id="xtick_1">
     <g id="line2d_1">
      <path d="M 293.54 410.42 
L 547.88 410.42 
" clip-path="url(#pa516ed550d)" style="fill: none; stroke: #cccccc; stroke-width: 0.8; stroke-linecap: round"/>
     </g>
     <g id="text_1">
      <!-- 最终奖励 -->
      <g style="fill: #262626" transform="translate(537.88 413.724688) scale(0.12 -0.12)">
       <defs>
        <path id="MicrosoftYaHei-6700" d="M 169 -28 
Q 475 3 781 38 
L 781 2416 
L 94 2416 
L 94 2791 
L 6288 2791 
L 6288 2416 
L 3025 2416 
L 3025 331 
Q 3325 375 3625 422 
Q 3619 309 3631 22 
Q 3338 -19 3025 -63 
L 3025 -859 
L 2600 -859 
L 2600 -125 
Q 1525 -278 281 -472 
L 169 -28 
z
M 1038 5053 
L 5363 5053 
L 5363 3047 
L 4925 3047 
L 4925 3191 
L 1475 3191 
L 1475 3047 
L 1038 3047 
L 1038 5053 
z
M 3338 1609 
L 3338 1972 
L 5819 1972 
L 5819 1609 
Q 5500 844 4981 278 
Q 5516 -113 6306 -316 
Q 6144 -553 6025 -753 
Q 5219 -488 4666 -34 
Q 4128 -516 3413 -822 
Q 3306 -634 3125 -428 
Q 3834 -156 4347 266 
Q 3825 825 3603 1609 
L 3338 1609 
z
M 1475 3553 
L 4925 3553 
L 4925 3953 
L 1475 3953 
L 1475 3553 
z
M 4925 4691 
L 1475 4691 
L 1475 4291 
L 4925 4291 
L 4925 4691 
z
M 5344 1609 
L 4025 1609 
Q 4222 994 4659 556 
Q 5094 1013 5344 1609 
z
M 2600 269 
L 2600 691 
L 1206 691 
L 1206 88 
Q 1913 172 2600 269 
z
M 1206 1916 
L 2600 1916 
L 2600 2416 
L 1206 2416 
L 1206 1916 
z
M 1206 1053 
L 2600 1053 
L 2600 1553 
L 1206 1553 
L 1206 1053 
z
" transform="scale(0.015625)"/>
        <path id="MicrosoftYaHei-7ec8" d="M 2156 3234 
Q 2944 4253 3356 5366 
L 3825 5209 
Q 3700 4925 3563 4653 
L 5906 4653 
L 5906 4209 
Q 5425 3378 4663 2750 
Q 5381 2259 6350 2097 
Q 6219 1797 6131 1566 
Q 5038 1875 4278 2456 
Q 3447 1878 2331 1503 
Q 2231 1734 2113 1941 
Q 3156 2238 3931 2756 
Q 3434 3228 3119 3847 
Q 2816 3350 2469 2903 
Q 2350 3041 2156 3234 
z
M 888 1528 
Q 1413 1603 2113 1709 
Q 2075 1466 2056 1241 
Q 1344 1141 319 978 
L 219 1434 
Q 594 1828 1163 2794 
Q 506 2753 219 2728 
L 100 3153 
Q 663 3897 1288 5366 
L 1763 5178 
Q 1156 3991 656 3191 
Q 1047 3200 1403 3209 
Q 1638 3625 1900 4122 
L 2369 3916 
Q 1463 2347 888 1528 
z
M 2625 109 
L 2819 547 
Q 3969 234 5675 -297 
L 5444 -791 
Q 3850 -222 2625 109 
z
M 5356 4234 
L 3372 4234 
Q 3750 3513 4303 3028 
Q 4938 3541 5356 4234 
z
M 88 66 
Q 1069 259 2250 547 
Q 2231 203 2231 78 
Q 1375 -109 225 -416 
L 88 66 
z
M 3338 1247 
L 3525 1666 
Q 4469 1384 5413 1047 
L 5206 553 
Q 4275 953 3338 1247 
z
" transform="scale(0.015625)"/>
        <path id="MicrosoftYaHei-5956" d="M 6306 -284 
Q 6119 -528 5944 -803 
Q 4031 -491 3197 859 
Q 2550 -472 406 -878 
Q 281 -666 100 -403 
Q 2175 -84 2709 972 
L 225 972 
L 225 1403 
L 2900 1403 
Q 2969 1600 3019 1822 
L 3531 1822 
Q 3484 1603 3422 1403 
L 6200 1403 
L 6200 972 
L 3647 972 
Q 4472 -169 6306 -284 
z
M 2388 3553 
Q 3181 4228 3588 5334 
L 4056 5241 
Q 3941 4938 3803 4666 
L 5988 4666 
L 5988 4278 
Q 5181 2359 2788 1853 
Q 2706 2072 2531 2316 
Q 3434 2463 4094 2831 
Q 3688 3222 3288 3516 
L 3588 3822 
Q 4056 3481 4491 3084 
Q 5116 3550 5463 4266 
L 3588 4266 
Q 3228 3666 2763 3234 
Q 2588 3428 2388 3553 
z
M 1744 5291 
L 2231 5291 
L 2231 1728 
L 1744 1728 
L 1744 2925 
Q 1231 2694 256 2253 
L 94 2747 
Q 991 3088 1744 3425 
L 1744 5291 
z
M 281 4584 
L 588 4891 
Q 1088 4503 1513 4072 
L 1169 3741 
Q 700 4253 281 4584 
z
" transform="scale(0.015625)"/>
        <path id="MicrosoftYaHei-52b1" d="M 3756 3997 
L 4303 3997 
Q 4316 4669 4319 5297 
L 4775 5297 
Q 4763 4559 4750 3997 
L 6031 3997 
Q 5963 1203 5925 278 
Q 5888 -678 5169 -678 
Q 4969 -678 4444 -666 
Q 4406 -378 4350 -134 
Q 4856 -178 5081 -178 
Q 5425 -178 5456 272 
Q 5513 1266 5563 3528 
L 4741 3528 
Q 4731 3028 4725 2716 
Q 4688 334 3600 -859 
Q 3469 -666 3281 -447 
Q 4238 634 4275 2634 
Q 4288 3091 4297 3528 
L 3756 3528 
L 3756 3997 
z
M 1225 3728 
L 3563 3728 
L 3563 3291 
L 2194 3291 
Q 2184 2784 2172 2372 
L 3375 2372 
Q 3319 766 3275 91 
Q 3206 -628 2581 -628 
Q 2406 -628 2050 -622 
Q 2013 -416 1956 -159 
Q 2306 -197 2475 -197 
Q 2819 -203 2850 216 
Q 2894 797 2931 1959 
L 2153 1959 
Q 2125 1378 2081 1034 
Q 1969 -3 1300 -828 
Q 1175 -659 981 -453 
Q 1531 209 1644 1097 
Q 1728 1641 1756 3291 
L 1225 3291 
L 1225 3728 
z
M 1044 4472 
L 1044 2166 
Q 1044 147 475 -809 
Q 306 -647 94 -478 
Q 588 341 588 2184 
L 588 4909 
L 3663 4909 
L 3663 4472 
L 1044 4472 
z
" transform="scale(0.015625)"/>
       </defs>
       <use xlink:href="#MicrosoftYaHei-6700"/>
       <use xlink:href="#MicrosoftYaHei-7ec8" transform="translate(100 0)"/>
       <use xlink:href="#MicrosoftYaHei-5956" transform="translate(200 0)"/>
       <use xlink:href="#MicrosoftYaHei-52b1" transform="translate(300 0)"/>
      </g>
     </g>
    </g>
    <g id="xtick_2">
     <g id="line2d_2">
      <path d="M 293.54 410.42 
L 420.71 190.155099 
" clip-path="url(#pa516ed550d)" style="fill: none; stroke: #cccccc; stroke-width: 0.8; stroke-linecap: round"/>
     </g>
     <g id="text_2">
      <!-- 奖励提升 -->
      <g style="fill: #262626" transform="translate(403.71 181.335431) scale(0.12 -0.12)">
       <defs>
        <path id="MicrosoftYaHei-63d0" d="M 2569 5041 
L 5688 5041 
L 5688 2572 
L 5238 2572 
L 5238 2753 
L 3019 2753 
L 3019 2572 
L 2569 2572 
L 2569 5041 
z
M 1594 -559 
Q 2475 178 2581 1553 
L 3050 1553 
Q 3019 1116 2922 734 
Q 3319 128 3956 -84 
L 3956 1797 
L 2025 1797 
L 2025 2209 
L 6238 2209 
L 6238 1797 
L 4425 1797 
L 4425 1097 
L 5994 1097 
L 5994 697 
L 4425 697 
L 4425 -184 
Q 4850 -234 6313 -178 
Q 6300 -209 6169 -641 
Q 5425 -659 4625 -622 
Q 3363 -606 2769 266 
Q 2506 -388 2006 -853 
Q 1819 -697 1594 -559 
z
M 81 2003 
Q 481 2175 888 2366 
L 888 3697 
L 131 3697 
L 131 4122 
L 888 4122 
L 888 5284 
L 1363 5284 
L 1363 4122 
L 2163 4122 
L 2163 3697 
L 1363 3697 
L 1363 2597 
Q 1722 2775 2081 2972 
Q 2100 2728 2131 2472 
Q 1747 2281 1363 2088 
L 1363 -91 
Q 1363 -697 900 -747 
Q 575 -778 169 -766 
Q 131 -503 88 -247 
Q 431 -284 675 -284 
Q 888 -284 888 -53 
L 888 1844 
Q 513 1650 144 1453 
L 81 2003 
z
M 3019 3153 
L 5238 3153 
L 5238 3703 
L 3019 3703 
L 3019 3153 
z
M 5238 4641 
L 3019 4641 
L 3019 4097 
L 5238 4097 
L 5238 4641 
z
" transform="scale(0.015625)"/>
        <path id="MicrosoftYaHei-5347" d="M 144 2809 
L 1769 2809 
L 1769 4309 
Q 1113 4244 369 4184 
Q 338 4403 281 4659 
Q 2238 4803 3663 5047 
L 3781 4566 
Q 3106 4459 2281 4366 
L 2281 2809 
L 4275 2809 
L 4275 5284 
L 4788 5284 
L 4788 2809 
L 6275 2809 
L 6275 2322 
L 4788 2322 
L 4788 -784 
L 4275 -784 
L 4275 2322 
L 2278 2322 
Q 2263 1019 1956 441 
Q 1619 -241 625 -866 
Q 513 -716 275 -428 
Q 1213 153 1500 709 
Q 1756 1169 1769 2322 
L 144 2322 
L 144 2809 
z
" transform="scale(0.015625)"/>
       </defs>
       <use xlink:href="#MicrosoftYaHei-5956"/>
       <use xlink:href="#MicrosoftYaHei-52b1" transform="translate(100 0)"/>
       <use xlink:href="#MicrosoftYaHei-63d0" transform="translate(200 0)"/>
       <use xlink:href="#MicrosoftYaHei-5347" transform="translate(300 0)"/>
      </g>
     </g>
    </g>
    <g id="xtick_3">
     <g id="line2d_3">
      <path d="M 293.54 410.42 
L 166.37 190.155099 
" clip-path="url(#pa516ed550d)" style="fill: none; stroke: #cccccc; stroke-width: 0.8; stroke-linecap: round"/>
     </g>
     <g id="text_3">
      <!-- 执行效率 -->
      <g style="fill: #262626" transform="translate(135.37 174.088368) scale(0.12 -0.12)">
       <defs>
        <path id="MicrosoftYaHei-6267" d="M 2225 2272 
L 2519 2647 
Q 2788 2472 3059 2294 
Q 3128 2856 3147 3622 
L 2406 3622 
L 2406 4097 
L 3156 4097 
Q 3169 4672 3175 5303 
L 3663 5303 
Q 3656 4653 3644 4097 
L 5363 4097 
Q 5350 3228 5344 2341 
Q 5319 616 5488 34 
Q 5531 -103 5618 -103 
Q 5706 -103 5744 59 
Q 5831 409 5913 1059 
Q 6156 934 6375 878 
Q 6288 253 6175 -159 
Q 6025 -691 5613 -691 
Q 5194 -691 5013 -103 
Q 4869 397 4875 1847 
Q 4869 2672 4869 3622 
L 3634 3622 
Q 3616 2709 3513 1988 
Q 3994 1663 4481 1322 
L 4163 891 
Q 3791 1172 3416 1444 
Q 3113 100 2088 -847 
Q 1931 -634 1713 -422 
Q 2725 506 2975 1756 
Q 2600 2019 2225 2272 
z
M 88 1966 
Q 525 2069 969 2181 
L 969 3647 
L 144 3647 
L 144 4097 
L 969 4097 
L 969 5303 
L 1431 5303 
L 1431 4097 
L 2163 4097 
L 2163 3647 
L 1431 3647 
L 1431 2303 
Q 1772 2394 2113 2491 
Q 2125 2216 2156 2016 
L 1431 1813 
L 1431 -78 
Q 1431 -759 875 -759 
Q 606 -759 219 -747 
Q 194 -516 138 -247 
Q 538 -291 694 -291 
Q 969 -291 969 3 
L 969 1678 
Q 559 1559 150 1441 
L 88 1966 
z
" transform="scale(0.015625)"/>
        <path id="MicrosoftYaHei-884c" d="M 2363 2978 
L 6319 2978 
L 6319 2509 
L 5106 2509 
L 5106 66 
Q 5106 -709 4325 -709 
Q 3800 -709 3256 -703 
Q 3219 -453 3163 -141 
Q 3650 -191 4144 -191 
Q 4575 -191 4575 234 
L 4575 2509 
L 2363 2509 
L 2363 2978 
z
M 100 1578 
Q 1069 2372 1863 3809 
L 2300 3541 
Q 1978 2984 1619 2500 
L 1619 -809 
L 1100 -809 
L 1100 1856 
Q 725 1431 319 1072 
Q 219 1334 100 1578 
z
M 2725 4866 
L 5969 4866 
L 5969 4397 
L 2725 4397 
L 2725 4866 
z
M 131 3559 
Q 1125 4328 1731 5347 
L 2181 5072 
Q 1456 3959 381 3078 
Q 269 3316 131 3559 
z
" transform="scale(0.015625)"/>
        <path id="MicrosoftYaHei-6548" d="M 4088 5334 
L 4581 5253 
Q 4453 4653 4259 4122 
L 6269 4122 
L 6269 3697 
L 5838 3697 
Q 5672 1869 5050 841 
Q 5572 128 6388 -347 
Q 6188 -622 6050 -841 
Q 5250 -313 4728 391 
Q 4153 -328 3300 -891 
Q 3163 -709 2944 -497 
Q 3872 125 4428 853 
Q 3897 1797 3753 3025 
Q 3603 2766 3431 2528 
Q 3300 2716 3119 2928 
Q 3844 3941 4088 5334 
z
M 694 1909 
L 1031 2203 
Q 1456 1800 1863 1394 
Q 2138 1847 2350 2378 
L 2800 2141 
Q 2538 1550 2209 1047 
Q 2659 591 3088 134 
L 2669 -222 
Q 2275 225 1913 625 
Q 1250 -238 356 -809 
Q 238 -641 31 -397 
Q 947 128 1584 981 
Q 1113 1491 694 1909 
z
M 5344 3697 
L 4125 3697 
Q 4222 2322 4741 1338 
Q 5263 2306 5344 3697 
z
M 175 4297 
L 3325 4297 
L 3325 3872 
L 175 3872 
L 175 4297 
z
M 1063 3628 
L 1475 3372 
Q 963 2641 413 1953 
Q 256 2084 44 2241 
Q 506 2797 1063 3628 
z
M 2344 3609 
Q 2744 3197 3263 2591 
L 2894 2278 
Q 2506 2759 2006 3341 
L 2344 3609 
z
M 1306 5141 
L 1731 5359 
Q 1988 4953 2206 4547 
L 1769 4322 
Q 1544 4772 1306 5141 
z
" transform="scale(0.015625)"/>
        <path id="MicrosoftYaHei-7387" d="M 2525 2009 
Q 2622 2016 3928 2081 
Q 3772 2300 3625 2491 
L 3963 2703 
Q 4413 2203 4794 1653 
L 4394 1403 
Q 4284 1569 4178 1725 
Q 2991 1659 2213 1597 
Q 2075 1584 1881 1541 
L 1725 1966 
Q 1913 2028 2006 2084 
Q 2534 2441 3050 2913 
Q 2597 2894 2275 2866 
Q 2144 2847 1988 2809 
L 1800 3191 
Q 1956 3247 2088 3366 
Q 2509 3722 2875 4228 
L 231 4228 
L 231 4666 
L 3031 4666 
Q 2878 4944 2744 5153 
L 3194 5372 
Q 3438 5000 3616 4666 
L 6175 4666 
L 6175 4228 
L 3053 4228 
L 3350 4072 
Q 2844 3553 2494 3247 
Q 2850 3256 3425 3269 
Q 3675 3519 3925 3797 
L 4356 3547 
Q 3363 2603 2525 2009 
z
M 144 991 
L 2994 991 
L 2994 1541 
L 3488 1541 
L 3488 991 
L 6275 991 
L 6275 553 
L 3488 553 
L 3488 -853 
L 2994 -853 
L 2994 553 
L 144 553 
L 144 991 
z
M 1719 2672 
L 1944 2303 
Q 1200 1866 425 1409 
L 163 1828 
Q 813 2134 1719 2672 
z
M 4856 2678 
Q 5750 2172 6250 1816 
L 5975 1409 
Q 5331 1909 4600 2341 
L 4856 2678 
z
M 5994 3591 
Q 5519 3178 4963 2809 
L 4644 3141 
Q 5244 3534 5638 3928 
L 5994 3591 
z
M 363 3634 
L 681 3941 
Q 1200 3528 1588 3159 
L 1238 2816 
Q 875 3197 363 3634 
z
" transform="scale(0.015625)"/>
       </defs>
       <use xlink:href="#MicrosoftYaHei-6267"/>
       <use xlink:href="#MicrosoftYaHei-884c" transform="translate(100 0)"/>
       <use xlink:href="#MicrosoftYaHei-6548" transform="translate(200 0)"/>
       <use xlink:href="#MicrosoftYaHei-7387" transform="translate(300 0)"/>
      </g>
      <!-- (时间越短越好) -->
      <g style="fill: #262626" transform="translate(119.36125 188.582493) scale(0.12 -0.12)">
       <defs>
        <path id="MicrosoftYaHei-28" d="M 1531 -1100 
Q 478 100 478 1847 
Q 478 3594 1531 4841 
L 2072 4841 
Q 1016 3544 1016 1853 
Q 1016 166 2066 -1100 
L 1531 -1100 
z
" transform="scale(0.015625)"/>
        <path id="MicrosoftYaHei-65f6" d="M 344 4728 
L 2500 4728 
L 2500 -366 
L 2006 -366 
L 2006 153 
L 838 153 
L 838 -441 
L 344 -441 
L 344 4728 
z
M 2706 3941 
L 4925 3941 
L 4925 5322 
L 5425 5322 
L 5425 3941 
L 6313 3941 
L 6313 3478 
L 5425 3478 
L 5425 116 
Q 5425 -722 4625 -722 
Q 4263 -722 3563 -703 
Q 3531 -478 3463 -178 
Q 4119 -228 4488 -228 
Q 4925 -228 4925 216 
L 4925 3478 
L 2706 3478 
L 2706 3941 
z
M 838 616 
L 2006 616 
L 2006 2234 
L 838 2234 
L 838 616 
z
M 2006 4266 
L 838 4266 
L 838 2684 
L 2006 2684 
L 2006 4266 
z
M 3406 2878 
Q 3906 1966 4163 1422 
Q 4000 1347 3663 1172 
Q 3419 1766 2963 2653 
L 3406 2878 
z
" transform="scale(0.015625)"/>
        <path id="MicrosoftYaHei-95f4" d="M 1863 3647 
L 4513 3647 
L 4513 553 
L 2313 553 
L 2313 166 
L 1863 166 
L 1863 3647 
z
M 2388 4453 
L 2388 4922 
L 6013 4922 
L 6013 -28 
Q 6013 -816 5119 -816 
Q 4756 -816 4169 -803 
Q 4144 -616 4069 -297 
Q 4588 -334 5056 -334 
Q 5525 -334 5525 122 
L 5525 4453 
L 2388 4453 
z
M 419 4084 
L 906 4084 
L 906 -816 
L 419 -816 
L 419 4084 
z
M 2313 997 
L 4063 997 
L 4063 1884 
L 2313 1884 
L 2313 997 
z
M 4063 3203 
L 2313 3203 
L 2313 2328 
L 4063 2328 
L 4063 3203 
z
M 744 5003 
L 1100 5322 
Q 1575 4872 1981 4447 
L 1575 4091 
Q 1194 4541 744 5003 
z
" transform="scale(0.015625)"/>
        <path id="MicrosoftYaHei-8d8a" d="M 119 -334 
Q 600 534 619 2241 
L 1050 2216 
Q 1044 1597 981 1072 
Q 1206 606 1563 316 
L 1563 2616 
L 138 2616 
L 138 3047 
L 1375 3047 
L 1375 3966 
L 356 3966 
L 356 4397 
L 1375 4397 
L 1375 5303 
L 1813 5303 
L 1813 4397 
L 2775 4397 
L 2775 3966 
L 1813 3966 
L 1813 3047 
L 2875 3047 
L 2875 2616 
L 2000 2616 
L 2000 1628 
L 2800 1628 
L 2800 1197 
L 2000 1197 
L 2000 47 
Q 2459 -159 3069 -166 
Q 4519 -184 6313 -141 
Q 6200 -422 6138 -634 
Q 4363 -634 2938 -616 
Q 1456 -594 881 463 
Q 716 -338 381 -853 
Q 256 -559 119 -334 
z
M 3550 409 
Q 4125 956 4553 1563 
Q 4303 2409 4228 3716 
L 3494 3716 
L 3494 1591 
Q 3775 1834 4131 2159 
Q 4169 1916 4225 1697 
Q 3856 1384 3481 1028 
Q 3344 897 3188 697 
L 2875 1016 
Q 3069 1266 3069 1622 
L 3069 4128 
L 4206 4128 
Q 4188 4709 4188 5322 
L 4613 5322 
Q 4606 4753 4631 4128 
L 6175 4128 
L 6175 3716 
L 4653 3716 
Q 4700 2753 4872 2050 
Q 5219 2641 5438 3284 
L 5856 3109 
Q 5516 2241 5038 1506 
Q 5159 1181 5319 934 
Q 5431 747 5538 747 
Q 5631 747 5669 978 
Q 5725 1378 5775 1941 
Q 6063 1834 6206 1784 
Q 6138 1103 6075 766 
Q 5981 228 5600 228 
Q 5263 228 5013 578 
Q 4856 788 4731 1069 
Q 4347 553 3888 116 
Q 3769 259 3550 409 
z
M 4950 5066 
L 5275 5303 
Q 5544 5009 5894 4572 
L 5525 4316 
Q 5206 4766 4950 5066 
z
" transform="scale(0.015625)"/>
        <path id="MicrosoftYaHei-77ed" d="M 2719 3816 
L 5844 3816 
L 5844 1541 
L 5388 1541 
L 5388 1716 
L 3175 1716 
L 3175 1541 
L 2719 1541 
L 2719 3816 
z
M 81 2591 
L 1131 2591 
L 1131 3947 
L 819 3947 
Q 666 3488 500 3116 
Q 238 3222 63 3278 
Q 469 4178 738 5341 
L 1188 5247 
Q 1075 4784 953 4378 
L 2388 4378 
L 2388 3947 
L 1581 3947 
L 1581 2591 
L 2475 2591 
L 2475 2159 
L 1572 2159 
Q 1556 1797 1506 1466 
L 1819 1634 
Q 2194 1041 2581 303 
L 2125 53 
Q 1850 656 1478 1300 
Q 1234 -28 406 -834 
Q 281 -666 88 -441 
Q 1028 522 1119 2159 
L 81 2159 
L 81 2591 
z
M 5388 3384 
L 3175 3384 
L 3175 2147 
L 5388 2147 
L 5388 3384 
z
M 2238 -153 
L 4463 -153 
Q 4903 678 5200 1391 
L 5713 1153 
Q 5331 459 4975 -153 
L 6269 -153 
L 6269 -591 
L 2238 -591 
L 2238 -153 
z
M 2438 5009 
L 6194 5009 
L 6194 4572 
L 2438 4572 
L 2438 5009 
z
M 2906 1184 
L 3325 1409 
Q 3694 809 3988 241 
L 3519 -3 
Q 3213 647 2906 1184 
z
" transform="scale(0.015625)"/>
        <path id="MicrosoftYaHei-597d" d="M 2725 322 
L 2356 -72 
Q 1997 259 1653 569 
Q 1184 -141 413 -741 
Q 281 -547 125 -334 
Q 869 206 1303 881 
Q 816 1309 363 1684 
Q 588 2478 775 3534 
L 113 3534 
L 113 4003 
L 853 4003 
Q 953 4622 1044 5322 
L 1550 5253 
Q 1438 4566 1338 4003 
L 2519 4003 
L 2519 3597 
Q 2378 1894 1906 994 
Q 2319 663 2725 322 
z
M 2513 2509 
L 4231 2509 
L 4231 3484 
Q 4850 4009 5363 4434 
L 2738 4434 
L 2738 4891 
L 6056 4891 
L 6056 4397 
Q 5381 3822 4725 3266 
L 4725 2509 
L 6313 2509 
L 6313 2053 
L 4725 2053 
L 4725 53 
Q 4725 -709 3919 -709 
Q 3656 -709 3100 -697 
Q 3069 -459 3019 -191 
Q 3581 -241 3850 -247 
Q 4231 -247 4231 122 
L 4231 2053 
L 2513 2053 
L 2513 2509 
z
M 2038 3534 
L 1253 3534 
Q 1031 2341 869 1816 
Q 1200 1556 1531 1294 
Q 1953 2166 2038 3534 
z
" transform="scale(0.015625)"/>
        <path id="MicrosoftYaHei-29" d="M 78 -1100 
Q 1131 163 1131 1853 
Q 1131 3547 72 4841 
L 616 4841 
Q 1672 3603 1672 1847 
Q 1672 91 616 -1100 
L 78 -1100 
z
" transform="scale(0.015625)"/>
       </defs>
       <use xlink:href="#MicrosoftYaHei-28"/>
       <use xlink:href="#MicrosoftYaHei-65f6" transform="translate(33.398438 0)"/>
       <use xlink:href="#MicrosoftYaHei-95f4" transform="translate(133.398438 0)"/>
       <use xlink:href="#MicrosoftYaHei-8d8a" transform="translate(233.398438 0)"/>
       <use xlink:href="#MicrosoftYaHei-77ed" transform="translate(333.398438 0)"/>
       <use xlink:href="#MicrosoftYaHei-8d8a" transform="translate(433.398438 0)"/>
       <use xlink:href="#MicrosoftYaHei-597d" transform="translate(533.398438 0)"/>
       <use xlink:href="#MicrosoftYaHei-29" transform="translate(633.398438 0)"/>
      </g>
     </g>
    </g>
    <g id="xtick_4">
     <g id="line2d_4">
      <path d="M 293.54 410.42 
L 39.2 410.42 
" clip-path="url(#pa516ed550d)" style="fill: none; stroke: #cccccc; stroke-width: 0.8; stroke-linecap: round"/>
     </g>
     <g id="text_4">
      <!-- 正确率 -->
      <g style="fill: #262626" transform="translate(7.2 413.724687) scale(0.12 -0.12)">
       <defs>
        <path id="MicrosoftYaHei-6b63" d="M 88 66 
L 1106 66 
L 1106 3416 
L 1644 3416 
L 1644 66 
L 3231 66 
L 3231 4309 
L 375 4309 
L 375 4797 
L 6063 4797 
L 6063 4309 
L 3769 4309 
L 3769 2672 
L 5850 2672 
L 5850 2191 
L 3769 2191 
L 3769 66 
L 6313 66 
L 6313 -422 
L 88 -422 
L 88 66 
z
" transform="scale(0.015625)"/>
        <path id="MicrosoftYaHei-786e" d="M 2075 3453 
Q 2956 4334 3456 5359 
L 3931 5272 
Q 3781 4991 3619 4722 
L 5438 4722 
L 5438 4328 
L 4909 3666 
L 6063 3666 
L 6063 -53 
Q 6063 -728 5475 -728 
Q 5144 -728 4906 -716 
Q 4869 -497 4813 -259 
Q 5156 -291 5331 -291 
Q 5619 -291 5619 16 
L 5619 734 
L 4588 734 
L 4588 -659 
L 4144 -659 
L 4144 734 
L 3113 734 
Q 2944 -263 2444 -884 
Q 2288 -703 2081 -509 
Q 2756 291 2756 1841 
L 2756 3506 
Q 2597 3316 2431 3134 
Q 2281 3278 2075 3453 
z
M 31 1691 
Q 741 2834 1066 4291 
L 231 4291 
L 231 4716 
L 2469 4716 
L 2469 4291 
L 1509 4291 
Q 1356 3613 1128 2991 
L 2200 2991 
L 2200 128 
L 1150 128 
L 1150 -347 
L 738 -347 
L 738 2059 
Q 559 1691 350 1347 
Q 225 1497 31 1691 
z
M 1788 541 
L 1788 2578 
L 1150 2578 
L 1150 541 
L 1788 541 
z
M 4875 4322 
L 3366 4322 
Q 3138 3981 2884 3666 
L 4384 3666 
L 4875 4322 
z
M 4588 1134 
L 5619 1134 
L 5619 1991 
L 4588 1991 
L 4588 1134 
z
M 5619 3241 
L 4588 3241 
L 4588 2391 
L 5619 2391 
L 5619 3241 
z
M 3166 1134 
L 4144 1134 
L 4144 1991 
L 3200 1991 
Q 3200 1841 3166 1134 
z
M 3200 2391 
L 4144 2391 
L 4144 3241 
L 3200 3241 
L 3200 2391 
z
" transform="scale(0.015625)"/>
       </defs>
       <use xlink:href="#MicrosoftYaHei-6b63"/>
       <use xlink:href="#MicrosoftYaHei-786e" transform="translate(100 0)"/>
       <use xlink:href="#MicrosoftYaHei-7387" transform="translate(200 0)"/>
      </g>
     </g>
    </g>
    <g id="xtick_5">
     <g id="line2d_5">
      <path d="M 293.54 410.42 
L 166.37 630.684901 
" clip-path="url(#pa516ed550d)" style="fill: none; stroke: #cccccc; stroke-width: 0.8; stroke-linecap: round"/>
     </g>
     <g id="text_5">
      <!-- 初始稳定性 -->
      <g style="fill: #262626" transform="translate(129.37 646.113944) scale(0.12 -0.12)">
       <defs>
        <path id="MicrosoftYaHei-521d" d="M 2513 4778 
L 5988 4778 
Q 5894 1509 5844 509 
Q 5819 -659 4844 -647 
Q 4525 -647 3925 -628 
Q 3881 -334 3825 -66 
Q 4425 -122 4788 -122 
Q 5300 -141 5325 541 
Q 5388 1522 5456 4297 
L 4038 4297 
Q 4000 3084 3944 2334 
Q 3806 403 2250 -828 
Q 2088 -634 1850 -428 
Q 3300 691 3419 2372 
Q 3491 3200 3509 4297 
L 2513 4297 
L 2513 4778 
z
M 150 3691 
L 150 4141 
L 2219 4141 
L 2219 3678 
Q 1872 3081 1481 2569 
L 1481 2375 
Q 1631 2269 1784 2163 
Q 2094 2575 2363 3022 
L 2775 2759 
Q 2506 2372 2141 1906 
Q 2453 1678 2769 1441 
L 2450 1059 
Q 1972 1453 1481 1838 
L 1481 -797 
L 1006 -797 
L 1006 1997 
Q 638 1591 231 1247 
Q 163 1491 63 1784 
Q 963 2491 1663 3691 
L 150 3691 
z
M 744 5134 
L 1181 5353 
Q 1413 4984 1669 4497 
L 1206 4259 
Q 975 4759 744 5134 
z
" transform="scale(0.015625)"/>
        <path id="MicrosoftYaHei-59cb" d="M 2838 1984 
L 5850 1984 
L 5850 -828 
L 5375 -828 
L 5375 -391 
L 3313 -391 
L 3313 -834 
L 2838 -834 
L 2838 1984 
z
M 2638 222 
L 2269 -191 
Q 1928 156 1588 484 
Q 1125 -184 381 -778 
Q 250 -584 94 -372 
Q 809 156 1244 809 
Q 797 1228 350 1616 
Q 572 2456 753 3497 
L 113 3497 
L 113 3966 
L 834 3966 
Q 934 4597 1025 5297 
L 1531 5222 
Q 1428 4544 1325 3966 
L 2488 3966 
L 2488 3503 
Q 2341 1828 1863 931 
Q 2288 559 2638 222 
z
M 5225 4484 
Q 5863 3478 6325 2522 
L 5831 2291 
Q 5700 2591 5559 2884 
Q 4572 2825 3200 2697 
Q 3025 2678 2756 2591 
L 2525 3041 
Q 2744 3172 2900 3391 
Q 3406 4147 3925 5334 
L 4450 5166 
Q 3881 4078 3319 3191 
Q 4569 3269 5350 3306 
Q 5097 3803 4819 4284 
L 5225 4484 
z
M 5375 1547 
L 3313 1547 
L 3313 34 
L 5375 34 
L 5375 1547 
z
M 2006 3497 
L 1241 3497 
Q 1044 2463 850 1778 
Q 1191 1503 1497 1247 
Q 1922 2119 2006 3497 
z
" transform="scale(0.015625)"/>
        <path id="MicrosoftYaHei-7a33" d="M 2444 1778 
L 5450 1778 
L 5450 2316 
L 2563 2316 
L 2563 2728 
L 5450 2728 
L 5450 3259 
L 2575 3259 
L 2575 3653 
L 2488 3566 
Q 2331 3716 2119 3878 
Q 2831 4522 3275 5366 
L 3763 5272 
Q 3616 5009 3456 4766 
L 5313 4766 
L 5313 4359 
Q 5063 4022 4800 3684 
L 5925 3684 
L 5925 1128 
L 5450 1128 
L 5450 1353 
L 2444 1353 
L 2444 1778 
z
M 31 991 
Q 619 1803 988 3034 
L 144 3034 
L 144 3472 
L 1025 3472 
L 1025 4466 
Q 653 4431 269 4403 
Q 238 4603 181 4853 
Q 1200 4916 2231 5059 
L 2331 4597 
Q 1916 4550 1488 4506 
L 1488 3472 
L 2269 3472 
L 2269 3034 
L 1488 3034 
L 1488 2288 
L 1744 2491 
Q 2100 2128 2413 1741 
L 2044 1434 
Q 1772 1822 1488 2144 
L 1488 -834 
L 1025 -834 
L 1025 1938 
Q 703 1072 244 466 
Q 150 728 31 991 
z
M 2950 991 
L 3425 991 
L 3425 97 
Q 3425 -259 3825 -259 
L 4425 -259 
Q 4819 -259 4888 53 
Q 4944 297 4981 634 
Q 5188 541 5456 447 
Q 5394 128 5319 -147 
Q 5181 -691 4563 -691 
L 3731 -691 
Q 2950 -691 2950 72 
L 2950 991 
z
M 4744 4353 
L 3172 4353 
Q 2903 3991 2603 3684 
L 4259 3684 
Q 4525 4038 4744 4353 
z
M 2275 991 
L 2694 841 
Q 2481 178 2200 -409 
Q 2000 -303 1769 -216 
Q 2069 322 2275 991 
z
M 5419 797 
L 5825 978 
Q 6175 309 6388 -147 
L 5956 -353 
Q 5750 153 5419 797 
z
M 3663 1097 
L 4000 1334 
Q 4369 909 4650 522 
L 4269 253 
Q 3994 691 3663 1097 
z
" transform="scale(0.015625)"/>
        <path id="MicrosoftYaHei-5b9a" d="M 81 -384 
Q 1119 509 1281 2241 
L 1806 2159 
Q 1731 1581 1578 1081 
Q 2063 50 3081 -103 
L 3081 2647 
L 225 2647 
L 225 3116 
L 6163 3116 
L 6163 2647 
L 3600 2647 
L 3600 1634 
L 5775 1634 
L 5775 1172 
L 3600 1172 
L 3600 -138 
Q 4844 -169 6306 -116 
Q 6200 -359 6125 -634 
Q 4594 -653 3450 -616 
Q 2041 -616 1378 528 
Q 1022 -300 413 -872 
Q 269 -628 81 -384 
z
M 450 4566 
L 3116 4566 
Q 2931 4834 2725 5091 
L 3200 5347 
Q 3444 5066 3731 4716 
L 3450 4566 
L 5981 4566 
L 5981 3378 
L 5488 3378 
L 5488 4097 
L 944 4097 
L 944 3384 
L 450 3384 
L 450 4566 
z
" transform="scale(0.015625)"/>
        <path id="MicrosoftYaHei-6027" d="M 1963 -153 
L 3988 -153 
L 3988 1522 
L 2375 1522 
L 2375 1959 
L 3988 1959 
L 3988 3472 
L 2975 3472 
Q 2744 2878 2438 2291 
Q 2169 2509 2019 2578 
Q 2644 3709 2894 4891 
L 3388 4759 
Q 3281 4328 3138 3909 
L 3988 3909 
L 3988 5284 
L 4481 5284 
L 4481 3909 
L 6125 3909 
L 6125 3472 
L 4481 3472 
L 4481 1959 
L 6000 1959 
L 6000 1522 
L 4481 1522 
L 4481 -153 
L 6319 -153 
L 6319 -591 
L 1963 -591 
L 1963 -153 
z
M 988 5291 
L 1469 5291 
L 1469 4091 
L 1738 4241 
Q 2063 3734 2294 3291 
L 1906 3041 
Q 1688 3503 1469 3859 
L 1469 -872 
L 988 -872 
L 988 5291 
z
M 406 3878 
L 819 3784 
Q 706 3028 506 2178 
Q 338 2241 75 2297 
Q 263 2978 406 3878 
z
" transform="scale(0.015625)"/>
       </defs>
       <use xlink:href="#MicrosoftYaHei-521d"/>
       <use xlink:href="#MicrosoftYaHei-59cb" transform="translate(100 0)"/>
       <use xlink:href="#MicrosoftYaHei-7a33" transform="translate(200 0)"/>
       <use xlink:href="#MicrosoftYaHei-5b9a" transform="translate(300 0)"/>
       <use xlink:href="#MicrosoftYaHei-6027" transform="translate(400 0)"/>
      </g>
     </g>
    </g>
    <g id="xtick_6">
     <g id="line2d_6">
      <path d="M 293.54 410.42 
L 420.71 630.684901 
" clip-path="url(#pa516ed550d)" style="fill: none; stroke: #cccccc; stroke-width: 0.8; stroke-linecap: round"/>
     </g>
     <g id="text_6">
      <!-- 适应后稳定性 -->
      <g style="fill: #262626" transform="translate(391.71 646.113944) scale(0.12 -0.12)">
       <defs>
        <path id="MicrosoftYaHei-9002" d="M 2425 2441 
L 3825 2441 
L 3825 3222 
L 1875 3222 
L 1875 3672 
L 3825 3672 
L 3825 4491 
Q 3050 4444 2225 4397 
Q 2194 4597 2138 4841 
Q 4288 4934 5844 5097 
L 5938 4641 
Q 5153 4581 4313 4525 
L 4313 3672 
L 6269 3672 
L 6269 3222 
L 4313 3222 
L 4313 2441 
L 5725 2441 
L 5725 216 
L 5250 216 
L 5250 503 
L 2900 503 
L 2900 216 
L 2425 216 
L 2425 2441 
z
M 2663 -203 
L 4444 -228 
L 6288 -178 
Q 6194 -434 6113 -672 
L 4344 -672 
L 2581 -647 
Q 1513 -634 1069 84 
Q 813 -153 319 -753 
L 63 -234 
Q 631 313 875 541 
L 875 2641 
L 131 2641 
L 131 3103 
L 1356 3103 
L 1356 403 
Q 1744 -191 2663 -203 
z
M 5250 2016 
L 2900 2016 
L 2900 928 
L 5250 928 
L 5250 2016 
z
M 856 5203 
Q 1325 4603 1731 4022 
L 1288 3709 
Q 894 4334 456 4934 
L 856 5203 
z
" transform="scale(0.015625)"/>
        <path id="MicrosoftYaHei-5e94" d="M 2969 5134 
L 3425 5378 
Q 3694 5034 3938 4634 
L 3634 4459 
L 6169 4459 
L 6169 3984 
L 1300 3984 
L 1300 2453 
Q 1300 241 388 -853 
Q 238 -647 25 -422 
Q 775 416 775 2441 
L 775 4459 
L 3419 4459 
Q 3216 4803 2969 5134 
z
M 1263 -9 
L 4153 -9 
Q 4641 1238 5188 3403 
L 5731 3253 
Q 5147 1191 4694 -9 
L 6238 -9 
L 6238 -484 
L 1263 -484 
L 1263 -9 
z
M 1600 3059 
L 2075 3222 
Q 2463 2084 2825 672 
L 2294 509 
Q 2006 1747 1600 3059 
z
M 3106 3372 
L 3588 3509 
Q 3913 2384 4163 991 
L 3613 847 
Q 3431 2084 3106 3372 
z
" transform="scale(0.015625)"/>
        <path id="MicrosoftYaHei-540e" d="M 1888 1984 
L 5688 1984 
L 5688 -828 
L 5188 -828 
L 5188 -403 
L 2388 -403 
L 2388 -828 
L 1888 -828 
L 1888 1984 
z
M 1313 2991 
Q 1313 1272 1138 672 
Q 963 -16 394 -847 
Q 250 -634 50 -409 
Q 494 222 650 859 
Q 806 1472 806 2659 
L 806 4766 
Q 3544 4853 5631 5141 
L 5931 4622 
Q 3344 4359 1313 4284 
L 1313 3459 
L 6263 3459 
L 6263 2991 
L 1313 2991 
z
M 5188 1528 
L 2388 1528 
L 2388 41 
L 5188 41 
L 5188 1528 
z
" transform="scale(0.015625)"/>
       </defs>
       <use xlink:href="#MicrosoftYaHei-9002"/>
       <use xlink:href="#MicrosoftYaHei-5e94" transform="translate(100 0)"/>
       <use xlink:href="#MicrosoftYaHei-540e" transform="translate(200 0)"/>
       <use xlink:href="#MicrosoftYaHei-7a33" transform="translate(300 0)"/>
       <use xlink:href="#MicrosoftYaHei-5b9a" transform="translate(400 0)"/>
       <use xlink:href="#MicrosoftYaHei-6027" transform="translate(500 0)"/>
      </g>
     </g>
    </g>
   </g>
   <g id="matplotlib.axis_2">
    <g id="ytick_1">
     <g id="line2d_7">
      <path d="M 357.125 410.42 
C 357.125 402.070094 355.480251 393.801381 352.28488 386.087074 
C 349.08951 378.372767 344.40566 371.36289 338.501385 365.458615 
C 332.59711 359.55434 325.587233 354.87049 317.872926 351.67512 
C 310.158619 348.479749 301.889906 346.835 293.54 346.835 
C 285.190094 346.835 276.921381 348.479749 269.207074 351.67512 
C 261.492767 354.87049 254.48289 359.55434 248.578615 365.458615 
C 242.67434 371.36289 237.99049 378.372767 234.79512 386.087074 
C 231.599749 393.801381 229.955 402.070094 229.955 410.42 
C 229.955 418.769906 231.599749 427.038619 234.79512 434.752926 
C 237.99049 442.467233 242.67434 449.47711 248.578615 455.381385 
C 254.48289 461.28566 261.492767 465.96951 269.207074 469.16488 
C 276.921381 472.360251 285.190094 474.005 293.54 474.005 
C 301.889906 474.005 310.158619 472.360251 317.872926 469.16488 
C 325.587233 465.96951 332.59711 461.28566 338.501385 455.381385 
C 344.40566 449.47711 349.08951 442.467233 352.28488 434.752926 
C 355.480251 427.038619 357.125 418.769906 357.125 410.42 
" clip-path="url(#pa516ed550d)" style="fill: none; stroke: #cccccc; stroke-width: 0.8; stroke-linecap: round"/>
     </g>
     <g id="text_7">
      <!-- 25% -->
      <g style="fill: #262626" transform="translate(352.28488 384.099574) scale(0.1 -0.1)">
       <defs>
        <path id="ArialMT-32" d="M 3222 541 
L 3222 0 
L 194 0 
Q 188 203 259 391 
Q 375 700 629 1000 
Q 884 1300 1366 1694 
Q 2113 2306 2375 2664 
Q 2638 3022 2638 3341 
Q 2638 3675 2398 3904 
Q 2159 4134 1775 4134 
Q 1369 4134 1125 3890 
Q 881 3647 878 3216 
L 300 3275 
Q 359 3922 746 4261 
Q 1134 4600 1788 4600 
Q 2447 4600 2831 4234 
Q 3216 3869 3216 3328 
Q 3216 3053 3103 2787 
Q 2991 2522 2730 2228 
Q 2469 1934 1863 1422 
Q 1356 997 1212 845 
Q 1069 694 975 541 
L 3222 541 
z
" transform="scale(0.015625)"/>
        <path id="ArialMT-35" d="M 266 1200 
L 856 1250 
Q 922 819 1161 601 
Q 1400 384 1738 384 
Q 2144 384 2425 690 
Q 2706 997 2706 1503 
Q 2706 1984 2436 2262 
Q 2166 2541 1728 2541 
Q 1456 2541 1237 2417 
Q 1019 2294 894 2097 
L 366 2166 
L 809 4519 
L 3088 4519 
L 3088 3981 
L 1259 3981 
L 1013 2750 
Q 1425 3038 1878 3038 
Q 2478 3038 2890 2622 
Q 3303 2206 3303 1553 
Q 3303 931 2941 478 
Q 2500 -78 1738 -78 
Q 1113 -78 717 272 
Q 322 622 266 1200 
z
" transform="scale(0.015625)"/>
        <path id="ArialMT-25" d="M 372 3481 
Q 372 3972 619 4315 
Q 866 4659 1334 4659 
Q 1766 4659 2048 4351 
Q 2331 4044 2331 3447 
Q 2331 2866 2045 2552 
Q 1759 2238 1341 2238 
Q 925 2238 648 2547 
Q 372 2856 372 3481 
z
M 1350 4272 
Q 1141 4272 1002 4090 
Q 863 3909 863 3425 
Q 863 2984 1003 2804 
Q 1144 2625 1350 2625 
Q 1563 2625 1702 2806 
Q 1841 2988 1841 3469 
Q 1841 3913 1700 4092 
Q 1559 4272 1350 4272 
z
M 1353 -169 
L 3859 4659 
L 4316 4659 
L 1819 -169 
L 1353 -169 
z
M 3334 1075 
Q 3334 1569 3581 1911 
Q 3828 2253 4300 2253 
Q 4731 2253 5014 1945 
Q 5297 1638 5297 1041 
Q 5297 459 5011 145 
Q 4725 -169 4303 -169 
Q 3888 -169 3611 142 
Q 3334 453 3334 1075 
z
M 4316 1866 
Q 4103 1866 3964 1684 
Q 3825 1503 3825 1019 
Q 3825 581 3965 400 
Q 4106 219 4313 219 
Q 4528 219 4667 400 
Q 4806 581 4806 1063 
Q 4806 1506 4665 1686 
Q 4525 1866 4316 1866 
z
" transform="scale(0.015625)"/>
       </defs>
       <use xlink:href="#ArialMT-32"/>
       <use xlink:href="#ArialMT-35" transform="translate(55.615234 0)"/>
       <use xlink:href="#ArialMT-25" transform="translate(111.230469 0)"/>
      </g>
     </g>
    </g>
    <g id="ytick_2">
     <g id="line2d_8">
      <path d="M 420.71 410.42 
C 420.71 393.720189 417.420501 377.182762 411.02976 361.754148 
C 404.639019 346.325534 395.271319 332.305781 383.462769 320.497231 
C 371.654219 308.688681 357.634466 299.320981 342.205852 292.93024 
C 326.777238 286.539499 310.239811 283.25 293.54 283.25 
C 276.840189 283.25 260.302762 286.539499 244.874148 292.93024 
C 229.445534 299.320981 215.425781 308.688681 203.617231 320.497231 
C 191.808681 332.305781 182.440981 346.325534 176.05024 361.754148 
C 169.659499 377.182762 166.37 393.720189 166.37 410.42 
C 166.37 427.119811 169.659499 443.657238 176.05024 459.085852 
C 182.440981 474.514466 191.808681 488.534219 203.617231 500.342769 
C 215.425781 512.151319 229.445534 521.519019 244.874148 527.90976 
C 260.302762 534.300501 276.840189 537.59 293.54 537.59 
C 310.239811 537.59 326.777238 534.300501 342.205852 527.90976 
C 357.634466 521.519019 371.654219 512.151319 383.462769 500.342769 
C 395.271319 488.534219 404.639019 474.514466 411.02976 459.085852 
C 417.420501 443.657238 420.71 427.119811 420.71 410.42 
" clip-path="url(#pa516ed550d)" style="fill: none; stroke: #cccccc; stroke-width: 0.8; stroke-linecap: round"/>
     </g>
     <g id="text_8">
      <!-- 50% -->
      <g style="fill: #262626" transform="translate(411.02976 359.766648) scale(0.1 -0.1)">
       <defs>
        <path id="ArialMT-30" d="M 266 2259 
Q 266 3072 433 3567 
Q 600 4063 929 4331 
Q 1259 4600 1759 4600 
Q 2128 4600 2406 4451 
Q 2684 4303 2865 4023 
Q 3047 3744 3150 3342 
Q 3253 2941 3253 2259 
Q 3253 1453 3087 958 
Q 2922 463 2592 192 
Q 2263 -78 1759 -78 
Q 1097 -78 719 397 
Q 266 969 266 2259 
z
M 844 2259 
Q 844 1131 1108 757 
Q 1372 384 1759 384 
Q 2147 384 2411 759 
Q 2675 1134 2675 2259 
Q 2675 3391 2411 3762 
Q 2147 4134 1753 4134 
Q 1366 4134 1134 3806 
Q 844 3388 844 2259 
z
" transform="scale(0.015625)"/>
       </defs>
       <use xlink:href="#ArialMT-35"/>
       <use xlink:href="#ArialMT-30" transform="translate(55.615234 0)"/>
       <use xlink:href="#ArialMT-25" transform="translate(111.230469 0)"/>
      </g>
     </g>
    </g>
    <g id="ytick_3">
     <g id="line2d_9">
      <path d="M 484.295 410.42 
C 484.295 385.370283 479.360752 360.564143 469.77464 337.421222 
C 460.188529 314.278301 446.136979 293.248671 428.424154 275.535846 
C 410.711329 257.823021 389.681699 243.771471 366.538778 234.18536 
C 343.395857 224.599248 318.589717 219.665 293.54 219.665 
C 268.490283 219.665 243.684143 224.599248 220.541222 234.18536 
C 197.398301 243.771471 176.368671 257.823021 158.655846 275.535846 
C 140.943021 293.248671 126.891471 314.278301 117.30536 337.421222 
C 107.719248 360.564143 102.785 385.370283 102.785 410.42 
C 102.785 435.469717 107.719248 460.275857 117.30536 483.418778 
C 126.891471 506.561699 140.943021 527.591329 158.655846 545.304154 
C 176.368671 563.016979 197.398301 577.068529 220.541222 586.65464 
C 243.684143 596.240752 268.490283 601.175 293.54 601.175 
C 318.589717 601.175 343.395857 596.240752 366.538778 586.65464 
C 389.681699 577.068529 410.711329 563.016979 428.424154 545.304154 
C 446.136979 527.591329 460.188529 506.561699 469.77464 483.418778 
C 479.360752 460.275857 484.295 435.469717 484.295 410.42 
" clip-path="url(#pa516ed550d)" style="fill: none; stroke: #cccccc; stroke-width: 0.8; stroke-linecap: round"/>
     </g>
     <g id="text_9">
      <!-- 75% -->
      <g style="fill: #262626" transform="translate(469.77464 335.433722) scale(0.1 -0.1)">
       <defs>
        <path id="ArialMT-37" d="M 303 3981 
L 303 4522 
L 3269 4522 
L 3269 4084 
Q 2831 3619 2401 2847 
Q 1972 2075 1738 1259 
Q 1569 684 1522 0 
L 944 0 
Q 953 541 1156 1306 
Q 1359 2072 1739 2783 
Q 2119 3494 2547 3981 
L 303 3981 
z
" transform="scale(0.015625)"/>
       </defs>
       <use xlink:href="#ArialMT-37"/>
       <use xlink:href="#ArialMT-35" transform="translate(55.615234 0)"/>
       <use xlink:href="#ArialMT-25" transform="translate(111.230469 0)"/>
      </g>
     </g>
    </g>
    <g id="ytick_4">
     <g id="line2d_10">
      <path d="M 547.88 410.42 
C 547.88 377.020377 541.301003 343.945524 528.51952 313.088296 
C 515.738038 282.231068 497.002638 254.191561 473.385539 230.574461 
C 449.768439 206.957362 421.728932 188.221962 390.871704 175.44048 
C 360.014476 162.658997 326.939623 156.08 293.54 156.08 
C 260.140377 156.08 227.065524 162.658997 196.208296 175.44048 
C 165.351068 188.221962 137.311561 206.957362 113.694461 230.574461 
C 90.077362 254.191561 71.341962 282.231068 58.56048 313.088296 
C 45.778997 343.945524 39.2 377.020377 39.2 410.42 
C 39.2 443.819623 45.778997 476.894476 58.56048 507.751704 
C 71.341962 538.608932 90.077362 566.648439 113.694461 590.265539 
C 137.311561 613.882638 165.351068 632.618038 196.208296 645.39952 
C 227.065524 658.181003 260.140377 664.76 293.54 664.76 
C 326.939623 664.76 360.014476 658.181003 390.871704 645.39952 
C 421.728932 632.618038 449.768439 613.882638 473.385539 590.265539 
C 497.002638 566.648439 515.738038 538.608932 528.51952 507.751704 
C 541.301003 476.894476 547.88 443.819623 547.88 410.42 
" clip-path="url(#pa516ed550d)" style="fill: none; stroke: #cccccc; stroke-width: 0.8; stroke-linecap: round"/>
     </g>
     <g id="text_10">
      <!-- 100% -->
      <g style="fill: #262626" transform="translate(528.51952 311.100796) scale(0.1 -0.1)">
       <defs>
        <path id="ArialMT-31" d="M 2384 0 
L 1822 0 
L 1822 3584 
Q 1619 3391 1289 3197 
Q 959 3003 697 2906 
L 697 3450 
Q 1169 3672 1522 3987 
Q 1875 4303 2022 4600 
L 2384 4600 
L 2384 0 
z
" transform="scale(0.015625)"/>
       </defs>
       <use xlink:href="#ArialMT-31"/>
       <use xlink:href="#ArialMT-30" transform="translate(55.615234 0)"/>
       <use xlink:href="#ArialMT-30" transform="translate(111.230469 0)"/>
       <use xlink:href="#ArialMT-25" transform="translate(166.845703 0)"/>
      </g>
     </g>
    </g>
   </g>
   <g id="patch_3">
    <path d="M 529.414916 410.42 
L 420.71 190.155099 
L 181.053272 215.587272 
L 55.98644 410.42 
L 259.334096 469.666364 
L 339.553502 490.117724 
z
" clip-path="url(#pa516ed550d)" style="fill: #66c2a5; opacity: 0.25; stroke: #66c2a5; stroke-linejoin: miter"/>
   </g>
   <g id="patch_4">
    <path d="M 529.079187 410.42 
L 420.71 190.155099 
L 179.525728 212.941487 
L 56.291648 410.42 
L 256.452128 474.658079 
L 342.236013 494.763969 
z
" clip-path="url(#pa516ed550d)" style="fill: #66c2a5; opacity: 0.25; stroke: #66c2a5; stroke-linejoin: miter"/>
   </g>
   <g id="line2d_11">
    <path d="M 529.414916 410.42 
L 420.71 190.155099 
L 181.053272 215.587272 
L 55.98644 410.42 
L 259.334096 469.666364 
L 339.553502 490.117724 
L 529.414916 410.42 
" clip-path="url(#pa516ed550d)" style="fill: none; stroke: #66c2a5; stroke-width: 2; stroke-linecap: round"/>
   </g>
   <g id="line2d_12">
    <path d="M 529.079187 410.42 
L 420.71 190.155099 
L 179.525728 212.941487 
L 56.291648 410.42 
L 256.452128 474.658079 
L 342.236013 494.763969 
L 529.079187 410.42 
" clip-path="url(#pa516ed550d)" style="fill: none; stroke: #66c2a5; stroke-width: 2; stroke-linecap: round"/>
   </g>
   <g id="patch_5">
    <path d="M 547.88 410.42 
C 547.88 377.020377 541.301003 343.945524 528.51952 313.088296 
C 515.738038 282.231068 497.002638 254.191561 473.385539 230.574461 
C 449.768439 206.957362 421.728932 188.221962 390.871704 175.44048 
C 360.014476 162.658997 326.939623 156.08 293.54 156.08 
C 260.140377 156.08 227.065524 162.658997 196.208296 175.44048 
C 165.351068 188.221962 137.311561 206.957362 113.694461 230.574461 
C 90.077362 254.191561 71.341962 282.231068 58.56048 313.088296 
C 45.778997 343.945524 39.2 377.020377 39.2 410.42 
C 39.2 443.819623 45.778997 476.894476 58.56048 507.751704 
C 71.341962 538.608932 90.077362 566.648439 113.694461 590.265539 
C 137.311561 613.882638 165.351068 632.618038 196.208296 645.39952 
C 227.065524 658.181003 260.140377 664.76 293.54 664.76 
C 326.939623 664.76 360.014476 658.181003 390.871704 645.39952 
C 421.728932 632.618038 449.768439 613.882638 473.385539 590.265539 
C 497.002638 566.648439 515.738038 538.608932 528.51952 507.751704 
C 541.301003 476.894476 547.88 443.819623 547.88 410.42 
" style="fill: none; stroke: #cccccc; stroke-width: 0.8; stroke-linejoin: miter; stroke-linecap: square"/>
   </g>
   <g id="legend_1">
    <g id="patch_6">
     <path d="M 596.6215 144.171375 
L 693.484 144.171375 
Q 695.484 144.171375 695.484 142.171375 
L 695.484 112.212 
Q 695.484 110.212 693.484 110.212 
L 596.6215 110.212 
Q 594.6215 110.212 594.6215 112.212 
L 594.6215 142.171375 
Q 594.6215 144.171375 596.6215 144.171375 
z
" style="fill: #ffffff; opacity: 0.8; stroke: #cccccc; stroke-linejoin: miter"/>
    </g>
    <g id="line2d_13">
     <path d="M 598.6215 118.70575 
L 608.6215 118.70575 
L 618.6215 118.70575 
" style="fill: none; stroke: #66c2a5; stroke-width: 2; stroke-linecap: round"/>
    </g>
    <g id="text_11">
     <!-- PPO (Default) -->
     <g style="fill: #262626" transform="translate(626.6215 122.20575) scale(0.1 -0.1)">
      <defs>
       <path id="MicrosoftYaHei-50" d="M 1250 1809 
L 1250 0 
L 625 0 
L 625 4841 
L 2000 4841 
Q 2784 4841 3217 4462 
Q 3650 4084 3650 3381 
Q 3650 2669 3144 2226 
Q 2638 1784 1878 1809 
L 1250 1809 
z
M 1250 4291 
L 1250 2359 
L 1828 2359 
Q 2400 2359 2697 2617 
Q 2994 2875 2994 3356 
Q 2994 4291 1888 4291 
L 1250 4291 
z
" transform="scale(0.015625)"/>
       <path id="MicrosoftYaHei-4f" d="M 313 2363 
Q 313 3534 947 4228 
Q 1581 4922 2666 4922 
Q 3675 4922 4290 4244 
Q 4906 3566 4906 2478 
Q 4906 1300 4275 609 
Q 3644 -81 2588 -81 
Q 1556 -81 934 597 
Q 313 1275 313 2363 
z
M 969 2413 
Q 969 1534 1417 1004 
Q 1866 475 2588 475 
Q 3363 475 3805 983 
Q 4247 1491 4247 2403 
Q 4247 3341 3814 3850 
Q 3381 4359 2628 4359 
Q 1888 4359 1428 3821 
Q 969 3284 969 2413 
z
" transform="scale(0.015625)"/>
       <path id="MicrosoftYaHei-20" transform="scale(0.015625)"/>
       <path id="MicrosoftYaHei-44" d="M 625 0 
L 625 4841 
L 2006 4841 
Q 3106 4841 3836 4200 
Q 4566 3559 4566 2481 
Q 4566 1356 3836 678 
Q 3106 0 1956 0 
L 625 0 
z
M 1250 4284 
L 1250 553 
L 1953 553 
Q 2875 553 3392 1056 
Q 3909 1559 3909 2466 
Q 3909 3372 3378 3828 
Q 2847 4284 1981 4284 
L 1250 4284 
z
" transform="scale(0.015625)"/>
       <path id="MicrosoftYaHei-65" d="M 3363 1572 
L 944 1572 
Q 959 1019 1246 717 
Q 1534 416 2050 416 
Q 2631 416 3116 788 
L 3116 241 
Q 2659 -81 1906 -81 
Q 1156 -81 736 394 
Q 316 869 316 1713 
Q 316 2506 777 3022 
Q 1238 3538 1922 3538 
Q 2600 3538 2981 3102 
Q 3363 2666 3363 1881 
L 3363 1572 
z
M 2750 2063 
Q 2747 2531 2528 2787 
Q 2309 3044 1913 3044 
Q 1547 3044 1280 2772 
Q 1013 2500 944 2063 
L 2750 2063 
z
" transform="scale(0.015625)"/>
       <path id="MicrosoftYaHei-66" d="M 2319 4594 
Q 2147 4684 1947 4684 
Q 1372 4684 1372 3972 
L 1372 3456 
L 2181 3456 
L 2181 2950 
L 1372 2950 
L 1372 0 
L 766 0 
L 766 2950 
L 175 2950 
L 175 3456 
L 766 3456 
L 766 4000 
Q 766 4556 1086 4873 
Q 1406 5191 1900 5191 
Q 2163 5191 2319 5131 
L 2319 4594 
z
" transform="scale(0.015625)"/>
       <path id="MicrosoftYaHei-61" d="M 628 3216 
Q 1144 3538 1819 3538 
Q 3069 3538 3069 2225 
L 3069 0 
L 2463 0 
L 2463 534 
L 2447 534 
Q 2088 -81 1388 -81 
Q 884 -81 587 191 
Q 291 463 291 925 
Q 291 1894 1438 2053 
L 2463 2197 
Q 2463 3044 1763 3044 
Q 1141 3044 628 2625 
L 628 3216 
z
M 1653 1625 
Q 1228 1569 1067 1412 
Q 906 1256 906 975 
Q 906 728 1081 572 
Q 1256 416 1544 416 
Q 1944 416 2203 697 
Q 2463 978 2463 1403 
L 2463 1734 
L 1653 1625 
z
" transform="scale(0.015625)"/>
       <path id="MicrosoftYaHei-75" d="M 3400 0 
L 2784 0 
L 2784 544 
L 2772 544 
Q 2425 -81 1706 -81 
Q 478 -81 478 1388 
L 478 3456 
L 1084 3456 
L 1084 1478 
Q 1084 425 1891 425 
Q 2291 425 2537 720 
Q 2784 1016 2784 1466 
L 2784 3456 
L 3400 3456 
L 3400 0 
z
" transform="scale(0.015625)"/>
       <path id="MicrosoftYaHei-6c" d="M 544 0 
L 544 5116 
L 1156 5116 
L 1156 0 
L 544 0 
z
" transform="scale(0.015625)"/>
       <path id="MicrosoftYaHei-74" d="M 2206 34 
Q 2006 -75 1666 -75 
Q 738 -75 738 953 
L 738 2950 
L 144 2950 
L 144 3456 
L 738 3456 
L 738 4288 
L 1347 4481 
L 1347 3456 
L 2206 3456 
L 2206 2950 
L 1347 2950 
L 1347 1063 
Q 1347 722 1462 575 
Q 1578 428 1847 428 
Q 2053 428 2206 544 
L 2206 34 
z
" transform="scale(0.015625)"/>
      </defs>
      <use xlink:href="#MicrosoftYaHei-50"/>
      <use xlink:href="#MicrosoftYaHei-50" transform="translate(61.181641 0)"/>
      <use xlink:href="#MicrosoftYaHei-4f" transform="translate(122.363281 0)"/>
      <use xlink:href="#MicrosoftYaHei-20" transform="translate(203.857422 0)"/>
      <use xlink:href="#MicrosoftYaHei-28" transform="translate(233.447266 0)"/>
      <use xlink:href="#MicrosoftYaHei-44" transform="translate(266.845703 0)"/>
      <use xlink:href="#MicrosoftYaHei-65" transform="translate(343.017578 0)"/>
      <use xlink:href="#MicrosoftYaHei-66" transform="translate(399.755859 0)"/>
      <use xlink:href="#MicrosoftYaHei-61" transform="translate(434.423828 0)"/>
      <use xlink:href="#MicrosoftYaHei-75" transform="translate(489.697266 0)"/>
      <use xlink:href="#MicrosoftYaHei-6c" transform="translate(551.318359 0)"/>
      <use xlink:href="#MicrosoftYaHei-74" transform="translate(577.929688 0)"/>
      <use xlink:href="#MicrosoftYaHei-29" transform="translate(615.185547 0)"/>
     </g>
    </g>
    <g id="line2d_14">
     <path d="M 598.6215 134.185437 
L 608.6215 134.185437 
L 618.6215 134.185437 
" style="fill: none; stroke: #66c2a5; stroke-width: 2; stroke-linecap: round"/>
    </g>
    <g id="text_12">
     <!-- PPO (HPO) -->
     <g style="fill: #262626" transform="translate(626.6215 137.685437) scale(0.1 -0.1)">
      <defs>
       <path id="MicrosoftYaHei-48" d="M 4325 0 
L 3700 0 
L 3700 2181 
L 1250 2181 
L 1250 0 
L 625 0 
L 625 4841 
L 1250 4841 
L 1250 2738 
L 3700 2738 
L 3700 4841 
L 4325 4841 
L 4325 0 
z
" transform="scale(0.015625)"/>
      </defs>
      <use xlink:href="#MicrosoftYaHei-50"/>
      <use xlink:href="#MicrosoftYaHei-50" transform="translate(61.181641 0)"/>
      <use xlink:href="#MicrosoftYaHei-4f" transform="translate(122.363281 0)"/>
      <use xlink:href="#MicrosoftYaHei-20" transform="translate(203.857422 0)"/>
      <use xlink:href="#MicrosoftYaHei-28" transform="translate(233.447266 0)"/>
      <use xlink:href="#MicrosoftYaHei-48" transform="translate(266.845703 0)"/>
      <use xlink:href="#MicrosoftYaHei-50" transform="translate(344.189453 0)"/>
      <use xlink:href="#MicrosoftYaHei-4f" transform="translate(405.371094 0)"/>
      <use xlink:href="#MicrosoftYaHei-29" transform="translate(486.865234 0)"/>
     </g>
    </g>
   </g>
  </g>
  <g id="text_13">
   <!-- 综合性能雷达图(按algorithm聚合) -->
   <g style="fill: #262626" transform="translate(232.2825 20.5975) scale(0.16 -0.16)">
    <defs>
     <path id="MicrosoftYaHei-Bold-7efc" d="M 2481 4647 
L 3906 4647 
L 3713 5191 
L 4600 5359 
Q 4722 5006 4819 4647 
L 6181 4647 
L 6181 3497 
L 5444 3497 
L 5444 3922 
L 3219 3922 
L 3219 3497 
L 2481 3497 
L 2481 3866 
Q 1847 2709 1150 1753 
Q 1650 1809 2188 1891 
Q 2144 1497 2138 1147 
Q 888 1028 369 916 
L 156 1641 
Q 513 1994 947 2713 
Q 541 2678 294 2634 
L 69 3347 
Q 463 3847 1006 5359 
L 1788 5128 
Q 1363 4197 875 3416 
Q 1078 3419 1353 3431 
Q 1541 3788 1744 4203 
L 2481 3881 
L 2481 4647 
z
M 2725 3366 
L 5950 3366 
L 5950 2616 
L 2725 2616 
L 2725 3366 
z
M 2400 1391 
L 2400 2141 
L 6288 2141 
L 6288 1391 
L 4756 1391 
L 4756 -72 
Q 4756 -422 4572 -597 
Q 4388 -772 4027 -775 
Q 3666 -778 3325 -778 
Q 3263 -403 3163 -22 
Q 3513 -41 3694 -41 
Q 3925 -41 3925 209 
L 3925 1391 
L 2400 1391 
z
M 5575 1209 
Q 5938 603 6313 -147 
L 5619 -478 
Q 5263 303 4919 916 
L 5575 1209 
z
M 2888 1197 
L 3556 928 
Q 3188 172 2769 -528 
Q 2419 -322 2106 -166 
Q 2519 472 2888 1197 
z
M 213 -441 
L 81 391 
Q 1213 522 2131 684 
Q 2113 178 2113 -116 
Q 1338 -216 213 -441 
z
" transform="scale(0.015625)"/>
     <path id="MicrosoftYaHei-Bold-5408" d="M 875 -872 
L 875 2028 
L 5525 2028 
L 5525 -872 
L 4675 -872 
L 4675 -584 
L 1725 -584 
L 1725 -872 
L 875 -872 
z
M 3988 5316 
L 3763 5041 
Q 4619 3947 6306 3228 
Q 5975 2809 5738 2484 
Q 5338 2672 4975 2897 
L 4975 2553 
L 1425 2553 
L 1425 2922 
Q 1063 2684 644 2441 
Q 388 2828 88 3178 
Q 2031 4178 2800 5316 
L 3988 5316 
z
M 4675 1216 
L 1725 1216 
L 1725 228 
L 4675 228 
L 4675 1216 
z
M 3194 4409 
Q 2756 3891 2031 3353 
L 4313 3353 
Q 3694 3822 3194 4409 
z
" transform="scale(0.015625)"/>
     <path id="MicrosoftYaHei-Bold-6027" d="M 2250 216 
L 3975 216 
L 3975 1378 
L 2563 1378 
L 2563 2191 
L 3975 2191 
L 3975 3303 
L 3213 3303 
Q 3075 2734 2913 2272 
Q 2538 2491 2175 2684 
Q 2563 3684 2738 4947 
L 3506 4891 
Q 3447 4484 3381 4116 
L 3975 4116 
L 3975 5316 
L 4825 5316 
L 4825 4116 
L 6125 4116 
L 6125 3303 
L 4825 3303 
L 4825 2191 
L 6100 2191 
L 6100 1378 
L 4825 1378 
L 4825 216 
L 6313 216 
L 6313 -597 
L 2250 -597 
L 2250 216 
z
M 1788 5316 
L 1788 4456 
Q 2125 4316 2494 4134 
L 2175 3453 
L 1788 3713 
L 1788 -841 
L 950 -841 
L 950 5316 
L 1788 5316 
z
M 269 4103 
L 800 4041 
Q 719 3009 619 2178 
Q 350 2284 106 2316 
Q 225 3284 269 4103 
z
" transform="scale(0.015625)"/>
     <path id="MicrosoftYaHei-Bold-80fd" d="M 2644 4797 
Q 3100 4172 3569 3447 
Q 3188 3222 2906 3066 
L 2731 3369 
L 319 3197 
L 100 3897 
Q 519 4116 1331 5353 
L 2125 5053 
L 1213 3947 
L 2353 3994 
Q 2200 4238 2044 4472 
L 2644 4797 
z
M 5513 3916 
Q 5981 3697 6288 3597 
Q 6200 3228 6114 2942 
Q 6028 2656 5798 2520 
Q 5569 2384 5200 2384 
L 4556 2384 
Q 3594 2384 3588 3322 
L 3588 5291 
L 4381 5291 
L 4381 4347 
Q 5153 4700 5681 5003 
L 6231 4366 
Q 5553 4056 4381 3616 
L 4381 3422 
Q 4381 3072 4800 3072 
L 5000 3072 
Q 5341 3072 5392 3269 
Q 5444 3466 5513 3916 
z
M 1213 -797 
L 431 -797 
L 431 2978 
L 3106 2978 
L 3106 41 
Q 3106 -325 2972 -525 
Q 2838 -725 2566 -759 
Q 2294 -794 1681 -784 
Q 1594 -422 1481 -41 
Q 1791 -59 1969 -59 
Q 2213 -59 2269 28 
Q 2325 116 2325 228 
L 2325 378 
L 1213 378 
L 1213 -797 
z
M 2325 2303 
L 1213 2303 
L 1213 1947 
L 2325 1947 
L 2325 2303 
z
M 1213 984 
L 2325 984 
L 2325 1341 
L 1213 1341 
L 1213 984 
z
M 5531 953 
Q 5913 797 6313 647 
Q 6194 -78 6081 -287 
Q 5969 -497 5750 -605 
Q 5531 -713 5206 -716 
L 4550 -716 
Q 3588 -716 3588 228 
L 3588 2216 
L 4381 2216 
L 4381 1438 
Q 5072 1781 5675 2147 
L 6225 1491 
Q 5372 1084 4381 672 
L 4381 353 
Q 4381 -28 4738 -28 
L 5000 -28 
Q 5275 -28 5365 90 
Q 5456 209 5531 953 
z
" transform="scale(0.015625)"/>
     <path id="MicrosoftYaHei-Bold-96f7" d="M 275 4209 
L 2819 4209 
L 2819 4503 
L 588 4503 
L 588 5109 
L 5813 5109 
L 5813 4503 
L 3581 4503 
L 3581 4209 
L 6125 4209 
L 6125 2853 
L 5400 2853 
L 5400 3603 
L 3581 3603 
L 3581 2272 
L 2819 2272 
L 2819 3603 
L 1000 3603 
L 1000 2853 
L 275 2853 
L 275 4209 
z
M 1163 3347 
L 2538 3347 
L 2538 2934 
L 1163 2934 
L 1163 3347 
z
M 3875 3347 
L 5238 3347 
L 5238 2934 
L 3875 2934 
L 3875 3347 
z
M 913 2672 
L 2538 2672 
L 2538 2259 
L 913 2259 
L 913 2672 
z
M 3875 2672 
L 5488 2672 
L 5488 2259 
L 3875 2259 
L 3875 2672 
z
M 694 -847 
L 694 2009 
L 5700 2009 
L 5700 -847 
L 4881 -847 
L 4881 -578 
L 1519 -578 
L 1519 -847 
L 694 -847 
z
M 1519 997 
L 2788 997 
L 2788 1422 
L 1519 1422 
L 1519 997 
z
M 4881 1422 
L 3613 1422 
L 3613 997 
L 4881 997 
L 4881 1422 
z
M 1519 9 
L 2788 9 
L 2788 434 
L 1519 434 
L 1519 9 
z
M 3613 9 
L 4881 9 
L 4881 434 
L 3613 434 
L 3613 9 
z
" transform="scale(0.015625)"/>
     <path id="MicrosoftYaHei-Bold-8fbe" d="M 3169 153 
Q 4625 122 6306 191 
Q 6144 -241 6000 -672 
Q 4244 -678 2744 -641 
Q 1781 -591 1231 9 
Q 988 -253 469 -828 
L 94 97 
Q 281 297 800 759 
L 800 2328 
L 175 2328 
L 175 3153 
L 1638 3153 
L 1638 691 
Q 2181 172 3169 153 
z
M 1875 4003 
L 3369 4003 
Q 3400 4547 3400 5278 
L 4269 5278 
Q 4269 4566 4244 4003 
L 6106 4003 
L 6106 3234 
L 4188 3234 
Q 4163 2991 4125 2791 
Q 5188 1928 6063 1172 
L 5419 441 
Q 4650 1191 3838 1866 
Q 3481 1191 2475 353 
Q 2138 759 1819 1059 
Q 2950 1922 3144 2572 
Q 3238 2791 3300 3234 
L 1875 3234 
L 1875 4003 
z
M 944 5278 
Q 1413 4672 1800 4109 
L 1050 3603 
Q 769 4109 269 4859 
L 944 5278 
z
" transform="scale(0.015625)"/>
     <path id="MicrosoftYaHei-Bold-56fe" d="M 369 -841 
L 369 5072 
L 6019 5072 
L 6019 -834 
L 5156 -834 
L 5156 -591 
L 1231 -591 
L 1231 -841 
L 369 -841 
z
M 4875 3978 
L 4875 3466 
Q 4547 3022 4006 2678 
Q 4513 2541 5156 2463 
L 5156 4316 
L 3256 4316 
Q 3141 4144 3009 3978 
L 4875 3978 
z
M 2394 4316 
L 1231 4316 
L 1231 3231 
Q 2016 3747 2394 4316 
z
M 3228 2959 
Q 3666 3163 3919 3416 
L 2575 3416 
Q 2828 3156 3228 2959 
z
M 1644 2747 
Q 1481 2925 1231 3147 
L 1231 2400 
Q 1950 2522 2500 2688 
Q 2266 2863 2078 3063 
Q 1872 2900 1644 2747 
z
M 1669 1303 
Q 3319 1084 4775 841 
L 4600 166 
L 5156 166 
L 5156 2388 
Q 5019 2159 4825 1822 
Q 3897 1978 3219 2275 
Q 2872 2134 2472 2019 
Q 3509 1888 4500 1722 
L 4375 1128 
Q 3344 1309 2063 1484 
L 2159 1934 
Q 1856 1859 1525 1797 
Q 1409 2059 1231 2347 
L 1231 166 
L 4569 166 
Q 3297 425 1494 647 
L 1669 1303 
z
" transform="scale(0.015625)"/>
     <path id="MicrosoftYaHei-Bold-28" d="M 1606 -1100 
Q 525 97 525 1853 
Q 525 3550 1606 4841 
L 2431 4841 
Q 1406 3497 1406 1853 
Q 1406 216 2438 -1100 
L 1606 -1100 
z
" transform="scale(0.015625)"/>
     <path id="MicrosoftYaHei-Bold-6309" d="M 3506 5178 
L 4431 5359 
L 4684 4641 
L 6138 4641 
L 6138 3266 
L 5300 3266 
L 5300 3878 
L 3125 3878 
L 3125 3291 
L 2288 3291 
L 2288 4641 
L 3713 4641 
Q 3594 4991 3506 5178 
z
M 175 4147 
L 800 4147 
L 800 5303 
L 1625 5303 
L 1625 4147 
L 2075 4147 
L 2075 3347 
L 1625 3347 
L 1625 2416 
Q 1825 2469 2025 2528 
Q 2006 2016 2038 1678 
L 1625 1569 
L 1625 3 
Q 1625 -216 1565 -373 
Q 1506 -531 1397 -622 
Q 1288 -713 1148 -753 
Q 1009 -794 275 -816 
Q 219 -372 113 16 
Q 322 -3 488 -3 
Q 672 -3 736 62 
Q 800 128 800 291 
L 800 1338 
L 225 1172 
L 81 2059 
Q 438 2128 800 2209 
L 800 3347 
L 175 3347 
L 175 4147 
z
M 6275 2116 
L 5709 2116 
Q 5500 1206 4975 559 
Q 5578 238 6275 -159 
L 5775 -884 
Q 5075 -409 4397 -6 
Q 3594 -634 2344 -891 
Q 2150 -491 1881 -103 
Q 2897 78 3569 466 
Q 2969 788 2394 1053 
Q 2688 1541 2928 2116 
L 2188 2116 
L 2188 2866 
L 3206 2866 
Q 3331 3241 3438 3647 
L 4288 3416 
L 4078 2866 
L 6275 2866 
L 6275 2116 
z
M 3400 1347 
Q 3775 1175 4209 956 
Q 4675 1441 4822 2116 
L 3766 2116 
Q 3581 1694 3400 1347 
z
" transform="scale(0.015625)"/>
     <path id="MicrosoftYaHei-Bold-61" d="M 544 3247 
Q 778 3378 1170 3459 
Q 1563 3541 1841 3541 
Q 3291 3541 3291 2088 
L 3291 0 
L 2331 0 
L 2331 503 
L 2319 503 
Q 1966 -84 1284 -84 
Q 794 -84 498 195 
Q 203 475 203 956 
Q 203 1950 1388 2113 
L 2338 2241 
Q 2338 2844 1709 2844 
Q 1091 2844 544 2469 
L 544 3247 
z
M 1684 1566 
Q 1138 1494 1138 1072 
Q 1138 878 1270 759 
Q 1403 641 1628 641 
Q 1938 641 2138 859 
Q 2338 1078 2338 1403 
L 2338 1650 
L 1684 1566 
z
" transform="scale(0.015625)"/>
     <path id="MicrosoftYaHei-Bold-6c" d="M 444 0 
L 444 5116 
L 1450 5116 
L 1450 0 
L 444 0 
z
" transform="scale(0.015625)"/>
     <path id="MicrosoftYaHei-Bold-67" d="M 3800 381 
Q 3800 -581 3251 -1101 
Q 2703 -1622 1672 -1622 
Q 972 -1622 559 -1422 
L 559 -559 
Q 1097 -872 1644 -872 
Q 2184 -872 2489 -583 
Q 2794 -294 2794 219 
L 2794 506 
L 2778 506 
Q 2413 -84 1691 -84 
Q 1038 -84 645 381 
Q 253 847 253 1628 
Q 253 2500 686 3020 
Q 1119 3541 1822 3541 
Q 2459 3541 2778 3044 
L 2794 3044 
L 2794 3456 
L 3800 3456 
L 3800 381 
z
M 2803 1950 
Q 2803 2294 2595 2530 
Q 2388 2766 2072 2766 
Q 1703 2766 1489 2477 
Q 1275 2188 1275 1666 
Q 1275 1213 1481 952 
Q 1688 691 2028 691 
Q 2372 691 2587 956 
Q 2803 1222 2803 1647 
L 2803 1950 
z
" transform="scale(0.015625)"/>
     <path id="MicrosoftYaHei-Bold-6f" d="M 253 1713 
Q 253 2566 764 3053 
Q 1275 3541 2138 3541 
Q 2972 3541 3462 3061 
Q 3953 2581 3953 1772 
Q 3953 922 3450 419 
Q 2947 -84 2088 -84 
Q 1244 -84 748 398 
Q 253 881 253 1713 
z
M 1275 1725 
Q 1275 691 2119 691 
Q 2928 691 2928 1753 
Q 2928 2766 2113 2766 
Q 1716 2766 1495 2494 
Q 1275 2222 1275 1725 
z
" transform="scale(0.015625)"/>
     <path id="MicrosoftYaHei-Bold-72" d="M 2663 2541 
Q 2478 2647 2216 2647 
Q 1872 2647 1670 2384 
Q 1469 2122 1469 1663 
L 1469 0 
L 459 0 
L 459 3456 
L 1469 3456 
L 1469 2806 
L 1481 2806 
Q 1731 3516 2391 3516 
Q 2569 3516 2663 3475 
L 2663 2541 
z
" transform="scale(0.015625)"/>
     <path id="MicrosoftYaHei-Bold-69" d="M 369 4572 
Q 369 4803 533 4948 
Q 697 5094 953 5094 
Q 1216 5094 1378 4945 
Q 1541 4797 1541 4572 
Q 1541 4344 1375 4192 
Q 1209 4041 953 4041 
Q 700 4041 534 4194 
Q 369 4347 369 4572 
z
M 444 0 
L 444 3456 
L 1450 3456 
L 1450 0 
L 444 0 
z
" transform="scale(0.015625)"/>
     <path id="MicrosoftYaHei-Bold-74" d="M 2494 41 
Q 2266 -84 1803 -84 
Q 703 -84 703 1072 
L 703 2703 
L 134 2703 
L 134 3456 
L 703 3456 
L 703 4216 
L 1706 4503 
L 1706 3456 
L 2494 3456 
L 2494 2703 
L 1706 2703 
L 1706 1247 
Q 1706 694 2144 694 
Q 2313 694 2494 794 
L 2494 41 
z
" transform="scale(0.015625)"/>
     <path id="MicrosoftYaHei-Bold-68" d="M 3725 0 
L 2719 0 
L 2719 1969 
Q 2719 2766 2138 2766 
Q 1847 2766 1658 2544 
Q 1469 2322 1469 1969 
L 1469 0 
L 459 0 
L 459 5116 
L 1469 5116 
L 1469 2938 
L 1481 2938 
Q 1878 3541 2550 3541 
Q 3725 3541 3725 2122 
L 3725 0 
z
" transform="scale(0.015625)"/>
     <path id="MicrosoftYaHei-Bold-6d" d="M 5881 0 
L 4875 0 
L 4875 1972 
Q 4875 2766 4297 2766 
Q 4028 2766 3850 2525 
Q 3672 2284 3672 1938 
L 3672 0 
L 2666 0 
L 2666 1997 
Q 2666 2766 2094 2766 
Q 1809 2766 1639 2536 
Q 1469 2306 1469 1928 
L 1469 0 
L 459 0 
L 459 3456 
L 1469 3456 
L 1469 2916 
L 1481 2916 
Q 1663 3213 1963 3377 
Q 2263 3541 2594 3541 
Q 3322 3541 3591 2888 
Q 3991 3541 4753 3541 
Q 5881 3541 5881 2147 
L 5881 0 
z
" transform="scale(0.015625)"/>
     <path id="MicrosoftYaHei-Bold-805a" d="M 5900 903 
Q 5425 672 4813 434 
Q 5500 78 6344 -34 
Q 6088 -416 5825 -803 
Q 4238 -309 3600 516 
L 3600 -878 
L 2800 -878 
L 2800 141 
Q 1706 -559 575 -928 
Q 381 -578 181 -228 
Q 1600 103 2531 703 
L 2800 259 
L 2800 1409 
Q 1775 1347 700 1303 
Q 625 1591 481 1991 
Q 1431 1997 2269 2028 
L 2269 2384 
Q 1250 2266 219 2134 
L 138 2734 
Q 331 2753 525 2772 
L 525 4516 
L 206 4516 
L 206 5141 
L 3256 5141 
L 3256 4516 
L 2988 4516 
L 2988 3066 
Q 3144 3084 3300 3109 
Q 3288 2991 3281 2878 
Q 3738 3034 4106 3241 
Q 3613 3591 3281 3822 
L 3681 4322 
L 3475 4322 
L 3475 4997 
L 6063 4997 
L 6063 4403 
Q 5806 3766 5319 3272 
Q 5775 2972 6225 2672 
L 5744 2091 
Q 5700 2122 4738 2797 
Q 4256 2466 3625 2228 
Q 3469 2491 3275 2766 
Q 3275 2622 3288 2497 
Q 3138 2478 2988 2459 
L 2988 2059 
Q 4300 2134 5275 2284 
L 5450 1609 
Q 4563 1528 3638 1466 
Q 3906 1116 4213 853 
Q 4875 1116 5475 1497 
L 5900 903 
z
M 88 822 
Q 1250 991 2219 1359 
L 2456 891 
Q 1525 453 400 147 
Q 306 384 88 822 
z
M 4706 3672 
Q 5025 3959 5225 4322 
L 3694 4322 
Q 4206 3997 4706 3672 
z
M 2269 2978 
L 2269 3197 
L 1244 3197 
L 1244 2859 
Q 1769 2916 2269 2978 
z
M 1244 3597 
L 2269 3597 
L 2269 3853 
L 1244 3853 
L 1244 3597 
z
M 1244 4259 
L 2269 4259 
L 2269 4516 
L 1244 4516 
L 1244 4259 
z
" transform="scale(0.015625)"/>
     <path id="MicrosoftYaHei-Bold-29" d="M 59 -1100 
Q 1097 216 1097 1853 
Q 1097 3484 59 4841 
L 888 4841 
Q 1978 3544 1978 1853 
Q 1978 113 881 -1100 
L 59 -1100 
z
" transform="scale(0.015625)"/>
    </defs>
    <use xlink:href="#MicrosoftYaHei-Bold-7efc"/>
    <use xlink:href="#MicrosoftYaHei-Bold-5408" transform="translate(100 0)"/>
    <use xlink:href="#MicrosoftYaHei-Bold-6027" transform="translate(200 0)"/>
    <use xlink:href="#MicrosoftYaHei-Bold-80fd" transform="translate(300 0)"/>
    <use xlink:href="#MicrosoftYaHei-Bold-96f7" transform="translate(400 0)"/>
    <use xlink:href="#MicrosoftYaHei-Bold-8fbe" transform="translate(500 0)"/>
    <use xlink:href="#MicrosoftYaHei-Bold-56fe" transform="translate(600 0)"/>
    <use xlink:href="#MicrosoftYaHei-Bold-28" transform="translate(700 0)"/>
    <use xlink:href="#MicrosoftYaHei-Bold-6309" transform="translate(738.964844 0)"/>
    <use xlink:href="#MicrosoftYaHei-Bold-61" transform="translate(838.964844 0)"/>
    <use xlink:href="#MicrosoftYaHei-Bold-6c" transform="translate(896.728516 0)"/>
    <use xlink:href="#MicrosoftYaHei-Bold-67" transform="translate(926.318359 0)"/>
    <use xlink:href="#MicrosoftYaHei-Bold-6f" transform="translate(992.773438 0)"/>
    <use xlink:href="#MicrosoftYaHei-Bold-72" transform="translate(1058.496094 0)"/>
    <use xlink:href="#MicrosoftYaHei-Bold-69" transform="translate(1101.253906 0)"/>
    <use xlink:href="#MicrosoftYaHei-Bold-74" transform="translate(1130.84375 0)"/>
    <use xlink:href="#MicrosoftYaHei-Bold-68" transform="translate(1172.25 0)"/>
    <use xlink:href="#MicrosoftYaHei-Bold-6d" transform="translate(1236.800781 0)"/>
    <use xlink:href="#MicrosoftYaHei-Bold-805a" transform="translate(1334.994141 0)"/>
    <use xlink:href="#MicrosoftYaHei-Bold-5408" transform="translate(1434.994141 0)"/>
    <use xlink:href="#MicrosoftYaHei-Bold-29" transform="translate(1534.994141 0)"/>
   </g>
  </g>
 </g>
 <defs>
  <clipPath id="pa516ed550d">
   <path d="M 547.88 410.42 
C 547.88 377.020377 541.301003 343.945524 528.51952 313.088296 
C 515.738038 282.231068 497.002638 254.191561 473.385539 230.574461 
C 449.768439 206.957362 421.728932 188.221962 390.871704 175.44048 
C 360.014476 162.658997 326.939623 156.08 293.54 156.08 
C 260.140377 156.08 227.065524 162.658997 196.208296 175.44048 
C 165.351068 188.221962 137.311561 206.957362 113.694461 230.574461 
C 90.077362 254.191561 71.341962 282.231068 58.56048 313.088296 
C 45.778997 343.945524 39.2 377.020377 39.2 410.42 
C 39.2 443.819623 45.778997 476.894476 58.56048 507.751704 
C 71.341962 538.608932 90.077362 566.648439 113.694461 590.265539 
C 137.311561 613.882638 165.351068 632.618038 196.208296 645.39952 
C 227.065524 658.181003 260.140377 664.76 293.54 664.76 
C 326.939623 664.76 360.014476 658.181003 390.871704 645.39952 
C 421.728932 632.618038 449.768439 613.882638 473.385539 590.265539 
C 497.002638 566.648439 515.738038 538.608932 528.51952 507.751704 
C 541.301003 476.894476 547.88 443.819623 547.88 410.42 
M 293.54 410.42 
C 293.54 410.42 293.54 410.42 293.54 410.42 
C 293.54 410.42 293.54 410.42 293.54 410.42 
C 293.54 410.42 293.54 410.42 293.54 410.42 
C 293.54 410.42 293.54 410.42 293.54 410.42 
C 293.54 410.42 293.54 410.42 293.54 410.42 
C 293.54 410.42 293.54 410.42 293.54 410.42 
C 293.54 410.42 293.54 410.42 293.54 410.42 
C 293.54 410.42 293.54 410.42 293.54 410.42 
C 293.54 410.42 293.54 410.42 293.54 410.42 
C 293.54 410.42 293.54 410.42 293.54 410.42 
C 293.54 410.42 293.54 410.42 293.54 410.42 
C 293.54 410.42 293.54 410.42 293.54 410.42 
C 293.54 410.42 293.54 410.42 293.54 410.42 
C 293.54 410.42 293.54 410.42 293.54 410.42 
C 293.54 410.42 293.54 410.42 293.54 410.42 
C 293.54 410.42 293.54 410.42 293.54 410.42 
z
"/>
  </clipPath>
 </defs>
</svg>
